%TF.GenerationSoftware,KiCad,Pcbnew,9.0.2*%
%TF.CreationDate,2026-02-03T14:09:00-07:00*%
%TF.ProjectId,Uno_Shield_DSP_Class_v1,556e6f5f-5368-4696-956c-645f4453505f,rev?*%
%TF.SameCoordinates,Original*%
%TF.FileFunction,Legend,Top*%
%TF.FilePolarity,Positive*%
%FSLAX46Y46*%
G04 Gerber Fmt 4.6, Leading zero omitted, Abs format (unit mm)*
G04 Created by KiCad (PCBNEW 9.0.2) date 2026-02-03 14:09:00*
%MOMM*%
%LPD*%
G01*
G04 APERTURE LIST*
%ADD10C,0.150000*%
%ADD11C,0.120000*%
G04 APERTURE END LIST*
D10*
X86060000Y-70860000D02*
X113360000Y-70860000D01*
X113360000Y-98660000D01*
X86060000Y-98660000D01*
X86060000Y-70860000D01*
X100064800Y-56864160D02*
X100017180Y-57007017D01*
X100017180Y-57007017D02*
X100017180Y-57245112D01*
X100017180Y-57245112D02*
X100064800Y-57340350D01*
X100064800Y-57340350D02*
X100112419Y-57387969D01*
X100112419Y-57387969D02*
X100207657Y-57435588D01*
X100207657Y-57435588D02*
X100302895Y-57435588D01*
X100302895Y-57435588D02*
X100398133Y-57387969D01*
X100398133Y-57387969D02*
X100445752Y-57340350D01*
X100445752Y-57340350D02*
X100493371Y-57245112D01*
X100493371Y-57245112D02*
X100540990Y-57054636D01*
X100540990Y-57054636D02*
X100588609Y-56959398D01*
X100588609Y-56959398D02*
X100636228Y-56911779D01*
X100636228Y-56911779D02*
X100731466Y-56864160D01*
X100731466Y-56864160D02*
X100826704Y-56864160D01*
X100826704Y-56864160D02*
X100921942Y-56911779D01*
X100921942Y-56911779D02*
X100969561Y-56959398D01*
X100969561Y-56959398D02*
X101017180Y-57054636D01*
X101017180Y-57054636D02*
X101017180Y-57292731D01*
X101017180Y-57292731D02*
X100969561Y-57435588D01*
X100112419Y-58435588D02*
X100064800Y-58387969D01*
X100064800Y-58387969D02*
X100017180Y-58245112D01*
X100017180Y-58245112D02*
X100017180Y-58149874D01*
X100017180Y-58149874D02*
X100064800Y-58007017D01*
X100064800Y-58007017D02*
X100160038Y-57911779D01*
X100160038Y-57911779D02*
X100255276Y-57864160D01*
X100255276Y-57864160D02*
X100445752Y-57816541D01*
X100445752Y-57816541D02*
X100588609Y-57816541D01*
X100588609Y-57816541D02*
X100779085Y-57864160D01*
X100779085Y-57864160D02*
X100874323Y-57911779D01*
X100874323Y-57911779D02*
X100969561Y-58007017D01*
X100969561Y-58007017D02*
X101017180Y-58149874D01*
X101017180Y-58149874D02*
X101017180Y-58245112D01*
X101017180Y-58245112D02*
X100969561Y-58387969D01*
X100969561Y-58387969D02*
X100921942Y-58435588D01*
X100017180Y-59340350D02*
X100017180Y-58864160D01*
X100017180Y-58864160D02*
X101017180Y-58864160D01*
G36*
X166618344Y-58848669D02*
G01*
X166648751Y-58879076D01*
X166683009Y-58947592D01*
X166683009Y-59188220D01*
X166356819Y-59188220D01*
X166356819Y-58947592D01*
X166391077Y-58879076D01*
X166421484Y-58848669D01*
X166490000Y-58814411D01*
X166549828Y-58814411D01*
X166618344Y-58848669D01*
G37*
G36*
X167142153Y-58801050D02*
G01*
X167172561Y-58831457D01*
X167206819Y-58899973D01*
X167206819Y-59188220D01*
X166833009Y-59188220D01*
X166833009Y-58942057D01*
X166871180Y-58827543D01*
X166897674Y-58801050D01*
X166966190Y-58766792D01*
X167073637Y-58766792D01*
X167142153Y-58801050D01*
G37*
G36*
X167100617Y-55188085D02*
G01*
X167172561Y-55260028D01*
X167206819Y-55328544D01*
X167206819Y-55483610D01*
X167172561Y-55552125D01*
X167100617Y-55624068D01*
X166939251Y-55664410D01*
X166624386Y-55664410D01*
X166463019Y-55624068D01*
X166391077Y-55552126D01*
X166356819Y-55483610D01*
X166356819Y-55328544D01*
X166391077Y-55260028D01*
X166463019Y-55188085D01*
X166624386Y-55147744D01*
X166939251Y-55147744D01*
X167100617Y-55188085D01*
G37*
G36*
X167467930Y-59449331D02*
G01*
X166095708Y-59449331D01*
X166095708Y-58929887D01*
X166206819Y-58929887D01*
X166206819Y-59263220D01*
X166208260Y-59277852D01*
X166219459Y-59304888D01*
X166240151Y-59325580D01*
X166267187Y-59336779D01*
X166281819Y-59338220D01*
X167281819Y-59338220D01*
X167296451Y-59336779D01*
X167323487Y-59325580D01*
X167344179Y-59304888D01*
X167355378Y-59277852D01*
X167356819Y-59263220D01*
X167356819Y-58882268D01*
X167355378Y-58867636D01*
X167354347Y-58865147D01*
X167354156Y-58862458D01*
X167348901Y-58848727D01*
X167301282Y-58753489D01*
X167297317Y-58747189D01*
X167296560Y-58745362D01*
X167294872Y-58743305D01*
X167293450Y-58741046D01*
X167291950Y-58739745D01*
X167287232Y-58733996D01*
X167239612Y-58686377D01*
X167233863Y-58681659D01*
X167232564Y-58680161D01*
X167230305Y-58678739D01*
X167228247Y-58677050D01*
X167226417Y-58676292D01*
X167220121Y-58672329D01*
X167124883Y-58624710D01*
X167111151Y-58619455D01*
X167108463Y-58619264D01*
X167105974Y-58618233D01*
X167091342Y-58616792D01*
X166948485Y-58616792D01*
X166933853Y-58618233D01*
X166931364Y-58619263D01*
X166928675Y-58619455D01*
X166914944Y-58624710D01*
X166819706Y-58672329D01*
X166813406Y-58676293D01*
X166811579Y-58677051D01*
X166809522Y-58678739D01*
X166807263Y-58680161D01*
X166805963Y-58681659D01*
X166800214Y-58686378D01*
X166752595Y-58733997D01*
X166743268Y-58745362D01*
X166742236Y-58747852D01*
X166740471Y-58749888D01*
X166737762Y-58755955D01*
X166715804Y-58733997D01*
X166710054Y-58729278D01*
X166708755Y-58727780D01*
X166706495Y-58726358D01*
X166704439Y-58724670D01*
X166702611Y-58723912D01*
X166696312Y-58719948D01*
X166601074Y-58672329D01*
X166587342Y-58667074D01*
X166584654Y-58666883D01*
X166582165Y-58665852D01*
X166567533Y-58664411D01*
X166472295Y-58664411D01*
X166457663Y-58665852D01*
X166455174Y-58666882D01*
X166452485Y-58667074D01*
X166438754Y-58672329D01*
X166343516Y-58719948D01*
X166337216Y-58723912D01*
X166335389Y-58724670D01*
X166333332Y-58726358D01*
X166331073Y-58727780D01*
X166329773Y-58729278D01*
X166324024Y-58733997D01*
X166276405Y-58781616D01*
X166271686Y-58787365D01*
X166270188Y-58788665D01*
X166268766Y-58790924D01*
X166267078Y-58792981D01*
X166266320Y-58794808D01*
X166262356Y-58801108D01*
X166214737Y-58896346D01*
X166209482Y-58910078D01*
X166209291Y-58912765D01*
X166208260Y-58915255D01*
X166206819Y-58929887D01*
X166095708Y-58929887D01*
X166095708Y-57677160D01*
X166208260Y-57677160D01*
X166208260Y-57706424D01*
X166219459Y-57733460D01*
X166240151Y-57754152D01*
X166267187Y-57765351D01*
X166281819Y-57766792D01*
X167073637Y-57766792D01*
X167142153Y-57801050D01*
X167172561Y-57831457D01*
X167206819Y-57899973D01*
X167206819Y-58055039D01*
X167172561Y-58123554D01*
X167142153Y-58153961D01*
X167073637Y-58188220D01*
X166281819Y-58188220D01*
X166267187Y-58189661D01*
X166240151Y-58200860D01*
X166219459Y-58221552D01*
X166208260Y-58248588D01*
X166208260Y-58277852D01*
X166219459Y-58304888D01*
X166240151Y-58325580D01*
X166267187Y-58336779D01*
X166281819Y-58338220D01*
X167091342Y-58338220D01*
X167105974Y-58336779D01*
X167108463Y-58335747D01*
X167111151Y-58335557D01*
X167124883Y-58330302D01*
X167220121Y-58282683D01*
X167226417Y-58278719D01*
X167228247Y-58277962D01*
X167230305Y-58276272D01*
X167232564Y-58274851D01*
X167233863Y-58273352D01*
X167239612Y-58268635D01*
X167287232Y-58221016D01*
X167291950Y-58215266D01*
X167293450Y-58213966D01*
X167294872Y-58211706D01*
X167296560Y-58209650D01*
X167297317Y-58207822D01*
X167301282Y-58201523D01*
X167348901Y-58106285D01*
X167354156Y-58092554D01*
X167354347Y-58089864D01*
X167355378Y-58087376D01*
X167356819Y-58072744D01*
X167356819Y-57882268D01*
X167355378Y-57867636D01*
X167354347Y-57865147D01*
X167354156Y-57862458D01*
X167348901Y-57848727D01*
X167301282Y-57753489D01*
X167297317Y-57747189D01*
X167296560Y-57745362D01*
X167294872Y-57743305D01*
X167293450Y-57741046D01*
X167291950Y-57739745D01*
X167287232Y-57733996D01*
X167239612Y-57686377D01*
X167233863Y-57681659D01*
X167232564Y-57680161D01*
X167230305Y-57678739D01*
X167228247Y-57677050D01*
X167226417Y-57676292D01*
X167220121Y-57672329D01*
X167124883Y-57624710D01*
X167111151Y-57619455D01*
X167108463Y-57619264D01*
X167105974Y-57618233D01*
X167091342Y-57616792D01*
X166281819Y-57616792D01*
X166267187Y-57618233D01*
X166240151Y-57629432D01*
X166219459Y-57650124D01*
X166208260Y-57677160D01*
X166095708Y-57677160D01*
X166095708Y-56787030D01*
X166206819Y-56787030D01*
X166206819Y-57358458D01*
X166208260Y-57373090D01*
X166219459Y-57400126D01*
X166240151Y-57420818D01*
X166267187Y-57432017D01*
X166296451Y-57432017D01*
X166323487Y-57420818D01*
X166344179Y-57400126D01*
X166355378Y-57373090D01*
X166356819Y-57358458D01*
X166356819Y-57147744D01*
X167281819Y-57147744D01*
X167296451Y-57146303D01*
X167323487Y-57135104D01*
X167344179Y-57114412D01*
X167355378Y-57087376D01*
X167355378Y-57058112D01*
X167344179Y-57031076D01*
X167323487Y-57010384D01*
X167296451Y-56999185D01*
X167281819Y-56997744D01*
X166356819Y-56997744D01*
X166356819Y-56787030D01*
X166355378Y-56772398D01*
X166344179Y-56745362D01*
X166323487Y-56724670D01*
X166296451Y-56713471D01*
X166267187Y-56713471D01*
X166240151Y-56724670D01*
X166219459Y-56745362D01*
X166208260Y-56772398D01*
X166206819Y-56787030D01*
X166095708Y-56787030D01*
X166095708Y-56025125D01*
X166206819Y-56025125D01*
X166206819Y-56596553D01*
X166208260Y-56611185D01*
X166219459Y-56638221D01*
X166240151Y-56658913D01*
X166267187Y-56670112D01*
X166296451Y-56670112D01*
X166323487Y-56658913D01*
X166344179Y-56638221D01*
X166355378Y-56611185D01*
X166356819Y-56596553D01*
X166356819Y-56385839D01*
X167281819Y-56385839D01*
X167296451Y-56384398D01*
X167323487Y-56373199D01*
X167344179Y-56352507D01*
X167355378Y-56325471D01*
X167355378Y-56296207D01*
X167344179Y-56269171D01*
X167323487Y-56248479D01*
X167296451Y-56237280D01*
X167281819Y-56235839D01*
X166356819Y-56235839D01*
X166356819Y-56025125D01*
X166355378Y-56010493D01*
X166344179Y-55983457D01*
X166323487Y-55962765D01*
X166296451Y-55951566D01*
X166267187Y-55951566D01*
X166240151Y-55962765D01*
X166219459Y-55983457D01*
X166208260Y-56010493D01*
X166206819Y-56025125D01*
X166095708Y-56025125D01*
X166095708Y-55310839D01*
X166206819Y-55310839D01*
X166206819Y-55501315D01*
X166208260Y-55515947D01*
X166209291Y-55518436D01*
X166209482Y-55521124D01*
X166214737Y-55534856D01*
X166262356Y-55630094D01*
X166266320Y-55636393D01*
X166267078Y-55638221D01*
X166268766Y-55640277D01*
X166270188Y-55642537D01*
X166271686Y-55643836D01*
X166276405Y-55649586D01*
X166371643Y-55744824D01*
X166383008Y-55754152D01*
X166388161Y-55756286D01*
X166392640Y-55759605D01*
X166406486Y-55764552D01*
X166596962Y-55812171D01*
X166599498Y-55812546D01*
X166600520Y-55812969D01*
X166606032Y-55813511D01*
X166611506Y-55814321D01*
X166612598Y-55814158D01*
X166615152Y-55814410D01*
X166948485Y-55814410D01*
X166951038Y-55814158D01*
X166952131Y-55814321D01*
X166957604Y-55813511D01*
X166963117Y-55812969D01*
X166964138Y-55812546D01*
X166966675Y-55812171D01*
X167157151Y-55764552D01*
X167170997Y-55759605D01*
X167175476Y-55756285D01*
X167180628Y-55754152D01*
X167191994Y-55744824D01*
X167287233Y-55649586D01*
X167291953Y-55643835D01*
X167293450Y-55642537D01*
X167294869Y-55640282D01*
X167296561Y-55638221D01*
X167297319Y-55636388D01*
X167301282Y-55630094D01*
X167348901Y-55534856D01*
X167354156Y-55521125D01*
X167354347Y-55518435D01*
X167355378Y-55515947D01*
X167356819Y-55501315D01*
X167356819Y-55310839D01*
X167355378Y-55296207D01*
X167354347Y-55293718D01*
X167354156Y-55291029D01*
X167348901Y-55277298D01*
X167301282Y-55182060D01*
X167297319Y-55175765D01*
X167296561Y-55173933D01*
X167294869Y-55171871D01*
X167293450Y-55169617D01*
X167291953Y-55168318D01*
X167287233Y-55162568D01*
X167191994Y-55067330D01*
X167180628Y-55058002D01*
X167175476Y-55055868D01*
X167170997Y-55052549D01*
X167157151Y-55047602D01*
X166966675Y-54999983D01*
X166964138Y-54999607D01*
X166963117Y-54999185D01*
X166957604Y-54998642D01*
X166952131Y-54997833D01*
X166951038Y-54997995D01*
X166948485Y-54997744D01*
X166615152Y-54997744D01*
X166612598Y-54997995D01*
X166611506Y-54997833D01*
X166606032Y-54998642D01*
X166600520Y-54999185D01*
X166599498Y-54999607D01*
X166596962Y-54999983D01*
X166406486Y-55047602D01*
X166392640Y-55052549D01*
X166388161Y-55055867D01*
X166383008Y-55058002D01*
X166371643Y-55067330D01*
X166276405Y-55162568D01*
X166271686Y-55168317D01*
X166270188Y-55169617D01*
X166268766Y-55171876D01*
X166267078Y-55173933D01*
X166266320Y-55175760D01*
X166262356Y-55182060D01*
X166214737Y-55277298D01*
X166209482Y-55291030D01*
X166209291Y-55293717D01*
X166208260Y-55296207D01*
X166206819Y-55310839D01*
X166095708Y-55310839D01*
X166095708Y-54638933D01*
X166207002Y-54638933D01*
X166208260Y-54648829D01*
X166208260Y-54658804D01*
X166210089Y-54663219D01*
X166210692Y-54667963D01*
X166215642Y-54676627D01*
X166219459Y-54685840D01*
X166222837Y-54689218D01*
X166225211Y-54693372D01*
X166233100Y-54699481D01*
X166240151Y-54706532D01*
X166244567Y-54708361D01*
X166248348Y-54711289D01*
X166257971Y-54713913D01*
X166267187Y-54717731D01*
X166274669Y-54718467D01*
X166276580Y-54718989D01*
X166278055Y-54718801D01*
X166281819Y-54719172D01*
X167281819Y-54719172D01*
X167296451Y-54717731D01*
X167323487Y-54706532D01*
X167344179Y-54685840D01*
X167355378Y-54658804D01*
X167355378Y-54629540D01*
X167344179Y-54602504D01*
X167323487Y-54581812D01*
X167296451Y-54570613D01*
X167281819Y-54569172D01*
X166564236Y-54569172D01*
X167319030Y-54137862D01*
X167322114Y-54135672D01*
X167323487Y-54135104D01*
X167324884Y-54133706D01*
X167331019Y-54129352D01*
X167337127Y-54121463D01*
X167344179Y-54114412D01*
X167346009Y-54109993D01*
X167348936Y-54106214D01*
X167351560Y-54096592D01*
X167355378Y-54087376D01*
X167355378Y-54082595D01*
X167356636Y-54077983D01*
X167355378Y-54068086D01*
X167355378Y-54058112D01*
X167353548Y-54053696D01*
X167352946Y-54048953D01*
X167347995Y-54040288D01*
X167344179Y-54031076D01*
X167340800Y-54027697D01*
X167338427Y-54023544D01*
X167330537Y-54017434D01*
X167323487Y-54010384D01*
X167319070Y-54008554D01*
X167315290Y-54005627D01*
X167305666Y-54003002D01*
X167296451Y-53999185D01*
X167288968Y-53998448D01*
X167287058Y-53997927D01*
X167285582Y-53998114D01*
X167281819Y-53997744D01*
X166281819Y-53997744D01*
X166267187Y-53999185D01*
X166240151Y-54010384D01*
X166219459Y-54031076D01*
X166208260Y-54058112D01*
X166208260Y-54087376D01*
X166219459Y-54114412D01*
X166240151Y-54135104D01*
X166267187Y-54146303D01*
X166281819Y-54147744D01*
X166999402Y-54147744D01*
X166244609Y-54579054D01*
X166241525Y-54581242D01*
X166240151Y-54581812D01*
X166238751Y-54583211D01*
X166232619Y-54587564D01*
X166226509Y-54595453D01*
X166219459Y-54602504D01*
X166217629Y-54606920D01*
X166214702Y-54610701D01*
X166212077Y-54620324D01*
X166208260Y-54629540D01*
X166208260Y-54634320D01*
X166207002Y-54638933D01*
X166095708Y-54638933D01*
X166095708Y-52501315D01*
X166206819Y-52501315D01*
X166206819Y-52739410D01*
X166208260Y-52754042D01*
X166209291Y-52756531D01*
X166209482Y-52759219D01*
X166214737Y-52772951D01*
X166262356Y-52868189D01*
X166266320Y-52874488D01*
X166267078Y-52876316D01*
X166268766Y-52878372D01*
X166270188Y-52880632D01*
X166271686Y-52881931D01*
X166276405Y-52887681D01*
X166324024Y-52935300D01*
X166335389Y-52944627D01*
X166362425Y-52955826D01*
X166391688Y-52955826D01*
X166418724Y-52944627D01*
X166439417Y-52923934D01*
X166450616Y-52896898D01*
X166450616Y-52867635D01*
X166439417Y-52840599D01*
X166430090Y-52829234D01*
X166391077Y-52790221D01*
X166356819Y-52721705D01*
X166356819Y-52519020D01*
X166391077Y-52450504D01*
X166421484Y-52420097D01*
X166490000Y-52385839D01*
X166555363Y-52385839D01*
X166669876Y-52424010D01*
X167228786Y-52982919D01*
X167240151Y-52992247D01*
X167259268Y-53000165D01*
X167267187Y-53003445D01*
X167267188Y-53003445D01*
X167296451Y-53003445D01*
X167323487Y-52992246D01*
X167344180Y-52971554D01*
X167352098Y-52952436D01*
X167355378Y-52944518D01*
X167356819Y-52929886D01*
X167356819Y-52310839D01*
X167355378Y-52296207D01*
X167344179Y-52269171D01*
X167323487Y-52248479D01*
X167296451Y-52237280D01*
X167267187Y-52237280D01*
X167240151Y-52248479D01*
X167219459Y-52269171D01*
X167208260Y-52296207D01*
X167206819Y-52310839D01*
X167206819Y-52748820D01*
X166763423Y-52305425D01*
X166752058Y-52296098D01*
X166749567Y-52295066D01*
X166747532Y-52293301D01*
X166734107Y-52287307D01*
X166591250Y-52239688D01*
X166583996Y-52238038D01*
X166582165Y-52237280D01*
X166579510Y-52237018D01*
X166576913Y-52236428D01*
X166574938Y-52236568D01*
X166567533Y-52235839D01*
X166472295Y-52235839D01*
X166457663Y-52237280D01*
X166455174Y-52238310D01*
X166452485Y-52238502D01*
X166438754Y-52243757D01*
X166343516Y-52291376D01*
X166337216Y-52295340D01*
X166335389Y-52296098D01*
X166333332Y-52297786D01*
X166331073Y-52299208D01*
X166329773Y-52300706D01*
X166324024Y-52305425D01*
X166276405Y-52353044D01*
X166271686Y-52358793D01*
X166270188Y-52360093D01*
X166268766Y-52362352D01*
X166267078Y-52364409D01*
X166266320Y-52366236D01*
X166262356Y-52372536D01*
X166214737Y-52467774D01*
X166209482Y-52481506D01*
X166209291Y-52484193D01*
X166208260Y-52486683D01*
X166206819Y-52501315D01*
X166095708Y-52501315D01*
X166095708Y-52124728D01*
X167467930Y-52124728D01*
X167467930Y-59449331D01*
G37*
X103594561Y-57410588D02*
X103642180Y-57315350D01*
X103642180Y-57315350D02*
X103642180Y-57172493D01*
X103642180Y-57172493D02*
X103594561Y-57029636D01*
X103594561Y-57029636D02*
X103499323Y-56934398D01*
X103499323Y-56934398D02*
X103404085Y-56886779D01*
X103404085Y-56886779D02*
X103213609Y-56839160D01*
X103213609Y-56839160D02*
X103070752Y-56839160D01*
X103070752Y-56839160D02*
X102880276Y-56886779D01*
X102880276Y-56886779D02*
X102785038Y-56934398D01*
X102785038Y-56934398D02*
X102689800Y-57029636D01*
X102689800Y-57029636D02*
X102642180Y-57172493D01*
X102642180Y-57172493D02*
X102642180Y-57267731D01*
X102642180Y-57267731D02*
X102689800Y-57410588D01*
X102689800Y-57410588D02*
X102737419Y-57458207D01*
X102737419Y-57458207D02*
X103070752Y-57458207D01*
X103070752Y-57458207D02*
X103070752Y-57267731D01*
X102642180Y-57886779D02*
X103642180Y-57886779D01*
X103642180Y-57886779D02*
X102642180Y-58458207D01*
X102642180Y-58458207D02*
X103642180Y-58458207D01*
X102642180Y-58934398D02*
X103642180Y-58934398D01*
X103642180Y-58934398D02*
X103642180Y-59172493D01*
X103642180Y-59172493D02*
X103594561Y-59315350D01*
X103594561Y-59315350D02*
X103499323Y-59410588D01*
X103499323Y-59410588D02*
X103404085Y-59458207D01*
X103404085Y-59458207D02*
X103213609Y-59505826D01*
X103213609Y-59505826D02*
X103070752Y-59505826D01*
X103070752Y-59505826D02*
X102880276Y-59458207D01*
X102880276Y-59458207D02*
X102785038Y-59410588D01*
X102785038Y-59410588D02*
X102689800Y-59315350D01*
X102689800Y-59315350D02*
X102642180Y-59172493D01*
X102642180Y-59172493D02*
X102642180Y-58934398D01*
X87961874Y-50572438D02*
X87961874Y-48572438D01*
X87961874Y-48572438D02*
X88438064Y-48572438D01*
X88438064Y-48572438D02*
X88723779Y-48667676D01*
X88723779Y-48667676D02*
X88914255Y-48858152D01*
X88914255Y-48858152D02*
X89009493Y-49048628D01*
X89009493Y-49048628D02*
X89104731Y-49429580D01*
X89104731Y-49429580D02*
X89104731Y-49715295D01*
X89104731Y-49715295D02*
X89009493Y-50096247D01*
X89009493Y-50096247D02*
X88914255Y-50286723D01*
X88914255Y-50286723D02*
X88723779Y-50477200D01*
X88723779Y-50477200D02*
X88438064Y-50572438D01*
X88438064Y-50572438D02*
X87961874Y-50572438D01*
X89866636Y-50477200D02*
X90152350Y-50572438D01*
X90152350Y-50572438D02*
X90628541Y-50572438D01*
X90628541Y-50572438D02*
X90819017Y-50477200D01*
X90819017Y-50477200D02*
X90914255Y-50381961D01*
X90914255Y-50381961D02*
X91009493Y-50191485D01*
X91009493Y-50191485D02*
X91009493Y-50001009D01*
X91009493Y-50001009D02*
X90914255Y-49810533D01*
X90914255Y-49810533D02*
X90819017Y-49715295D01*
X90819017Y-49715295D02*
X90628541Y-49620057D01*
X90628541Y-49620057D02*
X90247588Y-49524819D01*
X90247588Y-49524819D02*
X90057112Y-49429580D01*
X90057112Y-49429580D02*
X89961874Y-49334342D01*
X89961874Y-49334342D02*
X89866636Y-49143866D01*
X89866636Y-49143866D02*
X89866636Y-48953390D01*
X89866636Y-48953390D02*
X89961874Y-48762914D01*
X89961874Y-48762914D02*
X90057112Y-48667676D01*
X90057112Y-48667676D02*
X90247588Y-48572438D01*
X90247588Y-48572438D02*
X90723779Y-48572438D01*
X90723779Y-48572438D02*
X91009493Y-48667676D01*
X91866636Y-50572438D02*
X91866636Y-48572438D01*
X91866636Y-48572438D02*
X92628541Y-48572438D01*
X92628541Y-48572438D02*
X92819017Y-48667676D01*
X92819017Y-48667676D02*
X92914255Y-48762914D01*
X92914255Y-48762914D02*
X93009493Y-48953390D01*
X93009493Y-48953390D02*
X93009493Y-49239104D01*
X93009493Y-49239104D02*
X92914255Y-49429580D01*
X92914255Y-49429580D02*
X92819017Y-49524819D01*
X92819017Y-49524819D02*
X92628541Y-49620057D01*
X92628541Y-49620057D02*
X91866636Y-49620057D01*
X95295208Y-50477200D02*
X95580922Y-50572438D01*
X95580922Y-50572438D02*
X96057113Y-50572438D01*
X96057113Y-50572438D02*
X96247589Y-50477200D01*
X96247589Y-50477200D02*
X96342827Y-50381961D01*
X96342827Y-50381961D02*
X96438065Y-50191485D01*
X96438065Y-50191485D02*
X96438065Y-50001009D01*
X96438065Y-50001009D02*
X96342827Y-49810533D01*
X96342827Y-49810533D02*
X96247589Y-49715295D01*
X96247589Y-49715295D02*
X96057113Y-49620057D01*
X96057113Y-49620057D02*
X95676160Y-49524819D01*
X95676160Y-49524819D02*
X95485684Y-49429580D01*
X95485684Y-49429580D02*
X95390446Y-49334342D01*
X95390446Y-49334342D02*
X95295208Y-49143866D01*
X95295208Y-49143866D02*
X95295208Y-48953390D01*
X95295208Y-48953390D02*
X95390446Y-48762914D01*
X95390446Y-48762914D02*
X95485684Y-48667676D01*
X95485684Y-48667676D02*
X95676160Y-48572438D01*
X95676160Y-48572438D02*
X96152351Y-48572438D01*
X96152351Y-48572438D02*
X96438065Y-48667676D01*
X97295208Y-50572438D02*
X97295208Y-48572438D01*
X97295208Y-49524819D02*
X98438065Y-49524819D01*
X98438065Y-50572438D02*
X98438065Y-48572438D01*
X99390446Y-50572438D02*
X99390446Y-48572438D01*
X100342827Y-49524819D02*
X101009494Y-49524819D01*
X101295208Y-50572438D02*
X100342827Y-50572438D01*
X100342827Y-50572438D02*
X100342827Y-48572438D01*
X100342827Y-48572438D02*
X101295208Y-48572438D01*
X103104732Y-50572438D02*
X102152351Y-50572438D01*
X102152351Y-50572438D02*
X102152351Y-48572438D01*
X103771399Y-50572438D02*
X103771399Y-48572438D01*
X103771399Y-48572438D02*
X104247589Y-48572438D01*
X104247589Y-48572438D02*
X104533304Y-48667676D01*
X104533304Y-48667676D02*
X104723780Y-48858152D01*
X104723780Y-48858152D02*
X104819018Y-49048628D01*
X104819018Y-49048628D02*
X104914256Y-49429580D01*
X104914256Y-49429580D02*
X104914256Y-49715295D01*
X104914256Y-49715295D02*
X104819018Y-50096247D01*
X104819018Y-50096247D02*
X104723780Y-50286723D01*
X104723780Y-50286723D02*
X104533304Y-50477200D01*
X104533304Y-50477200D02*
X104247589Y-50572438D01*
X104247589Y-50572438D02*
X103771399Y-50572438D01*
G36*
X166568344Y-66723669D02*
G01*
X166598751Y-66754076D01*
X166633009Y-66822592D01*
X166633009Y-67063220D01*
X166306819Y-67063220D01*
X166306819Y-66822592D01*
X166341077Y-66754076D01*
X166371484Y-66723669D01*
X166440000Y-66689411D01*
X166499828Y-66689411D01*
X166568344Y-66723669D01*
G37*
G36*
X167092153Y-66676050D02*
G01*
X167122561Y-66706457D01*
X167156819Y-66774973D01*
X167156819Y-67063220D01*
X166783009Y-67063220D01*
X166783009Y-66817057D01*
X166821180Y-66702543D01*
X166847674Y-66676050D01*
X166916190Y-66641792D01*
X167023637Y-66641792D01*
X167092153Y-66676050D01*
G37*
G36*
X167050617Y-63063085D02*
G01*
X167122561Y-63135028D01*
X167156819Y-63203544D01*
X167156819Y-63358610D01*
X167122561Y-63427125D01*
X167050617Y-63499068D01*
X166889251Y-63539410D01*
X166574386Y-63539410D01*
X166413019Y-63499068D01*
X166341077Y-63427126D01*
X166306819Y-63358610D01*
X166306819Y-63203544D01*
X166341077Y-63135028D01*
X166413019Y-63063085D01*
X166574386Y-63022744D01*
X166889251Y-63022744D01*
X167050617Y-63063085D01*
G37*
G36*
X167417930Y-67324331D02*
G01*
X166045708Y-67324331D01*
X166045708Y-66804887D01*
X166156819Y-66804887D01*
X166156819Y-67138220D01*
X166158260Y-67152852D01*
X166169459Y-67179888D01*
X166190151Y-67200580D01*
X166217187Y-67211779D01*
X166231819Y-67213220D01*
X167231819Y-67213220D01*
X167246451Y-67211779D01*
X167273487Y-67200580D01*
X167294179Y-67179888D01*
X167305378Y-67152852D01*
X167306819Y-67138220D01*
X167306819Y-66757268D01*
X167305378Y-66742636D01*
X167304347Y-66740147D01*
X167304156Y-66737458D01*
X167298901Y-66723727D01*
X167251282Y-66628489D01*
X167247317Y-66622189D01*
X167246560Y-66620362D01*
X167244872Y-66618305D01*
X167243450Y-66616046D01*
X167241950Y-66614745D01*
X167237232Y-66608996D01*
X167189612Y-66561377D01*
X167183863Y-66556659D01*
X167182564Y-66555161D01*
X167180305Y-66553739D01*
X167178247Y-66552050D01*
X167176417Y-66551292D01*
X167170121Y-66547329D01*
X167074883Y-66499710D01*
X167061151Y-66494455D01*
X167058463Y-66494264D01*
X167055974Y-66493233D01*
X167041342Y-66491792D01*
X166898485Y-66491792D01*
X166883853Y-66493233D01*
X166881364Y-66494263D01*
X166878675Y-66494455D01*
X166864944Y-66499710D01*
X166769706Y-66547329D01*
X166763406Y-66551293D01*
X166761579Y-66552051D01*
X166759522Y-66553739D01*
X166757263Y-66555161D01*
X166755963Y-66556659D01*
X166750214Y-66561378D01*
X166702595Y-66608997D01*
X166693268Y-66620362D01*
X166692236Y-66622852D01*
X166690471Y-66624888D01*
X166687762Y-66630955D01*
X166665804Y-66608997D01*
X166660054Y-66604278D01*
X166658755Y-66602780D01*
X166656495Y-66601358D01*
X166654439Y-66599670D01*
X166652611Y-66598912D01*
X166646312Y-66594948D01*
X166551074Y-66547329D01*
X166537342Y-66542074D01*
X166534654Y-66541883D01*
X166532165Y-66540852D01*
X166517533Y-66539411D01*
X166422295Y-66539411D01*
X166407663Y-66540852D01*
X166405174Y-66541882D01*
X166402485Y-66542074D01*
X166388754Y-66547329D01*
X166293516Y-66594948D01*
X166287216Y-66598912D01*
X166285389Y-66599670D01*
X166283332Y-66601358D01*
X166281073Y-66602780D01*
X166279773Y-66604278D01*
X166274024Y-66608997D01*
X166226405Y-66656616D01*
X166221686Y-66662365D01*
X166220188Y-66663665D01*
X166218766Y-66665924D01*
X166217078Y-66667981D01*
X166216320Y-66669808D01*
X166212356Y-66676108D01*
X166164737Y-66771346D01*
X166159482Y-66785078D01*
X166159291Y-66787765D01*
X166158260Y-66790255D01*
X166156819Y-66804887D01*
X166045708Y-66804887D01*
X166045708Y-65552160D01*
X166158260Y-65552160D01*
X166158260Y-65581424D01*
X166169459Y-65608460D01*
X166190151Y-65629152D01*
X166217187Y-65640351D01*
X166231819Y-65641792D01*
X167023637Y-65641792D01*
X167092153Y-65676050D01*
X167122561Y-65706457D01*
X167156819Y-65774973D01*
X167156819Y-65930039D01*
X167122561Y-65998554D01*
X167092153Y-66028961D01*
X167023637Y-66063220D01*
X166231819Y-66063220D01*
X166217187Y-66064661D01*
X166190151Y-66075860D01*
X166169459Y-66096552D01*
X166158260Y-66123588D01*
X166158260Y-66152852D01*
X166169459Y-66179888D01*
X166190151Y-66200580D01*
X166217187Y-66211779D01*
X166231819Y-66213220D01*
X167041342Y-66213220D01*
X167055974Y-66211779D01*
X167058463Y-66210747D01*
X167061151Y-66210557D01*
X167074883Y-66205302D01*
X167170121Y-66157683D01*
X167176417Y-66153719D01*
X167178247Y-66152962D01*
X167180305Y-66151272D01*
X167182564Y-66149851D01*
X167183863Y-66148352D01*
X167189612Y-66143635D01*
X167237232Y-66096016D01*
X167241950Y-66090266D01*
X167243450Y-66088966D01*
X167244872Y-66086706D01*
X167246560Y-66084650D01*
X167247317Y-66082822D01*
X167251282Y-66076523D01*
X167298901Y-65981285D01*
X167304156Y-65967554D01*
X167304347Y-65964864D01*
X167305378Y-65962376D01*
X167306819Y-65947744D01*
X167306819Y-65757268D01*
X167305378Y-65742636D01*
X167304347Y-65740147D01*
X167304156Y-65737458D01*
X167298901Y-65723727D01*
X167251282Y-65628489D01*
X167247317Y-65622189D01*
X167246560Y-65620362D01*
X167244872Y-65618305D01*
X167243450Y-65616046D01*
X167241950Y-65614745D01*
X167237232Y-65608996D01*
X167189612Y-65561377D01*
X167183863Y-65556659D01*
X167182564Y-65555161D01*
X167180305Y-65553739D01*
X167178247Y-65552050D01*
X167176417Y-65551292D01*
X167170121Y-65547329D01*
X167074883Y-65499710D01*
X167061151Y-65494455D01*
X167058463Y-65494264D01*
X167055974Y-65493233D01*
X167041342Y-65491792D01*
X166231819Y-65491792D01*
X166217187Y-65493233D01*
X166190151Y-65504432D01*
X166169459Y-65525124D01*
X166158260Y-65552160D01*
X166045708Y-65552160D01*
X166045708Y-64662030D01*
X166156819Y-64662030D01*
X166156819Y-65233458D01*
X166158260Y-65248090D01*
X166169459Y-65275126D01*
X166190151Y-65295818D01*
X166217187Y-65307017D01*
X166246451Y-65307017D01*
X166273487Y-65295818D01*
X166294179Y-65275126D01*
X166305378Y-65248090D01*
X166306819Y-65233458D01*
X166306819Y-65022744D01*
X167231819Y-65022744D01*
X167246451Y-65021303D01*
X167273487Y-65010104D01*
X167294179Y-64989412D01*
X167305378Y-64962376D01*
X167305378Y-64933112D01*
X167294179Y-64906076D01*
X167273487Y-64885384D01*
X167246451Y-64874185D01*
X167231819Y-64872744D01*
X166306819Y-64872744D01*
X166306819Y-64662030D01*
X166305378Y-64647398D01*
X166294179Y-64620362D01*
X166273487Y-64599670D01*
X166246451Y-64588471D01*
X166217187Y-64588471D01*
X166190151Y-64599670D01*
X166169459Y-64620362D01*
X166158260Y-64647398D01*
X166156819Y-64662030D01*
X166045708Y-64662030D01*
X166045708Y-63900125D01*
X166156819Y-63900125D01*
X166156819Y-64471553D01*
X166158260Y-64486185D01*
X166169459Y-64513221D01*
X166190151Y-64533913D01*
X166217187Y-64545112D01*
X166246451Y-64545112D01*
X166273487Y-64533913D01*
X166294179Y-64513221D01*
X166305378Y-64486185D01*
X166306819Y-64471553D01*
X166306819Y-64260839D01*
X167231819Y-64260839D01*
X167246451Y-64259398D01*
X167273487Y-64248199D01*
X167294179Y-64227507D01*
X167305378Y-64200471D01*
X167305378Y-64171207D01*
X167294179Y-64144171D01*
X167273487Y-64123479D01*
X167246451Y-64112280D01*
X167231819Y-64110839D01*
X166306819Y-64110839D01*
X166306819Y-63900125D01*
X166305378Y-63885493D01*
X166294179Y-63858457D01*
X166273487Y-63837765D01*
X166246451Y-63826566D01*
X166217187Y-63826566D01*
X166190151Y-63837765D01*
X166169459Y-63858457D01*
X166158260Y-63885493D01*
X166156819Y-63900125D01*
X166045708Y-63900125D01*
X166045708Y-63185839D01*
X166156819Y-63185839D01*
X166156819Y-63376315D01*
X166158260Y-63390947D01*
X166159291Y-63393436D01*
X166159482Y-63396124D01*
X166164737Y-63409856D01*
X166212356Y-63505094D01*
X166216320Y-63511393D01*
X166217078Y-63513221D01*
X166218766Y-63515277D01*
X166220188Y-63517537D01*
X166221686Y-63518836D01*
X166226405Y-63524586D01*
X166321643Y-63619824D01*
X166333008Y-63629152D01*
X166338161Y-63631286D01*
X166342640Y-63634605D01*
X166356486Y-63639552D01*
X166546962Y-63687171D01*
X166549498Y-63687546D01*
X166550520Y-63687969D01*
X166556032Y-63688511D01*
X166561506Y-63689321D01*
X166562598Y-63689158D01*
X166565152Y-63689410D01*
X166898485Y-63689410D01*
X166901038Y-63689158D01*
X166902131Y-63689321D01*
X166907604Y-63688511D01*
X166913117Y-63687969D01*
X166914138Y-63687546D01*
X166916675Y-63687171D01*
X167107151Y-63639552D01*
X167120997Y-63634605D01*
X167125476Y-63631285D01*
X167130628Y-63629152D01*
X167141994Y-63619824D01*
X167237233Y-63524586D01*
X167241953Y-63518835D01*
X167243450Y-63517537D01*
X167244869Y-63515282D01*
X167246561Y-63513221D01*
X167247319Y-63511388D01*
X167251282Y-63505094D01*
X167298901Y-63409856D01*
X167304156Y-63396125D01*
X167304347Y-63393435D01*
X167305378Y-63390947D01*
X167306819Y-63376315D01*
X167306819Y-63185839D01*
X167305378Y-63171207D01*
X167304347Y-63168718D01*
X167304156Y-63166029D01*
X167298901Y-63152298D01*
X167251282Y-63057060D01*
X167247319Y-63050765D01*
X167246561Y-63048933D01*
X167244869Y-63046871D01*
X167243450Y-63044617D01*
X167241953Y-63043318D01*
X167237233Y-63037568D01*
X167141994Y-62942330D01*
X167130628Y-62933002D01*
X167125476Y-62930868D01*
X167120997Y-62927549D01*
X167107151Y-62922602D01*
X166916675Y-62874983D01*
X166914138Y-62874607D01*
X166913117Y-62874185D01*
X166907604Y-62873642D01*
X166902131Y-62872833D01*
X166901038Y-62872995D01*
X166898485Y-62872744D01*
X166565152Y-62872744D01*
X166562598Y-62872995D01*
X166561506Y-62872833D01*
X166556032Y-62873642D01*
X166550520Y-62874185D01*
X166549498Y-62874607D01*
X166546962Y-62874983D01*
X166356486Y-62922602D01*
X166342640Y-62927549D01*
X166338161Y-62930867D01*
X166333008Y-62933002D01*
X166321643Y-62942330D01*
X166226405Y-63037568D01*
X166221686Y-63043317D01*
X166220188Y-63044617D01*
X166218766Y-63046876D01*
X166217078Y-63048933D01*
X166216320Y-63050760D01*
X166212356Y-63057060D01*
X166164737Y-63152298D01*
X166159482Y-63166030D01*
X166159291Y-63168717D01*
X166158260Y-63171207D01*
X166156819Y-63185839D01*
X166045708Y-63185839D01*
X166045708Y-62513933D01*
X166157002Y-62513933D01*
X166158260Y-62523829D01*
X166158260Y-62533804D01*
X166160089Y-62538219D01*
X166160692Y-62542963D01*
X166165642Y-62551627D01*
X166169459Y-62560840D01*
X166172837Y-62564218D01*
X166175211Y-62568372D01*
X166183100Y-62574481D01*
X166190151Y-62581532D01*
X166194567Y-62583361D01*
X166198348Y-62586289D01*
X166207971Y-62588913D01*
X166217187Y-62592731D01*
X166224669Y-62593467D01*
X166226580Y-62593989D01*
X166228055Y-62593801D01*
X166231819Y-62594172D01*
X167231819Y-62594172D01*
X167246451Y-62592731D01*
X167273487Y-62581532D01*
X167294179Y-62560840D01*
X167305378Y-62533804D01*
X167305378Y-62504540D01*
X167294179Y-62477504D01*
X167273487Y-62456812D01*
X167246451Y-62445613D01*
X167231819Y-62444172D01*
X166514236Y-62444172D01*
X167269030Y-62012862D01*
X167272114Y-62010672D01*
X167273487Y-62010104D01*
X167274884Y-62008706D01*
X167281019Y-62004352D01*
X167287127Y-61996463D01*
X167294179Y-61989412D01*
X167296009Y-61984993D01*
X167298936Y-61981214D01*
X167301560Y-61971592D01*
X167305378Y-61962376D01*
X167305378Y-61957595D01*
X167306636Y-61952983D01*
X167305378Y-61943086D01*
X167305378Y-61933112D01*
X167303548Y-61928696D01*
X167302946Y-61923953D01*
X167297995Y-61915288D01*
X167294179Y-61906076D01*
X167290800Y-61902697D01*
X167288427Y-61898544D01*
X167280537Y-61892434D01*
X167273487Y-61885384D01*
X167269070Y-61883554D01*
X167265290Y-61880627D01*
X167255666Y-61878002D01*
X167246451Y-61874185D01*
X167238968Y-61873448D01*
X167237058Y-61872927D01*
X167235582Y-61873114D01*
X167231819Y-61872744D01*
X166231819Y-61872744D01*
X166217187Y-61874185D01*
X166190151Y-61885384D01*
X166169459Y-61906076D01*
X166158260Y-61933112D01*
X166158260Y-61962376D01*
X166169459Y-61989412D01*
X166190151Y-62010104D01*
X166217187Y-62021303D01*
X166231819Y-62022744D01*
X166949402Y-62022744D01*
X166194609Y-62454054D01*
X166191525Y-62456242D01*
X166190151Y-62456812D01*
X166188751Y-62458211D01*
X166182619Y-62462564D01*
X166176509Y-62470453D01*
X166169459Y-62477504D01*
X166167629Y-62481920D01*
X166164702Y-62485701D01*
X166162077Y-62495324D01*
X166158260Y-62504540D01*
X166158260Y-62509320D01*
X166157002Y-62513933D01*
X166045708Y-62513933D01*
X166045708Y-60471632D01*
X166156819Y-60471632D01*
X166158260Y-60478836D01*
X166158260Y-60486185D01*
X166161101Y-60493045D01*
X166162558Y-60500326D01*
X166166646Y-60506431D01*
X166169459Y-60513221D01*
X166174709Y-60518471D01*
X166178841Y-60524641D01*
X166190099Y-60533861D01*
X166190151Y-60533913D01*
X166190173Y-60533922D01*
X166190216Y-60533957D01*
X166326894Y-60625075D01*
X166408275Y-60706456D01*
X166450451Y-60790808D01*
X166458283Y-60803251D01*
X166480391Y-60822424D01*
X166508152Y-60831678D01*
X166537342Y-60829604D01*
X166563517Y-60816516D01*
X166582690Y-60794409D01*
X166591944Y-60766647D01*
X166589870Y-60737457D01*
X166584615Y-60723726D01*
X166536996Y-60628488D01*
X166533033Y-60622193D01*
X166532275Y-60620361D01*
X166530583Y-60618299D01*
X166529164Y-60616045D01*
X166527667Y-60614746D01*
X166522947Y-60608996D01*
X166460504Y-60546553D01*
X167156819Y-60546553D01*
X167156819Y-60757267D01*
X167158260Y-60771899D01*
X167169459Y-60798935D01*
X167190151Y-60819627D01*
X167217187Y-60830826D01*
X167246451Y-60830826D01*
X167273487Y-60819627D01*
X167294179Y-60798935D01*
X167305378Y-60771899D01*
X167306819Y-60757267D01*
X167306819Y-60185839D01*
X167305378Y-60171207D01*
X167294179Y-60144171D01*
X167273487Y-60123479D01*
X167246451Y-60112280D01*
X167217187Y-60112280D01*
X167190151Y-60123479D01*
X167169459Y-60144171D01*
X167158260Y-60171207D01*
X167156819Y-60185839D01*
X167156819Y-60396553D01*
X166231819Y-60396553D01*
X166231766Y-60396558D01*
X166231740Y-60396553D01*
X166231663Y-60396568D01*
X166217187Y-60397994D01*
X166210326Y-60400835D01*
X166203046Y-60402292D01*
X166196940Y-60406380D01*
X166190151Y-60409193D01*
X166184900Y-60414443D01*
X166178731Y-60418575D01*
X166174654Y-60424689D01*
X166169459Y-60429885D01*
X166166617Y-60436745D01*
X166162498Y-60442924D01*
X166161072Y-60450132D01*
X166158260Y-60456921D01*
X166158260Y-60464347D01*
X166156819Y-60471632D01*
X166045708Y-60471632D01*
X166045708Y-60001169D01*
X167417930Y-60001169D01*
X167417930Y-67324331D01*
G37*
G36*
X144305542Y-83254077D02*
G01*
X144377484Y-83326019D01*
X144417826Y-83487386D01*
X144417826Y-83802251D01*
X144377484Y-83963617D01*
X144305541Y-84035561D01*
X144237026Y-84069819D01*
X144081960Y-84069819D01*
X144013444Y-84035561D01*
X143941501Y-83963617D01*
X143901160Y-83802251D01*
X143901160Y-83487386D01*
X143941501Y-83326019D01*
X144013444Y-83254077D01*
X144081960Y-83219819D01*
X144237026Y-83219819D01*
X144305542Y-83254077D01*
G37*
G36*
X143305542Y-83254077D02*
G01*
X143335949Y-83284484D01*
X143370207Y-83353000D01*
X143370207Y-83460447D01*
X143335949Y-83528963D01*
X143305542Y-83559370D01*
X143237026Y-83593628D01*
X142948779Y-83593628D01*
X142948779Y-83219819D01*
X143237026Y-83219819D01*
X143305542Y-83254077D01*
G37*
G36*
X147155128Y-84330930D02*
G01*
X142687668Y-84330930D01*
X142687668Y-83144819D01*
X142798779Y-83144819D01*
X142798779Y-84144819D01*
X142800220Y-84159451D01*
X142811419Y-84186487D01*
X142832111Y-84207179D01*
X142859147Y-84218378D01*
X142888411Y-84218378D01*
X142915447Y-84207179D01*
X142936139Y-84186487D01*
X142947338Y-84159451D01*
X142948779Y-84144819D01*
X142948779Y-83743628D01*
X143254731Y-83743628D01*
X143269363Y-83742187D01*
X143271852Y-83741155D01*
X143274540Y-83740965D01*
X143288272Y-83735710D01*
X143383510Y-83688091D01*
X143389809Y-83684126D01*
X143391637Y-83683369D01*
X143393693Y-83681680D01*
X143395953Y-83680259D01*
X143397252Y-83678760D01*
X143403002Y-83674042D01*
X143450621Y-83626423D01*
X143455339Y-83620673D01*
X143456838Y-83619374D01*
X143458259Y-83617114D01*
X143459948Y-83615058D01*
X143460705Y-83613230D01*
X143464670Y-83606931D01*
X143512289Y-83511693D01*
X143517544Y-83497962D01*
X143517735Y-83495272D01*
X143518766Y-83492784D01*
X143520207Y-83478152D01*
X143751160Y-83478152D01*
X143751160Y-83811485D01*
X143751411Y-83814038D01*
X143751249Y-83815131D01*
X143752058Y-83820604D01*
X143752601Y-83826117D01*
X143753023Y-83827138D01*
X143753399Y-83829675D01*
X143801018Y-84020151D01*
X143805965Y-84033997D01*
X143809284Y-84038476D01*
X143811418Y-84043628D01*
X143820746Y-84054994D01*
X143915984Y-84150233D01*
X143921734Y-84154953D01*
X143923033Y-84156450D01*
X143925287Y-84157869D01*
X143927349Y-84159561D01*
X143929181Y-84160319D01*
X143935476Y-84164282D01*
X144030714Y-84211901D01*
X144044445Y-84217156D01*
X144047134Y-84217347D01*
X144049623Y-84218378D01*
X144064255Y-84219819D01*
X144254731Y-84219819D01*
X144269363Y-84218378D01*
X144271852Y-84217346D01*
X144274540Y-84217156D01*
X144288272Y-84211901D01*
X144383510Y-84164282D01*
X144389809Y-84160317D01*
X144391637Y-84159560D01*
X144393693Y-84157871D01*
X144395953Y-84156450D01*
X144397252Y-84154951D01*
X144403002Y-84150233D01*
X144498241Y-84054993D01*
X144507568Y-84043628D01*
X144509701Y-84038476D01*
X144513021Y-84033997D01*
X144517968Y-84020151D01*
X144565587Y-83829675D01*
X144565962Y-83827138D01*
X144566385Y-83826117D01*
X144566927Y-83820604D01*
X144567737Y-83815131D01*
X144567574Y-83814038D01*
X144567826Y-83811485D01*
X144567826Y-83478152D01*
X144567574Y-83475598D01*
X144567737Y-83474506D01*
X144566927Y-83469032D01*
X144566385Y-83463520D01*
X144565962Y-83462498D01*
X144565587Y-83459962D01*
X144517968Y-83269486D01*
X144513021Y-83255640D01*
X144509702Y-83251161D01*
X144507568Y-83246008D01*
X144498240Y-83234643D01*
X144403002Y-83139405D01*
X144397252Y-83134686D01*
X144395953Y-83133188D01*
X144393693Y-83131766D01*
X144391770Y-83130187D01*
X144704982Y-83130187D01*
X144704982Y-83159451D01*
X144716181Y-83186487D01*
X144736873Y-83207179D01*
X144763909Y-83218378D01*
X144778541Y-83219819D01*
X144989255Y-83219819D01*
X144989255Y-84144819D01*
X144990696Y-84159451D01*
X145001895Y-84186487D01*
X145022587Y-84207179D01*
X145049623Y-84218378D01*
X145078887Y-84218378D01*
X145105923Y-84207179D01*
X145126615Y-84186487D01*
X145137814Y-84159451D01*
X145139255Y-84144819D01*
X145139255Y-84130187D01*
X146276411Y-84130187D01*
X146276411Y-84159451D01*
X146287610Y-84186487D01*
X146308302Y-84207179D01*
X146335338Y-84218378D01*
X146349970Y-84219819D01*
X146969017Y-84219819D01*
X146983649Y-84218378D01*
X147010685Y-84207179D01*
X147031377Y-84186487D01*
X147042576Y-84159451D01*
X147042576Y-84130187D01*
X147031377Y-84103151D01*
X147010685Y-84082459D01*
X146983649Y-84071260D01*
X146969017Y-84069819D01*
X146531036Y-84069819D01*
X146974431Y-83626423D01*
X146983759Y-83615058D01*
X146984790Y-83612567D01*
X146986555Y-83610533D01*
X146992549Y-83597107D01*
X147040168Y-83454251D01*
X147041817Y-83446995D01*
X147042576Y-83445165D01*
X147042837Y-83442511D01*
X147043428Y-83439914D01*
X147043287Y-83437939D01*
X147044017Y-83430533D01*
X147044017Y-83335295D01*
X147042576Y-83320663D01*
X147041545Y-83318174D01*
X147041354Y-83315485D01*
X147036099Y-83301754D01*
X146988480Y-83206516D01*
X146984515Y-83200216D01*
X146983758Y-83198389D01*
X146982069Y-83196332D01*
X146980648Y-83194073D01*
X146979149Y-83192773D01*
X146974431Y-83187024D01*
X146926812Y-83139405D01*
X146921062Y-83134686D01*
X146919763Y-83133188D01*
X146917503Y-83131766D01*
X146915447Y-83130078D01*
X146913619Y-83129320D01*
X146907320Y-83125356D01*
X146812082Y-83077737D01*
X146798350Y-83072482D01*
X146795662Y-83072291D01*
X146793173Y-83071260D01*
X146778541Y-83069819D01*
X146540446Y-83069819D01*
X146525814Y-83071260D01*
X146523325Y-83072290D01*
X146520636Y-83072482D01*
X146506905Y-83077737D01*
X146411667Y-83125356D01*
X146405367Y-83129320D01*
X146403540Y-83130078D01*
X146401483Y-83131766D01*
X146399224Y-83133188D01*
X146397924Y-83134686D01*
X146392175Y-83139405D01*
X146344556Y-83187024D01*
X146335229Y-83198389D01*
X146324030Y-83225426D01*
X146324030Y-83254688D01*
X146335229Y-83281725D01*
X146355921Y-83302417D01*
X146382958Y-83313616D01*
X146412220Y-83313616D01*
X146439257Y-83302417D01*
X146450622Y-83293090D01*
X146489635Y-83254077D01*
X146558151Y-83219819D01*
X146760836Y-83219819D01*
X146829352Y-83254077D01*
X146859759Y-83284484D01*
X146894017Y-83353000D01*
X146894017Y-83418363D01*
X146855845Y-83532876D01*
X146296937Y-84091786D01*
X146287610Y-84103151D01*
X146276411Y-84130187D01*
X145139255Y-84130187D01*
X145139255Y-83219819D01*
X145349969Y-83219819D01*
X145364601Y-83218378D01*
X145391637Y-83207179D01*
X145412329Y-83186487D01*
X145423528Y-83159451D01*
X145423528Y-83130187D01*
X145412329Y-83103151D01*
X145391637Y-83082459D01*
X145364601Y-83071260D01*
X145349969Y-83069819D01*
X144778541Y-83069819D01*
X144763909Y-83071260D01*
X144736873Y-83082459D01*
X144716181Y-83103151D01*
X144704982Y-83130187D01*
X144391770Y-83130187D01*
X144391637Y-83130078D01*
X144389809Y-83129320D01*
X144383510Y-83125356D01*
X144288272Y-83077737D01*
X144274540Y-83072482D01*
X144271852Y-83072291D01*
X144269363Y-83071260D01*
X144254731Y-83069819D01*
X144064255Y-83069819D01*
X144049623Y-83071260D01*
X144047134Y-83072290D01*
X144044445Y-83072482D01*
X144030714Y-83077737D01*
X143935476Y-83125356D01*
X143929181Y-83129318D01*
X143927349Y-83130077D01*
X143925287Y-83131768D01*
X143923033Y-83133188D01*
X143921734Y-83134684D01*
X143915984Y-83139405D01*
X143820746Y-83234643D01*
X143811419Y-83246008D01*
X143809285Y-83251158D01*
X143805965Y-83255640D01*
X143801018Y-83269486D01*
X143753399Y-83459962D01*
X143753023Y-83462498D01*
X143752601Y-83463520D01*
X143752058Y-83469032D01*
X143751249Y-83474506D01*
X143751411Y-83475598D01*
X143751160Y-83478152D01*
X143520207Y-83478152D01*
X143520207Y-83335295D01*
X143518766Y-83320663D01*
X143517735Y-83318174D01*
X143517544Y-83315485D01*
X143512289Y-83301754D01*
X143464670Y-83206516D01*
X143460705Y-83200216D01*
X143459948Y-83198389D01*
X143458259Y-83196332D01*
X143456838Y-83194073D01*
X143455339Y-83192773D01*
X143450621Y-83187024D01*
X143403002Y-83139405D01*
X143397252Y-83134686D01*
X143395953Y-83133188D01*
X143393693Y-83131766D01*
X143391637Y-83130078D01*
X143389809Y-83129320D01*
X143383510Y-83125356D01*
X143288272Y-83077737D01*
X143274540Y-83072482D01*
X143271852Y-83072291D01*
X143269363Y-83071260D01*
X143254731Y-83069819D01*
X142873779Y-83069819D01*
X142859147Y-83071260D01*
X142832111Y-83082459D01*
X142811419Y-83103151D01*
X142800220Y-83130187D01*
X142798779Y-83144819D01*
X142687668Y-83144819D01*
X142687668Y-82958708D01*
X147155128Y-82958708D01*
X147155128Y-84330930D01*
G37*
G36*
X116130542Y-76954077D02*
G01*
X116202484Y-77026019D01*
X116242826Y-77187386D01*
X116242826Y-77502251D01*
X116202484Y-77663617D01*
X116130541Y-77735561D01*
X116062026Y-77769819D01*
X115906960Y-77769819D01*
X115838444Y-77735561D01*
X115766501Y-77663617D01*
X115726160Y-77502251D01*
X115726160Y-77187386D01*
X115766501Y-77026019D01*
X115838444Y-76954077D01*
X115906960Y-76919819D01*
X116062026Y-76919819D01*
X116130542Y-76954077D01*
G37*
G36*
X120931068Y-78030930D02*
G01*
X115465049Y-78030930D01*
X115465049Y-77178152D01*
X115576160Y-77178152D01*
X115576160Y-77511485D01*
X115576411Y-77514038D01*
X115576249Y-77515131D01*
X115577058Y-77520604D01*
X115577601Y-77526117D01*
X115578023Y-77527138D01*
X115578399Y-77529675D01*
X115626018Y-77720151D01*
X115630965Y-77733997D01*
X115634284Y-77738476D01*
X115636418Y-77743628D01*
X115645746Y-77754994D01*
X115740984Y-77850233D01*
X115746734Y-77854953D01*
X115748033Y-77856450D01*
X115750287Y-77857869D01*
X115752349Y-77859561D01*
X115754181Y-77860319D01*
X115760476Y-77864282D01*
X115855714Y-77911901D01*
X115869445Y-77917156D01*
X115872134Y-77917347D01*
X115874623Y-77918378D01*
X115889255Y-77919819D01*
X116079731Y-77919819D01*
X116094363Y-77918378D01*
X116096852Y-77917346D01*
X116099540Y-77917156D01*
X116113272Y-77911901D01*
X116208510Y-77864282D01*
X116214809Y-77860317D01*
X116216637Y-77859560D01*
X116218693Y-77857871D01*
X116220953Y-77856450D01*
X116222252Y-77854951D01*
X116228002Y-77850233D01*
X116323241Y-77754993D01*
X116332568Y-77743628D01*
X116334701Y-77738476D01*
X116338021Y-77733997D01*
X116342968Y-77720151D01*
X116390587Y-77529675D01*
X116390962Y-77527138D01*
X116391385Y-77526117D01*
X116391927Y-77520604D01*
X116392737Y-77515131D01*
X116392574Y-77514038D01*
X116392826Y-77511485D01*
X116392826Y-77178152D01*
X116392574Y-77175598D01*
X116392737Y-77174506D01*
X116391927Y-77169032D01*
X116391385Y-77163520D01*
X116390962Y-77162498D01*
X116390587Y-77159962D01*
X116342968Y-76969486D01*
X116338021Y-76955640D01*
X116334702Y-76951161D01*
X116332568Y-76946008D01*
X116323240Y-76934643D01*
X116233416Y-76844819D01*
X116671398Y-76844819D01*
X116671398Y-77844819D01*
X116672839Y-77859451D01*
X116684038Y-77886487D01*
X116704730Y-77907179D01*
X116731766Y-77918378D01*
X116761030Y-77918378D01*
X116788066Y-77907179D01*
X116808758Y-77886487D01*
X116819957Y-77859451D01*
X116821398Y-77844819D01*
X116821398Y-77396009D01*
X117079731Y-77396009D01*
X117094363Y-77394568D01*
X117121399Y-77383369D01*
X117142091Y-77362677D01*
X117153290Y-77335641D01*
X117153290Y-77306377D01*
X117142091Y-77279341D01*
X117121399Y-77258649D01*
X117094363Y-77247450D01*
X117079731Y-77246009D01*
X116821398Y-77246009D01*
X116821398Y-76919819D01*
X117222588Y-76919819D01*
X117237220Y-76918378D01*
X117264256Y-76907179D01*
X117284948Y-76886487D01*
X117296147Y-76859451D01*
X117296147Y-76844819D01*
X117528541Y-76844819D01*
X117528541Y-77844819D01*
X117529982Y-77859451D01*
X117541181Y-77886487D01*
X117561873Y-77907179D01*
X117588909Y-77918378D01*
X117618173Y-77918378D01*
X117645209Y-77907179D01*
X117665901Y-77886487D01*
X117677100Y-77859451D01*
X117678541Y-77844819D01*
X117678541Y-77396009D01*
X117936874Y-77396009D01*
X117951506Y-77394568D01*
X117978542Y-77383369D01*
X117999234Y-77362677D01*
X118010433Y-77335641D01*
X118010433Y-77306377D01*
X117999234Y-77279341D01*
X117978542Y-77258649D01*
X117951506Y-77247450D01*
X117936874Y-77246009D01*
X117678541Y-77246009D01*
X117678541Y-77035295D01*
X118338065Y-77035295D01*
X118338065Y-77130533D01*
X118339506Y-77145165D01*
X118340537Y-77147654D01*
X118340728Y-77150342D01*
X118345983Y-77164074D01*
X118393602Y-77259312D01*
X118397566Y-77265611D01*
X118398324Y-77267439D01*
X118400012Y-77269495D01*
X118401434Y-77271755D01*
X118402932Y-77273054D01*
X118407651Y-77278804D01*
X118455270Y-77326423D01*
X118461019Y-77331141D01*
X118462319Y-77332640D01*
X118464578Y-77334061D01*
X118466635Y-77335750D01*
X118468462Y-77336507D01*
X118474762Y-77340472D01*
X118570000Y-77388091D01*
X118571069Y-77388500D01*
X118571505Y-77388823D01*
X118577641Y-77391015D01*
X118583731Y-77393346D01*
X118584271Y-77393384D01*
X118585351Y-77393770D01*
X118767841Y-77439392D01*
X118844828Y-77477886D01*
X118875235Y-77508293D01*
X118909493Y-77576809D01*
X118909493Y-77636637D01*
X118875234Y-77705153D01*
X118844827Y-77735561D01*
X118776312Y-77769819D01*
X118568092Y-77769819D01*
X118436782Y-77726049D01*
X118422445Y-77722789D01*
X118393255Y-77724864D01*
X118367082Y-77737950D01*
X118347908Y-77760057D01*
X118338654Y-77787820D01*
X118340729Y-77817010D01*
X118353815Y-77843183D01*
X118375922Y-77862357D01*
X118389348Y-77868351D01*
X118532204Y-77915970D01*
X118539459Y-77917619D01*
X118541290Y-77918378D01*
X118543943Y-77918639D01*
X118546541Y-77919230D01*
X118548515Y-77919089D01*
X118555922Y-77919819D01*
X118794017Y-77919819D01*
X118808649Y-77918378D01*
X118811138Y-77917346D01*
X118813826Y-77917156D01*
X118827558Y-77911901D01*
X118922796Y-77864282D01*
X118929095Y-77860317D01*
X118930923Y-77859560D01*
X118932979Y-77857872D01*
X118935239Y-77856450D01*
X118936539Y-77854950D01*
X118942289Y-77850232D01*
X118989907Y-77802613D01*
X118994625Y-77796863D01*
X118996124Y-77795564D01*
X118997545Y-77793305D01*
X118999235Y-77791247D01*
X118999992Y-77789417D01*
X119003956Y-77783121D01*
X119051575Y-77687883D01*
X119056830Y-77674152D01*
X119057021Y-77671462D01*
X119058052Y-77668974D01*
X119059493Y-77654342D01*
X119059493Y-77559104D01*
X119058052Y-77544472D01*
X119057021Y-77541983D01*
X119056830Y-77539294D01*
X119051575Y-77525563D01*
X119003956Y-77430325D01*
X118999991Y-77424025D01*
X118999234Y-77422198D01*
X118997545Y-77420141D01*
X118996124Y-77417882D01*
X118994625Y-77416582D01*
X118989907Y-77410833D01*
X118942288Y-77363214D01*
X118936538Y-77358495D01*
X118935239Y-77356997D01*
X118932979Y-77355575D01*
X118930923Y-77353887D01*
X118929095Y-77353129D01*
X118922796Y-77349165D01*
X118827558Y-77301546D01*
X118826488Y-77301136D01*
X118826053Y-77300814D01*
X118819907Y-77298618D01*
X118813826Y-77296291D01*
X118813286Y-77296252D01*
X118812207Y-77295867D01*
X118629717Y-77250244D01*
X118552730Y-77211751D01*
X118522323Y-77181344D01*
X118488065Y-77112828D01*
X118488065Y-77053000D01*
X118522323Y-76984484D01*
X118552730Y-76954077D01*
X118621246Y-76919819D01*
X118829466Y-76919819D01*
X118960775Y-76963589D01*
X118975112Y-76966849D01*
X119004302Y-76964774D01*
X119030476Y-76951688D01*
X119049650Y-76929580D01*
X119058904Y-76901818D01*
X119056829Y-76872628D01*
X119043742Y-76846455D01*
X119041856Y-76844819D01*
X119338065Y-76844819D01*
X119338065Y-77844819D01*
X119339506Y-77859451D01*
X119350705Y-77886487D01*
X119371397Y-77907179D01*
X119398433Y-77918378D01*
X119413065Y-77919819D01*
X119889255Y-77919819D01*
X119903887Y-77918378D01*
X119930923Y-77907179D01*
X119951615Y-77886487D01*
X119962814Y-77859451D01*
X119962814Y-77830187D01*
X119951615Y-77803151D01*
X119930923Y-77782459D01*
X119903887Y-77771260D01*
X119889255Y-77769819D01*
X119488065Y-77769819D01*
X119488065Y-77396009D01*
X119746398Y-77396009D01*
X119761030Y-77394568D01*
X119788066Y-77383369D01*
X119808758Y-77362677D01*
X119819957Y-77335641D01*
X119819957Y-77306377D01*
X119808758Y-77279341D01*
X119788066Y-77258649D01*
X119761030Y-77247450D01*
X119746398Y-77246009D01*
X119488065Y-77246009D01*
X119488065Y-76919819D01*
X119889255Y-76919819D01*
X119903887Y-76918378D01*
X119930923Y-76907179D01*
X119951615Y-76886487D01*
X119962814Y-76859451D01*
X119962814Y-76830187D01*
X120101411Y-76830187D01*
X120101411Y-76859451D01*
X120112610Y-76886487D01*
X120133302Y-76907179D01*
X120160338Y-76918378D01*
X120174970Y-76919819D01*
X120385684Y-76919819D01*
X120385684Y-77844819D01*
X120387125Y-77859451D01*
X120398324Y-77886487D01*
X120419016Y-77907179D01*
X120446052Y-77918378D01*
X120475316Y-77918378D01*
X120502352Y-77907179D01*
X120523044Y-77886487D01*
X120534243Y-77859451D01*
X120535684Y-77844819D01*
X120535684Y-76919819D01*
X120746398Y-76919819D01*
X120761030Y-76918378D01*
X120788066Y-76907179D01*
X120808758Y-76886487D01*
X120819957Y-76859451D01*
X120819957Y-76830187D01*
X120808758Y-76803151D01*
X120788066Y-76782459D01*
X120761030Y-76771260D01*
X120746398Y-76769819D01*
X120174970Y-76769819D01*
X120160338Y-76771260D01*
X120133302Y-76782459D01*
X120112610Y-76803151D01*
X120101411Y-76830187D01*
X119962814Y-76830187D01*
X119951615Y-76803151D01*
X119930923Y-76782459D01*
X119903887Y-76771260D01*
X119889255Y-76769819D01*
X119413065Y-76769819D01*
X119398433Y-76771260D01*
X119371397Y-76782459D01*
X119350705Y-76803151D01*
X119339506Y-76830187D01*
X119338065Y-76844819D01*
X119041856Y-76844819D01*
X119021635Y-76827281D01*
X119008210Y-76821287D01*
X118865353Y-76773668D01*
X118858099Y-76772018D01*
X118856268Y-76771260D01*
X118853613Y-76770998D01*
X118851016Y-76770408D01*
X118849041Y-76770548D01*
X118841636Y-76769819D01*
X118603541Y-76769819D01*
X118588909Y-76771260D01*
X118586420Y-76772290D01*
X118583731Y-76772482D01*
X118570000Y-76777737D01*
X118474762Y-76825356D01*
X118468462Y-76829320D01*
X118466635Y-76830078D01*
X118464578Y-76831766D01*
X118462319Y-76833188D01*
X118461019Y-76834686D01*
X118455270Y-76839405D01*
X118407651Y-76887024D01*
X118402932Y-76892773D01*
X118401434Y-76894073D01*
X118400012Y-76896332D01*
X118398324Y-76898389D01*
X118397566Y-76900216D01*
X118393602Y-76906516D01*
X118345983Y-77001754D01*
X118340728Y-77015486D01*
X118340537Y-77018173D01*
X118339506Y-77020663D01*
X118338065Y-77035295D01*
X117678541Y-77035295D01*
X117678541Y-76919819D01*
X118079731Y-76919819D01*
X118094363Y-76918378D01*
X118121399Y-76907179D01*
X118142091Y-76886487D01*
X118153290Y-76859451D01*
X118153290Y-76830187D01*
X118142091Y-76803151D01*
X118121399Y-76782459D01*
X118094363Y-76771260D01*
X118079731Y-76769819D01*
X117603541Y-76769819D01*
X117588909Y-76771260D01*
X117561873Y-76782459D01*
X117541181Y-76803151D01*
X117529982Y-76830187D01*
X117528541Y-76844819D01*
X117296147Y-76844819D01*
X117296147Y-76830187D01*
X117284948Y-76803151D01*
X117264256Y-76782459D01*
X117237220Y-76771260D01*
X117222588Y-76769819D01*
X116746398Y-76769819D01*
X116731766Y-76771260D01*
X116704730Y-76782459D01*
X116684038Y-76803151D01*
X116672839Y-76830187D01*
X116671398Y-76844819D01*
X116233416Y-76844819D01*
X116228002Y-76839405D01*
X116222252Y-76834686D01*
X116220953Y-76833188D01*
X116218693Y-76831766D01*
X116216637Y-76830078D01*
X116214809Y-76829320D01*
X116208510Y-76825356D01*
X116113272Y-76777737D01*
X116099540Y-76772482D01*
X116096852Y-76772291D01*
X116094363Y-76771260D01*
X116079731Y-76769819D01*
X115889255Y-76769819D01*
X115874623Y-76771260D01*
X115872134Y-76772290D01*
X115869445Y-76772482D01*
X115855714Y-76777737D01*
X115760476Y-76825356D01*
X115754181Y-76829318D01*
X115752349Y-76830077D01*
X115750287Y-76831768D01*
X115748033Y-76833188D01*
X115746734Y-76834684D01*
X115740984Y-76839405D01*
X115645746Y-76934643D01*
X115636419Y-76946008D01*
X115634285Y-76951158D01*
X115630965Y-76955640D01*
X115626018Y-76969486D01*
X115578399Y-77159962D01*
X115578023Y-77162498D01*
X115577601Y-77163520D01*
X115577058Y-77169032D01*
X115576249Y-77174506D01*
X115576411Y-77175598D01*
X115576160Y-77178152D01*
X115465049Y-77178152D01*
X115465049Y-76658708D01*
X120931068Y-76658708D01*
X120931068Y-78030930D01*
G37*
X95429438Y-76464411D02*
X95381819Y-76559649D01*
X95381819Y-76559649D02*
X95381819Y-76702506D01*
X95381819Y-76702506D02*
X95429438Y-76845363D01*
X95429438Y-76845363D02*
X95524676Y-76940601D01*
X95524676Y-76940601D02*
X95619914Y-76988220D01*
X95619914Y-76988220D02*
X95810390Y-77035839D01*
X95810390Y-77035839D02*
X95953247Y-77035839D01*
X95953247Y-77035839D02*
X96143723Y-76988220D01*
X96143723Y-76988220D02*
X96238961Y-76940601D01*
X96238961Y-76940601D02*
X96334200Y-76845363D01*
X96334200Y-76845363D02*
X96381819Y-76702506D01*
X96381819Y-76702506D02*
X96381819Y-76607268D01*
X96381819Y-76607268D02*
X96334200Y-76464411D01*
X96334200Y-76464411D02*
X96286580Y-76416792D01*
X96286580Y-76416792D02*
X95953247Y-76416792D01*
X95953247Y-76416792D02*
X95953247Y-76607268D01*
X96381819Y-75988220D02*
X95381819Y-75988220D01*
X95381819Y-75988220D02*
X96381819Y-75416792D01*
X96381819Y-75416792D02*
X95381819Y-75416792D01*
X96381819Y-74940601D02*
X95381819Y-74940601D01*
X95381819Y-74940601D02*
X95381819Y-74702506D01*
X95381819Y-74702506D02*
X95429438Y-74559649D01*
X95429438Y-74559649D02*
X95524676Y-74464411D01*
X95524676Y-74464411D02*
X95619914Y-74416792D01*
X95619914Y-74416792D02*
X95810390Y-74369173D01*
X95810390Y-74369173D02*
X95953247Y-74369173D01*
X95953247Y-74369173D02*
X96143723Y-74416792D01*
X96143723Y-74416792D02*
X96238961Y-74464411D01*
X96238961Y-74464411D02*
X96334200Y-74559649D01*
X96334200Y-74559649D02*
X96381819Y-74702506D01*
X96381819Y-74702506D02*
X96381819Y-74940601D01*
X89323779Y-68144819D02*
X89323779Y-67144819D01*
X89323779Y-67144819D02*
X89657112Y-67859104D01*
X89657112Y-67859104D02*
X89990445Y-67144819D01*
X89990445Y-67144819D02*
X89990445Y-68144819D01*
X90466636Y-68144819D02*
X90466636Y-67144819D01*
X90466636Y-67144819D02*
X90847588Y-67144819D01*
X90847588Y-67144819D02*
X90942826Y-67192438D01*
X90942826Y-67192438D02*
X90990445Y-67240057D01*
X90990445Y-67240057D02*
X91038064Y-67335295D01*
X91038064Y-67335295D02*
X91038064Y-67478152D01*
X91038064Y-67478152D02*
X90990445Y-67573390D01*
X90990445Y-67573390D02*
X90942826Y-67621009D01*
X90942826Y-67621009D02*
X90847588Y-67668628D01*
X90847588Y-67668628D02*
X90466636Y-67668628D01*
X91466636Y-67144819D02*
X91466636Y-67954342D01*
X91466636Y-67954342D02*
X91514255Y-68049580D01*
X91514255Y-68049580D02*
X91561874Y-68097200D01*
X91561874Y-68097200D02*
X91657112Y-68144819D01*
X91657112Y-68144819D02*
X91847588Y-68144819D01*
X91847588Y-68144819D02*
X91942826Y-68097200D01*
X91942826Y-68097200D02*
X91990445Y-68049580D01*
X91990445Y-68049580D02*
X92038064Y-67954342D01*
X92038064Y-67954342D02*
X92038064Y-67144819D01*
X93704731Y-67144819D02*
X93514255Y-67144819D01*
X93514255Y-67144819D02*
X93419017Y-67192438D01*
X93419017Y-67192438D02*
X93371398Y-67240057D01*
X93371398Y-67240057D02*
X93276160Y-67382914D01*
X93276160Y-67382914D02*
X93228541Y-67573390D01*
X93228541Y-67573390D02*
X93228541Y-67954342D01*
X93228541Y-67954342D02*
X93276160Y-68049580D01*
X93276160Y-68049580D02*
X93323779Y-68097200D01*
X93323779Y-68097200D02*
X93419017Y-68144819D01*
X93419017Y-68144819D02*
X93609493Y-68144819D01*
X93609493Y-68144819D02*
X93704731Y-68097200D01*
X93704731Y-68097200D02*
X93752350Y-68049580D01*
X93752350Y-68049580D02*
X93799969Y-67954342D01*
X93799969Y-67954342D02*
X93799969Y-67716247D01*
X93799969Y-67716247D02*
X93752350Y-67621009D01*
X93752350Y-67621009D02*
X93704731Y-67573390D01*
X93704731Y-67573390D02*
X93609493Y-67525771D01*
X93609493Y-67525771D02*
X93419017Y-67525771D01*
X93419017Y-67525771D02*
X93323779Y-67573390D01*
X93323779Y-67573390D02*
X93276160Y-67621009D01*
X93276160Y-67621009D02*
X93228541Y-67716247D01*
X94419017Y-67144819D02*
X94514255Y-67144819D01*
X94514255Y-67144819D02*
X94609493Y-67192438D01*
X94609493Y-67192438D02*
X94657112Y-67240057D01*
X94657112Y-67240057D02*
X94704731Y-67335295D01*
X94704731Y-67335295D02*
X94752350Y-67525771D01*
X94752350Y-67525771D02*
X94752350Y-67763866D01*
X94752350Y-67763866D02*
X94704731Y-67954342D01*
X94704731Y-67954342D02*
X94657112Y-68049580D01*
X94657112Y-68049580D02*
X94609493Y-68097200D01*
X94609493Y-68097200D02*
X94514255Y-68144819D01*
X94514255Y-68144819D02*
X94419017Y-68144819D01*
X94419017Y-68144819D02*
X94323779Y-68097200D01*
X94323779Y-68097200D02*
X94276160Y-68049580D01*
X94276160Y-68049580D02*
X94228541Y-67954342D01*
X94228541Y-67954342D02*
X94180922Y-67763866D01*
X94180922Y-67763866D02*
X94180922Y-67525771D01*
X94180922Y-67525771D02*
X94228541Y-67335295D01*
X94228541Y-67335295D02*
X94276160Y-67240057D01*
X94276160Y-67240057D02*
X94323779Y-67192438D01*
X94323779Y-67192438D02*
X94419017Y-67144819D01*
X95657112Y-67144819D02*
X95180922Y-67144819D01*
X95180922Y-67144819D02*
X95133303Y-67621009D01*
X95133303Y-67621009D02*
X95180922Y-67573390D01*
X95180922Y-67573390D02*
X95276160Y-67525771D01*
X95276160Y-67525771D02*
X95514255Y-67525771D01*
X95514255Y-67525771D02*
X95609493Y-67573390D01*
X95609493Y-67573390D02*
X95657112Y-67621009D01*
X95657112Y-67621009D02*
X95704731Y-67716247D01*
X95704731Y-67716247D02*
X95704731Y-67954342D01*
X95704731Y-67954342D02*
X95657112Y-68049580D01*
X95657112Y-68049580D02*
X95609493Y-68097200D01*
X95609493Y-68097200D02*
X95514255Y-68144819D01*
X95514255Y-68144819D02*
X95276160Y-68144819D01*
X95276160Y-68144819D02*
X95180922Y-68097200D01*
X95180922Y-68097200D02*
X95133303Y-68049580D01*
X96323779Y-67144819D02*
X96419017Y-67144819D01*
X96419017Y-67144819D02*
X96514255Y-67192438D01*
X96514255Y-67192438D02*
X96561874Y-67240057D01*
X96561874Y-67240057D02*
X96609493Y-67335295D01*
X96609493Y-67335295D02*
X96657112Y-67525771D01*
X96657112Y-67525771D02*
X96657112Y-67763866D01*
X96657112Y-67763866D02*
X96609493Y-67954342D01*
X96609493Y-67954342D02*
X96561874Y-68049580D01*
X96561874Y-68049580D02*
X96514255Y-68097200D01*
X96514255Y-68097200D02*
X96419017Y-68144819D01*
X96419017Y-68144819D02*
X96323779Y-68144819D01*
X96323779Y-68144819D02*
X96228541Y-68097200D01*
X96228541Y-68097200D02*
X96180922Y-68049580D01*
X96180922Y-68049580D02*
X96133303Y-67954342D01*
X96133303Y-67954342D02*
X96085684Y-67763866D01*
X96085684Y-67763866D02*
X96085684Y-67525771D01*
X96085684Y-67525771D02*
X96133303Y-67335295D01*
X96133303Y-67335295D02*
X96180922Y-67240057D01*
X96180922Y-67240057D02*
X96228541Y-67192438D01*
X96228541Y-67192438D02*
X96323779Y-67144819D01*
X103984200Y-76735839D02*
X104031819Y-76592982D01*
X104031819Y-76592982D02*
X104031819Y-76354887D01*
X104031819Y-76354887D02*
X103984200Y-76259649D01*
X103984200Y-76259649D02*
X103936580Y-76212030D01*
X103936580Y-76212030D02*
X103841342Y-76164411D01*
X103841342Y-76164411D02*
X103746104Y-76164411D01*
X103746104Y-76164411D02*
X103650866Y-76212030D01*
X103650866Y-76212030D02*
X103603247Y-76259649D01*
X103603247Y-76259649D02*
X103555628Y-76354887D01*
X103555628Y-76354887D02*
X103508009Y-76545363D01*
X103508009Y-76545363D02*
X103460390Y-76640601D01*
X103460390Y-76640601D02*
X103412771Y-76688220D01*
X103412771Y-76688220D02*
X103317533Y-76735839D01*
X103317533Y-76735839D02*
X103222295Y-76735839D01*
X103222295Y-76735839D02*
X103127057Y-76688220D01*
X103127057Y-76688220D02*
X103079438Y-76640601D01*
X103079438Y-76640601D02*
X103031819Y-76545363D01*
X103031819Y-76545363D02*
X103031819Y-76307268D01*
X103031819Y-76307268D02*
X103079438Y-76164411D01*
X104031819Y-75735839D02*
X103031819Y-75735839D01*
X103031819Y-75735839D02*
X103031819Y-75497744D01*
X103031819Y-75497744D02*
X103079438Y-75354887D01*
X103079438Y-75354887D02*
X103174676Y-75259649D01*
X103174676Y-75259649D02*
X103269914Y-75212030D01*
X103269914Y-75212030D02*
X103460390Y-75164411D01*
X103460390Y-75164411D02*
X103603247Y-75164411D01*
X103603247Y-75164411D02*
X103793723Y-75212030D01*
X103793723Y-75212030D02*
X103888961Y-75259649D01*
X103888961Y-75259649D02*
X103984200Y-75354887D01*
X103984200Y-75354887D02*
X104031819Y-75497744D01*
X104031819Y-75497744D02*
X104031819Y-75735839D01*
X103746104Y-74783458D02*
X103746104Y-74307268D01*
X104031819Y-74878696D02*
X103031819Y-74545363D01*
X103031819Y-74545363D02*
X104031819Y-74212030D01*
X88014255Y-96069819D02*
X88204731Y-96069819D01*
X88204731Y-96069819D02*
X88299969Y-96117438D01*
X88299969Y-96117438D02*
X88395207Y-96212676D01*
X88395207Y-96212676D02*
X88442826Y-96403152D01*
X88442826Y-96403152D02*
X88442826Y-96736485D01*
X88442826Y-96736485D02*
X88395207Y-96926961D01*
X88395207Y-96926961D02*
X88299969Y-97022200D01*
X88299969Y-97022200D02*
X88204731Y-97069819D01*
X88204731Y-97069819D02*
X88014255Y-97069819D01*
X88014255Y-97069819D02*
X87919017Y-97022200D01*
X87919017Y-97022200D02*
X87823779Y-96926961D01*
X87823779Y-96926961D02*
X87776160Y-96736485D01*
X87776160Y-96736485D02*
X87776160Y-96403152D01*
X87776160Y-96403152D02*
X87823779Y-96212676D01*
X87823779Y-96212676D02*
X87919017Y-96117438D01*
X87919017Y-96117438D02*
X88014255Y-96069819D01*
X89347588Y-97069819D02*
X88871398Y-97069819D01*
X88871398Y-97069819D02*
X88871398Y-96069819D01*
X89680922Y-96546009D02*
X90014255Y-96546009D01*
X90157112Y-97069819D02*
X89680922Y-97069819D01*
X89680922Y-97069819D02*
X89680922Y-96069819D01*
X89680922Y-96069819D02*
X90157112Y-96069819D01*
X90585684Y-97069819D02*
X90585684Y-96069819D01*
X90585684Y-96069819D02*
X90823779Y-96069819D01*
X90823779Y-96069819D02*
X90966636Y-96117438D01*
X90966636Y-96117438D02*
X91061874Y-96212676D01*
X91061874Y-96212676D02*
X91109493Y-96307914D01*
X91109493Y-96307914D02*
X91157112Y-96498390D01*
X91157112Y-96498390D02*
X91157112Y-96641247D01*
X91157112Y-96641247D02*
X91109493Y-96831723D01*
X91109493Y-96831723D02*
X91061874Y-96926961D01*
X91061874Y-96926961D02*
X90966636Y-97022200D01*
X90966636Y-97022200D02*
X90823779Y-97069819D01*
X90823779Y-97069819D02*
X90585684Y-97069819D01*
X92871398Y-97069819D02*
X92299970Y-97069819D01*
X92585684Y-97069819D02*
X92585684Y-96069819D01*
X92585684Y-96069819D02*
X92490446Y-96212676D01*
X92490446Y-96212676D02*
X92395208Y-96307914D01*
X92395208Y-96307914D02*
X92299970Y-96355533D01*
X93252351Y-96165057D02*
X93299970Y-96117438D01*
X93299970Y-96117438D02*
X93395208Y-96069819D01*
X93395208Y-96069819D02*
X93633303Y-96069819D01*
X93633303Y-96069819D02*
X93728541Y-96117438D01*
X93728541Y-96117438D02*
X93776160Y-96165057D01*
X93776160Y-96165057D02*
X93823779Y-96260295D01*
X93823779Y-96260295D02*
X93823779Y-96355533D01*
X93823779Y-96355533D02*
X93776160Y-96498390D01*
X93776160Y-96498390D02*
X93204732Y-97069819D01*
X93204732Y-97069819D02*
X93823779Y-97069819D01*
X94395208Y-96498390D02*
X94299970Y-96450771D01*
X94299970Y-96450771D02*
X94252351Y-96403152D01*
X94252351Y-96403152D02*
X94204732Y-96307914D01*
X94204732Y-96307914D02*
X94204732Y-96260295D01*
X94204732Y-96260295D02*
X94252351Y-96165057D01*
X94252351Y-96165057D02*
X94299970Y-96117438D01*
X94299970Y-96117438D02*
X94395208Y-96069819D01*
X94395208Y-96069819D02*
X94585684Y-96069819D01*
X94585684Y-96069819D02*
X94680922Y-96117438D01*
X94680922Y-96117438D02*
X94728541Y-96165057D01*
X94728541Y-96165057D02*
X94776160Y-96260295D01*
X94776160Y-96260295D02*
X94776160Y-96307914D01*
X94776160Y-96307914D02*
X94728541Y-96403152D01*
X94728541Y-96403152D02*
X94680922Y-96450771D01*
X94680922Y-96450771D02*
X94585684Y-96498390D01*
X94585684Y-96498390D02*
X94395208Y-96498390D01*
X94395208Y-96498390D02*
X94299970Y-96546009D01*
X94299970Y-96546009D02*
X94252351Y-96593628D01*
X94252351Y-96593628D02*
X94204732Y-96688866D01*
X94204732Y-96688866D02*
X94204732Y-96879342D01*
X94204732Y-96879342D02*
X94252351Y-96974580D01*
X94252351Y-96974580D02*
X94299970Y-97022200D01*
X94299970Y-97022200D02*
X94395208Y-97069819D01*
X94395208Y-97069819D02*
X94585684Y-97069819D01*
X94585684Y-97069819D02*
X94680922Y-97022200D01*
X94680922Y-97022200D02*
X94728541Y-96974580D01*
X94728541Y-96974580D02*
X94776160Y-96879342D01*
X94776160Y-96879342D02*
X94776160Y-96688866D01*
X94776160Y-96688866D02*
X94728541Y-96593628D01*
X94728541Y-96593628D02*
X94680922Y-96546009D01*
X94680922Y-96546009D02*
X94585684Y-96498390D01*
X95109494Y-97069819D02*
X95633303Y-96403152D01*
X95109494Y-96403152D02*
X95633303Y-97069819D01*
X95919018Y-96069819D02*
X96538065Y-96069819D01*
X96538065Y-96069819D02*
X96204732Y-96450771D01*
X96204732Y-96450771D02*
X96347589Y-96450771D01*
X96347589Y-96450771D02*
X96442827Y-96498390D01*
X96442827Y-96498390D02*
X96490446Y-96546009D01*
X96490446Y-96546009D02*
X96538065Y-96641247D01*
X96538065Y-96641247D02*
X96538065Y-96879342D01*
X96538065Y-96879342D02*
X96490446Y-96974580D01*
X96490446Y-96974580D02*
X96442827Y-97022200D01*
X96442827Y-97022200D02*
X96347589Y-97069819D01*
X96347589Y-97069819D02*
X96061875Y-97069819D01*
X96061875Y-97069819D02*
X95966637Y-97022200D01*
X95966637Y-97022200D02*
X95919018Y-96974580D01*
X96919018Y-96165057D02*
X96966637Y-96117438D01*
X96966637Y-96117438D02*
X97061875Y-96069819D01*
X97061875Y-96069819D02*
X97299970Y-96069819D01*
X97299970Y-96069819D02*
X97395208Y-96117438D01*
X97395208Y-96117438D02*
X97442827Y-96165057D01*
X97442827Y-96165057D02*
X97490446Y-96260295D01*
X97490446Y-96260295D02*
X97490446Y-96355533D01*
X97490446Y-96355533D02*
X97442827Y-96498390D01*
X97442827Y-96498390D02*
X96871399Y-97069819D01*
X96871399Y-97069819D02*
X97490446Y-97069819D01*
G36*
X133655542Y-83604077D02*
G01*
X133727484Y-83676019D01*
X133767826Y-83837386D01*
X133767826Y-84152251D01*
X133727484Y-84313617D01*
X133655541Y-84385561D01*
X133587026Y-84419819D01*
X133431960Y-84419819D01*
X133363444Y-84385561D01*
X133291501Y-84313617D01*
X133251160Y-84152251D01*
X133251160Y-83837386D01*
X133291501Y-83676019D01*
X133363444Y-83604077D01*
X133431960Y-83569819D01*
X133587026Y-83569819D01*
X133655542Y-83604077D01*
G37*
G36*
X132655542Y-83604077D02*
G01*
X132685949Y-83634484D01*
X132720207Y-83703000D01*
X132720207Y-83810447D01*
X132685949Y-83878963D01*
X132655542Y-83909370D01*
X132587026Y-83943628D01*
X132298779Y-83943628D01*
X132298779Y-83569819D01*
X132587026Y-83569819D01*
X132655542Y-83604077D01*
G37*
G36*
X136503687Y-84680930D02*
G01*
X132037668Y-84680930D01*
X132037668Y-83494819D01*
X132148779Y-83494819D01*
X132148779Y-84494819D01*
X132150220Y-84509451D01*
X132161419Y-84536487D01*
X132182111Y-84557179D01*
X132209147Y-84568378D01*
X132238411Y-84568378D01*
X132265447Y-84557179D01*
X132286139Y-84536487D01*
X132297338Y-84509451D01*
X132298779Y-84494819D01*
X132298779Y-84093628D01*
X132604731Y-84093628D01*
X132619363Y-84092187D01*
X132621852Y-84091155D01*
X132624540Y-84090965D01*
X132638272Y-84085710D01*
X132733510Y-84038091D01*
X132739809Y-84034126D01*
X132741637Y-84033369D01*
X132743693Y-84031680D01*
X132745953Y-84030259D01*
X132747252Y-84028760D01*
X132753002Y-84024042D01*
X132800621Y-83976423D01*
X132805339Y-83970673D01*
X132806838Y-83969374D01*
X132808259Y-83967114D01*
X132809948Y-83965058D01*
X132810705Y-83963230D01*
X132814670Y-83956931D01*
X132862289Y-83861693D01*
X132867544Y-83847962D01*
X132867735Y-83845272D01*
X132868766Y-83842784D01*
X132870207Y-83828152D01*
X133101160Y-83828152D01*
X133101160Y-84161485D01*
X133101411Y-84164038D01*
X133101249Y-84165131D01*
X133102058Y-84170604D01*
X133102601Y-84176117D01*
X133103023Y-84177138D01*
X133103399Y-84179675D01*
X133151018Y-84370151D01*
X133155965Y-84383997D01*
X133159284Y-84388476D01*
X133161418Y-84393628D01*
X133170746Y-84404994D01*
X133265984Y-84500233D01*
X133271734Y-84504953D01*
X133273033Y-84506450D01*
X133275287Y-84507869D01*
X133277349Y-84509561D01*
X133279181Y-84510319D01*
X133285476Y-84514282D01*
X133380714Y-84561901D01*
X133394445Y-84567156D01*
X133397134Y-84567347D01*
X133399623Y-84568378D01*
X133414255Y-84569819D01*
X133604731Y-84569819D01*
X133619363Y-84568378D01*
X133621852Y-84567346D01*
X133624540Y-84567156D01*
X133638272Y-84561901D01*
X133733510Y-84514282D01*
X133739809Y-84510317D01*
X133741637Y-84509560D01*
X133743693Y-84507871D01*
X133745953Y-84506450D01*
X133747252Y-84504951D01*
X133753002Y-84500233D01*
X133848241Y-84404993D01*
X133857568Y-84393628D01*
X133859701Y-84388476D01*
X133863021Y-84383997D01*
X133867968Y-84370151D01*
X133915587Y-84179675D01*
X133915962Y-84177138D01*
X133916385Y-84176117D01*
X133916927Y-84170604D01*
X133917737Y-84165131D01*
X133917574Y-84164038D01*
X133917826Y-84161485D01*
X133917826Y-83828152D01*
X133917574Y-83825598D01*
X133917737Y-83824506D01*
X133916927Y-83819032D01*
X133916385Y-83813520D01*
X133915962Y-83812498D01*
X133915587Y-83809962D01*
X133867968Y-83619486D01*
X133863021Y-83605640D01*
X133859702Y-83601161D01*
X133857568Y-83596008D01*
X133848240Y-83584643D01*
X133753002Y-83489405D01*
X133747252Y-83484686D01*
X133745953Y-83483188D01*
X133743693Y-83481766D01*
X133741770Y-83480187D01*
X134054982Y-83480187D01*
X134054982Y-83509451D01*
X134066181Y-83536487D01*
X134086873Y-83557179D01*
X134113909Y-83568378D01*
X134128541Y-83569819D01*
X134339255Y-83569819D01*
X134339255Y-84494819D01*
X134340696Y-84509451D01*
X134351895Y-84536487D01*
X134372587Y-84557179D01*
X134399623Y-84568378D01*
X134428887Y-84568378D01*
X134455923Y-84557179D01*
X134476615Y-84536487D01*
X134487814Y-84509451D01*
X134489255Y-84494819D01*
X134489255Y-83771152D01*
X135673178Y-83771152D01*
X135675252Y-83800342D01*
X135688339Y-83826517D01*
X135710447Y-83845690D01*
X135738208Y-83854944D01*
X135767398Y-83852870D01*
X135781130Y-83847615D01*
X135876368Y-83799996D01*
X135882667Y-83796031D01*
X135884495Y-83795274D01*
X135886551Y-83793585D01*
X135888811Y-83792164D01*
X135890110Y-83790665D01*
X135895860Y-83785947D01*
X135958303Y-83723504D01*
X135958303Y-84419819D01*
X135747589Y-84419819D01*
X135732957Y-84421260D01*
X135705921Y-84432459D01*
X135685229Y-84453151D01*
X135674030Y-84480187D01*
X135674030Y-84509451D01*
X135685229Y-84536487D01*
X135705921Y-84557179D01*
X135732957Y-84568378D01*
X135747589Y-84569819D01*
X136319017Y-84569819D01*
X136333649Y-84568378D01*
X136360685Y-84557179D01*
X136381377Y-84536487D01*
X136392576Y-84509451D01*
X136392576Y-84480187D01*
X136381377Y-84453151D01*
X136360685Y-84432459D01*
X136333649Y-84421260D01*
X136319017Y-84419819D01*
X136108303Y-84419819D01*
X136108303Y-83494819D01*
X136108297Y-83494766D01*
X136108303Y-83494740D01*
X136108287Y-83494663D01*
X136106862Y-83480187D01*
X136104020Y-83473326D01*
X136102564Y-83466045D01*
X136098474Y-83459938D01*
X136095663Y-83453151D01*
X136090414Y-83447902D01*
X136086281Y-83441730D01*
X136080164Y-83437652D01*
X136074971Y-83432459D01*
X136068111Y-83429617D01*
X136061932Y-83425498D01*
X136054723Y-83424072D01*
X136047935Y-83421260D01*
X136040508Y-83421260D01*
X136033224Y-83419819D01*
X136026019Y-83421260D01*
X136018671Y-83421260D01*
X136011810Y-83424101D01*
X136004530Y-83425558D01*
X135998424Y-83429646D01*
X135991635Y-83432459D01*
X135986384Y-83437709D01*
X135980215Y-83441841D01*
X135970994Y-83453099D01*
X135970943Y-83453151D01*
X135970933Y-83453173D01*
X135970899Y-83453216D01*
X135879779Y-83589896D01*
X135798400Y-83671275D01*
X135714048Y-83713451D01*
X135701605Y-83721283D01*
X135682432Y-83743391D01*
X135673178Y-83771152D01*
X134489255Y-83771152D01*
X134489255Y-83569819D01*
X134699969Y-83569819D01*
X134714601Y-83568378D01*
X134741637Y-83557179D01*
X134762329Y-83536487D01*
X134773528Y-83509451D01*
X134773528Y-83480187D01*
X134762329Y-83453151D01*
X134741637Y-83432459D01*
X134714601Y-83421260D01*
X134699969Y-83419819D01*
X134128541Y-83419819D01*
X134113909Y-83421260D01*
X134086873Y-83432459D01*
X134066181Y-83453151D01*
X134054982Y-83480187D01*
X133741770Y-83480187D01*
X133741637Y-83480078D01*
X133739809Y-83479320D01*
X133733510Y-83475356D01*
X133638272Y-83427737D01*
X133624540Y-83422482D01*
X133621852Y-83422291D01*
X133619363Y-83421260D01*
X133604731Y-83419819D01*
X133414255Y-83419819D01*
X133399623Y-83421260D01*
X133397134Y-83422290D01*
X133394445Y-83422482D01*
X133380714Y-83427737D01*
X133285476Y-83475356D01*
X133279181Y-83479318D01*
X133277349Y-83480077D01*
X133275287Y-83481768D01*
X133273033Y-83483188D01*
X133271734Y-83484684D01*
X133265984Y-83489405D01*
X133170746Y-83584643D01*
X133161419Y-83596008D01*
X133159285Y-83601158D01*
X133155965Y-83605640D01*
X133151018Y-83619486D01*
X133103399Y-83809962D01*
X133103023Y-83812498D01*
X133102601Y-83813520D01*
X133102058Y-83819032D01*
X133101249Y-83824506D01*
X133101411Y-83825598D01*
X133101160Y-83828152D01*
X132870207Y-83828152D01*
X132870207Y-83685295D01*
X132868766Y-83670663D01*
X132867735Y-83668174D01*
X132867544Y-83665485D01*
X132862289Y-83651754D01*
X132814670Y-83556516D01*
X132810705Y-83550216D01*
X132809948Y-83548389D01*
X132808259Y-83546332D01*
X132806838Y-83544073D01*
X132805339Y-83542773D01*
X132800621Y-83537024D01*
X132753002Y-83489405D01*
X132747252Y-83484686D01*
X132745953Y-83483188D01*
X132743693Y-83481766D01*
X132741637Y-83480078D01*
X132739809Y-83479320D01*
X132733510Y-83475356D01*
X132638272Y-83427737D01*
X132624540Y-83422482D01*
X132621852Y-83422291D01*
X132619363Y-83421260D01*
X132604731Y-83419819D01*
X132223779Y-83419819D01*
X132209147Y-83421260D01*
X132182111Y-83432459D01*
X132161419Y-83453151D01*
X132150220Y-83480187D01*
X132148779Y-83494819D01*
X132037668Y-83494819D01*
X132037668Y-83308708D01*
X136503687Y-83308708D01*
X136503687Y-84680930D01*
G37*
X97614800Y-56864160D02*
X97567180Y-57007017D01*
X97567180Y-57007017D02*
X97567180Y-57245112D01*
X97567180Y-57245112D02*
X97614800Y-57340350D01*
X97614800Y-57340350D02*
X97662419Y-57387969D01*
X97662419Y-57387969D02*
X97757657Y-57435588D01*
X97757657Y-57435588D02*
X97852895Y-57435588D01*
X97852895Y-57435588D02*
X97948133Y-57387969D01*
X97948133Y-57387969D02*
X97995752Y-57340350D01*
X97995752Y-57340350D02*
X98043371Y-57245112D01*
X98043371Y-57245112D02*
X98090990Y-57054636D01*
X98090990Y-57054636D02*
X98138609Y-56959398D01*
X98138609Y-56959398D02*
X98186228Y-56911779D01*
X98186228Y-56911779D02*
X98281466Y-56864160D01*
X98281466Y-56864160D02*
X98376704Y-56864160D01*
X98376704Y-56864160D02*
X98471942Y-56911779D01*
X98471942Y-56911779D02*
X98519561Y-56959398D01*
X98519561Y-56959398D02*
X98567180Y-57054636D01*
X98567180Y-57054636D02*
X98567180Y-57292731D01*
X98567180Y-57292731D02*
X98519561Y-57435588D01*
X97567180Y-57864160D02*
X98567180Y-57864160D01*
X98567180Y-57864160D02*
X98567180Y-58102255D01*
X98567180Y-58102255D02*
X98519561Y-58245112D01*
X98519561Y-58245112D02*
X98424323Y-58340350D01*
X98424323Y-58340350D02*
X98329085Y-58387969D01*
X98329085Y-58387969D02*
X98138609Y-58435588D01*
X98138609Y-58435588D02*
X97995752Y-58435588D01*
X97995752Y-58435588D02*
X97805276Y-58387969D01*
X97805276Y-58387969D02*
X97710038Y-58340350D01*
X97710038Y-58340350D02*
X97614800Y-58245112D01*
X97614800Y-58245112D02*
X97567180Y-58102255D01*
X97567180Y-58102255D02*
X97567180Y-57864160D01*
X97852895Y-58816541D02*
X97852895Y-59292731D01*
X97567180Y-58721303D02*
X98567180Y-59054636D01*
X98567180Y-59054636D02*
X97567180Y-59387969D01*
X101234200Y-76510839D02*
X101281819Y-76367982D01*
X101281819Y-76367982D02*
X101281819Y-76129887D01*
X101281819Y-76129887D02*
X101234200Y-76034649D01*
X101234200Y-76034649D02*
X101186580Y-75987030D01*
X101186580Y-75987030D02*
X101091342Y-75939411D01*
X101091342Y-75939411D02*
X100996104Y-75939411D01*
X100996104Y-75939411D02*
X100900866Y-75987030D01*
X100900866Y-75987030D02*
X100853247Y-76034649D01*
X100853247Y-76034649D02*
X100805628Y-76129887D01*
X100805628Y-76129887D02*
X100758009Y-76320363D01*
X100758009Y-76320363D02*
X100710390Y-76415601D01*
X100710390Y-76415601D02*
X100662771Y-76463220D01*
X100662771Y-76463220D02*
X100567533Y-76510839D01*
X100567533Y-76510839D02*
X100472295Y-76510839D01*
X100472295Y-76510839D02*
X100377057Y-76463220D01*
X100377057Y-76463220D02*
X100329438Y-76415601D01*
X100329438Y-76415601D02*
X100281819Y-76320363D01*
X100281819Y-76320363D02*
X100281819Y-76082268D01*
X100281819Y-76082268D02*
X100329438Y-75939411D01*
X101186580Y-74939411D02*
X101234200Y-74987030D01*
X101234200Y-74987030D02*
X101281819Y-75129887D01*
X101281819Y-75129887D02*
X101281819Y-75225125D01*
X101281819Y-75225125D02*
X101234200Y-75367982D01*
X101234200Y-75367982D02*
X101138961Y-75463220D01*
X101138961Y-75463220D02*
X101043723Y-75510839D01*
X101043723Y-75510839D02*
X100853247Y-75558458D01*
X100853247Y-75558458D02*
X100710390Y-75558458D01*
X100710390Y-75558458D02*
X100519914Y-75510839D01*
X100519914Y-75510839D02*
X100424676Y-75463220D01*
X100424676Y-75463220D02*
X100329438Y-75367982D01*
X100329438Y-75367982D02*
X100281819Y-75225125D01*
X100281819Y-75225125D02*
X100281819Y-75129887D01*
X100281819Y-75129887D02*
X100329438Y-74987030D01*
X100329438Y-74987030D02*
X100377057Y-74939411D01*
X101281819Y-74034649D02*
X101281819Y-74510839D01*
X101281819Y-74510839D02*
X100281819Y-74510839D01*
X97956819Y-75387030D02*
X97956819Y-75863220D01*
X97956819Y-75863220D02*
X98433009Y-75910839D01*
X98433009Y-75910839D02*
X98385390Y-75863220D01*
X98385390Y-75863220D02*
X98337771Y-75767982D01*
X98337771Y-75767982D02*
X98337771Y-75529887D01*
X98337771Y-75529887D02*
X98385390Y-75434649D01*
X98385390Y-75434649D02*
X98433009Y-75387030D01*
X98433009Y-75387030D02*
X98528247Y-75339411D01*
X98528247Y-75339411D02*
X98766342Y-75339411D01*
X98766342Y-75339411D02*
X98861580Y-75387030D01*
X98861580Y-75387030D02*
X98909200Y-75434649D01*
X98909200Y-75434649D02*
X98956819Y-75529887D01*
X98956819Y-75529887D02*
X98956819Y-75767982D01*
X98956819Y-75767982D02*
X98909200Y-75863220D01*
X98909200Y-75863220D02*
X98861580Y-75910839D01*
X97956819Y-75053696D02*
X98956819Y-74720363D01*
X98956819Y-74720363D02*
X97956819Y-74387030D01*
G36*
X153304351Y-81504077D02*
G01*
X153334758Y-81534484D01*
X153369016Y-81603000D01*
X153369016Y-81710447D01*
X153334758Y-81778963D01*
X153304351Y-81809370D01*
X153235835Y-81843628D01*
X152947588Y-81843628D01*
X152947588Y-81469819D01*
X153235835Y-81469819D01*
X153304351Y-81504077D01*
G37*
G36*
X155533448Y-82580930D02*
G01*
X151162668Y-82580930D01*
X151162668Y-81394819D01*
X151273779Y-81394819D01*
X151273779Y-82394819D01*
X151275220Y-82409451D01*
X151286419Y-82436487D01*
X151307111Y-82457179D01*
X151334147Y-82468378D01*
X151363411Y-82468378D01*
X151390447Y-82457179D01*
X151411139Y-82436487D01*
X151422338Y-82409451D01*
X151423779Y-82394819D01*
X151423779Y-81394819D01*
X151749969Y-81394819D01*
X151749969Y-82394819D01*
X151751410Y-82409451D01*
X151762609Y-82436487D01*
X151783301Y-82457179D01*
X151810337Y-82468378D01*
X151839601Y-82468378D01*
X151866637Y-82457179D01*
X151887329Y-82436487D01*
X151898528Y-82409451D01*
X151899969Y-82394819D01*
X151899969Y-81677235D01*
X152331279Y-82432030D01*
X152333468Y-82435114D01*
X152334037Y-82436487D01*
X152335434Y-82437884D01*
X152339789Y-82444019D01*
X152347677Y-82450127D01*
X152354729Y-82457179D01*
X152359147Y-82459009D01*
X152362927Y-82461936D01*
X152372548Y-82464560D01*
X152381765Y-82468378D01*
X152386546Y-82468378D01*
X152391158Y-82469636D01*
X152401055Y-82468378D01*
X152411029Y-82468378D01*
X152415444Y-82466548D01*
X152420188Y-82465946D01*
X152428852Y-82460995D01*
X152438065Y-82457179D01*
X152441443Y-82453800D01*
X152445597Y-82451427D01*
X152451706Y-82443537D01*
X152458757Y-82436487D01*
X152460586Y-82432070D01*
X152463514Y-82428290D01*
X152466138Y-82418666D01*
X152469956Y-82409451D01*
X152470692Y-82401968D01*
X152471214Y-82400058D01*
X152471026Y-82398582D01*
X152471397Y-82394819D01*
X152471397Y-81394819D01*
X152797588Y-81394819D01*
X152797588Y-82394819D01*
X152799029Y-82409451D01*
X152810228Y-82436487D01*
X152830920Y-82457179D01*
X152857956Y-82468378D01*
X152887220Y-82468378D01*
X152914256Y-82457179D01*
X152934948Y-82436487D01*
X152946147Y-82409451D01*
X152947588Y-82394819D01*
X152947588Y-81993628D01*
X153253540Y-81993628D01*
X153268172Y-81992187D01*
X153270661Y-81991155D01*
X153273349Y-81990965D01*
X153287081Y-81985710D01*
X153382319Y-81938091D01*
X153388618Y-81934126D01*
X153390446Y-81933369D01*
X153392502Y-81931680D01*
X153394762Y-81930259D01*
X153396061Y-81928760D01*
X153401811Y-81924042D01*
X153449430Y-81876423D01*
X153454148Y-81870673D01*
X153455647Y-81869374D01*
X153457068Y-81867114D01*
X153458757Y-81865058D01*
X153459514Y-81863230D01*
X153463479Y-81856931D01*
X153511098Y-81761693D01*
X153516353Y-81747962D01*
X153516544Y-81745272D01*
X153517575Y-81742784D01*
X153519016Y-81728152D01*
X153519016Y-81585295D01*
X153517575Y-81570663D01*
X153516544Y-81568174D01*
X153516353Y-81565485D01*
X153511098Y-81551754D01*
X153463479Y-81456516D01*
X153459514Y-81450216D01*
X153458757Y-81448389D01*
X153457068Y-81446332D01*
X153455647Y-81444073D01*
X153454148Y-81442773D01*
X153449430Y-81437024D01*
X153407225Y-81394819D01*
X153797588Y-81394819D01*
X153797588Y-82204342D01*
X153799029Y-82218974D01*
X153800060Y-82221463D01*
X153800251Y-82224151D01*
X153805506Y-82237883D01*
X153853125Y-82333121D01*
X153857088Y-82339417D01*
X153857846Y-82341247D01*
X153859535Y-82343305D01*
X153860957Y-82345564D01*
X153862455Y-82346863D01*
X153867173Y-82352612D01*
X153914792Y-82400232D01*
X153920541Y-82404950D01*
X153921842Y-82406450D01*
X153924101Y-82407872D01*
X153926158Y-82409560D01*
X153927985Y-82410317D01*
X153934285Y-82414282D01*
X154029523Y-82461901D01*
X154043254Y-82467156D01*
X154045943Y-82467347D01*
X154048432Y-82468378D01*
X154063064Y-82469819D01*
X154253540Y-82469819D01*
X154268172Y-82468378D01*
X154270661Y-82467346D01*
X154273349Y-82467156D01*
X154287081Y-82461901D01*
X154382319Y-82414282D01*
X154388618Y-82410317D01*
X154390446Y-82409560D01*
X154392502Y-82407872D01*
X154394762Y-82406450D01*
X154396062Y-82404950D01*
X154401812Y-82400232D01*
X154449430Y-82352613D01*
X154454148Y-82346863D01*
X154455647Y-82345564D01*
X154457068Y-82343305D01*
X154458758Y-82341247D01*
X154459515Y-82339417D01*
X154463479Y-82333121D01*
X154511098Y-82237883D01*
X154516353Y-82224152D01*
X154516544Y-82221462D01*
X154517575Y-82218974D01*
X154519016Y-82204342D01*
X154519016Y-81394819D01*
X154517575Y-81380187D01*
X154703791Y-81380187D01*
X154703791Y-81409451D01*
X154714990Y-81436487D01*
X154735682Y-81457179D01*
X154762718Y-81468378D01*
X154777350Y-81469819D01*
X154988064Y-81469819D01*
X154988064Y-82394819D01*
X154989505Y-82409451D01*
X155000704Y-82436487D01*
X155021396Y-82457179D01*
X155048432Y-82468378D01*
X155077696Y-82468378D01*
X155104732Y-82457179D01*
X155125424Y-82436487D01*
X155136623Y-82409451D01*
X155138064Y-82394819D01*
X155138064Y-81469819D01*
X155348778Y-81469819D01*
X155363410Y-81468378D01*
X155390446Y-81457179D01*
X155411138Y-81436487D01*
X155422337Y-81409451D01*
X155422337Y-81380187D01*
X155411138Y-81353151D01*
X155390446Y-81332459D01*
X155363410Y-81321260D01*
X155348778Y-81319819D01*
X154777350Y-81319819D01*
X154762718Y-81321260D01*
X154735682Y-81332459D01*
X154714990Y-81353151D01*
X154703791Y-81380187D01*
X154517575Y-81380187D01*
X154506376Y-81353151D01*
X154485684Y-81332459D01*
X154458648Y-81321260D01*
X154429384Y-81321260D01*
X154402348Y-81332459D01*
X154381656Y-81353151D01*
X154370457Y-81380187D01*
X154369016Y-81394819D01*
X154369016Y-82186637D01*
X154334757Y-82255153D01*
X154304350Y-82285561D01*
X154235835Y-82319819D01*
X154080769Y-82319819D01*
X154012253Y-82285561D01*
X153981846Y-82255153D01*
X153947588Y-82186637D01*
X153947588Y-81394819D01*
X153946147Y-81380187D01*
X153934948Y-81353151D01*
X153914256Y-81332459D01*
X153887220Y-81321260D01*
X153857956Y-81321260D01*
X153830920Y-81332459D01*
X153810228Y-81353151D01*
X153799029Y-81380187D01*
X153797588Y-81394819D01*
X153407225Y-81394819D01*
X153401811Y-81389405D01*
X153396061Y-81384686D01*
X153394762Y-81383188D01*
X153392502Y-81381766D01*
X153390446Y-81380078D01*
X153388618Y-81379320D01*
X153382319Y-81375356D01*
X153287081Y-81327737D01*
X153273349Y-81322482D01*
X153270661Y-81322291D01*
X153268172Y-81321260D01*
X153253540Y-81319819D01*
X152872588Y-81319819D01*
X152857956Y-81321260D01*
X152830920Y-81332459D01*
X152810228Y-81353151D01*
X152799029Y-81380187D01*
X152797588Y-81394819D01*
X152471397Y-81394819D01*
X152469956Y-81380187D01*
X152458757Y-81353151D01*
X152438065Y-81332459D01*
X152411029Y-81321260D01*
X152381765Y-81321260D01*
X152354729Y-81332459D01*
X152334037Y-81353151D01*
X152322838Y-81380187D01*
X152321397Y-81394819D01*
X152321397Y-82112402D01*
X151890087Y-81357609D01*
X151887898Y-81354525D01*
X151887329Y-81353151D01*
X151885929Y-81351751D01*
X151881577Y-81345619D01*
X151873687Y-81339509D01*
X151866637Y-81332459D01*
X151862220Y-81330629D01*
X151858440Y-81327702D01*
X151848816Y-81325077D01*
X151839601Y-81321260D01*
X151834820Y-81321260D01*
X151830208Y-81320002D01*
X151820311Y-81321260D01*
X151810337Y-81321260D01*
X151805921Y-81323089D01*
X151801178Y-81323692D01*
X151792513Y-81328642D01*
X151783301Y-81332459D01*
X151779922Y-81335837D01*
X151775769Y-81338211D01*
X151769659Y-81346100D01*
X151762609Y-81353151D01*
X151760779Y-81357567D01*
X151757852Y-81361348D01*
X151755227Y-81370971D01*
X151751410Y-81380187D01*
X151750673Y-81387669D01*
X151750152Y-81389580D01*
X151750339Y-81391055D01*
X151749969Y-81394819D01*
X151423779Y-81394819D01*
X151422338Y-81380187D01*
X151411139Y-81353151D01*
X151390447Y-81332459D01*
X151363411Y-81321260D01*
X151334147Y-81321260D01*
X151307111Y-81332459D01*
X151286419Y-81353151D01*
X151275220Y-81380187D01*
X151273779Y-81394819D01*
X151162668Y-81394819D01*
X151162668Y-81208708D01*
X155533448Y-81208708D01*
X155533448Y-82580930D01*
G37*
G36*
X111012685Y-68554077D02*
G01*
X111043092Y-68584484D01*
X111081585Y-68661471D01*
X111124969Y-68835005D01*
X111124969Y-69054632D01*
X111081585Y-69228166D01*
X111043091Y-69305153D01*
X111012684Y-69335561D01*
X110944169Y-69369819D01*
X110884341Y-69369819D01*
X110815825Y-69335561D01*
X110785418Y-69305153D01*
X110746924Y-69228166D01*
X110703541Y-69054632D01*
X110703541Y-68835005D01*
X110746924Y-68661471D01*
X110785418Y-68584484D01*
X110815825Y-68554077D01*
X110884341Y-68519819D01*
X110944169Y-68519819D01*
X111012685Y-68554077D01*
G37*
G36*
X112826122Y-69034180D02*
G01*
X112852616Y-69060674D01*
X112886874Y-69129190D01*
X112886874Y-69236637D01*
X112852615Y-69305153D01*
X112822208Y-69335561D01*
X112753693Y-69369819D01*
X112465446Y-69369819D01*
X112465446Y-68996009D01*
X112711609Y-68996009D01*
X112826122Y-69034180D01*
G37*
G36*
X112774590Y-68554077D02*
G01*
X112804997Y-68584484D01*
X112839255Y-68653000D01*
X112839255Y-68712828D01*
X112804997Y-68781344D01*
X112774590Y-68811751D01*
X112706074Y-68846009D01*
X112465446Y-68846009D01*
X112465446Y-68519819D01*
X112706074Y-68519819D01*
X112774590Y-68554077D01*
G37*
G36*
X115540408Y-68557990D02*
G01*
X115614521Y-68632103D01*
X115653014Y-68709090D01*
X115696398Y-68882624D01*
X115696398Y-69007013D01*
X115653014Y-69180547D01*
X115614520Y-69257534D01*
X115540408Y-69331647D01*
X115425895Y-69369819D01*
X115274970Y-69369819D01*
X115274970Y-68519819D01*
X115425895Y-68519819D01*
X115540408Y-68557990D01*
G37*
G36*
X116524484Y-69084104D02*
G01*
X116256408Y-69084104D01*
X116390446Y-68681989D01*
X116524484Y-69084104D01*
G37*
G36*
X117813211Y-69630930D02*
G01*
X109490638Y-69630930D01*
X109490638Y-68721152D01*
X109601749Y-68721152D01*
X109603823Y-68750342D01*
X109616910Y-68776517D01*
X109639018Y-68795690D01*
X109666779Y-68804944D01*
X109695969Y-68802870D01*
X109709701Y-68797615D01*
X109804939Y-68749996D01*
X109811238Y-68746031D01*
X109813066Y-68745274D01*
X109815122Y-68743585D01*
X109817382Y-68742164D01*
X109818681Y-68740665D01*
X109824431Y-68735947D01*
X109886874Y-68673504D01*
X109886874Y-69369819D01*
X109676160Y-69369819D01*
X109661528Y-69371260D01*
X109634492Y-69382459D01*
X109613800Y-69403151D01*
X109602601Y-69430187D01*
X109602601Y-69459451D01*
X109613800Y-69486487D01*
X109634492Y-69507179D01*
X109661528Y-69518378D01*
X109676160Y-69519819D01*
X110247588Y-69519819D01*
X110262220Y-69518378D01*
X110289256Y-69507179D01*
X110309948Y-69486487D01*
X110321147Y-69459451D01*
X110321147Y-69430187D01*
X110309948Y-69403151D01*
X110289256Y-69382459D01*
X110262220Y-69371260D01*
X110247588Y-69369819D01*
X110036874Y-69369819D01*
X110036874Y-68825771D01*
X110553541Y-68825771D01*
X110553541Y-69063866D01*
X110553792Y-69066419D01*
X110553630Y-69067512D01*
X110554439Y-69072985D01*
X110554982Y-69078498D01*
X110555404Y-69079519D01*
X110555780Y-69082056D01*
X110603399Y-69272532D01*
X110603784Y-69273611D01*
X110603823Y-69274151D01*
X110606150Y-69280232D01*
X110608346Y-69286378D01*
X110608668Y-69286813D01*
X110609078Y-69287883D01*
X110656697Y-69383121D01*
X110660660Y-69389417D01*
X110661418Y-69391247D01*
X110663107Y-69393305D01*
X110664529Y-69395564D01*
X110666027Y-69396863D01*
X110670745Y-69402612D01*
X110718364Y-69450232D01*
X110724113Y-69454950D01*
X110725414Y-69456450D01*
X110727673Y-69457872D01*
X110729730Y-69459560D01*
X110731557Y-69460317D01*
X110737857Y-69464282D01*
X110833095Y-69511901D01*
X110846826Y-69517156D01*
X110849515Y-69517347D01*
X110852004Y-69518378D01*
X110866636Y-69519819D01*
X110961874Y-69519819D01*
X110976506Y-69518378D01*
X110978995Y-69517346D01*
X110981683Y-69517156D01*
X110995415Y-69511901D01*
X111090653Y-69464282D01*
X111096952Y-69460317D01*
X111098780Y-69459560D01*
X111100836Y-69457872D01*
X111103096Y-69456450D01*
X111104396Y-69454950D01*
X111110146Y-69450232D01*
X111157764Y-69402613D01*
X111162482Y-69396863D01*
X111163981Y-69395564D01*
X111165402Y-69393305D01*
X111167092Y-69391247D01*
X111167849Y-69389417D01*
X111171813Y-69383121D01*
X111219432Y-69287883D01*
X111219841Y-69286813D01*
X111220164Y-69286378D01*
X111222356Y-69280241D01*
X111224687Y-69274152D01*
X111224725Y-69273611D01*
X111225111Y-69272532D01*
X111272730Y-69082056D01*
X111273105Y-69079519D01*
X111273528Y-69078498D01*
X111274070Y-69072985D01*
X111274880Y-69067512D01*
X111274717Y-69066419D01*
X111274969Y-69063866D01*
X111274969Y-68825771D01*
X111274717Y-68823217D01*
X111274880Y-68822125D01*
X111274070Y-68816651D01*
X111273528Y-68811139D01*
X111273105Y-68810117D01*
X111272730Y-68807581D01*
X111225111Y-68617105D01*
X111224725Y-68616025D01*
X111224687Y-68615485D01*
X111222356Y-68609395D01*
X111220164Y-68603259D01*
X111219841Y-68602823D01*
X111219432Y-68601754D01*
X111171813Y-68506516D01*
X111167848Y-68500216D01*
X111167091Y-68498389D01*
X111165402Y-68496332D01*
X111163981Y-68494073D01*
X111162482Y-68492773D01*
X111157764Y-68487024D01*
X111115559Y-68444819D01*
X112315446Y-68444819D01*
X112315446Y-69444819D01*
X112316887Y-69459451D01*
X112328086Y-69486487D01*
X112348778Y-69507179D01*
X112375814Y-69518378D01*
X112390446Y-69519819D01*
X112771398Y-69519819D01*
X112786030Y-69518378D01*
X112788519Y-69517346D01*
X112791207Y-69517156D01*
X112804939Y-69511901D01*
X112900177Y-69464282D01*
X112906476Y-69460317D01*
X112908304Y-69459560D01*
X112910360Y-69457872D01*
X112912620Y-69456450D01*
X112913920Y-69454950D01*
X112919670Y-69450232D01*
X112967288Y-69402613D01*
X112972006Y-69396863D01*
X112973505Y-69395564D01*
X112974926Y-69393305D01*
X112976616Y-69391247D01*
X112977373Y-69389417D01*
X112981337Y-69383121D01*
X113028956Y-69287883D01*
X113034211Y-69274152D01*
X113034402Y-69271462D01*
X113035433Y-69268974D01*
X113036874Y-69254342D01*
X113036874Y-69111485D01*
X113035433Y-69096853D01*
X113034402Y-69094364D01*
X113034211Y-69091675D01*
X113028956Y-69077944D01*
X112981337Y-68982706D01*
X112977372Y-68976406D01*
X112976615Y-68974579D01*
X112974926Y-68972522D01*
X112973505Y-68970263D01*
X112972006Y-68968963D01*
X112967288Y-68963214D01*
X112919669Y-68915595D01*
X112908304Y-68906268D01*
X112905813Y-68905236D01*
X112903778Y-68903471D01*
X112897710Y-68900762D01*
X112919669Y-68878804D01*
X112924387Y-68873054D01*
X112925886Y-68871755D01*
X112927307Y-68869495D01*
X112928996Y-68867439D01*
X112929753Y-68865611D01*
X112933718Y-68859312D01*
X112974298Y-68778152D01*
X113315446Y-68778152D01*
X113315446Y-69444819D01*
X113316887Y-69459451D01*
X113328086Y-69486487D01*
X113348778Y-69507179D01*
X113375814Y-69518378D01*
X113405078Y-69518378D01*
X113432114Y-69507179D01*
X113452806Y-69486487D01*
X113464005Y-69459451D01*
X113465446Y-69444819D01*
X113465446Y-68778152D01*
X113464005Y-68763520D01*
X113650220Y-68763520D01*
X113650220Y-68792784D01*
X113661419Y-68819820D01*
X113682111Y-68840512D01*
X113709147Y-68851711D01*
X113723779Y-68853152D01*
X113791636Y-68853152D01*
X113791636Y-69301961D01*
X113793077Y-69316593D01*
X113794108Y-69319082D01*
X113794299Y-69321770D01*
X113799554Y-69335502D01*
X113847173Y-69430741D01*
X113848713Y-69433187D01*
X113849098Y-69434342D01*
X113850344Y-69435779D01*
X113855005Y-69443183D01*
X113862107Y-69449342D01*
X113868271Y-69456450D01*
X113875676Y-69461111D01*
X113877113Y-69462357D01*
X113878266Y-69462741D01*
X113880714Y-69464282D01*
X113975952Y-69511901D01*
X113989683Y-69517156D01*
X113992372Y-69517347D01*
X113994861Y-69518378D01*
X114009493Y-69519819D01*
X114104731Y-69519819D01*
X114119363Y-69518378D01*
X114146399Y-69507179D01*
X114167091Y-69486487D01*
X114178290Y-69459451D01*
X114178290Y-69430187D01*
X114167091Y-69403151D01*
X114146399Y-69382459D01*
X114119363Y-69371260D01*
X114104731Y-69369819D01*
X114027198Y-69369819D01*
X113970156Y-69341298D01*
X113941636Y-69284256D01*
X113941636Y-68853152D01*
X114104731Y-68853152D01*
X114119363Y-68851711D01*
X114146399Y-68840512D01*
X114167091Y-68819820D01*
X114178290Y-68792784D01*
X114178290Y-68763520D01*
X114167091Y-68736484D01*
X114146399Y-68715792D01*
X114119363Y-68704593D01*
X114104731Y-68703152D01*
X113941636Y-68703152D01*
X113941636Y-68444819D01*
X115124970Y-68444819D01*
X115124970Y-69444819D01*
X115126411Y-69459451D01*
X115137610Y-69486487D01*
X115158302Y-69507179D01*
X115185338Y-69518378D01*
X115199970Y-69519819D01*
X115438065Y-69519819D01*
X115445470Y-69519089D01*
X115447445Y-69519230D01*
X115450042Y-69518639D01*
X115452697Y-69518378D01*
X115454528Y-69517619D01*
X115461782Y-69515970D01*
X115604639Y-69468351D01*
X115618064Y-69462357D01*
X115620099Y-69460591D01*
X115622590Y-69459560D01*
X115633955Y-69450233D01*
X115648749Y-69435439D01*
X115982702Y-69435439D01*
X115984777Y-69464629D01*
X115997863Y-69490802D01*
X116019970Y-69509976D01*
X116047733Y-69519230D01*
X116076923Y-69517155D01*
X116103096Y-69504069D01*
X116122270Y-69481962D01*
X116128264Y-69468536D01*
X116206408Y-69234104D01*
X116574484Y-69234104D01*
X116652628Y-69468536D01*
X116658622Y-69481961D01*
X116677796Y-69504068D01*
X116703969Y-69517155D01*
X116733159Y-69519230D01*
X116760921Y-69509976D01*
X116783029Y-69490802D01*
X116796115Y-69464628D01*
X116798190Y-69435438D01*
X116794930Y-69421102D01*
X116612360Y-68873390D01*
X116934494Y-68873390D01*
X116934494Y-69016247D01*
X116934745Y-69018800D01*
X116934583Y-69019893D01*
X116935392Y-69025366D01*
X116935935Y-69030879D01*
X116936357Y-69031900D01*
X116936733Y-69034437D01*
X116984352Y-69224913D01*
X116984737Y-69225992D01*
X116984776Y-69226532D01*
X116987103Y-69232613D01*
X116989299Y-69238759D01*
X116989621Y-69239194D01*
X116990031Y-69240264D01*
X117037650Y-69335502D01*
X117041613Y-69341798D01*
X117042371Y-69343628D01*
X117044060Y-69345686D01*
X117045482Y-69347945D01*
X117046980Y-69349244D01*
X117051699Y-69354994D01*
X117146937Y-69450233D01*
X117158302Y-69459561D01*
X117160792Y-69460592D01*
X117162827Y-69462357D01*
X117176253Y-69468351D01*
X117319109Y-69515970D01*
X117326364Y-69517619D01*
X117328195Y-69518378D01*
X117330848Y-69518639D01*
X117333446Y-69519230D01*
X117335420Y-69519089D01*
X117342827Y-69519819D01*
X117438065Y-69519819D01*
X117445470Y-69519089D01*
X117447445Y-69519230D01*
X117450042Y-69518639D01*
X117452697Y-69518378D01*
X117454528Y-69517619D01*
X117461782Y-69515970D01*
X117604639Y-69468351D01*
X117618064Y-69462357D01*
X117620099Y-69460591D01*
X117622590Y-69459560D01*
X117633956Y-69450232D01*
X117681574Y-69402613D01*
X117690902Y-69391247D01*
X117702100Y-69364211D01*
X117702100Y-69334948D01*
X117690901Y-69307912D01*
X117670208Y-69287219D01*
X117643172Y-69276021D01*
X117613909Y-69276021D01*
X117586873Y-69287220D01*
X117575507Y-69296548D01*
X117540408Y-69331647D01*
X117425895Y-69369819D01*
X117354997Y-69369819D01*
X117240484Y-69331648D01*
X117166371Y-69257534D01*
X117127877Y-69180547D01*
X117084494Y-69007013D01*
X117084494Y-68882624D01*
X117127877Y-68709090D01*
X117166371Y-68632103D01*
X117240484Y-68557990D01*
X117354997Y-68519819D01*
X117425895Y-68519819D01*
X117540408Y-68557990D01*
X117575508Y-68593090D01*
X117586873Y-68602417D01*
X117613909Y-68613616D01*
X117643172Y-68613616D01*
X117670208Y-68602417D01*
X117690901Y-68581724D01*
X117702100Y-68554688D01*
X117702100Y-68525425D01*
X117690901Y-68498389D01*
X117681574Y-68487024D01*
X117633955Y-68439405D01*
X117622590Y-68430078D01*
X117620099Y-68429046D01*
X117618064Y-68427281D01*
X117604639Y-68421287D01*
X117461782Y-68373668D01*
X117454528Y-68372018D01*
X117452697Y-68371260D01*
X117450042Y-68370998D01*
X117447445Y-68370408D01*
X117445470Y-68370548D01*
X117438065Y-68369819D01*
X117342827Y-68369819D01*
X117335420Y-68370548D01*
X117333446Y-68370408D01*
X117330848Y-68370998D01*
X117328195Y-68371260D01*
X117326364Y-68372018D01*
X117319109Y-68373668D01*
X117176253Y-68421287D01*
X117162827Y-68427281D01*
X117160792Y-68429045D01*
X117158302Y-68430077D01*
X117146937Y-68439405D01*
X117051699Y-68534643D01*
X117046980Y-68540392D01*
X117045482Y-68541692D01*
X117044060Y-68543951D01*
X117042372Y-68546008D01*
X117041614Y-68547835D01*
X117037650Y-68554135D01*
X116990031Y-68649373D01*
X116989621Y-68650442D01*
X116989299Y-68650878D01*
X116987113Y-68656997D01*
X116984776Y-68663105D01*
X116984737Y-68663644D01*
X116984352Y-68664724D01*
X116936733Y-68855200D01*
X116936357Y-68857736D01*
X116935935Y-68858758D01*
X116935392Y-68864270D01*
X116934583Y-68869744D01*
X116934745Y-68870836D01*
X116934494Y-68873390D01*
X116612360Y-68873390D01*
X116461597Y-68421102D01*
X116455603Y-68407676D01*
X116452091Y-68403627D01*
X116449696Y-68398836D01*
X116442592Y-68392674D01*
X116436429Y-68385569D01*
X116431635Y-68383172D01*
X116427588Y-68379662D01*
X116418666Y-68376688D01*
X116410256Y-68372483D01*
X116404911Y-68372103D01*
X116399826Y-68370408D01*
X116390446Y-68371074D01*
X116381066Y-68370408D01*
X116375980Y-68372103D01*
X116370636Y-68372483D01*
X116362228Y-68376687D01*
X116353303Y-68379662D01*
X116349252Y-68383175D01*
X116344463Y-68385570D01*
X116338304Y-68392670D01*
X116331196Y-68398836D01*
X116328799Y-68403629D01*
X116325289Y-68407677D01*
X116319295Y-68421102D01*
X115985962Y-69421102D01*
X115982702Y-69435439D01*
X115648749Y-69435439D01*
X115729194Y-69354993D01*
X115733911Y-69349244D01*
X115735410Y-69347945D01*
X115736831Y-69345686D01*
X115738521Y-69343628D01*
X115739278Y-69341798D01*
X115743242Y-69335502D01*
X115790861Y-69240264D01*
X115791270Y-69239194D01*
X115791593Y-69238759D01*
X115793785Y-69232622D01*
X115796116Y-69226533D01*
X115796154Y-69225992D01*
X115796540Y-69224913D01*
X115844159Y-69034437D01*
X115844534Y-69031900D01*
X115844957Y-69030879D01*
X115845499Y-69025366D01*
X115846309Y-69019893D01*
X115846146Y-69018800D01*
X115846398Y-69016247D01*
X115846398Y-68873390D01*
X115846146Y-68870836D01*
X115846309Y-68869744D01*
X115845499Y-68864270D01*
X115844957Y-68858758D01*
X115844534Y-68857736D01*
X115844159Y-68855200D01*
X115796540Y-68664724D01*
X115796154Y-68663644D01*
X115796116Y-68663104D01*
X115793779Y-68656997D01*
X115791593Y-68650878D01*
X115791270Y-68650442D01*
X115790861Y-68649373D01*
X115743242Y-68554135D01*
X115739279Y-68547840D01*
X115738521Y-68546008D01*
X115736829Y-68543946D01*
X115735410Y-68541692D01*
X115733913Y-68540393D01*
X115729193Y-68534643D01*
X115633955Y-68439405D01*
X115622590Y-68430078D01*
X115620099Y-68429046D01*
X115618064Y-68427281D01*
X115604639Y-68421287D01*
X115461782Y-68373668D01*
X115454528Y-68372018D01*
X115452697Y-68371260D01*
X115450042Y-68370998D01*
X115447445Y-68370408D01*
X115445470Y-68370548D01*
X115438065Y-68369819D01*
X115199970Y-68369819D01*
X115185338Y-68371260D01*
X115158302Y-68382459D01*
X115137610Y-68403151D01*
X115126411Y-68430187D01*
X115124970Y-68444819D01*
X113941636Y-68444819D01*
X113940195Y-68430187D01*
X113928996Y-68403151D01*
X113908304Y-68382459D01*
X113881268Y-68371260D01*
X113852004Y-68371260D01*
X113824968Y-68382459D01*
X113804276Y-68403151D01*
X113793077Y-68430187D01*
X113791636Y-68444819D01*
X113791636Y-68703152D01*
X113723779Y-68703152D01*
X113709147Y-68704593D01*
X113682111Y-68715792D01*
X113661419Y-68736484D01*
X113650220Y-68763520D01*
X113464005Y-68763520D01*
X113452806Y-68736484D01*
X113432114Y-68715792D01*
X113405078Y-68704593D01*
X113375814Y-68704593D01*
X113348778Y-68715792D01*
X113328086Y-68736484D01*
X113316887Y-68763520D01*
X113315446Y-68778152D01*
X112974298Y-68778152D01*
X112981337Y-68764074D01*
X112986592Y-68750343D01*
X112986783Y-68747653D01*
X112987814Y-68745165D01*
X112989255Y-68730533D01*
X112989255Y-68635295D01*
X112987814Y-68620663D01*
X112986783Y-68618174D01*
X112986592Y-68615485D01*
X112981337Y-68601754D01*
X112933718Y-68506516D01*
X112929753Y-68500216D01*
X112928996Y-68498389D01*
X112927307Y-68496332D01*
X112925886Y-68494073D01*
X112924387Y-68492773D01*
X112919669Y-68487024D01*
X112910452Y-68477807D01*
X113269268Y-68477807D01*
X113269268Y-68507069D01*
X113280467Y-68534106D01*
X113289794Y-68545471D01*
X113337413Y-68593090D01*
X113348778Y-68602417D01*
X113375814Y-68613616D01*
X113375815Y-68613616D01*
X113405077Y-68613616D01*
X113405078Y-68613616D01*
X113432114Y-68602417D01*
X113443479Y-68593090D01*
X113491098Y-68545471D01*
X113500425Y-68534106D01*
X113511624Y-68507070D01*
X113511624Y-68477807D01*
X113506166Y-68464629D01*
X113500425Y-68450770D01*
X113491098Y-68439405D01*
X113443479Y-68391786D01*
X113432114Y-68382459D01*
X113405078Y-68371260D01*
X113405077Y-68371260D01*
X113375814Y-68371260D01*
X113348778Y-68382459D01*
X113337413Y-68391786D01*
X113289794Y-68439405D01*
X113280467Y-68450770D01*
X113269268Y-68477807D01*
X112910452Y-68477807D01*
X112872050Y-68439405D01*
X112866300Y-68434686D01*
X112865001Y-68433188D01*
X112862741Y-68431766D01*
X112860685Y-68430078D01*
X112858857Y-68429320D01*
X112852558Y-68425356D01*
X112757320Y-68377737D01*
X112743588Y-68372482D01*
X112740900Y-68372291D01*
X112738411Y-68371260D01*
X112723779Y-68369819D01*
X112390446Y-68369819D01*
X112375814Y-68371260D01*
X112348778Y-68382459D01*
X112328086Y-68403151D01*
X112316887Y-68430187D01*
X112315446Y-68444819D01*
X111115559Y-68444819D01*
X111110145Y-68439405D01*
X111104395Y-68434686D01*
X111103096Y-68433188D01*
X111100836Y-68431766D01*
X111098780Y-68430078D01*
X111096952Y-68429320D01*
X111090653Y-68425356D01*
X110995415Y-68377737D01*
X110981683Y-68372482D01*
X110978995Y-68372291D01*
X110976506Y-68371260D01*
X110961874Y-68369819D01*
X110866636Y-68369819D01*
X110852004Y-68371260D01*
X110849515Y-68372290D01*
X110846826Y-68372482D01*
X110833095Y-68377737D01*
X110737857Y-68425356D01*
X110731557Y-68429320D01*
X110729730Y-68430078D01*
X110727673Y-68431766D01*
X110725414Y-68433188D01*
X110724114Y-68434686D01*
X110718365Y-68439405D01*
X110670746Y-68487024D01*
X110666027Y-68492773D01*
X110664529Y-68494073D01*
X110663107Y-68496332D01*
X110661419Y-68498389D01*
X110660661Y-68500216D01*
X110656697Y-68506516D01*
X110609078Y-68601754D01*
X110608668Y-68602823D01*
X110608346Y-68603259D01*
X110606150Y-68609404D01*
X110603823Y-68615486D01*
X110603784Y-68616025D01*
X110603399Y-68617105D01*
X110555780Y-68807581D01*
X110555404Y-68810117D01*
X110554982Y-68811139D01*
X110554439Y-68816651D01*
X110553630Y-68822125D01*
X110553792Y-68823217D01*
X110553541Y-68825771D01*
X110036874Y-68825771D01*
X110036874Y-68444819D01*
X110036868Y-68444766D01*
X110036874Y-68444740D01*
X110036858Y-68444663D01*
X110035433Y-68430187D01*
X110032591Y-68423326D01*
X110031135Y-68416045D01*
X110027045Y-68409938D01*
X110024234Y-68403151D01*
X110018985Y-68397902D01*
X110014852Y-68391730D01*
X110008735Y-68387652D01*
X110003542Y-68382459D01*
X109996682Y-68379617D01*
X109990503Y-68375498D01*
X109983294Y-68374072D01*
X109976506Y-68371260D01*
X109969079Y-68371260D01*
X109961795Y-68369819D01*
X109954590Y-68371260D01*
X109947242Y-68371260D01*
X109940381Y-68374101D01*
X109933101Y-68375558D01*
X109926995Y-68379646D01*
X109920206Y-68382459D01*
X109914955Y-68387709D01*
X109908786Y-68391841D01*
X109899565Y-68403099D01*
X109899514Y-68403151D01*
X109899504Y-68403173D01*
X109899470Y-68403216D01*
X109808350Y-68539896D01*
X109726971Y-68621275D01*
X109642619Y-68663451D01*
X109630176Y-68671283D01*
X109611003Y-68693391D01*
X109601749Y-68721152D01*
X109490638Y-68721152D01*
X109490638Y-68258708D01*
X117813211Y-68258708D01*
X117813211Y-69630930D01*
G37*
X106142180Y-57412969D02*
X106142180Y-56936779D01*
X106142180Y-56936779D02*
X105665990Y-56889160D01*
X105665990Y-56889160D02*
X105713609Y-56936779D01*
X105713609Y-56936779D02*
X105761228Y-57032017D01*
X105761228Y-57032017D02*
X105761228Y-57270112D01*
X105761228Y-57270112D02*
X105713609Y-57365350D01*
X105713609Y-57365350D02*
X105665990Y-57412969D01*
X105665990Y-57412969D02*
X105570752Y-57460588D01*
X105570752Y-57460588D02*
X105332657Y-57460588D01*
X105332657Y-57460588D02*
X105237419Y-57412969D01*
X105237419Y-57412969D02*
X105189800Y-57365350D01*
X105189800Y-57365350D02*
X105142180Y-57270112D01*
X105142180Y-57270112D02*
X105142180Y-57032017D01*
X105142180Y-57032017D02*
X105189800Y-56936779D01*
X105189800Y-56936779D02*
X105237419Y-56889160D01*
X106142180Y-57746303D02*
X105142180Y-58079636D01*
X105142180Y-58079636D02*
X106142180Y-58412969D01*
G36*
X150880542Y-68629077D02*
G01*
X150952484Y-68701019D01*
X150992826Y-68862386D01*
X150992826Y-69177251D01*
X150952484Y-69338617D01*
X150880541Y-69410561D01*
X150812026Y-69444819D01*
X150656960Y-69444819D01*
X150588444Y-69410561D01*
X150516501Y-69338617D01*
X150476160Y-69177251D01*
X150476160Y-68862386D01*
X150516501Y-68701019D01*
X150588444Y-68629077D01*
X150656960Y-68594819D01*
X150812026Y-68594819D01*
X150880542Y-68629077D01*
G37*
G36*
X153737685Y-68629077D02*
G01*
X153768092Y-68659484D01*
X153802350Y-68728000D01*
X153802350Y-68835447D01*
X153768092Y-68903963D01*
X153737685Y-68934370D01*
X153669169Y-68968628D01*
X153380922Y-68968628D01*
X153380922Y-68594819D01*
X153669169Y-68594819D01*
X153737685Y-68629077D01*
G37*
G36*
X155966782Y-69705930D02*
G01*
X150215049Y-69705930D01*
X150215049Y-68853152D01*
X150326160Y-68853152D01*
X150326160Y-69186485D01*
X150326411Y-69189038D01*
X150326249Y-69190131D01*
X150327058Y-69195604D01*
X150327601Y-69201117D01*
X150328023Y-69202138D01*
X150328399Y-69204675D01*
X150376018Y-69395151D01*
X150380965Y-69408997D01*
X150384284Y-69413476D01*
X150386418Y-69418628D01*
X150395746Y-69429994D01*
X150490984Y-69525233D01*
X150496734Y-69529953D01*
X150498033Y-69531450D01*
X150500287Y-69532869D01*
X150502349Y-69534561D01*
X150504181Y-69535319D01*
X150510476Y-69539282D01*
X150605714Y-69586901D01*
X150619445Y-69592156D01*
X150622134Y-69592347D01*
X150624623Y-69593378D01*
X150639255Y-69594819D01*
X150829731Y-69594819D01*
X150844363Y-69593378D01*
X150846852Y-69592346D01*
X150849540Y-69592156D01*
X150863272Y-69586901D01*
X150958510Y-69539282D01*
X150964809Y-69535317D01*
X150966637Y-69534560D01*
X150968693Y-69532871D01*
X150970953Y-69531450D01*
X150972252Y-69529951D01*
X150978002Y-69525233D01*
X151073241Y-69429993D01*
X151082568Y-69418628D01*
X151084701Y-69413476D01*
X151088021Y-69408997D01*
X151092968Y-69395151D01*
X151140587Y-69204675D01*
X151140962Y-69202138D01*
X151141385Y-69201117D01*
X151141927Y-69195604D01*
X151142737Y-69190131D01*
X151142574Y-69189038D01*
X151142826Y-69186485D01*
X151142826Y-68853152D01*
X151142574Y-68850598D01*
X151142737Y-68849506D01*
X151141927Y-68844032D01*
X151141385Y-68838520D01*
X151140962Y-68837498D01*
X151140587Y-68834962D01*
X151092968Y-68644486D01*
X151088021Y-68630640D01*
X151084702Y-68626161D01*
X151082568Y-68621008D01*
X151073240Y-68609643D01*
X150983416Y-68519819D01*
X151421398Y-68519819D01*
X151421398Y-69329342D01*
X151422839Y-69343974D01*
X151423870Y-69346463D01*
X151424061Y-69349151D01*
X151429316Y-69362883D01*
X151476935Y-69458121D01*
X151480898Y-69464417D01*
X151481656Y-69466247D01*
X151483345Y-69468305D01*
X151484767Y-69470564D01*
X151486265Y-69471863D01*
X151490983Y-69477612D01*
X151538602Y-69525232D01*
X151544351Y-69529950D01*
X151545652Y-69531450D01*
X151547911Y-69532872D01*
X151549968Y-69534560D01*
X151551795Y-69535317D01*
X151558095Y-69539282D01*
X151653333Y-69586901D01*
X151667064Y-69592156D01*
X151669753Y-69592347D01*
X151672242Y-69593378D01*
X151686874Y-69594819D01*
X151877350Y-69594819D01*
X151891982Y-69593378D01*
X151894471Y-69592346D01*
X151897159Y-69592156D01*
X151910891Y-69586901D01*
X152006129Y-69539282D01*
X152012428Y-69535317D01*
X152014256Y-69534560D01*
X152016312Y-69532872D01*
X152018572Y-69531450D01*
X152019872Y-69529950D01*
X152025622Y-69525232D01*
X152073240Y-69477613D01*
X152077958Y-69471863D01*
X152079457Y-69470564D01*
X152080878Y-69468305D01*
X152082568Y-69466247D01*
X152083325Y-69464417D01*
X152087289Y-69458121D01*
X152134908Y-69362883D01*
X152140163Y-69349152D01*
X152140354Y-69346462D01*
X152141385Y-69343974D01*
X152142826Y-69329342D01*
X152142826Y-68519819D01*
X152141385Y-68505187D01*
X152327601Y-68505187D01*
X152327601Y-68534451D01*
X152338800Y-68561487D01*
X152359492Y-68582179D01*
X152386528Y-68593378D01*
X152401160Y-68594819D01*
X152611874Y-68594819D01*
X152611874Y-69519819D01*
X152613315Y-69534451D01*
X152624514Y-69561487D01*
X152645206Y-69582179D01*
X152672242Y-69593378D01*
X152701506Y-69593378D01*
X152728542Y-69582179D01*
X152749234Y-69561487D01*
X152760433Y-69534451D01*
X152761874Y-69519819D01*
X152761874Y-68594819D01*
X152972588Y-68594819D01*
X152987220Y-68593378D01*
X153014256Y-68582179D01*
X153034948Y-68561487D01*
X153046147Y-68534451D01*
X153046147Y-68519819D01*
X153230922Y-68519819D01*
X153230922Y-69519819D01*
X153232363Y-69534451D01*
X153243562Y-69561487D01*
X153264254Y-69582179D01*
X153291290Y-69593378D01*
X153320554Y-69593378D01*
X153347590Y-69582179D01*
X153368282Y-69561487D01*
X153379481Y-69534451D01*
X153380922Y-69519819D01*
X153380922Y-69118628D01*
X153686874Y-69118628D01*
X153701506Y-69117187D01*
X153703995Y-69116155D01*
X153706683Y-69115965D01*
X153720415Y-69110710D01*
X153815653Y-69063091D01*
X153821952Y-69059126D01*
X153823780Y-69058369D01*
X153825836Y-69056680D01*
X153828096Y-69055259D01*
X153829395Y-69053760D01*
X153835145Y-69049042D01*
X153882764Y-69001423D01*
X153887482Y-68995673D01*
X153888981Y-68994374D01*
X153890402Y-68992114D01*
X153892091Y-68990058D01*
X153892848Y-68988230D01*
X153896813Y-68981931D01*
X153944432Y-68886693D01*
X153949687Y-68872962D01*
X153949878Y-68870272D01*
X153950909Y-68867784D01*
X153952350Y-68853152D01*
X153952350Y-68710295D01*
X153950909Y-68695663D01*
X153949878Y-68693174D01*
X153949687Y-68690485D01*
X153944432Y-68676754D01*
X153896813Y-68581516D01*
X153892848Y-68575216D01*
X153892091Y-68573389D01*
X153890402Y-68571332D01*
X153888981Y-68569073D01*
X153887482Y-68567773D01*
X153882764Y-68562024D01*
X153840559Y-68519819D01*
X154230922Y-68519819D01*
X154230922Y-69329342D01*
X154232363Y-69343974D01*
X154233394Y-69346463D01*
X154233585Y-69349151D01*
X154238840Y-69362883D01*
X154286459Y-69458121D01*
X154290422Y-69464417D01*
X154291180Y-69466247D01*
X154292869Y-69468305D01*
X154294291Y-69470564D01*
X154295789Y-69471863D01*
X154300507Y-69477612D01*
X154348126Y-69525232D01*
X154353875Y-69529950D01*
X154355176Y-69531450D01*
X154357435Y-69532872D01*
X154359492Y-69534560D01*
X154361319Y-69535317D01*
X154367619Y-69539282D01*
X154462857Y-69586901D01*
X154476588Y-69592156D01*
X154479277Y-69592347D01*
X154481766Y-69593378D01*
X154496398Y-69594819D01*
X154686874Y-69594819D01*
X154701506Y-69593378D01*
X154703995Y-69592346D01*
X154706683Y-69592156D01*
X154720415Y-69586901D01*
X154815653Y-69539282D01*
X154821952Y-69535317D01*
X154823780Y-69534560D01*
X154825836Y-69532872D01*
X154828096Y-69531450D01*
X154829396Y-69529950D01*
X154835146Y-69525232D01*
X154882764Y-69477613D01*
X154887482Y-69471863D01*
X154888981Y-69470564D01*
X154890402Y-69468305D01*
X154892092Y-69466247D01*
X154892849Y-69464417D01*
X154896813Y-69458121D01*
X154944432Y-69362883D01*
X154949687Y-69349152D01*
X154949878Y-69346462D01*
X154950909Y-69343974D01*
X154952350Y-69329342D01*
X154952350Y-68519819D01*
X154950909Y-68505187D01*
X155137125Y-68505187D01*
X155137125Y-68534451D01*
X155148324Y-68561487D01*
X155169016Y-68582179D01*
X155196052Y-68593378D01*
X155210684Y-68594819D01*
X155421398Y-68594819D01*
X155421398Y-69519819D01*
X155422839Y-69534451D01*
X155434038Y-69561487D01*
X155454730Y-69582179D01*
X155481766Y-69593378D01*
X155511030Y-69593378D01*
X155538066Y-69582179D01*
X155558758Y-69561487D01*
X155569957Y-69534451D01*
X155571398Y-69519819D01*
X155571398Y-68594819D01*
X155782112Y-68594819D01*
X155796744Y-68593378D01*
X155823780Y-68582179D01*
X155844472Y-68561487D01*
X155855671Y-68534451D01*
X155855671Y-68505187D01*
X155844472Y-68478151D01*
X155823780Y-68457459D01*
X155796744Y-68446260D01*
X155782112Y-68444819D01*
X155210684Y-68444819D01*
X155196052Y-68446260D01*
X155169016Y-68457459D01*
X155148324Y-68478151D01*
X155137125Y-68505187D01*
X154950909Y-68505187D01*
X154939710Y-68478151D01*
X154919018Y-68457459D01*
X154891982Y-68446260D01*
X154862718Y-68446260D01*
X154835682Y-68457459D01*
X154814990Y-68478151D01*
X154803791Y-68505187D01*
X154802350Y-68519819D01*
X154802350Y-69311637D01*
X154768091Y-69380153D01*
X154737684Y-69410561D01*
X154669169Y-69444819D01*
X154514103Y-69444819D01*
X154445587Y-69410561D01*
X154415180Y-69380153D01*
X154380922Y-69311637D01*
X154380922Y-68519819D01*
X154379481Y-68505187D01*
X154368282Y-68478151D01*
X154347590Y-68457459D01*
X154320554Y-68446260D01*
X154291290Y-68446260D01*
X154264254Y-68457459D01*
X154243562Y-68478151D01*
X154232363Y-68505187D01*
X154230922Y-68519819D01*
X153840559Y-68519819D01*
X153835145Y-68514405D01*
X153829395Y-68509686D01*
X153828096Y-68508188D01*
X153825836Y-68506766D01*
X153823780Y-68505078D01*
X153821952Y-68504320D01*
X153815653Y-68500356D01*
X153720415Y-68452737D01*
X153706683Y-68447482D01*
X153703995Y-68447291D01*
X153701506Y-68446260D01*
X153686874Y-68444819D01*
X153305922Y-68444819D01*
X153291290Y-68446260D01*
X153264254Y-68457459D01*
X153243562Y-68478151D01*
X153232363Y-68505187D01*
X153230922Y-68519819D01*
X153046147Y-68519819D01*
X153046147Y-68505187D01*
X153034948Y-68478151D01*
X153014256Y-68457459D01*
X152987220Y-68446260D01*
X152972588Y-68444819D01*
X152401160Y-68444819D01*
X152386528Y-68446260D01*
X152359492Y-68457459D01*
X152338800Y-68478151D01*
X152327601Y-68505187D01*
X152141385Y-68505187D01*
X152130186Y-68478151D01*
X152109494Y-68457459D01*
X152082458Y-68446260D01*
X152053194Y-68446260D01*
X152026158Y-68457459D01*
X152005466Y-68478151D01*
X151994267Y-68505187D01*
X151992826Y-68519819D01*
X151992826Y-69311637D01*
X151958567Y-69380153D01*
X151928160Y-69410561D01*
X151859645Y-69444819D01*
X151704579Y-69444819D01*
X151636063Y-69410561D01*
X151605656Y-69380153D01*
X151571398Y-69311637D01*
X151571398Y-68519819D01*
X151569957Y-68505187D01*
X151558758Y-68478151D01*
X151538066Y-68457459D01*
X151511030Y-68446260D01*
X151481766Y-68446260D01*
X151454730Y-68457459D01*
X151434038Y-68478151D01*
X151422839Y-68505187D01*
X151421398Y-68519819D01*
X150983416Y-68519819D01*
X150978002Y-68514405D01*
X150972252Y-68509686D01*
X150970953Y-68508188D01*
X150968693Y-68506766D01*
X150966637Y-68505078D01*
X150964809Y-68504320D01*
X150958510Y-68500356D01*
X150863272Y-68452737D01*
X150849540Y-68447482D01*
X150846852Y-68447291D01*
X150844363Y-68446260D01*
X150829731Y-68444819D01*
X150639255Y-68444819D01*
X150624623Y-68446260D01*
X150622134Y-68447290D01*
X150619445Y-68447482D01*
X150605714Y-68452737D01*
X150510476Y-68500356D01*
X150504181Y-68504318D01*
X150502349Y-68505077D01*
X150500287Y-68506768D01*
X150498033Y-68508188D01*
X150496734Y-68509684D01*
X150490984Y-68514405D01*
X150395746Y-68609643D01*
X150386419Y-68621008D01*
X150384285Y-68626158D01*
X150380965Y-68630640D01*
X150376018Y-68644486D01*
X150328399Y-68834962D01*
X150328023Y-68837498D01*
X150327601Y-68838520D01*
X150327058Y-68844032D01*
X150326249Y-68849506D01*
X150326411Y-68850598D01*
X150326160Y-68853152D01*
X150215049Y-68853152D01*
X150215049Y-68333708D01*
X155966782Y-68333708D01*
X155966782Y-69705930D01*
G37*
X86087000Y-52780000D02*
X107417000Y-52780000D01*
X107417000Y-69320000D01*
X86087000Y-69320000D01*
X86087000Y-52780000D01*
X124514819Y-70762857D02*
X124038628Y-71096190D01*
X124514819Y-71334285D02*
X123514819Y-71334285D01*
X123514819Y-71334285D02*
X123514819Y-70953333D01*
X123514819Y-70953333D02*
X123562438Y-70858095D01*
X123562438Y-70858095D02*
X123610057Y-70810476D01*
X123610057Y-70810476D02*
X123705295Y-70762857D01*
X123705295Y-70762857D02*
X123848152Y-70762857D01*
X123848152Y-70762857D02*
X123943390Y-70810476D01*
X123943390Y-70810476D02*
X123991009Y-70858095D01*
X123991009Y-70858095D02*
X124038628Y-70953333D01*
X124038628Y-70953333D02*
X124038628Y-71334285D01*
X123610057Y-70381904D02*
X123562438Y-70334285D01*
X123562438Y-70334285D02*
X123514819Y-70239047D01*
X123514819Y-70239047D02*
X123514819Y-70000952D01*
X123514819Y-70000952D02*
X123562438Y-69905714D01*
X123562438Y-69905714D02*
X123610057Y-69858095D01*
X123610057Y-69858095D02*
X123705295Y-69810476D01*
X123705295Y-69810476D02*
X123800533Y-69810476D01*
X123800533Y-69810476D02*
X123943390Y-69858095D01*
X123943390Y-69858095D02*
X124514819Y-70429523D01*
X124514819Y-70429523D02*
X124514819Y-69810476D01*
X123514819Y-69477142D02*
X123514819Y-68858095D01*
X123514819Y-68858095D02*
X123895771Y-69191428D01*
X123895771Y-69191428D02*
X123895771Y-69048571D01*
X123895771Y-69048571D02*
X123943390Y-68953333D01*
X123943390Y-68953333D02*
X123991009Y-68905714D01*
X123991009Y-68905714D02*
X124086247Y-68858095D01*
X124086247Y-68858095D02*
X124324342Y-68858095D01*
X124324342Y-68858095D02*
X124419580Y-68905714D01*
X124419580Y-68905714D02*
X124467200Y-68953333D01*
X124467200Y-68953333D02*
X124514819Y-69048571D01*
X124514819Y-69048571D02*
X124514819Y-69334285D01*
X124514819Y-69334285D02*
X124467200Y-69429523D01*
X124467200Y-69429523D02*
X124419580Y-69477142D01*
X106166666Y-71744819D02*
X106166666Y-72459104D01*
X106166666Y-72459104D02*
X106119047Y-72601961D01*
X106119047Y-72601961D02*
X106023809Y-72697200D01*
X106023809Y-72697200D02*
X105880952Y-72744819D01*
X105880952Y-72744819D02*
X105785714Y-72744819D01*
X107071428Y-71744819D02*
X106880952Y-71744819D01*
X106880952Y-71744819D02*
X106785714Y-71792438D01*
X106785714Y-71792438D02*
X106738095Y-71840057D01*
X106738095Y-71840057D02*
X106642857Y-71982914D01*
X106642857Y-71982914D02*
X106595238Y-72173390D01*
X106595238Y-72173390D02*
X106595238Y-72554342D01*
X106595238Y-72554342D02*
X106642857Y-72649580D01*
X106642857Y-72649580D02*
X106690476Y-72697200D01*
X106690476Y-72697200D02*
X106785714Y-72744819D01*
X106785714Y-72744819D02*
X106976190Y-72744819D01*
X106976190Y-72744819D02*
X107071428Y-72697200D01*
X107071428Y-72697200D02*
X107119047Y-72649580D01*
X107119047Y-72649580D02*
X107166666Y-72554342D01*
X107166666Y-72554342D02*
X107166666Y-72316247D01*
X107166666Y-72316247D02*
X107119047Y-72221009D01*
X107119047Y-72221009D02*
X107071428Y-72173390D01*
X107071428Y-72173390D02*
X106976190Y-72125771D01*
X106976190Y-72125771D02*
X106785714Y-72125771D01*
X106785714Y-72125771D02*
X106690476Y-72173390D01*
X106690476Y-72173390D02*
X106642857Y-72221009D01*
X106642857Y-72221009D02*
X106595238Y-72316247D01*
X140403333Y-54674819D02*
X140070000Y-54198628D01*
X139831905Y-54674819D02*
X139831905Y-53674819D01*
X139831905Y-53674819D02*
X140212857Y-53674819D01*
X140212857Y-53674819D02*
X140308095Y-53722438D01*
X140308095Y-53722438D02*
X140355714Y-53770057D01*
X140355714Y-53770057D02*
X140403333Y-53865295D01*
X140403333Y-53865295D02*
X140403333Y-54008152D01*
X140403333Y-54008152D02*
X140355714Y-54103390D01*
X140355714Y-54103390D02*
X140308095Y-54151009D01*
X140308095Y-54151009D02*
X140212857Y-54198628D01*
X140212857Y-54198628D02*
X139831905Y-54198628D01*
X140974762Y-54103390D02*
X140879524Y-54055771D01*
X140879524Y-54055771D02*
X140831905Y-54008152D01*
X140831905Y-54008152D02*
X140784286Y-53912914D01*
X140784286Y-53912914D02*
X140784286Y-53865295D01*
X140784286Y-53865295D02*
X140831905Y-53770057D01*
X140831905Y-53770057D02*
X140879524Y-53722438D01*
X140879524Y-53722438D02*
X140974762Y-53674819D01*
X140974762Y-53674819D02*
X141165238Y-53674819D01*
X141165238Y-53674819D02*
X141260476Y-53722438D01*
X141260476Y-53722438D02*
X141308095Y-53770057D01*
X141308095Y-53770057D02*
X141355714Y-53865295D01*
X141355714Y-53865295D02*
X141355714Y-53912914D01*
X141355714Y-53912914D02*
X141308095Y-54008152D01*
X141308095Y-54008152D02*
X141260476Y-54055771D01*
X141260476Y-54055771D02*
X141165238Y-54103390D01*
X141165238Y-54103390D02*
X140974762Y-54103390D01*
X140974762Y-54103390D02*
X140879524Y-54151009D01*
X140879524Y-54151009D02*
X140831905Y-54198628D01*
X140831905Y-54198628D02*
X140784286Y-54293866D01*
X140784286Y-54293866D02*
X140784286Y-54484342D01*
X140784286Y-54484342D02*
X140831905Y-54579580D01*
X140831905Y-54579580D02*
X140879524Y-54627200D01*
X140879524Y-54627200D02*
X140974762Y-54674819D01*
X140974762Y-54674819D02*
X141165238Y-54674819D01*
X141165238Y-54674819D02*
X141260476Y-54627200D01*
X141260476Y-54627200D02*
X141308095Y-54579580D01*
X141308095Y-54579580D02*
X141355714Y-54484342D01*
X141355714Y-54484342D02*
X141355714Y-54293866D01*
X141355714Y-54293866D02*
X141308095Y-54198628D01*
X141308095Y-54198628D02*
X141260476Y-54151009D01*
X141260476Y-54151009D02*
X141165238Y-54103390D01*
X142934819Y-89865238D02*
X142458628Y-90198571D01*
X142934819Y-90436666D02*
X141934819Y-90436666D01*
X141934819Y-90436666D02*
X141934819Y-90055714D01*
X141934819Y-90055714D02*
X141982438Y-89960476D01*
X141982438Y-89960476D02*
X142030057Y-89912857D01*
X142030057Y-89912857D02*
X142125295Y-89865238D01*
X142125295Y-89865238D02*
X142268152Y-89865238D01*
X142268152Y-89865238D02*
X142363390Y-89912857D01*
X142363390Y-89912857D02*
X142411009Y-89960476D01*
X142411009Y-89960476D02*
X142458628Y-90055714D01*
X142458628Y-90055714D02*
X142458628Y-90436666D01*
X141934819Y-89579523D02*
X142934819Y-89246190D01*
X142934819Y-89246190D02*
X141934819Y-88912857D01*
X142030057Y-88627142D02*
X141982438Y-88579523D01*
X141982438Y-88579523D02*
X141934819Y-88484285D01*
X141934819Y-88484285D02*
X141934819Y-88246190D01*
X141934819Y-88246190D02*
X141982438Y-88150952D01*
X141982438Y-88150952D02*
X142030057Y-88103333D01*
X142030057Y-88103333D02*
X142125295Y-88055714D01*
X142125295Y-88055714D02*
X142220533Y-88055714D01*
X142220533Y-88055714D02*
X142363390Y-88103333D01*
X142363390Y-88103333D02*
X142934819Y-88674761D01*
X142934819Y-88674761D02*
X142934819Y-88055714D01*
X122809819Y-84285238D02*
X122333628Y-84618571D01*
X122809819Y-84856666D02*
X121809819Y-84856666D01*
X121809819Y-84856666D02*
X121809819Y-84475714D01*
X121809819Y-84475714D02*
X121857438Y-84380476D01*
X121857438Y-84380476D02*
X121905057Y-84332857D01*
X121905057Y-84332857D02*
X122000295Y-84285238D01*
X122000295Y-84285238D02*
X122143152Y-84285238D01*
X122143152Y-84285238D02*
X122238390Y-84332857D01*
X122238390Y-84332857D02*
X122286009Y-84380476D01*
X122286009Y-84380476D02*
X122333628Y-84475714D01*
X122333628Y-84475714D02*
X122333628Y-84856666D01*
X121809819Y-83999523D02*
X122809819Y-83666190D01*
X122809819Y-83666190D02*
X121809819Y-83332857D01*
X121809819Y-83094761D02*
X121809819Y-82475714D01*
X121809819Y-82475714D02*
X122190771Y-82809047D01*
X122190771Y-82809047D02*
X122190771Y-82666190D01*
X122190771Y-82666190D02*
X122238390Y-82570952D01*
X122238390Y-82570952D02*
X122286009Y-82523333D01*
X122286009Y-82523333D02*
X122381247Y-82475714D01*
X122381247Y-82475714D02*
X122619342Y-82475714D01*
X122619342Y-82475714D02*
X122714580Y-82523333D01*
X122714580Y-82523333D02*
X122762200Y-82570952D01*
X122762200Y-82570952D02*
X122809819Y-82666190D01*
X122809819Y-82666190D02*
X122809819Y-82951904D01*
X122809819Y-82951904D02*
X122762200Y-83047142D01*
X122762200Y-83047142D02*
X122714580Y-83094761D01*
X148183333Y-67874819D02*
X147850000Y-67398628D01*
X147611905Y-67874819D02*
X147611905Y-66874819D01*
X147611905Y-66874819D02*
X147992857Y-66874819D01*
X147992857Y-66874819D02*
X148088095Y-66922438D01*
X148088095Y-66922438D02*
X148135714Y-66970057D01*
X148135714Y-66970057D02*
X148183333Y-67065295D01*
X148183333Y-67065295D02*
X148183333Y-67208152D01*
X148183333Y-67208152D02*
X148135714Y-67303390D01*
X148135714Y-67303390D02*
X148088095Y-67351009D01*
X148088095Y-67351009D02*
X147992857Y-67398628D01*
X147992857Y-67398628D02*
X147611905Y-67398628D01*
X148516667Y-66874819D02*
X149135714Y-66874819D01*
X149135714Y-66874819D02*
X148802381Y-67255771D01*
X148802381Y-67255771D02*
X148945238Y-67255771D01*
X148945238Y-67255771D02*
X149040476Y-67303390D01*
X149040476Y-67303390D02*
X149088095Y-67351009D01*
X149088095Y-67351009D02*
X149135714Y-67446247D01*
X149135714Y-67446247D02*
X149135714Y-67684342D01*
X149135714Y-67684342D02*
X149088095Y-67779580D01*
X149088095Y-67779580D02*
X149040476Y-67827200D01*
X149040476Y-67827200D02*
X148945238Y-67874819D01*
X148945238Y-67874819D02*
X148659524Y-67874819D01*
X148659524Y-67874819D02*
X148564286Y-67827200D01*
X148564286Y-67827200D02*
X148516667Y-67779580D01*
X126706666Y-88004819D02*
X126706666Y-88719104D01*
X126706666Y-88719104D02*
X126659047Y-88861961D01*
X126659047Y-88861961D02*
X126563809Y-88957200D01*
X126563809Y-88957200D02*
X126420952Y-89004819D01*
X126420952Y-89004819D02*
X126325714Y-89004819D01*
X127230476Y-89004819D02*
X127420952Y-89004819D01*
X127420952Y-89004819D02*
X127516190Y-88957200D01*
X127516190Y-88957200D02*
X127563809Y-88909580D01*
X127563809Y-88909580D02*
X127659047Y-88766723D01*
X127659047Y-88766723D02*
X127706666Y-88576247D01*
X127706666Y-88576247D02*
X127706666Y-88195295D01*
X127706666Y-88195295D02*
X127659047Y-88100057D01*
X127659047Y-88100057D02*
X127611428Y-88052438D01*
X127611428Y-88052438D02*
X127516190Y-88004819D01*
X127516190Y-88004819D02*
X127325714Y-88004819D01*
X127325714Y-88004819D02*
X127230476Y-88052438D01*
X127230476Y-88052438D02*
X127182857Y-88100057D01*
X127182857Y-88100057D02*
X127135238Y-88195295D01*
X127135238Y-88195295D02*
X127135238Y-88433390D01*
X127135238Y-88433390D02*
X127182857Y-88528628D01*
X127182857Y-88528628D02*
X127230476Y-88576247D01*
X127230476Y-88576247D02*
X127325714Y-88623866D01*
X127325714Y-88623866D02*
X127516190Y-88623866D01*
X127516190Y-88623866D02*
X127611428Y-88576247D01*
X127611428Y-88576247D02*
X127659047Y-88528628D01*
X127659047Y-88528628D02*
X127706666Y-88433390D01*
X136458095Y-74774819D02*
X136458095Y-75584342D01*
X136458095Y-75584342D02*
X136505714Y-75679580D01*
X136505714Y-75679580D02*
X136553333Y-75727200D01*
X136553333Y-75727200D02*
X136648571Y-75774819D01*
X136648571Y-75774819D02*
X136839047Y-75774819D01*
X136839047Y-75774819D02*
X136934285Y-75727200D01*
X136934285Y-75727200D02*
X136981904Y-75679580D01*
X136981904Y-75679580D02*
X137029523Y-75584342D01*
X137029523Y-75584342D02*
X137029523Y-74774819D01*
X138029523Y-75774819D02*
X137458095Y-75774819D01*
X137743809Y-75774819D02*
X137743809Y-74774819D01*
X137743809Y-74774819D02*
X137648571Y-74917676D01*
X137648571Y-74917676D02*
X137553333Y-75012914D01*
X137553333Y-75012914D02*
X137458095Y-75060533D01*
X152023333Y-67764819D02*
X151690000Y-67288628D01*
X151451905Y-67764819D02*
X151451905Y-66764819D01*
X151451905Y-66764819D02*
X151832857Y-66764819D01*
X151832857Y-66764819D02*
X151928095Y-66812438D01*
X151928095Y-66812438D02*
X151975714Y-66860057D01*
X151975714Y-66860057D02*
X152023333Y-66955295D01*
X152023333Y-66955295D02*
X152023333Y-67098152D01*
X152023333Y-67098152D02*
X151975714Y-67193390D01*
X151975714Y-67193390D02*
X151928095Y-67241009D01*
X151928095Y-67241009D02*
X151832857Y-67288628D01*
X151832857Y-67288628D02*
X151451905Y-67288628D01*
X152404286Y-66860057D02*
X152451905Y-66812438D01*
X152451905Y-66812438D02*
X152547143Y-66764819D01*
X152547143Y-66764819D02*
X152785238Y-66764819D01*
X152785238Y-66764819D02*
X152880476Y-66812438D01*
X152880476Y-66812438D02*
X152928095Y-66860057D01*
X152928095Y-66860057D02*
X152975714Y-66955295D01*
X152975714Y-66955295D02*
X152975714Y-67050533D01*
X152975714Y-67050533D02*
X152928095Y-67193390D01*
X152928095Y-67193390D02*
X152356667Y-67764819D01*
X152356667Y-67764819D02*
X152975714Y-67764819D01*
X131656819Y-90165238D02*
X131180628Y-90498571D01*
X131656819Y-90736666D02*
X130656819Y-90736666D01*
X130656819Y-90736666D02*
X130656819Y-90355714D01*
X130656819Y-90355714D02*
X130704438Y-90260476D01*
X130704438Y-90260476D02*
X130752057Y-90212857D01*
X130752057Y-90212857D02*
X130847295Y-90165238D01*
X130847295Y-90165238D02*
X130990152Y-90165238D01*
X130990152Y-90165238D02*
X131085390Y-90212857D01*
X131085390Y-90212857D02*
X131133009Y-90260476D01*
X131133009Y-90260476D02*
X131180628Y-90355714D01*
X131180628Y-90355714D02*
X131180628Y-90736666D01*
X130656819Y-89879523D02*
X131656819Y-89546190D01*
X131656819Y-89546190D02*
X130656819Y-89212857D01*
X131656819Y-88355714D02*
X131656819Y-88927142D01*
X131656819Y-88641428D02*
X130656819Y-88641428D01*
X130656819Y-88641428D02*
X130799676Y-88736666D01*
X130799676Y-88736666D02*
X130894914Y-88831904D01*
X130894914Y-88831904D02*
X130942533Y-88927142D01*
X123577142Y-54574819D02*
X123243809Y-54098628D01*
X123005714Y-54574819D02*
X123005714Y-53574819D01*
X123005714Y-53574819D02*
X123386666Y-53574819D01*
X123386666Y-53574819D02*
X123481904Y-53622438D01*
X123481904Y-53622438D02*
X123529523Y-53670057D01*
X123529523Y-53670057D02*
X123577142Y-53765295D01*
X123577142Y-53765295D02*
X123577142Y-53908152D01*
X123577142Y-53908152D02*
X123529523Y-54003390D01*
X123529523Y-54003390D02*
X123481904Y-54051009D01*
X123481904Y-54051009D02*
X123386666Y-54098628D01*
X123386666Y-54098628D02*
X123005714Y-54098628D01*
X124529523Y-54574819D02*
X123958095Y-54574819D01*
X124243809Y-54574819D02*
X124243809Y-53574819D01*
X124243809Y-53574819D02*
X124148571Y-53717676D01*
X124148571Y-53717676D02*
X124053333Y-53812914D01*
X124053333Y-53812914D02*
X123958095Y-53860533D01*
X125386666Y-53574819D02*
X125196190Y-53574819D01*
X125196190Y-53574819D02*
X125100952Y-53622438D01*
X125100952Y-53622438D02*
X125053333Y-53670057D01*
X125053333Y-53670057D02*
X124958095Y-53812914D01*
X124958095Y-53812914D02*
X124910476Y-54003390D01*
X124910476Y-54003390D02*
X124910476Y-54384342D01*
X124910476Y-54384342D02*
X124958095Y-54479580D01*
X124958095Y-54479580D02*
X125005714Y-54527200D01*
X125005714Y-54527200D02*
X125100952Y-54574819D01*
X125100952Y-54574819D02*
X125291428Y-54574819D01*
X125291428Y-54574819D02*
X125386666Y-54527200D01*
X125386666Y-54527200D02*
X125434285Y-54479580D01*
X125434285Y-54479580D02*
X125481904Y-54384342D01*
X125481904Y-54384342D02*
X125481904Y-54146247D01*
X125481904Y-54146247D02*
X125434285Y-54051009D01*
X125434285Y-54051009D02*
X125386666Y-54003390D01*
X125386666Y-54003390D02*
X125291428Y-53955771D01*
X125291428Y-53955771D02*
X125100952Y-53955771D01*
X125100952Y-53955771D02*
X125005714Y-54003390D01*
X125005714Y-54003390D02*
X124958095Y-54051009D01*
X124958095Y-54051009D02*
X124910476Y-54146247D01*
X122011819Y-75192857D02*
X121535628Y-75526190D01*
X122011819Y-75764285D02*
X121011819Y-75764285D01*
X121011819Y-75764285D02*
X121011819Y-75383333D01*
X121011819Y-75383333D02*
X121059438Y-75288095D01*
X121059438Y-75288095D02*
X121107057Y-75240476D01*
X121107057Y-75240476D02*
X121202295Y-75192857D01*
X121202295Y-75192857D02*
X121345152Y-75192857D01*
X121345152Y-75192857D02*
X121440390Y-75240476D01*
X121440390Y-75240476D02*
X121488009Y-75288095D01*
X121488009Y-75288095D02*
X121535628Y-75383333D01*
X121535628Y-75383333D02*
X121535628Y-75764285D01*
X121107057Y-74811904D02*
X121059438Y-74764285D01*
X121059438Y-74764285D02*
X121011819Y-74669047D01*
X121011819Y-74669047D02*
X121011819Y-74430952D01*
X121011819Y-74430952D02*
X121059438Y-74335714D01*
X121059438Y-74335714D02*
X121107057Y-74288095D01*
X121107057Y-74288095D02*
X121202295Y-74240476D01*
X121202295Y-74240476D02*
X121297533Y-74240476D01*
X121297533Y-74240476D02*
X121440390Y-74288095D01*
X121440390Y-74288095D02*
X122011819Y-74859523D01*
X122011819Y-74859523D02*
X122011819Y-74240476D01*
X121011819Y-73335714D02*
X121011819Y-73811904D01*
X121011819Y-73811904D02*
X121488009Y-73859523D01*
X121488009Y-73859523D02*
X121440390Y-73811904D01*
X121440390Y-73811904D02*
X121392771Y-73716666D01*
X121392771Y-73716666D02*
X121392771Y-73478571D01*
X121392771Y-73478571D02*
X121440390Y-73383333D01*
X121440390Y-73383333D02*
X121488009Y-73335714D01*
X121488009Y-73335714D02*
X121583247Y-73288095D01*
X121583247Y-73288095D02*
X121821342Y-73288095D01*
X121821342Y-73288095D02*
X121916580Y-73335714D01*
X121916580Y-73335714D02*
X121964200Y-73383333D01*
X121964200Y-73383333D02*
X122011819Y-73478571D01*
X122011819Y-73478571D02*
X122011819Y-73716666D01*
X122011819Y-73716666D02*
X121964200Y-73811904D01*
X121964200Y-73811904D02*
X121916580Y-73859523D01*
X119457142Y-67784819D02*
X119123809Y-67308628D01*
X118885714Y-67784819D02*
X118885714Y-66784819D01*
X118885714Y-66784819D02*
X119266666Y-66784819D01*
X119266666Y-66784819D02*
X119361904Y-66832438D01*
X119361904Y-66832438D02*
X119409523Y-66880057D01*
X119409523Y-66880057D02*
X119457142Y-66975295D01*
X119457142Y-66975295D02*
X119457142Y-67118152D01*
X119457142Y-67118152D02*
X119409523Y-67213390D01*
X119409523Y-67213390D02*
X119361904Y-67261009D01*
X119361904Y-67261009D02*
X119266666Y-67308628D01*
X119266666Y-67308628D02*
X118885714Y-67308628D01*
X120409523Y-67784819D02*
X119838095Y-67784819D01*
X120123809Y-67784819D02*
X120123809Y-66784819D01*
X120123809Y-66784819D02*
X120028571Y-66927676D01*
X120028571Y-66927676D02*
X119933333Y-67022914D01*
X119933333Y-67022914D02*
X119838095Y-67070533D01*
X120742857Y-66784819D02*
X121409523Y-66784819D01*
X121409523Y-66784819D02*
X120980952Y-67784819D01*
X141634819Y-70802857D02*
X141158628Y-71136190D01*
X141634819Y-71374285D02*
X140634819Y-71374285D01*
X140634819Y-71374285D02*
X140634819Y-70993333D01*
X140634819Y-70993333D02*
X140682438Y-70898095D01*
X140682438Y-70898095D02*
X140730057Y-70850476D01*
X140730057Y-70850476D02*
X140825295Y-70802857D01*
X140825295Y-70802857D02*
X140968152Y-70802857D01*
X140968152Y-70802857D02*
X141063390Y-70850476D01*
X141063390Y-70850476D02*
X141111009Y-70898095D01*
X141111009Y-70898095D02*
X141158628Y-70993333D01*
X141158628Y-70993333D02*
X141158628Y-71374285D01*
X140730057Y-70421904D02*
X140682438Y-70374285D01*
X140682438Y-70374285D02*
X140634819Y-70279047D01*
X140634819Y-70279047D02*
X140634819Y-70040952D01*
X140634819Y-70040952D02*
X140682438Y-69945714D01*
X140682438Y-69945714D02*
X140730057Y-69898095D01*
X140730057Y-69898095D02*
X140825295Y-69850476D01*
X140825295Y-69850476D02*
X140920533Y-69850476D01*
X140920533Y-69850476D02*
X141063390Y-69898095D01*
X141063390Y-69898095D02*
X141634819Y-70469523D01*
X141634819Y-70469523D02*
X141634819Y-69850476D01*
X140634819Y-69517142D02*
X140634819Y-68850476D01*
X140634819Y-68850476D02*
X141634819Y-69279047D01*
X152033333Y-59604819D02*
X151700000Y-59128628D01*
X151461905Y-59604819D02*
X151461905Y-58604819D01*
X151461905Y-58604819D02*
X151842857Y-58604819D01*
X151842857Y-58604819D02*
X151938095Y-58652438D01*
X151938095Y-58652438D02*
X151985714Y-58700057D01*
X151985714Y-58700057D02*
X152033333Y-58795295D01*
X152033333Y-58795295D02*
X152033333Y-58938152D01*
X152033333Y-58938152D02*
X151985714Y-59033390D01*
X151985714Y-59033390D02*
X151938095Y-59081009D01*
X151938095Y-59081009D02*
X151842857Y-59128628D01*
X151842857Y-59128628D02*
X151461905Y-59128628D01*
X152985714Y-59604819D02*
X152414286Y-59604819D01*
X152700000Y-59604819D02*
X152700000Y-58604819D01*
X152700000Y-58604819D02*
X152604762Y-58747676D01*
X152604762Y-58747676D02*
X152509524Y-58842914D01*
X152509524Y-58842914D02*
X152414286Y-58890533D01*
X152940476Y-91874819D02*
X152940476Y-92589104D01*
X152940476Y-92589104D02*
X152892857Y-92731961D01*
X152892857Y-92731961D02*
X152797619Y-92827200D01*
X152797619Y-92827200D02*
X152654762Y-92874819D01*
X152654762Y-92874819D02*
X152559524Y-92874819D01*
X153940476Y-92874819D02*
X153369048Y-92874819D01*
X153654762Y-92874819D02*
X153654762Y-91874819D01*
X153654762Y-91874819D02*
X153559524Y-92017676D01*
X153559524Y-92017676D02*
X153464286Y-92112914D01*
X153464286Y-92112914D02*
X153369048Y-92160533D01*
X154321429Y-91970057D02*
X154369048Y-91922438D01*
X154369048Y-91922438D02*
X154464286Y-91874819D01*
X154464286Y-91874819D02*
X154702381Y-91874819D01*
X154702381Y-91874819D02*
X154797619Y-91922438D01*
X154797619Y-91922438D02*
X154845238Y-91970057D01*
X154845238Y-91970057D02*
X154892857Y-92065295D01*
X154892857Y-92065295D02*
X154892857Y-92160533D01*
X154892857Y-92160533D02*
X154845238Y-92303390D01*
X154845238Y-92303390D02*
X154273810Y-92874819D01*
X154273810Y-92874819D02*
X154892857Y-92874819D01*
X111527142Y-54704819D02*
X111193809Y-54228628D01*
X110955714Y-54704819D02*
X110955714Y-53704819D01*
X110955714Y-53704819D02*
X111336666Y-53704819D01*
X111336666Y-53704819D02*
X111431904Y-53752438D01*
X111431904Y-53752438D02*
X111479523Y-53800057D01*
X111479523Y-53800057D02*
X111527142Y-53895295D01*
X111527142Y-53895295D02*
X111527142Y-54038152D01*
X111527142Y-54038152D02*
X111479523Y-54133390D01*
X111479523Y-54133390D02*
X111431904Y-54181009D01*
X111431904Y-54181009D02*
X111336666Y-54228628D01*
X111336666Y-54228628D02*
X110955714Y-54228628D01*
X111908095Y-53800057D02*
X111955714Y-53752438D01*
X111955714Y-53752438D02*
X112050952Y-53704819D01*
X112050952Y-53704819D02*
X112289047Y-53704819D01*
X112289047Y-53704819D02*
X112384285Y-53752438D01*
X112384285Y-53752438D02*
X112431904Y-53800057D01*
X112431904Y-53800057D02*
X112479523Y-53895295D01*
X112479523Y-53895295D02*
X112479523Y-53990533D01*
X112479523Y-53990533D02*
X112431904Y-54133390D01*
X112431904Y-54133390D02*
X111860476Y-54704819D01*
X111860476Y-54704819D02*
X112479523Y-54704819D01*
X112860476Y-53800057D02*
X112908095Y-53752438D01*
X112908095Y-53752438D02*
X113003333Y-53704819D01*
X113003333Y-53704819D02*
X113241428Y-53704819D01*
X113241428Y-53704819D02*
X113336666Y-53752438D01*
X113336666Y-53752438D02*
X113384285Y-53800057D01*
X113384285Y-53800057D02*
X113431904Y-53895295D01*
X113431904Y-53895295D02*
X113431904Y-53990533D01*
X113431904Y-53990533D02*
X113384285Y-54133390D01*
X113384285Y-54133390D02*
X112812857Y-54704819D01*
X112812857Y-54704819D02*
X113431904Y-54704819D01*
X131627142Y-67674819D02*
X131293809Y-67198628D01*
X131055714Y-67674819D02*
X131055714Y-66674819D01*
X131055714Y-66674819D02*
X131436666Y-66674819D01*
X131436666Y-66674819D02*
X131531904Y-66722438D01*
X131531904Y-66722438D02*
X131579523Y-66770057D01*
X131579523Y-66770057D02*
X131627142Y-66865295D01*
X131627142Y-66865295D02*
X131627142Y-67008152D01*
X131627142Y-67008152D02*
X131579523Y-67103390D01*
X131579523Y-67103390D02*
X131531904Y-67151009D01*
X131531904Y-67151009D02*
X131436666Y-67198628D01*
X131436666Y-67198628D02*
X131055714Y-67198628D01*
X132579523Y-67674819D02*
X132008095Y-67674819D01*
X132293809Y-67674819D02*
X132293809Y-66674819D01*
X132293809Y-66674819D02*
X132198571Y-66817676D01*
X132198571Y-66817676D02*
X132103333Y-66912914D01*
X132103333Y-66912914D02*
X132008095Y-66960533D01*
X133531904Y-67674819D02*
X132960476Y-67674819D01*
X133246190Y-67674819D02*
X133246190Y-66674819D01*
X133246190Y-66674819D02*
X133150952Y-66817676D01*
X133150952Y-66817676D02*
X133055714Y-66912914D01*
X133055714Y-66912914D02*
X132960476Y-66960533D01*
X159126667Y-56027200D02*
X159269524Y-56074819D01*
X159269524Y-56074819D02*
X159507619Y-56074819D01*
X159507619Y-56074819D02*
X159602857Y-56027200D01*
X159602857Y-56027200D02*
X159650476Y-55979580D01*
X159650476Y-55979580D02*
X159698095Y-55884342D01*
X159698095Y-55884342D02*
X159698095Y-55789104D01*
X159698095Y-55789104D02*
X159650476Y-55693866D01*
X159650476Y-55693866D02*
X159602857Y-55646247D01*
X159602857Y-55646247D02*
X159507619Y-55598628D01*
X159507619Y-55598628D02*
X159317143Y-55551009D01*
X159317143Y-55551009D02*
X159221905Y-55503390D01*
X159221905Y-55503390D02*
X159174286Y-55455771D01*
X159174286Y-55455771D02*
X159126667Y-55360533D01*
X159126667Y-55360533D02*
X159126667Y-55265295D01*
X159126667Y-55265295D02*
X159174286Y-55170057D01*
X159174286Y-55170057D02*
X159221905Y-55122438D01*
X159221905Y-55122438D02*
X159317143Y-55074819D01*
X159317143Y-55074819D02*
X159555238Y-55074819D01*
X159555238Y-55074819D02*
X159698095Y-55122438D01*
X160031429Y-55074819D02*
X160269524Y-56074819D01*
X160269524Y-56074819D02*
X160460000Y-55360533D01*
X160460000Y-55360533D02*
X160650476Y-56074819D01*
X160650476Y-56074819D02*
X160888572Y-55074819D01*
X161793333Y-56074819D02*
X161221905Y-56074819D01*
X161507619Y-56074819D02*
X161507619Y-55074819D01*
X161507619Y-55074819D02*
X161412381Y-55217676D01*
X161412381Y-55217676D02*
X161317143Y-55312914D01*
X161317143Y-55312914D02*
X161221905Y-55360533D01*
X131647142Y-54544819D02*
X131313809Y-54068628D01*
X131075714Y-54544819D02*
X131075714Y-53544819D01*
X131075714Y-53544819D02*
X131456666Y-53544819D01*
X131456666Y-53544819D02*
X131551904Y-53592438D01*
X131551904Y-53592438D02*
X131599523Y-53640057D01*
X131599523Y-53640057D02*
X131647142Y-53735295D01*
X131647142Y-53735295D02*
X131647142Y-53878152D01*
X131647142Y-53878152D02*
X131599523Y-53973390D01*
X131599523Y-53973390D02*
X131551904Y-54021009D01*
X131551904Y-54021009D02*
X131456666Y-54068628D01*
X131456666Y-54068628D02*
X131075714Y-54068628D01*
X132599523Y-54544819D02*
X132028095Y-54544819D01*
X132313809Y-54544819D02*
X132313809Y-53544819D01*
X132313809Y-53544819D02*
X132218571Y-53687676D01*
X132218571Y-53687676D02*
X132123333Y-53782914D01*
X132123333Y-53782914D02*
X132028095Y-53830533D01*
X132980476Y-53640057D02*
X133028095Y-53592438D01*
X133028095Y-53592438D02*
X133123333Y-53544819D01*
X133123333Y-53544819D02*
X133361428Y-53544819D01*
X133361428Y-53544819D02*
X133456666Y-53592438D01*
X133456666Y-53592438D02*
X133504285Y-53640057D01*
X133504285Y-53640057D02*
X133551904Y-53735295D01*
X133551904Y-53735295D02*
X133551904Y-53830533D01*
X133551904Y-53830533D02*
X133504285Y-53973390D01*
X133504285Y-53973390D02*
X132932857Y-54544819D01*
X132932857Y-54544819D02*
X133551904Y-54544819D01*
X125717142Y-71954819D02*
X125383809Y-71478628D01*
X125145714Y-71954819D02*
X125145714Y-70954819D01*
X125145714Y-70954819D02*
X125526666Y-70954819D01*
X125526666Y-70954819D02*
X125621904Y-71002438D01*
X125621904Y-71002438D02*
X125669523Y-71050057D01*
X125669523Y-71050057D02*
X125717142Y-71145295D01*
X125717142Y-71145295D02*
X125717142Y-71288152D01*
X125717142Y-71288152D02*
X125669523Y-71383390D01*
X125669523Y-71383390D02*
X125621904Y-71431009D01*
X125621904Y-71431009D02*
X125526666Y-71478628D01*
X125526666Y-71478628D02*
X125145714Y-71478628D01*
X126098095Y-71050057D02*
X126145714Y-71002438D01*
X126145714Y-71002438D02*
X126240952Y-70954819D01*
X126240952Y-70954819D02*
X126479047Y-70954819D01*
X126479047Y-70954819D02*
X126574285Y-71002438D01*
X126574285Y-71002438D02*
X126621904Y-71050057D01*
X126621904Y-71050057D02*
X126669523Y-71145295D01*
X126669523Y-71145295D02*
X126669523Y-71240533D01*
X126669523Y-71240533D02*
X126621904Y-71383390D01*
X126621904Y-71383390D02*
X126050476Y-71954819D01*
X126050476Y-71954819D02*
X126669523Y-71954819D01*
X127526666Y-71288152D02*
X127526666Y-71954819D01*
X127288571Y-70907200D02*
X127050476Y-71621485D01*
X127050476Y-71621485D02*
X127669523Y-71621485D01*
X148362835Y-74387271D02*
X148410455Y-74434890D01*
X148410455Y-74434890D02*
X148458074Y-74577747D01*
X148458074Y-74577747D02*
X148458074Y-74672985D01*
X148458074Y-74672985D02*
X148410455Y-74815842D01*
X148410455Y-74815842D02*
X148315216Y-74911080D01*
X148315216Y-74911080D02*
X148219978Y-74958699D01*
X148219978Y-74958699D02*
X148029502Y-75006318D01*
X148029502Y-75006318D02*
X147886645Y-75006318D01*
X147886645Y-75006318D02*
X147696169Y-74958699D01*
X147696169Y-74958699D02*
X147600931Y-74911080D01*
X147600931Y-74911080D02*
X147505693Y-74815842D01*
X147505693Y-74815842D02*
X147458074Y-74672985D01*
X147458074Y-74672985D02*
X147458074Y-74577747D01*
X147458074Y-74577747D02*
X147505693Y-74434890D01*
X147505693Y-74434890D02*
X147553312Y-74387271D01*
X148458074Y-73434890D02*
X148458074Y-74006318D01*
X148458074Y-73720604D02*
X147458074Y-73720604D01*
X147458074Y-73720604D02*
X147600931Y-73815842D01*
X147600931Y-73815842D02*
X147696169Y-73911080D01*
X147696169Y-73911080D02*
X147743788Y-74006318D01*
X144143333Y-67734819D02*
X143810000Y-67258628D01*
X143571905Y-67734819D02*
X143571905Y-66734819D01*
X143571905Y-66734819D02*
X143952857Y-66734819D01*
X143952857Y-66734819D02*
X144048095Y-66782438D01*
X144048095Y-66782438D02*
X144095714Y-66830057D01*
X144095714Y-66830057D02*
X144143333Y-66925295D01*
X144143333Y-66925295D02*
X144143333Y-67068152D01*
X144143333Y-67068152D02*
X144095714Y-67163390D01*
X144095714Y-67163390D02*
X144048095Y-67211009D01*
X144048095Y-67211009D02*
X143952857Y-67258628D01*
X143952857Y-67258628D02*
X143571905Y-67258628D01*
X145048095Y-66734819D02*
X144571905Y-66734819D01*
X144571905Y-66734819D02*
X144524286Y-67211009D01*
X144524286Y-67211009D02*
X144571905Y-67163390D01*
X144571905Y-67163390D02*
X144667143Y-67115771D01*
X144667143Y-67115771D02*
X144905238Y-67115771D01*
X144905238Y-67115771D02*
X145000476Y-67163390D01*
X145000476Y-67163390D02*
X145048095Y-67211009D01*
X145048095Y-67211009D02*
X145095714Y-67306247D01*
X145095714Y-67306247D02*
X145095714Y-67544342D01*
X145095714Y-67544342D02*
X145048095Y-67639580D01*
X145048095Y-67639580D02*
X145000476Y-67687200D01*
X145000476Y-67687200D02*
X144905238Y-67734819D01*
X144905238Y-67734819D02*
X144667143Y-67734819D01*
X144667143Y-67734819D02*
X144571905Y-67687200D01*
X144571905Y-67687200D02*
X144524286Y-67639580D01*
X116784819Y-91432857D02*
X116308628Y-91766190D01*
X116784819Y-92004285D02*
X115784819Y-92004285D01*
X115784819Y-92004285D02*
X115784819Y-91623333D01*
X115784819Y-91623333D02*
X115832438Y-91528095D01*
X115832438Y-91528095D02*
X115880057Y-91480476D01*
X115880057Y-91480476D02*
X115975295Y-91432857D01*
X115975295Y-91432857D02*
X116118152Y-91432857D01*
X116118152Y-91432857D02*
X116213390Y-91480476D01*
X116213390Y-91480476D02*
X116261009Y-91528095D01*
X116261009Y-91528095D02*
X116308628Y-91623333D01*
X116308628Y-91623333D02*
X116308628Y-92004285D01*
X115880057Y-91051904D02*
X115832438Y-91004285D01*
X115832438Y-91004285D02*
X115784819Y-90909047D01*
X115784819Y-90909047D02*
X115784819Y-90670952D01*
X115784819Y-90670952D02*
X115832438Y-90575714D01*
X115832438Y-90575714D02*
X115880057Y-90528095D01*
X115880057Y-90528095D02*
X115975295Y-90480476D01*
X115975295Y-90480476D02*
X116070533Y-90480476D01*
X116070533Y-90480476D02*
X116213390Y-90528095D01*
X116213390Y-90528095D02*
X116784819Y-91099523D01*
X116784819Y-91099523D02*
X116784819Y-90480476D01*
X115784819Y-89623333D02*
X115784819Y-89813809D01*
X115784819Y-89813809D02*
X115832438Y-89909047D01*
X115832438Y-89909047D02*
X115880057Y-89956666D01*
X115880057Y-89956666D02*
X116022914Y-90051904D01*
X116022914Y-90051904D02*
X116213390Y-90099523D01*
X116213390Y-90099523D02*
X116594342Y-90099523D01*
X116594342Y-90099523D02*
X116689580Y-90051904D01*
X116689580Y-90051904D02*
X116737200Y-90004285D01*
X116737200Y-90004285D02*
X116784819Y-89909047D01*
X116784819Y-89909047D02*
X116784819Y-89718571D01*
X116784819Y-89718571D02*
X116737200Y-89623333D01*
X116737200Y-89623333D02*
X116689580Y-89575714D01*
X116689580Y-89575714D02*
X116594342Y-89528095D01*
X116594342Y-89528095D02*
X116356247Y-89528095D01*
X116356247Y-89528095D02*
X116261009Y-89575714D01*
X116261009Y-89575714D02*
X116213390Y-89623333D01*
X116213390Y-89623333D02*
X116165771Y-89718571D01*
X116165771Y-89718571D02*
X116165771Y-89909047D01*
X116165771Y-89909047D02*
X116213390Y-90004285D01*
X116213390Y-90004285D02*
X116261009Y-90051904D01*
X116261009Y-90051904D02*
X116356247Y-90099523D01*
X87103666Y-56779819D02*
X87103666Y-57494104D01*
X87103666Y-57494104D02*
X87056047Y-57636961D01*
X87056047Y-57636961D02*
X86960809Y-57732200D01*
X86960809Y-57732200D02*
X86817952Y-57779819D01*
X86817952Y-57779819D02*
X86722714Y-57779819D01*
X88056047Y-56779819D02*
X87579857Y-56779819D01*
X87579857Y-56779819D02*
X87532238Y-57256009D01*
X87532238Y-57256009D02*
X87579857Y-57208390D01*
X87579857Y-57208390D02*
X87675095Y-57160771D01*
X87675095Y-57160771D02*
X87913190Y-57160771D01*
X87913190Y-57160771D02*
X88008428Y-57208390D01*
X88008428Y-57208390D02*
X88056047Y-57256009D01*
X88056047Y-57256009D02*
X88103666Y-57351247D01*
X88103666Y-57351247D02*
X88103666Y-57589342D01*
X88103666Y-57589342D02*
X88056047Y-57684580D01*
X88056047Y-57684580D02*
X88008428Y-57732200D01*
X88008428Y-57732200D02*
X87913190Y-57779819D01*
X87913190Y-57779819D02*
X87675095Y-57779819D01*
X87675095Y-57779819D02*
X87579857Y-57732200D01*
X87579857Y-57732200D02*
X87532238Y-57684580D01*
X135857142Y-54674819D02*
X135523809Y-54198628D01*
X135285714Y-54674819D02*
X135285714Y-53674819D01*
X135285714Y-53674819D02*
X135666666Y-53674819D01*
X135666666Y-53674819D02*
X135761904Y-53722438D01*
X135761904Y-53722438D02*
X135809523Y-53770057D01*
X135809523Y-53770057D02*
X135857142Y-53865295D01*
X135857142Y-53865295D02*
X135857142Y-54008152D01*
X135857142Y-54008152D02*
X135809523Y-54103390D01*
X135809523Y-54103390D02*
X135761904Y-54151009D01*
X135761904Y-54151009D02*
X135666666Y-54198628D01*
X135666666Y-54198628D02*
X135285714Y-54198628D01*
X136809523Y-54674819D02*
X136238095Y-54674819D01*
X136523809Y-54674819D02*
X136523809Y-53674819D01*
X136523809Y-53674819D02*
X136428571Y-53817676D01*
X136428571Y-53817676D02*
X136333333Y-53912914D01*
X136333333Y-53912914D02*
X136238095Y-53960533D01*
X137428571Y-53674819D02*
X137523809Y-53674819D01*
X137523809Y-53674819D02*
X137619047Y-53722438D01*
X137619047Y-53722438D02*
X137666666Y-53770057D01*
X137666666Y-53770057D02*
X137714285Y-53865295D01*
X137714285Y-53865295D02*
X137761904Y-54055771D01*
X137761904Y-54055771D02*
X137761904Y-54293866D01*
X137761904Y-54293866D02*
X137714285Y-54484342D01*
X137714285Y-54484342D02*
X137666666Y-54579580D01*
X137666666Y-54579580D02*
X137619047Y-54627200D01*
X137619047Y-54627200D02*
X137523809Y-54674819D01*
X137523809Y-54674819D02*
X137428571Y-54674819D01*
X137428571Y-54674819D02*
X137333333Y-54627200D01*
X137333333Y-54627200D02*
X137285714Y-54579580D01*
X137285714Y-54579580D02*
X137238095Y-54484342D01*
X137238095Y-54484342D02*
X137190476Y-54293866D01*
X137190476Y-54293866D02*
X137190476Y-54055771D01*
X137190476Y-54055771D02*
X137238095Y-53865295D01*
X137238095Y-53865295D02*
X137285714Y-53770057D01*
X137285714Y-53770057D02*
X137333333Y-53722438D01*
X137333333Y-53722438D02*
X137428571Y-53674819D01*
X150053666Y-70679819D02*
X150053666Y-71394104D01*
X150053666Y-71394104D02*
X150006047Y-71536961D01*
X150006047Y-71536961D02*
X149910809Y-71632200D01*
X149910809Y-71632200D02*
X149767952Y-71679819D01*
X149767952Y-71679819D02*
X149672714Y-71679819D01*
X150434619Y-70679819D02*
X151101285Y-70679819D01*
X151101285Y-70679819D02*
X150672714Y-71679819D01*
X144143333Y-54834819D02*
X143810000Y-54358628D01*
X143571905Y-54834819D02*
X143571905Y-53834819D01*
X143571905Y-53834819D02*
X143952857Y-53834819D01*
X143952857Y-53834819D02*
X144048095Y-53882438D01*
X144048095Y-53882438D02*
X144095714Y-53930057D01*
X144095714Y-53930057D02*
X144143333Y-54025295D01*
X144143333Y-54025295D02*
X144143333Y-54168152D01*
X144143333Y-54168152D02*
X144095714Y-54263390D01*
X144095714Y-54263390D02*
X144048095Y-54311009D01*
X144048095Y-54311009D02*
X143952857Y-54358628D01*
X143952857Y-54358628D02*
X143571905Y-54358628D01*
X145000476Y-53834819D02*
X144810000Y-53834819D01*
X144810000Y-53834819D02*
X144714762Y-53882438D01*
X144714762Y-53882438D02*
X144667143Y-53930057D01*
X144667143Y-53930057D02*
X144571905Y-54072914D01*
X144571905Y-54072914D02*
X144524286Y-54263390D01*
X144524286Y-54263390D02*
X144524286Y-54644342D01*
X144524286Y-54644342D02*
X144571905Y-54739580D01*
X144571905Y-54739580D02*
X144619524Y-54787200D01*
X144619524Y-54787200D02*
X144714762Y-54834819D01*
X144714762Y-54834819D02*
X144905238Y-54834819D01*
X144905238Y-54834819D02*
X145000476Y-54787200D01*
X145000476Y-54787200D02*
X145048095Y-54739580D01*
X145048095Y-54739580D02*
X145095714Y-54644342D01*
X145095714Y-54644342D02*
X145095714Y-54406247D01*
X145095714Y-54406247D02*
X145048095Y-54311009D01*
X145048095Y-54311009D02*
X145000476Y-54263390D01*
X145000476Y-54263390D02*
X144905238Y-54215771D01*
X144905238Y-54215771D02*
X144714762Y-54215771D01*
X144714762Y-54215771D02*
X144619524Y-54263390D01*
X144619524Y-54263390D02*
X144571905Y-54311009D01*
X144571905Y-54311009D02*
X144524286Y-54406247D01*
X115537142Y-54684819D02*
X115203809Y-54208628D01*
X114965714Y-54684819D02*
X114965714Y-53684819D01*
X114965714Y-53684819D02*
X115346666Y-53684819D01*
X115346666Y-53684819D02*
X115441904Y-53732438D01*
X115441904Y-53732438D02*
X115489523Y-53780057D01*
X115489523Y-53780057D02*
X115537142Y-53875295D01*
X115537142Y-53875295D02*
X115537142Y-54018152D01*
X115537142Y-54018152D02*
X115489523Y-54113390D01*
X115489523Y-54113390D02*
X115441904Y-54161009D01*
X115441904Y-54161009D02*
X115346666Y-54208628D01*
X115346666Y-54208628D02*
X114965714Y-54208628D01*
X115918095Y-53780057D02*
X115965714Y-53732438D01*
X115965714Y-53732438D02*
X116060952Y-53684819D01*
X116060952Y-53684819D02*
X116299047Y-53684819D01*
X116299047Y-53684819D02*
X116394285Y-53732438D01*
X116394285Y-53732438D02*
X116441904Y-53780057D01*
X116441904Y-53780057D02*
X116489523Y-53875295D01*
X116489523Y-53875295D02*
X116489523Y-53970533D01*
X116489523Y-53970533D02*
X116441904Y-54113390D01*
X116441904Y-54113390D02*
X115870476Y-54684819D01*
X115870476Y-54684819D02*
X116489523Y-54684819D01*
X117108571Y-53684819D02*
X117203809Y-53684819D01*
X117203809Y-53684819D02*
X117299047Y-53732438D01*
X117299047Y-53732438D02*
X117346666Y-53780057D01*
X117346666Y-53780057D02*
X117394285Y-53875295D01*
X117394285Y-53875295D02*
X117441904Y-54065771D01*
X117441904Y-54065771D02*
X117441904Y-54303866D01*
X117441904Y-54303866D02*
X117394285Y-54494342D01*
X117394285Y-54494342D02*
X117346666Y-54589580D01*
X117346666Y-54589580D02*
X117299047Y-54637200D01*
X117299047Y-54637200D02*
X117203809Y-54684819D01*
X117203809Y-54684819D02*
X117108571Y-54684819D01*
X117108571Y-54684819D02*
X117013333Y-54637200D01*
X117013333Y-54637200D02*
X116965714Y-54589580D01*
X116965714Y-54589580D02*
X116918095Y-54494342D01*
X116918095Y-54494342D02*
X116870476Y-54303866D01*
X116870476Y-54303866D02*
X116870476Y-54065771D01*
X116870476Y-54065771D02*
X116918095Y-53875295D01*
X116918095Y-53875295D02*
X116965714Y-53780057D01*
X116965714Y-53780057D02*
X117013333Y-53732438D01*
X117013333Y-53732438D02*
X117108571Y-53684819D01*
X159126667Y-64207200D02*
X159269524Y-64254819D01*
X159269524Y-64254819D02*
X159507619Y-64254819D01*
X159507619Y-64254819D02*
X159602857Y-64207200D01*
X159602857Y-64207200D02*
X159650476Y-64159580D01*
X159650476Y-64159580D02*
X159698095Y-64064342D01*
X159698095Y-64064342D02*
X159698095Y-63969104D01*
X159698095Y-63969104D02*
X159650476Y-63873866D01*
X159650476Y-63873866D02*
X159602857Y-63826247D01*
X159602857Y-63826247D02*
X159507619Y-63778628D01*
X159507619Y-63778628D02*
X159317143Y-63731009D01*
X159317143Y-63731009D02*
X159221905Y-63683390D01*
X159221905Y-63683390D02*
X159174286Y-63635771D01*
X159174286Y-63635771D02*
X159126667Y-63540533D01*
X159126667Y-63540533D02*
X159126667Y-63445295D01*
X159126667Y-63445295D02*
X159174286Y-63350057D01*
X159174286Y-63350057D02*
X159221905Y-63302438D01*
X159221905Y-63302438D02*
X159317143Y-63254819D01*
X159317143Y-63254819D02*
X159555238Y-63254819D01*
X159555238Y-63254819D02*
X159698095Y-63302438D01*
X160031429Y-63254819D02*
X160269524Y-64254819D01*
X160269524Y-64254819D02*
X160460000Y-63540533D01*
X160460000Y-63540533D02*
X160650476Y-64254819D01*
X160650476Y-64254819D02*
X160888572Y-63254819D01*
X161221905Y-63350057D02*
X161269524Y-63302438D01*
X161269524Y-63302438D02*
X161364762Y-63254819D01*
X161364762Y-63254819D02*
X161602857Y-63254819D01*
X161602857Y-63254819D02*
X161698095Y-63302438D01*
X161698095Y-63302438D02*
X161745714Y-63350057D01*
X161745714Y-63350057D02*
X161793333Y-63445295D01*
X161793333Y-63445295D02*
X161793333Y-63540533D01*
X161793333Y-63540533D02*
X161745714Y-63683390D01*
X161745714Y-63683390D02*
X161174286Y-64254819D01*
X161174286Y-64254819D02*
X161793333Y-64254819D01*
X111547142Y-67874819D02*
X111213809Y-67398628D01*
X110975714Y-67874819D02*
X110975714Y-66874819D01*
X110975714Y-66874819D02*
X111356666Y-66874819D01*
X111356666Y-66874819D02*
X111451904Y-66922438D01*
X111451904Y-66922438D02*
X111499523Y-66970057D01*
X111499523Y-66970057D02*
X111547142Y-67065295D01*
X111547142Y-67065295D02*
X111547142Y-67208152D01*
X111547142Y-67208152D02*
X111499523Y-67303390D01*
X111499523Y-67303390D02*
X111451904Y-67351009D01*
X111451904Y-67351009D02*
X111356666Y-67398628D01*
X111356666Y-67398628D02*
X110975714Y-67398628D01*
X111928095Y-66970057D02*
X111975714Y-66922438D01*
X111975714Y-66922438D02*
X112070952Y-66874819D01*
X112070952Y-66874819D02*
X112309047Y-66874819D01*
X112309047Y-66874819D02*
X112404285Y-66922438D01*
X112404285Y-66922438D02*
X112451904Y-66970057D01*
X112451904Y-66970057D02*
X112499523Y-67065295D01*
X112499523Y-67065295D02*
X112499523Y-67160533D01*
X112499523Y-67160533D02*
X112451904Y-67303390D01*
X112451904Y-67303390D02*
X111880476Y-67874819D01*
X111880476Y-67874819D02*
X112499523Y-67874819D01*
X113451904Y-67874819D02*
X112880476Y-67874819D01*
X113166190Y-67874819D02*
X113166190Y-66874819D01*
X113166190Y-66874819D02*
X113070952Y-67017676D01*
X113070952Y-67017676D02*
X112975714Y-67112914D01*
X112975714Y-67112914D02*
X112880476Y-67160533D01*
X140363333Y-67784819D02*
X140030000Y-67308628D01*
X139791905Y-67784819D02*
X139791905Y-66784819D01*
X139791905Y-66784819D02*
X140172857Y-66784819D01*
X140172857Y-66784819D02*
X140268095Y-66832438D01*
X140268095Y-66832438D02*
X140315714Y-66880057D01*
X140315714Y-66880057D02*
X140363333Y-66975295D01*
X140363333Y-66975295D02*
X140363333Y-67118152D01*
X140363333Y-67118152D02*
X140315714Y-67213390D01*
X140315714Y-67213390D02*
X140268095Y-67261009D01*
X140268095Y-67261009D02*
X140172857Y-67308628D01*
X140172857Y-67308628D02*
X139791905Y-67308628D01*
X140696667Y-66784819D02*
X141363333Y-66784819D01*
X141363333Y-66784819D02*
X140934762Y-67784819D01*
X129723333Y-72149580D02*
X129675714Y-72197200D01*
X129675714Y-72197200D02*
X129532857Y-72244819D01*
X129532857Y-72244819D02*
X129437619Y-72244819D01*
X129437619Y-72244819D02*
X129294762Y-72197200D01*
X129294762Y-72197200D02*
X129199524Y-72101961D01*
X129199524Y-72101961D02*
X129151905Y-72006723D01*
X129151905Y-72006723D02*
X129104286Y-71816247D01*
X129104286Y-71816247D02*
X129104286Y-71673390D01*
X129104286Y-71673390D02*
X129151905Y-71482914D01*
X129151905Y-71482914D02*
X129199524Y-71387676D01*
X129199524Y-71387676D02*
X129294762Y-71292438D01*
X129294762Y-71292438D02*
X129437619Y-71244819D01*
X129437619Y-71244819D02*
X129532857Y-71244819D01*
X129532857Y-71244819D02*
X129675714Y-71292438D01*
X129675714Y-71292438D02*
X129723333Y-71340057D01*
X130104286Y-71340057D02*
X130151905Y-71292438D01*
X130151905Y-71292438D02*
X130247143Y-71244819D01*
X130247143Y-71244819D02*
X130485238Y-71244819D01*
X130485238Y-71244819D02*
X130580476Y-71292438D01*
X130580476Y-71292438D02*
X130628095Y-71340057D01*
X130628095Y-71340057D02*
X130675714Y-71435295D01*
X130675714Y-71435295D02*
X130675714Y-71530533D01*
X130675714Y-71530533D02*
X130628095Y-71673390D01*
X130628095Y-71673390D02*
X130056667Y-72244819D01*
X130056667Y-72244819D02*
X130675714Y-72244819D01*
X115517142Y-67874819D02*
X115183809Y-67398628D01*
X114945714Y-67874819D02*
X114945714Y-66874819D01*
X114945714Y-66874819D02*
X115326666Y-66874819D01*
X115326666Y-66874819D02*
X115421904Y-66922438D01*
X115421904Y-66922438D02*
X115469523Y-66970057D01*
X115469523Y-66970057D02*
X115517142Y-67065295D01*
X115517142Y-67065295D02*
X115517142Y-67208152D01*
X115517142Y-67208152D02*
X115469523Y-67303390D01*
X115469523Y-67303390D02*
X115421904Y-67351009D01*
X115421904Y-67351009D02*
X115326666Y-67398628D01*
X115326666Y-67398628D02*
X114945714Y-67398628D01*
X116469523Y-67874819D02*
X115898095Y-67874819D01*
X116183809Y-67874819D02*
X116183809Y-66874819D01*
X116183809Y-66874819D02*
X116088571Y-67017676D01*
X116088571Y-67017676D02*
X115993333Y-67112914D01*
X115993333Y-67112914D02*
X115898095Y-67160533D01*
X116945714Y-67874819D02*
X117136190Y-67874819D01*
X117136190Y-67874819D02*
X117231428Y-67827200D01*
X117231428Y-67827200D02*
X117279047Y-67779580D01*
X117279047Y-67779580D02*
X117374285Y-67636723D01*
X117374285Y-67636723D02*
X117421904Y-67446247D01*
X117421904Y-67446247D02*
X117421904Y-67065295D01*
X117421904Y-67065295D02*
X117374285Y-66970057D01*
X117374285Y-66970057D02*
X117326666Y-66922438D01*
X117326666Y-66922438D02*
X117231428Y-66874819D01*
X117231428Y-66874819D02*
X117040952Y-66874819D01*
X117040952Y-66874819D02*
X116945714Y-66922438D01*
X116945714Y-66922438D02*
X116898095Y-66970057D01*
X116898095Y-66970057D02*
X116850476Y-67065295D01*
X116850476Y-67065295D02*
X116850476Y-67303390D01*
X116850476Y-67303390D02*
X116898095Y-67398628D01*
X116898095Y-67398628D02*
X116945714Y-67446247D01*
X116945714Y-67446247D02*
X117040952Y-67493866D01*
X117040952Y-67493866D02*
X117231428Y-67493866D01*
X117231428Y-67493866D02*
X117326666Y-67446247D01*
X117326666Y-67446247D02*
X117374285Y-67398628D01*
X117374285Y-67398628D02*
X117421904Y-67303390D01*
X123427142Y-67784819D02*
X123093809Y-67308628D01*
X122855714Y-67784819D02*
X122855714Y-66784819D01*
X122855714Y-66784819D02*
X123236666Y-66784819D01*
X123236666Y-66784819D02*
X123331904Y-66832438D01*
X123331904Y-66832438D02*
X123379523Y-66880057D01*
X123379523Y-66880057D02*
X123427142Y-66975295D01*
X123427142Y-66975295D02*
X123427142Y-67118152D01*
X123427142Y-67118152D02*
X123379523Y-67213390D01*
X123379523Y-67213390D02*
X123331904Y-67261009D01*
X123331904Y-67261009D02*
X123236666Y-67308628D01*
X123236666Y-67308628D02*
X122855714Y-67308628D01*
X124379523Y-67784819D02*
X123808095Y-67784819D01*
X124093809Y-67784819D02*
X124093809Y-66784819D01*
X124093809Y-66784819D02*
X123998571Y-66927676D01*
X123998571Y-66927676D02*
X123903333Y-67022914D01*
X123903333Y-67022914D02*
X123808095Y-67070533D01*
X125284285Y-66784819D02*
X124808095Y-66784819D01*
X124808095Y-66784819D02*
X124760476Y-67261009D01*
X124760476Y-67261009D02*
X124808095Y-67213390D01*
X124808095Y-67213390D02*
X124903333Y-67165771D01*
X124903333Y-67165771D02*
X125141428Y-67165771D01*
X125141428Y-67165771D02*
X125236666Y-67213390D01*
X125236666Y-67213390D02*
X125284285Y-67261009D01*
X125284285Y-67261009D02*
X125331904Y-67356247D01*
X125331904Y-67356247D02*
X125331904Y-67594342D01*
X125331904Y-67594342D02*
X125284285Y-67689580D01*
X125284285Y-67689580D02*
X125236666Y-67737200D01*
X125236666Y-67737200D02*
X125141428Y-67784819D01*
X125141428Y-67784819D02*
X124903333Y-67784819D01*
X124903333Y-67784819D02*
X124808095Y-67737200D01*
X124808095Y-67737200D02*
X124760476Y-67689580D01*
X148183333Y-54764819D02*
X147850000Y-54288628D01*
X147611905Y-54764819D02*
X147611905Y-53764819D01*
X147611905Y-53764819D02*
X147992857Y-53764819D01*
X147992857Y-53764819D02*
X148088095Y-53812438D01*
X148088095Y-53812438D02*
X148135714Y-53860057D01*
X148135714Y-53860057D02*
X148183333Y-53955295D01*
X148183333Y-53955295D02*
X148183333Y-54098152D01*
X148183333Y-54098152D02*
X148135714Y-54193390D01*
X148135714Y-54193390D02*
X148088095Y-54241009D01*
X148088095Y-54241009D02*
X147992857Y-54288628D01*
X147992857Y-54288628D02*
X147611905Y-54288628D01*
X149040476Y-54098152D02*
X149040476Y-54764819D01*
X148802381Y-53717200D02*
X148564286Y-54431485D01*
X148564286Y-54431485D02*
X149183333Y-54431485D01*
X119647142Y-54764819D02*
X119313809Y-54288628D01*
X119075714Y-54764819D02*
X119075714Y-53764819D01*
X119075714Y-53764819D02*
X119456666Y-53764819D01*
X119456666Y-53764819D02*
X119551904Y-53812438D01*
X119551904Y-53812438D02*
X119599523Y-53860057D01*
X119599523Y-53860057D02*
X119647142Y-53955295D01*
X119647142Y-53955295D02*
X119647142Y-54098152D01*
X119647142Y-54098152D02*
X119599523Y-54193390D01*
X119599523Y-54193390D02*
X119551904Y-54241009D01*
X119551904Y-54241009D02*
X119456666Y-54288628D01*
X119456666Y-54288628D02*
X119075714Y-54288628D01*
X120599523Y-54764819D02*
X120028095Y-54764819D01*
X120313809Y-54764819D02*
X120313809Y-53764819D01*
X120313809Y-53764819D02*
X120218571Y-53907676D01*
X120218571Y-53907676D02*
X120123333Y-54002914D01*
X120123333Y-54002914D02*
X120028095Y-54050533D01*
X121170952Y-54193390D02*
X121075714Y-54145771D01*
X121075714Y-54145771D02*
X121028095Y-54098152D01*
X121028095Y-54098152D02*
X120980476Y-54002914D01*
X120980476Y-54002914D02*
X120980476Y-53955295D01*
X120980476Y-53955295D02*
X121028095Y-53860057D01*
X121028095Y-53860057D02*
X121075714Y-53812438D01*
X121075714Y-53812438D02*
X121170952Y-53764819D01*
X121170952Y-53764819D02*
X121361428Y-53764819D01*
X121361428Y-53764819D02*
X121456666Y-53812438D01*
X121456666Y-53812438D02*
X121504285Y-53860057D01*
X121504285Y-53860057D02*
X121551904Y-53955295D01*
X121551904Y-53955295D02*
X121551904Y-54002914D01*
X121551904Y-54002914D02*
X121504285Y-54098152D01*
X121504285Y-54098152D02*
X121456666Y-54145771D01*
X121456666Y-54145771D02*
X121361428Y-54193390D01*
X121361428Y-54193390D02*
X121170952Y-54193390D01*
X121170952Y-54193390D02*
X121075714Y-54241009D01*
X121075714Y-54241009D02*
X121028095Y-54288628D01*
X121028095Y-54288628D02*
X120980476Y-54383866D01*
X120980476Y-54383866D02*
X120980476Y-54574342D01*
X120980476Y-54574342D02*
X121028095Y-54669580D01*
X121028095Y-54669580D02*
X121075714Y-54717200D01*
X121075714Y-54717200D02*
X121170952Y-54764819D01*
X121170952Y-54764819D02*
X121361428Y-54764819D01*
X121361428Y-54764819D02*
X121456666Y-54717200D01*
X121456666Y-54717200D02*
X121504285Y-54669580D01*
X121504285Y-54669580D02*
X121551904Y-54574342D01*
X121551904Y-54574342D02*
X121551904Y-54383866D01*
X121551904Y-54383866D02*
X121504285Y-54288628D01*
X121504285Y-54288628D02*
X121456666Y-54241009D01*
X121456666Y-54241009D02*
X121361428Y-54193390D01*
X127487142Y-54744819D02*
X127153809Y-54268628D01*
X126915714Y-54744819D02*
X126915714Y-53744819D01*
X126915714Y-53744819D02*
X127296666Y-53744819D01*
X127296666Y-53744819D02*
X127391904Y-53792438D01*
X127391904Y-53792438D02*
X127439523Y-53840057D01*
X127439523Y-53840057D02*
X127487142Y-53935295D01*
X127487142Y-53935295D02*
X127487142Y-54078152D01*
X127487142Y-54078152D02*
X127439523Y-54173390D01*
X127439523Y-54173390D02*
X127391904Y-54221009D01*
X127391904Y-54221009D02*
X127296666Y-54268628D01*
X127296666Y-54268628D02*
X126915714Y-54268628D01*
X128439523Y-54744819D02*
X127868095Y-54744819D01*
X128153809Y-54744819D02*
X128153809Y-53744819D01*
X128153809Y-53744819D02*
X128058571Y-53887676D01*
X128058571Y-53887676D02*
X127963333Y-53982914D01*
X127963333Y-53982914D02*
X127868095Y-54030533D01*
X129296666Y-54078152D02*
X129296666Y-54744819D01*
X129058571Y-53697200D02*
X128820476Y-54411485D01*
X128820476Y-54411485D02*
X129439523Y-54411485D01*
X127487142Y-67714819D02*
X127153809Y-67238628D01*
X126915714Y-67714819D02*
X126915714Y-66714819D01*
X126915714Y-66714819D02*
X127296666Y-66714819D01*
X127296666Y-66714819D02*
X127391904Y-66762438D01*
X127391904Y-66762438D02*
X127439523Y-66810057D01*
X127439523Y-66810057D02*
X127487142Y-66905295D01*
X127487142Y-66905295D02*
X127487142Y-67048152D01*
X127487142Y-67048152D02*
X127439523Y-67143390D01*
X127439523Y-67143390D02*
X127391904Y-67191009D01*
X127391904Y-67191009D02*
X127296666Y-67238628D01*
X127296666Y-67238628D02*
X126915714Y-67238628D01*
X128439523Y-67714819D02*
X127868095Y-67714819D01*
X128153809Y-67714819D02*
X128153809Y-66714819D01*
X128153809Y-66714819D02*
X128058571Y-66857676D01*
X128058571Y-66857676D02*
X127963333Y-66952914D01*
X127963333Y-66952914D02*
X127868095Y-67000533D01*
X128772857Y-66714819D02*
X129391904Y-66714819D01*
X129391904Y-66714819D02*
X129058571Y-67095771D01*
X129058571Y-67095771D02*
X129201428Y-67095771D01*
X129201428Y-67095771D02*
X129296666Y-67143390D01*
X129296666Y-67143390D02*
X129344285Y-67191009D01*
X129344285Y-67191009D02*
X129391904Y-67286247D01*
X129391904Y-67286247D02*
X129391904Y-67524342D01*
X129391904Y-67524342D02*
X129344285Y-67619580D01*
X129344285Y-67619580D02*
X129296666Y-67667200D01*
X129296666Y-67667200D02*
X129201428Y-67714819D01*
X129201428Y-67714819D02*
X128915714Y-67714819D01*
X128915714Y-67714819D02*
X128820476Y-67667200D01*
X128820476Y-67667200D02*
X128772857Y-67619580D01*
X136513333Y-67784819D02*
X136180000Y-67308628D01*
X135941905Y-67784819D02*
X135941905Y-66784819D01*
X135941905Y-66784819D02*
X136322857Y-66784819D01*
X136322857Y-66784819D02*
X136418095Y-66832438D01*
X136418095Y-66832438D02*
X136465714Y-66880057D01*
X136465714Y-66880057D02*
X136513333Y-66975295D01*
X136513333Y-66975295D02*
X136513333Y-67118152D01*
X136513333Y-67118152D02*
X136465714Y-67213390D01*
X136465714Y-67213390D02*
X136418095Y-67261009D01*
X136418095Y-67261009D02*
X136322857Y-67308628D01*
X136322857Y-67308628D02*
X135941905Y-67308628D01*
X136989524Y-67784819D02*
X137180000Y-67784819D01*
X137180000Y-67784819D02*
X137275238Y-67737200D01*
X137275238Y-67737200D02*
X137322857Y-67689580D01*
X137322857Y-67689580D02*
X137418095Y-67546723D01*
X137418095Y-67546723D02*
X137465714Y-67356247D01*
X137465714Y-67356247D02*
X137465714Y-66975295D01*
X137465714Y-66975295D02*
X137418095Y-66880057D01*
X137418095Y-66880057D02*
X137370476Y-66832438D01*
X137370476Y-66832438D02*
X137275238Y-66784819D01*
X137275238Y-66784819D02*
X137084762Y-66784819D01*
X137084762Y-66784819D02*
X136989524Y-66832438D01*
X136989524Y-66832438D02*
X136941905Y-66880057D01*
X136941905Y-66880057D02*
X136894286Y-66975295D01*
X136894286Y-66975295D02*
X136894286Y-67213390D01*
X136894286Y-67213390D02*
X136941905Y-67308628D01*
X136941905Y-67308628D02*
X136989524Y-67356247D01*
X136989524Y-67356247D02*
X137084762Y-67403866D01*
X137084762Y-67403866D02*
X137275238Y-67403866D01*
X137275238Y-67403866D02*
X137370476Y-67356247D01*
X137370476Y-67356247D02*
X137418095Y-67308628D01*
X137418095Y-67308628D02*
X137465714Y-67213390D01*
X161054819Y-88289523D02*
X161769104Y-88289523D01*
X161769104Y-88289523D02*
X161911961Y-88337142D01*
X161911961Y-88337142D02*
X162007200Y-88432380D01*
X162007200Y-88432380D02*
X162054819Y-88575237D01*
X162054819Y-88575237D02*
X162054819Y-88670475D01*
X162054819Y-87289523D02*
X162054819Y-87860951D01*
X162054819Y-87575237D02*
X161054819Y-87575237D01*
X161054819Y-87575237D02*
X161197676Y-87670475D01*
X161197676Y-87670475D02*
X161292914Y-87765713D01*
X161292914Y-87765713D02*
X161340533Y-87860951D01*
X161054819Y-86670475D02*
X161054819Y-86575237D01*
X161054819Y-86575237D02*
X161102438Y-86479999D01*
X161102438Y-86479999D02*
X161150057Y-86432380D01*
X161150057Y-86432380D02*
X161245295Y-86384761D01*
X161245295Y-86384761D02*
X161435771Y-86337142D01*
X161435771Y-86337142D02*
X161673866Y-86337142D01*
X161673866Y-86337142D02*
X161864342Y-86384761D01*
X161864342Y-86384761D02*
X161959580Y-86432380D01*
X161959580Y-86432380D02*
X162007200Y-86479999D01*
X162007200Y-86479999D02*
X162054819Y-86575237D01*
X162054819Y-86575237D02*
X162054819Y-86670475D01*
X162054819Y-86670475D02*
X162007200Y-86765713D01*
X162007200Y-86765713D02*
X161959580Y-86813332D01*
X161959580Y-86813332D02*
X161864342Y-86860951D01*
X161864342Y-86860951D02*
X161673866Y-86908570D01*
X161673866Y-86908570D02*
X161435771Y-86908570D01*
X161435771Y-86908570D02*
X161245295Y-86860951D01*
X161245295Y-86860951D02*
X161150057Y-86813332D01*
X161150057Y-86813332D02*
X161102438Y-86765713D01*
X161102438Y-86765713D02*
X161054819Y-86670475D01*
X161144819Y-75329523D02*
X161859104Y-75329523D01*
X161859104Y-75329523D02*
X162001961Y-75377142D01*
X162001961Y-75377142D02*
X162097200Y-75472380D01*
X162097200Y-75472380D02*
X162144819Y-75615237D01*
X162144819Y-75615237D02*
X162144819Y-75710475D01*
X162144819Y-74329523D02*
X162144819Y-74900951D01*
X162144819Y-74615237D02*
X161144819Y-74615237D01*
X161144819Y-74615237D02*
X161287676Y-74710475D01*
X161287676Y-74710475D02*
X161382914Y-74805713D01*
X161382914Y-74805713D02*
X161430533Y-74900951D01*
X162144819Y-73377142D02*
X162144819Y-73948570D01*
X162144819Y-73662856D02*
X161144819Y-73662856D01*
X161144819Y-73662856D02*
X161287676Y-73758094D01*
X161287676Y-73758094D02*
X161382914Y-73853332D01*
X161382914Y-73853332D02*
X161430533Y-73948570D01*
D11*
%TO.C,J1*%
X126610000Y-96130000D02*
X127940000Y-96130000D01*
X126610000Y-97460000D02*
X126610000Y-96130000D01*
X129210000Y-96130000D02*
X147050000Y-96130000D01*
X129210000Y-98790000D02*
X129210000Y-96130000D01*
X129210000Y-98790000D02*
X147050000Y-98790000D01*
X147050000Y-98790000D02*
X147050000Y-96130000D01*
%TO.C,J3*%
X149470000Y-96130000D02*
X150800000Y-96130000D01*
X149470000Y-97460000D02*
X149470000Y-96130000D01*
X152070000Y-96130000D02*
X164830000Y-96130000D01*
X152070000Y-98790000D02*
X152070000Y-96130000D01*
X152070000Y-98790000D02*
X164830000Y-98790000D01*
X164830000Y-98790000D02*
X164830000Y-96130000D01*
%TO.C,J2*%
X117466000Y-47870000D02*
X118796000Y-47870000D01*
X117466000Y-49200000D02*
X117466000Y-47870000D01*
X120066000Y-47870000D02*
X142986000Y-47870000D01*
X120066000Y-50530000D02*
X120066000Y-47870000D01*
X120066000Y-50530000D02*
X142986000Y-50530000D01*
X142986000Y-50530000D02*
X142986000Y-47870000D01*
%TO.C,J4*%
X144390000Y-47870000D02*
X145720000Y-47870000D01*
X144390000Y-49200000D02*
X144390000Y-47870000D01*
X146990000Y-47870000D02*
X164830000Y-47870000D01*
X146990000Y-50530000D02*
X146990000Y-47870000D01*
X146990000Y-50530000D02*
X164830000Y-50530000D01*
X164830000Y-50530000D02*
X164830000Y-47870000D01*
%TO.C,R23*%
X119916728Y-69120000D02*
G75*
G02*
X119916728Y-70960000I1453272J-920000D01*
G01*
%TO.C,J6*%
X94520000Y-73620000D02*
X94520000Y-72240000D01*
X95900000Y-73620000D02*
X94520000Y-73620000D01*
X97170000Y-70860000D02*
X104900000Y-70860000D01*
X97170000Y-73620000D02*
X97170000Y-70860000D01*
X97170000Y-73620000D02*
X104900000Y-73620000D01*
X104900000Y-73620000D02*
X104900000Y-70860000D01*
%TO.C,R8*%
X141290000Y-57236728D02*
G75*
G02*
X139450000Y-57236728I-920000J-1453272D01*
G01*
%TO.C,RV2*%
X140920000Y-84535000D02*
X150670000Y-84535000D01*
X140920000Y-94285000D02*
X140920000Y-84535000D01*
X150670000Y-84535000D02*
X150670000Y-94285000D01*
X150670000Y-94285000D02*
X140920000Y-94285000D01*
%TO.C,RV3*%
X114845000Y-78665000D02*
X124595000Y-78665000D01*
X114845000Y-88415000D02*
X114845000Y-78665000D01*
X124595000Y-78665000D02*
X124595000Y-88415000D01*
X124595000Y-88415000D02*
X114845000Y-88415000D01*
%TO.C,R3*%
X149260000Y-63156728D02*
G75*
G02*
X147420000Y-63156728I-920000J-1453272D01*
G01*
%TO.C,J9*%
X125660000Y-84900000D02*
X125660000Y-79710000D01*
X128420000Y-79710000D02*
X125660000Y-79710000D01*
X128420000Y-84900000D02*
X125660000Y-84900000D01*
X128420000Y-84900000D02*
X128420000Y-79710000D01*
X128420000Y-86170000D02*
X128420000Y-87550000D01*
X128420000Y-87550000D02*
X127040000Y-87550000D01*
%TO.C,U1*%
X134860000Y-72840000D02*
X134860000Y-83120000D01*
X134860000Y-83120000D02*
X139360000Y-83120000D01*
X136110000Y-72840000D02*
X134860000Y-72840000D01*
X139360000Y-72840000D02*
X138110000Y-72840000D01*
X139360000Y-83120000D02*
X139360000Y-72840000D01*
X131860000Y-72780000D02*
X142360000Y-72780000D01*
X142360000Y-83180000D01*
X131860000Y-83180000D01*
X131860000Y-72780000D01*
X138110000Y-72840000D02*
G75*
G02*
X136110000Y-72840000I-1000000J0D01*
G01*
%TO.C,R2*%
X152340000Y-64263272D02*
G75*
G02*
X154180000Y-64263272I920000J1453272D01*
G01*
%TO.C,RV1*%
X129632000Y-84875000D02*
X139382000Y-84875000D01*
X129632000Y-94625000D02*
X129632000Y-84875000D01*
X139382000Y-84875000D02*
X139382000Y-94625000D01*
X139382000Y-94625000D02*
X129632000Y-94625000D01*
%TO.C,R16*%
X124990000Y-57196728D02*
G75*
G02*
X123150000Y-57196728I-920000J-1453272D01*
G01*
%TO.C,R25*%
X118500272Y-75320000D02*
G75*
G02*
X118500272Y-73480000I-1453272J920000D01*
G01*
%TO.C,R17*%
X119110000Y-64253272D02*
G75*
G02*
X120950000Y-64253272I920000J1453272D01*
G01*
%TO.C,R27*%
X136726728Y-69260000D02*
G75*
G02*
X136726728Y-71100000I1453272J-920000D01*
G01*
%TO.C,R1*%
X152300000Y-56123272D02*
G75*
G02*
X154140000Y-56123272I920000J1453272D01*
G01*
%TO.C,J12*%
X152240000Y-88510000D02*
X152240000Y-83320000D01*
X155000000Y-83320000D02*
X152240000Y-83320000D01*
X155000000Y-88510000D02*
X152240000Y-88510000D01*
X155000000Y-88510000D02*
X155000000Y-83320000D01*
X155000000Y-89780000D02*
X155000000Y-91160000D01*
X155000000Y-91160000D02*
X153620000Y-91160000D01*
%TO.C,R22*%
X113050000Y-57196728D02*
G75*
G02*
X111210000Y-57196728I-920000J-1453272D01*
G01*
%TO.C,R11*%
X131260000Y-64223272D02*
G75*
G02*
X133100000Y-64223272I920000J1453272D01*
G01*
%TO.C,SW1*%
X156960000Y-54870000D02*
X156960000Y-56370000D01*
X158210000Y-58870000D02*
X162710000Y-58870000D01*
X162710000Y-52370000D02*
X158210000Y-52370000D01*
X163960000Y-56370000D02*
X163960000Y-54870000D01*
%TO.C,R12*%
X133100000Y-57166728D02*
G75*
G02*
X131260000Y-57166728I-920000J-1453272D01*
G01*
%TO.C,R24*%
X125440000Y-75693272D02*
G75*
G02*
X127280000Y-75693272I920000J1453272D01*
G01*
%TO.C,C1*%
X145170000Y-75597620D02*
X142989000Y-75597620D01*
X145170000Y-75637620D02*
X142992000Y-75637620D01*
X145170000Y-75677620D02*
X142996000Y-75677620D01*
X145170000Y-75717620D02*
X143000000Y-75717620D01*
X145170000Y-75757620D02*
X143005000Y-75757620D01*
X145170000Y-75797620D02*
X143010000Y-75797620D01*
X145170000Y-75837620D02*
X143015000Y-75837620D01*
X145170000Y-75877620D02*
X143022000Y-75877620D01*
X145170000Y-75917620D02*
X143028000Y-75917620D01*
X145170000Y-75957620D02*
X143036000Y-75957620D01*
X145170000Y-75997620D02*
X143043000Y-75997620D01*
X145170000Y-76037620D02*
X143051000Y-76037620D01*
X145170000Y-76077620D02*
X143060000Y-76077620D01*
X145170000Y-76117620D02*
X143070000Y-76117620D01*
X145170000Y-76157620D02*
X143079000Y-76157620D01*
X145170000Y-76197620D02*
X143090000Y-76197620D01*
X145170000Y-76237620D02*
X143101000Y-76237620D01*
X145170000Y-76277620D02*
X143112000Y-76277620D01*
X145170000Y-76317620D02*
X143124000Y-76317620D01*
X145170000Y-76357620D02*
X143137000Y-76357620D01*
X145170000Y-76397620D02*
X143150000Y-76397620D01*
X145170000Y-76437620D02*
X143163000Y-76437620D01*
X145170000Y-76477620D02*
X143178000Y-76477620D01*
X145170000Y-76517620D02*
X143193000Y-76517620D01*
X145170000Y-76557620D02*
X143208000Y-76557620D01*
X145170000Y-76597620D02*
X143224000Y-76597620D01*
X145170000Y-76637620D02*
X143241000Y-76637620D01*
X145170000Y-76677620D02*
X143258000Y-76677620D01*
X145170000Y-76717620D02*
X143276000Y-76717620D01*
X145170000Y-76757620D02*
X143295000Y-76757620D01*
X145170000Y-76797620D02*
X143314000Y-76797620D01*
X145170000Y-76837620D02*
X143334000Y-76837620D01*
X145170000Y-76877620D02*
X143355000Y-76877620D01*
X145170000Y-76917620D02*
X143376000Y-76917620D01*
X145170000Y-76957620D02*
X143398000Y-76957620D01*
X145170000Y-76997620D02*
X143421000Y-76997620D01*
X145170000Y-77037620D02*
X143445000Y-77037620D01*
X145170000Y-77077620D02*
X143469000Y-77077620D01*
X145170000Y-77117620D02*
X143494000Y-77117620D01*
X145170000Y-77157620D02*
X143520000Y-77157620D01*
X145170000Y-77197620D02*
X143547000Y-77197620D01*
X145170000Y-77237620D02*
X143574000Y-77237620D01*
X145170000Y-77277620D02*
X143603000Y-77277620D01*
X145170000Y-77317620D02*
X143633000Y-77317620D01*
X145170000Y-77357620D02*
X143663000Y-77357620D01*
X145170000Y-77397620D02*
X143694000Y-77397620D01*
X145170000Y-77437620D02*
X143727000Y-77437620D01*
X145170000Y-77477620D02*
X143760000Y-77477620D01*
X145170000Y-77517620D02*
X143795000Y-77517620D01*
X145170000Y-77557620D02*
X143831000Y-77557620D01*
X145170000Y-77597620D02*
X143868000Y-77597620D01*
X145170000Y-77637620D02*
X143906000Y-77637620D01*
X146612000Y-78597620D02*
X145808000Y-78597620D01*
X146843000Y-78557620D02*
X145577000Y-78557620D01*
X147011000Y-78517620D02*
X145409000Y-78517620D01*
X147149000Y-78477620D02*
X145271000Y-78477620D01*
X147268000Y-78437620D02*
X145152000Y-78437620D01*
X147375000Y-78397620D02*
X145045000Y-78397620D01*
X147471000Y-78357620D02*
X144949000Y-78357620D01*
X147560000Y-78317620D02*
X144860000Y-78317620D01*
X147642000Y-78277620D02*
X144778000Y-78277620D01*
X147719000Y-78237620D02*
X144701000Y-78237620D01*
X147791000Y-78197620D02*
X144629000Y-78197620D01*
X147859000Y-78157620D02*
X144561000Y-78157620D01*
X147924000Y-78117620D02*
X144496000Y-78117620D01*
X147985000Y-78077620D02*
X144435000Y-78077620D01*
X148044000Y-78037620D02*
X144376000Y-78037620D01*
X148049000Y-71857379D02*
X148049000Y-72487379D01*
X148100000Y-77997620D02*
X144320000Y-77997620D01*
X148153000Y-77957620D02*
X144267000Y-77957620D01*
X148205000Y-77917620D02*
X144215000Y-77917620D01*
X148254000Y-77877620D02*
X144166000Y-77877620D01*
X148301000Y-77837620D02*
X144119000Y-77837620D01*
X148347000Y-77797620D02*
X144073000Y-77797620D01*
X148364000Y-72172379D02*
X147734000Y-72172379D01*
X148391000Y-77757620D02*
X144029000Y-77757620D01*
X148433000Y-77717620D02*
X143987000Y-77717620D01*
X148474000Y-77677620D02*
X143946000Y-77677620D01*
X148514000Y-77637620D02*
X147250000Y-77637620D01*
X148552000Y-77597620D02*
X147250000Y-77597620D01*
X148589000Y-77557620D02*
X147250000Y-77557620D01*
X148625000Y-77517620D02*
X147250000Y-77517620D01*
X148660000Y-77477620D02*
X147250000Y-77477620D01*
X148693000Y-77437620D02*
X147250000Y-77437620D01*
X148726000Y-77397620D02*
X147250000Y-77397620D01*
X148757000Y-77357620D02*
X147250000Y-77357620D01*
X148787000Y-77317620D02*
X147250000Y-77317620D01*
X148817000Y-77277620D02*
X147250000Y-77277620D01*
X148846000Y-77237620D02*
X147250000Y-77237620D01*
X148873000Y-77197620D02*
X147250000Y-77197620D01*
X148900000Y-77157620D02*
X147250000Y-77157620D01*
X148926000Y-77117620D02*
X147250000Y-77117620D01*
X148951000Y-77077620D02*
X147250000Y-77077620D01*
X148975000Y-77037620D02*
X147250000Y-77037620D01*
X148999000Y-76997620D02*
X147250000Y-76997620D01*
X149022000Y-76957620D02*
X147250000Y-76957620D01*
X149044000Y-76917620D02*
X147250000Y-76917620D01*
X149065000Y-76877620D02*
X147250000Y-76877620D01*
X149086000Y-76837620D02*
X147250000Y-76837620D01*
X149106000Y-76797620D02*
X147250000Y-76797620D01*
X149125000Y-76757620D02*
X147250000Y-76757620D01*
X149144000Y-76717620D02*
X147250000Y-76717620D01*
X149162000Y-76677620D02*
X147250000Y-76677620D01*
X149179000Y-76637620D02*
X147250000Y-76637620D01*
X149196000Y-76597620D02*
X147250000Y-76597620D01*
X149212000Y-76557620D02*
X147250000Y-76557620D01*
X149227000Y-76517620D02*
X147250000Y-76517620D01*
X149242000Y-76477620D02*
X147250000Y-76477620D01*
X149257000Y-76437620D02*
X147250000Y-76437620D01*
X149270000Y-76397620D02*
X147250000Y-76397620D01*
X149283000Y-76357620D02*
X147250000Y-76357620D01*
X149296000Y-76317620D02*
X147250000Y-76317620D01*
X149308000Y-76277620D02*
X147250000Y-76277620D01*
X149319000Y-76237620D02*
X147250000Y-76237620D01*
X149330000Y-76197620D02*
X147250000Y-76197620D01*
X149341000Y-76157620D02*
X147250000Y-76157620D01*
X149350000Y-76117620D02*
X147250000Y-76117620D01*
X149360000Y-76077620D02*
X147250000Y-76077620D01*
X149369000Y-76037620D02*
X147250000Y-76037620D01*
X149377000Y-75997620D02*
X147250000Y-75997620D01*
X149384000Y-75957620D02*
X147250000Y-75957620D01*
X149392000Y-75917620D02*
X147250000Y-75917620D01*
X149398000Y-75877620D02*
X147250000Y-75877620D01*
X149405000Y-75837620D02*
X147250000Y-75837620D01*
X149410000Y-75797620D02*
X147250000Y-75797620D01*
X149415000Y-75757620D02*
X147250000Y-75757620D01*
X149420000Y-75717620D02*
X147250000Y-75717620D01*
X149424000Y-75677620D02*
X147250000Y-75677620D01*
X149428000Y-75637620D02*
X147250000Y-75637620D01*
X149431000Y-75597620D02*
X147250000Y-75597620D01*
X149434000Y-75557620D02*
X142986000Y-75557620D01*
X149436000Y-75517620D02*
X142984000Y-75517620D01*
X149438000Y-75477620D02*
X142982000Y-75477620D01*
X149439000Y-75437620D02*
X142981000Y-75437620D01*
X149440000Y-75357620D02*
X142980000Y-75357620D01*
X149440000Y-75397620D02*
X142980000Y-75397620D01*
X149480000Y-75357620D02*
G75*
G02*
X142940000Y-75357620I-3270000J0D01*
G01*
X142940000Y-75357620D02*
G75*
G02*
X149480000Y-75357620I3270000J0D01*
G01*
%TO.C,R5*%
X143450000Y-64303272D02*
G75*
G02*
X145290000Y-64303272I920000J1453272D01*
G01*
%TO.C,R26*%
X120713272Y-91710000D02*
G75*
G02*
X120713272Y-89870000I-1453272J920000D01*
G01*
%TO.C,J5*%
X106987000Y-55805000D02*
X106987000Y-53145000D01*
X89147000Y-55805000D02*
X106987000Y-55805000D01*
X89147000Y-55805000D02*
X89147000Y-53145000D01*
X89147000Y-53145000D02*
X106987000Y-53145000D01*
X86547000Y-54475000D02*
X86547000Y-53145000D01*
X86547000Y-53145000D02*
X87877000Y-53145000D01*
%TO.C,R10*%
X137190000Y-57196728D02*
G75*
G02*
X135350000Y-57196728I-920000J-1453272D01*
G01*
%TO.C,J7*%
X151930000Y-70540000D02*
X153310000Y-70540000D01*
X151930000Y-71920000D02*
X151930000Y-70540000D01*
X151930000Y-73190000D02*
X151930000Y-78380000D01*
X151930000Y-73190000D02*
X154690000Y-73190000D01*
X151930000Y-78380000D02*
X154690000Y-78380000D01*
X154690000Y-73190000D02*
X154690000Y-78380000D01*
%TO.C,R6*%
X145230000Y-57226728D02*
G75*
G02*
X143390000Y-57226728I-920000J-1453272D01*
G01*
%TO.C,R20*%
X117010000Y-57216728D02*
G75*
G02*
X115170000Y-57216728I-920000J-1453272D01*
G01*
%TO.C,SW2*%
X156960000Y-63050000D02*
X156960000Y-64550000D01*
X158210000Y-67050000D02*
X162710000Y-67050000D01*
X162710000Y-60550000D02*
X158210000Y-60550000D01*
X163960000Y-64550000D02*
X163960000Y-63050000D01*
%TO.C,R21*%
X111170000Y-64293272D02*
G75*
G02*
X113010000Y-64293272I920000J1453272D01*
G01*
%TO.C,R7*%
X139430000Y-64273272D02*
G75*
G02*
X141270000Y-64273272I920000J1453272D01*
G01*
%TO.C,C2*%
X128520000Y-72730000D02*
X131260000Y-72730000D01*
X128520000Y-77970000D02*
X128520000Y-72730000D01*
X131260000Y-72730000D02*
X131260000Y-77970000D01*
X131260000Y-77970000D02*
X128520000Y-77970000D01*
%TO.C,R19*%
X115160000Y-64293272D02*
G75*
G02*
X117000000Y-64293272I920000J1453272D01*
G01*
%TO.C,R15*%
X123150000Y-64263272D02*
G75*
G02*
X124990000Y-64263272I920000J1453272D01*
G01*
%TO.C,R4*%
X149240000Y-57236728D02*
G75*
G02*
X147400000Y-57236728I-920000J-1453272D01*
G01*
%TO.C,R18*%
X120970000Y-57216728D02*
G75*
G02*
X119130000Y-57216728I-920000J-1453272D01*
G01*
%TO.C,R14*%
X129050000Y-57166728D02*
G75*
G02*
X127210000Y-57166728I-920000J-1453272D01*
G01*
%TO.C,R13*%
X127230000Y-64273272D02*
G75*
G02*
X129070000Y-64273272I920000J1453272D01*
G01*
%TO.C,R9*%
X135430000Y-64263272D02*
G75*
G02*
X137270000Y-64263272I920000J1453272D01*
G01*
%TO.C,J10*%
X156390000Y-81540000D02*
X167390000Y-81540000D01*
X156390000Y-93540000D02*
X156390000Y-81540000D01*
X167390000Y-81540000D02*
X167390000Y-83040000D01*
X167390000Y-85540000D02*
X167390000Y-89540000D01*
X167390000Y-92040000D02*
X167390000Y-93540000D01*
X167390000Y-93540000D02*
X156390000Y-93540000D01*
%TO.C,J11*%
X156390000Y-68330000D02*
X167390000Y-68330000D01*
X156390000Y-80330000D02*
X156390000Y-68330000D01*
X167390000Y-68330000D02*
X167390000Y-69830000D01*
X167390000Y-72330000D02*
X167390000Y-76330000D01*
X167390000Y-78830000D02*
X167390000Y-80330000D01*
X167390000Y-80330000D02*
X156390000Y-80330000D01*
%TD*%
M02*
