%TF.GenerationSoftware,KiCad,Pcbnew,9.0.2*%
%TF.CreationDate,2026-02-03T14:08:59-07:00*%
%TF.ProjectId,Uno_Shield_DSP_Class_v1,556e6f5f-5368-4696-956c-645f4453505f,rev?*%
%TF.SameCoordinates,Original*%
%TF.FileFunction,Copper,L1,Top*%
%TF.FilePolarity,Positive*%
%FSLAX46Y46*%
G04 Gerber Fmt 4.6, Leading zero omitted, Abs format (unit mm)*
G04 Created by KiCad (PCBNEW 9.0.2) date 2026-02-03 14:08:59*
%MOMM*%
%LPD*%
G01*
G04 APERTURE LIST*
G04 Aperture macros list*
%AMRoundRect*
0 Rectangle with rounded corners*
0 $1 Rounding radius*
0 $2 $3 $4 $5 $6 $7 $8 $9 X,Y pos of 4 corners*
0 Add a 4 corners polygon primitive as box body*
4,1,4,$2,$3,$4,$5,$6,$7,$8,$9,$2,$3,0*
0 Add four circle primitives for the rounded corners*
1,1,$1+$1,$2,$3*
1,1,$1+$1,$4,$5*
1,1,$1+$1,$6,$7*
1,1,$1+$1,$8,$9*
0 Add four rect primitives between the rounded corners*
20,1,$1+$1,$2,$3,$4,$5,0*
20,1,$1+$1,$4,$5,$6,$7,0*
20,1,$1+$1,$6,$7,$8,$9,0*
20,1,$1+$1,$8,$9,$2,$3,0*%
G04 Aperture macros list end*
%TA.AperFunction,ComponentPad*%
%ADD10R,1.700000X1.700000*%
%TD*%
%TA.AperFunction,ComponentPad*%
%ADD11O,1.700000X1.700000*%
%TD*%
%TA.AperFunction,ComponentPad*%
%ADD12C,1.600000*%
%TD*%
%TA.AperFunction,ComponentPad*%
%ADD13C,1.700000*%
%TD*%
%TA.AperFunction,ComponentPad*%
%ADD14C,1.440000*%
%TD*%
%TA.AperFunction,ComponentPad*%
%ADD15RoundRect,0.250000X-0.950000X-0.550000X0.950000X-0.550000X0.950000X0.550000X-0.950000X0.550000X0*%
%TD*%
%TA.AperFunction,ComponentPad*%
%ADD16O,2.400000X1.600000*%
%TD*%
%TA.AperFunction,ComponentPad*%
%ADD17C,2.000000*%
%TD*%
%TA.AperFunction,ComponentPad*%
%ADD18RoundRect,0.250000X-0.550000X0.550000X-0.550000X-0.550000X0.550000X-0.550000X0.550000X0.550000X0*%
%TD*%
%TA.AperFunction,ComponentPad*%
%ADD19O,2.200000X1.200000*%
%TD*%
%TA.AperFunction,ComponentPad*%
%ADD20O,2.300000X1.600000*%
%TD*%
%TA.AperFunction,ComponentPad*%
%ADD21O,1.200000X2.200000*%
%TD*%
%TA.AperFunction,ComponentPad*%
%ADD22O,2.500000X1.600000*%
%TD*%
%TA.AperFunction,ViaPad*%
%ADD23C,0.600000*%
%TD*%
%TA.AperFunction,Conductor*%
%ADD24C,0.508000*%
%TD*%
%TA.AperFunction,Conductor*%
%ADD25C,0.250000*%
%TD*%
G04 APERTURE END LIST*
D10*
%TO.P,J1,1,Pin_1*%
%TO.N,unconnected-(J1-Pin_1-Pad1)*%
X127940000Y-97460000D03*
D11*
%TO.P,J1,2,Pin_2*%
%TO.N,/IOREF*%
X130480000Y-97460000D03*
%TO.P,J1,3,Pin_3*%
%TO.N,/~{RESET}*%
X133020000Y-97460000D03*
%TO.P,J1,4,Pin_4*%
%TO.N,+3V3*%
X135560000Y-97460000D03*
%TO.P,J1,5,Pin_5*%
%TO.N,+5V*%
X138100000Y-97460000D03*
%TO.P,J1,6,Pin_6*%
%TO.N,GND*%
X140640000Y-97460000D03*
%TO.P,J1,7,Pin_7*%
X143180000Y-97460000D03*
%TO.P,J1,8,Pin_8*%
%TO.N,VCC*%
X145720000Y-97460000D03*
%TD*%
D10*
%TO.P,J3,1,Pin_1*%
%TO.N,/A0*%
X150800000Y-97460000D03*
D11*
%TO.P,J3,2,Pin_2*%
%TO.N,/A1*%
X153340000Y-97460000D03*
%TO.P,J3,3,Pin_3*%
%TO.N,/IN_RIGHT*%
X155880000Y-97460000D03*
%TO.P,J3,4,Pin_4*%
%TO.N,/IN_LEFT*%
X158420000Y-97460000D03*
%TO.P,J3,5,Pin_5*%
%TO.N,/SDA{slash}A4*%
X160960000Y-97460000D03*
%TO.P,J3,6,Pin_6*%
%TO.N,/SCL{slash}A5*%
X163500000Y-97460000D03*
%TD*%
D10*
%TO.P,J2,1,Pin_1*%
%TO.N,/SCL*%
X118796000Y-49200000D03*
D11*
%TO.P,J2,2,Pin_2*%
%TO.N,/SDA*%
X121336000Y-49200000D03*
%TO.P,J2,3,Pin_3*%
%TO.N,/AREF*%
X123876000Y-49200000D03*
%TO.P,J2,4,Pin_4*%
%TO.N,GND*%
X126416000Y-49200000D03*
%TO.P,J2,5,Pin_5*%
%TO.N,/D9*%
X128956000Y-49200000D03*
%TO.P,J2,6,Pin_6*%
%TO.N,/D8*%
X131496000Y-49200000D03*
%TO.P,J2,7,Pin_7*%
%TO.N,/D7*%
X134036000Y-49200000D03*
%TO.P,J2,8,Pin_8*%
%TO.N,/D6*%
X136576000Y-49200000D03*
%TO.P,J2,9,Pin_9*%
%TO.N,/D5*%
X139116000Y-49200000D03*
%TO.P,J2,10,Pin_10*%
%TO.N,/D4*%
X141656000Y-49200000D03*
%TD*%
D10*
%TO.P,J4,1,Pin_1*%
%TO.N,/D3*%
X145720000Y-49200000D03*
D11*
%TO.P,J4,2,Pin_2*%
%TO.N,/D2*%
X148260000Y-49200000D03*
%TO.P,J4,3,Pin_3*%
%TO.N,/D1*%
X150800000Y-49200000D03*
%TO.P,J4,4,Pin_4*%
%TO.N,/D0*%
X153340000Y-49200000D03*
%TO.P,J4,5,Pin_5*%
%TO.N,/BT2*%
X155880000Y-49200000D03*
%TO.P,J4,6,Pin_6*%
%TO.N,/BT1*%
X158420000Y-49200000D03*
%TO.P,J4,7,Pin_7*%
%TO.N,/TX{slash}1*%
X160960000Y-49200000D03*
%TO.P,J4,8,Pin_8*%
%TO.N,/RX{slash}0*%
X163500000Y-49200000D03*
%TD*%
D12*
%TO.P,R23,1*%
%TO.N,Net-(U1A--)*%
X121370000Y-70040000D03*
%TO.P,R23,2*%
%TO.N,Net-(R21-Pad1)*%
X118830000Y-70040000D03*
%TD*%
D10*
%TO.P,J6,1,Pin_1*%
%TO.N,GND*%
X95900000Y-72240000D03*
D13*
%TO.P,J6,2,Pin_2*%
%TO.N,+5V*%
X98440000Y-72240000D03*
%TO.P,J6,3,Pin_3*%
%TO.N,/SCL*%
X100980000Y-72240000D03*
%TO.P,J6,4,Pin_4*%
%TO.N,/SDA*%
X103520000Y-72240000D03*
%TD*%
D12*
%TO.P,R8,1*%
%TO.N,Net-(R7-Pad1)*%
X140370000Y-58690000D03*
%TO.P,R8,2*%
%TO.N,/D2*%
X140370000Y-56150000D03*
%TD*%
D14*
%TO.P,RV2,1,1*%
%TO.N,+5V*%
X145810000Y-91950000D03*
%TO.P,RV2,2,2*%
%TO.N,/A1*%
X148350000Y-89410000D03*
%TO.P,RV2,3,3*%
%TO.N,GND*%
X145810000Y-86870000D03*
%TD*%
%TO.P,RV3,1,1*%
%TO.N,Net-(R25-Pad2)*%
X119705000Y-81000000D03*
%TO.P,RV3,2,2*%
%TO.N,Net-(J9-Pin_3)*%
X117165000Y-83540000D03*
%TO.P,RV3,3,3*%
%TO.N,Net-(R26-Pad1)*%
X119705000Y-86080000D03*
%TD*%
D12*
%TO.P,R3,1*%
%TO.N,GND*%
X148340000Y-64610000D03*
%TO.P,R3,2*%
%TO.N,Net-(R3-Pad2)*%
X148340000Y-62070000D03*
%TD*%
D10*
%TO.P,J9,1,Pin_1*%
%TO.N,GND*%
X127040000Y-86170000D03*
D13*
%TO.P,J9,2,Pin_2*%
%TO.N,Net-(J9-Pin_2)*%
X127040000Y-83630000D03*
%TO.P,J9,3,Pin_3*%
%TO.N,Net-(J9-Pin_3)*%
X127040000Y-81090000D03*
%TD*%
D15*
%TO.P,U1,1*%
%TO.N,Net-(C2-Pad2)*%
X133300000Y-74170000D03*
D16*
%TO.P,U1,2,-*%
%TO.N,Net-(U1A--)*%
X133300000Y-76710000D03*
%TO.P,U1,3,+*%
%TO.N,Net-(J9-Pin_2)*%
X133300000Y-79250000D03*
%TO.P,U1,4,V-*%
%TO.N,GND*%
X133300000Y-81790000D03*
%TO.P,U1,5,+*%
X140920000Y-81790000D03*
%TO.P,U1,6,-*%
%TO.N,Net-(U1B--)*%
X140920000Y-79250000D03*
%TO.P,U1,7*%
X140920000Y-76710000D03*
%TO.P,U1,8,V+*%
%TO.N,+5V*%
X140920000Y-74170000D03*
%TD*%
D12*
%TO.P,R2,1*%
%TO.N,/BT2*%
X153260000Y-62810000D03*
%TO.P,R2,2*%
%TO.N,GND*%
X153260000Y-65350000D03*
%TD*%
D14*
%TO.P,RV1,1,1*%
%TO.N,+5V*%
X134522000Y-92290000D03*
%TO.P,RV1,2,2*%
%TO.N,/A0*%
X137062000Y-89750000D03*
%TO.P,RV1,3,3*%
%TO.N,GND*%
X134522000Y-87210000D03*
%TD*%
D12*
%TO.P,R16,1*%
%TO.N,Net-(R15-Pad1)*%
X124070000Y-58650000D03*
%TO.P,R16,2*%
%TO.N,/D6*%
X124070000Y-56110000D03*
%TD*%
%TO.P,R25,1*%
%TO.N,+5V*%
X117047000Y-74400000D03*
%TO.P,R25,2*%
%TO.N,Net-(R25-Pad2)*%
X119587000Y-74400000D03*
%TD*%
%TO.P,R17,1*%
%TO.N,Net-(R17-Pad1)*%
X120030000Y-62800000D03*
%TO.P,R17,2*%
%TO.N,Net-(R15-Pad1)*%
X120030000Y-65340000D03*
%TD*%
%TO.P,R27,1*%
%TO.N,/AUDIO_OUT*%
X138180000Y-70180000D03*
%TO.P,R27,2*%
%TO.N,Net-(C2-Pad2)*%
X135640000Y-70180000D03*
%TD*%
%TO.P,R1,1*%
%TO.N,/BT1*%
X153220000Y-54670000D03*
%TO.P,R1,2*%
%TO.N,GND*%
X153220000Y-57210000D03*
%TD*%
D10*
%TO.P,J12,1,Pin_1*%
%TO.N,GND*%
X153620000Y-89780000D03*
D13*
%TO.P,J12,2,Pin_2*%
%TO.N,/IN_RIGHT*%
X153620000Y-87240000D03*
%TO.P,J12,3,Pin_3*%
%TO.N,/IN_LEFT*%
X153620000Y-84700000D03*
%TD*%
D12*
%TO.P,R22,1*%
%TO.N,Net-(R21-Pad1)*%
X112130000Y-58650000D03*
%TO.P,R22,2*%
%TO.N,/D9*%
X112130000Y-56110000D03*
%TD*%
%TO.P,R11,1*%
%TO.N,Net-(R11-Pad1)*%
X132180000Y-62770000D03*
%TO.P,R11,2*%
%TO.N,Net-(R10-Pad1)*%
X132180000Y-65310000D03*
%TD*%
D17*
%TO.P,SW1,1,1*%
%TO.N,+5V*%
X163710000Y-57870000D03*
X157210000Y-57870000D03*
%TO.P,SW1,2,2*%
%TO.N,/BT1*%
X163710000Y-53370000D03*
X157210000Y-53370000D03*
%TD*%
D12*
%TO.P,R12,1*%
%TO.N,Net-(R11-Pad1)*%
X132180000Y-58620000D03*
%TO.P,R12,2*%
%TO.N,/D4*%
X132180000Y-56080000D03*
%TD*%
%TO.P,R24,1*%
%TO.N,Net-(C2-Pad2)*%
X126360000Y-74240000D03*
%TO.P,R24,2*%
%TO.N,Net-(U1A--)*%
X126360000Y-76780000D03*
%TD*%
D18*
%TO.P,C1,1*%
%TO.N,+5V*%
X146210000Y-74107620D03*
D12*
%TO.P,C1,2*%
%TO.N,GND*%
X146210000Y-76607620D03*
%TD*%
%TO.P,R5,1*%
%TO.N,Net-(R5-Pad1)*%
X144370000Y-62850000D03*
%TO.P,R5,2*%
%TO.N,Net-(R3-Pad2)*%
X144370000Y-65390000D03*
%TD*%
%TO.P,R26,1*%
%TO.N,Net-(R26-Pad1)*%
X119260000Y-90790000D03*
%TO.P,R26,2*%
%TO.N,GND*%
X121800000Y-90790000D03*
%TD*%
D10*
%TO.P,J5,1,Pin_1*%
%TO.N,unconnected-(J5-Pin_1-Pad1)*%
X87877000Y-54475000D03*
D13*
%TO.P,J5,2,Pin_2*%
%TO.N,unconnected-(J5-Pin_2-Pad2)*%
X90417000Y-54475000D03*
%TO.P,J5,3,Pin_3*%
%TO.N,unconnected-(J5-Pin_3-Pad3)*%
X92957000Y-54475000D03*
%TO.P,J5,4,Pin_4*%
%TO.N,unconnected-(J5-Pin_4-Pad4)*%
X95497000Y-54475000D03*
%TO.P,J5,5,Pin_5*%
%TO.N,/SDA*%
X98037000Y-54475000D03*
%TO.P,J5,6,Pin_6*%
%TO.N,/SCL*%
X100577000Y-54475000D03*
%TO.P,J5,7,Pin_7*%
%TO.N,GND*%
X103117000Y-54475000D03*
%TO.P,J5,8,Pin_8*%
%TO.N,+5V*%
X105657000Y-54475000D03*
%TD*%
D12*
%TO.P,R10,1*%
%TO.N,Net-(R10-Pad1)*%
X136270000Y-58650000D03*
%TO.P,R10,2*%
%TO.N,/D3*%
X136270000Y-56110000D03*
%TD*%
D10*
%TO.P,J7,1,Pin_1*%
%TO.N,/AUDIO_OUT*%
X153310000Y-71920000D03*
D13*
%TO.P,J7,2,Pin_2*%
X153310000Y-74460000D03*
%TO.P,J7,3,Pin_3*%
%TO.N,GND*%
X153310000Y-77000000D03*
%TD*%
D12*
%TO.P,R6,1*%
%TO.N,Net-(R5-Pad1)*%
X144310000Y-58680000D03*
%TO.P,R6,2*%
%TO.N,/D1*%
X144310000Y-56140000D03*
%TD*%
%TO.P,R20,1*%
%TO.N,Net-(R19-Pad1)*%
X116090000Y-58670000D03*
%TO.P,R20,2*%
%TO.N,/D8*%
X116090000Y-56130000D03*
%TD*%
D17*
%TO.P,SW2,1,1*%
%TO.N,+5V*%
X163710000Y-66050000D03*
X157210000Y-66050000D03*
%TO.P,SW2,2,2*%
%TO.N,/BT2*%
X163710000Y-61550000D03*
X157210000Y-61550000D03*
%TD*%
D12*
%TO.P,R21,1*%
%TO.N,Net-(R21-Pad1)*%
X112090000Y-62840000D03*
%TO.P,R21,2*%
%TO.N,Net-(R19-Pad1)*%
X112090000Y-65380000D03*
%TD*%
%TO.P,R7,1*%
%TO.N,Net-(R7-Pad1)*%
X140350000Y-62820000D03*
%TO.P,R7,2*%
%TO.N,Net-(R5-Pad1)*%
X140350000Y-65360000D03*
%TD*%
%TO.P,C2,1*%
%TO.N,Net-(U1A--)*%
X129890000Y-76600000D03*
%TO.P,C2,2*%
%TO.N,Net-(C2-Pad2)*%
X129890000Y-74100000D03*
%TD*%
%TO.P,R19,1*%
%TO.N,Net-(R19-Pad1)*%
X116080000Y-62840000D03*
%TO.P,R19,2*%
%TO.N,Net-(R17-Pad1)*%
X116080000Y-65380000D03*
%TD*%
%TO.P,R15,1*%
%TO.N,Net-(R15-Pad1)*%
X124070000Y-62810000D03*
%TO.P,R15,2*%
%TO.N,Net-(R13-Pad1)*%
X124070000Y-65350000D03*
%TD*%
%TO.P,R4,1*%
%TO.N,Net-(R3-Pad2)*%
X148320000Y-58690000D03*
%TO.P,R4,2*%
%TO.N,/D0*%
X148320000Y-56150000D03*
%TD*%
%TO.P,R18,1*%
%TO.N,Net-(R17-Pad1)*%
X120050000Y-58670000D03*
%TO.P,R18,2*%
%TO.N,/D7*%
X120050000Y-56130000D03*
%TD*%
%TO.P,R14,1*%
%TO.N,Net-(R13-Pad1)*%
X128130000Y-58620000D03*
%TO.P,R14,2*%
%TO.N,/D5*%
X128130000Y-56080000D03*
%TD*%
%TO.P,R13,1*%
%TO.N,Net-(R13-Pad1)*%
X128150000Y-62820000D03*
%TO.P,R13,2*%
%TO.N,Net-(R11-Pad1)*%
X128150000Y-65360000D03*
%TD*%
%TO.P,R9,1*%
%TO.N,Net-(R10-Pad1)*%
X136350000Y-62810000D03*
%TO.P,R9,2*%
%TO.N,Net-(R7-Pad1)*%
X136350000Y-65350000D03*
%TD*%
D19*
%TO.P,J10,R*%
%TO.N,/IN_RIGHT*%
X159090000Y-92540000D03*
D20*
%TO.P,J10,RN*%
X159090000Y-90040000D03*
D21*
%TO.P,J10,S*%
%TO.N,GND*%
X164090000Y-87540000D03*
D19*
%TO.P,J10,T*%
%TO.N,/IN_LEFT*%
X159090000Y-82540000D03*
D22*
%TO.P,J10,TN*%
X159090000Y-85040000D03*
%TD*%
D19*
%TO.P,J11,R*%
%TO.N,/AUDIO_OUT*%
X159090000Y-79330000D03*
D20*
%TO.P,J11,RN*%
X159090000Y-76830000D03*
D21*
%TO.P,J11,S*%
%TO.N,GND*%
X164090000Y-74330000D03*
D19*
%TO.P,J11,T*%
%TO.N,/AUDIO_OUT*%
X159090000Y-69330000D03*
D22*
%TO.P,J11,TN*%
X159090000Y-71830000D03*
%TD*%
D23*
%TO.N,+5V*%
X140837000Y-94725000D03*
%TD*%
D24*
%TO.N,+5V*%
X99487000Y-88200000D02*
X99487000Y-88850000D01*
X99487000Y-88850000D02*
X99487000Y-73287000D01*
X93162000Y-81875000D02*
X99487000Y-88200000D01*
X99487000Y-90350000D02*
X99487000Y-88850000D01*
X104087000Y-94950000D02*
X99487000Y-90350000D01*
X121645161Y-94950000D02*
X104087000Y-94950000D01*
X99487000Y-73287000D02*
X98440000Y-72240000D01*
X93162000Y-66970000D02*
X93162000Y-81875000D01*
X105657000Y-54475000D02*
X93162000Y-66970000D01*
%TO.N,/SDA*%
X103520000Y-62945161D02*
X103520000Y-72240000D01*
X115265161Y-51200000D02*
X103520000Y-62945161D01*
X119336000Y-51200000D02*
X115265161Y-51200000D01*
X121336000Y-49200000D02*
X119336000Y-51200000D01*
%TO.N,/SCL*%
X102012000Y-60075000D02*
X102012000Y-71208000D01*
X102012000Y-71208000D02*
X100980000Y-72240000D01*
X112887000Y-49200000D02*
X102012000Y-60075000D01*
X118796000Y-49200000D02*
X112887000Y-49200000D01*
X105852000Y-49200000D02*
X100577000Y-54475000D01*
X118796000Y-49200000D02*
X105852000Y-49200000D01*
%TO.N,/SDA*%
X104617000Y-47895000D02*
X98037000Y-54475000D01*
X120031000Y-47895000D02*
X104617000Y-47895000D01*
X121336000Y-49200000D02*
X120031000Y-47895000D01*
%TO.N,+5V*%
X146985000Y-77607459D02*
X147465000Y-77127459D01*
X135590000Y-94950000D02*
X138100000Y-97460000D01*
X147465000Y-75362620D02*
X146210000Y-74107620D01*
X146147620Y-74170000D02*
X146210000Y-74107620D01*
X162710000Y-77701995D02*
X162710000Y-67050000D01*
X157210000Y-57870000D02*
X163710000Y-57870000D01*
X146985000Y-90775000D02*
X146985000Y-83850000D01*
X134522000Y-92290000D02*
X131862000Y-94950000D01*
X146985000Y-83850000D02*
X146985000Y-77607459D01*
X157210000Y-66050000D02*
X163710000Y-66050000D01*
X159536995Y-80875000D02*
X162710000Y-77701995D01*
X149960000Y-80875000D02*
X159536995Y-80875000D01*
X117047000Y-74400000D02*
X115990000Y-75457000D01*
X145810000Y-91950000D02*
X146985000Y-90775000D01*
X131537000Y-94950000D02*
X135590000Y-94950000D01*
X121645161Y-94950000D02*
X131537000Y-94950000D01*
X115990000Y-89294839D02*
X121645161Y-94950000D01*
X131862000Y-94950000D02*
X131537000Y-94950000D01*
X140920000Y-74170000D02*
X146147620Y-74170000D01*
X165165000Y-59325000D02*
X165165000Y-64595000D01*
X163710000Y-57870000D02*
X165165000Y-59325000D01*
X138100000Y-97460000D02*
X140835000Y-94725000D01*
X162710000Y-67050000D02*
X163710000Y-66050000D01*
X115990000Y-75457000D02*
X115990000Y-89294839D01*
X165165000Y-64595000D02*
X163710000Y-66050000D01*
X147465000Y-77127459D02*
X147465000Y-75362620D01*
X146985000Y-83850000D02*
X149960000Y-80875000D01*
X140835000Y-94725000D02*
X140837000Y-94725000D01*
%TO.N,/A0*%
X142792000Y-95480000D02*
X148820000Y-95480000D01*
X137062000Y-89750000D02*
X142792000Y-95480000D01*
X148820000Y-95480000D02*
X150800000Y-97460000D01*
%TO.N,/A1*%
X148350000Y-92470000D02*
X153340000Y-97460000D01*
X148350000Y-89410000D02*
X148350000Y-92470000D01*
%TO.N,/BT1*%
X157210000Y-53370000D02*
X154520000Y-53370000D01*
X163710000Y-53370000D02*
X157210000Y-53370000D01*
X154520000Y-53370000D02*
X153220000Y-54670000D01*
X158420000Y-49200000D02*
X158420000Y-52160000D01*
X158420000Y-52160000D02*
X157210000Y-53370000D01*
%TO.N,/BT2*%
X153260000Y-62810000D02*
X155950000Y-62810000D01*
X163710000Y-61550000D02*
X157210000Y-61550000D01*
X151965000Y-53115000D02*
X151965000Y-61515000D01*
X151965000Y-61515000D02*
X153260000Y-62810000D01*
X155950000Y-62810000D02*
X157210000Y-61550000D01*
X155880000Y-49200000D02*
X151965000Y-53115000D01*
%TO.N,Net-(C2-Pad2)*%
X135640000Y-70180000D02*
X135640000Y-71830000D01*
X129890000Y-74100000D02*
X126500000Y-74100000D01*
X129890000Y-74100000D02*
X133230000Y-74100000D01*
X126500000Y-74100000D02*
X126360000Y-74240000D01*
X135640000Y-71830000D02*
X133300000Y-74170000D01*
X133230000Y-74100000D02*
X133300000Y-74170000D01*
%TO.N,Net-(U1A--)*%
X129890000Y-76600000D02*
X133190000Y-76600000D01*
X126540000Y-76600000D02*
X126360000Y-76780000D01*
X133190000Y-76600000D02*
X133300000Y-76710000D01*
X129890000Y-76600000D02*
X126540000Y-76600000D01*
X121370000Y-70040000D02*
X121370000Y-71790000D01*
X121370000Y-71790000D02*
X126360000Y-76780000D01*
%TO.N,/D7*%
X134036000Y-49200000D02*
X130261000Y-52975000D01*
X121555000Y-54625000D02*
X120050000Y-56130000D01*
X127412000Y-52975000D02*
X125762000Y-54625000D01*
X130261000Y-52975000D02*
X127412000Y-52975000D01*
X125762000Y-54625000D02*
X121555000Y-54625000D01*
%TO.N,/D8*%
X131496000Y-49200000D02*
X128571000Y-52125000D01*
X126612000Y-52125000D02*
X125087000Y-53650000D01*
X128571000Y-52125000D02*
X126612000Y-52125000D01*
X118570000Y-53650000D02*
X116090000Y-56130000D01*
X125087000Y-53650000D02*
X118570000Y-53650000D01*
%TO.N,/D9*%
X124262000Y-52625000D02*
X115615000Y-52625000D01*
X115615000Y-52625000D02*
X112130000Y-56110000D01*
X127651000Y-50505000D02*
X126382000Y-50505000D01*
X128956000Y-49200000D02*
X127651000Y-50505000D01*
X126382000Y-50505000D02*
X124262000Y-52625000D01*
%TO.N,/D6*%
X136576000Y-49200000D02*
X131876000Y-53900000D01*
X131876000Y-53900000D02*
X128087000Y-53900000D01*
X125877000Y-56110000D02*
X124070000Y-56110000D01*
X128087000Y-53900000D02*
X125877000Y-56110000D01*
%TO.N,/D4*%
X134107000Y-56080000D02*
X132180000Y-56080000D01*
X141656000Y-49200000D02*
X140987000Y-49200000D01*
X140987000Y-49200000D02*
X134107000Y-56080000D01*
%TO.N,/D5*%
X139116000Y-49200000D02*
X133591000Y-54725000D01*
X129485000Y-54725000D02*
X128130000Y-56080000D01*
X133591000Y-54725000D02*
X129485000Y-54725000D01*
%TO.N,/IN_RIGHT*%
X155880000Y-97460000D02*
X159090000Y-94250000D01*
X159090000Y-90040000D02*
X159090000Y-92540000D01*
X156420000Y-90040000D02*
X159090000Y-90040000D01*
X159090000Y-94250000D02*
X159090000Y-92540000D01*
X153620000Y-87240000D02*
X156420000Y-90040000D01*
%TO.N,/IN_LEFT*%
X160695000Y-95185000D02*
X160695000Y-86645000D01*
X160695000Y-86645000D02*
X159090000Y-85040000D01*
X159090000Y-84743000D02*
X156887000Y-82540000D01*
X158420000Y-97460000D02*
X160695000Y-95185000D01*
X159090000Y-85040000D02*
X159090000Y-84743000D01*
X156887000Y-82540000D02*
X159090000Y-82540000D01*
X153620000Y-84700000D02*
X155780000Y-82540000D01*
X155780000Y-82540000D02*
X156887000Y-82540000D01*
%TO.N,/D3*%
X137452000Y-56110000D02*
X136270000Y-56110000D01*
X144362000Y-49200000D02*
X137452000Y-56110000D01*
X145720000Y-49200000D02*
X144362000Y-49200000D01*
%TO.N,/D2*%
X148260000Y-49200000D02*
X141310000Y-56150000D01*
X141310000Y-56150000D02*
X140370000Y-56150000D01*
%TO.N,/D0*%
X148320000Y-54220000D02*
X148320000Y-56150000D01*
X153340000Y-49200000D02*
X148320000Y-54220000D01*
%TO.N,/D1*%
X150800000Y-49200000D02*
X144310000Y-55690000D01*
X144310000Y-55690000D02*
X144310000Y-56140000D01*
%TO.N,/AUDIO_OUT*%
X158180000Y-79330000D02*
X159090000Y-79330000D01*
X159090000Y-71830000D02*
X153400000Y-71830000D01*
X153310000Y-74460000D02*
X155668500Y-76818500D01*
X149030000Y-70180000D02*
X150381000Y-71531000D01*
X159090000Y-76830000D02*
X155680000Y-76830000D01*
X153310000Y-71920000D02*
X153557000Y-71920000D01*
X153310000Y-71920000D02*
X150770000Y-71920000D01*
X155680000Y-76830000D02*
X155668500Y-76818500D01*
X153557000Y-71920000D02*
X156147000Y-69330000D01*
X153400000Y-71830000D02*
X153310000Y-71920000D01*
X150381000Y-71531000D02*
X153310000Y-74460000D01*
X155668500Y-76818500D02*
X158180000Y-79330000D01*
X138180000Y-70180000D02*
X149030000Y-70180000D01*
X156147000Y-69330000D02*
X159090000Y-69330000D01*
X150770000Y-71920000D02*
X150381000Y-71531000D01*
%TO.N,Net-(J9-Pin_3)*%
X124590000Y-83540000D02*
X127040000Y-81090000D01*
X117165000Y-83540000D02*
X124590000Y-83540000D01*
%TO.N,Net-(J9-Pin_2)*%
X127040000Y-83630000D02*
X131420000Y-79250000D01*
X131420000Y-79250000D02*
X133300000Y-79250000D01*
%TO.N,Net-(R3-Pad2)*%
X147690000Y-62070000D02*
X148340000Y-62070000D01*
X148320000Y-62050000D02*
X148340000Y-62070000D01*
X148320000Y-58690000D02*
X148320000Y-62050000D01*
X144370000Y-65390000D02*
X147690000Y-62070000D01*
%TO.N,Net-(R5-Pad1)*%
X144310000Y-58680000D02*
X144310000Y-62790000D01*
X142860000Y-62850000D02*
X140350000Y-65360000D01*
X144370000Y-62850000D02*
X142860000Y-62850000D01*
X144310000Y-62790000D02*
X144370000Y-62850000D01*
%TO.N,Net-(R7-Pad1)*%
X140350000Y-58710000D02*
X140370000Y-58690000D01*
X137820000Y-65350000D02*
X140350000Y-62820000D01*
X136350000Y-65350000D02*
X137820000Y-65350000D01*
X140350000Y-62820000D02*
X140350000Y-58710000D01*
%TO.N,Net-(R10-Pad1)*%
X132180000Y-65310000D02*
X133850000Y-65310000D01*
X136350000Y-58730000D02*
X136270000Y-58650000D01*
X133850000Y-65310000D02*
X136350000Y-62810000D01*
X136350000Y-62810000D02*
X136350000Y-58730000D01*
%TO.N,Net-(R11-Pad1)*%
X132180000Y-62770000D02*
X130740000Y-62770000D01*
X132180000Y-62770000D02*
X132180000Y-58620000D01*
X130740000Y-62770000D02*
X128150000Y-65360000D01*
%TO.N,Net-(R13-Pad1)*%
X128150000Y-58640000D02*
X128130000Y-58620000D01*
X128150000Y-62820000D02*
X126600000Y-62820000D01*
X128150000Y-62820000D02*
X128150000Y-58640000D01*
X126600000Y-62820000D02*
X124070000Y-65350000D01*
D25*
%TO.N,Net-(R15-Pad1)*%
X124070000Y-62810000D02*
X124070000Y-58650000D01*
X122560000Y-62810000D02*
X120030000Y-65340000D01*
X124070000Y-62810000D02*
X122560000Y-62810000D01*
%TO.N,Net-(R17-Pad1)*%
X120030000Y-58690000D02*
X120050000Y-58670000D01*
X120030000Y-62800000D02*
X118660000Y-62800000D01*
X118660000Y-62800000D02*
X116080000Y-65380000D01*
X120030000Y-62800000D02*
X120030000Y-58690000D01*
%TO.N,Net-(R19-Pad1)*%
X114630000Y-62840000D02*
X112090000Y-65380000D01*
X116080000Y-58680000D02*
X116090000Y-58670000D01*
X116080000Y-62840000D02*
X114630000Y-62840000D01*
X116080000Y-62840000D02*
X116080000Y-58680000D01*
D24*
%TO.N,Net-(R21-Pad1)*%
X114975161Y-70040000D02*
X118830000Y-70040000D01*
X112130000Y-62800000D02*
X112090000Y-62840000D01*
X110835000Y-64095000D02*
X110835000Y-65899839D01*
X110835000Y-65899839D02*
X114975161Y-70040000D01*
X112090000Y-62840000D02*
X110835000Y-64095000D01*
X112130000Y-58650000D02*
X112130000Y-62800000D01*
%TO.N,Net-(R25-Pad2)*%
X119587000Y-80882000D02*
X119705000Y-81000000D01*
X119587000Y-74400000D02*
X119587000Y-80882000D01*
%TO.N,Net-(R26-Pad1)*%
X119260000Y-86525000D02*
X119705000Y-86080000D01*
X119260000Y-90790000D02*
X119260000Y-86525000D01*
%TO.N,Net-(U1B--)*%
X140920000Y-79250000D02*
X140920000Y-76710000D01*
%TD*%
M02*
