%TF.GenerationSoftware,KiCad,Pcbnew,9.0.2*%
%TF.CreationDate,2026-02-03T17:52:07-07:00*%
%TF.ProjectId,Uno_Shield_DSP_Class_v1,556e6f5f-5368-4696-956c-645f4453505f,rev?*%
%TF.SameCoordinates,Original*%
%TF.FileFunction,Legend,Bot*%
%TF.FilePolarity,Positive*%
%FSLAX46Y46*%
G04 Gerber Fmt 4.6, Leading zero omitted, Abs format (unit mm)*
G04 Created by KiCad (PCBNEW 9.0.2) date 2026-02-03 17:52:07*
%MOMM*%
%LPD*%
G01*
G04 APERTURE LIST*
%ADD10C,0.200000*%
%ADD11C,0.000000*%
G04 APERTURE END LIST*
D10*
X108092326Y-81247331D02*
X108092326Y-80247331D01*
X108092326Y-80247331D02*
X107758993Y-80961616D01*
X107758993Y-80961616D02*
X107425660Y-80247331D01*
X107425660Y-80247331D02*
X107425660Y-81247331D01*
X106949469Y-81247331D02*
X106949469Y-80580664D01*
X106949469Y-80247331D02*
X106997088Y-80294950D01*
X106997088Y-80294950D02*
X106949469Y-80342569D01*
X106949469Y-80342569D02*
X106901850Y-80294950D01*
X106901850Y-80294950D02*
X106949469Y-80247331D01*
X106949469Y-80247331D02*
X106949469Y-80342569D01*
X106044708Y-81199712D02*
X106139946Y-81247331D01*
X106139946Y-81247331D02*
X106330422Y-81247331D01*
X106330422Y-81247331D02*
X106425660Y-81199712D01*
X106425660Y-81199712D02*
X106473279Y-81152092D01*
X106473279Y-81152092D02*
X106520898Y-81056854D01*
X106520898Y-81056854D02*
X106520898Y-80771140D01*
X106520898Y-80771140D02*
X106473279Y-80675902D01*
X106473279Y-80675902D02*
X106425660Y-80628283D01*
X106425660Y-80628283D02*
X106330422Y-80580664D01*
X106330422Y-80580664D02*
X106139946Y-80580664D01*
X106139946Y-80580664D02*
X106044708Y-80628283D01*
X105616136Y-81247331D02*
X105616136Y-80247331D01*
X105187565Y-81247331D02*
X105187565Y-80723521D01*
X105187565Y-80723521D02*
X105235184Y-80628283D01*
X105235184Y-80628283D02*
X105330422Y-80580664D01*
X105330422Y-80580664D02*
X105473279Y-80580664D01*
X105473279Y-80580664D02*
X105568517Y-80628283D01*
X105568517Y-80628283D02*
X105616136Y-80675902D01*
X104282803Y-81247331D02*
X104282803Y-80723521D01*
X104282803Y-80723521D02*
X104330422Y-80628283D01*
X104330422Y-80628283D02*
X104425660Y-80580664D01*
X104425660Y-80580664D02*
X104616136Y-80580664D01*
X104616136Y-80580664D02*
X104711374Y-80628283D01*
X104282803Y-81199712D02*
X104378041Y-81247331D01*
X104378041Y-81247331D02*
X104616136Y-81247331D01*
X104616136Y-81247331D02*
X104711374Y-81199712D01*
X104711374Y-81199712D02*
X104758993Y-81104473D01*
X104758993Y-81104473D02*
X104758993Y-81009235D01*
X104758993Y-81009235D02*
X104711374Y-80913997D01*
X104711374Y-80913997D02*
X104616136Y-80866378D01*
X104616136Y-80866378D02*
X104378041Y-80866378D01*
X104378041Y-80866378D02*
X104282803Y-80818759D01*
X103425660Y-81199712D02*
X103520898Y-81247331D01*
X103520898Y-81247331D02*
X103711374Y-81247331D01*
X103711374Y-81247331D02*
X103806612Y-81199712D01*
X103806612Y-81199712D02*
X103854231Y-81104473D01*
X103854231Y-81104473D02*
X103854231Y-80723521D01*
X103854231Y-80723521D02*
X103806612Y-80628283D01*
X103806612Y-80628283D02*
X103711374Y-80580664D01*
X103711374Y-80580664D02*
X103520898Y-80580664D01*
X103520898Y-80580664D02*
X103425660Y-80628283D01*
X103425660Y-80628283D02*
X103378041Y-80723521D01*
X103378041Y-80723521D02*
X103378041Y-80818759D01*
X103378041Y-80818759D02*
X103854231Y-80913997D01*
X102806612Y-81247331D02*
X102901850Y-81199712D01*
X102901850Y-81199712D02*
X102949469Y-81104473D01*
X102949469Y-81104473D02*
X102949469Y-80247331D01*
X101663754Y-81247331D02*
X101663754Y-80247331D01*
X101092326Y-81247331D02*
X101520897Y-80675902D01*
X101092326Y-80247331D02*
X101663754Y-80818759D01*
X100235183Y-80580664D02*
X100235183Y-81247331D01*
X100663754Y-80580664D02*
X100663754Y-81104473D01*
X100663754Y-81104473D02*
X100616135Y-81199712D01*
X100616135Y-81199712D02*
X100520897Y-81247331D01*
X100520897Y-81247331D02*
X100378040Y-81247331D01*
X100378040Y-81247331D02*
X100282802Y-81199712D01*
X100282802Y-81199712D02*
X100235183Y-81152092D01*
X99758992Y-81247331D02*
X99758992Y-80580664D01*
X99758992Y-80771140D02*
X99711373Y-80675902D01*
X99711373Y-80675902D02*
X99663754Y-80628283D01*
X99663754Y-80628283D02*
X99568516Y-80580664D01*
X99568516Y-80580664D02*
X99473278Y-80580664D01*
X99282801Y-80580664D02*
X98901849Y-80580664D01*
X99139944Y-80247331D02*
X99139944Y-81104473D01*
X99139944Y-81104473D02*
X99092325Y-81199712D01*
X99092325Y-81199712D02*
X98997087Y-81247331D01*
X98997087Y-81247331D02*
X98901849Y-81247331D01*
X98139944Y-81247331D02*
X98139944Y-80723521D01*
X98139944Y-80723521D02*
X98187563Y-80628283D01*
X98187563Y-80628283D02*
X98282801Y-80580664D01*
X98282801Y-80580664D02*
X98473277Y-80580664D01*
X98473277Y-80580664D02*
X98568515Y-80628283D01*
X98139944Y-81199712D02*
X98235182Y-81247331D01*
X98235182Y-81247331D02*
X98473277Y-81247331D01*
X98473277Y-81247331D02*
X98568515Y-81199712D01*
X98568515Y-81199712D02*
X98616134Y-81104473D01*
X98616134Y-81104473D02*
X98616134Y-81009235D01*
X98616134Y-81009235D02*
X98568515Y-80913997D01*
X98568515Y-80913997D02*
X98473277Y-80866378D01*
X98473277Y-80866378D02*
X98235182Y-80866378D01*
X98235182Y-80866378D02*
X98139944Y-80818759D01*
X107758993Y-82333465D02*
X108092326Y-82333465D01*
X108092326Y-82857275D02*
X108092326Y-81857275D01*
X108092326Y-81857275D02*
X107616136Y-81857275D01*
X106854231Y-82809656D02*
X106949469Y-82857275D01*
X106949469Y-82857275D02*
X107139945Y-82857275D01*
X107139945Y-82857275D02*
X107235183Y-82809656D01*
X107235183Y-82809656D02*
X107282802Y-82714417D01*
X107282802Y-82714417D02*
X107282802Y-82333465D01*
X107282802Y-82333465D02*
X107235183Y-82238227D01*
X107235183Y-82238227D02*
X107139945Y-82190608D01*
X107139945Y-82190608D02*
X106949469Y-82190608D01*
X106949469Y-82190608D02*
X106854231Y-82238227D01*
X106854231Y-82238227D02*
X106806612Y-82333465D01*
X106806612Y-82333465D02*
X106806612Y-82428703D01*
X106806612Y-82428703D02*
X107282802Y-82523941D01*
X106378040Y-82857275D02*
X106378040Y-81857275D01*
X106378040Y-82238227D02*
X106282802Y-82190608D01*
X106282802Y-82190608D02*
X106092326Y-82190608D01*
X106092326Y-82190608D02*
X105997088Y-82238227D01*
X105997088Y-82238227D02*
X105949469Y-82285846D01*
X105949469Y-82285846D02*
X105901850Y-82381084D01*
X105901850Y-82381084D02*
X105901850Y-82666798D01*
X105901850Y-82666798D02*
X105949469Y-82762036D01*
X105949469Y-82762036D02*
X105997088Y-82809656D01*
X105997088Y-82809656D02*
X106092326Y-82857275D01*
X106092326Y-82857275D02*
X106282802Y-82857275D01*
X106282802Y-82857275D02*
X106378040Y-82809656D01*
X105473278Y-82857275D02*
X105473278Y-82190608D01*
X105473278Y-82381084D02*
X105425659Y-82285846D01*
X105425659Y-82285846D02*
X105378040Y-82238227D01*
X105378040Y-82238227D02*
X105282802Y-82190608D01*
X105282802Y-82190608D02*
X105187564Y-82190608D01*
X104425659Y-82190608D02*
X104425659Y-82857275D01*
X104854230Y-82190608D02*
X104854230Y-82714417D01*
X104854230Y-82714417D02*
X104806611Y-82809656D01*
X104806611Y-82809656D02*
X104711373Y-82857275D01*
X104711373Y-82857275D02*
X104568516Y-82857275D01*
X104568516Y-82857275D02*
X104473278Y-82809656D01*
X104473278Y-82809656D02*
X104425659Y-82762036D01*
X103520897Y-82857275D02*
X103520897Y-82333465D01*
X103520897Y-82333465D02*
X103568516Y-82238227D01*
X103568516Y-82238227D02*
X103663754Y-82190608D01*
X103663754Y-82190608D02*
X103854230Y-82190608D01*
X103854230Y-82190608D02*
X103949468Y-82238227D01*
X103520897Y-82809656D02*
X103616135Y-82857275D01*
X103616135Y-82857275D02*
X103854230Y-82857275D01*
X103854230Y-82857275D02*
X103949468Y-82809656D01*
X103949468Y-82809656D02*
X103997087Y-82714417D01*
X103997087Y-82714417D02*
X103997087Y-82619179D01*
X103997087Y-82619179D02*
X103949468Y-82523941D01*
X103949468Y-82523941D02*
X103854230Y-82476322D01*
X103854230Y-82476322D02*
X103616135Y-82476322D01*
X103616135Y-82476322D02*
X103520897Y-82428703D01*
X103044706Y-82857275D02*
X103044706Y-82190608D01*
X103044706Y-82381084D02*
X102997087Y-82285846D01*
X102997087Y-82285846D02*
X102949468Y-82238227D01*
X102949468Y-82238227D02*
X102854230Y-82190608D01*
X102854230Y-82190608D02*
X102758992Y-82190608D01*
X102520896Y-82190608D02*
X102282801Y-82857275D01*
X102044706Y-82190608D02*
X102282801Y-82857275D01*
X102282801Y-82857275D02*
X102378039Y-83095370D01*
X102378039Y-83095370D02*
X102425658Y-83142989D01*
X102425658Y-83142989D02*
X102520896Y-83190608D01*
X100949467Y-81952513D02*
X100901848Y-81904894D01*
X100901848Y-81904894D02*
X100806610Y-81857275D01*
X100806610Y-81857275D02*
X100568515Y-81857275D01*
X100568515Y-81857275D02*
X100473277Y-81904894D01*
X100473277Y-81904894D02*
X100425658Y-81952513D01*
X100425658Y-81952513D02*
X100378039Y-82047751D01*
X100378039Y-82047751D02*
X100378039Y-82142989D01*
X100378039Y-82142989D02*
X100425658Y-82285846D01*
X100425658Y-82285846D02*
X100997086Y-82857275D01*
X100997086Y-82857275D02*
X100378039Y-82857275D01*
X99758991Y-81857275D02*
X99663753Y-81857275D01*
X99663753Y-81857275D02*
X99568515Y-81904894D01*
X99568515Y-81904894D02*
X99520896Y-81952513D01*
X99520896Y-81952513D02*
X99473277Y-82047751D01*
X99473277Y-82047751D02*
X99425658Y-82238227D01*
X99425658Y-82238227D02*
X99425658Y-82476322D01*
X99425658Y-82476322D02*
X99473277Y-82666798D01*
X99473277Y-82666798D02*
X99520896Y-82762036D01*
X99520896Y-82762036D02*
X99568515Y-82809656D01*
X99568515Y-82809656D02*
X99663753Y-82857275D01*
X99663753Y-82857275D02*
X99758991Y-82857275D01*
X99758991Y-82857275D02*
X99854229Y-82809656D01*
X99854229Y-82809656D02*
X99901848Y-82762036D01*
X99901848Y-82762036D02*
X99949467Y-82666798D01*
X99949467Y-82666798D02*
X99997086Y-82476322D01*
X99997086Y-82476322D02*
X99997086Y-82238227D01*
X99997086Y-82238227D02*
X99949467Y-82047751D01*
X99949467Y-82047751D02*
X99901848Y-81952513D01*
X99901848Y-81952513D02*
X99854229Y-81904894D01*
X99854229Y-81904894D02*
X99758991Y-81857275D01*
X99044705Y-81952513D02*
X98997086Y-81904894D01*
X98997086Y-81904894D02*
X98901848Y-81857275D01*
X98901848Y-81857275D02*
X98663753Y-81857275D01*
X98663753Y-81857275D02*
X98568515Y-81904894D01*
X98568515Y-81904894D02*
X98520896Y-81952513D01*
X98520896Y-81952513D02*
X98473277Y-82047751D01*
X98473277Y-82047751D02*
X98473277Y-82142989D01*
X98473277Y-82142989D02*
X98520896Y-82285846D01*
X98520896Y-82285846D02*
X99092324Y-82857275D01*
X99092324Y-82857275D02*
X98473277Y-82857275D01*
X97616134Y-81857275D02*
X97806610Y-81857275D01*
X97806610Y-81857275D02*
X97901848Y-81904894D01*
X97901848Y-81904894D02*
X97949467Y-81952513D01*
X97949467Y-81952513D02*
X98044705Y-82095370D01*
X98044705Y-82095370D02*
X98092324Y-82285846D01*
X98092324Y-82285846D02*
X98092324Y-82666798D01*
X98092324Y-82666798D02*
X98044705Y-82762036D01*
X98044705Y-82762036D02*
X97997086Y-82809656D01*
X97997086Y-82809656D02*
X97901848Y-82857275D01*
X97901848Y-82857275D02*
X97711372Y-82857275D01*
X97711372Y-82857275D02*
X97616134Y-82809656D01*
X97616134Y-82809656D02*
X97568515Y-82762036D01*
X97568515Y-82762036D02*
X97520896Y-82666798D01*
X97520896Y-82666798D02*
X97520896Y-82428703D01*
X97520896Y-82428703D02*
X97568515Y-82333465D01*
X97568515Y-82333465D02*
X97616134Y-82285846D01*
X97616134Y-82285846D02*
X97711372Y-82238227D01*
X97711372Y-82238227D02*
X97901848Y-82238227D01*
X97901848Y-82238227D02*
X97997086Y-82285846D01*
X97997086Y-82285846D02*
X98044705Y-82333465D01*
X98044705Y-82333465D02*
X98092324Y-82428703D01*
X108235183Y-83467219D02*
X107901850Y-84467219D01*
X107901850Y-84467219D02*
X107568517Y-83467219D01*
X106854231Y-84419600D02*
X106949469Y-84467219D01*
X106949469Y-84467219D02*
X107139945Y-84467219D01*
X107139945Y-84467219D02*
X107235183Y-84419600D01*
X107235183Y-84419600D02*
X107282802Y-84324361D01*
X107282802Y-84324361D02*
X107282802Y-83943409D01*
X107282802Y-83943409D02*
X107235183Y-83848171D01*
X107235183Y-83848171D02*
X107139945Y-83800552D01*
X107139945Y-83800552D02*
X106949469Y-83800552D01*
X106949469Y-83800552D02*
X106854231Y-83848171D01*
X106854231Y-83848171D02*
X106806612Y-83943409D01*
X106806612Y-83943409D02*
X106806612Y-84038647D01*
X106806612Y-84038647D02*
X107282802Y-84133885D01*
X106378040Y-84467219D02*
X106378040Y-83800552D01*
X106378040Y-83991028D02*
X106330421Y-83895790D01*
X106330421Y-83895790D02*
X106282802Y-83848171D01*
X106282802Y-83848171D02*
X106187564Y-83800552D01*
X106187564Y-83800552D02*
X106092326Y-83800552D01*
X105806611Y-84419600D02*
X105711373Y-84467219D01*
X105711373Y-84467219D02*
X105520897Y-84467219D01*
X105520897Y-84467219D02*
X105425659Y-84419600D01*
X105425659Y-84419600D02*
X105378040Y-84324361D01*
X105378040Y-84324361D02*
X105378040Y-84276742D01*
X105378040Y-84276742D02*
X105425659Y-84181504D01*
X105425659Y-84181504D02*
X105520897Y-84133885D01*
X105520897Y-84133885D02*
X105663754Y-84133885D01*
X105663754Y-84133885D02*
X105758992Y-84086266D01*
X105758992Y-84086266D02*
X105806611Y-83991028D01*
X105806611Y-83991028D02*
X105806611Y-83943409D01*
X105806611Y-83943409D02*
X105758992Y-83848171D01*
X105758992Y-83848171D02*
X105663754Y-83800552D01*
X105663754Y-83800552D02*
X105520897Y-83800552D01*
X105520897Y-83800552D02*
X105425659Y-83848171D01*
X104949468Y-84467219D02*
X104949468Y-83800552D01*
X104949468Y-83467219D02*
X104997087Y-83514838D01*
X104997087Y-83514838D02*
X104949468Y-83562457D01*
X104949468Y-83562457D02*
X104901849Y-83514838D01*
X104901849Y-83514838D02*
X104949468Y-83467219D01*
X104949468Y-83467219D02*
X104949468Y-83562457D01*
X104330421Y-84467219D02*
X104425659Y-84419600D01*
X104425659Y-84419600D02*
X104473278Y-84371980D01*
X104473278Y-84371980D02*
X104520897Y-84276742D01*
X104520897Y-84276742D02*
X104520897Y-83991028D01*
X104520897Y-83991028D02*
X104473278Y-83895790D01*
X104473278Y-83895790D02*
X104425659Y-83848171D01*
X104425659Y-83848171D02*
X104330421Y-83800552D01*
X104330421Y-83800552D02*
X104187564Y-83800552D01*
X104187564Y-83800552D02*
X104092326Y-83848171D01*
X104092326Y-83848171D02*
X104044707Y-83895790D01*
X104044707Y-83895790D02*
X103997088Y-83991028D01*
X103997088Y-83991028D02*
X103997088Y-84276742D01*
X103997088Y-84276742D02*
X104044707Y-84371980D01*
X104044707Y-84371980D02*
X104092326Y-84419600D01*
X104092326Y-84419600D02*
X104187564Y-84467219D01*
X104187564Y-84467219D02*
X104330421Y-84467219D01*
X103568516Y-83800552D02*
X103568516Y-84467219D01*
X103568516Y-83895790D02*
X103520897Y-83848171D01*
X103520897Y-83848171D02*
X103425659Y-83800552D01*
X103425659Y-83800552D02*
X103282802Y-83800552D01*
X103282802Y-83800552D02*
X103187564Y-83848171D01*
X103187564Y-83848171D02*
X103139945Y-83943409D01*
X103139945Y-83943409D02*
X103139945Y-84467219D01*
X101378040Y-84467219D02*
X101949468Y-84467219D01*
X101663754Y-84467219D02*
X101663754Y-83467219D01*
X101663754Y-83467219D02*
X101758992Y-83610076D01*
X101758992Y-83610076D02*
X101854230Y-83705314D01*
X101854230Y-83705314D02*
X101949468Y-83752933D01*
X100949468Y-84371980D02*
X100901849Y-84419600D01*
X100901849Y-84419600D02*
X100949468Y-84467219D01*
X100949468Y-84467219D02*
X100997087Y-84419600D01*
X100997087Y-84419600D02*
X100949468Y-84371980D01*
X100949468Y-84371980D02*
X100949468Y-84467219D01*
X100520897Y-83562457D02*
X100473278Y-83514838D01*
X100473278Y-83514838D02*
X100378040Y-83467219D01*
X100378040Y-83467219D02*
X100139945Y-83467219D01*
X100139945Y-83467219D02*
X100044707Y-83514838D01*
X100044707Y-83514838D02*
X99997088Y-83562457D01*
X99997088Y-83562457D02*
X99949469Y-83657695D01*
X99949469Y-83657695D02*
X99949469Y-83752933D01*
X99949469Y-83752933D02*
X99997088Y-83895790D01*
X99997088Y-83895790D02*
X100568516Y-84467219D01*
X100568516Y-84467219D02*
X99949469Y-84467219D01*
D11*
%TO.C,G\u002A\u002A\u002A*%
G36*
X93050270Y-93805121D02*
G01*
X93050221Y-93805162D01*
X93046426Y-93803138D01*
X93050270Y-93805121D01*
G37*
G36*
X94973670Y-87516947D02*
G01*
X94866321Y-87716143D01*
X94706200Y-87780197D01*
X94683146Y-87677313D01*
X94853172Y-87397462D01*
X94881521Y-87369883D01*
X95039206Y-87267583D01*
X94973670Y-87516947D01*
G37*
G36*
X95493034Y-87587711D02*
G01*
X95426869Y-87867070D01*
X95325631Y-88007726D01*
X95181032Y-88066099D01*
X95236111Y-87765343D01*
X95316947Y-87609718D01*
X95466165Y-87537697D01*
X95493034Y-87587711D01*
G37*
G36*
X93677882Y-86677131D02*
G01*
X93581246Y-86856413D01*
X93350073Y-87027490D01*
X93255932Y-87020704D01*
X93187124Y-86897371D01*
X93485657Y-86596544D01*
X93549419Y-86544964D01*
X93733077Y-86446702D01*
X93677882Y-86677131D01*
G37*
G36*
X94101881Y-84499244D02*
G01*
X94375278Y-84790393D01*
X94341135Y-85321837D01*
X94211456Y-85636001D01*
X94009223Y-85706380D01*
X93659702Y-85421164D01*
X93638834Y-85399704D01*
X93446288Y-84991216D01*
X93543987Y-84624952D01*
X93891779Y-84466145D01*
X94101881Y-84499244D01*
G37*
G36*
X95846474Y-88098010D02*
G01*
X95789133Y-88281705D01*
X96039649Y-88240157D01*
X96241048Y-88192807D01*
X96277511Y-88310607D01*
X96262356Y-88333639D01*
X95947990Y-88513758D01*
X95642464Y-88322911D01*
X95613902Y-88225203D01*
X95770647Y-87969764D01*
X95905930Y-87916054D01*
X95846474Y-88098010D01*
G37*
G36*
X94101875Y-86904462D02*
G01*
X94080317Y-86962519D01*
X94055899Y-87212144D01*
X94315556Y-87173713D01*
X94518897Y-87125770D01*
X94555477Y-87243380D01*
X94513216Y-87299984D01*
X94234119Y-87454380D01*
X94023871Y-87382802D01*
X93875985Y-87082626D01*
X94007323Y-86742085D01*
X94029829Y-86720245D01*
X94173493Y-86638150D01*
X94101875Y-86904462D01*
G37*
G36*
X94884670Y-93401946D02*
G01*
X94969166Y-93805728D01*
X94974941Y-94311149D01*
X94907477Y-94743531D01*
X94772255Y-94928193D01*
X94707717Y-94972846D01*
X94879882Y-95157932D01*
X95044876Y-95297618D01*
X94917552Y-95309412D01*
X94803854Y-95265939D01*
X94648484Y-95079717D01*
X94652101Y-95022385D01*
X94661047Y-94626889D01*
X94664628Y-94035613D01*
X94670757Y-93797262D01*
X94727095Y-93391429D01*
X94823238Y-93303535D01*
X94884670Y-93401946D01*
G37*
G36*
X95494055Y-85082605D02*
G01*
X95635644Y-85354772D01*
X95489965Y-85867209D01*
X95038016Y-86549870D01*
X94843480Y-86701944D01*
X94528441Y-86577096D01*
X94414592Y-86471899D01*
X94242472Y-86191930D01*
X94316225Y-86063501D01*
X94610814Y-86200934D01*
X94761926Y-86316507D01*
X94879392Y-86375173D01*
X94703504Y-86133991D01*
X94535945Y-85793942D01*
X94657264Y-85333571D01*
X94810600Y-85084707D01*
X95090732Y-84913245D01*
X95494055Y-85082605D01*
G37*
G36*
X92512086Y-92923373D02*
G01*
X92480553Y-93077845D01*
X92257140Y-93212405D01*
X91988502Y-93027308D01*
X92026824Y-92897238D01*
X92081577Y-92897238D01*
X92189204Y-93003960D01*
X92296831Y-92897238D01*
X92189204Y-92790515D01*
X92081577Y-92897238D01*
X92026824Y-92897238D01*
X92056770Y-92795595D01*
X92393771Y-92496918D01*
X92518864Y-92406528D01*
X92850896Y-91959878D01*
X93000079Y-91246260D01*
X93082635Y-90335893D01*
X93120242Y-91216901D01*
X93068202Y-91918413D01*
X92834967Y-92363624D01*
X92663945Y-92549304D01*
X92522696Y-92897238D01*
X92512086Y-92923373D01*
G37*
G36*
X95980541Y-87112261D02*
G01*
X95702105Y-87215965D01*
X95376243Y-87072364D01*
X95307124Y-87010922D01*
X95302409Y-86920767D01*
X95525645Y-86920767D01*
X95633272Y-87027490D01*
X95740899Y-86920767D01*
X95633272Y-86814044D01*
X95525645Y-86920767D01*
X95302409Y-86920767D01*
X95292367Y-86728746D01*
X95558822Y-86221851D01*
X95672122Y-86048806D01*
X96011886Y-85638058D01*
X96284703Y-85574146D01*
X96576661Y-85823366D01*
X96634874Y-85905511D01*
X96657353Y-86222179D01*
X96372141Y-86677147D01*
X96348451Y-86706925D01*
X96154354Y-86920767D01*
X95980541Y-87112261D01*
G37*
G36*
X97040881Y-87551000D02*
G01*
X96918595Y-87688332D01*
X96613202Y-87863965D01*
X96245675Y-87717857D01*
X96204525Y-87684653D01*
X96199882Y-87589730D01*
X96424737Y-87589730D01*
X96601916Y-87667826D01*
X96715871Y-87652422D01*
X96745419Y-87525529D01*
X96713870Y-87499984D01*
X96458413Y-87525529D01*
X96424737Y-87589730D01*
X96199882Y-87589730D01*
X96191131Y-87410802D01*
X96508400Y-86925088D01*
X96707254Y-86698457D01*
X97063888Y-86473996D01*
X97333900Y-86650501D01*
X97560467Y-87240935D01*
X97563124Y-87250694D01*
X97618034Y-87566016D01*
X97511846Y-87497639D01*
X97511455Y-87497082D01*
X97300842Y-87341511D01*
X97072489Y-87525529D01*
X97040881Y-87551000D01*
G37*
G36*
X95384971Y-89962704D02*
G01*
X95405562Y-90131288D01*
X95200393Y-90444566D01*
X94998300Y-90723167D01*
X94885139Y-91319262D01*
X94992520Y-91963372D01*
X95310391Y-92470347D01*
X95586559Y-92832537D01*
X95740899Y-93344613D01*
X95786117Y-93668520D01*
X95959665Y-93966616D01*
X96027594Y-94025247D01*
X96054588Y-94299381D01*
X96010334Y-94354175D01*
X95674382Y-94494810D01*
X95575416Y-94455982D01*
X95740899Y-94284633D01*
X95906767Y-94148247D01*
X95794713Y-94074456D01*
X95606012Y-93900389D01*
X95525645Y-93443448D01*
X95512163Y-93220819D01*
X95367569Y-92780736D01*
X95124719Y-92622302D01*
X94859112Y-92816531D01*
X94794300Y-92878876D01*
X94706467Y-92740237D01*
X94670980Y-92339267D01*
X94683438Y-91783047D01*
X94739438Y-91178658D01*
X94834580Y-90633181D01*
X94964460Y-90253695D01*
X95200964Y-89959135D01*
X95384971Y-89962704D01*
G37*
G36*
X96012438Y-91112519D02*
G01*
X95904353Y-91283360D01*
X95932736Y-91772984D01*
X96294983Y-92363624D01*
X96516938Y-92734679D01*
X96723151Y-93298595D01*
X96765564Y-93483781D01*
X96770087Y-93793151D01*
X96578481Y-93812368D01*
X96417096Y-93675159D01*
X96391154Y-93542027D01*
X96494289Y-93644296D01*
X96601916Y-93537574D01*
X96494289Y-93430851D01*
X96389699Y-93534562D01*
X96340796Y-93283603D01*
X96320787Y-93006766D01*
X96071728Y-92583610D01*
X95896504Y-92380886D01*
X95740899Y-91928385D01*
X95708099Y-91718113D01*
X95518195Y-91471806D01*
X95435538Y-91335399D01*
X95607205Y-90976229D01*
X95740899Y-90976229D01*
X95848526Y-91082952D01*
X95956153Y-90976229D01*
X95848526Y-90869507D01*
X95740899Y-90976229D01*
X95607205Y-90976229D01*
X95608222Y-90974102D01*
X95854774Y-90735737D01*
X96085644Y-90713316D01*
X96135300Y-90820798D01*
X96069838Y-90976229D01*
X96012438Y-91112519D01*
G37*
G36*
X87731378Y-82703721D02*
G01*
X88294606Y-82978825D01*
X89076205Y-83380070D01*
X90004538Y-83871624D01*
X90239586Y-83998533D01*
X91106894Y-84481684D01*
X91782792Y-84881991D01*
X92204082Y-85160817D01*
X92307565Y-85279529D01*
X92273655Y-85285393D01*
X91915973Y-85212002D01*
X91396593Y-85002165D01*
X90682425Y-84658475D01*
X91179240Y-85086808D01*
X91421078Y-85315749D01*
X91553240Y-85618120D01*
X91402577Y-86004508D01*
X91234318Y-86365426D01*
X91174829Y-86653960D01*
X91183101Y-86689600D01*
X91093038Y-86798867D01*
X90725061Y-86666807D01*
X90048095Y-86283197D01*
X89661066Y-86029441D01*
X89446775Y-85782419D01*
X89636634Y-85620482D01*
X90243590Y-85491175D01*
X90293017Y-85479941D01*
X90370942Y-85365849D01*
X90208138Y-85114444D01*
X89770682Y-84685282D01*
X89024652Y-84037921D01*
X88548348Y-83630745D01*
X87961233Y-83112005D01*
X87570924Y-82745053D01*
X87444119Y-82590952D01*
X87458155Y-82590588D01*
X87731378Y-82703721D01*
G37*
G36*
X98208833Y-88562776D02*
G01*
X98845111Y-88948096D01*
X99689154Y-89455359D01*
X98978956Y-89692471D01*
X98268758Y-89929583D01*
X99529043Y-91075241D01*
X99749320Y-91275483D01*
X101229882Y-92621383D01*
X99292594Y-91610337D01*
X99109524Y-91514806D01*
X97816652Y-90838606D01*
X96868569Y-90331525D01*
X96451673Y-90091305D01*
X97268202Y-90091305D01*
X97457977Y-90285600D01*
X98013373Y-90634978D01*
X98187847Y-90734828D01*
X98664633Y-90983032D01*
X98928203Y-91081892D01*
X98954439Y-91075241D01*
X98873844Y-90932345D01*
X98573701Y-90668664D01*
X98170086Y-90371247D01*
X97779075Y-90127143D01*
X97516747Y-90023401D01*
X97420967Y-90023669D01*
X97268202Y-90091305D01*
X96451673Y-90091305D01*
X96233758Y-89965740D01*
X95880704Y-89713427D01*
X95777891Y-89546763D01*
X95893801Y-89437924D01*
X96196920Y-89359087D01*
X96655730Y-89282427D01*
X96897341Y-89242168D01*
X97309803Y-89144738D01*
X97379032Y-89028087D01*
X97166867Y-88838511D01*
X96947075Y-88604057D01*
X96928882Y-88443511D01*
X97070500Y-88443511D01*
X97247679Y-88521607D01*
X97361634Y-88506203D01*
X97391182Y-88379310D01*
X97359632Y-88353765D01*
X97104176Y-88379310D01*
X97070500Y-88443511D01*
X96928882Y-88443511D01*
X96899992Y-88188571D01*
X96969920Y-88037631D01*
X97151915Y-87950216D01*
X97518939Y-88137929D01*
X97647395Y-88218055D01*
X97910027Y-88379310D01*
X98208833Y-88562776D01*
G37*
G36*
X92937998Y-89591651D02*
G01*
X92805619Y-89709584D01*
X92921133Y-89895850D01*
X93119707Y-89930521D01*
X93282923Y-89705114D01*
X93301562Y-89278815D01*
X93150430Y-88774803D01*
X92991862Y-88434608D01*
X92801229Y-87894101D01*
X92860739Y-87700960D01*
X93172733Y-87853500D01*
X93739550Y-88350033D01*
X93825196Y-88432600D01*
X94127311Y-88750601D01*
X94311756Y-89059039D01*
X94407563Y-89467026D01*
X94443759Y-90083676D01*
X94449374Y-91018100D01*
X94449142Y-91140225D01*
X94419174Y-92178760D01*
X94338521Y-92798442D01*
X94206608Y-93003960D01*
X94174091Y-93008177D01*
X94055638Y-93251555D01*
X94104698Y-93877419D01*
X94156394Y-94269981D01*
X94134021Y-94613114D01*
X93970769Y-94659215D01*
X93888650Y-94605961D01*
X93829247Y-94416775D01*
X93911238Y-94498078D01*
X94018865Y-94391355D01*
X93911238Y-94284633D01*
X93817074Y-94378005D01*
X93766804Y-94217909D01*
X93817926Y-93542469D01*
X94039413Y-92655577D01*
X94135901Y-92134934D01*
X94186688Y-91413087D01*
X94193641Y-90616349D01*
X94159014Y-89869817D01*
X94085063Y-89298585D01*
X93974041Y-89027750D01*
X93950437Y-89029434D01*
X93875628Y-89277451D01*
X93823305Y-89832432D01*
X93803611Y-90600775D01*
X93775471Y-91469321D01*
X93685614Y-92174378D01*
X93544534Y-92535146D01*
X93381560Y-92810585D01*
X93275467Y-93325675D01*
X93214158Y-93666335D01*
X93107467Y-93756684D01*
X93157848Y-93644296D01*
X93142314Y-93531299D01*
X93014345Y-93502000D01*
X92988584Y-93533284D01*
X93014286Y-93786007D01*
X92975386Y-93765273D01*
X92888465Y-93462454D01*
X92996302Y-93011444D01*
X93270442Y-92571628D01*
X93332061Y-92488622D01*
X93519439Y-91934439D01*
X93588357Y-91126205D01*
X93587847Y-90993417D01*
X93556503Y-90408973D01*
X93457123Y-90155801D01*
X93262651Y-90153058D01*
X93100028Y-90138962D01*
X92692408Y-89895867D01*
X92199706Y-89467667D01*
X91723194Y-88956601D01*
X91364144Y-88464903D01*
X91223828Y-88094811D01*
X91236273Y-87967110D01*
X91242974Y-87934633D01*
X91441605Y-87934633D01*
X91481042Y-88073286D01*
X91691867Y-88433487D01*
X92008486Y-88855268D01*
X92343744Y-89235107D01*
X92610484Y-89469486D01*
X92721549Y-89454885D01*
X92669294Y-89276628D01*
X92394662Y-88940436D01*
X92225966Y-88735758D01*
X92171662Y-88383248D01*
X92191987Y-88253224D01*
X92020017Y-88150638D01*
X91914934Y-88147046D01*
X91812509Y-87934633D01*
X91816117Y-87828955D01*
X91651069Y-87667826D01*
X91571732Y-87686917D01*
X91441605Y-87934633D01*
X91242974Y-87934633D01*
X91340679Y-87461114D01*
X91515875Y-86816663D01*
X91560565Y-86671852D01*
X91784487Y-86128125D01*
X92087718Y-85840724D01*
X92600599Y-85672123D01*
X92736964Y-85642643D01*
X93256266Y-85579832D01*
X93538650Y-85626380D01*
X93588520Y-85721004D01*
X93499985Y-86044062D01*
X93202756Y-86375475D01*
X92811895Y-86566415D01*
X92592629Y-86598761D01*
X92547730Y-86539153D01*
X92834967Y-86287833D01*
X93091386Y-86075115D01*
X93123136Y-86011855D01*
X92809456Y-86154423D01*
X92492612Y-86261078D01*
X92217506Y-86237347D01*
X92177662Y-86206936D01*
X92081577Y-86308890D01*
X92114401Y-86440829D01*
X92345255Y-86776683D01*
X92500930Y-87068459D01*
X92343431Y-87459708D01*
X92216009Y-87735906D01*
X92295007Y-87881271D01*
X92419119Y-87956527D01*
X92512086Y-88297556D01*
X92560531Y-88547997D01*
X92819677Y-88884531D01*
X92961415Y-88977274D01*
X93152630Y-89296074D01*
X93037310Y-89454885D01*
X92937998Y-89591651D01*
G37*
%TD*%
M02*
