%TF.GenerationSoftware,KiCad,Pcbnew,9.0.2*%
%TF.CreationDate,2026-03-12T21:09:41-06:00*%
%TF.ProjectId,Balloon_Sat,42616c6c-6f6f-46e5-9f53-61742e6b6963,rev?*%
%TF.SameCoordinates,Original*%
%TF.FileFunction,Copper,L2,Bot*%
%TF.FilePolarity,Positive*%
%FSLAX46Y46*%
G04 Gerber Fmt 4.6, Leading zero omitted, Abs format (unit mm)*
G04 Created by KiCad (PCBNEW 9.0.2) date 2026-03-12 21:09:41*
%MOMM*%
%LPD*%
G01*
G04 APERTURE LIST*
G04 Aperture macros list*
%AMRoundRect*
0 Rectangle with rounded corners*
0 $1 Rounding radius*
0 $2 $3 $4 $5 $6 $7 $8 $9 X,Y pos of 4 corners*
0 Add a 4 corners polygon primitive as box body*
4,1,4,$2,$3,$4,$5,$6,$7,$8,$9,$2,$3,0*
0 Add four circle primitives for the rounded corners*
1,1,$1+$1,$2,$3*
1,1,$1+$1,$4,$5*
1,1,$1+$1,$6,$7*
1,1,$1+$1,$8,$9*
0 Add four rect primitives between the rounded corners*
20,1,$1+$1,$2,$3,$4,$5,0*
20,1,$1+$1,$4,$5,$6,$7,0*
20,1,$1+$1,$6,$7,$8,$9,0*
20,1,$1+$1,$8,$9,$2,$3,0*%
G04 Aperture macros list end*
%TA.AperFunction,ComponentPad*%
%ADD10R,1.700000X1.700000*%
%TD*%
%TA.AperFunction,ComponentPad*%
%ADD11C,1.700000*%
%TD*%
%TA.AperFunction,ComponentPad*%
%ADD12RoundRect,0.250000X-0.625000X0.350000X-0.625000X-0.350000X0.625000X-0.350000X0.625000X0.350000X0*%
%TD*%
%TA.AperFunction,ComponentPad*%
%ADD13O,1.750000X1.200000*%
%TD*%
%TA.AperFunction,ComponentPad*%
%ADD14C,1.600000*%
%TD*%
%TA.AperFunction,ComponentPad*%
%ADD15O,2.400000X1.600000*%
%TD*%
%TA.AperFunction,ComponentPad*%
%ADD16RoundRect,0.250000X-0.950000X-0.550000X0.950000X-0.550000X0.950000X0.550000X-0.950000X0.550000X0*%
%TD*%
%TA.AperFunction,ComponentPad*%
%ADD17C,1.800000*%
%TD*%
%TA.AperFunction,ComponentPad*%
%ADD18R,1.800000X1.800000*%
%TD*%
%TA.AperFunction,ComponentPad*%
%ADD19O,1.700000X1.700000*%
%TD*%
%TA.AperFunction,ViaPad*%
%ADD20C,0.600000*%
%TD*%
%TA.AperFunction,Conductor*%
%ADD21C,0.250000*%
%TD*%
G04 APERTURE END LIST*
D10*
%TO.P,J5,1,Pin_1*%
%TO.N,unconnected-(J5-Pin_1-Pad1)*%
X149000000Y-78285000D03*
D11*
%TO.P,J5,2,Pin_2*%
%TO.N,GND*%
X149000000Y-80825000D03*
%TO.P,J5,3,Pin_3*%
%TO.N,+3V3*%
X149000000Y-83365000D03*
%TO.P,J5,4,Pin_4*%
%TO.N,unconnected-(J5-Pin_4-Pad4)*%
X149000000Y-85905000D03*
%TO.P,J5,5,Pin_5*%
%TO.N,Net-(J5-Pin_5)*%
X149000000Y-88445000D03*
%TO.P,J5,6,Pin_6*%
%TO.N,unconnected-(J5-Pin_6-Pad6)*%
X149000000Y-90985000D03*
%TD*%
D10*
%TO.P,J8,1,Pin_1*%
%TO.N,Net-(J5-Pin_5)*%
X163875000Y-54875000D03*
D11*
%TO.P,J8,2,Pin_2*%
%TO.N,/JMP*%
X161335000Y-54875000D03*
%TD*%
D12*
%TO.P,J7,1,V+*%
%TO.N,+3V3*%
X107025000Y-87975000D03*
D13*
%TO.P,J7,2,Signal*%
%TO.N,/EXT_TEMP*%
X107025000Y-89975000D03*
%TO.P,J7,3,GND*%
%TO.N,GND*%
X107025000Y-91975000D03*
%TD*%
D14*
%TO.P,C2,2*%
%TO.N,GND*%
X118975000Y-79075000D03*
%TO.P,C2,1*%
%TO.N,/PRES*%
X118975000Y-84075000D03*
%TD*%
D15*
%TO.P,U2,6,NC*%
%TO.N,unconnected-(U2-NC-Pad6)*%
X136210000Y-84092500D03*
%TO.P,U2,5,NC*%
%TO.N,unconnected-(U2-NC-Pad5)*%
X136210000Y-81552500D03*
%TO.P,U2,4,NC*%
%TO.N,unconnected-(U2-NC-Pad4)*%
X136210000Y-79012500D03*
D16*
%TO.P,U2,3,GND*%
%TO.N,GND*%
X124760000Y-79012500D03*
D15*
%TO.P,U2,2,Vout*%
%TO.N,/PRES*%
X124760000Y-81552500D03*
%TO.P,U2,1,Vcc*%
%TO.N,+5V*%
X124760000Y-84092500D03*
%TD*%
D14*
%TO.P,R6,2*%
%TO.N,Net-(D6-A)*%
X140900000Y-60455000D03*
%TO.P,R6,1*%
%TO.N,/YLW*%
X140900000Y-52835000D03*
%TD*%
D10*
%TO.P,J6,1,Pin_1*%
%TO.N,unconnected-(J6-Pin_1-Pad1)*%
X112120000Y-54600000D03*
D11*
%TO.P,J6,2,Pin_2*%
%TO.N,/INT*%
X114660000Y-54600000D03*
%TO.P,J6,3,Pin_3*%
%TO.N,unconnected-(J6-Pin_3-Pad3)*%
X117200000Y-54600000D03*
%TO.P,J6,4,Pin_4*%
%TO.N,unconnected-(J6-Pin_4-Pad4)*%
X119740000Y-54600000D03*
%TO.P,J6,5,Pin_5*%
%TO.N,/SDA*%
X122280000Y-54600000D03*
%TO.P,J6,6,Pin_6*%
%TO.N,/SCL*%
X124820000Y-54600000D03*
%TO.P,J6,7,Pin_7*%
%TO.N,GND*%
X127360000Y-54600000D03*
%TO.P,J6,8,Pin_8*%
%TO.N,+3V3*%
X129900000Y-54600000D03*
%TO.P,J6,9,Pin_9*%
%TO.N,unconnected-(J6-Pin_9-Pad9)*%
X132440000Y-54600000D03*
%TD*%
D17*
%TO.P,D3,2,A*%
%TO.N,Net-(D3-A)*%
X145625000Y-65370000D03*
D18*
%TO.P,D3,1,K*%
%TO.N,GND*%
X145625000Y-67910000D03*
%TD*%
D17*
%TO.P,D2,2,A*%
%TO.N,Net-(D2-A)*%
X152300000Y-65395000D03*
D18*
%TO.P,D2,1,K*%
%TO.N,GND*%
X152300000Y-67935000D03*
%TD*%
D17*
%TO.P,D1,2,A*%
%TO.N,Net-(D1-A)*%
X159000000Y-65370000D03*
D18*
%TO.P,D1,1,K*%
%TO.N,GND*%
X159000000Y-67910000D03*
%TD*%
D17*
%TO.P,D4,2,A*%
%TO.N,Net-(D4-A)*%
X139025000Y-65360000D03*
D18*
%TO.P,D4,1,K*%
%TO.N,GND*%
X139025000Y-67900000D03*
%TD*%
D14*
%TO.P,R5,1*%
%TO.N,/RED*%
X144275000Y-52865000D03*
%TO.P,R5,2*%
%TO.N,Net-(D5-A)*%
X144275000Y-60485000D03*
%TD*%
%TO.P,R3,1*%
%TO.N,/GREEN*%
X151025000Y-52715000D03*
%TO.P,R3,2*%
%TO.N,Net-(D3-A)*%
X151025000Y-60335000D03*
%TD*%
%TO.P,R2,1*%
%TO.N,/WHITE*%
X154400000Y-52805000D03*
%TO.P,R2,2*%
%TO.N,Net-(D2-A)*%
X154400000Y-60425000D03*
%TD*%
%TO.P,R1,1*%
%TO.N,/BLUE*%
X157775000Y-52745000D03*
%TO.P,R1,2*%
%TO.N,Net-(D1-A)*%
X157775000Y-60365000D03*
%TD*%
D10*
%TO.P,J1,1,Pin_1*%
%TO.N,unconnected-(J1-Pin_1-Pad1)*%
X127940000Y-97460000D03*
D19*
%TO.P,J1,2,Pin_2*%
%TO.N,/IOREF*%
X130480000Y-97460000D03*
%TO.P,J1,3,Pin_3*%
%TO.N,/~{RESET}*%
X133020000Y-97460000D03*
%TO.P,J1,4,Pin_4*%
%TO.N,+3V3*%
X135560000Y-97460000D03*
%TO.P,J1,5,Pin_5*%
%TO.N,+5V*%
X138100000Y-97460000D03*
%TO.P,J1,6,Pin_6*%
%TO.N,GND*%
X140640000Y-97460000D03*
%TO.P,J1,7,Pin_7*%
X143180000Y-97460000D03*
%TO.P,J1,8,Pin_8*%
%TO.N,VCC*%
X145720000Y-97460000D03*
%TD*%
D10*
%TO.P,J3,1,Pin_1*%
%TO.N,/EXT_TEMP*%
X150800000Y-97460000D03*
D19*
%TO.P,J3,2,Pin_2*%
%TO.N,/PRES*%
X153340000Y-97460000D03*
%TO.P,J3,3,Pin_3*%
%TO.N,unconnected-(J3-Pin_3-Pad3)*%
X155880000Y-97460000D03*
%TO.P,J3,4,Pin_4*%
%TO.N,unconnected-(J3-Pin_4-Pad4)*%
X158420000Y-97460000D03*
%TO.P,J3,5,Pin_5*%
%TO.N,unconnected-(J3-Pin_5-Pad5)*%
X160960000Y-97460000D03*
%TO.P,J3,6,Pin_6*%
%TO.N,unconnected-(J3-Pin_6-Pad6)*%
X163500000Y-97460000D03*
%TD*%
D10*
%TO.P,J2,1,Pin_1*%
%TO.N,/SCL*%
X118796000Y-49200000D03*
D19*
%TO.P,J2,2,Pin_2*%
%TO.N,/SDA*%
X121336000Y-49200000D03*
%TO.P,J2,3,Pin_3*%
%TO.N,/AREF*%
X123876000Y-49200000D03*
%TO.P,J2,4,Pin_4*%
%TO.N,GND*%
X126416000Y-49200000D03*
%TO.P,J2,5,Pin_5*%
%TO.N,unconnected-(J2-Pin_5-Pad5)*%
X128956000Y-49200000D03*
%TO.P,J2,6,Pin_6*%
%TO.N,unconnected-(J2-Pin_6-Pad6)*%
X131496000Y-49200000D03*
%TO.P,J2,7,Pin_7*%
%TO.N,unconnected-(J2-Pin_7-Pad7)*%
X134036000Y-49200000D03*
%TO.P,J2,8,Pin_8*%
%TO.N,unconnected-(J2-Pin_8-Pad8)*%
X136576000Y-49200000D03*
%TO.P,J2,9,Pin_9*%
%TO.N,unconnected-(J2-Pin_9-Pad9)*%
X139116000Y-49200000D03*
%TO.P,J2,10,Pin_10*%
%TO.N,/YLW*%
X141656000Y-49200000D03*
%TD*%
D10*
%TO.P,J4,1,Pin_1*%
%TO.N,/RED*%
X145720000Y-49200000D03*
D19*
%TO.P,J4,2,Pin_2*%
%TO.N,/RED2*%
X148260000Y-49200000D03*
%TO.P,J4,3,Pin_3*%
%TO.N,/GREEN*%
X150800000Y-49200000D03*
%TO.P,J4,4,Pin_4*%
%TO.N,/WHITE*%
X153340000Y-49200000D03*
%TO.P,J4,5,Pin_5*%
%TO.N,/INT*%
X155880000Y-49200000D03*
%TO.P,J4,6,Pin_6*%
%TO.N,/BLUE*%
X158420000Y-49200000D03*
%TO.P,J4,7,Pin_7*%
%TO.N,/JMP*%
X160960000Y-49200000D03*
%TO.P,J4,8,Pin_8*%
%TO.N,/RX{slash}0*%
X163500000Y-49200000D03*
%TD*%
D18*
%TO.P,D6,1,K*%
%TO.N,GND*%
X103425000Y-73350000D03*
D17*
%TO.P,D6,2,A*%
%TO.N,Net-(D6-A)*%
X103425000Y-70810000D03*
%TD*%
D18*
%TO.P,D5,1,K*%
%TO.N,GND*%
X103425000Y-81475000D03*
D17*
%TO.P,D5,2,A*%
%TO.N,Net-(D5-A)*%
X103425000Y-78935000D03*
%TD*%
D14*
%TO.P,R4,1*%
%TO.N,/RED2*%
X147650000Y-52775000D03*
%TO.P,R4,2*%
%TO.N,Net-(D4-A)*%
X147650000Y-60395000D03*
%TD*%
%TO.P,C1,2*%
%TO.N,GND*%
X116375000Y-79050000D03*
%TO.P,C1,1*%
%TO.N,+5V*%
X116375000Y-84050000D03*
%TD*%
%TO.P,C3,1*%
%TO.N,+3V3*%
X103900000Y-54700000D03*
%TO.P,C3,2*%
%TO.N,GND*%
X103900000Y-49700000D03*
%TD*%
D20*
%TO.N,Net-(D6-A)*%
X109500000Y-70650000D03*
X115450000Y-70825000D03*
%TO.N,Net-(D5-A)*%
X109525000Y-73275000D03*
X115450000Y-73250000D03*
%TD*%
D21*
%TO.N,Net-(D6-A)*%
X115450000Y-70825000D02*
X109675000Y-70825000D01*
X109675000Y-70825000D02*
X109500000Y-70650000D01*
%TO.N,Net-(D5-A)*%
X109550000Y-73250000D02*
X109525000Y-73275000D01*
X115450000Y-73250000D02*
X109550000Y-73250000D01*
%TD*%
%TA.AperFunction,Conductor*%
%TO.N,GND*%
G36*
X142714075Y-97267007D02*
G01*
X142680000Y-97394174D01*
X142680000Y-97525826D01*
X142714075Y-97652993D01*
X142746988Y-97710000D01*
X141073012Y-97710000D01*
X141105925Y-97652993D01*
X141140000Y-97525826D01*
X141140000Y-97394174D01*
X141105925Y-97267007D01*
X141073012Y-97210000D01*
X142746988Y-97210000D01*
X142714075Y-97267007D01*
G37*
%TD.AperFunction*%
%TA.AperFunction,Conductor*%
G36*
X165907539Y-46755185D02*
G01*
X165953294Y-46807989D01*
X165964500Y-46859500D01*
X165964500Y-49184982D01*
X165964500Y-59344982D01*
X165964500Y-59375018D01*
X165975994Y-59402767D01*
X165975995Y-59402768D01*
X168468181Y-61894954D01*
X168501666Y-61956277D01*
X168504500Y-61982635D01*
X168504500Y-96107364D01*
X168484815Y-96174403D01*
X168468181Y-96195045D01*
X165997233Y-98665994D01*
X165975995Y-98687231D01*
X165964500Y-98714982D01*
X165964500Y-99231907D01*
X165963903Y-99244061D01*
X165963903Y-99244062D01*
X165952505Y-99359778D01*
X165947763Y-99383618D01*
X165917832Y-99482290D01*
X165915789Y-99489024D01*
X165906486Y-99511482D01*
X165854561Y-99608627D01*
X165841056Y-99628839D01*
X165771176Y-99713988D01*
X165753988Y-99731176D01*
X165668839Y-99801056D01*
X165648627Y-99814561D01*
X165551482Y-99866486D01*
X165529028Y-99875787D01*
X165487028Y-99888528D01*
X165423618Y-99907763D01*
X165399778Y-99912505D01*
X165291162Y-99923203D01*
X165284060Y-99923903D01*
X165271907Y-99924500D01*
X100768093Y-99924500D01*
X100755939Y-99923903D01*
X100747995Y-99923120D01*
X100640221Y-99912505D01*
X100616381Y-99907763D01*
X100599445Y-99902625D01*
X100510968Y-99875786D01*
X100488517Y-99866486D01*
X100391372Y-99814561D01*
X100371160Y-99801056D01*
X100286011Y-99731176D01*
X100268823Y-99713988D01*
X100198943Y-99628839D01*
X100185438Y-99608627D01*
X100133510Y-99511476D01*
X100124215Y-99489037D01*
X100092234Y-99383612D01*
X100087494Y-99359777D01*
X100076097Y-99244061D01*
X100075500Y-99231907D01*
X100075500Y-96561345D01*
X126581500Y-96561345D01*
X126581500Y-98358654D01*
X126588011Y-98419202D01*
X126588011Y-98419204D01*
X126639111Y-98556204D01*
X126726739Y-98673261D01*
X126843796Y-98760889D01*
X126980799Y-98811989D01*
X127008050Y-98814918D01*
X127041345Y-98818499D01*
X127041362Y-98818500D01*
X128838638Y-98818500D01*
X128838654Y-98818499D01*
X128865692Y-98815591D01*
X128899201Y-98811989D01*
X129036204Y-98760889D01*
X129153261Y-98673261D01*
X129240889Y-98556204D01*
X129285957Y-98435371D01*
X129327827Y-98379442D01*
X129393291Y-98355025D01*
X129461564Y-98369877D01*
X129489818Y-98391028D01*
X129594996Y-98496206D01*
X129767991Y-98621894D01*
X129854542Y-98665994D01*
X129958516Y-98718972D01*
X129958519Y-98718973D01*
X130060200Y-98752010D01*
X130161884Y-98785049D01*
X130373084Y-98818500D01*
X130373085Y-98818500D01*
X130586915Y-98818500D01*
X130586916Y-98818500D01*
X130798116Y-98785049D01*
X131001483Y-98718972D01*
X131192009Y-98621894D01*
X131365004Y-98496206D01*
X131516206Y-98345004D01*
X131641894Y-98172009D01*
X131641896Y-98172004D01*
X131644270Y-98168132D01*
X131696080Y-98121254D01*
X131765009Y-98109829D01*
X131829173Y-98137483D01*
X131855730Y-98168132D01*
X131858103Y-98172005D01*
X131858105Y-98172008D01*
X131858106Y-98172009D01*
X131983794Y-98345004D01*
X132134996Y-98496206D01*
X132307991Y-98621894D01*
X132394542Y-98665994D01*
X132498516Y-98718972D01*
X132498519Y-98718973D01*
X132600200Y-98752010D01*
X132701884Y-98785049D01*
X132913084Y-98818500D01*
X132913085Y-98818500D01*
X133126915Y-98818500D01*
X133126916Y-98818500D01*
X133338116Y-98785049D01*
X133541483Y-98718972D01*
X133732009Y-98621894D01*
X133905004Y-98496206D01*
X134056206Y-98345004D01*
X134181894Y-98172009D01*
X134181896Y-98172004D01*
X134184270Y-98168132D01*
X134236080Y-98121254D01*
X134305009Y-98109829D01*
X134369173Y-98137483D01*
X134395730Y-98168132D01*
X134398103Y-98172005D01*
X134398105Y-98172008D01*
X134398106Y-98172009D01*
X134523794Y-98345004D01*
X134674996Y-98496206D01*
X134847991Y-98621894D01*
X134934542Y-98665994D01*
X135038516Y-98718972D01*
X135038519Y-98718973D01*
X135140200Y-98752010D01*
X135241884Y-98785049D01*
X135453084Y-98818500D01*
X135453085Y-98818500D01*
X135666915Y-98818500D01*
X135666916Y-98818500D01*
X135878116Y-98785049D01*
X136081483Y-98718972D01*
X136272009Y-98621894D01*
X136445004Y-98496206D01*
X136596206Y-98345004D01*
X136721894Y-98172009D01*
X136721896Y-98172004D01*
X136724270Y-98168132D01*
X136776080Y-98121254D01*
X136845009Y-98109829D01*
X136909173Y-98137483D01*
X136935730Y-98168132D01*
X136938103Y-98172005D01*
X136938105Y-98172008D01*
X136938106Y-98172009D01*
X137063794Y-98345004D01*
X137214996Y-98496206D01*
X137387991Y-98621894D01*
X137474542Y-98665994D01*
X137578516Y-98718972D01*
X137578519Y-98718973D01*
X137680200Y-98752010D01*
X137781884Y-98785049D01*
X137993084Y-98818500D01*
X137993085Y-98818500D01*
X138206915Y-98818500D01*
X138206916Y-98818500D01*
X138418116Y-98785049D01*
X138621483Y-98718972D01*
X138812009Y-98621894D01*
X138985004Y-98496206D01*
X139136206Y-98345004D01*
X139261894Y-98172009D01*
X139264283Y-98167319D01*
X139312254Y-98116522D01*
X139380074Y-98099724D01*
X139446210Y-98122258D01*
X139482201Y-98163788D01*
X139482832Y-98163402D01*
X139485164Y-98167207D01*
X139485251Y-98167308D01*
X139485376Y-98167554D01*
X139610272Y-98339459D01*
X139610276Y-98339464D01*
X139760535Y-98489723D01*
X139760540Y-98489727D01*
X139932442Y-98614620D01*
X140121782Y-98711095D01*
X140323871Y-98776757D01*
X140390000Y-98787231D01*
X140390000Y-97893012D01*
X140447007Y-97925925D01*
X140574174Y-97960000D01*
X140705826Y-97960000D01*
X140832993Y-97925925D01*
X140890000Y-97893012D01*
X140890000Y-98787230D01*
X140956126Y-98776757D01*
X140956129Y-98776757D01*
X141158217Y-98711095D01*
X141347557Y-98614620D01*
X141519459Y-98489727D01*
X141519464Y-98489723D01*
X141669723Y-98339464D01*
X141669727Y-98339459D01*
X141794620Y-98167558D01*
X141799514Y-98157954D01*
X141847488Y-98107157D01*
X141915308Y-98090361D01*
X141981444Y-98112897D01*
X142020486Y-98157954D01*
X142025379Y-98167558D01*
X142150272Y-98339459D01*
X142150276Y-98339464D01*
X142300535Y-98489723D01*
X142300540Y-98489727D01*
X142472442Y-98614620D01*
X142661782Y-98711095D01*
X142863871Y-98776757D01*
X142930000Y-98787231D01*
X142930000Y-97893012D01*
X142987007Y-97925925D01*
X143114174Y-97960000D01*
X143245826Y-97960000D01*
X143372993Y-97925925D01*
X143430000Y-97893012D01*
X143430000Y-98787230D01*
X143496126Y-98776757D01*
X143496129Y-98776757D01*
X143698217Y-98711095D01*
X143887557Y-98614620D01*
X144059459Y-98489727D01*
X144059464Y-98489723D01*
X144209723Y-98339464D01*
X144209727Y-98339459D01*
X144334619Y-98167560D01*
X144334738Y-98167327D01*
X144334808Y-98167252D01*
X144337168Y-98163402D01*
X144337976Y-98163897D01*
X144382707Y-98116526D01*
X144450526Y-98099723D01*
X144516663Y-98122254D01*
X144555712Y-98167311D01*
X144558105Y-98172008D01*
X144600002Y-98229674D01*
X144683794Y-98345004D01*
X144834996Y-98496206D01*
X145007991Y-98621894D01*
X145094542Y-98665994D01*
X145198516Y-98718972D01*
X145198519Y-98718973D01*
X145300200Y-98752010D01*
X145401884Y-98785049D01*
X145613084Y-98818500D01*
X145613085Y-98818500D01*
X145826915Y-98818500D01*
X145826916Y-98818500D01*
X146038116Y-98785049D01*
X146241483Y-98718972D01*
X146432009Y-98621894D01*
X146605004Y-98496206D01*
X146756206Y-98345004D01*
X146881894Y-98172009D01*
X146978972Y-97981483D01*
X147045049Y-97778116D01*
X147078500Y-97566916D01*
X147078500Y-97353084D01*
X147045049Y-97141884D01*
X146978972Y-96938517D01*
X146978972Y-96938516D01*
X146923495Y-96829638D01*
X146881894Y-96747991D01*
X146756206Y-96574996D01*
X146742555Y-96561345D01*
X149441500Y-96561345D01*
X149441500Y-98358654D01*
X149448011Y-98419202D01*
X149448011Y-98419204D01*
X149499111Y-98556204D01*
X149586739Y-98673261D01*
X149703796Y-98760889D01*
X149840799Y-98811989D01*
X149868050Y-98814918D01*
X149901345Y-98818499D01*
X149901362Y-98818500D01*
X151698638Y-98818500D01*
X151698654Y-98818499D01*
X151725692Y-98815591D01*
X151759201Y-98811989D01*
X151896204Y-98760889D01*
X152013261Y-98673261D01*
X152100889Y-98556204D01*
X152145957Y-98435371D01*
X152187827Y-98379442D01*
X152253291Y-98355025D01*
X152321564Y-98369877D01*
X152349818Y-98391028D01*
X152454996Y-98496206D01*
X152627991Y-98621894D01*
X152714542Y-98665994D01*
X152818516Y-98718972D01*
X152818519Y-98718973D01*
X152920200Y-98752010D01*
X153021884Y-98785049D01*
X153233084Y-98818500D01*
X153233085Y-98818500D01*
X153446915Y-98818500D01*
X153446916Y-98818500D01*
X153658116Y-98785049D01*
X153861483Y-98718972D01*
X154052009Y-98621894D01*
X154225004Y-98496206D01*
X154376206Y-98345004D01*
X154501894Y-98172009D01*
X154501896Y-98172004D01*
X154504270Y-98168132D01*
X154556080Y-98121254D01*
X154625009Y-98109829D01*
X154689173Y-98137483D01*
X154715730Y-98168132D01*
X154718103Y-98172005D01*
X154718105Y-98172008D01*
X154718106Y-98172009D01*
X154843794Y-98345004D01*
X154994996Y-98496206D01*
X155167991Y-98621894D01*
X155254542Y-98665994D01*
X155358516Y-98718972D01*
X155358519Y-98718973D01*
X155460200Y-98752010D01*
X155561884Y-98785049D01*
X155773084Y-98818500D01*
X155773085Y-98818500D01*
X155986915Y-98818500D01*
X155986916Y-98818500D01*
X156198116Y-98785049D01*
X156401483Y-98718972D01*
X156592009Y-98621894D01*
X156765004Y-98496206D01*
X156916206Y-98345004D01*
X157041894Y-98172009D01*
X157041896Y-98172004D01*
X157044270Y-98168132D01*
X157096080Y-98121254D01*
X157165009Y-98109829D01*
X157229173Y-98137483D01*
X157255730Y-98168132D01*
X157258103Y-98172005D01*
X157258105Y-98172008D01*
X157258106Y-98172009D01*
X157383794Y-98345004D01*
X157534996Y-98496206D01*
X157707991Y-98621894D01*
X157794542Y-98665994D01*
X157898516Y-98718972D01*
X157898519Y-98718973D01*
X158000200Y-98752010D01*
X158101884Y-98785049D01*
X158313084Y-98818500D01*
X158313085Y-98818500D01*
X158526915Y-98818500D01*
X158526916Y-98818500D01*
X158738116Y-98785049D01*
X158941483Y-98718972D01*
X159132009Y-98621894D01*
X159305004Y-98496206D01*
X159456206Y-98345004D01*
X159581894Y-98172009D01*
X159581896Y-98172004D01*
X159584270Y-98168132D01*
X159636080Y-98121254D01*
X159705009Y-98109829D01*
X159769173Y-98137483D01*
X159795730Y-98168132D01*
X159798103Y-98172005D01*
X159798105Y-98172008D01*
X159798106Y-98172009D01*
X159923794Y-98345004D01*
X160074996Y-98496206D01*
X160247991Y-98621894D01*
X160334542Y-98665994D01*
X160438516Y-98718972D01*
X160438519Y-98718973D01*
X160540200Y-98752010D01*
X160641884Y-98785049D01*
X160853084Y-98818500D01*
X160853085Y-98818500D01*
X161066915Y-98818500D01*
X161066916Y-98818500D01*
X161278116Y-98785049D01*
X161481483Y-98718972D01*
X161672009Y-98621894D01*
X161845004Y-98496206D01*
X161996206Y-98345004D01*
X162121894Y-98172009D01*
X162121896Y-98172004D01*
X162124270Y-98168132D01*
X162176080Y-98121254D01*
X162245009Y-98109829D01*
X162309173Y-98137483D01*
X162335730Y-98168132D01*
X162338103Y-98172005D01*
X162338105Y-98172008D01*
X162338106Y-98172009D01*
X162463794Y-98345004D01*
X162614996Y-98496206D01*
X162787991Y-98621894D01*
X162874542Y-98665994D01*
X162978516Y-98718972D01*
X162978519Y-98718973D01*
X163080200Y-98752010D01*
X163181884Y-98785049D01*
X163393084Y-98818500D01*
X163393085Y-98818500D01*
X163606915Y-98818500D01*
X163606916Y-98818500D01*
X163818116Y-98785049D01*
X164021483Y-98718972D01*
X164212009Y-98621894D01*
X164385004Y-98496206D01*
X164536206Y-98345004D01*
X164661894Y-98172009D01*
X164758972Y-97981483D01*
X164825049Y-97778116D01*
X164858500Y-97566916D01*
X164858500Y-97353084D01*
X164825049Y-97141884D01*
X164758972Y-96938517D01*
X164758972Y-96938516D01*
X164703495Y-96829638D01*
X164661894Y-96747991D01*
X164536206Y-96574996D01*
X164385004Y-96423794D01*
X164212009Y-96298106D01*
X164021483Y-96201027D01*
X164021480Y-96201026D01*
X163818117Y-96134951D01*
X163712516Y-96118225D01*
X163606916Y-96101500D01*
X163393084Y-96101500D01*
X163322684Y-96112650D01*
X163181882Y-96134951D01*
X162978519Y-96201026D01*
X162978516Y-96201027D01*
X162787990Y-96298106D01*
X162614993Y-96423796D01*
X162463796Y-96574993D01*
X162338105Y-96747991D01*
X162335727Y-96751873D01*
X162283914Y-96798748D01*
X162214984Y-96810169D01*
X162150822Y-96782512D01*
X162124273Y-96751873D01*
X162121894Y-96747991D01*
X162121891Y-96747987D01*
X161996206Y-96574996D01*
X161845004Y-96423794D01*
X161672009Y-96298106D01*
X161481483Y-96201027D01*
X161481480Y-96201026D01*
X161278117Y-96134951D01*
X161172516Y-96118225D01*
X161066916Y-96101500D01*
X160853084Y-96101500D01*
X160782684Y-96112650D01*
X160641882Y-96134951D01*
X160438519Y-96201026D01*
X160438516Y-96201027D01*
X160247990Y-96298106D01*
X160074993Y-96423796D01*
X159923796Y-96574993D01*
X159798105Y-96747991D01*
X159795727Y-96751873D01*
X159743914Y-96798748D01*
X159674984Y-96810169D01*
X159610822Y-96782512D01*
X159584273Y-96751873D01*
X159581894Y-96747991D01*
X159581891Y-96747987D01*
X159456206Y-96574996D01*
X159305004Y-96423794D01*
X159132009Y-96298106D01*
X158941483Y-96201027D01*
X158941480Y-96201026D01*
X158738117Y-96134951D01*
X158632516Y-96118225D01*
X158526916Y-96101500D01*
X158313084Y-96101500D01*
X158242684Y-96112650D01*
X158101882Y-96134951D01*
X157898519Y-96201026D01*
X157898516Y-96201027D01*
X157707990Y-96298106D01*
X157534993Y-96423796D01*
X157383796Y-96574993D01*
X157258105Y-96747991D01*
X157255727Y-96751873D01*
X157203914Y-96798748D01*
X157134984Y-96810169D01*
X157070822Y-96782512D01*
X157044273Y-96751873D01*
X157041894Y-96747991D01*
X157041891Y-96747987D01*
X156916206Y-96574996D01*
X156765004Y-96423794D01*
X156592009Y-96298106D01*
X156401483Y-96201027D01*
X156401480Y-96201026D01*
X156198117Y-96134951D01*
X156092516Y-96118225D01*
X155986916Y-96101500D01*
X155773084Y-96101500D01*
X155702684Y-96112650D01*
X155561882Y-96134951D01*
X155358519Y-96201026D01*
X155358516Y-96201027D01*
X155167990Y-96298106D01*
X154994993Y-96423796D01*
X154843796Y-96574993D01*
X154718105Y-96747991D01*
X154715727Y-96751873D01*
X154663914Y-96798748D01*
X154594984Y-96810169D01*
X154530822Y-96782512D01*
X154504273Y-96751873D01*
X154501894Y-96747991D01*
X154501891Y-96747987D01*
X154376206Y-96574996D01*
X154225004Y-96423794D01*
X154052009Y-96298106D01*
X153861483Y-96201027D01*
X153861480Y-96201026D01*
X153658117Y-96134951D01*
X153552516Y-96118225D01*
X153446916Y-96101500D01*
X153233084Y-96101500D01*
X153162684Y-96112650D01*
X153021882Y-96134951D01*
X152818519Y-96201026D01*
X152818516Y-96201027D01*
X152627990Y-96298106D01*
X152454997Y-96423793D01*
X152349818Y-96528972D01*
X152288495Y-96562456D01*
X152218803Y-96557472D01*
X152162870Y-96515600D01*
X152145958Y-96484629D01*
X152100889Y-96363796D01*
X152013261Y-96246739D01*
X151896204Y-96159111D01*
X151895172Y-96158726D01*
X151759203Y-96108011D01*
X151698654Y-96101500D01*
X151698638Y-96101500D01*
X149901362Y-96101500D01*
X149901345Y-96101500D01*
X149840797Y-96108011D01*
X149840795Y-96108011D01*
X149703795Y-96159111D01*
X149586739Y-96246739D01*
X149499111Y-96363795D01*
X149448011Y-96500795D01*
X149448011Y-96500797D01*
X149441500Y-96561345D01*
X146742555Y-96561345D01*
X146605004Y-96423794D01*
X146432009Y-96298106D01*
X146241483Y-96201027D01*
X146241480Y-96201026D01*
X146038117Y-96134951D01*
X145932516Y-96118225D01*
X145826916Y-96101500D01*
X145613084Y-96101500D01*
X145542684Y-96112650D01*
X145401882Y-96134951D01*
X145198519Y-96201026D01*
X145198516Y-96201027D01*
X145007990Y-96298106D01*
X144834993Y-96423796D01*
X144683796Y-96574993D01*
X144558103Y-96747994D01*
X144555709Y-96752693D01*
X144507731Y-96803485D01*
X144439908Y-96820275D01*
X144373775Y-96797732D01*
X144337800Y-96756210D01*
X144337168Y-96756598D01*
X144334829Y-96752781D01*
X144334743Y-96752682D01*
X144334620Y-96752441D01*
X144209727Y-96580540D01*
X144209723Y-96580535D01*
X144059464Y-96430276D01*
X144059459Y-96430272D01*
X143887557Y-96305379D01*
X143698215Y-96208903D01*
X143496124Y-96143241D01*
X143430000Y-96132768D01*
X143430000Y-97026988D01*
X143372993Y-96994075D01*
X143245826Y-96960000D01*
X143114174Y-96960000D01*
X142987007Y-96994075D01*
X142930000Y-97026988D01*
X142930000Y-96132768D01*
X142929999Y-96132768D01*
X142863875Y-96143241D01*
X142661784Y-96208903D01*
X142472442Y-96305379D01*
X142300540Y-96430272D01*
X142300535Y-96430276D01*
X142150276Y-96580535D01*
X142150272Y-96580540D01*
X142025377Y-96752444D01*
X142020484Y-96762048D01*
X141972509Y-96812844D01*
X141904688Y-96829638D01*
X141838553Y-96807100D01*
X141799516Y-96762048D01*
X141794622Y-96752444D01*
X141669727Y-96580540D01*
X141669723Y-96580535D01*
X141519464Y-96430276D01*
X141519459Y-96430272D01*
X141347557Y-96305379D01*
X141158215Y-96208903D01*
X140956124Y-96143241D01*
X140890000Y-96132768D01*
X140890000Y-97026988D01*
X140832993Y-96994075D01*
X140705826Y-96960000D01*
X140574174Y-96960000D01*
X140447007Y-96994075D01*
X140390000Y-97026988D01*
X140390000Y-96132768D01*
X140389999Y-96132768D01*
X140323875Y-96143241D01*
X140121784Y-96208903D01*
X139932442Y-96305379D01*
X139760540Y-96430272D01*
X139760535Y-96430276D01*
X139610276Y-96580535D01*
X139610272Y-96580540D01*
X139485376Y-96752446D01*
X139485374Y-96752448D01*
X139485246Y-96752701D01*
X139485172Y-96752779D01*
X139482832Y-96756598D01*
X139482029Y-96756106D01*
X139437264Y-96803489D01*
X139369441Y-96820274D01*
X139303309Y-96797727D01*
X139264285Y-96752683D01*
X139261895Y-96747992D01*
X139230472Y-96704742D01*
X139136206Y-96574996D01*
X138985004Y-96423794D01*
X138812009Y-96298106D01*
X138621483Y-96201027D01*
X138621480Y-96201026D01*
X138418117Y-96134951D01*
X138312516Y-96118225D01*
X138206916Y-96101500D01*
X137993084Y-96101500D01*
X137922684Y-96112650D01*
X137781882Y-96134951D01*
X137578519Y-96201026D01*
X137578516Y-96201027D01*
X137387990Y-96298106D01*
X137214993Y-96423796D01*
X137063796Y-96574993D01*
X136938105Y-96747991D01*
X136935727Y-96751873D01*
X136883914Y-96798748D01*
X136814984Y-96810169D01*
X136750822Y-96782512D01*
X136724273Y-96751873D01*
X136721894Y-96747991D01*
X136721891Y-96747987D01*
X136596206Y-96574996D01*
X136445004Y-96423794D01*
X136272009Y-96298106D01*
X136081483Y-96201027D01*
X136081480Y-96201026D01*
X135878117Y-96134951D01*
X135772516Y-96118225D01*
X135666916Y-96101500D01*
X135453084Y-96101500D01*
X135382684Y-96112650D01*
X135241882Y-96134951D01*
X135038519Y-96201026D01*
X135038516Y-96201027D01*
X134847990Y-96298106D01*
X134674993Y-96423796D01*
X134523796Y-96574993D01*
X134398105Y-96747991D01*
X134395727Y-96751873D01*
X134343914Y-96798748D01*
X134274984Y-96810169D01*
X134210822Y-96782512D01*
X134184273Y-96751873D01*
X134181894Y-96747991D01*
X134181891Y-96747987D01*
X134056206Y-96574996D01*
X133905004Y-96423794D01*
X133732009Y-96298106D01*
X133541483Y-96201027D01*
X133541480Y-96201026D01*
X133338117Y-96134951D01*
X133232516Y-96118225D01*
X133126916Y-96101500D01*
X132913084Y-96101500D01*
X132842684Y-96112650D01*
X132701882Y-96134951D01*
X132498519Y-96201026D01*
X132498516Y-96201027D01*
X132307990Y-96298106D01*
X132134993Y-96423796D01*
X131983796Y-96574993D01*
X131858105Y-96747991D01*
X131855727Y-96751873D01*
X131803914Y-96798748D01*
X131734984Y-96810169D01*
X131670822Y-96782512D01*
X131644273Y-96751873D01*
X131641894Y-96747991D01*
X131641891Y-96747987D01*
X131516206Y-96574996D01*
X131365004Y-96423794D01*
X131192009Y-96298106D01*
X131001483Y-96201027D01*
X131001480Y-96201026D01*
X130798117Y-96134951D01*
X130692516Y-96118225D01*
X130586916Y-96101500D01*
X130373084Y-96101500D01*
X130302684Y-96112650D01*
X130161882Y-96134951D01*
X129958519Y-96201026D01*
X129958516Y-96201027D01*
X129767990Y-96298106D01*
X129594997Y-96423793D01*
X129489818Y-96528972D01*
X129428495Y-96562456D01*
X129358803Y-96557472D01*
X129302870Y-96515600D01*
X129285958Y-96484629D01*
X129240889Y-96363796D01*
X129153261Y-96246739D01*
X129036204Y-96159111D01*
X129035172Y-96158726D01*
X128899203Y-96108011D01*
X128838654Y-96101500D01*
X128838638Y-96101500D01*
X127041362Y-96101500D01*
X127041345Y-96101500D01*
X126980797Y-96108011D01*
X126980795Y-96108011D01*
X126843795Y-96159111D01*
X126726739Y-96246739D01*
X126639111Y-96363795D01*
X126588011Y-96500795D01*
X126588011Y-96500797D01*
X126581500Y-96561345D01*
X100075500Y-96561345D01*
X100075500Y-87574447D01*
X105641500Y-87574447D01*
X105641500Y-88375537D01*
X105641501Y-88375553D01*
X105652113Y-88479426D01*
X105707885Y-88647738D01*
X105800970Y-88798652D01*
X105926348Y-88924030D01*
X105982732Y-88958808D01*
X106029456Y-89010755D01*
X106040679Y-89079717D01*
X106012836Y-89143799D01*
X106005317Y-89152027D01*
X105904476Y-89252868D01*
X105801928Y-89394015D01*
X105722711Y-89549483D01*
X105722710Y-89549486D01*
X105668795Y-89715424D01*
X105641500Y-89887759D01*
X105641500Y-90062240D01*
X105668795Y-90234575D01*
X105722710Y-90400513D01*
X105722711Y-90400516D01*
X105801928Y-90555984D01*
X105904477Y-90697132D01*
X105904481Y-90697137D01*
X106027862Y-90820518D01*
X106027867Y-90820522D01*
X106109642Y-90879935D01*
X106152308Y-90935264D01*
X106158287Y-91004878D01*
X106125682Y-91066673D01*
X106109643Y-91080571D01*
X106033399Y-91135965D01*
X105910967Y-91258397D01*
X105809195Y-91398475D01*
X105730591Y-91552744D01*
X105677085Y-91717415D01*
X105675884Y-91724999D01*
X105675885Y-91725000D01*
X106744670Y-91725000D01*
X106724925Y-91744745D01*
X106675556Y-91830255D01*
X106650000Y-91925630D01*
X106650000Y-92024370D01*
X106675556Y-92119745D01*
X106724925Y-92205255D01*
X106744670Y-92225000D01*
X105675885Y-92225000D01*
X105677085Y-92232584D01*
X105730591Y-92397255D01*
X105809195Y-92551524D01*
X105910967Y-92691602D01*
X106033397Y-92814032D01*
X106173475Y-92915804D01*
X106327742Y-92994408D01*
X106492415Y-93047914D01*
X106663429Y-93075000D01*
X106775000Y-93075000D01*
X106775000Y-92255330D01*
X106794745Y-92275075D01*
X106880255Y-92324444D01*
X106975630Y-92350000D01*
X107074370Y-92350000D01*
X107169745Y-92324444D01*
X107255255Y-92275075D01*
X107275000Y-92255330D01*
X107275000Y-93075000D01*
X107386571Y-93075000D01*
X107557584Y-93047914D01*
X107722257Y-92994408D01*
X107876524Y-92915804D01*
X108016602Y-92814032D01*
X108139032Y-92691602D01*
X108240804Y-92551524D01*
X108319408Y-92397255D01*
X108372914Y-92232584D01*
X108374115Y-92225000D01*
X107305330Y-92225000D01*
X107325075Y-92205255D01*
X107374444Y-92119745D01*
X107400000Y-92024370D01*
X107400000Y-91925630D01*
X107374444Y-91830255D01*
X107325075Y-91744745D01*
X107305330Y-91725000D01*
X108374115Y-91725000D01*
X108374115Y-91724999D01*
X108372914Y-91717415D01*
X108319408Y-91552744D01*
X108240804Y-91398475D01*
X108139032Y-91258397D01*
X108016600Y-91135965D01*
X108016595Y-91135961D01*
X107940357Y-91080571D01*
X107897691Y-91025241D01*
X107891712Y-90955628D01*
X107924317Y-90893833D01*
X107940350Y-90879939D01*
X108022139Y-90820517D01*
X108145517Y-90697139D01*
X108248074Y-90555981D01*
X108327288Y-90400516D01*
X108381205Y-90234574D01*
X108408500Y-90062241D01*
X108408500Y-89887759D01*
X108381205Y-89715426D01*
X108327288Y-89549484D01*
X108327288Y-89549483D01*
X108292497Y-89481203D01*
X108248074Y-89394019D01*
X108201565Y-89330004D01*
X108145522Y-89252867D01*
X108145518Y-89252862D01*
X108044683Y-89152027D01*
X108011198Y-89090704D01*
X108016182Y-89021012D01*
X108058054Y-88965079D01*
X108067261Y-88958812D01*
X108123652Y-88924030D01*
X108249030Y-88798652D01*
X108342115Y-88647738D01*
X108397887Y-88479426D01*
X108408500Y-88375545D01*
X108408499Y-87574456D01*
X108397887Y-87470574D01*
X108342115Y-87302262D01*
X108249030Y-87151348D01*
X108123652Y-87025970D01*
X108029898Y-86968142D01*
X107972740Y-86932886D01*
X107972735Y-86932884D01*
X107804427Y-86877113D01*
X107700545Y-86866500D01*
X106349462Y-86866500D01*
X106349446Y-86866501D01*
X106245572Y-86877113D01*
X106077264Y-86932884D01*
X106077259Y-86932886D01*
X105926346Y-87025971D01*
X105800971Y-87151346D01*
X105707886Y-87302259D01*
X105707884Y-87302264D01*
X105652113Y-87470572D01*
X105641500Y-87574447D01*
X100075500Y-87574447D01*
X100075500Y-83947019D01*
X115066500Y-83947019D01*
X115066500Y-84152981D01*
X115070460Y-84177981D01*
X115098719Y-84356408D01*
X115162367Y-84552294D01*
X115198890Y-84623972D01*
X115244852Y-84714178D01*
X115255873Y-84735806D01*
X115376926Y-84902423D01*
X115376930Y-84902428D01*
X115522571Y-85048069D01*
X115522576Y-85048073D01*
X115581073Y-85090573D01*
X115689197Y-85169129D01*
X115772602Y-85211626D01*
X115872705Y-85262632D01*
X115872707Y-85262632D01*
X115872710Y-85262634D01*
X115949646Y-85287632D01*
X116068591Y-85326280D01*
X116170305Y-85342390D01*
X116272019Y-85358500D01*
X116272020Y-85358500D01*
X116477980Y-85358500D01*
X116477981Y-85358500D01*
X116681408Y-85326280D01*
X116877290Y-85262634D01*
X117060803Y-85169129D01*
X117227430Y-85048068D01*
X117373068Y-84902430D01*
X117494129Y-84735803D01*
X117558146Y-84610162D01*
X117606119Y-84559367D01*
X117673940Y-84542572D01*
X117740075Y-84565109D01*
X117779114Y-84610162D01*
X117855871Y-84760804D01*
X117976926Y-84927423D01*
X117976930Y-84927428D01*
X118122571Y-85073069D01*
X118122576Y-85073073D01*
X118254783Y-85169126D01*
X118289197Y-85194129D01*
X118406128Y-85253709D01*
X118472705Y-85287632D01*
X118472707Y-85287632D01*
X118472710Y-85287634D01*
X118577707Y-85321749D01*
X118668591Y-85351280D01*
X118770305Y-85367390D01*
X118872019Y-85383500D01*
X118872020Y-85383500D01*
X119077980Y-85383500D01*
X119077981Y-85383500D01*
X119281408Y-85351280D01*
X119477290Y-85287634D01*
X119660803Y-85194129D01*
X119827430Y-85073068D01*
X119973068Y-84927430D01*
X120094129Y-84760803D01*
X120187634Y-84577290D01*
X120251280Y-84381408D01*
X120283500Y-84177981D01*
X120283500Y-83972019D01*
X120251280Y-83768592D01*
X120187634Y-83572710D01*
X120187632Y-83572707D01*
X120187632Y-83572705D01*
X120153709Y-83506128D01*
X120094129Y-83389197D01*
X120075963Y-83364193D01*
X119973073Y-83222576D01*
X119973069Y-83222571D01*
X119827428Y-83076930D01*
X119827423Y-83076926D01*
X119660806Y-82955873D01*
X119660805Y-82955872D01*
X119660803Y-82955871D01*
X119603496Y-82926671D01*
X119477294Y-82862367D01*
X119281408Y-82798719D01*
X119105794Y-82770905D01*
X119077981Y-82766500D01*
X118872019Y-82766500D01*
X118847550Y-82770375D01*
X118668591Y-82798719D01*
X118472705Y-82862367D01*
X118289193Y-82955873D01*
X118122576Y-83076926D01*
X118122571Y-83076930D01*
X117976930Y-83222571D01*
X117976926Y-83222576D01*
X117855873Y-83389193D01*
X117791854Y-83514836D01*
X117743879Y-83565632D01*
X117676058Y-83582427D01*
X117609923Y-83559889D01*
X117570884Y-83514836D01*
X117549014Y-83471915D01*
X117494129Y-83364197D01*
X117417034Y-83258084D01*
X117373073Y-83197576D01*
X117373069Y-83197571D01*
X117227428Y-83051930D01*
X117227423Y-83051926D01*
X117060806Y-82930873D01*
X117060805Y-82930872D01*
X117060803Y-82930871D01*
X116988334Y-82893946D01*
X116877294Y-82837367D01*
X116681408Y-82773719D01*
X116505794Y-82745905D01*
X116477981Y-82741500D01*
X116272019Y-82741500D01*
X116247550Y-82745375D01*
X116068591Y-82773719D01*
X115872705Y-82837367D01*
X115689193Y-82930873D01*
X115522576Y-83051926D01*
X115522571Y-83051930D01*
X115376930Y-83197571D01*
X115376926Y-83197576D01*
X115255873Y-83364193D01*
X115162367Y-83547705D01*
X115098719Y-83743591D01*
X115076088Y-83886483D01*
X115066500Y-83947019D01*
X100075500Y-83947019D01*
X100075500Y-78824149D01*
X102016500Y-78824149D01*
X102016500Y-79045851D01*
X102033363Y-79152317D01*
X102051182Y-79264824D01*
X102119693Y-79475680D01*
X102189393Y-79612473D01*
X102220343Y-79673215D01*
X102350657Y-79852576D01*
X102350659Y-79852578D01*
X102399077Y-79900996D01*
X102432562Y-79962319D01*
X102427578Y-80032011D01*
X102385706Y-80087944D01*
X102354731Y-80104858D01*
X102282915Y-80131644D01*
X102282906Y-80131649D01*
X102167812Y-80217809D01*
X102167809Y-80217812D01*
X102081649Y-80332906D01*
X102081645Y-80332913D01*
X102031403Y-80467620D01*
X102031401Y-80467627D01*
X102025000Y-80527155D01*
X102025000Y-81225000D01*
X103049722Y-81225000D01*
X103005667Y-81301306D01*
X102975000Y-81415756D01*
X102975000Y-81534244D01*
X103005667Y-81648694D01*
X103049722Y-81725000D01*
X102025000Y-81725000D01*
X102025000Y-82422844D01*
X102031401Y-82482372D01*
X102031403Y-82482379D01*
X102081645Y-82617086D01*
X102081649Y-82617093D01*
X102167809Y-82732187D01*
X102167812Y-82732190D01*
X102282906Y-82818350D01*
X102282913Y-82818354D01*
X102417620Y-82868596D01*
X102417627Y-82868598D01*
X102477155Y-82874999D01*
X102477172Y-82875000D01*
X103175000Y-82875000D01*
X103175000Y-81850277D01*
X103251306Y-81894333D01*
X103365756Y-81925000D01*
X103484244Y-81925000D01*
X103598694Y-81894333D01*
X103675000Y-81850277D01*
X103675000Y-82875000D01*
X104372828Y-82875000D01*
X104372844Y-82874999D01*
X104432372Y-82868598D01*
X104432379Y-82868596D01*
X104567086Y-82818354D01*
X104567093Y-82818350D01*
X104682187Y-82732190D01*
X104682190Y-82732187D01*
X104768350Y-82617093D01*
X104768354Y-82617086D01*
X104818596Y-82482379D01*
X104818598Y-82482372D01*
X104824999Y-82422844D01*
X104825000Y-82422827D01*
X104825000Y-81725000D01*
X103800278Y-81725000D01*
X103844333Y-81648694D01*
X103875000Y-81534244D01*
X103875000Y-81449519D01*
X123051500Y-81449519D01*
X123051500Y-81655480D01*
X123083719Y-81858908D01*
X123147367Y-82054794D01*
X123240873Y-82238306D01*
X123361926Y-82404923D01*
X123361930Y-82404928D01*
X123507571Y-82550569D01*
X123507576Y-82550573D01*
X123674195Y-82671628D01*
X123753459Y-82712016D01*
X123804254Y-82759990D01*
X123821049Y-82827811D01*
X123798511Y-82893946D01*
X123753459Y-82932984D01*
X123674195Y-82973371D01*
X123507576Y-83094426D01*
X123507571Y-83094430D01*
X123361930Y-83240071D01*
X123361926Y-83240076D01*
X123240873Y-83406693D01*
X123147367Y-83590205D01*
X123083719Y-83786091D01*
X123051500Y-83989519D01*
X123051500Y-84195480D01*
X123083719Y-84398908D01*
X123147367Y-84594794D01*
X123211671Y-84720996D01*
X123231954Y-84760803D01*
X123240873Y-84778306D01*
X123361926Y-84944923D01*
X123361930Y-84944928D01*
X123507571Y-85090569D01*
X123507576Y-85090573D01*
X123615696Y-85169126D01*
X123674197Y-85211629D01*
X123791128Y-85271209D01*
X123857705Y-85305132D01*
X123857707Y-85305132D01*
X123857710Y-85305134D01*
X123922791Y-85326280D01*
X124053591Y-85368780D01*
X124146529Y-85383500D01*
X124257019Y-85401000D01*
X124257020Y-85401000D01*
X125262980Y-85401000D01*
X125262981Y-85401000D01*
X125466408Y-85368780D01*
X125662290Y-85305134D01*
X125845803Y-85211629D01*
X126012430Y-85090568D01*
X126158068Y-84944930D01*
X126279129Y-84778303D01*
X126372634Y-84594790D01*
X126436280Y-84398908D01*
X126468500Y-84195481D01*
X126468500Y-83989519D01*
X126436280Y-83786092D01*
X126372634Y-83590210D01*
X126372632Y-83590207D01*
X126372632Y-83590205D01*
X126334229Y-83514836D01*
X126279129Y-83406697D01*
X126171156Y-83258084D01*
X126158073Y-83240076D01*
X126158069Y-83240071D01*
X126012428Y-83094430D01*
X126012423Y-83094426D01*
X125845806Y-82973373D01*
X125845805Y-82973372D01*
X125845803Y-82973371D01*
X125766540Y-82932984D01*
X125715745Y-82885010D01*
X125698950Y-82817189D01*
X125721487Y-82751054D01*
X125766541Y-82712015D01*
X125845803Y-82671629D01*
X126012430Y-82550568D01*
X126158068Y-82404930D01*
X126279129Y-82238303D01*
X126372634Y-82054790D01*
X126436280Y-81858908D01*
X126468500Y-81655481D01*
X126468500Y-81449519D01*
X126436280Y-81246092D01*
X126420879Y-81198694D01*
X126372632Y-81050205D01*
X126338709Y-80983628D01*
X126279129Y-80866697D01*
X126221056Y-80786766D01*
X126158073Y-80700076D01*
X126158069Y-80700071D01*
X126012428Y-80554430D01*
X126012423Y-80554426D01*
X125922398Y-80489019D01*
X125879732Y-80433689D01*
X125873753Y-80364076D01*
X125906359Y-80302281D01*
X125956280Y-80270995D01*
X126029117Y-80246859D01*
X126029124Y-80246856D01*
X126178345Y-80154815D01*
X126302315Y-80030845D01*
X126394356Y-79881624D01*
X126394358Y-79881619D01*
X126449505Y-79715197D01*
X126449506Y-79715190D01*
X126459999Y-79612486D01*
X126460000Y-79612473D01*
X126460000Y-79262500D01*
X125075686Y-79262500D01*
X125080080Y-79258106D01*
X125132741Y-79166894D01*
X125160000Y-79065161D01*
X125160000Y-78959839D01*
X125146517Y-78909519D01*
X134501500Y-78909519D01*
X134501500Y-79115480D01*
X134533719Y-79318908D01*
X134597367Y-79514794D01*
X134636422Y-79591442D01*
X134672977Y-79663185D01*
X134690873Y-79698306D01*
X134811926Y-79864923D01*
X134811930Y-79864928D01*
X134957571Y-80010569D01*
X134957576Y-80010573D01*
X135124195Y-80131628D01*
X135203459Y-80172016D01*
X135254254Y-80219990D01*
X135271049Y-80287811D01*
X135248511Y-80353946D01*
X135203459Y-80392984D01*
X135124195Y-80433371D01*
X134957576Y-80554426D01*
X134957571Y-80554430D01*
X134811930Y-80700071D01*
X134811926Y-80700076D01*
X134690873Y-80866693D01*
X134597367Y-81050205D01*
X134533719Y-81246091D01*
X134501500Y-81449519D01*
X134501500Y-81655480D01*
X134533719Y-81858908D01*
X134597367Y-82054794D01*
X134690873Y-82238306D01*
X134811926Y-82404923D01*
X134811930Y-82404928D01*
X134957571Y-82550569D01*
X134957576Y-82550573D01*
X135124195Y-82671628D01*
X135203459Y-82712016D01*
X135254254Y-82759990D01*
X135271049Y-82827811D01*
X135248511Y-82893946D01*
X135203459Y-82932984D01*
X135124195Y-82973371D01*
X134957576Y-83094426D01*
X134957571Y-83094430D01*
X134811930Y-83240071D01*
X134811926Y-83240076D01*
X134690873Y-83406693D01*
X134597367Y-83590205D01*
X134533719Y-83786091D01*
X134501500Y-83989519D01*
X134501500Y-84195480D01*
X134533719Y-84398908D01*
X134597367Y-84594794D01*
X134661671Y-84720996D01*
X134681954Y-84760803D01*
X134690873Y-84778306D01*
X134811926Y-84944923D01*
X134811930Y-84944928D01*
X134957571Y-85090569D01*
X134957576Y-85090573D01*
X135065696Y-85169126D01*
X135124197Y-85211629D01*
X135241128Y-85271209D01*
X135307705Y-85305132D01*
X135307707Y-85305132D01*
X135307710Y-85305134D01*
X135372791Y-85326280D01*
X135503591Y-85368780D01*
X135596529Y-85383500D01*
X135707019Y-85401000D01*
X135707020Y-85401000D01*
X136712980Y-85401000D01*
X136712981Y-85401000D01*
X136916408Y-85368780D01*
X137112290Y-85305134D01*
X137295803Y-85211629D01*
X137462430Y-85090568D01*
X137608068Y-84944930D01*
X137729129Y-84778303D01*
X137822634Y-84594790D01*
X137886280Y-84398908D01*
X137918500Y-84195481D01*
X137918500Y-83989519D01*
X137886280Y-83786092D01*
X137822634Y-83590210D01*
X137822632Y-83590207D01*
X137822632Y-83590205D01*
X137784229Y-83514836D01*
X137729129Y-83406697D01*
X137716412Y-83389193D01*
X137670571Y-83326097D01*
X137608073Y-83240076D01*
X137608069Y-83240071D01*
X137462428Y-83094430D01*
X137462423Y-83094426D01*
X137295806Y-82973373D01*
X137295805Y-82973372D01*
X137295803Y-82973371D01*
X137216540Y-82932984D01*
X137165745Y-82885010D01*
X137148950Y-82817189D01*
X137171487Y-82751054D01*
X137216541Y-82712015D01*
X137295803Y-82671629D01*
X137462430Y-82550568D01*
X137608068Y-82404930D01*
X137729129Y-82238303D01*
X137822634Y-82054790D01*
X137886280Y-81858908D01*
X137918500Y-81655481D01*
X137918500Y-81449519D01*
X137886280Y-81246092D01*
X137870879Y-81198694D01*
X137822632Y-81050205D01*
X137788709Y-80983628D01*
X137729129Y-80866697D01*
X137698834Y-80824999D01*
X137671057Y-80786766D01*
X137608073Y-80700076D01*
X137608069Y-80700071D01*
X137462428Y-80554430D01*
X137462423Y-80554426D01*
X137295806Y-80433373D01*
X137295805Y-80433372D01*
X137295803Y-80433371D01*
X137216540Y-80392984D01*
X137165745Y-80345010D01*
X137148950Y-80277189D01*
X137171487Y-80211054D01*
X137216541Y-80172015D01*
X137295803Y-80131629D01*
X137462430Y-80010568D01*
X137608068Y-79864930D01*
X137729129Y-79698303D01*
X137822634Y-79514790D01*
X137886280Y-79318908D01*
X137918500Y-79115481D01*
X137918500Y-78909519D01*
X137886280Y-78706092D01*
X137822634Y-78510210D01*
X137822632Y-78510207D01*
X137822632Y-78510205D01*
X137772862Y-78412528D01*
X137729129Y-78326697D01*
X137634743Y-78196785D01*
X137608073Y-78160076D01*
X137608069Y-78160071D01*
X137462428Y-78014430D01*
X137462423Y-78014426D01*
X137295806Y-77893373D01*
X137295805Y-77893372D01*
X137295803Y-77893371D01*
X137238496Y-77864171D01*
X137112294Y-77799867D01*
X136916408Y-77736219D01*
X136740794Y-77708405D01*
X136712981Y-77704000D01*
X135707019Y-77704000D01*
X135682550Y-77707875D01*
X135503591Y-77736219D01*
X135307705Y-77799867D01*
X135124193Y-77893373D01*
X134957576Y-78014426D01*
X134957571Y-78014430D01*
X134811930Y-78160071D01*
X134811926Y-78160076D01*
X134690873Y-78326693D01*
X134597367Y-78510205D01*
X134533719Y-78706091D01*
X134501500Y-78909519D01*
X125146517Y-78909519D01*
X125132741Y-78858106D01*
X125080080Y-78766894D01*
X125075686Y-78762500D01*
X126459999Y-78762500D01*
X126459999Y-78412528D01*
X126459998Y-78412513D01*
X126449505Y-78309802D01*
X126394358Y-78143380D01*
X126394356Y-78143375D01*
X126302315Y-77994154D01*
X126178345Y-77870184D01*
X126029124Y-77778143D01*
X126029119Y-77778141D01*
X125862697Y-77722994D01*
X125862690Y-77722993D01*
X125759986Y-77712500D01*
X125010000Y-77712500D01*
X125010000Y-78696814D01*
X125005606Y-78692420D01*
X124914394Y-78639759D01*
X124812661Y-78612500D01*
X124707339Y-78612500D01*
X124605606Y-78639759D01*
X124514394Y-78692420D01*
X124510000Y-78696814D01*
X124510000Y-77712500D01*
X123760028Y-77712500D01*
X123760012Y-77712501D01*
X123657302Y-77722994D01*
X123490880Y-77778141D01*
X123490875Y-77778143D01*
X123341654Y-77870184D01*
X123217684Y-77994154D01*
X123125643Y-78143375D01*
X123125641Y-78143380D01*
X123070494Y-78309802D01*
X123070493Y-78309809D01*
X123060000Y-78412513D01*
X123060000Y-78762500D01*
X124444314Y-78762500D01*
X124439920Y-78766894D01*
X124387259Y-78858106D01*
X124360000Y-78959839D01*
X124360000Y-79065161D01*
X124387259Y-79166894D01*
X124439920Y-79258106D01*
X124444314Y-79262500D01*
X123060001Y-79262500D01*
X123060001Y-79612486D01*
X123070494Y-79715197D01*
X123125641Y-79881619D01*
X123125643Y-79881624D01*
X123217684Y-80030845D01*
X123341654Y-80154815D01*
X123490875Y-80246856D01*
X123490882Y-80246859D01*
X123563720Y-80270995D01*
X123621166Y-80310767D01*
X123647989Y-80375283D01*
X123635674Y-80444059D01*
X123597602Y-80489019D01*
X123507576Y-80554426D01*
X123507571Y-80554430D01*
X123361930Y-80700071D01*
X123361926Y-80700076D01*
X123240873Y-80866693D01*
X123147367Y-81050205D01*
X123083719Y-81246091D01*
X123051500Y-81449519D01*
X103875000Y-81449519D01*
X103875000Y-81415756D01*
X103844333Y-81301306D01*
X103800278Y-81225000D01*
X104825000Y-81225000D01*
X104825000Y-80527172D01*
X104824999Y-80527155D01*
X104818598Y-80467627D01*
X104818596Y-80467620D01*
X104768354Y-80332913D01*
X104768350Y-80332906D01*
X104682190Y-80217813D01*
X104640518Y-80186616D01*
X104478655Y-80097223D01*
X104460259Y-80078650D01*
X104439336Y-80062987D01*
X104436068Y-80054227D01*
X104429487Y-80047582D01*
X104424052Y-80022010D01*
X104414919Y-79997522D01*
X104416906Y-79988384D01*
X104414963Y-79979238D01*
X104424214Y-79954791D01*
X104429771Y-79929250D01*
X104438082Y-79918147D01*
X104439693Y-79913892D01*
X104443231Y-79911269D01*
X104450920Y-79900998D01*
X104499343Y-79852576D01*
X104629657Y-79673215D01*
X104730308Y-79475676D01*
X104798818Y-79264824D01*
X104833500Y-79045851D01*
X104833500Y-78947682D01*
X115075000Y-78947682D01*
X115075000Y-79152317D01*
X115107009Y-79354417D01*
X115170244Y-79549031D01*
X115263141Y-79731350D01*
X115263147Y-79731359D01*
X115295523Y-79775921D01*
X115295524Y-79775922D01*
X115975000Y-79096446D01*
X115975000Y-79102661D01*
X116002259Y-79204394D01*
X116054920Y-79295606D01*
X116129394Y-79370080D01*
X116220606Y-79422741D01*
X116322339Y-79450000D01*
X116328553Y-79450000D01*
X115649076Y-80129474D01*
X115693650Y-80161859D01*
X115875968Y-80254755D01*
X116070582Y-80317990D01*
X116272683Y-80350000D01*
X116477317Y-80350000D01*
X116679417Y-80317990D01*
X116874031Y-80254755D01*
X117056349Y-80161859D01*
X117100921Y-80129474D01*
X117100921Y-80129473D01*
X116421447Y-79450000D01*
X116427661Y-79450000D01*
X116529394Y-79422741D01*
X116620606Y-79370080D01*
X116695080Y-79295606D01*
X116747741Y-79204394D01*
X116775000Y-79102661D01*
X116775000Y-79096447D01*
X117454474Y-79775921D01*
X117486861Y-79731347D01*
X117486861Y-79731346D01*
X117558145Y-79591442D01*
X117606119Y-79540646D01*
X117673939Y-79523850D01*
X117740075Y-79546387D01*
X117779115Y-79591441D01*
X117863141Y-79756350D01*
X117863147Y-79756359D01*
X117895523Y-79800921D01*
X117895524Y-79800922D01*
X118575000Y-79121446D01*
X118575000Y-79127661D01*
X118602259Y-79229394D01*
X118654920Y-79320606D01*
X118729394Y-79395080D01*
X118820606Y-79447741D01*
X118922339Y-79475000D01*
X118928553Y-79475000D01*
X118249076Y-80154474D01*
X118293650Y-80186859D01*
X118475968Y-80279755D01*
X118670582Y-80342990D01*
X118872683Y-80375000D01*
X119077317Y-80375000D01*
X119279417Y-80342990D01*
X119474031Y-80279755D01*
X119656349Y-80186859D01*
X119700921Y-80154474D01*
X119021447Y-79475000D01*
X119027661Y-79475000D01*
X119129394Y-79447741D01*
X119220606Y-79395080D01*
X119295080Y-79320606D01*
X119347741Y-79229394D01*
X119375000Y-79127661D01*
X119375000Y-79121448D01*
X120054474Y-79800922D01*
X120054474Y-79800921D01*
X120086859Y-79756349D01*
X120179755Y-79574031D01*
X120242990Y-79379417D01*
X120275000Y-79177317D01*
X120275000Y-78972683D01*
X120267296Y-78924046D01*
X120267296Y-78924045D01*
X120242989Y-78770582D01*
X120179754Y-78575965D01*
X120123551Y-78465660D01*
X120123550Y-78465659D01*
X120086859Y-78393650D01*
X120054474Y-78349077D01*
X120054474Y-78349076D01*
X119375000Y-79028551D01*
X119375000Y-79022339D01*
X119347741Y-78920606D01*
X119295080Y-78829394D01*
X119220606Y-78754920D01*
X119129394Y-78702259D01*
X119027661Y-78675000D01*
X119021446Y-78675000D01*
X119700922Y-77995524D01*
X119700921Y-77995523D01*
X119656359Y-77963147D01*
X119656350Y-77963141D01*
X119474031Y-77870244D01*
X119279417Y-77807009D01*
X119077317Y-77775000D01*
X118872683Y-77775000D01*
X118670582Y-77807009D01*
X118475968Y-77870244D01*
X118293644Y-77963143D01*
X118249077Y-77995523D01*
X118249077Y-77995524D01*
X118928554Y-78675000D01*
X118922339Y-78675000D01*
X118820606Y-78702259D01*
X118729394Y-78754920D01*
X118654920Y-78829394D01*
X118602259Y-78920606D01*
X118575000Y-79022339D01*
X118575000Y-79028553D01*
X117895524Y-78349077D01*
X117895523Y-78349077D01*
X117863143Y-78393644D01*
X117791854Y-78533558D01*
X117743879Y-78584354D01*
X117676058Y-78601149D01*
X117609923Y-78578611D01*
X117570884Y-78533558D01*
X117486859Y-78368650D01*
X117454474Y-78324077D01*
X117454474Y-78324076D01*
X116775000Y-79003551D01*
X116775000Y-78997339D01*
X116747741Y-78895606D01*
X116695080Y-78804394D01*
X116620606Y-78729920D01*
X116529394Y-78677259D01*
X116427661Y-78650000D01*
X116421446Y-78650000D01*
X117100922Y-77970524D01*
X117100921Y-77970523D01*
X117056359Y-77938147D01*
X117056350Y-77938141D01*
X116874031Y-77845244D01*
X116679417Y-77782009D01*
X116477317Y-77750000D01*
X116272683Y-77750000D01*
X116070582Y-77782009D01*
X115875968Y-77845244D01*
X115693644Y-77938143D01*
X115649077Y-77970523D01*
X115649077Y-77970524D01*
X116328554Y-78650000D01*
X116322339Y-78650000D01*
X116220606Y-78677259D01*
X116129394Y-78729920D01*
X116054920Y-78804394D01*
X116002259Y-78895606D01*
X115975000Y-78997339D01*
X115975000Y-79003553D01*
X115295524Y-78324077D01*
X115295523Y-78324077D01*
X115263143Y-78368644D01*
X115170244Y-78550968D01*
X115107009Y-78745582D01*
X115075000Y-78947682D01*
X104833500Y-78947682D01*
X104833500Y-78824149D01*
X104798818Y-78605176D01*
X104730308Y-78394324D01*
X104730306Y-78394321D01*
X104730306Y-78394319D01*
X104629656Y-78196784D01*
X104602986Y-78160076D01*
X104499343Y-78017424D01*
X104342576Y-77860657D01*
X104163215Y-77730343D01*
X104111514Y-77704000D01*
X103965680Y-77629693D01*
X103754824Y-77561182D01*
X103535851Y-77526500D01*
X103314149Y-77526500D01*
X103204662Y-77543841D01*
X103095175Y-77561182D01*
X102884319Y-77629693D01*
X102686784Y-77730343D01*
X102625320Y-77775000D01*
X102507424Y-77860657D01*
X102507422Y-77860659D01*
X102507421Y-77860659D01*
X102350659Y-78017421D01*
X102350659Y-78017422D01*
X102350657Y-78017424D01*
X102350655Y-78017427D01*
X102220343Y-78196784D01*
X102119693Y-78394319D01*
X102051182Y-78605175D01*
X102035199Y-78706091D01*
X102016500Y-78824149D01*
X100075500Y-78824149D01*
X100075500Y-77386345D01*
X147641500Y-77386345D01*
X147641500Y-79183654D01*
X147648011Y-79244202D01*
X147648011Y-79244204D01*
X147680975Y-79332580D01*
X147699111Y-79381204D01*
X147786739Y-79498261D01*
X147903796Y-79585889D01*
X148040799Y-79636989D01*
X148068050Y-79639918D01*
X148101345Y-79643499D01*
X148101362Y-79643500D01*
X148120692Y-79643500D01*
X148187731Y-79663185D01*
X148208373Y-79679819D01*
X148870591Y-80342037D01*
X148807007Y-80359075D01*
X148692993Y-80424901D01*
X148599901Y-80517993D01*
X148534075Y-80632007D01*
X148517037Y-80695591D01*
X147884728Y-80063282D01*
X147884727Y-80063282D01*
X147845380Y-80117439D01*
X147748904Y-80306782D01*
X147683242Y-80508869D01*
X147683242Y-80508872D01*
X147650000Y-80718753D01*
X147650000Y-80931246D01*
X147683242Y-81141127D01*
X147683242Y-81141130D01*
X147748904Y-81343217D01*
X147845375Y-81532550D01*
X147884728Y-81586716D01*
X148517037Y-80954408D01*
X148534075Y-81017993D01*
X148599901Y-81132007D01*
X148692993Y-81225099D01*
X148807007Y-81290925D01*
X148870590Y-81307962D01*
X148238282Y-81940269D01*
X148238282Y-81940270D01*
X148292449Y-81979624D01*
X148292682Y-81979743D01*
X148292755Y-81979812D01*
X148296604Y-81982171D01*
X148296108Y-81982979D01*
X148343479Y-82027716D01*
X148360275Y-82095537D01*
X148337739Y-82161672D01*
X148292693Y-82200709D01*
X148287994Y-82203103D01*
X148114993Y-82328796D01*
X147963796Y-82479993D01*
X147838106Y-82652990D01*
X147741027Y-82843516D01*
X147741026Y-82843519D01*
X147674951Y-83046882D01*
X147641500Y-83258084D01*
X147641500Y-83471915D01*
X147674951Y-83683117D01*
X147741026Y-83886480D01*
X147741027Y-83886483D01*
X147838106Y-84077009D01*
X147963794Y-84250004D01*
X148114996Y-84401206D01*
X148287991Y-84526894D01*
X148291873Y-84529273D01*
X148338748Y-84581086D01*
X148350169Y-84650016D01*
X148322512Y-84714178D01*
X148291873Y-84740727D01*
X148287991Y-84743105D01*
X148114993Y-84868796D01*
X147963796Y-85019993D01*
X147838106Y-85192990D01*
X147741027Y-85383516D01*
X147741026Y-85383519D01*
X147674951Y-85586882D01*
X147641500Y-85798084D01*
X147641500Y-86011915D01*
X147674951Y-86223117D01*
X147741026Y-86426480D01*
X147741027Y-86426483D01*
X147838106Y-86617009D01*
X147963794Y-86790004D01*
X148114996Y-86941206D01*
X148287991Y-87066894D01*
X148291873Y-87069273D01*
X148338748Y-87121086D01*
X148350169Y-87190016D01*
X148322512Y-87254178D01*
X148291873Y-87280727D01*
X148287991Y-87283105D01*
X148114993Y-87408796D01*
X147963796Y-87559993D01*
X147838106Y-87732990D01*
X147741027Y-87923516D01*
X147741026Y-87923519D01*
X147674951Y-88126882D01*
X147641500Y-88338084D01*
X147641500Y-88551915D01*
X147674951Y-88763117D01*
X147741026Y-88966480D01*
X147741027Y-88966483D01*
X147804322Y-89090704D01*
X147838106Y-89157009D01*
X147963794Y-89330004D01*
X148114996Y-89481206D01*
X148208973Y-89549484D01*
X148287991Y-89606894D01*
X148291873Y-89609273D01*
X148338748Y-89661086D01*
X148350169Y-89730016D01*
X148322512Y-89794178D01*
X148291873Y-89820727D01*
X148287991Y-89823105D01*
X148114993Y-89948796D01*
X147963796Y-90099993D01*
X147838106Y-90272990D01*
X147741027Y-90463516D01*
X147741026Y-90463519D01*
X147674951Y-90666882D01*
X147641500Y-90878084D01*
X147641500Y-91091915D01*
X147674951Y-91303117D01*
X147741026Y-91506480D01*
X147741027Y-91506483D01*
X147826854Y-91674925D01*
X147838106Y-91697009D01*
X147963794Y-91870004D01*
X148114996Y-92021206D01*
X148287991Y-92146894D01*
X148381438Y-92194507D01*
X148478516Y-92243972D01*
X148478519Y-92243973D01*
X148580200Y-92277010D01*
X148681884Y-92310049D01*
X148893084Y-92343500D01*
X148893085Y-92343500D01*
X149106915Y-92343500D01*
X149106916Y-92343500D01*
X149318116Y-92310049D01*
X149521483Y-92243972D01*
X149712009Y-92146894D01*
X149885004Y-92021206D01*
X150036206Y-91870004D01*
X150161894Y-91697009D01*
X150258972Y-91506483D01*
X150325049Y-91303116D01*
X150358500Y-91091916D01*
X150358500Y-90878084D01*
X150325049Y-90666884D01*
X150258972Y-90463517D01*
X150258972Y-90463516D01*
X150161893Y-90272990D01*
X150133982Y-90234574D01*
X150036206Y-90099996D01*
X149885004Y-89948794D01*
X149712009Y-89823106D01*
X149712005Y-89823103D01*
X149708132Y-89820730D01*
X149661254Y-89768920D01*
X149649829Y-89699991D01*
X149677483Y-89635827D01*
X149708132Y-89609270D01*
X149712005Y-89606896D01*
X149712004Y-89606896D01*
X149712009Y-89606894D01*
X149885004Y-89481206D01*
X150036206Y-89330004D01*
X150161894Y-89157009D01*
X150258972Y-88966483D01*
X150325049Y-88763116D01*
X150358500Y-88551916D01*
X150358500Y-88338084D01*
X150325049Y-88126884D01*
X150258972Y-87923517D01*
X150258972Y-87923516D01*
X150161893Y-87732990D01*
X150036206Y-87559996D01*
X149885004Y-87408794D01*
X149712009Y-87283106D01*
X149712005Y-87283103D01*
X149708132Y-87280730D01*
X149661254Y-87228920D01*
X149649829Y-87159991D01*
X149677483Y-87095827D01*
X149708132Y-87069270D01*
X149712005Y-87066896D01*
X149712004Y-87066896D01*
X149712009Y-87066894D01*
X149885004Y-86941206D01*
X150036206Y-86790004D01*
X150161894Y-86617009D01*
X150258972Y-86426483D01*
X150325049Y-86223116D01*
X150358500Y-86011916D01*
X150358500Y-85798084D01*
X150325049Y-85586884D01*
X150292010Y-85485200D01*
X150258973Y-85383519D01*
X150258972Y-85383516D01*
X150197378Y-85262632D01*
X150161894Y-85192991D01*
X150036206Y-85019996D01*
X149885004Y-84868794D01*
X149712009Y-84743106D01*
X149712005Y-84743103D01*
X149708132Y-84740730D01*
X149661254Y-84688920D01*
X149649829Y-84619991D01*
X149677483Y-84555827D01*
X149708132Y-84529270D01*
X149712005Y-84526896D01*
X149712004Y-84526896D01*
X149712009Y-84526894D01*
X149885004Y-84401206D01*
X150036206Y-84250004D01*
X150161894Y-84077009D01*
X150258972Y-83886483D01*
X150325049Y-83683116D01*
X150358500Y-83471916D01*
X150358500Y-83258084D01*
X150325049Y-83046884D01*
X150272454Y-82885010D01*
X150258973Y-82843519D01*
X150258972Y-82843516D01*
X150191968Y-82712015D01*
X150161894Y-82652991D01*
X150036206Y-82479996D01*
X149885004Y-82328794D01*
X149712009Y-82203106D01*
X149712010Y-82203106D01*
X149712008Y-82203105D01*
X149707311Y-82200712D01*
X149656517Y-82152735D01*
X149639724Y-82084914D01*
X149662264Y-82018780D01*
X149703790Y-81982801D01*
X149703402Y-81982168D01*
X149707229Y-81979822D01*
X149707327Y-81979738D01*
X149707556Y-81979621D01*
X149761716Y-81940270D01*
X149761717Y-81940270D01*
X149129408Y-81307962D01*
X149192993Y-81290925D01*
X149307007Y-81225099D01*
X149400099Y-81132007D01*
X149465925Y-81017993D01*
X149482962Y-80954408D01*
X150115270Y-81586717D01*
X150115270Y-81586716D01*
X150154622Y-81532554D01*
X150251095Y-81343217D01*
X150316757Y-81141130D01*
X150316757Y-81141127D01*
X150350000Y-80931246D01*
X150350000Y-80718753D01*
X150316757Y-80508872D01*
X150316757Y-80508869D01*
X150251095Y-80306782D01*
X150154624Y-80117449D01*
X150115270Y-80063282D01*
X150115269Y-80063282D01*
X149482962Y-80695590D01*
X149465925Y-80632007D01*
X149400099Y-80517993D01*
X149307007Y-80424901D01*
X149192993Y-80359075D01*
X149129409Y-80342037D01*
X149791626Y-79679819D01*
X149852949Y-79646334D01*
X149879307Y-79643500D01*
X149898638Y-79643500D01*
X149898654Y-79643499D01*
X149925692Y-79640591D01*
X149959201Y-79636989D01*
X150096204Y-79585889D01*
X150213261Y-79498261D01*
X150300889Y-79381204D01*
X150351989Y-79244201D01*
X150356269Y-79204394D01*
X150358499Y-79183654D01*
X150358500Y-79183637D01*
X150358500Y-77386362D01*
X150358499Y-77386345D01*
X150355157Y-77355270D01*
X150351989Y-77325799D01*
X150300889Y-77188796D01*
X150213261Y-77071739D01*
X150096204Y-76984111D01*
X149959203Y-76933011D01*
X149898654Y-76926500D01*
X149898638Y-76926500D01*
X148101362Y-76926500D01*
X148101345Y-76926500D01*
X148040797Y-76933011D01*
X148040795Y-76933011D01*
X147903795Y-76984111D01*
X147786739Y-77071739D01*
X147699111Y-77188795D01*
X147648011Y-77325795D01*
X147648011Y-77325797D01*
X147641500Y-77386345D01*
X100075500Y-77386345D01*
X100075500Y-70699149D01*
X102016500Y-70699149D01*
X102016500Y-70920850D01*
X102051182Y-71139824D01*
X102119693Y-71350680D01*
X102216912Y-71541482D01*
X102220343Y-71548215D01*
X102350657Y-71727576D01*
X102350659Y-71727578D01*
X102399077Y-71775996D01*
X102432562Y-71837319D01*
X102427578Y-71907011D01*
X102385706Y-71962944D01*
X102354731Y-71979858D01*
X102282915Y-72006644D01*
X102282906Y-72006649D01*
X102167812Y-72092809D01*
X102167809Y-72092812D01*
X102081649Y-72207906D01*
X102081645Y-72207913D01*
X102031403Y-72342620D01*
X102031401Y-72342627D01*
X102025000Y-72402155D01*
X102025000Y-73100000D01*
X103049722Y-73100000D01*
X103005667Y-73176306D01*
X102975000Y-73290756D01*
X102975000Y-73409244D01*
X103005667Y-73523694D01*
X103049722Y-73600000D01*
X102025000Y-73600000D01*
X102025000Y-74297844D01*
X102031401Y-74357372D01*
X102031403Y-74357379D01*
X102081645Y-74492086D01*
X102081649Y-74492093D01*
X102167809Y-74607187D01*
X102167812Y-74607190D01*
X102282906Y-74693350D01*
X102282913Y-74693354D01*
X102417620Y-74743596D01*
X102417627Y-74743598D01*
X102477155Y-74749999D01*
X102477172Y-74750000D01*
X103175000Y-74750000D01*
X103175000Y-73725277D01*
X103251306Y-73769333D01*
X103365756Y-73800000D01*
X103484244Y-73800000D01*
X103598694Y-73769333D01*
X103675000Y-73725277D01*
X103675000Y-74750000D01*
X104372828Y-74750000D01*
X104372844Y-74749999D01*
X104432372Y-74743598D01*
X104432379Y-74743596D01*
X104567086Y-74693354D01*
X104567093Y-74693350D01*
X104682187Y-74607190D01*
X104682190Y-74607187D01*
X104768350Y-74492093D01*
X104768354Y-74492086D01*
X104818596Y-74357379D01*
X104818598Y-74357372D01*
X104824999Y-74297844D01*
X104825000Y-74297827D01*
X104825000Y-73600000D01*
X103800278Y-73600000D01*
X103844333Y-73523694D01*
X103875000Y-73409244D01*
X103875000Y-73290756D01*
X103849440Y-73195365D01*
X108716500Y-73195365D01*
X108716500Y-73354634D01*
X108747568Y-73510823D01*
X108747570Y-73510831D01*
X108808517Y-73657969D01*
X108896995Y-73790387D01*
X108897001Y-73790394D01*
X109009605Y-73902998D01*
X109009612Y-73903004D01*
X109142030Y-73991482D01*
X109142031Y-73991482D01*
X109142032Y-73991483D01*
X109289169Y-74052430D01*
X109445365Y-74083499D01*
X109445369Y-74083500D01*
X109445370Y-74083500D01*
X109604631Y-74083500D01*
X109604632Y-74083499D01*
X109760831Y-74052430D01*
X109907968Y-73991483D01*
X109907969Y-73991482D01*
X109907970Y-73991482D01*
X110038302Y-73904398D01*
X110104979Y-73883520D01*
X110107192Y-73883500D01*
X114905223Y-73883500D01*
X114972262Y-73903185D01*
X114974113Y-73904397D01*
X115067033Y-73966484D01*
X115127384Y-73991482D01*
X115214169Y-74027430D01*
X115339849Y-74052429D01*
X115370365Y-74058499D01*
X115370369Y-74058500D01*
X115370370Y-74058500D01*
X115529631Y-74058500D01*
X115529632Y-74058499D01*
X115685831Y-74027430D01*
X115832968Y-73966483D01*
X115965389Y-73878003D01*
X116078003Y-73765389D01*
X116166483Y-73632968D01*
X116227430Y-73485831D01*
X116258500Y-73329630D01*
X116258500Y-73170370D01*
X116227430Y-73014169D01*
X116166483Y-72867032D01*
X116094707Y-72759611D01*
X116078004Y-72734612D01*
X116077998Y-72734605D01*
X115965394Y-72622001D01*
X115965387Y-72621995D01*
X115832969Y-72533517D01*
X115685831Y-72472570D01*
X115685823Y-72472568D01*
X115529634Y-72441500D01*
X115529630Y-72441500D01*
X115370370Y-72441500D01*
X115370365Y-72441500D01*
X115214176Y-72472568D01*
X115214168Y-72472570D01*
X115067033Y-72533515D01*
X114974113Y-72595603D01*
X114907436Y-72616480D01*
X114905223Y-72616500D01*
X110032362Y-72616500D01*
X109965323Y-72596815D01*
X109963472Y-72595603D01*
X109959192Y-72592743D01*
X109907968Y-72558517D01*
X109760831Y-72497570D01*
X109760823Y-72497568D01*
X109604634Y-72466500D01*
X109604630Y-72466500D01*
X109445370Y-72466500D01*
X109445365Y-72466500D01*
X109289176Y-72497568D01*
X109289168Y-72497570D01*
X109142030Y-72558517D01*
X109009612Y-72646995D01*
X109009605Y-72647001D01*
X108897001Y-72759605D01*
X108896995Y-72759612D01*
X108808517Y-72892030D01*
X108747570Y-73039168D01*
X108747568Y-73039176D01*
X108716500Y-73195365D01*
X103849440Y-73195365D01*
X103844333Y-73176306D01*
X103800278Y-73100000D01*
X104825000Y-73100000D01*
X104825000Y-72402172D01*
X104824999Y-72402155D01*
X104818598Y-72342627D01*
X104818596Y-72342620D01*
X104768354Y-72207913D01*
X104768350Y-72207906D01*
X104682190Y-72092812D01*
X104682187Y-72092809D01*
X104567093Y-72006649D01*
X104567087Y-72006646D01*
X104495269Y-71979859D01*
X104439336Y-71937987D01*
X104414919Y-71872522D01*
X104429771Y-71804250D01*
X104450920Y-71775998D01*
X104499343Y-71727576D01*
X104629657Y-71548215D01*
X104730308Y-71350676D01*
X104798818Y-71139824D01*
X104833500Y-70920851D01*
X104833500Y-70699149D01*
X104813103Y-70570370D01*
X104813102Y-70570365D01*
X108691500Y-70570365D01*
X108691500Y-70729634D01*
X108722568Y-70885823D01*
X108722570Y-70885831D01*
X108783517Y-71032969D01*
X108871995Y-71165387D01*
X108872001Y-71165394D01*
X108984605Y-71277998D01*
X108984612Y-71278004D01*
X109117030Y-71366482D01*
X109117031Y-71366482D01*
X109117032Y-71366483D01*
X109264169Y-71427430D01*
X109403880Y-71455220D01*
X109420365Y-71458499D01*
X109420369Y-71458500D01*
X109420370Y-71458500D01*
X109579628Y-71458500D01*
X109579630Y-71458500D01*
X109579631Y-71458499D01*
X109583963Y-71458073D01*
X109608273Y-71458073D01*
X109612604Y-71458499D01*
X109612606Y-71458500D01*
X109737393Y-71458500D01*
X114905223Y-71458500D01*
X114972262Y-71478185D01*
X114974113Y-71479397D01*
X115067033Y-71541484D01*
X115140600Y-71571956D01*
X115214169Y-71602430D01*
X115370365Y-71633499D01*
X115370369Y-71633500D01*
X115370370Y-71633500D01*
X115529631Y-71633500D01*
X115529632Y-71633499D01*
X115685831Y-71602430D01*
X115832968Y-71541483D01*
X115965389Y-71453003D01*
X116078003Y-71340389D01*
X116166483Y-71207968D01*
X116227430Y-71060831D01*
X116258500Y-70904630D01*
X116258500Y-70745370D01*
X116227430Y-70589169D01*
X116166483Y-70442032D01*
X116147870Y-70414176D01*
X116078004Y-70309612D01*
X116077998Y-70309605D01*
X115965394Y-70197001D01*
X115965387Y-70196995D01*
X115832969Y-70108517D01*
X115685831Y-70047570D01*
X115685823Y-70047568D01*
X115529634Y-70016500D01*
X115529630Y-70016500D01*
X115370370Y-70016500D01*
X115370365Y-70016500D01*
X115214176Y-70047568D01*
X115214168Y-70047570D01*
X115067033Y-70108515D01*
X114974113Y-70170603D01*
X114907436Y-70191480D01*
X114905223Y-70191500D01*
X110232295Y-70191500D01*
X110165256Y-70171815D01*
X110132033Y-70139182D01*
X110131867Y-70139319D01*
X110130595Y-70137769D01*
X110129195Y-70136394D01*
X110128004Y-70134612D01*
X110128000Y-70134607D01*
X110015394Y-70022001D01*
X110015387Y-70021995D01*
X109882969Y-69933517D01*
X109735831Y-69872570D01*
X109735823Y-69872568D01*
X109579634Y-69841500D01*
X109579630Y-69841500D01*
X109420370Y-69841500D01*
X109420365Y-69841500D01*
X109264176Y-69872568D01*
X109264168Y-69872570D01*
X109117030Y-69933517D01*
X108984612Y-70021995D01*
X108984605Y-70022001D01*
X108872001Y-70134605D01*
X108871995Y-70134612D01*
X108783517Y-70267030D01*
X108722570Y-70414168D01*
X108722568Y-70414176D01*
X108691500Y-70570365D01*
X104813102Y-70570365D01*
X104798818Y-70480175D01*
X104730306Y-70269319D01*
X104629656Y-70071784D01*
X104499343Y-69892424D01*
X104342576Y-69735657D01*
X104163215Y-69605343D01*
X103965680Y-69504693D01*
X103754824Y-69436182D01*
X103535851Y-69401500D01*
X103314149Y-69401500D01*
X103204662Y-69418841D01*
X103095175Y-69436182D01*
X102884319Y-69504693D01*
X102686784Y-69605343D01*
X102584452Y-69679692D01*
X102507424Y-69735657D01*
X102507422Y-69735659D01*
X102507421Y-69735659D01*
X102350659Y-69892421D01*
X102350659Y-69892422D01*
X102350657Y-69892424D01*
X102320801Y-69933517D01*
X102220343Y-70071784D01*
X102119693Y-70269319D01*
X102051182Y-70480175D01*
X102016500Y-70699149D01*
X100075500Y-70699149D01*
X100075500Y-65249149D01*
X137616500Y-65249149D01*
X137616500Y-65470851D01*
X137651182Y-65689824D01*
X137719693Y-65900680D01*
X137737525Y-65935676D01*
X137820343Y-66098215D01*
X137950657Y-66277576D01*
X137950659Y-66277578D01*
X137999077Y-66325996D01*
X138032562Y-66387319D01*
X138027578Y-66457011D01*
X137985706Y-66512944D01*
X137954731Y-66529858D01*
X137882915Y-66556644D01*
X137882906Y-66556649D01*
X137767812Y-66642809D01*
X137767809Y-66642812D01*
X137681649Y-66757906D01*
X137681645Y-66757913D01*
X137631403Y-66892620D01*
X137631401Y-66892627D01*
X137625000Y-66952155D01*
X137625000Y-67650000D01*
X138649722Y-67650000D01*
X138605667Y-67726306D01*
X138575000Y-67840756D01*
X138575000Y-67959244D01*
X138605667Y-68073694D01*
X138649722Y-68150000D01*
X137625000Y-68150000D01*
X137625000Y-68847844D01*
X137631401Y-68907372D01*
X137631403Y-68907379D01*
X137681645Y-69042086D01*
X137681649Y-69042093D01*
X137767809Y-69157187D01*
X137767812Y-69157190D01*
X137882906Y-69243350D01*
X137882913Y-69243354D01*
X138017620Y-69293596D01*
X138017627Y-69293598D01*
X138077155Y-69299999D01*
X138077172Y-69300000D01*
X138775000Y-69300000D01*
X138775000Y-68275277D01*
X138851306Y-68319333D01*
X138965756Y-68350000D01*
X139084244Y-68350000D01*
X139198694Y-68319333D01*
X139275000Y-68275277D01*
X139275000Y-69300000D01*
X139972828Y-69300000D01*
X139972844Y-69299999D01*
X140032372Y-69293598D01*
X140032379Y-69293596D01*
X140167086Y-69243354D01*
X140167093Y-69243350D01*
X140282187Y-69157190D01*
X140282190Y-69157187D01*
X140368350Y-69042093D01*
X140368354Y-69042086D01*
X140418596Y-68907379D01*
X140418598Y-68907372D01*
X140424999Y-68847844D01*
X140425000Y-68847827D01*
X140425000Y-68150000D01*
X139400278Y-68150000D01*
X139444333Y-68073694D01*
X139475000Y-67959244D01*
X139475000Y-67840756D01*
X139444333Y-67726306D01*
X139400278Y-67650000D01*
X140425000Y-67650000D01*
X140425000Y-66952172D01*
X140424999Y-66952155D01*
X140418598Y-66892627D01*
X140418596Y-66892620D01*
X140368354Y-66757913D01*
X140368350Y-66757906D01*
X140282190Y-66642812D01*
X140282187Y-66642809D01*
X140167093Y-66556649D01*
X140167087Y-66556646D01*
X140095269Y-66529859D01*
X140039336Y-66487987D01*
X140014919Y-66422522D01*
X140029771Y-66354250D01*
X140050920Y-66325998D01*
X140099343Y-66277576D01*
X140229657Y-66098215D01*
X140330308Y-65900676D01*
X140398818Y-65689824D01*
X140433500Y-65470851D01*
X140433500Y-65259149D01*
X144216500Y-65259149D01*
X144216500Y-65480851D01*
X144220460Y-65505851D01*
X144251182Y-65699824D01*
X144319693Y-65910680D01*
X144415248Y-66098215D01*
X144420343Y-66108215D01*
X144550657Y-66287576D01*
X144550659Y-66287578D01*
X144599077Y-66335996D01*
X144632562Y-66397319D01*
X144627578Y-66467011D01*
X144585706Y-66522944D01*
X144554731Y-66539858D01*
X144482915Y-66566644D01*
X144482906Y-66566649D01*
X144367812Y-66652809D01*
X144367809Y-66652812D01*
X144281649Y-66767906D01*
X144281645Y-66767913D01*
X144231403Y-66902620D01*
X144231401Y-66902627D01*
X144225000Y-66962155D01*
X144225000Y-67660000D01*
X145249722Y-67660000D01*
X145205667Y-67736306D01*
X145175000Y-67850756D01*
X145175000Y-67969244D01*
X145205667Y-68083694D01*
X145249722Y-68160000D01*
X144225000Y-68160000D01*
X144225000Y-68857844D01*
X144231401Y-68917372D01*
X144231403Y-68917379D01*
X144281645Y-69052086D01*
X144281649Y-69052093D01*
X144367809Y-69167187D01*
X144367812Y-69167190D01*
X144482906Y-69253350D01*
X144482913Y-69253354D01*
X144617620Y-69303596D01*
X144617627Y-69303598D01*
X144677155Y-69309999D01*
X144677172Y-69310000D01*
X145375000Y-69310000D01*
X145375000Y-68285277D01*
X145451306Y-68329333D01*
X145565756Y-68360000D01*
X145684244Y-68360000D01*
X145798694Y-68329333D01*
X145875000Y-68285277D01*
X145875000Y-69310000D01*
X146572828Y-69310000D01*
X146572844Y-69309999D01*
X146632372Y-69303598D01*
X146632379Y-69303596D01*
X146767086Y-69253354D01*
X146767093Y-69253350D01*
X146882187Y-69167190D01*
X146882190Y-69167187D01*
X146968350Y-69052093D01*
X146968354Y-69052086D01*
X147018596Y-68917379D01*
X147018598Y-68917372D01*
X147024999Y-68857844D01*
X147025000Y-68857827D01*
X147025000Y-68160000D01*
X146000278Y-68160000D01*
X146044333Y-68083694D01*
X146075000Y-67969244D01*
X146075000Y-67850756D01*
X146044333Y-67736306D01*
X146000278Y-67660000D01*
X147025000Y-67660000D01*
X147025000Y-66962172D01*
X147024999Y-66962155D01*
X147018598Y-66902627D01*
X147018596Y-66902620D01*
X146968354Y-66767913D01*
X146968350Y-66767906D01*
X146882190Y-66652812D01*
X146882187Y-66652809D01*
X146767093Y-66566649D01*
X146767087Y-66566646D01*
X146695269Y-66539859D01*
X146639336Y-66497987D01*
X146614919Y-66432522D01*
X146629771Y-66364250D01*
X146650920Y-66335998D01*
X146699343Y-66287576D01*
X146829657Y-66108215D01*
X146930308Y-65910676D01*
X146998818Y-65699824D01*
X147033500Y-65480851D01*
X147033500Y-65284149D01*
X150891500Y-65284149D01*
X150891500Y-65505850D01*
X150926182Y-65724824D01*
X150994693Y-65935680D01*
X151082605Y-66108215D01*
X151095343Y-66133215D01*
X151225657Y-66312576D01*
X151225659Y-66312578D01*
X151274077Y-66360996D01*
X151307562Y-66422319D01*
X151302578Y-66492011D01*
X151260706Y-66547944D01*
X151229731Y-66564858D01*
X151157915Y-66591644D01*
X151157906Y-66591649D01*
X151042812Y-66677809D01*
X151042809Y-66677812D01*
X150956649Y-66792906D01*
X150956645Y-66792913D01*
X150906403Y-66927620D01*
X150906401Y-66927627D01*
X150900000Y-66987155D01*
X150900000Y-67685000D01*
X151924722Y-67685000D01*
X151880667Y-67761306D01*
X151850000Y-67875756D01*
X151850000Y-67994244D01*
X151880667Y-68108694D01*
X151924722Y-68185000D01*
X150900000Y-68185000D01*
X150900000Y-68882844D01*
X150906401Y-68942372D01*
X150906403Y-68942379D01*
X150956645Y-69077086D01*
X150956649Y-69077093D01*
X151042809Y-69192187D01*
X151042812Y-69192190D01*
X151157906Y-69278350D01*
X151157913Y-69278354D01*
X151292620Y-69328596D01*
X151292627Y-69328598D01*
X151352155Y-69334999D01*
X151352172Y-69335000D01*
X152050000Y-69335000D01*
X152050000Y-68310277D01*
X152126306Y-68354333D01*
X152240756Y-68385000D01*
X152359244Y-68385000D01*
X152473694Y-68354333D01*
X152550000Y-68310277D01*
X152550000Y-69335000D01*
X153247828Y-69335000D01*
X153247844Y-69334999D01*
X153307372Y-69328598D01*
X153307379Y-69328596D01*
X153442086Y-69278354D01*
X153442093Y-69278350D01*
X153557187Y-69192190D01*
X153557190Y-69192187D01*
X153643350Y-69077093D01*
X153643354Y-69077086D01*
X153693596Y-68942379D01*
X153693598Y-68942372D01*
X153699999Y-68882844D01*
X153700000Y-68882827D01*
X153700000Y-68185000D01*
X152675278Y-68185000D01*
X152719333Y-68108694D01*
X152750000Y-67994244D01*
X152750000Y-67875756D01*
X152719333Y-67761306D01*
X152675278Y-67685000D01*
X153700000Y-67685000D01*
X153700000Y-66987172D01*
X153699999Y-66987155D01*
X153693598Y-66927627D01*
X153693596Y-66927620D01*
X153643354Y-66792913D01*
X153643350Y-66792906D01*
X153557190Y-66677812D01*
X153557187Y-66677809D01*
X153442093Y-66591649D01*
X153442087Y-66591646D01*
X153370269Y-66564859D01*
X153314336Y-66522987D01*
X153289919Y-66457522D01*
X153304771Y-66389250D01*
X153325920Y-66360998D01*
X153374343Y-66312576D01*
X153504657Y-66133215D01*
X153605308Y-65935676D01*
X153673818Y-65724824D01*
X153708500Y-65505851D01*
X153708500Y-65284149D01*
X153704540Y-65259149D01*
X157591500Y-65259149D01*
X157591500Y-65480851D01*
X157595460Y-65505851D01*
X157626182Y-65699824D01*
X157694693Y-65910680D01*
X157790248Y-66098215D01*
X157795343Y-66108215D01*
X157925657Y-66287576D01*
X157925659Y-66287578D01*
X157974077Y-66335996D01*
X158007562Y-66397319D01*
X158002578Y-66467011D01*
X157960706Y-66522944D01*
X157929731Y-66539858D01*
X157857915Y-66566644D01*
X157857906Y-66566649D01*
X157742812Y-66652809D01*
X157742809Y-66652812D01*
X157656649Y-66767906D01*
X157656645Y-66767913D01*
X157606403Y-66902620D01*
X157606401Y-66902627D01*
X157600000Y-66962155D01*
X157600000Y-67660000D01*
X158624722Y-67660000D01*
X158580667Y-67736306D01*
X158550000Y-67850756D01*
X158550000Y-67969244D01*
X158580667Y-68083694D01*
X158624722Y-68160000D01*
X157600000Y-68160000D01*
X157600000Y-68857844D01*
X157606401Y-68917372D01*
X157606403Y-68917379D01*
X157656645Y-69052086D01*
X157656649Y-69052093D01*
X157742809Y-69167187D01*
X157742812Y-69167190D01*
X157857906Y-69253350D01*
X157857913Y-69253354D01*
X157992620Y-69303596D01*
X157992627Y-69303598D01*
X158052155Y-69309999D01*
X158052172Y-69310000D01*
X158750000Y-69310000D01*
X158750000Y-68285277D01*
X158826306Y-68329333D01*
X158940756Y-68360000D01*
X159059244Y-68360000D01*
X159173694Y-68329333D01*
X159250000Y-68285277D01*
X159250000Y-69310000D01*
X159947828Y-69310000D01*
X159947844Y-69309999D01*
X160007372Y-69303598D01*
X160007379Y-69303596D01*
X160142086Y-69253354D01*
X160142093Y-69253350D01*
X160257187Y-69167190D01*
X160257190Y-69167187D01*
X160343350Y-69052093D01*
X160343354Y-69052086D01*
X160393596Y-68917379D01*
X160393598Y-68917372D01*
X160399999Y-68857844D01*
X160400000Y-68857827D01*
X160400000Y-68160000D01*
X159375278Y-68160000D01*
X159419333Y-68083694D01*
X159450000Y-67969244D01*
X159450000Y-67850756D01*
X159419333Y-67736306D01*
X159375278Y-67660000D01*
X160400000Y-67660000D01*
X160400000Y-66962172D01*
X160399999Y-66962155D01*
X160393598Y-66902627D01*
X160393596Y-66902620D01*
X160343354Y-66767913D01*
X160343350Y-66767906D01*
X160257190Y-66652812D01*
X160257187Y-66652809D01*
X160142093Y-66566649D01*
X160142087Y-66566646D01*
X160070269Y-66539859D01*
X160014336Y-66497987D01*
X159989919Y-66432522D01*
X160004771Y-66364250D01*
X160025920Y-66335998D01*
X160074343Y-66287576D01*
X160204657Y-66108215D01*
X160305308Y-65910676D01*
X160373818Y-65699824D01*
X160408500Y-65480851D01*
X160408500Y-65259149D01*
X160373818Y-65040176D01*
X160305308Y-64829324D01*
X160305306Y-64829321D01*
X160305306Y-64829319D01*
X160217395Y-64656785D01*
X160204657Y-64631785D01*
X160074343Y-64452424D01*
X159917576Y-64295657D01*
X159738215Y-64165343D01*
X159718589Y-64155343D01*
X159540680Y-64064693D01*
X159329824Y-63996182D01*
X159268694Y-63986500D01*
X159110851Y-63961500D01*
X158889149Y-63961500D01*
X158779662Y-63978841D01*
X158670175Y-63996182D01*
X158459319Y-64064693D01*
X158261784Y-64165343D01*
X158159452Y-64239692D01*
X158082424Y-64295657D01*
X158082422Y-64295659D01*
X158082421Y-64295659D01*
X157925659Y-64452421D01*
X157925659Y-64452422D01*
X157925657Y-64452424D01*
X157869692Y-64529452D01*
X157795343Y-64631784D01*
X157694693Y-64829319D01*
X157626182Y-65040175D01*
X157622222Y-65065176D01*
X157591500Y-65259149D01*
X153704540Y-65259149D01*
X153673818Y-65065176D01*
X153605308Y-64854324D01*
X153605306Y-64854321D01*
X153605306Y-64854319D01*
X153504656Y-64656784D01*
X153486493Y-64631785D01*
X153374343Y-64477424D01*
X153217576Y-64320657D01*
X153038215Y-64190343D01*
X152969524Y-64155343D01*
X152840680Y-64089693D01*
X152629824Y-64021182D01*
X152410851Y-63986500D01*
X152189149Y-63986500D01*
X152079662Y-64003841D01*
X151970175Y-64021182D01*
X151759319Y-64089693D01*
X151561784Y-64190343D01*
X151459452Y-64264692D01*
X151382424Y-64320657D01*
X151382422Y-64320659D01*
X151382421Y-64320659D01*
X151225659Y-64477421D01*
X151225659Y-64477422D01*
X151225657Y-64477424D01*
X151169692Y-64554452D01*
X151095343Y-64656784D01*
X150994693Y-64854319D01*
X150926182Y-65065175D01*
X150891500Y-65284149D01*
X147033500Y-65284149D01*
X147033500Y-65259149D01*
X146998818Y-65040176D01*
X146930308Y-64829324D01*
X146930306Y-64829321D01*
X146930306Y-64829319D01*
X146842395Y-64656785D01*
X146829657Y-64631785D01*
X146699343Y-64452424D01*
X146542576Y-64295657D01*
X146363215Y-64165343D01*
X146343589Y-64155343D01*
X146165680Y-64064693D01*
X145954824Y-63996182D01*
X145893694Y-63986500D01*
X145735851Y-63961500D01*
X145514149Y-63961500D01*
X145404662Y-63978841D01*
X145295175Y-63996182D01*
X145084319Y-64064693D01*
X144886784Y-64165343D01*
X144784452Y-64239692D01*
X144707424Y-64295657D01*
X144707422Y-64295659D01*
X144707421Y-64295659D01*
X144550659Y-64452421D01*
X144550659Y-64452422D01*
X144550657Y-64452424D01*
X144494692Y-64529452D01*
X144420343Y-64631784D01*
X144319693Y-64829319D01*
X144251182Y-65040175D01*
X144247222Y-65065176D01*
X144216500Y-65259149D01*
X140433500Y-65259149D01*
X140433500Y-65249149D01*
X140398818Y-65030176D01*
X140330308Y-64819324D01*
X140330306Y-64819321D01*
X140330306Y-64819319D01*
X140234752Y-64631785D01*
X140229657Y-64621785D01*
X140099343Y-64442424D01*
X139942576Y-64285657D01*
X139763215Y-64155343D01*
X139565680Y-64054693D01*
X139354824Y-63986182D01*
X139198988Y-63961500D01*
X139135851Y-63951500D01*
X138914149Y-63951500D01*
X138851012Y-63961500D01*
X138695175Y-63986182D01*
X138484319Y-64054693D01*
X138286784Y-64155343D01*
X138184452Y-64229692D01*
X138107424Y-64285657D01*
X138107422Y-64285659D01*
X138107421Y-64285659D01*
X137950659Y-64442421D01*
X137950659Y-64442422D01*
X137950657Y-64442424D01*
X137925228Y-64477424D01*
X137820343Y-64621784D01*
X137719693Y-64819319D01*
X137651182Y-65030175D01*
X137616500Y-65249149D01*
X100075500Y-65249149D01*
X100075500Y-60352019D01*
X139591500Y-60352019D01*
X139591500Y-60557980D01*
X139623719Y-60761408D01*
X139687367Y-60957294D01*
X139780873Y-61140806D01*
X139901926Y-61307423D01*
X139901930Y-61307428D01*
X140047571Y-61453069D01*
X140047576Y-61453073D01*
X140192908Y-61558661D01*
X140214197Y-61574129D01*
X140287110Y-61611280D01*
X140397705Y-61667632D01*
X140397707Y-61667632D01*
X140397710Y-61667634D01*
X140501262Y-61701280D01*
X140593591Y-61731280D01*
X140607608Y-61733500D01*
X140797019Y-61763500D01*
X140797020Y-61763500D01*
X141002980Y-61763500D01*
X141002981Y-61763500D01*
X141206408Y-61731280D01*
X141402290Y-61667634D01*
X141585803Y-61574129D01*
X141752430Y-61453068D01*
X141898068Y-61307430D01*
X142019129Y-61140803D01*
X142112634Y-60957290D01*
X142176280Y-60761408D01*
X142208500Y-60557981D01*
X142208500Y-60382019D01*
X142966500Y-60382019D01*
X142966500Y-60587980D01*
X142998719Y-60791408D01*
X143062367Y-60987294D01*
X143155873Y-61170806D01*
X143276926Y-61337423D01*
X143276930Y-61337428D01*
X143422571Y-61483069D01*
X143422576Y-61483073D01*
X143567908Y-61588661D01*
X143589197Y-61604129D01*
X143662110Y-61641280D01*
X143772705Y-61697632D01*
X143772707Y-61697632D01*
X143772710Y-61697634D01*
X143876262Y-61731280D01*
X143968591Y-61761280D01*
X143982608Y-61763500D01*
X144172019Y-61793500D01*
X144172020Y-61793500D01*
X144377980Y-61793500D01*
X144377981Y-61793500D01*
X144581408Y-61761280D01*
X144777290Y-61697634D01*
X144960803Y-61604129D01*
X145127430Y-61483068D01*
X145273068Y-61337430D01*
X145394129Y-61170803D01*
X145487634Y-60987290D01*
X145551280Y-60791408D01*
X145583500Y-60587981D01*
X145583500Y-60382019D01*
X145569245Y-60292019D01*
X146341500Y-60292019D01*
X146341500Y-60497980D01*
X146373719Y-60701408D01*
X146437367Y-60897294D01*
X146530873Y-61080806D01*
X146651926Y-61247423D01*
X146651930Y-61247428D01*
X146797571Y-61393069D01*
X146797576Y-61393073D01*
X146921445Y-61483068D01*
X146964197Y-61514129D01*
X147081128Y-61573709D01*
X147147705Y-61607632D01*
X147147707Y-61607632D01*
X147147710Y-61607634D01*
X147251262Y-61641280D01*
X147343591Y-61671280D01*
X147357608Y-61673500D01*
X147547019Y-61703500D01*
X147547020Y-61703500D01*
X147752980Y-61703500D01*
X147752981Y-61703500D01*
X147956408Y-61671280D01*
X148152290Y-61607634D01*
X148335803Y-61514129D01*
X148502430Y-61393068D01*
X148648068Y-61247430D01*
X148769129Y-61080803D01*
X148862634Y-60897290D01*
X148926280Y-60701408D01*
X148958500Y-60497981D01*
X148958500Y-60292019D01*
X148948997Y-60232019D01*
X149716500Y-60232019D01*
X149716500Y-60437980D01*
X149748719Y-60641408D01*
X149812367Y-60837294D01*
X149905873Y-61020806D01*
X150026926Y-61187423D01*
X150026930Y-61187428D01*
X150172571Y-61333069D01*
X150172576Y-61333073D01*
X150255160Y-61393073D01*
X150339197Y-61454129D01*
X150456128Y-61513709D01*
X150522705Y-61547632D01*
X150522707Y-61547632D01*
X150522710Y-61547634D01*
X150627707Y-61581749D01*
X150718591Y-61611280D01*
X150820305Y-61627390D01*
X150922019Y-61643500D01*
X150922020Y-61643500D01*
X151127980Y-61643500D01*
X151127981Y-61643500D01*
X151331408Y-61611280D01*
X151527290Y-61547634D01*
X151710803Y-61454129D01*
X151877430Y-61333068D01*
X152023068Y-61187430D01*
X152144129Y-61020803D01*
X152237634Y-60837290D01*
X152301280Y-60641408D01*
X152333500Y-60437981D01*
X152333500Y-60322019D01*
X153091500Y-60322019D01*
X153091500Y-60527980D01*
X153123719Y-60731408D01*
X153187367Y-60927294D01*
X153280873Y-61110806D01*
X153401926Y-61277423D01*
X153401930Y-61277428D01*
X153547571Y-61423069D01*
X153547576Y-61423073D01*
X153672901Y-61514126D01*
X153714197Y-61544129D01*
X153831128Y-61603709D01*
X153897705Y-61637632D01*
X153897707Y-61637632D01*
X153897710Y-61637634D01*
X154001262Y-61671280D01*
X154093591Y-61701280D01*
X154107608Y-61703500D01*
X154297019Y-61733500D01*
X154297020Y-61733500D01*
X154502980Y-61733500D01*
X154502981Y-61733500D01*
X154706408Y-61701280D01*
X154902290Y-61637634D01*
X155085803Y-61544129D01*
X155252430Y-61423068D01*
X155398068Y-61277430D01*
X155519129Y-61110803D01*
X155612634Y-60927290D01*
X155676280Y-60731408D01*
X155708500Y-60527981D01*
X155708500Y-60322019D01*
X155698997Y-60262019D01*
X156466500Y-60262019D01*
X156466500Y-60467980D01*
X156498719Y-60671408D01*
X156562367Y-60867294D01*
X156655873Y-61050806D01*
X156776926Y-61217423D01*
X156776930Y-61217428D01*
X156922571Y-61363069D01*
X156922576Y-61363073D01*
X157005160Y-61423073D01*
X157089197Y-61484129D01*
X157206128Y-61543709D01*
X157272705Y-61577632D01*
X157272707Y-61577632D01*
X157272710Y-61577634D01*
X157376262Y-61611280D01*
X157468591Y-61641280D01*
X157482608Y-61643500D01*
X157672019Y-61673500D01*
X157672020Y-61673500D01*
X157877980Y-61673500D01*
X157877981Y-61673500D01*
X158081408Y-61641280D01*
X158277290Y-61577634D01*
X158460803Y-61484129D01*
X158627430Y-61363068D01*
X158773068Y-61217430D01*
X158894129Y-61050803D01*
X158987634Y-60867290D01*
X159051280Y-60671408D01*
X159083500Y-60467981D01*
X159083500Y-60262019D01*
X159056032Y-60088592D01*
X159051280Y-60058591D01*
X159007129Y-59922710D01*
X158987634Y-59862710D01*
X158987632Y-59862707D01*
X158987632Y-59862705D01*
X158953709Y-59796128D01*
X158894129Y-59679197D01*
X158860257Y-59632576D01*
X158773073Y-59512576D01*
X158773069Y-59512571D01*
X158627428Y-59366930D01*
X158627423Y-59366926D01*
X158460806Y-59245873D01*
X158460805Y-59245872D01*
X158460803Y-59245871D01*
X158395046Y-59212366D01*
X158277294Y-59152367D01*
X158081408Y-59088719D01*
X157891991Y-59058719D01*
X157877981Y-59056500D01*
X157672019Y-59056500D01*
X157658009Y-59058719D01*
X157468591Y-59088719D01*
X157272705Y-59152367D01*
X157089193Y-59245873D01*
X156922576Y-59366926D01*
X156922571Y-59366930D01*
X156776930Y-59512571D01*
X156776926Y-59512576D01*
X156655873Y-59679193D01*
X156562367Y-59862705D01*
X156498719Y-60058591D01*
X156466500Y-60262019D01*
X155698997Y-60262019D01*
X155676280Y-60118592D01*
X155612634Y-59922710D01*
X155612632Y-59922707D01*
X155612632Y-59922705D01*
X155566774Y-59832705D01*
X155519129Y-59739197D01*
X155475534Y-59679193D01*
X155398073Y-59572576D01*
X155398069Y-59572571D01*
X155252428Y-59426930D01*
X155252423Y-59426926D01*
X155085806Y-59305873D01*
X155085805Y-59305872D01*
X155085803Y-59305871D01*
X155020046Y-59272366D01*
X154902294Y-59212367D01*
X154706408Y-59148719D01*
X154516991Y-59118719D01*
X154502981Y-59116500D01*
X154297019Y-59116500D01*
X154283009Y-59118719D01*
X154093591Y-59148719D01*
X153897705Y-59212367D01*
X153714193Y-59305873D01*
X153547576Y-59426926D01*
X153547571Y-59426930D01*
X153401930Y-59572571D01*
X153401926Y-59572576D01*
X153280873Y-59739193D01*
X153187367Y-59922705D01*
X153123719Y-60118591D01*
X153091500Y-60322019D01*
X152333500Y-60322019D01*
X152333500Y-60232019D01*
X152306032Y-60058592D01*
X152301280Y-60028591D01*
X152257129Y-59892710D01*
X152237634Y-59832710D01*
X152237632Y-59832707D01*
X152237632Y-59832705D01*
X152203709Y-59766128D01*
X152144129Y-59649197D01*
X152110257Y-59602576D01*
X152023073Y-59482576D01*
X152023069Y-59482571D01*
X151877428Y-59336930D01*
X151877423Y-59336926D01*
X151710806Y-59215873D01*
X151710805Y-59215872D01*
X151710803Y-59215871D01*
X151645046Y-59182366D01*
X151527294Y-59122367D01*
X151331408Y-59058719D01*
X151155794Y-59030905D01*
X151127981Y-59026500D01*
X150922019Y-59026500D01*
X150897550Y-59030375D01*
X150718591Y-59058719D01*
X150522705Y-59122367D01*
X150339193Y-59215873D01*
X150172576Y-59336926D01*
X150172571Y-59336930D01*
X150026930Y-59482571D01*
X150026926Y-59482576D01*
X149905873Y-59649193D01*
X149812367Y-59832705D01*
X149748719Y-60028591D01*
X149716500Y-60232019D01*
X148948997Y-60232019D01*
X148926280Y-60088592D01*
X148862634Y-59892710D01*
X148862632Y-59892707D01*
X148862632Y-59892705D01*
X148828709Y-59826128D01*
X148769129Y-59709197D01*
X148691661Y-59602571D01*
X148648073Y-59542576D01*
X148648069Y-59542571D01*
X148502428Y-59396930D01*
X148502423Y-59396926D01*
X148335806Y-59275873D01*
X148335805Y-59275872D01*
X148335803Y-59275871D01*
X148270046Y-59242366D01*
X148152294Y-59182367D01*
X147956408Y-59118719D01*
X147766991Y-59088719D01*
X147752981Y-59086500D01*
X147547019Y-59086500D01*
X147533009Y-59088719D01*
X147343591Y-59118719D01*
X147147705Y-59182367D01*
X146964193Y-59275873D01*
X146797576Y-59396926D01*
X146797571Y-59396930D01*
X146651930Y-59542571D01*
X146651926Y-59542576D01*
X146530873Y-59709193D01*
X146437367Y-59892705D01*
X146373719Y-60088591D01*
X146341500Y-60292019D01*
X145569245Y-60292019D01*
X145551280Y-60178592D01*
X145541532Y-60148592D01*
X145521749Y-60087707D01*
X145487634Y-59982710D01*
X145487632Y-59982707D01*
X145487632Y-59982705D01*
X145441774Y-59892705D01*
X145394129Y-59799197D01*
X145350534Y-59739193D01*
X145273073Y-59632576D01*
X145273069Y-59632571D01*
X145127428Y-59486930D01*
X145127423Y-59486926D01*
X144960806Y-59365873D01*
X144960805Y-59365872D01*
X144960803Y-59365871D01*
X144887902Y-59328726D01*
X144777294Y-59272367D01*
X144581408Y-59208719D01*
X144391991Y-59178719D01*
X144377981Y-59176500D01*
X144172019Y-59176500D01*
X144158009Y-59178719D01*
X143968591Y-59208719D01*
X143772705Y-59272367D01*
X143589193Y-59365873D01*
X143422576Y-59486926D01*
X143422571Y-59486930D01*
X143276930Y-59632571D01*
X143276926Y-59632576D01*
X143155873Y-59799193D01*
X143062367Y-59982705D01*
X142998719Y-60178591D01*
X142966500Y-60382019D01*
X142208500Y-60382019D01*
X142208500Y-60352019D01*
X142181032Y-60178592D01*
X142176280Y-60148591D01*
X142146749Y-60057707D01*
X142112634Y-59952710D01*
X142112632Y-59952707D01*
X142112632Y-59952705D01*
X142066774Y-59862705D01*
X142019129Y-59769197D01*
X141975534Y-59709193D01*
X141898073Y-59602576D01*
X141898069Y-59602571D01*
X141752428Y-59456930D01*
X141752423Y-59456926D01*
X141585806Y-59335873D01*
X141585805Y-59335872D01*
X141585803Y-59335871D01*
X141526925Y-59305871D01*
X141402294Y-59242367D01*
X141206408Y-59178719D01*
X141016991Y-59148719D01*
X141002981Y-59146500D01*
X140797019Y-59146500D01*
X140783009Y-59148719D01*
X140593591Y-59178719D01*
X140397705Y-59242367D01*
X140214193Y-59335873D01*
X140047576Y-59456926D01*
X140047571Y-59456930D01*
X139901930Y-59602571D01*
X139901926Y-59602576D01*
X139780873Y-59769193D01*
X139687367Y-59952705D01*
X139623719Y-60148591D01*
X139591500Y-60352019D01*
X100075500Y-60352019D01*
X100075500Y-54597019D01*
X102591500Y-54597019D01*
X102591500Y-54802980D01*
X102623719Y-55006408D01*
X102687367Y-55202294D01*
X102780873Y-55385806D01*
X102901926Y-55552423D01*
X102901930Y-55552428D01*
X103047571Y-55698069D01*
X103047576Y-55698073D01*
X103156936Y-55777527D01*
X103214197Y-55819129D01*
X103292395Y-55858973D01*
X103397705Y-55912632D01*
X103397707Y-55912632D01*
X103397710Y-55912634D01*
X103502707Y-55946749D01*
X103593591Y-55976280D01*
X103695305Y-55992390D01*
X103797019Y-56008500D01*
X103797020Y-56008500D01*
X104002980Y-56008500D01*
X104002981Y-56008500D01*
X104206408Y-55976280D01*
X104402290Y-55912634D01*
X104405099Y-55911203D01*
X104406927Y-55910271D01*
X104585803Y-55819129D01*
X104752430Y-55698068D01*
X104898068Y-55552430D01*
X105019129Y-55385803D01*
X105112634Y-55202290D01*
X105176280Y-55006408D01*
X105208500Y-54802981D01*
X105208500Y-54597019D01*
X105176280Y-54393592D01*
X105163259Y-54353519D01*
X105112632Y-54197705D01*
X105069196Y-54112458D01*
X105019129Y-54014197D01*
X104999830Y-53987634D01*
X104898073Y-53847576D01*
X104898069Y-53847571D01*
X104752428Y-53701930D01*
X104752423Y-53701926D01*
X104751623Y-53701345D01*
X110761500Y-53701345D01*
X110761500Y-55498654D01*
X110768011Y-55559202D01*
X110768011Y-55559204D01*
X110819111Y-55696204D01*
X110906739Y-55813261D01*
X111023796Y-55900889D01*
X111160799Y-55951989D01*
X111188050Y-55954918D01*
X111221345Y-55958499D01*
X111221362Y-55958500D01*
X113018638Y-55958500D01*
X113018654Y-55958499D01*
X113045692Y-55955591D01*
X113079201Y-55951989D01*
X113216204Y-55900889D01*
X113333261Y-55813261D01*
X113420889Y-55696204D01*
X113465957Y-55575371D01*
X113507827Y-55519442D01*
X113573291Y-55495025D01*
X113641564Y-55509877D01*
X113669818Y-55531028D01*
X113774996Y-55636206D01*
X113947991Y-55761894D01*
X114034609Y-55806028D01*
X114138516Y-55858972D01*
X114138519Y-55858973D01*
X114240200Y-55892010D01*
X114341884Y-55925049D01*
X114553084Y-55958500D01*
X114553085Y-55958500D01*
X114766915Y-55958500D01*
X114766916Y-55958500D01*
X114978116Y-55925049D01*
X115181483Y-55858972D01*
X115372009Y-55761894D01*
X115545004Y-55636206D01*
X115696206Y-55485004D01*
X115821894Y-55312009D01*
X115821896Y-55312004D01*
X115824270Y-55308132D01*
X115876080Y-55261254D01*
X115945009Y-55249829D01*
X116009173Y-55277483D01*
X116035730Y-55308132D01*
X116038103Y-55312005D01*
X116038105Y-55312008D01*
X116038106Y-55312009D01*
X116163794Y-55485004D01*
X116314996Y-55636206D01*
X116487991Y-55761894D01*
X116574609Y-55806028D01*
X116678516Y-55858972D01*
X116678519Y-55858973D01*
X116780200Y-55892010D01*
X116881884Y-55925049D01*
X117093084Y-55958500D01*
X117093085Y-55958500D01*
X117306915Y-55958500D01*
X117306916Y-55958500D01*
X117518116Y-55925049D01*
X117721483Y-55858972D01*
X117912009Y-55761894D01*
X118085004Y-55636206D01*
X118236206Y-55485004D01*
X118361894Y-55312009D01*
X118361896Y-55312004D01*
X118364270Y-55308132D01*
X118416080Y-55261254D01*
X118485009Y-55249829D01*
X118549173Y-55277483D01*
X118575730Y-55308132D01*
X118578103Y-55312005D01*
X118578105Y-55312008D01*
X118578106Y-55312009D01*
X118703794Y-55485004D01*
X118854996Y-55636206D01*
X119027991Y-55761894D01*
X119114609Y-55806028D01*
X119218516Y-55858972D01*
X119218519Y-55858973D01*
X119320200Y-55892010D01*
X119421884Y-55925049D01*
X119633084Y-55958500D01*
X119633085Y-55958500D01*
X119846915Y-55958500D01*
X119846916Y-55958500D01*
X120058116Y-55925049D01*
X120261483Y-55858972D01*
X120452009Y-55761894D01*
X120625004Y-55636206D01*
X120776206Y-55485004D01*
X120901894Y-55312009D01*
X120901896Y-55312004D01*
X120904270Y-55308132D01*
X120956080Y-55261254D01*
X121025009Y-55249829D01*
X121089173Y-55277483D01*
X121115730Y-55308132D01*
X121118103Y-55312005D01*
X121118105Y-55312008D01*
X121118106Y-55312009D01*
X121243794Y-55485004D01*
X121394996Y-55636206D01*
X121567991Y-55761894D01*
X121654609Y-55806028D01*
X121758516Y-55858972D01*
X121758519Y-55858973D01*
X121860200Y-55892010D01*
X121961884Y-55925049D01*
X122173084Y-55958500D01*
X122173085Y-55958500D01*
X122386915Y-55958500D01*
X122386916Y-55958500D01*
X122598116Y-55925049D01*
X122801483Y-55858972D01*
X122992009Y-55761894D01*
X123165004Y-55636206D01*
X123316206Y-55485004D01*
X123441894Y-55312009D01*
X123441896Y-55312004D01*
X123444270Y-55308132D01*
X123496080Y-55261254D01*
X123565009Y-55249829D01*
X123629173Y-55277483D01*
X123655730Y-55308132D01*
X123658103Y-55312005D01*
X123658105Y-55312008D01*
X123658106Y-55312009D01*
X123783794Y-55485004D01*
X123934996Y-55636206D01*
X124107991Y-55761894D01*
X124194609Y-55806028D01*
X124298516Y-55858972D01*
X124298519Y-55858973D01*
X124400200Y-55892010D01*
X124501884Y-55925049D01*
X124713084Y-55958500D01*
X124713085Y-55958500D01*
X124926915Y-55958500D01*
X124926916Y-55958500D01*
X125138116Y-55925049D01*
X125341483Y-55858972D01*
X125532009Y-55761894D01*
X125705004Y-55636206D01*
X125856206Y-55485004D01*
X125981894Y-55312009D01*
X125984283Y-55307319D01*
X126032254Y-55256522D01*
X126100074Y-55239724D01*
X126166210Y-55262258D01*
X126202196Y-55303783D01*
X126202829Y-55303396D01*
X126205167Y-55307211D01*
X126205251Y-55307308D01*
X126205371Y-55307545D01*
X126205373Y-55307547D01*
X126244728Y-55361716D01*
X126877037Y-54729408D01*
X126894075Y-54792993D01*
X126959901Y-54907007D01*
X127052993Y-55000099D01*
X127167007Y-55065925D01*
X127230590Y-55082962D01*
X126598282Y-55715269D01*
X126598282Y-55715270D01*
X126652449Y-55754624D01*
X126841782Y-55851095D01*
X127043870Y-55916757D01*
X127253754Y-55950000D01*
X127466246Y-55950000D01*
X127676127Y-55916757D01*
X127676130Y-55916757D01*
X127878217Y-55851095D01*
X128067554Y-55754622D01*
X128121716Y-55715270D01*
X128121717Y-55715270D01*
X127489408Y-55082962D01*
X127552993Y-55065925D01*
X127667007Y-55000099D01*
X127760099Y-54907007D01*
X127825925Y-54792993D01*
X127842962Y-54729408D01*
X128475270Y-55361717D01*
X128475270Y-55361716D01*
X128514621Y-55307556D01*
X128514738Y-55307327D01*
X128514808Y-55307252D01*
X128517168Y-55303402D01*
X128517976Y-55303897D01*
X128562707Y-55256526D01*
X128630526Y-55239723D01*
X128696663Y-55262254D01*
X128735712Y-55307311D01*
X128738105Y-55312008D01*
X128774220Y-55361716D01*
X128863794Y-55485004D01*
X129014996Y-55636206D01*
X129187991Y-55761894D01*
X129274609Y-55806028D01*
X129378516Y-55858972D01*
X129378519Y-55858973D01*
X129480200Y-55892010D01*
X129581884Y-55925049D01*
X129793084Y-55958500D01*
X129793085Y-55958500D01*
X130006915Y-55958500D01*
X130006916Y-55958500D01*
X130218116Y-55925049D01*
X130421483Y-55858972D01*
X130612009Y-55761894D01*
X130785004Y-55636206D01*
X130936206Y-55485004D01*
X131061894Y-55312009D01*
X131061896Y-55312004D01*
X131064270Y-55308132D01*
X131116080Y-55261254D01*
X131185009Y-55249829D01*
X131249173Y-55277483D01*
X131275730Y-55308132D01*
X131278103Y-55312005D01*
X131278105Y-55312008D01*
X131278106Y-55312009D01*
X131403794Y-55485004D01*
X131554996Y-55636206D01*
X131727991Y-55761894D01*
X131814609Y-55806028D01*
X131918516Y-55858972D01*
X131918519Y-55858973D01*
X132020200Y-55892010D01*
X132121884Y-55925049D01*
X132333084Y-55958500D01*
X132333085Y-55958500D01*
X132546915Y-55958500D01*
X132546916Y-55958500D01*
X132758116Y-55925049D01*
X132961483Y-55858972D01*
X133152009Y-55761894D01*
X133325004Y-55636206D01*
X133476206Y-55485004D01*
X133601894Y-55312009D01*
X133698972Y-55121483D01*
X133765049Y-54918116D01*
X133788812Y-54768084D01*
X159976500Y-54768084D01*
X159976500Y-54981915D01*
X160009951Y-55193117D01*
X160076026Y-55396480D01*
X160076027Y-55396483D01*
X160167178Y-55575375D01*
X160173106Y-55587009D01*
X160298794Y-55760004D01*
X160449996Y-55911206D01*
X160622991Y-56036894D01*
X160716438Y-56084507D01*
X160813516Y-56133972D01*
X160813519Y-56133973D01*
X160915200Y-56167010D01*
X161016884Y-56200049D01*
X161228084Y-56233500D01*
X161228085Y-56233500D01*
X161441915Y-56233500D01*
X161441916Y-56233500D01*
X161653116Y-56200049D01*
X161856483Y-56133972D01*
X162047009Y-56036894D01*
X162220004Y-55911206D01*
X162325184Y-55806025D01*
X162386503Y-55772543D01*
X162456195Y-55777527D01*
X162512129Y-55819398D01*
X162529043Y-55850375D01*
X162574110Y-55971203D01*
X162574111Y-55971204D01*
X162661739Y-56088261D01*
X162778796Y-56175889D01*
X162915799Y-56226989D01*
X162943050Y-56229918D01*
X162976345Y-56233499D01*
X162976362Y-56233500D01*
X164773638Y-56233500D01*
X164773654Y-56233499D01*
X164800692Y-56230591D01*
X164834201Y-56226989D01*
X164971204Y-56175889D01*
X165088261Y-56088261D01*
X165175889Y-55971204D01*
X165226989Y-55834201D01*
X165230591Y-55800692D01*
X165233499Y-55773654D01*
X165233500Y-55773637D01*
X165233500Y-53976362D01*
X165233499Y-53976345D01*
X165229347Y-53937732D01*
X165226989Y-53915799D01*
X165220956Y-53899625D01*
X165196132Y-53833069D01*
X165175889Y-53778796D01*
X165088261Y-53661739D01*
X164971204Y-53574111D01*
X164953292Y-53567430D01*
X164834203Y-53523011D01*
X164773654Y-53516500D01*
X164773638Y-53516500D01*
X162976362Y-53516500D01*
X162976345Y-53516500D01*
X162915797Y-53523011D01*
X162915795Y-53523011D01*
X162778795Y-53574111D01*
X162661739Y-53661739D01*
X162574111Y-53778795D01*
X162529043Y-53899625D01*
X162487171Y-53955558D01*
X162421707Y-53979974D01*
X162353434Y-53965122D01*
X162325181Y-53943971D01*
X162220006Y-53838796D01*
X162220004Y-53838794D01*
X162047009Y-53713106D01*
X162016326Y-53697472D01*
X161856483Y-53616027D01*
X161856480Y-53616026D01*
X161653117Y-53549951D01*
X161547516Y-53533225D01*
X161441916Y-53516500D01*
X161228084Y-53516500D01*
X161157684Y-53527650D01*
X161016882Y-53549951D01*
X160813519Y-53616026D01*
X160813516Y-53616027D01*
X160622990Y-53713106D01*
X160449993Y-53838796D01*
X160298796Y-53989993D01*
X160173106Y-54162990D01*
X160076027Y-54353516D01*
X160076026Y-54353519D01*
X160009951Y-54556882D01*
X159976500Y-54768084D01*
X133788812Y-54768084D01*
X133798500Y-54706916D01*
X133798500Y-54493084D01*
X133765049Y-54281884D01*
X133698972Y-54078517D01*
X133698972Y-54078516D01*
X133641194Y-53965122D01*
X133601894Y-53887991D01*
X133476206Y-53714996D01*
X133325004Y-53563794D01*
X133152009Y-53438106D01*
X133078804Y-53400806D01*
X132961483Y-53341027D01*
X132961480Y-53341026D01*
X132758117Y-53274951D01*
X132652516Y-53258225D01*
X132546916Y-53241500D01*
X132333084Y-53241500D01*
X132262684Y-53252650D01*
X132121882Y-53274951D01*
X131918519Y-53341026D01*
X131918516Y-53341027D01*
X131727990Y-53438106D01*
X131554993Y-53563796D01*
X131403796Y-53714993D01*
X131278105Y-53887991D01*
X131275727Y-53891873D01*
X131223914Y-53938748D01*
X131154984Y-53950169D01*
X131090822Y-53922512D01*
X131064273Y-53891873D01*
X131061894Y-53887991D01*
X131021990Y-53833068D01*
X130936206Y-53714996D01*
X130785004Y-53563794D01*
X130612009Y-53438106D01*
X130538804Y-53400806D01*
X130421483Y-53341027D01*
X130421480Y-53341026D01*
X130218117Y-53274951D01*
X130112516Y-53258225D01*
X130006916Y-53241500D01*
X129793084Y-53241500D01*
X129722684Y-53252650D01*
X129581882Y-53274951D01*
X129378519Y-53341026D01*
X129378516Y-53341027D01*
X129187990Y-53438106D01*
X129014993Y-53563796D01*
X128863796Y-53714993D01*
X128738103Y-53887994D01*
X128735709Y-53892693D01*
X128687731Y-53943485D01*
X128619908Y-53960275D01*
X128553775Y-53937732D01*
X128517804Y-53896215D01*
X128517171Y-53896604D01*
X128514826Y-53892778D01*
X128514743Y-53892682D01*
X128514624Y-53892449D01*
X128475270Y-53838282D01*
X128475269Y-53838282D01*
X127842962Y-54470590D01*
X127825925Y-54407007D01*
X127760099Y-54292993D01*
X127667007Y-54199901D01*
X127552993Y-54134075D01*
X127489409Y-54117037D01*
X128121716Y-53484728D01*
X128067550Y-53445375D01*
X127878217Y-53348904D01*
X127676129Y-53283242D01*
X127466246Y-53250000D01*
X127253754Y-53250000D01*
X127043872Y-53283242D01*
X127043869Y-53283242D01*
X126841782Y-53348904D01*
X126652439Y-53445380D01*
X126598282Y-53484727D01*
X126598282Y-53484728D01*
X127230591Y-54117037D01*
X127167007Y-54134075D01*
X127052993Y-54199901D01*
X126959901Y-54292993D01*
X126894075Y-54407007D01*
X126877037Y-54470591D01*
X126244728Y-53838282D01*
X126244727Y-53838282D01*
X126205380Y-53892440D01*
X126205374Y-53892449D01*
X126205246Y-53892702D01*
X126205172Y-53892780D01*
X126202838Y-53896590D01*
X126202036Y-53896099D01*
X126157264Y-53943490D01*
X126089441Y-53960275D01*
X126023309Y-53937728D01*
X125984283Y-53892680D01*
X125981894Y-53887991D01*
X125856206Y-53714996D01*
X125705004Y-53563794D01*
X125532009Y-53438106D01*
X125458804Y-53400806D01*
X125341483Y-53341027D01*
X125341480Y-53341026D01*
X125138117Y-53274951D01*
X125032516Y-53258225D01*
X124926916Y-53241500D01*
X124713084Y-53241500D01*
X124642684Y-53252650D01*
X124501882Y-53274951D01*
X124298519Y-53341026D01*
X124298516Y-53341027D01*
X124107990Y-53438106D01*
X123934993Y-53563796D01*
X123783796Y-53714993D01*
X123658105Y-53887991D01*
X123655727Y-53891873D01*
X123603914Y-53938748D01*
X123534984Y-53950169D01*
X123470822Y-53922512D01*
X123444273Y-53891873D01*
X123441894Y-53887991D01*
X123401990Y-53833068D01*
X123316206Y-53714996D01*
X123165004Y-53563794D01*
X122992009Y-53438106D01*
X122918804Y-53400806D01*
X122801483Y-53341027D01*
X122801480Y-53341026D01*
X122598117Y-53274951D01*
X122492516Y-53258225D01*
X122386916Y-53241500D01*
X122173084Y-53241500D01*
X122102684Y-53252650D01*
X121961882Y-53274951D01*
X121758519Y-53341026D01*
X121758516Y-53341027D01*
X121567990Y-53438106D01*
X121394993Y-53563796D01*
X121243796Y-53714993D01*
X121118105Y-53887991D01*
X121115727Y-53891873D01*
X121063914Y-53938748D01*
X120994984Y-53950169D01*
X120930822Y-53922512D01*
X120904273Y-53891873D01*
X120901894Y-53887991D01*
X120861990Y-53833068D01*
X120776206Y-53714996D01*
X120625004Y-53563794D01*
X120452009Y-53438106D01*
X120378804Y-53400806D01*
X120261483Y-53341027D01*
X120261480Y-53341026D01*
X120058117Y-53274951D01*
X119952516Y-53258225D01*
X119846916Y-53241500D01*
X119633084Y-53241500D01*
X119562684Y-53252650D01*
X119421882Y-53274951D01*
X119218519Y-53341026D01*
X119218516Y-53341027D01*
X119027990Y-53438106D01*
X118854993Y-53563796D01*
X118703796Y-53714993D01*
X118578105Y-53887991D01*
X118575727Y-53891873D01*
X118523914Y-53938748D01*
X118454984Y-53950169D01*
X118390822Y-53922512D01*
X118364273Y-53891873D01*
X118361894Y-53887991D01*
X118321990Y-53833068D01*
X118236206Y-53714996D01*
X118085004Y-53563794D01*
X117912009Y-53438106D01*
X117838804Y-53400806D01*
X117721483Y-53341027D01*
X117721480Y-53341026D01*
X117518117Y-53274951D01*
X117412516Y-53258225D01*
X117306916Y-53241500D01*
X117093084Y-53241500D01*
X117022684Y-53252650D01*
X116881882Y-53274951D01*
X116678519Y-53341026D01*
X116678516Y-53341027D01*
X116487990Y-53438106D01*
X116314993Y-53563796D01*
X116163796Y-53714993D01*
X116038105Y-53887991D01*
X116035727Y-53891873D01*
X115983914Y-53938748D01*
X115914984Y-53950169D01*
X115850822Y-53922512D01*
X115824273Y-53891873D01*
X115821894Y-53887991D01*
X115781990Y-53833068D01*
X115696206Y-53714996D01*
X115545004Y-53563794D01*
X115372009Y-53438106D01*
X115298804Y-53400806D01*
X115181483Y-53341027D01*
X115181480Y-53341026D01*
X114978117Y-53274951D01*
X114872516Y-53258225D01*
X114766916Y-53241500D01*
X114553084Y-53241500D01*
X114482684Y-53252650D01*
X114341882Y-53274951D01*
X114138519Y-53341026D01*
X114138516Y-53341027D01*
X113947990Y-53438106D01*
X113774997Y-53563793D01*
X113669818Y-53668972D01*
X113608495Y-53702456D01*
X113538803Y-53697472D01*
X113482870Y-53655600D01*
X113465958Y-53624629D01*
X113420889Y-53503796D01*
X113333261Y-53386739D01*
X113216204Y-53299111D01*
X113079203Y-53248011D01*
X113018654Y-53241500D01*
X113018638Y-53241500D01*
X111221362Y-53241500D01*
X111221345Y-53241500D01*
X111160797Y-53248011D01*
X111160795Y-53248011D01*
X111023795Y-53299111D01*
X110906739Y-53386739D01*
X110819111Y-53503795D01*
X110768011Y-53640795D01*
X110768011Y-53640797D01*
X110761500Y-53701345D01*
X104751623Y-53701345D01*
X104585806Y-53580873D01*
X104585805Y-53580872D01*
X104585803Y-53580871D01*
X104525119Y-53549951D01*
X104402294Y-53487367D01*
X104206408Y-53423719D01*
X104030794Y-53395905D01*
X104002981Y-53391500D01*
X103797019Y-53391500D01*
X103772550Y-53395375D01*
X103593591Y-53423719D01*
X103397705Y-53487367D01*
X103214193Y-53580873D01*
X103047576Y-53701926D01*
X103047571Y-53701930D01*
X102901930Y-53847571D01*
X102901926Y-53847576D01*
X102780873Y-54014193D01*
X102687367Y-54197705D01*
X102623719Y-54393591D01*
X102591500Y-54597019D01*
X100075500Y-54597019D01*
X100075500Y-52732019D01*
X139591500Y-52732019D01*
X139591500Y-52937980D01*
X139623719Y-53141408D01*
X139687367Y-53337294D01*
X139742438Y-53445375D01*
X139772205Y-53503796D01*
X139780873Y-53520806D01*
X139901926Y-53687423D01*
X139901930Y-53687428D01*
X140047571Y-53833069D01*
X140047576Y-53833073D01*
X140191623Y-53937728D01*
X140214197Y-53954129D01*
X140284584Y-53989993D01*
X140397705Y-54047632D01*
X140397707Y-54047632D01*
X140397710Y-54047634D01*
X140492755Y-54078516D01*
X140593591Y-54111280D01*
X140607608Y-54113500D01*
X140797019Y-54143500D01*
X140797020Y-54143500D01*
X141002980Y-54143500D01*
X141002981Y-54143500D01*
X141206408Y-54111280D01*
X141402290Y-54047634D01*
X141585803Y-53954129D01*
X141752430Y-53833068D01*
X141898068Y-53687430D01*
X142019129Y-53520803D01*
X142112634Y-53337290D01*
X142176280Y-53141408D01*
X142208500Y-52937981D01*
X142208500Y-52762019D01*
X142966500Y-52762019D01*
X142966500Y-52967980D01*
X142998719Y-53171408D01*
X143062367Y-53367294D01*
X143155873Y-53550806D01*
X143276926Y-53717423D01*
X143276930Y-53717428D01*
X143422571Y-53863069D01*
X143422576Y-53863073D01*
X143556365Y-53960275D01*
X143589197Y-53984129D01*
X143662110Y-54021280D01*
X143772705Y-54077632D01*
X143772707Y-54077632D01*
X143772710Y-54077634D01*
X143876262Y-54111280D01*
X143968591Y-54141280D01*
X143982608Y-54143500D01*
X144172019Y-54173500D01*
X144172020Y-54173500D01*
X144377980Y-54173500D01*
X144377981Y-54173500D01*
X144581408Y-54141280D01*
X144777290Y-54077634D01*
X144960803Y-53984129D01*
X145127430Y-53863068D01*
X145273068Y-53717430D01*
X145394129Y-53550803D01*
X145487634Y-53367290D01*
X145551280Y-53171408D01*
X145583500Y-52967981D01*
X145583500Y-52762019D01*
X145569245Y-52672019D01*
X146341500Y-52672019D01*
X146341500Y-52877980D01*
X146373719Y-53081408D01*
X146437367Y-53277294D01*
X146493133Y-53386739D01*
X146519306Y-53438106D01*
X146530873Y-53460806D01*
X146651926Y-53627423D01*
X146651930Y-53627428D01*
X146797571Y-53773069D01*
X146797576Y-53773073D01*
X146900115Y-53847571D01*
X146964197Y-53894129D01*
X147061063Y-53943485D01*
X147147705Y-53987632D01*
X147147707Y-53987632D01*
X147147710Y-53987634D01*
X147251262Y-54021280D01*
X147343591Y-54051280D01*
X147357608Y-54053500D01*
X147547019Y-54083500D01*
X147547020Y-54083500D01*
X147752980Y-54083500D01*
X147752981Y-54083500D01*
X147956408Y-54051280D01*
X148152290Y-53987634D01*
X148335803Y-53894129D01*
X148502430Y-53773068D01*
X148648068Y-53627430D01*
X148769129Y-53460803D01*
X148862634Y-53277290D01*
X148926280Y-53081408D01*
X148958500Y-52877981D01*
X148958500Y-52672019D01*
X148948997Y-52612019D01*
X149716500Y-52612019D01*
X149716500Y-52817980D01*
X149748719Y-53021408D01*
X149812367Y-53217294D01*
X149905873Y-53400806D01*
X150026926Y-53567423D01*
X150026930Y-53567428D01*
X150172571Y-53713069D01*
X150172576Y-53713073D01*
X150255160Y-53773073D01*
X150339197Y-53834129D01*
X150452525Y-53891873D01*
X150522705Y-53927632D01*
X150522707Y-53927632D01*
X150522710Y-53927634D01*
X150623169Y-53960275D01*
X150718591Y-53991280D01*
X150820305Y-54007390D01*
X150922019Y-54023500D01*
X150922020Y-54023500D01*
X151127980Y-54023500D01*
X151127981Y-54023500D01*
X151331408Y-53991280D01*
X151527290Y-53927634D01*
X151710803Y-53834129D01*
X151877430Y-53713068D01*
X152023068Y-53567430D01*
X152144129Y-53400803D01*
X152237634Y-53217290D01*
X152301280Y-53021408D01*
X152333500Y-52817981D01*
X152333500Y-52702019D01*
X153091500Y-52702019D01*
X153091500Y-52907980D01*
X153123719Y-53111408D01*
X153187367Y-53307294D01*
X153227847Y-53386739D01*
X153279120Y-53487367D01*
X153280873Y-53490806D01*
X153401926Y-53657423D01*
X153401930Y-53657428D01*
X153547571Y-53803069D01*
X153547576Y-53803073D01*
X153672901Y-53894126D01*
X153714197Y-53924129D01*
X153831128Y-53983709D01*
X153897705Y-54017632D01*
X153897707Y-54017632D01*
X153897710Y-54017634D01*
X154001262Y-54051280D01*
X154093591Y-54081280D01*
X154107608Y-54083500D01*
X154297019Y-54113500D01*
X154297020Y-54113500D01*
X154502980Y-54113500D01*
X154502981Y-54113500D01*
X154706408Y-54081280D01*
X154902290Y-54017634D01*
X155085803Y-53924129D01*
X155252430Y-53803068D01*
X155398068Y-53657430D01*
X155519129Y-53490803D01*
X155612634Y-53307290D01*
X155676280Y-53111408D01*
X155708500Y-52907981D01*
X155708500Y-52702019D01*
X155698997Y-52642019D01*
X156466500Y-52642019D01*
X156466500Y-52847980D01*
X156498719Y-53051408D01*
X156562367Y-53247294D01*
X156655873Y-53430806D01*
X156776926Y-53597423D01*
X156776930Y-53597428D01*
X156922571Y-53743069D01*
X156922576Y-53743073D01*
X157005160Y-53803073D01*
X157089197Y-53864129D01*
X157190597Y-53915795D01*
X157272705Y-53957632D01*
X157272707Y-53957632D01*
X157272710Y-53957634D01*
X157372301Y-53989993D01*
X157468591Y-54021280D01*
X157482608Y-54023500D01*
X157672019Y-54053500D01*
X157672020Y-54053500D01*
X157877980Y-54053500D01*
X157877981Y-54053500D01*
X158081408Y-54021280D01*
X158277290Y-53957634D01*
X158460803Y-53864129D01*
X158627430Y-53743068D01*
X158773068Y-53597430D01*
X158894129Y-53430803D01*
X158987634Y-53247290D01*
X159051280Y-53051408D01*
X159083500Y-52847981D01*
X159083500Y-52642019D01*
X159056032Y-52468592D01*
X159051280Y-52438591D01*
X159007129Y-52302710D01*
X158987634Y-52242710D01*
X158987632Y-52242707D01*
X158987632Y-52242705D01*
X158953709Y-52176128D01*
X158894129Y-52059197D01*
X158860257Y-52012576D01*
X158773073Y-51892576D01*
X158773069Y-51892571D01*
X158627428Y-51746930D01*
X158627423Y-51746926D01*
X158460806Y-51625873D01*
X158460805Y-51625872D01*
X158460803Y-51625871D01*
X158395046Y-51592366D01*
X158277294Y-51532367D01*
X158081408Y-51468719D01*
X157891991Y-51438719D01*
X157877981Y-51436500D01*
X157672019Y-51436500D01*
X157658009Y-51438719D01*
X157468591Y-51468719D01*
X157272705Y-51532367D01*
X157089193Y-51625873D01*
X156922576Y-51746926D01*
X156922571Y-51746930D01*
X156776930Y-51892571D01*
X156776926Y-51892576D01*
X156655873Y-52059193D01*
X156562367Y-52242705D01*
X156498719Y-52438591D01*
X156466500Y-52642019D01*
X155698997Y-52642019D01*
X155676280Y-52498592D01*
X155612634Y-52302710D01*
X155612632Y-52302707D01*
X155612632Y-52302705D01*
X155566774Y-52212705D01*
X155519129Y-52119197D01*
X155475534Y-52059193D01*
X155398073Y-51952576D01*
X155398069Y-51952571D01*
X155252428Y-51806930D01*
X155252423Y-51806926D01*
X155085806Y-51685873D01*
X155085805Y-51685872D01*
X155085803Y-51685871D01*
X155020046Y-51652366D01*
X154902294Y-51592367D01*
X154706408Y-51528719D01*
X154516991Y-51498719D01*
X154502981Y-51496500D01*
X154297019Y-51496500D01*
X154283009Y-51498719D01*
X154093591Y-51528719D01*
X153897705Y-51592367D01*
X153714193Y-51685873D01*
X153547576Y-51806926D01*
X153547571Y-51806930D01*
X153401930Y-51952571D01*
X153401926Y-51952576D01*
X153280873Y-52119193D01*
X153187367Y-52302705D01*
X153123719Y-52498591D01*
X153091500Y-52702019D01*
X152333500Y-52702019D01*
X152333500Y-52612019D01*
X152306032Y-52438592D01*
X152301280Y-52408591D01*
X152257129Y-52272710D01*
X152237634Y-52212710D01*
X152237632Y-52212707D01*
X152237632Y-52212705D01*
X152203709Y-52146128D01*
X152144129Y-52029197D01*
X152110257Y-51982576D01*
X152023073Y-51862576D01*
X152023069Y-51862571D01*
X151877428Y-51716930D01*
X151877423Y-51716926D01*
X151710806Y-51595873D01*
X151710805Y-51595872D01*
X151710803Y-51595871D01*
X151645046Y-51562366D01*
X151527294Y-51502367D01*
X151331408Y-51438719D01*
X151155794Y-51410905D01*
X151127981Y-51406500D01*
X150922019Y-51406500D01*
X150897550Y-51410375D01*
X150718591Y-51438719D01*
X150522705Y-51502367D01*
X150339193Y-51595873D01*
X150172576Y-51716926D01*
X150172571Y-51716930D01*
X150026930Y-51862571D01*
X150026926Y-51862576D01*
X149905873Y-52029193D01*
X149812367Y-52212705D01*
X149748719Y-52408591D01*
X149716500Y-52612019D01*
X148948997Y-52612019D01*
X148926280Y-52468592D01*
X148862634Y-52272710D01*
X148862632Y-52272707D01*
X148862632Y-52272705D01*
X148828709Y-52206128D01*
X148769129Y-52089197D01*
X148691661Y-51982571D01*
X148648073Y-51922576D01*
X148648069Y-51922571D01*
X148502428Y-51776930D01*
X148502423Y-51776926D01*
X148335806Y-51655873D01*
X148335805Y-51655872D01*
X148335803Y-51655871D01*
X148270046Y-51622366D01*
X148152294Y-51562367D01*
X147956408Y-51498719D01*
X147766991Y-51468719D01*
X147752981Y-51466500D01*
X147547019Y-51466500D01*
X147533009Y-51468719D01*
X147343591Y-51498719D01*
X147147705Y-51562367D01*
X146964193Y-51655873D01*
X146797576Y-51776926D01*
X146797571Y-51776930D01*
X146651930Y-51922571D01*
X146651926Y-51922576D01*
X146530873Y-52089193D01*
X146437367Y-52272705D01*
X146373719Y-52468591D01*
X146341500Y-52672019D01*
X145569245Y-52672019D01*
X145551280Y-52558592D01*
X145541532Y-52528592D01*
X145521749Y-52467707D01*
X145487634Y-52362710D01*
X145487632Y-52362707D01*
X145487632Y-52362705D01*
X145441774Y-52272705D01*
X145394129Y-52179197D01*
X145350534Y-52119193D01*
X145273073Y-52012576D01*
X145273069Y-52012571D01*
X145127428Y-51866930D01*
X145127423Y-51866926D01*
X144960806Y-51745873D01*
X144960805Y-51745872D01*
X144960803Y-51745871D01*
X144901925Y-51715871D01*
X144777294Y-51652367D01*
X144581408Y-51588719D01*
X144391991Y-51558719D01*
X144377981Y-51556500D01*
X144172019Y-51556500D01*
X144158009Y-51558719D01*
X143968591Y-51588719D01*
X143772705Y-51652367D01*
X143589193Y-51745873D01*
X143422576Y-51866926D01*
X143422571Y-51866930D01*
X143276930Y-52012571D01*
X143276926Y-52012576D01*
X143155873Y-52179193D01*
X143062367Y-52362705D01*
X142998719Y-52558591D01*
X142966500Y-52762019D01*
X142208500Y-52762019D01*
X142208500Y-52732019D01*
X142181032Y-52558592D01*
X142176280Y-52528591D01*
X142146749Y-52437707D01*
X142112634Y-52332710D01*
X142112632Y-52332707D01*
X142112632Y-52332705D01*
X142066774Y-52242705D01*
X142019129Y-52149197D01*
X141975534Y-52089193D01*
X141898073Y-51982576D01*
X141898069Y-51982571D01*
X141752428Y-51836930D01*
X141752423Y-51836926D01*
X141585806Y-51715873D01*
X141585805Y-51715872D01*
X141585803Y-51715871D01*
X141526925Y-51685871D01*
X141402294Y-51622367D01*
X141206408Y-51558719D01*
X141016991Y-51528719D01*
X141002981Y-51526500D01*
X140797019Y-51526500D01*
X140783009Y-51528719D01*
X140593591Y-51558719D01*
X140397705Y-51622367D01*
X140214193Y-51715873D01*
X140047576Y-51836926D01*
X140047571Y-51836930D01*
X139901930Y-51982571D01*
X139901926Y-51982576D01*
X139780873Y-52149193D01*
X139687367Y-52332705D01*
X139623719Y-52528591D01*
X139591500Y-52732019D01*
X100075500Y-52732019D01*
X100075500Y-49597682D01*
X102600000Y-49597682D01*
X102600000Y-49802317D01*
X102632009Y-50004417D01*
X102695244Y-50199031D01*
X102788141Y-50381350D01*
X102788147Y-50381359D01*
X102820523Y-50425921D01*
X102820524Y-50425922D01*
X103500000Y-49746446D01*
X103500000Y-49752661D01*
X103527259Y-49854394D01*
X103579920Y-49945606D01*
X103654394Y-50020080D01*
X103745606Y-50072741D01*
X103847339Y-50100000D01*
X103853553Y-50100000D01*
X103174076Y-50779474D01*
X103218650Y-50811859D01*
X103400968Y-50904755D01*
X103595582Y-50967990D01*
X103797683Y-51000000D01*
X104002317Y-51000000D01*
X104204417Y-50967990D01*
X104399031Y-50904755D01*
X104581349Y-50811859D01*
X104625921Y-50779474D01*
X103946447Y-50100000D01*
X103952661Y-50100000D01*
X104054394Y-50072741D01*
X104145606Y-50020080D01*
X104220080Y-49945606D01*
X104272741Y-49854394D01*
X104300000Y-49752661D01*
X104300000Y-49746447D01*
X104979474Y-50425921D01*
X105011859Y-50381349D01*
X105104755Y-50199031D01*
X105167990Y-50004417D01*
X105200000Y-49802317D01*
X105200000Y-49597682D01*
X105167990Y-49395582D01*
X105104755Y-49200968D01*
X105011859Y-49018650D01*
X104979474Y-48974077D01*
X104979474Y-48974076D01*
X104300000Y-49653551D01*
X104300000Y-49647339D01*
X104272741Y-49545606D01*
X104220080Y-49454394D01*
X104145606Y-49379920D01*
X104054394Y-49327259D01*
X103952661Y-49300000D01*
X103946446Y-49300000D01*
X104625922Y-48620524D01*
X104625921Y-48620523D01*
X104581359Y-48588147D01*
X104581350Y-48588141D01*
X104399031Y-48495244D01*
X104204417Y-48432009D01*
X104131836Y-48420514D01*
X104002317Y-48400000D01*
X103797683Y-48400000D01*
X103595582Y-48432009D01*
X103400968Y-48495244D01*
X103218644Y-48588143D01*
X103174077Y-48620523D01*
X103174077Y-48620524D01*
X103853554Y-49300000D01*
X103847339Y-49300000D01*
X103745606Y-49327259D01*
X103654394Y-49379920D01*
X103579920Y-49454394D01*
X103527259Y-49545606D01*
X103500000Y-49647339D01*
X103500000Y-49653553D01*
X102820524Y-48974077D01*
X102820523Y-48974077D01*
X102788143Y-49018644D01*
X102695244Y-49200968D01*
X102632009Y-49395582D01*
X102600000Y-49597682D01*
X100075500Y-49597682D01*
X100075500Y-48301345D01*
X117437500Y-48301345D01*
X117437500Y-50098654D01*
X117444011Y-50159202D01*
X117444011Y-50159204D01*
X117495111Y-50296204D01*
X117582739Y-50413261D01*
X117699796Y-50500889D01*
X117836799Y-50551989D01*
X117864050Y-50554918D01*
X117897345Y-50558499D01*
X117897362Y-50558500D01*
X119694638Y-50558500D01*
X119694654Y-50558499D01*
X119721692Y-50555591D01*
X119755201Y-50551989D01*
X119892204Y-50500889D01*
X120009261Y-50413261D01*
X120096889Y-50296204D01*
X120141957Y-50175371D01*
X120183827Y-50119442D01*
X120249291Y-50095025D01*
X120317564Y-50109877D01*
X120345818Y-50131028D01*
X120450996Y-50236206D01*
X120623991Y-50361894D01*
X120717438Y-50409507D01*
X120814516Y-50458972D01*
X120814519Y-50458973D01*
X120916200Y-50492010D01*
X121017884Y-50525049D01*
X121229084Y-50558500D01*
X121229085Y-50558500D01*
X121442915Y-50558500D01*
X121442916Y-50558500D01*
X121654116Y-50525049D01*
X121857483Y-50458972D01*
X122048009Y-50361894D01*
X122221004Y-50236206D01*
X122372206Y-50085004D01*
X122497894Y-49912009D01*
X122497896Y-49912004D01*
X122500270Y-49908132D01*
X122552080Y-49861254D01*
X122621009Y-49849829D01*
X122685173Y-49877483D01*
X122711730Y-49908132D01*
X122714103Y-49912005D01*
X122714105Y-49912008D01*
X122714106Y-49912009D01*
X122839794Y-50085004D01*
X122990996Y-50236206D01*
X123163991Y-50361894D01*
X123257438Y-50409507D01*
X123354516Y-50458972D01*
X123354519Y-50458973D01*
X123456200Y-50492010D01*
X123557884Y-50525049D01*
X123769084Y-50558500D01*
X123769085Y-50558500D01*
X123982915Y-50558500D01*
X123982916Y-50558500D01*
X124194116Y-50525049D01*
X124397483Y-50458972D01*
X124588009Y-50361894D01*
X124761004Y-50236206D01*
X124912206Y-50085004D01*
X125037894Y-49912009D01*
X125040283Y-49907319D01*
X125088254Y-49856522D01*
X125156074Y-49839724D01*
X125222210Y-49862258D01*
X125258201Y-49903788D01*
X125258832Y-49903402D01*
X125261164Y-49907207D01*
X125261251Y-49907308D01*
X125261376Y-49907554D01*
X125386272Y-50079459D01*
X125386276Y-50079464D01*
X125536535Y-50229723D01*
X125536540Y-50229727D01*
X125708442Y-50354620D01*
X125897782Y-50451095D01*
X126099871Y-50516757D01*
X126166000Y-50527231D01*
X126166000Y-49633012D01*
X126223007Y-49665925D01*
X126350174Y-49700000D01*
X126481826Y-49700000D01*
X126608993Y-49665925D01*
X126666000Y-49633012D01*
X126666000Y-50527230D01*
X126732126Y-50516757D01*
X126732129Y-50516757D01*
X126934217Y-50451095D01*
X127123557Y-50354620D01*
X127295459Y-50229727D01*
X127295464Y-50229723D01*
X127445723Y-50079464D01*
X127445727Y-50079459D01*
X127570619Y-49907560D01*
X127570738Y-49907327D01*
X127570808Y-49907252D01*
X127573168Y-49903402D01*
X127573976Y-49903897D01*
X127618707Y-49856526D01*
X127686526Y-49839723D01*
X127752663Y-49862254D01*
X127791712Y-49907311D01*
X127794105Y-49912008D01*
X127836002Y-49969674D01*
X127919794Y-50085004D01*
X128070996Y-50236206D01*
X128243991Y-50361894D01*
X128337438Y-50409507D01*
X128434516Y-50458972D01*
X128434519Y-50458973D01*
X128536200Y-50492010D01*
X128637884Y-50525049D01*
X128849084Y-50558500D01*
X128849085Y-50558500D01*
X129062915Y-50558500D01*
X129062916Y-50558500D01*
X129274116Y-50525049D01*
X129477483Y-50458972D01*
X129668009Y-50361894D01*
X129841004Y-50236206D01*
X129992206Y-50085004D01*
X130117894Y-49912009D01*
X130117896Y-49912004D01*
X130120270Y-49908132D01*
X130172080Y-49861254D01*
X130241009Y-49849829D01*
X130305173Y-49877483D01*
X130331730Y-49908132D01*
X130334103Y-49912005D01*
X130334105Y-49912008D01*
X130334106Y-49912009D01*
X130459794Y-50085004D01*
X130610996Y-50236206D01*
X130783991Y-50361894D01*
X130877438Y-50409507D01*
X130974516Y-50458972D01*
X130974519Y-50458973D01*
X131076200Y-50492010D01*
X131177884Y-50525049D01*
X131389084Y-50558500D01*
X131389085Y-50558500D01*
X131602915Y-50558500D01*
X131602916Y-50558500D01*
X131814116Y-50525049D01*
X132017483Y-50458972D01*
X132208009Y-50361894D01*
X132381004Y-50236206D01*
X132532206Y-50085004D01*
X132657894Y-49912009D01*
X132657896Y-49912004D01*
X132660270Y-49908132D01*
X132712080Y-49861254D01*
X132781009Y-49849829D01*
X132845173Y-49877483D01*
X132871730Y-49908132D01*
X132874103Y-49912005D01*
X132874105Y-49912008D01*
X132874106Y-49912009D01*
X132999794Y-50085004D01*
X133150996Y-50236206D01*
X133323991Y-50361894D01*
X133417438Y-50409507D01*
X133514516Y-50458972D01*
X133514519Y-50458973D01*
X133616200Y-50492010D01*
X133717884Y-50525049D01*
X133929084Y-50558500D01*
X133929085Y-50558500D01*
X134142915Y-50558500D01*
X134142916Y-50558500D01*
X134354116Y-50525049D01*
X134557483Y-50458972D01*
X134748009Y-50361894D01*
X134921004Y-50236206D01*
X135072206Y-50085004D01*
X135197894Y-49912009D01*
X135197896Y-49912004D01*
X135200270Y-49908132D01*
X135252080Y-49861254D01*
X135321009Y-49849829D01*
X135385173Y-49877483D01*
X135411730Y-49908132D01*
X135414103Y-49912005D01*
X135414105Y-49912008D01*
X135414106Y-49912009D01*
X135539794Y-50085004D01*
X135690996Y-50236206D01*
X135863991Y-50361894D01*
X135957438Y-50409507D01*
X136054516Y-50458972D01*
X136054519Y-50458973D01*
X136156200Y-50492010D01*
X136257884Y-50525049D01*
X136469084Y-50558500D01*
X136469085Y-50558500D01*
X136682915Y-50558500D01*
X136682916Y-50558500D01*
X136894116Y-50525049D01*
X137097483Y-50458972D01*
X137288009Y-50361894D01*
X137461004Y-50236206D01*
X137612206Y-50085004D01*
X137737894Y-49912009D01*
X137737896Y-49912004D01*
X137740270Y-49908132D01*
X137792080Y-49861254D01*
X137861009Y-49849829D01*
X137925173Y-49877483D01*
X137951730Y-49908132D01*
X137954103Y-49912005D01*
X137954105Y-49912008D01*
X137954106Y-49912009D01*
X138079794Y-50085004D01*
X138230996Y-50236206D01*
X138403991Y-50361894D01*
X138497438Y-50409507D01*
X138594516Y-50458972D01*
X138594519Y-50458973D01*
X138696200Y-50492010D01*
X138797884Y-50525049D01*
X139009084Y-50558500D01*
X139009085Y-50558500D01*
X139222915Y-50558500D01*
X139222916Y-50558500D01*
X139434116Y-50525049D01*
X139637483Y-50458972D01*
X139828009Y-50361894D01*
X140001004Y-50236206D01*
X140152206Y-50085004D01*
X140277894Y-49912009D01*
X140277896Y-49912004D01*
X140280270Y-49908132D01*
X140332080Y-49861254D01*
X140401009Y-49849829D01*
X140465173Y-49877483D01*
X140491730Y-49908132D01*
X140494103Y-49912005D01*
X140494105Y-49912008D01*
X140494106Y-49912009D01*
X140619794Y-50085004D01*
X140770996Y-50236206D01*
X140943991Y-50361894D01*
X141037438Y-50409507D01*
X141134516Y-50458972D01*
X141134519Y-50458973D01*
X141236200Y-50492010D01*
X141337884Y-50525049D01*
X141549084Y-50558500D01*
X141549085Y-50558500D01*
X141762915Y-50558500D01*
X141762916Y-50558500D01*
X141974116Y-50525049D01*
X142177483Y-50458972D01*
X142368009Y-50361894D01*
X142541004Y-50236206D01*
X142692206Y-50085004D01*
X142817894Y-49912009D01*
X142914972Y-49721483D01*
X142981049Y-49518116D01*
X143014500Y-49306916D01*
X143014500Y-49093084D01*
X142981049Y-48881884D01*
X142914972Y-48678517D01*
X142914972Y-48678516D01*
X142868923Y-48588141D01*
X142817894Y-48487991D01*
X142692206Y-48314996D01*
X142678555Y-48301345D01*
X144361500Y-48301345D01*
X144361500Y-50098654D01*
X144368011Y-50159202D01*
X144368011Y-50159204D01*
X144419111Y-50296204D01*
X144506739Y-50413261D01*
X144623796Y-50500889D01*
X144760799Y-50551989D01*
X144788050Y-50554918D01*
X144821345Y-50558499D01*
X144821362Y-50558500D01*
X146618638Y-50558500D01*
X146618654Y-50558499D01*
X146645692Y-50555591D01*
X146679201Y-50551989D01*
X146816204Y-50500889D01*
X146933261Y-50413261D01*
X147020889Y-50296204D01*
X147065957Y-50175371D01*
X147107827Y-50119442D01*
X147173291Y-50095025D01*
X147241564Y-50109877D01*
X147269818Y-50131028D01*
X147374996Y-50236206D01*
X147547991Y-50361894D01*
X147641438Y-50409507D01*
X147738516Y-50458972D01*
X147738519Y-50458973D01*
X147840200Y-50492010D01*
X147941884Y-50525049D01*
X148153084Y-50558500D01*
X148153085Y-50558500D01*
X148366915Y-50558500D01*
X148366916Y-50558500D01*
X148578116Y-50525049D01*
X148781483Y-50458972D01*
X148972009Y-50361894D01*
X149145004Y-50236206D01*
X149296206Y-50085004D01*
X149421894Y-49912009D01*
X149421896Y-49912004D01*
X149424270Y-49908132D01*
X149476080Y-49861254D01*
X149545009Y-49849829D01*
X149609173Y-49877483D01*
X149635730Y-49908132D01*
X149638103Y-49912005D01*
X149638105Y-49912008D01*
X149638106Y-49912009D01*
X149763794Y-50085004D01*
X149914996Y-50236206D01*
X150087991Y-50361894D01*
X150181438Y-50409507D01*
X150278516Y-50458972D01*
X150278519Y-50458973D01*
X150380200Y-50492010D01*
X150481884Y-50525049D01*
X150693084Y-50558500D01*
X150693085Y-50558500D01*
X150906915Y-50558500D01*
X150906916Y-50558500D01*
X151118116Y-50525049D01*
X151321483Y-50458972D01*
X151512009Y-50361894D01*
X151685004Y-50236206D01*
X151836206Y-50085004D01*
X151961894Y-49912009D01*
X151961896Y-49912004D01*
X151964270Y-49908132D01*
X152016080Y-49861254D01*
X152085009Y-49849829D01*
X152149173Y-49877483D01*
X152175730Y-49908132D01*
X152178103Y-49912005D01*
X152178105Y-49912008D01*
X152178106Y-49912009D01*
X152303794Y-50085004D01*
X152454996Y-50236206D01*
X152627991Y-50361894D01*
X152721438Y-50409507D01*
X152818516Y-50458972D01*
X152818519Y-50458973D01*
X152920200Y-50492010D01*
X153021884Y-50525049D01*
X153233084Y-50558500D01*
X153233085Y-50558500D01*
X153446915Y-50558500D01*
X153446916Y-50558500D01*
X153658116Y-50525049D01*
X153861483Y-50458972D01*
X154052009Y-50361894D01*
X154225004Y-50236206D01*
X154376206Y-50085004D01*
X154501894Y-49912009D01*
X154501896Y-49912004D01*
X154504270Y-49908132D01*
X154556080Y-49861254D01*
X154625009Y-49849829D01*
X154689173Y-49877483D01*
X154715730Y-49908132D01*
X154718103Y-49912005D01*
X154718105Y-49912008D01*
X154718106Y-49912009D01*
X154843794Y-50085004D01*
X154994996Y-50236206D01*
X155167991Y-50361894D01*
X155261438Y-50409507D01*
X155358516Y-50458972D01*
X155358519Y-50458973D01*
X155460200Y-50492010D01*
X155561884Y-50525049D01*
X155773084Y-50558500D01*
X155773085Y-50558500D01*
X155986915Y-50558500D01*
X155986916Y-50558500D01*
X156198116Y-50525049D01*
X156401483Y-50458972D01*
X156592009Y-50361894D01*
X156765004Y-50236206D01*
X156916206Y-50085004D01*
X157041894Y-49912009D01*
X157041896Y-49912004D01*
X157044270Y-49908132D01*
X157096080Y-49861254D01*
X157165009Y-49849829D01*
X157229173Y-49877483D01*
X157255730Y-49908132D01*
X157258103Y-49912005D01*
X157258105Y-49912008D01*
X157258106Y-49912009D01*
X157383794Y-50085004D01*
X157534996Y-50236206D01*
X157707991Y-50361894D01*
X157801438Y-50409507D01*
X157898516Y-50458972D01*
X157898519Y-50458973D01*
X158000200Y-50492010D01*
X158101884Y-50525049D01*
X158313084Y-50558500D01*
X158313085Y-50558500D01*
X158526915Y-50558500D01*
X158526916Y-50558500D01*
X158738116Y-50525049D01*
X158941483Y-50458972D01*
X159132009Y-50361894D01*
X159305004Y-50236206D01*
X159456206Y-50085004D01*
X159581894Y-49912009D01*
X159581896Y-49912004D01*
X159584270Y-49908132D01*
X159636080Y-49861254D01*
X159705009Y-49849829D01*
X159769173Y-49877483D01*
X159795730Y-49908132D01*
X159798103Y-49912005D01*
X159798105Y-49912008D01*
X159798106Y-49912009D01*
X159923794Y-50085004D01*
X160074996Y-50236206D01*
X160247991Y-50361894D01*
X160341438Y-50409507D01*
X160438516Y-50458972D01*
X160438519Y-50458973D01*
X160540200Y-50492010D01*
X160641884Y-50525049D01*
X160853084Y-50558500D01*
X160853085Y-50558500D01*
X161066915Y-50558500D01*
X161066916Y-50558500D01*
X161278116Y-50525049D01*
X161481483Y-50458972D01*
X161672009Y-50361894D01*
X161845004Y-50236206D01*
X161996206Y-50085004D01*
X162121894Y-49912009D01*
X162121896Y-49912004D01*
X162124270Y-49908132D01*
X162176080Y-49861254D01*
X162245009Y-49849829D01*
X162309173Y-49877483D01*
X162335730Y-49908132D01*
X162338103Y-49912005D01*
X162338105Y-49912008D01*
X162338106Y-49912009D01*
X162463794Y-50085004D01*
X162614996Y-50236206D01*
X162787991Y-50361894D01*
X162881438Y-50409507D01*
X162978516Y-50458972D01*
X162978519Y-50458973D01*
X163080200Y-50492010D01*
X163181884Y-50525049D01*
X163393084Y-50558500D01*
X163393085Y-50558500D01*
X163606915Y-50558500D01*
X163606916Y-50558500D01*
X163818116Y-50525049D01*
X164021483Y-50458972D01*
X164212009Y-50361894D01*
X164385004Y-50236206D01*
X164536206Y-50085004D01*
X164661894Y-49912009D01*
X164758972Y-49721483D01*
X164825049Y-49518116D01*
X164858500Y-49306916D01*
X164858500Y-49093084D01*
X164825049Y-48881884D01*
X164758972Y-48678517D01*
X164758972Y-48678516D01*
X164709507Y-48581438D01*
X164661894Y-48487991D01*
X164536206Y-48314996D01*
X164385004Y-48163794D01*
X164212009Y-48038106D01*
X164021483Y-47941027D01*
X164021480Y-47941026D01*
X163818117Y-47874951D01*
X163712516Y-47858225D01*
X163606916Y-47841500D01*
X163393084Y-47841500D01*
X163322684Y-47852650D01*
X163181882Y-47874951D01*
X162978519Y-47941026D01*
X162978516Y-47941027D01*
X162787990Y-48038106D01*
X162614993Y-48163796D01*
X162463796Y-48314993D01*
X162338105Y-48487991D01*
X162335727Y-48491873D01*
X162283914Y-48538748D01*
X162214984Y-48550169D01*
X162150822Y-48522512D01*
X162124273Y-48491873D01*
X162121894Y-48487991D01*
X162072869Y-48420514D01*
X161996206Y-48314996D01*
X161845004Y-48163794D01*
X161672009Y-48038106D01*
X161481483Y-47941027D01*
X161481480Y-47941026D01*
X161278117Y-47874951D01*
X161172516Y-47858225D01*
X161066916Y-47841500D01*
X160853084Y-47841500D01*
X160782684Y-47852650D01*
X160641882Y-47874951D01*
X160438519Y-47941026D01*
X160438516Y-47941027D01*
X160247990Y-48038106D01*
X160074993Y-48163796D01*
X159923796Y-48314993D01*
X159798105Y-48487991D01*
X159795727Y-48491873D01*
X159743914Y-48538748D01*
X159674984Y-48550169D01*
X159610822Y-48522512D01*
X159584273Y-48491873D01*
X159581894Y-48487991D01*
X159532869Y-48420514D01*
X159456206Y-48314996D01*
X159305004Y-48163794D01*
X159132009Y-48038106D01*
X158941483Y-47941027D01*
X158941480Y-47941026D01*
X158738117Y-47874951D01*
X158632516Y-47858225D01*
X158526916Y-47841500D01*
X158313084Y-47841500D01*
X158242684Y-47852650D01*
X158101882Y-47874951D01*
X157898519Y-47941026D01*
X157898516Y-47941027D01*
X157707990Y-48038106D01*
X157534993Y-48163796D01*
X157383796Y-48314993D01*
X157258105Y-48487991D01*
X157255727Y-48491873D01*
X157203914Y-48538748D01*
X157134984Y-48550169D01*
X157070822Y-48522512D01*
X157044273Y-48491873D01*
X157041894Y-48487991D01*
X156992869Y-48420514D01*
X156916206Y-48314996D01*
X156765004Y-48163794D01*
X156592009Y-48038106D01*
X156401483Y-47941027D01*
X156401480Y-47941026D01*
X156198117Y-47874951D01*
X156092516Y-47858225D01*
X155986916Y-47841500D01*
X155773084Y-47841500D01*
X155702684Y-47852650D01*
X155561882Y-47874951D01*
X155358519Y-47941026D01*
X155358516Y-47941027D01*
X155167990Y-48038106D01*
X154994993Y-48163796D01*
X154843796Y-48314993D01*
X154718105Y-48487991D01*
X154715727Y-48491873D01*
X154663914Y-48538748D01*
X154594984Y-48550169D01*
X154530822Y-48522512D01*
X154504273Y-48491873D01*
X154501894Y-48487991D01*
X154452869Y-48420514D01*
X154376206Y-48314996D01*
X154225004Y-48163794D01*
X154052009Y-48038106D01*
X153861483Y-47941027D01*
X153861480Y-47941026D01*
X153658117Y-47874951D01*
X153552516Y-47858225D01*
X153446916Y-47841500D01*
X153233084Y-47841500D01*
X153162684Y-47852650D01*
X153021882Y-47874951D01*
X152818519Y-47941026D01*
X152818516Y-47941027D01*
X152627990Y-48038106D01*
X152454993Y-48163796D01*
X152303796Y-48314993D01*
X152178105Y-48487991D01*
X152175727Y-48491873D01*
X152123914Y-48538748D01*
X152054984Y-48550169D01*
X151990822Y-48522512D01*
X151964273Y-48491873D01*
X151961894Y-48487991D01*
X151912869Y-48420514D01*
X151836206Y-48314996D01*
X151685004Y-48163794D01*
X151512009Y-48038106D01*
X151321483Y-47941027D01*
X151321480Y-47941026D01*
X151118117Y-47874951D01*
X151012516Y-47858225D01*
X150906916Y-47841500D01*
X150693084Y-47841500D01*
X150622684Y-47852650D01*
X150481882Y-47874951D01*
X150278519Y-47941026D01*
X150278516Y-47941027D01*
X150087990Y-48038106D01*
X149914993Y-48163796D01*
X149763796Y-48314993D01*
X149638105Y-48487991D01*
X149635727Y-48491873D01*
X149583914Y-48538748D01*
X149514984Y-48550169D01*
X149450822Y-48522512D01*
X149424273Y-48491873D01*
X149421894Y-48487991D01*
X149372869Y-48420514D01*
X149296206Y-48314996D01*
X149145004Y-48163794D01*
X148972009Y-48038106D01*
X148781483Y-47941027D01*
X148781480Y-47941026D01*
X148578117Y-47874951D01*
X148472516Y-47858225D01*
X148366916Y-47841500D01*
X148153084Y-47841500D01*
X148082684Y-47852650D01*
X147941882Y-47874951D01*
X147738519Y-47941026D01*
X147738516Y-47941027D01*
X147547990Y-48038106D01*
X147374997Y-48163793D01*
X147269818Y-48268972D01*
X147208495Y-48302456D01*
X147138803Y-48297472D01*
X147082870Y-48255600D01*
X147065958Y-48224629D01*
X147020889Y-48103796D01*
X146933261Y-47986739D01*
X146816204Y-47899111D01*
X146679203Y-47848011D01*
X146618654Y-47841500D01*
X146618638Y-47841500D01*
X144821362Y-47841500D01*
X144821345Y-47841500D01*
X144760797Y-47848011D01*
X144760795Y-47848011D01*
X144623795Y-47899111D01*
X144506739Y-47986739D01*
X144419111Y-48103795D01*
X144368011Y-48240795D01*
X144368011Y-48240797D01*
X144361500Y-48301345D01*
X142678555Y-48301345D01*
X142541004Y-48163794D01*
X142368009Y-48038106D01*
X142177483Y-47941027D01*
X142177480Y-47941026D01*
X141974117Y-47874951D01*
X141868516Y-47858225D01*
X141762916Y-47841500D01*
X141549084Y-47841500D01*
X141478684Y-47852650D01*
X141337882Y-47874951D01*
X141134519Y-47941026D01*
X141134516Y-47941027D01*
X140943990Y-48038106D01*
X140770993Y-48163796D01*
X140619796Y-48314993D01*
X140494105Y-48487991D01*
X140491727Y-48491873D01*
X140439914Y-48538748D01*
X140370984Y-48550169D01*
X140306822Y-48522512D01*
X140280273Y-48491873D01*
X140277894Y-48487991D01*
X140228869Y-48420514D01*
X140152206Y-48314996D01*
X140001004Y-48163794D01*
X139828009Y-48038106D01*
X139637483Y-47941027D01*
X139637480Y-47941026D01*
X139434117Y-47874951D01*
X139328516Y-47858225D01*
X139222916Y-47841500D01*
X139009084Y-47841500D01*
X138938684Y-47852650D01*
X138797882Y-47874951D01*
X138594519Y-47941026D01*
X138594516Y-47941027D01*
X138403990Y-48038106D01*
X138230993Y-48163796D01*
X138079796Y-48314993D01*
X137954105Y-48487991D01*
X137951727Y-48491873D01*
X137899914Y-48538748D01*
X137830984Y-48550169D01*
X137766822Y-48522512D01*
X137740273Y-48491873D01*
X137737894Y-48487991D01*
X137688869Y-48420514D01*
X137612206Y-48314996D01*
X137461004Y-48163794D01*
X137288009Y-48038106D01*
X137097483Y-47941027D01*
X137097480Y-47941026D01*
X136894117Y-47874951D01*
X136788516Y-47858225D01*
X136682916Y-47841500D01*
X136469084Y-47841500D01*
X136398684Y-47852650D01*
X136257882Y-47874951D01*
X136054519Y-47941026D01*
X136054516Y-47941027D01*
X135863990Y-48038106D01*
X135690993Y-48163796D01*
X135539796Y-48314993D01*
X135414105Y-48487991D01*
X135411727Y-48491873D01*
X135359914Y-48538748D01*
X135290984Y-48550169D01*
X135226822Y-48522512D01*
X135200273Y-48491873D01*
X135197894Y-48487991D01*
X135148869Y-48420514D01*
X135072206Y-48314996D01*
X134921004Y-48163794D01*
X134748009Y-48038106D01*
X134557483Y-47941027D01*
X134557480Y-47941026D01*
X134354117Y-47874951D01*
X134248516Y-47858225D01*
X134142916Y-47841500D01*
X133929084Y-47841500D01*
X133858684Y-47852650D01*
X133717882Y-47874951D01*
X133514519Y-47941026D01*
X133514516Y-47941027D01*
X133323990Y-48038106D01*
X133150993Y-48163796D01*
X132999796Y-48314993D01*
X132874105Y-48487991D01*
X132871727Y-48491873D01*
X132819914Y-48538748D01*
X132750984Y-48550169D01*
X132686822Y-48522512D01*
X132660273Y-48491873D01*
X132657894Y-48487991D01*
X132608869Y-48420514D01*
X132532206Y-48314996D01*
X132381004Y-48163794D01*
X132208009Y-48038106D01*
X132017483Y-47941027D01*
X132017480Y-47941026D01*
X131814117Y-47874951D01*
X131708516Y-47858225D01*
X131602916Y-47841500D01*
X131389084Y-47841500D01*
X131318684Y-47852650D01*
X131177882Y-47874951D01*
X130974519Y-47941026D01*
X130974516Y-47941027D01*
X130783990Y-48038106D01*
X130610993Y-48163796D01*
X130459796Y-48314993D01*
X130334105Y-48487991D01*
X130331727Y-48491873D01*
X130279914Y-48538748D01*
X130210984Y-48550169D01*
X130146822Y-48522512D01*
X130120273Y-48491873D01*
X130117894Y-48487991D01*
X130068869Y-48420514D01*
X129992206Y-48314996D01*
X129841004Y-48163794D01*
X129668009Y-48038106D01*
X129477483Y-47941027D01*
X129477480Y-47941026D01*
X129274117Y-47874951D01*
X129168516Y-47858225D01*
X129062916Y-47841500D01*
X128849084Y-47841500D01*
X128778684Y-47852650D01*
X128637882Y-47874951D01*
X128434519Y-47941026D01*
X128434516Y-47941027D01*
X128243990Y-48038106D01*
X128070993Y-48163796D01*
X127919796Y-48314993D01*
X127794103Y-48487994D01*
X127791709Y-48492693D01*
X127743731Y-48543485D01*
X127675908Y-48560275D01*
X127609775Y-48537732D01*
X127573800Y-48496210D01*
X127573168Y-48496598D01*
X127570829Y-48492781D01*
X127570743Y-48492682D01*
X127570620Y-48492441D01*
X127445727Y-48320540D01*
X127445723Y-48320535D01*
X127295464Y-48170276D01*
X127295459Y-48170272D01*
X127123557Y-48045379D01*
X126934215Y-47948903D01*
X126732124Y-47883241D01*
X126666000Y-47872768D01*
X126666000Y-48766988D01*
X126608993Y-48734075D01*
X126481826Y-48700000D01*
X126350174Y-48700000D01*
X126223007Y-48734075D01*
X126166000Y-48766988D01*
X126166000Y-47872768D01*
X126165999Y-47872768D01*
X126099875Y-47883241D01*
X125897784Y-47948903D01*
X125708442Y-48045379D01*
X125536540Y-48170272D01*
X125536535Y-48170276D01*
X125386276Y-48320535D01*
X125386272Y-48320540D01*
X125261376Y-48492446D01*
X125261374Y-48492448D01*
X125261246Y-48492701D01*
X125261172Y-48492779D01*
X125258832Y-48496598D01*
X125258029Y-48496106D01*
X125213264Y-48543489D01*
X125145441Y-48560274D01*
X125079309Y-48537727D01*
X125040285Y-48492683D01*
X125037895Y-48487992D01*
X124973965Y-48400000D01*
X124912206Y-48314996D01*
X124761004Y-48163794D01*
X124588009Y-48038106D01*
X124397483Y-47941027D01*
X124397480Y-47941026D01*
X124194117Y-47874951D01*
X124088516Y-47858225D01*
X123982916Y-47841500D01*
X123769084Y-47841500D01*
X123698684Y-47852650D01*
X123557882Y-47874951D01*
X123354519Y-47941026D01*
X123354516Y-47941027D01*
X123163990Y-48038106D01*
X122990993Y-48163796D01*
X122839796Y-48314993D01*
X122714105Y-48487991D01*
X122711727Y-48491873D01*
X122659914Y-48538748D01*
X122590984Y-48550169D01*
X122526822Y-48522512D01*
X122500273Y-48491873D01*
X122497894Y-48487991D01*
X122448869Y-48420514D01*
X122372206Y-48314996D01*
X122221004Y-48163794D01*
X122048009Y-48038106D01*
X121857483Y-47941027D01*
X121857480Y-47941026D01*
X121654117Y-47874951D01*
X121548516Y-47858225D01*
X121442916Y-47841500D01*
X121229084Y-47841500D01*
X121158684Y-47852650D01*
X121017882Y-47874951D01*
X120814519Y-47941026D01*
X120814516Y-47941027D01*
X120623990Y-48038106D01*
X120450997Y-48163793D01*
X120345818Y-48268972D01*
X120284495Y-48302456D01*
X120214803Y-48297472D01*
X120158870Y-48255600D01*
X120141958Y-48224629D01*
X120096889Y-48103796D01*
X120009261Y-47986739D01*
X119892204Y-47899111D01*
X119755203Y-47848011D01*
X119694654Y-47841500D01*
X119694638Y-47841500D01*
X117897362Y-47841500D01*
X117897345Y-47841500D01*
X117836797Y-47848011D01*
X117836795Y-47848011D01*
X117699795Y-47899111D01*
X117582739Y-47986739D01*
X117495111Y-48103795D01*
X117444011Y-48240795D01*
X117444011Y-48240797D01*
X117437500Y-48301345D01*
X100075500Y-48301345D01*
X100075500Y-47428092D01*
X100076097Y-47415938D01*
X100087494Y-47300222D01*
X100092234Y-47276389D01*
X100124216Y-47170959D01*
X100133508Y-47148526D01*
X100185442Y-47051365D01*
X100198938Y-47031166D01*
X100268827Y-46946006D01*
X100286006Y-46928827D01*
X100371166Y-46858938D01*
X100391365Y-46845442D01*
X100488526Y-46793508D01*
X100510959Y-46784216D01*
X100616389Y-46752234D01*
X100640220Y-46747494D01*
X100755939Y-46736097D01*
X100768093Y-46735500D01*
X100786531Y-46735500D01*
X163484982Y-46735500D01*
X165840500Y-46735500D01*
X165907539Y-46755185D01*
G37*
%TD.AperFunction*%
%TD*%
M02*
