M48
; DRILL file {KiCad 9.0.2} date 2026-03-12T21:09:36-0600
; FORMAT={-:-/ absolute / metric / decimal}
; #@! TF.CreationDate,2026-03-12T21:09:36-06:00
; #@! TF.GenerationSoftware,Kicad,Pcbnew,9.0.2
; #@! TF.FileFunction,MixedPlating,1,2
FMAT,2
METRIC
; #@! TA.AperFunction,Plated,PTH,ViaDrill
T1C0.400
; #@! TA.AperFunction,Plated,PTH,ComponentDrill
T2C0.750
; #@! TA.AperFunction,Plated,PTH,ComponentDrill
T3C0.800
; #@! TA.AperFunction,Plated,PTH,ComponentDrill
T4C0.900
; #@! TA.AperFunction,Plated,PTH,ComponentDrill
T5C1.000
%
G90
G05
T1
X109.5Y-70.65
X109.525Y-73.275
X115.45Y-70.825
X115.45Y-73.25
T2
X107.025Y-87.975
X107.025Y-89.975
X107.025Y-91.975
T3
X103.9Y-49.7
X103.9Y-54.7
X116.375Y-79.05
X116.375Y-84.05
X118.975Y-79.075
X118.975Y-84.075
X124.76Y-79.013
X124.76Y-81.552
X124.76Y-84.093
X136.21Y-79.013
X136.21Y-81.552
X136.21Y-84.093
X140.9Y-52.835
X140.9Y-60.455
X144.275Y-52.865
X144.275Y-60.485
X147.65Y-52.775
X147.65Y-60.395
X151.025Y-52.715
X151.025Y-60.335
X154.4Y-52.805
X154.4Y-60.425
X157.775Y-52.745
X157.775Y-60.365
T4
X103.425Y-70.81
X103.425Y-73.35
X103.425Y-78.935
X103.425Y-81.475
X139.025Y-65.36
X139.025Y-67.9
X145.625Y-65.37
X145.625Y-67.91
X152.3Y-65.395
X152.3Y-67.935
X159.0Y-65.37
X159.0Y-67.91
T5
X112.12Y-54.6
X114.66Y-54.6
X117.2Y-54.6
X118.796Y-49.2
X119.74Y-54.6
X121.336Y-49.2
X122.28Y-54.6
X123.876Y-49.2
X124.82Y-54.6
X126.416Y-49.2
X127.36Y-54.6
X127.94Y-97.46
X128.956Y-49.2
X129.9Y-54.6
X130.48Y-97.46
X131.496Y-49.2
X132.44Y-54.6
X133.02Y-97.46
X134.036Y-49.2
X135.56Y-97.46
X136.576Y-49.2
X138.1Y-97.46
X139.116Y-49.2
X140.64Y-97.46
X141.656Y-49.2
X143.18Y-97.46
X145.72Y-49.2
X145.72Y-97.46
X148.26Y-49.2
X149.0Y-78.285
X149.0Y-80.825
X149.0Y-83.365
X149.0Y-85.905
X149.0Y-88.445
X149.0Y-90.985
X150.8Y-49.2
X150.8Y-97.46
X153.34Y-49.2
X153.34Y-97.46
X155.88Y-49.2
X155.88Y-97.46
X158.42Y-49.2
X158.42Y-97.46
X160.96Y-49.2
X160.96Y-97.46
X161.335Y-54.875
X163.5Y-49.2
X163.5Y-97.46
X163.875Y-54.875
M30
