%TF.GenerationSoftware,KiCad,Pcbnew,9.0.2*%
%TF.CreationDate,2026-03-12T21:09:41-06:00*%
%TF.ProjectId,Balloon_Sat,42616c6c-6f6f-46e5-9f53-61742e6b6963,rev?*%
%TF.SameCoordinates,Original*%
%TF.FileFunction,Legend,Bot*%
%TF.FilePolarity,Positive*%
%FSLAX46Y46*%
G04 Gerber Fmt 4.6, Leading zero omitted, Abs format (unit mm)*
G04 Created by KiCad (PCBNEW 9.0.2) date 2026-03-12 21:09:41*
%MOMM*%
%LPD*%
G01*
G04 APERTURE LIST*
%ADD10C,0.150000*%
%ADD11C,0.000000*%
G04 APERTURE END LIST*
D10*
X120438220Y-89899931D02*
X120438220Y-88899931D01*
X120438220Y-88899931D02*
X120104887Y-89614216D01*
X120104887Y-89614216D02*
X119771554Y-88899931D01*
X119771554Y-88899931D02*
X119771554Y-89899931D01*
X119295363Y-89899931D02*
X119295363Y-89233264D01*
X119295363Y-88899931D02*
X119342982Y-88947550D01*
X119342982Y-88947550D02*
X119295363Y-88995169D01*
X119295363Y-88995169D02*
X119247744Y-88947550D01*
X119247744Y-88947550D02*
X119295363Y-88899931D01*
X119295363Y-88899931D02*
X119295363Y-88995169D01*
X118390602Y-89852312D02*
X118485840Y-89899931D01*
X118485840Y-89899931D02*
X118676316Y-89899931D01*
X118676316Y-89899931D02*
X118771554Y-89852312D01*
X118771554Y-89852312D02*
X118819173Y-89804692D01*
X118819173Y-89804692D02*
X118866792Y-89709454D01*
X118866792Y-89709454D02*
X118866792Y-89423740D01*
X118866792Y-89423740D02*
X118819173Y-89328502D01*
X118819173Y-89328502D02*
X118771554Y-89280883D01*
X118771554Y-89280883D02*
X118676316Y-89233264D01*
X118676316Y-89233264D02*
X118485840Y-89233264D01*
X118485840Y-89233264D02*
X118390602Y-89280883D01*
X117962030Y-89899931D02*
X117962030Y-88899931D01*
X117533459Y-89899931D02*
X117533459Y-89376121D01*
X117533459Y-89376121D02*
X117581078Y-89280883D01*
X117581078Y-89280883D02*
X117676316Y-89233264D01*
X117676316Y-89233264D02*
X117819173Y-89233264D01*
X117819173Y-89233264D02*
X117914411Y-89280883D01*
X117914411Y-89280883D02*
X117962030Y-89328502D01*
X116628697Y-89899931D02*
X116628697Y-89376121D01*
X116628697Y-89376121D02*
X116676316Y-89280883D01*
X116676316Y-89280883D02*
X116771554Y-89233264D01*
X116771554Y-89233264D02*
X116962030Y-89233264D01*
X116962030Y-89233264D02*
X117057268Y-89280883D01*
X116628697Y-89852312D02*
X116723935Y-89899931D01*
X116723935Y-89899931D02*
X116962030Y-89899931D01*
X116962030Y-89899931D02*
X117057268Y-89852312D01*
X117057268Y-89852312D02*
X117104887Y-89757073D01*
X117104887Y-89757073D02*
X117104887Y-89661835D01*
X117104887Y-89661835D02*
X117057268Y-89566597D01*
X117057268Y-89566597D02*
X116962030Y-89518978D01*
X116962030Y-89518978D02*
X116723935Y-89518978D01*
X116723935Y-89518978D02*
X116628697Y-89471359D01*
X115771554Y-89852312D02*
X115866792Y-89899931D01*
X115866792Y-89899931D02*
X116057268Y-89899931D01*
X116057268Y-89899931D02*
X116152506Y-89852312D01*
X116152506Y-89852312D02*
X116200125Y-89757073D01*
X116200125Y-89757073D02*
X116200125Y-89376121D01*
X116200125Y-89376121D02*
X116152506Y-89280883D01*
X116152506Y-89280883D02*
X116057268Y-89233264D01*
X116057268Y-89233264D02*
X115866792Y-89233264D01*
X115866792Y-89233264D02*
X115771554Y-89280883D01*
X115771554Y-89280883D02*
X115723935Y-89376121D01*
X115723935Y-89376121D02*
X115723935Y-89471359D01*
X115723935Y-89471359D02*
X116200125Y-89566597D01*
X115152506Y-89899931D02*
X115247744Y-89852312D01*
X115247744Y-89852312D02*
X115295363Y-89757073D01*
X115295363Y-89757073D02*
X115295363Y-88899931D01*
X114009648Y-89899931D02*
X114009648Y-88899931D01*
X113438220Y-89899931D02*
X113866791Y-89328502D01*
X113438220Y-88899931D02*
X114009648Y-89471359D01*
X112581077Y-89233264D02*
X112581077Y-89899931D01*
X113009648Y-89233264D02*
X113009648Y-89757073D01*
X113009648Y-89757073D02*
X112962029Y-89852312D01*
X112962029Y-89852312D02*
X112866791Y-89899931D01*
X112866791Y-89899931D02*
X112723934Y-89899931D01*
X112723934Y-89899931D02*
X112628696Y-89852312D01*
X112628696Y-89852312D02*
X112581077Y-89804692D01*
X112104886Y-89899931D02*
X112104886Y-89233264D01*
X112104886Y-89423740D02*
X112057267Y-89328502D01*
X112057267Y-89328502D02*
X112009648Y-89280883D01*
X112009648Y-89280883D02*
X111914410Y-89233264D01*
X111914410Y-89233264D02*
X111819172Y-89233264D01*
X111628695Y-89233264D02*
X111247743Y-89233264D01*
X111485838Y-88899931D02*
X111485838Y-89757073D01*
X111485838Y-89757073D02*
X111438219Y-89852312D01*
X111438219Y-89852312D02*
X111342981Y-89899931D01*
X111342981Y-89899931D02*
X111247743Y-89899931D01*
X110485838Y-89899931D02*
X110485838Y-89376121D01*
X110485838Y-89376121D02*
X110533457Y-89280883D01*
X110533457Y-89280883D02*
X110628695Y-89233264D01*
X110628695Y-89233264D02*
X110819171Y-89233264D01*
X110819171Y-89233264D02*
X110914409Y-89280883D01*
X110485838Y-89852312D02*
X110581076Y-89899931D01*
X110581076Y-89899931D02*
X110819171Y-89899931D01*
X110819171Y-89899931D02*
X110914409Y-89852312D01*
X110914409Y-89852312D02*
X110962028Y-89757073D01*
X110962028Y-89757073D02*
X110962028Y-89661835D01*
X110962028Y-89661835D02*
X110914409Y-89566597D01*
X110914409Y-89566597D02*
X110819171Y-89518978D01*
X110819171Y-89518978D02*
X110581076Y-89518978D01*
X110581076Y-89518978D02*
X110485838Y-89471359D01*
X120438220Y-91509875D02*
X120438220Y-90509875D01*
X120438220Y-90509875D02*
X120104887Y-91224160D01*
X120104887Y-91224160D02*
X119771554Y-90509875D01*
X119771554Y-90509875D02*
X119771554Y-91509875D01*
X118866792Y-91509875D02*
X118866792Y-90986065D01*
X118866792Y-90986065D02*
X118914411Y-90890827D01*
X118914411Y-90890827D02*
X119009649Y-90843208D01*
X119009649Y-90843208D02*
X119200125Y-90843208D01*
X119200125Y-90843208D02*
X119295363Y-90890827D01*
X118866792Y-91462256D02*
X118962030Y-91509875D01*
X118962030Y-91509875D02*
X119200125Y-91509875D01*
X119200125Y-91509875D02*
X119295363Y-91462256D01*
X119295363Y-91462256D02*
X119342982Y-91367017D01*
X119342982Y-91367017D02*
X119342982Y-91271779D01*
X119342982Y-91271779D02*
X119295363Y-91176541D01*
X119295363Y-91176541D02*
X119200125Y-91128922D01*
X119200125Y-91128922D02*
X118962030Y-91128922D01*
X118962030Y-91128922D02*
X118866792Y-91081303D01*
X118390601Y-91509875D02*
X118390601Y-90843208D01*
X118390601Y-91033684D02*
X118342982Y-90938446D01*
X118342982Y-90938446D02*
X118295363Y-90890827D01*
X118295363Y-90890827D02*
X118200125Y-90843208D01*
X118200125Y-90843208D02*
X118104887Y-90843208D01*
X117342982Y-91462256D02*
X117438220Y-91509875D01*
X117438220Y-91509875D02*
X117628696Y-91509875D01*
X117628696Y-91509875D02*
X117723934Y-91462256D01*
X117723934Y-91462256D02*
X117771553Y-91414636D01*
X117771553Y-91414636D02*
X117819172Y-91319398D01*
X117819172Y-91319398D02*
X117819172Y-91033684D01*
X117819172Y-91033684D02*
X117771553Y-90938446D01*
X117771553Y-90938446D02*
X117723934Y-90890827D01*
X117723934Y-90890827D02*
X117628696Y-90843208D01*
X117628696Y-90843208D02*
X117438220Y-90843208D01*
X117438220Y-90843208D02*
X117342982Y-90890827D01*
X116914410Y-91509875D02*
X116914410Y-90509875D01*
X116485839Y-91509875D02*
X116485839Y-90986065D01*
X116485839Y-90986065D02*
X116533458Y-90890827D01*
X116533458Y-90890827D02*
X116628696Y-90843208D01*
X116628696Y-90843208D02*
X116771553Y-90843208D01*
X116771553Y-90843208D02*
X116866791Y-90890827D01*
X116866791Y-90890827D02*
X116914410Y-90938446D01*
X115295362Y-90605113D02*
X115247743Y-90557494D01*
X115247743Y-90557494D02*
X115152505Y-90509875D01*
X115152505Y-90509875D02*
X114914410Y-90509875D01*
X114914410Y-90509875D02*
X114819172Y-90557494D01*
X114819172Y-90557494D02*
X114771553Y-90605113D01*
X114771553Y-90605113D02*
X114723934Y-90700351D01*
X114723934Y-90700351D02*
X114723934Y-90795589D01*
X114723934Y-90795589D02*
X114771553Y-90938446D01*
X114771553Y-90938446D02*
X115342981Y-91509875D01*
X115342981Y-91509875D02*
X114723934Y-91509875D01*
X114104886Y-90509875D02*
X114009648Y-90509875D01*
X114009648Y-90509875D02*
X113914410Y-90557494D01*
X113914410Y-90557494D02*
X113866791Y-90605113D01*
X113866791Y-90605113D02*
X113819172Y-90700351D01*
X113819172Y-90700351D02*
X113771553Y-90890827D01*
X113771553Y-90890827D02*
X113771553Y-91128922D01*
X113771553Y-91128922D02*
X113819172Y-91319398D01*
X113819172Y-91319398D02*
X113866791Y-91414636D01*
X113866791Y-91414636D02*
X113914410Y-91462256D01*
X113914410Y-91462256D02*
X114009648Y-91509875D01*
X114009648Y-91509875D02*
X114104886Y-91509875D01*
X114104886Y-91509875D02*
X114200124Y-91462256D01*
X114200124Y-91462256D02*
X114247743Y-91414636D01*
X114247743Y-91414636D02*
X114295362Y-91319398D01*
X114295362Y-91319398D02*
X114342981Y-91128922D01*
X114342981Y-91128922D02*
X114342981Y-90890827D01*
X114342981Y-90890827D02*
X114295362Y-90700351D01*
X114295362Y-90700351D02*
X114247743Y-90605113D01*
X114247743Y-90605113D02*
X114200124Y-90557494D01*
X114200124Y-90557494D02*
X114104886Y-90509875D01*
X113390600Y-90605113D02*
X113342981Y-90557494D01*
X113342981Y-90557494D02*
X113247743Y-90509875D01*
X113247743Y-90509875D02*
X113009648Y-90509875D01*
X113009648Y-90509875D02*
X112914410Y-90557494D01*
X112914410Y-90557494D02*
X112866791Y-90605113D01*
X112866791Y-90605113D02*
X112819172Y-90700351D01*
X112819172Y-90700351D02*
X112819172Y-90795589D01*
X112819172Y-90795589D02*
X112866791Y-90938446D01*
X112866791Y-90938446D02*
X113438219Y-91509875D01*
X113438219Y-91509875D02*
X112819172Y-91509875D01*
X111962029Y-90509875D02*
X112152505Y-90509875D01*
X112152505Y-90509875D02*
X112247743Y-90557494D01*
X112247743Y-90557494D02*
X112295362Y-90605113D01*
X112295362Y-90605113D02*
X112390600Y-90747970D01*
X112390600Y-90747970D02*
X112438219Y-90938446D01*
X112438219Y-90938446D02*
X112438219Y-91319398D01*
X112438219Y-91319398D02*
X112390600Y-91414636D01*
X112390600Y-91414636D02*
X112342981Y-91462256D01*
X112342981Y-91462256D02*
X112247743Y-91509875D01*
X112247743Y-91509875D02*
X112057267Y-91509875D01*
X112057267Y-91509875D02*
X111962029Y-91462256D01*
X111962029Y-91462256D02*
X111914410Y-91414636D01*
X111914410Y-91414636D02*
X111866791Y-91319398D01*
X111866791Y-91319398D02*
X111866791Y-91081303D01*
X111866791Y-91081303D02*
X111914410Y-90986065D01*
X111914410Y-90986065D02*
X111962029Y-90938446D01*
X111962029Y-90938446D02*
X112057267Y-90890827D01*
X112057267Y-90890827D02*
X112247743Y-90890827D01*
X112247743Y-90890827D02*
X112342981Y-90938446D01*
X112342981Y-90938446D02*
X112390600Y-90986065D01*
X112390600Y-90986065D02*
X112438219Y-91081303D01*
X120581077Y-92119819D02*
X120247744Y-93119819D01*
X120247744Y-93119819D02*
X119914411Y-92119819D01*
X119200125Y-93072200D02*
X119295363Y-93119819D01*
X119295363Y-93119819D02*
X119485839Y-93119819D01*
X119485839Y-93119819D02*
X119581077Y-93072200D01*
X119581077Y-93072200D02*
X119628696Y-92976961D01*
X119628696Y-92976961D02*
X119628696Y-92596009D01*
X119628696Y-92596009D02*
X119581077Y-92500771D01*
X119581077Y-92500771D02*
X119485839Y-92453152D01*
X119485839Y-92453152D02*
X119295363Y-92453152D01*
X119295363Y-92453152D02*
X119200125Y-92500771D01*
X119200125Y-92500771D02*
X119152506Y-92596009D01*
X119152506Y-92596009D02*
X119152506Y-92691247D01*
X119152506Y-92691247D02*
X119628696Y-92786485D01*
X118723934Y-93119819D02*
X118723934Y-92453152D01*
X118723934Y-92643628D02*
X118676315Y-92548390D01*
X118676315Y-92548390D02*
X118628696Y-92500771D01*
X118628696Y-92500771D02*
X118533458Y-92453152D01*
X118533458Y-92453152D02*
X118438220Y-92453152D01*
X118152505Y-93072200D02*
X118057267Y-93119819D01*
X118057267Y-93119819D02*
X117866791Y-93119819D01*
X117866791Y-93119819D02*
X117771553Y-93072200D01*
X117771553Y-93072200D02*
X117723934Y-92976961D01*
X117723934Y-92976961D02*
X117723934Y-92929342D01*
X117723934Y-92929342D02*
X117771553Y-92834104D01*
X117771553Y-92834104D02*
X117866791Y-92786485D01*
X117866791Y-92786485D02*
X118009648Y-92786485D01*
X118009648Y-92786485D02*
X118104886Y-92738866D01*
X118104886Y-92738866D02*
X118152505Y-92643628D01*
X118152505Y-92643628D02*
X118152505Y-92596009D01*
X118152505Y-92596009D02*
X118104886Y-92500771D01*
X118104886Y-92500771D02*
X118009648Y-92453152D01*
X118009648Y-92453152D02*
X117866791Y-92453152D01*
X117866791Y-92453152D02*
X117771553Y-92500771D01*
X117295362Y-93119819D02*
X117295362Y-92453152D01*
X117295362Y-92119819D02*
X117342981Y-92167438D01*
X117342981Y-92167438D02*
X117295362Y-92215057D01*
X117295362Y-92215057D02*
X117247743Y-92167438D01*
X117247743Y-92167438D02*
X117295362Y-92119819D01*
X117295362Y-92119819D02*
X117295362Y-92215057D01*
X116676315Y-93119819D02*
X116771553Y-93072200D01*
X116771553Y-93072200D02*
X116819172Y-93024580D01*
X116819172Y-93024580D02*
X116866791Y-92929342D01*
X116866791Y-92929342D02*
X116866791Y-92643628D01*
X116866791Y-92643628D02*
X116819172Y-92548390D01*
X116819172Y-92548390D02*
X116771553Y-92500771D01*
X116771553Y-92500771D02*
X116676315Y-92453152D01*
X116676315Y-92453152D02*
X116533458Y-92453152D01*
X116533458Y-92453152D02*
X116438220Y-92500771D01*
X116438220Y-92500771D02*
X116390601Y-92548390D01*
X116390601Y-92548390D02*
X116342982Y-92643628D01*
X116342982Y-92643628D02*
X116342982Y-92929342D01*
X116342982Y-92929342D02*
X116390601Y-93024580D01*
X116390601Y-93024580D02*
X116438220Y-93072200D01*
X116438220Y-93072200D02*
X116533458Y-93119819D01*
X116533458Y-93119819D02*
X116676315Y-93119819D01*
X115914410Y-92453152D02*
X115914410Y-93119819D01*
X115914410Y-92548390D02*
X115866791Y-92500771D01*
X115866791Y-92500771D02*
X115771553Y-92453152D01*
X115771553Y-92453152D02*
X115628696Y-92453152D01*
X115628696Y-92453152D02*
X115533458Y-92500771D01*
X115533458Y-92500771D02*
X115485839Y-92596009D01*
X115485839Y-92596009D02*
X115485839Y-93119819D01*
X113723934Y-93119819D02*
X114295362Y-93119819D01*
X114009648Y-93119819D02*
X114009648Y-92119819D01*
X114009648Y-92119819D02*
X114104886Y-92262676D01*
X114104886Y-92262676D02*
X114200124Y-92357914D01*
X114200124Y-92357914D02*
X114295362Y-92405533D01*
X113295362Y-93024580D02*
X113247743Y-93072200D01*
X113247743Y-93072200D02*
X113295362Y-93119819D01*
X113295362Y-93119819D02*
X113342981Y-93072200D01*
X113342981Y-93072200D02*
X113295362Y-93024580D01*
X113295362Y-93024580D02*
X113295362Y-93119819D01*
X112295363Y-93119819D02*
X112866791Y-93119819D01*
X112581077Y-93119819D02*
X112581077Y-92119819D01*
X112581077Y-92119819D02*
X112676315Y-92262676D01*
X112676315Y-92262676D02*
X112771553Y-92357914D01*
X112771553Y-92357914D02*
X112866791Y-92405533D01*
D11*
%TO.C,G\u002A\u002A\u002A*%
G36*
X122695349Y-78069427D02*
G01*
X122765993Y-78241898D01*
X122753238Y-78290725D01*
X122692744Y-78221725D01*
X122656546Y-78161177D01*
X122529115Y-78126505D01*
X122471611Y-78136342D01*
X122314977Y-78042059D01*
X122193011Y-77871758D01*
X122193418Y-77824001D01*
X122306056Y-77824001D01*
X122337940Y-77940978D01*
X122363646Y-77978017D01*
X122477832Y-78066101D01*
X122494947Y-78057954D01*
X122463063Y-77940978D01*
X122437356Y-77903939D01*
X122323171Y-77815855D01*
X122306056Y-77824001D01*
X122193418Y-77824001D01*
X122194219Y-77730183D01*
X122323861Y-77739448D01*
X122519858Y-77876783D01*
X122684898Y-78057954D01*
X122695349Y-78069427D01*
G37*
G36*
X121296862Y-77567271D02*
G01*
X121392958Y-77674962D01*
X121357863Y-77888350D01*
X121202894Y-78119725D01*
X121064694Y-78236912D01*
X120900320Y-78316347D01*
X120767377Y-78301708D01*
X120507171Y-78175530D01*
X120398531Y-77974832D01*
X120398594Y-77963896D01*
X120437083Y-77852382D01*
X120584622Y-77939656D01*
X120828695Y-78034287D01*
X121052217Y-77963801D01*
X121149270Y-77757220D01*
X121164026Y-77667223D01*
X121274393Y-77565609D01*
X121296862Y-77567271D01*
G37*
G36*
X123146046Y-77496545D02*
G01*
X123416499Y-77590215D01*
X123526610Y-77705325D01*
X123475871Y-77790148D01*
X123243471Y-77783534D01*
X122838432Y-77632689D01*
X122676873Y-77553863D01*
X122589020Y-77478013D01*
X122713309Y-77452356D01*
X122805073Y-77452251D01*
X123146046Y-77496545D01*
G37*
G36*
X119000493Y-77121158D02*
G01*
X119357388Y-77186034D01*
X119835477Y-77305916D01*
X120252207Y-77409436D01*
X120639835Y-77466073D01*
X120830206Y-77433013D01*
X121001472Y-77319786D01*
X121089130Y-77353442D01*
X121014225Y-77515002D01*
X120984109Y-77546989D01*
X120779273Y-77644106D01*
X120448359Y-77647165D01*
X119957398Y-77553122D01*
X119272422Y-77358935D01*
X118909293Y-77232807D01*
X118751212Y-77146920D01*
X118790023Y-77108912D01*
X119000493Y-77121158D01*
G37*
G36*
X121460884Y-76816800D02*
G01*
X121426218Y-76923586D01*
X121566536Y-76902675D01*
X121745132Y-76875475D01*
X122052427Y-76925603D01*
X122083200Y-76937037D01*
X122235630Y-77010491D01*
X122199920Y-77087574D01*
X121958724Y-77223412D01*
X121748657Y-77318598D01*
X121553361Y-77357432D01*
X121527785Y-77285754D01*
X121705155Y-77117447D01*
X121761434Y-77074432D01*
X121862463Y-76960285D01*
X121770966Y-76956153D01*
X121516413Y-77069518D01*
X121501703Y-77077304D01*
X121321836Y-77132959D01*
X121274393Y-77014341D01*
X121286429Y-76933296D01*
X121418849Y-76740360D01*
X121495315Y-76710006D01*
X121460884Y-76816800D01*
G37*
G36*
X123589016Y-76939741D02*
G01*
X123587900Y-77009067D01*
X123434299Y-77103693D01*
X123215190Y-77146799D01*
X122932187Y-77173353D01*
X122723429Y-77166457D01*
X122675462Y-77123817D01*
X122683468Y-77116331D01*
X122883293Y-77016008D01*
X123172796Y-76938634D01*
X123444021Y-76905961D01*
X123589016Y-76939741D01*
G37*
G36*
X120355354Y-76872035D02*
G01*
X120328322Y-76925376D01*
X120162860Y-77048390D01*
X119982640Y-77038382D01*
X119898038Y-76890818D01*
X119898475Y-76884816D01*
X120023161Y-76884816D01*
X120026414Y-76897303D01*
X120148284Y-76939993D01*
X120182579Y-76934901D01*
X120273408Y-76807485D01*
X120263583Y-76762228D01*
X120148284Y-76752308D01*
X120110840Y-76777989D01*
X120023161Y-76884816D01*
X119898475Y-76884816D01*
X119899449Y-76871443D01*
X120008314Y-76706013D01*
X120205234Y-76598561D01*
X120369335Y-76618843D01*
X120389120Y-76672302D01*
X120366267Y-76807485D01*
X120355354Y-76872035D01*
G37*
G36*
X119457828Y-75272861D02*
G01*
X119349287Y-75837255D01*
X119294523Y-76010585D01*
X119230463Y-76213340D01*
X119069010Y-76452605D01*
X118832580Y-76606539D01*
X118488825Y-76726629D01*
X118228878Y-76802838D01*
X117895481Y-76893214D01*
X117721977Y-76916704D01*
X117656159Y-76876307D01*
X117645821Y-76775018D01*
X117648080Y-76733015D01*
X117673695Y-76597832D01*
X117847479Y-76597832D01*
X117970343Y-76689746D01*
X118045607Y-76678994D01*
X118146314Y-76578526D01*
X118173300Y-76525441D01*
X118347955Y-76484683D01*
X118500300Y-76431425D01*
X118610325Y-76283096D01*
X118773846Y-76283096D01*
X118781390Y-76340708D01*
X118888621Y-76439500D01*
X118943961Y-76417967D01*
X119059623Y-76246625D01*
X119122529Y-76010585D01*
X119089359Y-75839359D01*
X119072670Y-75827386D01*
X118951036Y-75876043D01*
X118870684Y-75996901D01*
X118830124Y-76057908D01*
X118773846Y-76283096D01*
X118610325Y-76283096D01*
X118656730Y-76220535D01*
X118662357Y-76205545D01*
X118699976Y-75996901D01*
X118580213Y-75939008D01*
X118482298Y-75972730D01*
X118394644Y-76157973D01*
X118371197Y-76297193D01*
X118283510Y-76204504D01*
X118154394Y-76098427D01*
X117988665Y-76169304D01*
X117860323Y-76437550D01*
X117847479Y-76597832D01*
X117673695Y-76597832D01*
X117699947Y-76459283D01*
X117800313Y-76091094D01*
X117882083Y-75837799D01*
X118021191Y-75837799D01*
X118024830Y-75877563D01*
X118112210Y-75945687D01*
X118259943Y-75860131D01*
X118392661Y-75657480D01*
X118418612Y-75594935D01*
X118489113Y-75480947D01*
X118513752Y-75594919D01*
X118558797Y-75761601D01*
X118687118Y-75795323D01*
X118821105Y-75615966D01*
X118889668Y-75378548D01*
X118837588Y-75235834D01*
X118615526Y-75255033D01*
X118368652Y-75377736D01*
X118123327Y-75606106D01*
X118021191Y-75837799D01*
X117882083Y-75837799D01*
X117922409Y-75712885D01*
X118039472Y-75409097D01*
X118124736Y-75264166D01*
X118225200Y-75215569D01*
X118244289Y-75207427D01*
X119037497Y-75207427D01*
X119047990Y-75378548D01*
X119052926Y-75459052D01*
X119103897Y-75751323D01*
X119235504Y-75438515D01*
X119248331Y-75405848D01*
X119282139Y-75170309D01*
X119210286Y-75046369D01*
X119066807Y-75101930D01*
X119037497Y-75207427D01*
X118244289Y-75207427D01*
X118508516Y-75094724D01*
X118888979Y-74941205D01*
X119556181Y-74678218D01*
X119477960Y-75152209D01*
X119474940Y-75170309D01*
X119457828Y-75272861D01*
G37*
G36*
X122636828Y-76388732D02*
G01*
X122626580Y-76435790D01*
X122587062Y-76617259D01*
X122494344Y-76657041D01*
X122485843Y-76654016D01*
X122273114Y-76600890D01*
X121896196Y-76522948D01*
X121430797Y-76435930D01*
X120523654Y-76274299D01*
X120523654Y-76126692D01*
X120648777Y-76126692D01*
X120711339Y-76189254D01*
X120773900Y-76126692D01*
X120711339Y-76064131D01*
X120648777Y-76126692D01*
X120523654Y-76126692D01*
X120523654Y-75606161D01*
X120524347Y-75532357D01*
X120658655Y-75532357D01*
X120662567Y-75635101D01*
X120690032Y-75839349D01*
X120731644Y-75845165D01*
X120735187Y-75836688D01*
X120886083Y-75695394D01*
X121063268Y-75745319D01*
X121171848Y-75961405D01*
X121172608Y-75966428D01*
X121245298Y-76126692D01*
X121252658Y-76142919D01*
X121465216Y-76269508D01*
X121868728Y-76381420D01*
X122133699Y-76432916D01*
X122416024Y-76462476D01*
X122525624Y-76435790D01*
X122499230Y-76403748D01*
X122297637Y-76326984D01*
X121962570Y-76258356D01*
X121399516Y-76173921D01*
X121399516Y-75674168D01*
X121524639Y-75674168D01*
X121524698Y-75687238D01*
X121589066Y-75975218D01*
X121806166Y-76110390D01*
X122094818Y-76173177D01*
X122329800Y-76160226D01*
X122400501Y-76025723D01*
X122302285Y-75871416D01*
X122056413Y-75721397D01*
X121712324Y-75580602D01*
X122056413Y-75648246D01*
X122150596Y-75661391D01*
X122360152Y-75626705D01*
X122388414Y-75516656D01*
X122202583Y-75389340D01*
X121832675Y-75302225D01*
X121600594Y-75393077D01*
X121524639Y-75674168D01*
X121399516Y-75674168D01*
X121399516Y-75618533D01*
X121397617Y-75418465D01*
X121365193Y-75175495D01*
X121256102Y-75079840D01*
X121024147Y-75063145D01*
X120977802Y-75063365D01*
X120756311Y-75093101D01*
X120669075Y-75224851D01*
X120658655Y-75532357D01*
X120524347Y-75532357D01*
X120526056Y-75350359D01*
X120558689Y-75106230D01*
X120664591Y-74974549D01*
X120887001Y-74938374D01*
X121269158Y-74980763D01*
X121854301Y-75084773D01*
X122650748Y-75231524D01*
X122650748Y-75974022D01*
X122649013Y-76025723D01*
X122636828Y-76388732D01*
G37*
G36*
X120342918Y-75916946D02*
G01*
X120241159Y-76132768D01*
X120189620Y-76242077D01*
X119986491Y-76376939D01*
X119916319Y-76423528D01*
X119819248Y-76458622D01*
X119544449Y-76540493D01*
X119424141Y-76519076D01*
X119397546Y-76390503D01*
X119405424Y-76376939D01*
X119522669Y-76376939D01*
X119585230Y-76439500D01*
X119647792Y-76376939D01*
X119585230Y-76314377D01*
X119522669Y-76376939D01*
X119405424Y-76376939D01*
X119470322Y-76265202D01*
X119772915Y-76265202D01*
X119807594Y-76311816D01*
X119951010Y-76294410D01*
X120084837Y-76190687D01*
X120096260Y-76132768D01*
X119967098Y-76141512D01*
X119871062Y-76184843D01*
X119772915Y-76265202D01*
X119470322Y-76265202D01*
X119475562Y-76256181D01*
X119710353Y-76137873D01*
X119888831Y-76043577D01*
X120020856Y-75813342D01*
X119996710Y-75559468D01*
X119804196Y-75380404D01*
X119701941Y-75336131D01*
X119680480Y-75291283D01*
X119781587Y-75291283D01*
X119921008Y-75311476D01*
X120072217Y-75382165D01*
X120183788Y-75657480D01*
X120215766Y-75827122D01*
X120238350Y-75798562D01*
X120254660Y-75532357D01*
X120257574Y-75432231D01*
X120232020Y-75151287D01*
X120122366Y-75079800D01*
X119898038Y-75188269D01*
X119872688Y-75204839D01*
X119781587Y-75291283D01*
X119680480Y-75291283D01*
X119664143Y-75257144D01*
X119828111Y-75116771D01*
X119892082Y-75071577D01*
X120178505Y-74943861D01*
X120344337Y-75033925D01*
X120396822Y-75344673D01*
X120396237Y-75403176D01*
X120393222Y-75432231D01*
X120342918Y-75916946D01*
G37*
G36*
X122133682Y-73907518D02*
G01*
X122148339Y-74281126D01*
X122139273Y-74535372D01*
X122094704Y-74825193D01*
X122025132Y-74938022D01*
X121968890Y-74893378D01*
X121915681Y-74677774D01*
X121907318Y-74364717D01*
X121943802Y-74045624D01*
X122025132Y-73811914D01*
X122089452Y-73764948D01*
X122133682Y-73907518D01*
G37*
G36*
X121227709Y-74518089D02*
G01*
X121307062Y-74589067D01*
X121530638Y-74597338D01*
X121676234Y-74586908D01*
X121774885Y-74673183D01*
X121697140Y-74765115D01*
X121462078Y-74812899D01*
X121238611Y-74768931D01*
X121159148Y-74593934D01*
X121175815Y-74493678D01*
X121227709Y-74518089D01*
G37*
G36*
X122969412Y-56282742D02*
G01*
X122851132Y-56341990D01*
X122887061Y-56398812D01*
X123145801Y-56462501D01*
X123186356Y-56470264D01*
X123476796Y-56503859D01*
X123630010Y-56483226D01*
X123625074Y-56447136D01*
X123464048Y-56419796D01*
X123346216Y-56406093D01*
X123309965Y-56344486D01*
X123391819Y-56332156D01*
X123657725Y-56376694D01*
X124027102Y-56482357D01*
X124284258Y-56573986D01*
X124538693Y-56684292D01*
X124615615Y-56748852D01*
X124477510Y-56748013D01*
X124214787Y-56670042D01*
X123955331Y-56592713D01*
X123813959Y-56591232D01*
X123844034Y-56629258D01*
X124048037Y-56727969D01*
X124386465Y-56852410D01*
X124655667Y-56956738D01*
X125244559Y-57247225D01*
X125880829Y-57619991D01*
X126474329Y-58020499D01*
X126934910Y-58394207D01*
X126998051Y-58451196D01*
X127223217Y-58614249D01*
X127351134Y-58642891D01*
X127302113Y-58538145D01*
X127084704Y-58331864D01*
X126741461Y-58057892D01*
X126315898Y-57749180D01*
X125851532Y-57438679D01*
X125391878Y-57159337D01*
X125390481Y-57158540D01*
X125084777Y-56975322D01*
X124932113Y-56865478D01*
X124965526Y-56852761D01*
X125170860Y-56928443D01*
X125823739Y-57273234D01*
X126528250Y-57770330D01*
X127238662Y-58375343D01*
X127598989Y-58734574D01*
X127909243Y-59043884D01*
X128494261Y-59731564D01*
X128947983Y-60393996D01*
X129224679Y-60986791D01*
X129212455Y-61020974D01*
X129103238Y-60869617D01*
X128920569Y-60564950D01*
X128757608Y-60293633D01*
X128463410Y-59852088D01*
X128160463Y-59442635D01*
X127884492Y-59110062D01*
X127671225Y-58899159D01*
X127556388Y-58854714D01*
X127552332Y-58893208D01*
X127653010Y-59073904D01*
X127868387Y-59330783D01*
X128362868Y-59935009D01*
X128933759Y-60935880D01*
X128956295Y-61001350D01*
X129310732Y-62031034D01*
X129331916Y-62175461D01*
X129394620Y-62602965D01*
X129477574Y-63168524D01*
X129468727Y-63336222D01*
X129418074Y-64296400D01*
X129224449Y-65123276D01*
X128847811Y-66025462D01*
X128292581Y-66880459D01*
X127541617Y-67709862D01*
X126577777Y-68535265D01*
X125383920Y-69378260D01*
X124937652Y-69674356D01*
X124225176Y-70168332D01*
X123628097Y-70610259D01*
X123171079Y-70980739D01*
X122878783Y-71260372D01*
X122810956Y-71372012D01*
X122775871Y-71429760D01*
X122823048Y-71423442D01*
X123004584Y-71288698D01*
X123275744Y-71045432D01*
X123362198Y-70967908D01*
X123713797Y-70687066D01*
X124203754Y-70324939D01*
X124779308Y-69919879D01*
X125387694Y-69510240D01*
X125702033Y-69302700D01*
X126438714Y-68804182D01*
X127013806Y-68388876D01*
X127466447Y-68023745D01*
X127835773Y-67675752D01*
X128160922Y-67311859D01*
X128481030Y-66899029D01*
X128581666Y-66757644D01*
X129124522Y-65752847D01*
X129464622Y-64630644D01*
X129594296Y-63426395D01*
X129505871Y-62175461D01*
X129490014Y-62073612D01*
X129457762Y-61814378D01*
X129478421Y-61772485D01*
X129556598Y-61925214D01*
X129560430Y-61933956D01*
X129656206Y-62327422D01*
X129700845Y-62889526D01*
X129697173Y-63546852D01*
X129648015Y-64225984D01*
X129556197Y-64853506D01*
X129424545Y-65356001D01*
X129307657Y-65659824D01*
X128975163Y-66354506D01*
X128558024Y-66991944D01*
X128027137Y-67603235D01*
X127353399Y-68219475D01*
X126507709Y-68871761D01*
X125460965Y-69591189D01*
X124824249Y-70017762D01*
X124088166Y-70536829D01*
X123544191Y-70960570D01*
X123175931Y-71303137D01*
X122968552Y-71576631D01*
X122966996Y-71578683D01*
X122900994Y-71801358D01*
X122872521Y-71881641D01*
X122818502Y-72033954D01*
X122593851Y-72227021D01*
X122526416Y-72284975D01*
X122489373Y-72306546D01*
X122249547Y-72475523D01*
X122151046Y-72599348D01*
X122135791Y-72634786D01*
X122005799Y-72611296D01*
X121941925Y-72582184D01*
X121941221Y-72651263D01*
X121941945Y-72656346D01*
X121945851Y-72683779D01*
X121866722Y-72890417D01*
X121803088Y-72998613D01*
X121672969Y-73219851D01*
X121565394Y-73373983D01*
X121478065Y-73499106D01*
X121395393Y-73617557D01*
X121293309Y-73757031D01*
X121039503Y-74135139D01*
X120878584Y-74424433D01*
X120841739Y-74571192D01*
X120859033Y-74611825D01*
X120789716Y-74687776D01*
X120701687Y-74639833D01*
X120586216Y-74437530D01*
X120513410Y-74290892D01*
X120369245Y-74187283D01*
X120325388Y-74192025D01*
X120304836Y-74260420D01*
X120301930Y-74368179D01*
X120172760Y-74573228D01*
X119984223Y-74771844D01*
X119912954Y-74776714D01*
X119956658Y-74575071D01*
X119945683Y-74384646D01*
X119778945Y-74017149D01*
X119438476Y-73487996D01*
X119328362Y-73328232D01*
X119110574Y-72993768D01*
X118991939Y-72781660D01*
X118996055Y-72732223D01*
X119064220Y-72767072D01*
X119147299Y-72758294D01*
X119123052Y-72725468D01*
X119117622Y-72721701D01*
X119696401Y-72721701D01*
X119710290Y-72880887D01*
X119826083Y-73143955D01*
X120023959Y-73499106D01*
X119943397Y-73123737D01*
X119867682Y-72821049D01*
X119791380Y-72682830D01*
X119700561Y-72716451D01*
X119696401Y-72721701D01*
X119117622Y-72721701D01*
X118939684Y-72598265D01*
X118635348Y-72429713D01*
X118611422Y-72417453D01*
X118307480Y-72236700D01*
X118286828Y-72209478D01*
X118580934Y-72209478D01*
X118582034Y-72265831D01*
X118735253Y-72364953D01*
X118758991Y-72373861D01*
X118884367Y-72400113D01*
X118805296Y-72294910D01*
X118713297Y-72223513D01*
X118580934Y-72209478D01*
X118286828Y-72209478D01*
X118185929Y-72076483D01*
X118190502Y-71995113D01*
X118298170Y-71995113D01*
X118313145Y-72143605D01*
X118350780Y-72163180D01*
X118396560Y-72060190D01*
X118387530Y-71993950D01*
X118313145Y-71976774D01*
X118298170Y-71995113D01*
X118190502Y-71995113D01*
X118197305Y-71874059D01*
X118226639Y-71656831D01*
X118207124Y-71481124D01*
X119095684Y-71481124D01*
X119134582Y-71626677D01*
X119298899Y-71928374D01*
X119381593Y-72060190D01*
X119382652Y-72061878D01*
X119611678Y-72342084D01*
X119693779Y-72400113D01*
X119808326Y-72481074D01*
X119890919Y-72495012D01*
X119978879Y-72443955D01*
X120008821Y-72250989D01*
X119997079Y-71862588D01*
X119985727Y-71651789D01*
X120168685Y-71651789D01*
X120211969Y-72069863D01*
X120235470Y-72250989D01*
X120256505Y-72413109D01*
X120327085Y-72856753D01*
X120391593Y-73164691D01*
X120443619Y-73338647D01*
X120498354Y-73400408D01*
X120509180Y-73373983D01*
X120899023Y-73373983D01*
X120961585Y-73436544D01*
X121024147Y-73373983D01*
X120961585Y-73311421D01*
X120899023Y-73373983D01*
X120509180Y-73373983D01*
X120560441Y-73248860D01*
X120597203Y-73098358D01*
X121039255Y-73098358D01*
X121113298Y-73101121D01*
X121175627Y-72998613D01*
X121649762Y-72998613D01*
X121712324Y-73061175D01*
X121774885Y-72998613D01*
X121712324Y-72936052D01*
X121649762Y-72998613D01*
X121175627Y-72998613D01*
X121251385Y-72874019D01*
X121318370Y-72656346D01*
X121280142Y-72560682D01*
X121194891Y-72613246D01*
X121083715Y-72820358D01*
X121066611Y-72877685D01*
X121039255Y-73098358D01*
X120597203Y-73098358D01*
X120616009Y-73021367D01*
X120696643Y-72623320D01*
X120781316Y-72154032D01*
X120783926Y-72138766D01*
X120871316Y-71720402D01*
X120962938Y-71422780D01*
X121039375Y-71309451D01*
X121042911Y-71309562D01*
X121098246Y-71408678D01*
X121065084Y-71705147D01*
X120941524Y-72216594D01*
X120945030Y-72371472D01*
X121128479Y-72435559D01*
X121180256Y-72427545D01*
X121381822Y-72299410D01*
X121412783Y-72264655D01*
X122172388Y-72264655D01*
X122275378Y-72310436D01*
X122341618Y-72301406D01*
X122358794Y-72227021D01*
X122340455Y-72212046D01*
X122191963Y-72227021D01*
X122172388Y-72264655D01*
X121412783Y-72264655D01*
X121573691Y-72084029D01*
X122586697Y-72084029D01*
X122603827Y-72185313D01*
X122606100Y-72185231D01*
X122696359Y-72081116D01*
X122758276Y-71881641D01*
X122744658Y-71737023D01*
X122692536Y-71752789D01*
X122615791Y-71930104D01*
X122586697Y-72084029D01*
X121573691Y-72084029D01*
X121587501Y-72068527D01*
X121751634Y-71804425D01*
X121828561Y-71576631D01*
X121772624Y-71454674D01*
X121693520Y-71400656D01*
X121718972Y-71372012D01*
X122025132Y-71372012D01*
X122087693Y-71434574D01*
X122150255Y-71372012D01*
X122087693Y-71309451D01*
X122025132Y-71372012D01*
X121718972Y-71372012D01*
X121792008Y-71289816D01*
X121824920Y-71248400D01*
X121694385Y-71215800D01*
X121336954Y-71233584D01*
X121136970Y-71251352D01*
X120717211Y-71283795D01*
X120417526Y-71300634D01*
X120386062Y-71301715D01*
X120240095Y-71326230D01*
X120172848Y-71423416D01*
X120168685Y-71651789D01*
X119985727Y-71651789D01*
X119960600Y-71185203D01*
X119522669Y-71186682D01*
X119349638Y-71191611D01*
X119204483Y-71228010D01*
X119272422Y-71309451D01*
X119295878Y-71324795D01*
X119384769Y-71411800D01*
X119237406Y-71432658D01*
X119175233Y-71435505D01*
X119095684Y-71481124D01*
X118207124Y-71481124D01*
X118196407Y-71384638D01*
X118086529Y-71239751D01*
X117784857Y-70967735D01*
X117330599Y-70613636D01*
X116757884Y-70202702D01*
X116100843Y-69760178D01*
X115880430Y-69620288D01*
X118146314Y-69620288D01*
X118208876Y-69682850D01*
X118271437Y-69620288D01*
X118208876Y-69557727D01*
X118146314Y-69620288D01*
X115880430Y-69620288D01*
X115393605Y-69311314D01*
X114360979Y-68619779D01*
X113423280Y-67840222D01*
X112693093Y-67029713D01*
X112148153Y-66163113D01*
X111766194Y-65215277D01*
X111662501Y-64815267D01*
X111534505Y-63855623D01*
X111535641Y-63712102D01*
X112322478Y-63712102D01*
X112513541Y-64759379D01*
X112931438Y-65735366D01*
X113573422Y-66617333D01*
X114028989Y-67117825D01*
X113701721Y-66598196D01*
X113640622Y-66495926D01*
X113417619Y-66045432D01*
X113216935Y-65538323D01*
X113072005Y-65066183D01*
X113016265Y-64720599D01*
X113025944Y-64620879D01*
X113103668Y-64554646D01*
X113229637Y-64680391D01*
X113367980Y-64972432D01*
X113376365Y-64995045D01*
X113543057Y-65345504D01*
X113781443Y-65741216D01*
X114052460Y-66129617D01*
X114317041Y-66458141D01*
X114536122Y-66674221D01*
X114670638Y-66725292D01*
X114728087Y-66700019D01*
X114722472Y-66777439D01*
X114719474Y-66784013D01*
X114776787Y-66938855D01*
X114970395Y-67202202D01*
X115252232Y-67522403D01*
X115574232Y-67847808D01*
X115888330Y-68126767D01*
X116146461Y-68307628D01*
X116196513Y-68333517D01*
X116293928Y-68359133D01*
X116257626Y-68252975D01*
X116080552Y-67979971D01*
X115877752Y-67654507D01*
X115769879Y-67395878D01*
X115821136Y-67305510D01*
X115854289Y-67327600D01*
X116028674Y-67487926D01*
X116312913Y-67769456D01*
X116665718Y-68131795D01*
X116812120Y-68282675D01*
X117207556Y-68674498D01*
X117556741Y-68999994D01*
X117797675Y-69200622D01*
X118137213Y-69443164D01*
X117828956Y-68746139D01*
X117740758Y-68546009D01*
X117595748Y-68203410D01*
X117536810Y-68019435D01*
X117551907Y-67945027D01*
X117629002Y-67931126D01*
X117660922Y-67946628D01*
X117793108Y-68089159D01*
X118019863Y-68391609D01*
X118350487Y-68867186D01*
X118794277Y-69529098D01*
X118854219Y-69620288D01*
X119360532Y-70390550D01*
X119445595Y-70503555D01*
X119473307Y-70457568D01*
X119434842Y-70195168D01*
X119414953Y-69926394D01*
X119478879Y-69847874D01*
X119606218Y-69977091D01*
X119771803Y-70305781D01*
X119972940Y-70581052D01*
X120268046Y-70703427D01*
X120567541Y-70637546D01*
X120793531Y-70377910D01*
X120948363Y-70116955D01*
X121095112Y-70000898D01*
X121176381Y-70064846D01*
X121146924Y-70316644D01*
X121104309Y-70566978D01*
X121174590Y-70667790D01*
X121371607Y-70592585D01*
X121702846Y-70336587D01*
X122175792Y-69895018D01*
X122797934Y-69263101D01*
X123064214Y-68988149D01*
X123496198Y-68553874D01*
X123849490Y-68213760D01*
X124093182Y-67997193D01*
X124196366Y-67933558D01*
X124197998Y-67935708D01*
X124157894Y-68071660D01*
X124006364Y-68351266D01*
X123774491Y-68716818D01*
X123290041Y-69437502D01*
X124190345Y-68701023D01*
X125279046Y-67748218D01*
X126174458Y-66818894D01*
X126859395Y-65921798D01*
X127349300Y-65039025D01*
X127385004Y-64963548D01*
X127545391Y-64697409D01*
X127682477Y-64558820D01*
X127757728Y-64574650D01*
X127732609Y-64771766D01*
X127665655Y-65019719D01*
X127581299Y-65366101D01*
X127459721Y-65760019D01*
X127095230Y-66488955D01*
X126521298Y-67314177D01*
X125994552Y-67993687D01*
X126705909Y-67305510D01*
X127469819Y-66473315D01*
X128027189Y-65633993D01*
X128386628Y-64757581D01*
X128571841Y-63799538D01*
X128596521Y-63516826D01*
X128599119Y-63336222D01*
X128572438Y-63364131D01*
X128499832Y-63587926D01*
X128371108Y-63927185D01*
X128287355Y-64154858D01*
X128253742Y-64311809D01*
X128220251Y-64338445D01*
X128006361Y-64382181D01*
X127658055Y-64411393D01*
X127260419Y-64398762D01*
X126468937Y-64189083D01*
X125703607Y-63738328D01*
X125302109Y-63432091D01*
X125442776Y-63804761D01*
X125520175Y-64162065D01*
X125435288Y-64569939D01*
X125371288Y-64765355D01*
X125370523Y-65012006D01*
X125524329Y-65263992D01*
X125748049Y-65634546D01*
X125791604Y-65868300D01*
X125849442Y-66178710D01*
X125704035Y-66760775D01*
X125654035Y-66877269D01*
X125543932Y-67173319D01*
X125509256Y-67336791D01*
X125510953Y-67348521D01*
X125434738Y-67403776D01*
X125364061Y-67409052D01*
X125106936Y-67479663D01*
X124750876Y-67606812D01*
X124676388Y-67634320D01*
X124042706Y-67774281D01*
X123374073Y-67786947D01*
X122756888Y-67677726D01*
X122277549Y-67452023D01*
X122144921Y-67361400D01*
X121818851Y-67236605D01*
X121415622Y-67254886D01*
X121337131Y-67265545D01*
X120969707Y-67271717D01*
X120708448Y-67211294D01*
X120534387Y-67157745D01*
X120125361Y-67227340D01*
X120071834Y-67246714D01*
X119745080Y-67296021D01*
X119420568Y-67170425D01*
X119187091Y-67056896D01*
X118982714Y-67059396D01*
X118707559Y-67202462D01*
X118322440Y-67360210D01*
X117896068Y-67427916D01*
X117845732Y-67426820D01*
X117290673Y-67303416D01*
X116762657Y-67010718D01*
X116317006Y-66598764D01*
X116009045Y-66117591D01*
X115894097Y-65617236D01*
X115896240Y-65559292D01*
X115907276Y-65521657D01*
X116526114Y-65521657D01*
X116623745Y-65789800D01*
X116881121Y-66103464D01*
X117248208Y-66366125D01*
X117699590Y-66517870D01*
X118121758Y-66506171D01*
X118444045Y-66321185D01*
X118530608Y-66196294D01*
X118622511Y-65895572D01*
X119170269Y-65895572D01*
X119248435Y-66127056D01*
X119492486Y-66348475D01*
X119813914Y-66404327D01*
X120126555Y-66261628D01*
X120228748Y-66174393D01*
X120379721Y-66117829D01*
X120521034Y-66238807D01*
X120731035Y-66369589D01*
X121029249Y-66424419D01*
X121305759Y-66393597D01*
X121455337Y-66273244D01*
X121459203Y-66260054D01*
X121513537Y-66018955D01*
X121571702Y-65700720D01*
X122025132Y-65700720D01*
X122088807Y-66097782D01*
X122364573Y-66518092D01*
X122851574Y-66810014D01*
X123066976Y-66877360D01*
X123585752Y-66936838D01*
X124085683Y-66874385D01*
X124528299Y-66713153D01*
X124875128Y-66476294D01*
X125087700Y-66186959D01*
X125127543Y-65868300D01*
X124956188Y-65543468D01*
X124879686Y-65467522D01*
X124603822Y-65317073D01*
X124375009Y-65357471D01*
X124254770Y-65585067D01*
X124183468Y-65746807D01*
X123951574Y-65892695D01*
X123660449Y-65901806D01*
X123411720Y-65753801D01*
X123337449Y-65636975D01*
X123329398Y-65353095D01*
X123549144Y-65083550D01*
X123981406Y-64852517D01*
X124149978Y-64779508D01*
X124506878Y-64568502D01*
X124732917Y-64355759D01*
X124832363Y-64111219D01*
X124796376Y-63745062D01*
X124584871Y-63391541D01*
X124240637Y-63079000D01*
X123806469Y-62835780D01*
X123325157Y-62690225D01*
X122839496Y-62670677D01*
X122507453Y-62770762D01*
X122392275Y-62805479D01*
X122309013Y-62864558D01*
X122169700Y-63122146D01*
X122168586Y-63444723D01*
X122282205Y-63754469D01*
X122487091Y-63973565D01*
X122759777Y-64024193D01*
X122877397Y-63956576D01*
X122926288Y-63716220D01*
X122931079Y-63542020D01*
X123027241Y-63363436D01*
X123062495Y-63345426D01*
X123343212Y-63328320D01*
X123642647Y-63437615D01*
X123827775Y-63629156D01*
X123840115Y-63666473D01*
X123810356Y-63917300D01*
X123568391Y-64172353D01*
X123097049Y-64450943D01*
X122687889Y-64676138D01*
X122621942Y-64727335D01*
X122295556Y-64980719D01*
X122086704Y-65308177D01*
X122025132Y-65700720D01*
X121571702Y-65700720D01*
X121575688Y-65678909D01*
X121649025Y-65272161D01*
X121725268Y-64901055D01*
X121746585Y-64727335D01*
X121670454Y-64475655D01*
X121422931Y-64181597D01*
X121211204Y-64006832D01*
X120858390Y-63835486D01*
X120542574Y-63803489D01*
X120335685Y-63927644D01*
X120200432Y-63990653D01*
X119934612Y-63972043D01*
X119769906Y-63936992D01*
X119678386Y-63966411D01*
X119666232Y-63970318D01*
X119645255Y-64140180D01*
X119680104Y-64502594D01*
X119690889Y-64613264D01*
X119680085Y-65122375D01*
X119554931Y-65442583D01*
X119322271Y-65553786D01*
X119187411Y-65629645D01*
X119170269Y-65895572D01*
X118622511Y-65895572D01*
X118664271Y-65758924D01*
X118691349Y-65168674D01*
X118607062Y-64479524D01*
X118506637Y-63968317D01*
X118889530Y-64024514D01*
X118906419Y-64026882D01*
X119165484Y-64029753D01*
X119272422Y-63966411D01*
X119220715Y-63812126D01*
X118993721Y-63627255D01*
X118667972Y-63551815D01*
X118662648Y-63551811D01*
X118467698Y-63526238D01*
X118404777Y-63402085D01*
X118436045Y-63106731D01*
X118458736Y-62966904D01*
X119300687Y-62966904D01*
X119316289Y-63121505D01*
X119553950Y-63229376D01*
X119795681Y-63257691D01*
X120178139Y-63269796D01*
X120602847Y-63262859D01*
X120996710Y-63239761D01*
X121286632Y-63203385D01*
X121399516Y-63156612D01*
X121411529Y-63081520D01*
X121482651Y-62855144D01*
X121509313Y-62770762D01*
X121466449Y-62686068D01*
X121241088Y-62719991D01*
X120954540Y-62742552D01*
X120582955Y-62674714D01*
X120256708Y-62612697D01*
X119760971Y-62694315D01*
X119493114Y-62801829D01*
X119300687Y-62966904D01*
X118458736Y-62966904D01*
X118508272Y-62661647D01*
X118045766Y-62700081D01*
X117914522Y-62712054D01*
X117685913Y-62767399D01*
X117597780Y-62917080D01*
X117583260Y-63239008D01*
X117583082Y-63293169D01*
X117558884Y-63591686D01*
X117458549Y-63728091D01*
X117231753Y-63779808D01*
X117013945Y-63837328D01*
X116933411Y-63954404D01*
X117055499Y-64075860D01*
X117363169Y-64153275D01*
X117510809Y-64172914D01*
X117679262Y-64248944D01*
X117770298Y-64436482D01*
X117833693Y-64804406D01*
X117856868Y-65013014D01*
X117868341Y-65355459D01*
X117837070Y-65548019D01*
X117658943Y-65663745D01*
X117385785Y-65647240D01*
X117145329Y-65491224D01*
X117031095Y-65394416D01*
X116754639Y-65303540D01*
X116595675Y-65346131D01*
X116526114Y-65521657D01*
X115907276Y-65521657D01*
X116003387Y-65193894D01*
X116227711Y-64914443D01*
X116507366Y-64803047D01*
X116519949Y-64802281D01*
X116550717Y-64708020D01*
X116403671Y-64473365D01*
X116295505Y-64325879D01*
X116164801Y-64020889D01*
X116237795Y-63744734D01*
X116522853Y-63423760D01*
X116627520Y-63325066D01*
X116792804Y-63145466D01*
X116793383Y-63052801D01*
X116645654Y-62989021D01*
X116367328Y-63002620D01*
X116007298Y-63229839D01*
X115945964Y-63278543D01*
X115614355Y-63473002D01*
X115324467Y-63551815D01*
X115290257Y-63553226D01*
X114966855Y-63634263D01*
X114614609Y-63801594D01*
X114368323Y-63926909D01*
X113828778Y-64047064D01*
X113325985Y-63974851D01*
X112907710Y-63732472D01*
X112621717Y-63342128D01*
X112543977Y-62963419D01*
X113176911Y-62963419D01*
X113244160Y-63073670D01*
X113496802Y-63208082D01*
X113826275Y-63201547D01*
X114150932Y-63064558D01*
X114389122Y-62807612D01*
X114406543Y-62772642D01*
X114464277Y-62469700D01*
X114389907Y-62040264D01*
X114374271Y-61978010D01*
X114336951Y-61565130D01*
X114429700Y-61280521D01*
X114638102Y-61174475D01*
X114744553Y-61254457D01*
X114874297Y-61504858D01*
X114976675Y-61840680D01*
X115018235Y-62173964D01*
X115069106Y-62500956D01*
X115236834Y-62630555D01*
X115528611Y-62545541D01*
X115556647Y-62529967D01*
X115726213Y-62353308D01*
X115716393Y-62070543D01*
X115647566Y-61758791D01*
X115556851Y-61204296D01*
X115556727Y-61171444D01*
X116060806Y-61171444D01*
X116145257Y-61617840D01*
X116365756Y-61955798D01*
X116372696Y-61961856D01*
X116804742Y-62208657D01*
X117241083Y-62205386D01*
X117677102Y-61952056D01*
X117826190Y-61689128D01*
X117900951Y-61279226D01*
X117899040Y-60819598D01*
X117889757Y-60770307D01*
X118316512Y-60770307D01*
X118409440Y-61247618D01*
X118428575Y-61279226D01*
X118657909Y-61658060D01*
X118851974Y-61813737D01*
X119203813Y-61925447D01*
X119542465Y-61879495D01*
X119797388Y-61691797D01*
X119898038Y-61378269D01*
X119912972Y-61308219D01*
X120281692Y-61308219D01*
X120338499Y-61512663D01*
X120551495Y-61730435D01*
X120599992Y-61764034D01*
X120856652Y-61902056D01*
X121033713Y-61855677D01*
X121226530Y-61607534D01*
X121315174Y-61440570D01*
X121335739Y-61354419D01*
X121658618Y-61354419D01*
X121701152Y-61597198D01*
X121878580Y-61843260D01*
X122150095Y-62023652D01*
X122393820Y-62010660D01*
X122574521Y-61765130D01*
X122616282Y-61597859D01*
X123036942Y-61597859D01*
X123062878Y-61832490D01*
X123213135Y-62049784D01*
X123370172Y-62126394D01*
X123667437Y-62135100D01*
X123848021Y-62125511D01*
X124114972Y-62245455D01*
X124254127Y-62349632D01*
X124272295Y-62353308D01*
X124582342Y-62416042D01*
X124877940Y-62275559D01*
X124933875Y-62170933D01*
X125001337Y-61860641D01*
X125403457Y-61860641D01*
X125472157Y-62265323D01*
X125745473Y-62763699D01*
X126182443Y-63152208D01*
X126570504Y-63352303D01*
X127019336Y-63512800D01*
X127407907Y-63585484D01*
X127659208Y-63549631D01*
X127672249Y-63538744D01*
X127737229Y-63334901D01*
X127759000Y-62942817D01*
X127746176Y-62599725D01*
X128426071Y-62599725D01*
X128455940Y-62767189D01*
X128498653Y-62765251D01*
X128521658Y-62602965D01*
X128501621Y-62479975D01*
X128446062Y-62527370D01*
X128426071Y-62599725D01*
X127746176Y-62599725D01*
X127739200Y-62413099D01*
X127709880Y-62110384D01*
X128308022Y-62110384D01*
X128322997Y-62258876D01*
X128360632Y-62278451D01*
X128406413Y-62175461D01*
X128397383Y-62109221D01*
X128322997Y-62092045D01*
X128308022Y-62110384D01*
X127709880Y-62110384D01*
X127679464Y-61796356D01*
X127581428Y-61143195D01*
X127561839Y-60832850D01*
X127621294Y-60676939D01*
X127724436Y-60720126D01*
X127832178Y-60986791D01*
X127900007Y-61154834D01*
X128060655Y-61290688D01*
X128213337Y-61240357D01*
X128281289Y-61001350D01*
X128216656Y-60775090D01*
X127970575Y-60433828D01*
X127594856Y-60080969D01*
X127147521Y-59762381D01*
X126686594Y-59523931D01*
X126270097Y-59411485D01*
X126235359Y-59408424D01*
X125820920Y-59402523D01*
X125583391Y-59487115D01*
X125463091Y-59682222D01*
X125440683Y-59861022D01*
X125503590Y-60212830D01*
X125654894Y-60537550D01*
X125852844Y-60723627D01*
X125994549Y-60828176D01*
X126008267Y-60976728D01*
X125845790Y-61049352D01*
X125835518Y-61049605D01*
X125622297Y-61171763D01*
X125472377Y-61452634D01*
X125464870Y-61466698D01*
X125403457Y-61860641D01*
X125001337Y-61860641D01*
X125001640Y-61859246D01*
X125028087Y-61452634D01*
X125027309Y-61341438D01*
X124994341Y-60949837D01*
X124885247Y-60676395D01*
X124662343Y-60414112D01*
X124642034Y-60393916D01*
X124327717Y-60127119D01*
X124111473Y-60060087D01*
X123959503Y-60181641D01*
X123859213Y-60230299D01*
X123639311Y-60099687D01*
X123608712Y-60072201D01*
X123491438Y-59987328D01*
X123429637Y-60028505D01*
X123405567Y-60237127D01*
X123401486Y-60654590D01*
X123400857Y-60774768D01*
X123380117Y-61167202D01*
X123321585Y-61368179D01*
X123213802Y-61424722D01*
X123135224Y-61442803D01*
X123036942Y-61597859D01*
X122616282Y-61597859D01*
X122694839Y-61283206D01*
X122757417Y-60561033D01*
X122766753Y-60378811D01*
X122810858Y-59890262D01*
X122872385Y-59512229D01*
X122941044Y-59314568D01*
X122970336Y-59273904D01*
X122980677Y-59109939D01*
X122789232Y-58907918D01*
X122664653Y-58819795D01*
X122363852Y-58693500D01*
X122120663Y-58693849D01*
X122009381Y-58828416D01*
X122006983Y-58875295D01*
X122006234Y-59023625D01*
X122005631Y-59143103D01*
X122010841Y-59567182D01*
X122021933Y-60079648D01*
X122026211Y-60263280D01*
X122027546Y-60730623D01*
X122003417Y-61007739D01*
X121946632Y-61140424D01*
X121850000Y-61174475D01*
X121754460Y-61196350D01*
X121658618Y-61354419D01*
X121335739Y-61354419D01*
X121375485Y-61187917D01*
X121385139Y-60823758D01*
X121350478Y-60280171D01*
X121317872Y-59695774D01*
X121338427Y-59300671D01*
X121415989Y-59090095D01*
X121458387Y-59023625D01*
X121447838Y-58806548D01*
X121246560Y-58622372D01*
X120898536Y-58519589D01*
X120586216Y-58484328D01*
X120629691Y-59829402D01*
X120643790Y-60365882D01*
X120642949Y-60554312D01*
X120641929Y-60782675D01*
X120616149Y-61028357D01*
X120561564Y-61144950D01*
X120473287Y-61174475D01*
X120390693Y-61185488D01*
X120281692Y-61308219D01*
X119912972Y-61308219D01*
X119939441Y-61184063D01*
X120102226Y-60905994D01*
X120141855Y-60856897D01*
X120233344Y-60554312D01*
X120139475Y-60235133D01*
X119906882Y-59944327D01*
X119582200Y-59726864D01*
X119212063Y-59627712D01*
X118843104Y-59691840D01*
X118569736Y-59907476D01*
X118372239Y-60299226D01*
X118316512Y-60770307D01*
X117889757Y-60770307D01*
X117820968Y-60405033D01*
X117667250Y-60130321D01*
X117372172Y-59974611D01*
X116940433Y-59931312D01*
X116528648Y-60043585D01*
X116271068Y-60293541D01*
X116105158Y-60701662D01*
X116060806Y-61171444D01*
X115556727Y-61171444D01*
X115555449Y-60833979D01*
X115641629Y-60614099D01*
X115648337Y-60605954D01*
X115724141Y-60444577D01*
X115578374Y-60342743D01*
X115325438Y-60322861D01*
X115057773Y-60481088D01*
X114914437Y-60790170D01*
X114837932Y-60985328D01*
X114664191Y-60978661D01*
X114604994Y-60954298D01*
X114184044Y-60838958D01*
X113831362Y-60832979D01*
X113623894Y-60939274D01*
X113588274Y-61040435D01*
X113561148Y-61354170D01*
X113582659Y-61756488D01*
X113601057Y-61930321D01*
X113609319Y-62254106D01*
X113543172Y-62447190D01*
X113382649Y-62593090D01*
X113216936Y-62765826D01*
X113176911Y-62963419D01*
X112543977Y-62963419D01*
X112515772Y-62826022D01*
X112518345Y-62738628D01*
X112576672Y-62398495D01*
X112687758Y-62188490D01*
X112752086Y-62097030D01*
X112854787Y-61796405D01*
X112921935Y-61398512D01*
X112971418Y-61103717D01*
X113191094Y-60605383D01*
X113547898Y-60286078D01*
X114017075Y-60173490D01*
X114078031Y-60170341D01*
X114445773Y-60081700D01*
X114826250Y-59909203D01*
X115210777Y-59740539D01*
X115603548Y-59707877D01*
X115905847Y-59698841D01*
X116320155Y-59534701D01*
X116518535Y-59430535D01*
X117098372Y-59305261D01*
X117717737Y-59426308D01*
X117783737Y-59449987D01*
X118059705Y-59481077D01*
X118301399Y-59333075D01*
X118609919Y-59173885D01*
X119159374Y-59110553D01*
X119314398Y-59109167D01*
X119610696Y-59083617D01*
X119742413Y-59004740D01*
X119772528Y-58845290D01*
X119772740Y-58834861D01*
X119854939Y-58550625D01*
X120040806Y-58240069D01*
X120142834Y-58117575D01*
X120319906Y-57980464D01*
X120557193Y-57940643D01*
X120947949Y-57970387D01*
X121118606Y-57988615D01*
X121669828Y-58041436D01*
X122169194Y-58082132D01*
X122303081Y-58096737D01*
X122802413Y-58238182D01*
X123233945Y-58483380D01*
X123537208Y-58790150D01*
X123649496Y-59109939D01*
X123651733Y-59116311D01*
X123651821Y-59130745D01*
X123714708Y-59360567D01*
X123933260Y-59424667D01*
X124125024Y-59446377D01*
X124399809Y-59543581D01*
X124497124Y-59576018D01*
X124686682Y-59493966D01*
X124949386Y-59218309D01*
X125132311Y-59007965D01*
X125333906Y-58855815D01*
X125586329Y-58805175D01*
X125988656Y-58817868D01*
X126663370Y-58859697D01*
X126514594Y-58734574D01*
X127405427Y-58734574D01*
X127467989Y-58797136D01*
X127530551Y-58734574D01*
X127467989Y-58672012D01*
X127405427Y-58734574D01*
X126514594Y-58734574D01*
X126252379Y-58514046D01*
X126231388Y-58496609D01*
X125733543Y-58153574D01*
X125071456Y-57789207D01*
X124320121Y-57438654D01*
X123554536Y-57137056D01*
X122849698Y-56919557D01*
X122746552Y-56894511D01*
X121666139Y-56721851D01*
X120478055Y-56668041D01*
X119284174Y-56733131D01*
X118186373Y-56917175D01*
X117855777Y-57002155D01*
X116519824Y-57475083D01*
X115336250Y-58112454D01*
X114323072Y-58900824D01*
X113498305Y-59826748D01*
X112879968Y-60876783D01*
X112631834Y-61494614D01*
X112360993Y-62616270D01*
X112322478Y-63712102D01*
X111535641Y-63712102D01*
X111542315Y-62868673D01*
X111688724Y-61971309D01*
X111856187Y-61453124D01*
X112364445Y-60413002D01*
X113072560Y-59417331D01*
X113947360Y-58509160D01*
X114955674Y-57731538D01*
X115516609Y-57406405D01*
X116263336Y-57050145D01*
X117059991Y-56730224D01*
X117820583Y-56480887D01*
X118459122Y-56336377D01*
X118676241Y-56303140D01*
X118896361Y-56257223D01*
X118902250Y-56219371D01*
X118894642Y-56217586D01*
X122105438Y-56217586D01*
X122124251Y-56256755D01*
X122337940Y-56270280D01*
X122376795Y-56269455D01*
X122542988Y-56247792D01*
X122491962Y-56207963D01*
X122364986Y-56187848D01*
X122116593Y-56212600D01*
X122105438Y-56217586D01*
X118894642Y-56217586D01*
X118716119Y-56175699D01*
X118734372Y-56160330D01*
X118956630Y-56147381D01*
X119343196Y-56137678D01*
X119850188Y-56131304D01*
X120433721Y-56128342D01*
X121049911Y-56128876D01*
X121654873Y-56132990D01*
X122204724Y-56140765D01*
X122655580Y-56152287D01*
X122963555Y-56167637D01*
X123078940Y-56177660D01*
X123142139Y-56206868D01*
X123048976Y-56247792D01*
X122969412Y-56282742D01*
G37*
G36*
X111703663Y-61250466D02*
G01*
X111669162Y-61488202D01*
X111567090Y-61921370D01*
X111451649Y-62544965D01*
X111397282Y-63423560D01*
X111443428Y-64300575D01*
X111589283Y-65061864D01*
X111820821Y-65730241D01*
X112235452Y-66561538D01*
X112788266Y-67327436D01*
X113505774Y-68057930D01*
X114414486Y-68783011D01*
X115540911Y-69532673D01*
X116174356Y-69939794D01*
X116794899Y-70366744D01*
X117335877Y-70767061D01*
X117763779Y-71114812D01*
X118045095Y-71384063D01*
X118146314Y-71548883D01*
X118083272Y-71531814D01*
X117886350Y-71379043D01*
X117602131Y-71120504D01*
X117570182Y-71090645D01*
X117230338Y-70812313D01*
X116743329Y-70455794D01*
X116169421Y-70063811D01*
X115568879Y-69679088D01*
X114415696Y-68908225D01*
X113360412Y-68048006D01*
X112534145Y-67168617D01*
X111925890Y-66253157D01*
X111524642Y-65284726D01*
X111319399Y-64246423D01*
X111299155Y-63121346D01*
X111312637Y-62922424D01*
X111368370Y-62366610D01*
X111440573Y-61888674D01*
X111517110Y-61574739D01*
X111577898Y-61416379D01*
X111672580Y-61221935D01*
X111703663Y-61250466D01*
G37*
G36*
X129407398Y-61424722D02*
G01*
X129398368Y-61490962D01*
X129323982Y-61508137D01*
X129309008Y-61489798D01*
X129323982Y-61341306D01*
X129361617Y-61321731D01*
X129407398Y-61424722D01*
G37*
G36*
X117684209Y-56312910D02*
G01*
X117532044Y-56394929D01*
X117211457Y-56533542D01*
X116765020Y-56709634D01*
X115830484Y-57126058D01*
X114703038Y-57798331D01*
X113689065Y-58595111D01*
X112834023Y-59479634D01*
X112183367Y-60415135D01*
X112027976Y-60677887D01*
X111866803Y-60914164D01*
X111784628Y-60985532D01*
X111795353Y-60911038D01*
X111901145Y-60671953D01*
X112084132Y-60335546D01*
X112403979Y-59863121D01*
X112952940Y-59210005D01*
X113604534Y-58551917D01*
X114293836Y-57953431D01*
X114955923Y-57479125D01*
X115327592Y-57262890D01*
X115872028Y-56981774D01*
X116439867Y-56718645D01*
X116970724Y-56499668D01*
X117404216Y-56351006D01*
X117679959Y-56298823D01*
X117684209Y-56312910D01*
G37*
G36*
X118169775Y-56209199D02*
G01*
X118227690Y-56254237D01*
X118094179Y-56284794D01*
X117967272Y-56275947D01*
X117929955Y-56219077D01*
X117974222Y-56194283D01*
X118169775Y-56209199D01*
G37*
G36*
X121180551Y-55952180D02*
G01*
X121331043Y-55969633D01*
X121261351Y-55984438D01*
X120984865Y-55994454D01*
X120523654Y-55998135D01*
X120074203Y-55994673D01*
X119791595Y-55984832D01*
X119715091Y-55970154D01*
X119866757Y-55952180D01*
X120044213Y-55942474D01*
X120631127Y-55933654D01*
X121180551Y-55952180D01*
G37*
G36*
X120758153Y-64255739D02*
G01*
X120963750Y-64478519D01*
X121093728Y-64792510D01*
X121098117Y-65114943D01*
X121055753Y-65229072D01*
X120859898Y-65408861D01*
X120611938Y-65392177D01*
X120395219Y-65172229D01*
X120321914Y-64978933D01*
X120295129Y-64635791D01*
X120374978Y-64346127D01*
X120547036Y-64202129D01*
X120758153Y-64255739D01*
G37*
G36*
X126728991Y-61462329D02*
G01*
X126889274Y-61535042D01*
X126967990Y-61718166D01*
X127005633Y-62081618D01*
X127015953Y-62353706D01*
X126980929Y-62603365D01*
X126863986Y-62648812D01*
X126643846Y-62515570D01*
X126411947Y-62287069D01*
X126244854Y-61973991D01*
X126226907Y-61692467D01*
X126358341Y-61498785D01*
X126639392Y-61449234D01*
X126728991Y-61462329D01*
G37*
G36*
X126963676Y-60094682D02*
G01*
X127020177Y-60255042D01*
X127030058Y-60603110D01*
X127015791Y-60938294D01*
X126945942Y-61135196D01*
X126795501Y-61108894D01*
X126540052Y-60872830D01*
X126422415Y-60728065D01*
X126303039Y-60420721D01*
X126393754Y-60188143D01*
X126687039Y-60071337D01*
X126820267Y-60059574D01*
X126963676Y-60094682D01*
G37*
G36*
X124224167Y-60496801D02*
G01*
X124405234Y-60729546D01*
X124508035Y-61049342D01*
X124487965Y-61347519D01*
X124420033Y-61470992D01*
X124257196Y-61546433D01*
X124088214Y-61439157D01*
X123955628Y-61186917D01*
X123901979Y-60827468D01*
X123907678Y-60661875D01*
X123967661Y-60471776D01*
X124118359Y-60447058D01*
X124224167Y-60496801D01*
G37*
G36*
X117199201Y-60370360D02*
G01*
X117217703Y-60390095D01*
X117357993Y-60666616D01*
X117392853Y-60985906D01*
X117306415Y-61221928D01*
X117173080Y-61270725D01*
X116899765Y-61274062D01*
X116787903Y-61254042D01*
X116613417Y-61130304D01*
X116543686Y-60838700D01*
X116565372Y-60557026D01*
X116713437Y-60314198D01*
X116943652Y-60238445D01*
X117199201Y-60370360D01*
G37*
G36*
X119418274Y-60006704D02*
G01*
X119601562Y-60233494D01*
X119630026Y-60422808D01*
X119596341Y-60736824D01*
X119495958Y-60938146D01*
X119283570Y-61047084D01*
X119045714Y-60991829D01*
X118851973Y-60794344D01*
X118771930Y-60476594D01*
X118788052Y-60335821D01*
X118934278Y-60080501D01*
X119170099Y-59963251D01*
X119418274Y-60006704D01*
G37*
%TD*%
M02*
