%TF.GenerationSoftware,KiCad,Pcbnew,9.0.2*%
%TF.CreationDate,2026-03-12T21:09:41-06:00*%
%TF.ProjectId,Balloon_Sat,42616c6c-6f6f-46e5-9f53-61742e6b6963,rev?*%
%TF.SameCoordinates,Original*%
%TF.FileFunction,Legend,Top*%
%TF.FilePolarity,Positive*%
%FSLAX46Y46*%
G04 Gerber Fmt 4.6, Leading zero omitted, Abs format (unit mm)*
G04 Created by KiCad (PCBNEW 9.0.2) date 2026-03-12 21:09:41*
%MOMM*%
%LPD*%
G01*
G04 APERTURE LIST*
%ADD10C,0.150000*%
%ADD11C,0.120000*%
%ADD12C,0.100000*%
G04 APERTURE END LIST*
D10*
X110485588Y-91492438D02*
X110390350Y-91444819D01*
X110390350Y-91444819D02*
X110247493Y-91444819D01*
X110247493Y-91444819D02*
X110104636Y-91492438D01*
X110104636Y-91492438D02*
X110009398Y-91587676D01*
X110009398Y-91587676D02*
X109961779Y-91682914D01*
X109961779Y-91682914D02*
X109914160Y-91873390D01*
X109914160Y-91873390D02*
X109914160Y-92016247D01*
X109914160Y-92016247D02*
X109961779Y-92206723D01*
X109961779Y-92206723D02*
X110009398Y-92301961D01*
X110009398Y-92301961D02*
X110104636Y-92397200D01*
X110104636Y-92397200D02*
X110247493Y-92444819D01*
X110247493Y-92444819D02*
X110342731Y-92444819D01*
X110342731Y-92444819D02*
X110485588Y-92397200D01*
X110485588Y-92397200D02*
X110533207Y-92349580D01*
X110533207Y-92349580D02*
X110533207Y-92016247D01*
X110533207Y-92016247D02*
X110342731Y-92016247D01*
X110961779Y-92444819D02*
X110961779Y-91444819D01*
X110961779Y-91444819D02*
X111533207Y-92444819D01*
X111533207Y-92444819D02*
X111533207Y-91444819D01*
X112009398Y-92444819D02*
X112009398Y-91444819D01*
X112009398Y-91444819D02*
X112247493Y-91444819D01*
X112247493Y-91444819D02*
X112390350Y-91492438D01*
X112390350Y-91492438D02*
X112485588Y-91587676D01*
X112485588Y-91587676D02*
X112533207Y-91682914D01*
X112533207Y-91682914D02*
X112580826Y-91873390D01*
X112580826Y-91873390D02*
X112580826Y-92016247D01*
X112580826Y-92016247D02*
X112533207Y-92206723D01*
X112533207Y-92206723D02*
X112485588Y-92301961D01*
X112485588Y-92301961D02*
X112390350Y-92397200D01*
X112390350Y-92397200D02*
X112247493Y-92444819D01*
X112247493Y-92444819D02*
X112009398Y-92444819D01*
X109818922Y-89369819D02*
X110152255Y-90369819D01*
X110152255Y-90369819D02*
X110485588Y-89369819D01*
X111009398Y-89369819D02*
X111199874Y-89369819D01*
X111199874Y-89369819D02*
X111295112Y-89417438D01*
X111295112Y-89417438D02*
X111390350Y-89512676D01*
X111390350Y-89512676D02*
X111437969Y-89703152D01*
X111437969Y-89703152D02*
X111437969Y-90036485D01*
X111437969Y-90036485D02*
X111390350Y-90226961D01*
X111390350Y-90226961D02*
X111295112Y-90322200D01*
X111295112Y-90322200D02*
X111199874Y-90369819D01*
X111199874Y-90369819D02*
X111009398Y-90369819D01*
X111009398Y-90369819D02*
X110914160Y-90322200D01*
X110914160Y-90322200D02*
X110818922Y-90226961D01*
X110818922Y-90226961D02*
X110771303Y-90036485D01*
X110771303Y-90036485D02*
X110771303Y-89703152D01*
X110771303Y-89703152D02*
X110818922Y-89512676D01*
X110818922Y-89512676D02*
X110914160Y-89417438D01*
X110914160Y-89417438D02*
X111009398Y-89369819D01*
X109866541Y-87394819D02*
X110485588Y-87394819D01*
X110485588Y-87394819D02*
X110152255Y-87775771D01*
X110152255Y-87775771D02*
X110295112Y-87775771D01*
X110295112Y-87775771D02*
X110390350Y-87823390D01*
X110390350Y-87823390D02*
X110437969Y-87871009D01*
X110437969Y-87871009D02*
X110485588Y-87966247D01*
X110485588Y-87966247D02*
X110485588Y-88204342D01*
X110485588Y-88204342D02*
X110437969Y-88299580D01*
X110437969Y-88299580D02*
X110390350Y-88347200D01*
X110390350Y-88347200D02*
X110295112Y-88394819D01*
X110295112Y-88394819D02*
X110009398Y-88394819D01*
X110009398Y-88394819D02*
X109914160Y-88347200D01*
X109914160Y-88347200D02*
X109866541Y-88299580D01*
X110771303Y-87394819D02*
X111104636Y-88394819D01*
X111104636Y-88394819D02*
X111437969Y-87394819D01*
X111676065Y-87394819D02*
X112295112Y-87394819D01*
X112295112Y-87394819D02*
X111961779Y-87775771D01*
X111961779Y-87775771D02*
X112104636Y-87775771D01*
X112104636Y-87775771D02*
X112199874Y-87823390D01*
X112199874Y-87823390D02*
X112247493Y-87871009D01*
X112247493Y-87871009D02*
X112295112Y-87966247D01*
X112295112Y-87966247D02*
X112295112Y-88204342D01*
X112295112Y-88204342D02*
X112247493Y-88299580D01*
X112247493Y-88299580D02*
X112199874Y-88347200D01*
X112199874Y-88347200D02*
X112104636Y-88394819D01*
X112104636Y-88394819D02*
X111818922Y-88394819D01*
X111818922Y-88394819D02*
X111723684Y-88347200D01*
X111723684Y-88347200D02*
X111676065Y-88299580D01*
X152010588Y-80292438D02*
X151915350Y-80244819D01*
X151915350Y-80244819D02*
X151772493Y-80244819D01*
X151772493Y-80244819D02*
X151629636Y-80292438D01*
X151629636Y-80292438D02*
X151534398Y-80387676D01*
X151534398Y-80387676D02*
X151486779Y-80482914D01*
X151486779Y-80482914D02*
X151439160Y-80673390D01*
X151439160Y-80673390D02*
X151439160Y-80816247D01*
X151439160Y-80816247D02*
X151486779Y-81006723D01*
X151486779Y-81006723D02*
X151534398Y-81101961D01*
X151534398Y-81101961D02*
X151629636Y-81197200D01*
X151629636Y-81197200D02*
X151772493Y-81244819D01*
X151772493Y-81244819D02*
X151867731Y-81244819D01*
X151867731Y-81244819D02*
X152010588Y-81197200D01*
X152010588Y-81197200D02*
X152058207Y-81149580D01*
X152058207Y-81149580D02*
X152058207Y-80816247D01*
X152058207Y-80816247D02*
X151867731Y-80816247D01*
X152486779Y-81244819D02*
X152486779Y-80244819D01*
X152486779Y-80244819D02*
X153058207Y-81244819D01*
X153058207Y-81244819D02*
X153058207Y-80244819D01*
X153534398Y-81244819D02*
X153534398Y-80244819D01*
X153534398Y-80244819D02*
X153772493Y-80244819D01*
X153772493Y-80244819D02*
X153915350Y-80292438D01*
X153915350Y-80292438D02*
X154010588Y-80387676D01*
X154010588Y-80387676D02*
X154058207Y-80482914D01*
X154058207Y-80482914D02*
X154105826Y-80673390D01*
X154105826Y-80673390D02*
X154105826Y-80816247D01*
X154105826Y-80816247D02*
X154058207Y-81006723D01*
X154058207Y-81006723D02*
X154010588Y-81101961D01*
X154010588Y-81101961D02*
X153915350Y-81197200D01*
X153915350Y-81197200D02*
X153772493Y-81244819D01*
X153772493Y-81244819D02*
X153534398Y-81244819D01*
X151391541Y-82744819D02*
X152010588Y-82744819D01*
X152010588Y-82744819D02*
X151677255Y-83125771D01*
X151677255Y-83125771D02*
X151820112Y-83125771D01*
X151820112Y-83125771D02*
X151915350Y-83173390D01*
X151915350Y-83173390D02*
X151962969Y-83221009D01*
X151962969Y-83221009D02*
X152010588Y-83316247D01*
X152010588Y-83316247D02*
X152010588Y-83554342D01*
X152010588Y-83554342D02*
X151962969Y-83649580D01*
X151962969Y-83649580D02*
X151915350Y-83697200D01*
X151915350Y-83697200D02*
X151820112Y-83744819D01*
X151820112Y-83744819D02*
X151534398Y-83744819D01*
X151534398Y-83744819D02*
X151439160Y-83697200D01*
X151439160Y-83697200D02*
X151391541Y-83649580D01*
X152296303Y-82744819D02*
X152629636Y-83744819D01*
X152629636Y-83744819D02*
X152962969Y-82744819D01*
X153201065Y-82744819D02*
X153820112Y-82744819D01*
X153820112Y-82744819D02*
X153486779Y-83125771D01*
X153486779Y-83125771D02*
X153629636Y-83125771D01*
X153629636Y-83125771D02*
X153724874Y-83173390D01*
X153724874Y-83173390D02*
X153772493Y-83221009D01*
X153772493Y-83221009D02*
X153820112Y-83316247D01*
X153820112Y-83316247D02*
X153820112Y-83554342D01*
X153820112Y-83554342D02*
X153772493Y-83649580D01*
X153772493Y-83649580D02*
X153724874Y-83697200D01*
X153724874Y-83697200D02*
X153629636Y-83744819D01*
X153629636Y-83744819D02*
X153343922Y-83744819D01*
X153343922Y-83744819D02*
X153248684Y-83697200D01*
X153248684Y-83697200D02*
X153201065Y-83649580D01*
X152058207Y-88919819D02*
X151724874Y-88443628D01*
X151486779Y-88919819D02*
X151486779Y-87919819D01*
X151486779Y-87919819D02*
X151867731Y-87919819D01*
X151867731Y-87919819D02*
X151962969Y-87967438D01*
X151962969Y-87967438D02*
X152010588Y-88015057D01*
X152010588Y-88015057D02*
X152058207Y-88110295D01*
X152058207Y-88110295D02*
X152058207Y-88253152D01*
X152058207Y-88253152D02*
X152010588Y-88348390D01*
X152010588Y-88348390D02*
X151962969Y-88396009D01*
X151962969Y-88396009D02*
X151867731Y-88443628D01*
X151867731Y-88443628D02*
X151486779Y-88443628D01*
X152391541Y-87919819D02*
X153058207Y-88919819D01*
X153058207Y-87919819D02*
X152391541Y-88919819D01*
X130320180Y-56361905D02*
X130320180Y-56980952D01*
X130320180Y-56980952D02*
X129939228Y-56647619D01*
X129939228Y-56647619D02*
X129939228Y-56790476D01*
X129939228Y-56790476D02*
X129891609Y-56885714D01*
X129891609Y-56885714D02*
X129843990Y-56933333D01*
X129843990Y-56933333D02*
X129748752Y-56980952D01*
X129748752Y-56980952D02*
X129510657Y-56980952D01*
X129510657Y-56980952D02*
X129415419Y-56933333D01*
X129415419Y-56933333D02*
X129367800Y-56885714D01*
X129367800Y-56885714D02*
X129320180Y-56790476D01*
X129320180Y-56790476D02*
X129320180Y-56504762D01*
X129320180Y-56504762D02*
X129367800Y-56409524D01*
X129367800Y-56409524D02*
X129415419Y-56361905D01*
X130320180Y-57266667D02*
X129320180Y-57600000D01*
X129320180Y-57600000D02*
X130320180Y-57933333D01*
X130320180Y-58171429D02*
X130320180Y-58790476D01*
X130320180Y-58790476D02*
X129939228Y-58457143D01*
X129939228Y-58457143D02*
X129939228Y-58600000D01*
X129939228Y-58600000D02*
X129891609Y-58695238D01*
X129891609Y-58695238D02*
X129843990Y-58742857D01*
X129843990Y-58742857D02*
X129748752Y-58790476D01*
X129748752Y-58790476D02*
X129510657Y-58790476D01*
X129510657Y-58790476D02*
X129415419Y-58742857D01*
X129415419Y-58742857D02*
X129367800Y-58695238D01*
X129367800Y-58695238D02*
X129320180Y-58600000D01*
X129320180Y-58600000D02*
X129320180Y-58314286D01*
X129320180Y-58314286D02*
X129367800Y-58219048D01*
X129367800Y-58219048D02*
X129415419Y-58171429D01*
X127822561Y-56980952D02*
X127870180Y-56885714D01*
X127870180Y-56885714D02*
X127870180Y-56742857D01*
X127870180Y-56742857D02*
X127822561Y-56600000D01*
X127822561Y-56600000D02*
X127727323Y-56504762D01*
X127727323Y-56504762D02*
X127632085Y-56457143D01*
X127632085Y-56457143D02*
X127441609Y-56409524D01*
X127441609Y-56409524D02*
X127298752Y-56409524D01*
X127298752Y-56409524D02*
X127108276Y-56457143D01*
X127108276Y-56457143D02*
X127013038Y-56504762D01*
X127013038Y-56504762D02*
X126917800Y-56600000D01*
X126917800Y-56600000D02*
X126870180Y-56742857D01*
X126870180Y-56742857D02*
X126870180Y-56838095D01*
X126870180Y-56838095D02*
X126917800Y-56980952D01*
X126917800Y-56980952D02*
X126965419Y-57028571D01*
X126965419Y-57028571D02*
X127298752Y-57028571D01*
X127298752Y-57028571D02*
X127298752Y-56838095D01*
X126870180Y-57457143D02*
X127870180Y-57457143D01*
X127870180Y-57457143D02*
X126870180Y-58028571D01*
X126870180Y-58028571D02*
X127870180Y-58028571D01*
X126870180Y-58504762D02*
X127870180Y-58504762D01*
X127870180Y-58504762D02*
X127870180Y-58742857D01*
X127870180Y-58742857D02*
X127822561Y-58885714D01*
X127822561Y-58885714D02*
X127727323Y-58980952D01*
X127727323Y-58980952D02*
X127632085Y-59028571D01*
X127632085Y-59028571D02*
X127441609Y-59076190D01*
X127441609Y-59076190D02*
X127298752Y-59076190D01*
X127298752Y-59076190D02*
X127108276Y-59028571D01*
X127108276Y-59028571D02*
X127013038Y-58980952D01*
X127013038Y-58980952D02*
X126917800Y-58885714D01*
X126917800Y-58885714D02*
X126870180Y-58742857D01*
X126870180Y-58742857D02*
X126870180Y-58504762D01*
X124267800Y-56409524D02*
X124220180Y-56552381D01*
X124220180Y-56552381D02*
X124220180Y-56790476D01*
X124220180Y-56790476D02*
X124267800Y-56885714D01*
X124267800Y-56885714D02*
X124315419Y-56933333D01*
X124315419Y-56933333D02*
X124410657Y-56980952D01*
X124410657Y-56980952D02*
X124505895Y-56980952D01*
X124505895Y-56980952D02*
X124601133Y-56933333D01*
X124601133Y-56933333D02*
X124648752Y-56885714D01*
X124648752Y-56885714D02*
X124696371Y-56790476D01*
X124696371Y-56790476D02*
X124743990Y-56600000D01*
X124743990Y-56600000D02*
X124791609Y-56504762D01*
X124791609Y-56504762D02*
X124839228Y-56457143D01*
X124839228Y-56457143D02*
X124934466Y-56409524D01*
X124934466Y-56409524D02*
X125029704Y-56409524D01*
X125029704Y-56409524D02*
X125124942Y-56457143D01*
X125124942Y-56457143D02*
X125172561Y-56504762D01*
X125172561Y-56504762D02*
X125220180Y-56600000D01*
X125220180Y-56600000D02*
X125220180Y-56838095D01*
X125220180Y-56838095D02*
X125172561Y-56980952D01*
X124315419Y-57980952D02*
X124267800Y-57933333D01*
X124267800Y-57933333D02*
X124220180Y-57790476D01*
X124220180Y-57790476D02*
X124220180Y-57695238D01*
X124220180Y-57695238D02*
X124267800Y-57552381D01*
X124267800Y-57552381D02*
X124363038Y-57457143D01*
X124363038Y-57457143D02*
X124458276Y-57409524D01*
X124458276Y-57409524D02*
X124648752Y-57361905D01*
X124648752Y-57361905D02*
X124791609Y-57361905D01*
X124791609Y-57361905D02*
X124982085Y-57409524D01*
X124982085Y-57409524D02*
X125077323Y-57457143D01*
X125077323Y-57457143D02*
X125172561Y-57552381D01*
X125172561Y-57552381D02*
X125220180Y-57695238D01*
X125220180Y-57695238D02*
X125220180Y-57790476D01*
X125220180Y-57790476D02*
X125172561Y-57933333D01*
X125172561Y-57933333D02*
X125124942Y-57980952D01*
X124220180Y-58885714D02*
X124220180Y-58409524D01*
X124220180Y-58409524D02*
X125220180Y-58409524D01*
X121742800Y-56409524D02*
X121695180Y-56552381D01*
X121695180Y-56552381D02*
X121695180Y-56790476D01*
X121695180Y-56790476D02*
X121742800Y-56885714D01*
X121742800Y-56885714D02*
X121790419Y-56933333D01*
X121790419Y-56933333D02*
X121885657Y-56980952D01*
X121885657Y-56980952D02*
X121980895Y-56980952D01*
X121980895Y-56980952D02*
X122076133Y-56933333D01*
X122076133Y-56933333D02*
X122123752Y-56885714D01*
X122123752Y-56885714D02*
X122171371Y-56790476D01*
X122171371Y-56790476D02*
X122218990Y-56600000D01*
X122218990Y-56600000D02*
X122266609Y-56504762D01*
X122266609Y-56504762D02*
X122314228Y-56457143D01*
X122314228Y-56457143D02*
X122409466Y-56409524D01*
X122409466Y-56409524D02*
X122504704Y-56409524D01*
X122504704Y-56409524D02*
X122599942Y-56457143D01*
X122599942Y-56457143D02*
X122647561Y-56504762D01*
X122647561Y-56504762D02*
X122695180Y-56600000D01*
X122695180Y-56600000D02*
X122695180Y-56838095D01*
X122695180Y-56838095D02*
X122647561Y-56980952D01*
X121695180Y-57409524D02*
X122695180Y-57409524D01*
X122695180Y-57409524D02*
X122695180Y-57647619D01*
X122695180Y-57647619D02*
X122647561Y-57790476D01*
X122647561Y-57790476D02*
X122552323Y-57885714D01*
X122552323Y-57885714D02*
X122457085Y-57933333D01*
X122457085Y-57933333D02*
X122266609Y-57980952D01*
X122266609Y-57980952D02*
X122123752Y-57980952D01*
X122123752Y-57980952D02*
X121933276Y-57933333D01*
X121933276Y-57933333D02*
X121838038Y-57885714D01*
X121838038Y-57885714D02*
X121742800Y-57790476D01*
X121742800Y-57790476D02*
X121695180Y-57647619D01*
X121695180Y-57647619D02*
X121695180Y-57409524D01*
X121980895Y-58361905D02*
X121980895Y-58838095D01*
X121695180Y-58266667D02*
X122695180Y-58600000D01*
X122695180Y-58600000D02*
X121695180Y-58933333D01*
X114045180Y-56457143D02*
X115045180Y-56457143D01*
X114045180Y-56933333D02*
X115045180Y-56933333D01*
X115045180Y-56933333D02*
X114045180Y-57504761D01*
X114045180Y-57504761D02*
X115045180Y-57504761D01*
X115045180Y-57838095D02*
X115045180Y-58409523D01*
X114045180Y-58123809D02*
X115045180Y-58123809D01*
X105328571Y-76181009D02*
X105661904Y-76181009D01*
X105804761Y-76704819D02*
X105328571Y-76704819D01*
X105328571Y-76704819D02*
X105328571Y-75704819D01*
X105328571Y-75704819D02*
X105804761Y-75704819D01*
X106138095Y-75704819D02*
X106804761Y-76704819D01*
X106804761Y-75704819D02*
X106138095Y-76704819D01*
X107042857Y-75704819D02*
X107614285Y-75704819D01*
X107328571Y-76704819D02*
X107328571Y-75704819D01*
X105328571Y-67856009D02*
X105661904Y-67856009D01*
X105804761Y-68379819D02*
X105328571Y-68379819D01*
X105328571Y-68379819D02*
X105328571Y-67379819D01*
X105328571Y-67379819D02*
X105804761Y-67379819D01*
X106138095Y-67379819D02*
X106804761Y-68379819D01*
X106804761Y-67379819D02*
X106138095Y-68379819D01*
X107042857Y-67379819D02*
X107614285Y-67379819D01*
X107328571Y-68379819D02*
X107328571Y-67379819D01*
X102671429Y-56859580D02*
X102719048Y-56907200D01*
X102719048Y-56907200D02*
X102671429Y-56954819D01*
X102671429Y-56954819D02*
X102623810Y-56907200D01*
X102623810Y-56907200D02*
X102671429Y-56859580D01*
X102671429Y-56859580D02*
X102671429Y-56954819D01*
X103671428Y-56954819D02*
X103100000Y-56954819D01*
X103385714Y-56954819D02*
X103385714Y-55954819D01*
X103385714Y-55954819D02*
X103290476Y-56097676D01*
X103290476Y-56097676D02*
X103195238Y-56192914D01*
X103195238Y-56192914D02*
X103100000Y-56240533D01*
X104528571Y-56288152D02*
X104528571Y-56954819D01*
X104100000Y-56288152D02*
X104100000Y-56811961D01*
X104100000Y-56811961D02*
X104147619Y-56907200D01*
X104147619Y-56907200D02*
X104242857Y-56954819D01*
X104242857Y-56954819D02*
X104385714Y-56954819D01*
X104385714Y-56954819D02*
X104480952Y-56907200D01*
X104480952Y-56907200D02*
X104528571Y-56859580D01*
X115011779Y-77474580D02*
X115059398Y-77522200D01*
X115059398Y-77522200D02*
X115011779Y-77569819D01*
X115011779Y-77569819D02*
X114964160Y-77522200D01*
X114964160Y-77522200D02*
X115011779Y-77474580D01*
X115011779Y-77474580D02*
X115011779Y-77569819D01*
X116011778Y-77569819D02*
X115440350Y-77569819D01*
X115726064Y-77569819D02*
X115726064Y-76569819D01*
X115726064Y-76569819D02*
X115630826Y-76712676D01*
X115630826Y-76712676D02*
X115535588Y-76807914D01*
X115535588Y-76807914D02*
X115440350Y-76855533D01*
X116868921Y-76903152D02*
X116868921Y-77569819D01*
X116440350Y-76903152D02*
X116440350Y-77426961D01*
X116440350Y-77426961D02*
X116487969Y-77522200D01*
X116487969Y-77522200D02*
X116583207Y-77569819D01*
X116583207Y-77569819D02*
X116726064Y-77569819D01*
X116726064Y-77569819D02*
X116821302Y-77522200D01*
X116821302Y-77522200D02*
X116868921Y-77474580D01*
X118710588Y-77569819D02*
X118139160Y-77569819D01*
X118424874Y-77569819D02*
X118424874Y-76569819D01*
X118424874Y-76569819D02*
X118329636Y-76712676D01*
X118329636Y-76712676D02*
X118234398Y-76807914D01*
X118234398Y-76807914D02*
X118139160Y-76855533D01*
X119329636Y-76569819D02*
X119424874Y-76569819D01*
X119424874Y-76569819D02*
X119520112Y-76617438D01*
X119520112Y-76617438D02*
X119567731Y-76665057D01*
X119567731Y-76665057D02*
X119615350Y-76760295D01*
X119615350Y-76760295D02*
X119662969Y-76950771D01*
X119662969Y-76950771D02*
X119662969Y-77188866D01*
X119662969Y-77188866D02*
X119615350Y-77379342D01*
X119615350Y-77379342D02*
X119567731Y-77474580D01*
X119567731Y-77474580D02*
X119520112Y-77522200D01*
X119520112Y-77522200D02*
X119424874Y-77569819D01*
X119424874Y-77569819D02*
X119329636Y-77569819D01*
X119329636Y-77569819D02*
X119234398Y-77522200D01*
X119234398Y-77522200D02*
X119186779Y-77474580D01*
X119186779Y-77474580D02*
X119139160Y-77379342D01*
X119139160Y-77379342D02*
X119091541Y-77188866D01*
X119091541Y-77188866D02*
X119091541Y-76950771D01*
X119091541Y-76950771D02*
X119139160Y-76760295D01*
X119139160Y-76760295D02*
X119186779Y-76665057D01*
X119186779Y-76665057D02*
X119234398Y-76617438D01*
X119234398Y-76617438D02*
X119329636Y-76569819D01*
X120091541Y-76903152D02*
X120091541Y-77569819D01*
X120091541Y-76998390D02*
X120139160Y-76950771D01*
X120139160Y-76950771D02*
X120234398Y-76903152D01*
X120234398Y-76903152D02*
X120377255Y-76903152D01*
X120377255Y-76903152D02*
X120472493Y-76950771D01*
X120472493Y-76950771D02*
X120520112Y-77046009D01*
X120520112Y-77046009D02*
X120520112Y-77569819D01*
G36*
X125204598Y-86609180D02*
G01*
X125231092Y-86635674D01*
X125265350Y-86704190D01*
X125265350Y-86811637D01*
X125231091Y-86880153D01*
X125200684Y-86910561D01*
X125132169Y-86944819D01*
X124843922Y-86944819D01*
X124843922Y-86571009D01*
X125090085Y-86571009D01*
X125204598Y-86609180D01*
G37*
G36*
X125153066Y-86129077D02*
G01*
X125183473Y-86159484D01*
X125217731Y-86228000D01*
X125217731Y-86287828D01*
X125183473Y-86356344D01*
X125153066Y-86386751D01*
X125084550Y-86421009D01*
X124843922Y-86421009D01*
X124843922Y-86094819D01*
X125084550Y-86094819D01*
X125153066Y-86129077D01*
G37*
G36*
X127109360Y-86132990D02*
G01*
X127183473Y-86207103D01*
X127221966Y-86284090D01*
X127265350Y-86457624D01*
X127265350Y-86582013D01*
X127221966Y-86755547D01*
X127183472Y-86832534D01*
X127109360Y-86906647D01*
X126994847Y-86944819D01*
X126843922Y-86944819D01*
X126843922Y-86094819D01*
X126994847Y-86094819D01*
X127109360Y-86132990D01*
G37*
G36*
X130772114Y-86129077D02*
G01*
X130802521Y-86159484D01*
X130841014Y-86236471D01*
X130884398Y-86410005D01*
X130884398Y-86629632D01*
X130841014Y-86803166D01*
X130802520Y-86880153D01*
X130772113Y-86910561D01*
X130703598Y-86944819D01*
X130643770Y-86944819D01*
X130575254Y-86910561D01*
X130544847Y-86880153D01*
X130506353Y-86803166D01*
X130462970Y-86629632D01*
X130462970Y-86410005D01*
X130506353Y-86236471D01*
X130544847Y-86159484D01*
X130575254Y-86129077D01*
X130643770Y-86094819D01*
X130703598Y-86094819D01*
X130772114Y-86129077D01*
G37*
G36*
X124236293Y-86659104D02*
G01*
X123968217Y-86659104D01*
X124102255Y-86256989D01*
X124236293Y-86659104D01*
G37*
G36*
X128093436Y-86659104D02*
G01*
X127825360Y-86659104D01*
X127959398Y-86256989D01*
X128093436Y-86659104D01*
G37*
G36*
X135617246Y-86659104D02*
G01*
X135349170Y-86659104D01*
X135483208Y-86256989D01*
X135617246Y-86659104D01*
G37*
G36*
X136474389Y-86659104D02*
G01*
X136206313Y-86659104D01*
X136340351Y-86256989D01*
X136474389Y-86659104D01*
G37*
G36*
X126200685Y-86129077D02*
G01*
X126231092Y-86159484D01*
X126265350Y-86228000D01*
X126265350Y-86335447D01*
X126231092Y-86403963D01*
X126200685Y-86434370D01*
X126132169Y-86468628D01*
X125843922Y-86468628D01*
X125843922Y-86094819D01*
X126132169Y-86094819D01*
X126200685Y-86129077D01*
G37*
G36*
X133724495Y-86129077D02*
G01*
X133754902Y-86159484D01*
X133789160Y-86228000D01*
X133789160Y-86335447D01*
X133754902Y-86403963D01*
X133724495Y-86434370D01*
X133655979Y-86468628D01*
X133367732Y-86468628D01*
X133367732Y-86094819D01*
X133655979Y-86094819D01*
X133724495Y-86129077D01*
G37*
G36*
X137716938Y-87205930D02*
G01*
X123583400Y-87205930D01*
X123583400Y-87010439D01*
X123694511Y-87010439D01*
X123696586Y-87039629D01*
X123709672Y-87065802D01*
X123731779Y-87084976D01*
X123759542Y-87094230D01*
X123788732Y-87092155D01*
X123814905Y-87079069D01*
X123834079Y-87056962D01*
X123840073Y-87043536D01*
X123918217Y-86809104D01*
X124286293Y-86809104D01*
X124364437Y-87043536D01*
X124370431Y-87056961D01*
X124389605Y-87079068D01*
X124415778Y-87092155D01*
X124444968Y-87094230D01*
X124472730Y-87084976D01*
X124494838Y-87065802D01*
X124507924Y-87039628D01*
X124509999Y-87010438D01*
X124506739Y-86996102D01*
X124181312Y-86019819D01*
X124693922Y-86019819D01*
X124693922Y-87019819D01*
X124695363Y-87034451D01*
X124706562Y-87061487D01*
X124727254Y-87082179D01*
X124754290Y-87093378D01*
X124768922Y-87094819D01*
X125149874Y-87094819D01*
X125164506Y-87093378D01*
X125166995Y-87092346D01*
X125169683Y-87092156D01*
X125183415Y-87086901D01*
X125278653Y-87039282D01*
X125284952Y-87035317D01*
X125286780Y-87034560D01*
X125288836Y-87032872D01*
X125291096Y-87031450D01*
X125292396Y-87029950D01*
X125298146Y-87025232D01*
X125345764Y-86977613D01*
X125350482Y-86971863D01*
X125351981Y-86970564D01*
X125353402Y-86968305D01*
X125355092Y-86966247D01*
X125355849Y-86964417D01*
X125359813Y-86958121D01*
X125407432Y-86862883D01*
X125412687Y-86849152D01*
X125412878Y-86846462D01*
X125413909Y-86843974D01*
X125415350Y-86829342D01*
X125415350Y-86686485D01*
X125413909Y-86671853D01*
X125412878Y-86669364D01*
X125412687Y-86666675D01*
X125407432Y-86652944D01*
X125359813Y-86557706D01*
X125355848Y-86551406D01*
X125355091Y-86549579D01*
X125353402Y-86547522D01*
X125351981Y-86545263D01*
X125350482Y-86543963D01*
X125345764Y-86538214D01*
X125298145Y-86490595D01*
X125286780Y-86481268D01*
X125284289Y-86480236D01*
X125282254Y-86478471D01*
X125276186Y-86475762D01*
X125298145Y-86453804D01*
X125302863Y-86448054D01*
X125304362Y-86446755D01*
X125305783Y-86444495D01*
X125307472Y-86442439D01*
X125308229Y-86440611D01*
X125312194Y-86434312D01*
X125359813Y-86339074D01*
X125365068Y-86325343D01*
X125365259Y-86322653D01*
X125366290Y-86320165D01*
X125367731Y-86305533D01*
X125367731Y-86210295D01*
X125366290Y-86195663D01*
X125365259Y-86193174D01*
X125365068Y-86190485D01*
X125359813Y-86176754D01*
X125312194Y-86081516D01*
X125308229Y-86075216D01*
X125307472Y-86073389D01*
X125305783Y-86071332D01*
X125304362Y-86069073D01*
X125302863Y-86067773D01*
X125298145Y-86062024D01*
X125255940Y-86019819D01*
X125693922Y-86019819D01*
X125693922Y-87019819D01*
X125695363Y-87034451D01*
X125706562Y-87061487D01*
X125727254Y-87082179D01*
X125754290Y-87093378D01*
X125783554Y-87093378D01*
X125810590Y-87082179D01*
X125831282Y-87061487D01*
X125842481Y-87034451D01*
X125843922Y-87019819D01*
X125843922Y-86618628D01*
X126149874Y-86618628D01*
X126164506Y-86617187D01*
X126166995Y-86616155D01*
X126169683Y-86615965D01*
X126183415Y-86610710D01*
X126278653Y-86563091D01*
X126284952Y-86559126D01*
X126286780Y-86558369D01*
X126288836Y-86556680D01*
X126291096Y-86555259D01*
X126292395Y-86553760D01*
X126298145Y-86549042D01*
X126345764Y-86501423D01*
X126350482Y-86495673D01*
X126351981Y-86494374D01*
X126353402Y-86492114D01*
X126355091Y-86490058D01*
X126355848Y-86488230D01*
X126359813Y-86481931D01*
X126407432Y-86386693D01*
X126412687Y-86372962D01*
X126412878Y-86370272D01*
X126413909Y-86367784D01*
X126415350Y-86353152D01*
X126415350Y-86210295D01*
X126413909Y-86195663D01*
X126412878Y-86193174D01*
X126412687Y-86190485D01*
X126407432Y-86176754D01*
X126359813Y-86081516D01*
X126355848Y-86075216D01*
X126355091Y-86073389D01*
X126353402Y-86071332D01*
X126351981Y-86069073D01*
X126350482Y-86067773D01*
X126345764Y-86062024D01*
X126303559Y-86019819D01*
X126693922Y-86019819D01*
X126693922Y-87019819D01*
X126695363Y-87034451D01*
X126706562Y-87061487D01*
X126727254Y-87082179D01*
X126754290Y-87093378D01*
X126768922Y-87094819D01*
X127007017Y-87094819D01*
X127014422Y-87094089D01*
X127016397Y-87094230D01*
X127018994Y-87093639D01*
X127021649Y-87093378D01*
X127023480Y-87092619D01*
X127030734Y-87090970D01*
X127173591Y-87043351D01*
X127187016Y-87037357D01*
X127189051Y-87035591D01*
X127191542Y-87034560D01*
X127202907Y-87025233D01*
X127217701Y-87010439D01*
X127551654Y-87010439D01*
X127553729Y-87039629D01*
X127566815Y-87065802D01*
X127588922Y-87084976D01*
X127616685Y-87094230D01*
X127645875Y-87092155D01*
X127672048Y-87079069D01*
X127691222Y-87056962D01*
X127697216Y-87043536D01*
X127775360Y-86809104D01*
X128143436Y-86809104D01*
X128221580Y-87043536D01*
X128227574Y-87056961D01*
X128246748Y-87079068D01*
X128272921Y-87092155D01*
X128302111Y-87094230D01*
X128329873Y-87084976D01*
X128351981Y-87065802D01*
X128365067Y-87039628D01*
X128367142Y-87010438D01*
X128363882Y-86996102D01*
X128038455Y-86019819D01*
X128551065Y-86019819D01*
X128551065Y-87019819D01*
X128552506Y-87034451D01*
X128563705Y-87061487D01*
X128584397Y-87082179D01*
X128611433Y-87093378D01*
X128640697Y-87093378D01*
X128667733Y-87082179D01*
X128688425Y-87061487D01*
X128699624Y-87034451D01*
X128701065Y-87019819D01*
X128701065Y-86302235D01*
X129132375Y-87057030D01*
X129134564Y-87060114D01*
X129135133Y-87061487D01*
X129136530Y-87062884D01*
X129140885Y-87069019D01*
X129148773Y-87075127D01*
X129155825Y-87082179D01*
X129160243Y-87084009D01*
X129164023Y-87086936D01*
X129173644Y-87089560D01*
X129182861Y-87093378D01*
X129187642Y-87093378D01*
X129192254Y-87094636D01*
X129202151Y-87093378D01*
X129212125Y-87093378D01*
X129216540Y-87091548D01*
X129221284Y-87090946D01*
X129229948Y-87085995D01*
X129239161Y-87082179D01*
X129242539Y-87078800D01*
X129246693Y-87076427D01*
X129252802Y-87068537D01*
X129259853Y-87061487D01*
X129261682Y-87057070D01*
X129264610Y-87053290D01*
X129267234Y-87043666D01*
X129271052Y-87034451D01*
X129271788Y-87026968D01*
X129272310Y-87025058D01*
X129272122Y-87023582D01*
X129272493Y-87019819D01*
X129272493Y-86019819D01*
X129271052Y-86005187D01*
X129457268Y-86005187D01*
X129457268Y-86034451D01*
X129468467Y-86061487D01*
X129489159Y-86082179D01*
X129516195Y-86093378D01*
X129530827Y-86094819D01*
X129741541Y-86094819D01*
X129741541Y-87019819D01*
X129742982Y-87034451D01*
X129754181Y-87061487D01*
X129774873Y-87082179D01*
X129801909Y-87093378D01*
X129831173Y-87093378D01*
X129858209Y-87082179D01*
X129878901Y-87061487D01*
X129890100Y-87034451D01*
X129891541Y-87019819D01*
X129891541Y-86400771D01*
X130312970Y-86400771D01*
X130312970Y-86638866D01*
X130313221Y-86641419D01*
X130313059Y-86642512D01*
X130313868Y-86647985D01*
X130314411Y-86653498D01*
X130314833Y-86654519D01*
X130315209Y-86657056D01*
X130362828Y-86847532D01*
X130363213Y-86848611D01*
X130363252Y-86849151D01*
X130365579Y-86855232D01*
X130367775Y-86861378D01*
X130368097Y-86861813D01*
X130368507Y-86862883D01*
X130416126Y-86958121D01*
X130420089Y-86964417D01*
X130420847Y-86966247D01*
X130422536Y-86968305D01*
X130423958Y-86970564D01*
X130425456Y-86971863D01*
X130430174Y-86977612D01*
X130477793Y-87025232D01*
X130483542Y-87029950D01*
X130484843Y-87031450D01*
X130487102Y-87032872D01*
X130489159Y-87034560D01*
X130490986Y-87035317D01*
X130497286Y-87039282D01*
X130592524Y-87086901D01*
X130606255Y-87092156D01*
X130608944Y-87092347D01*
X130611433Y-87093378D01*
X130626065Y-87094819D01*
X130721303Y-87094819D01*
X130735935Y-87093378D01*
X130738424Y-87092346D01*
X130741112Y-87092156D01*
X130754844Y-87086901D01*
X130850082Y-87039282D01*
X130856381Y-87035317D01*
X130858209Y-87034560D01*
X130860265Y-87032872D01*
X130862525Y-87031450D01*
X130863825Y-87029950D01*
X130869575Y-87025232D01*
X130917193Y-86977613D01*
X130921911Y-86971863D01*
X130923410Y-86970564D01*
X130924831Y-86968305D01*
X130926521Y-86966247D01*
X130927278Y-86964417D01*
X130931242Y-86958121D01*
X130978861Y-86862883D01*
X130979270Y-86861813D01*
X130979593Y-86861378D01*
X130981785Y-86855241D01*
X130984116Y-86849152D01*
X130984154Y-86848611D01*
X130984540Y-86847532D01*
X131032159Y-86657056D01*
X131032534Y-86654519D01*
X131032957Y-86653498D01*
X131033499Y-86647985D01*
X131034309Y-86642512D01*
X131034146Y-86641419D01*
X131034398Y-86638866D01*
X131034398Y-86400771D01*
X131034146Y-86398217D01*
X131034309Y-86397125D01*
X131033499Y-86391651D01*
X131032957Y-86386139D01*
X131032534Y-86385117D01*
X131032159Y-86382581D01*
X131010552Y-86296152D01*
X131265940Y-86296152D01*
X131268014Y-86325342D01*
X131281101Y-86351517D01*
X131303209Y-86370690D01*
X131330970Y-86379944D01*
X131360160Y-86377870D01*
X131373892Y-86372615D01*
X131469130Y-86324996D01*
X131475429Y-86321031D01*
X131477257Y-86320274D01*
X131479313Y-86318585D01*
X131481573Y-86317164D01*
X131482872Y-86315665D01*
X131488622Y-86310947D01*
X131551065Y-86248504D01*
X131551065Y-86944819D01*
X131340351Y-86944819D01*
X131325719Y-86946260D01*
X131298683Y-86957459D01*
X131277991Y-86978151D01*
X131266792Y-87005187D01*
X131266792Y-87034451D01*
X131277991Y-87061487D01*
X131298683Y-87082179D01*
X131325719Y-87093378D01*
X131340351Y-87094819D01*
X131911779Y-87094819D01*
X131926411Y-87093378D01*
X131953447Y-87082179D01*
X131974139Y-87061487D01*
X131985338Y-87034451D01*
X131985338Y-87005187D01*
X131974139Y-86978151D01*
X131953447Y-86957459D01*
X131926411Y-86946260D01*
X131911779Y-86944819D01*
X131701065Y-86944819D01*
X131701065Y-86503249D01*
X132218082Y-86503249D01*
X132219173Y-86506864D01*
X132219173Y-86510640D01*
X132223367Y-86520765D01*
X132226535Y-86531265D01*
X132228926Y-86534188D01*
X132230372Y-86537677D01*
X132238125Y-86545430D01*
X132245066Y-86553913D01*
X132248392Y-86555697D01*
X132251064Y-86558369D01*
X132261191Y-86562564D01*
X132270853Y-86567747D01*
X132274612Y-86568122D01*
X132278101Y-86569568D01*
X132289062Y-86569568D01*
X132299972Y-86570659D01*
X132303588Y-86569568D01*
X132307363Y-86569568D01*
X132317488Y-86565373D01*
X132327988Y-86562206D01*
X132330911Y-86559814D01*
X132334400Y-86558369D01*
X132345765Y-86549042D01*
X132384778Y-86510029D01*
X132453294Y-86475771D01*
X132655979Y-86475771D01*
X132724495Y-86510029D01*
X132754902Y-86540436D01*
X132789160Y-86608952D01*
X132789160Y-86811637D01*
X132754901Y-86880153D01*
X132724494Y-86910561D01*
X132655979Y-86944819D01*
X132453294Y-86944819D01*
X132384778Y-86910561D01*
X132345766Y-86871548D01*
X132334400Y-86862220D01*
X132307364Y-86851021D01*
X132278101Y-86851021D01*
X132251065Y-86862219D01*
X132230372Y-86882912D01*
X132219173Y-86909948D01*
X132219173Y-86939211D01*
X132230371Y-86966247D01*
X132239698Y-86977612D01*
X132287317Y-87025232D01*
X132293066Y-87029950D01*
X132294367Y-87031450D01*
X132296626Y-87032872D01*
X132298683Y-87034560D01*
X132300510Y-87035317D01*
X132306810Y-87039282D01*
X132402048Y-87086901D01*
X132415779Y-87092156D01*
X132418468Y-87092347D01*
X132420957Y-87093378D01*
X132435589Y-87094819D01*
X132673684Y-87094819D01*
X132688316Y-87093378D01*
X132690805Y-87092346D01*
X132693493Y-87092156D01*
X132707225Y-87086901D01*
X132802463Y-87039282D01*
X132808762Y-87035317D01*
X132810590Y-87034560D01*
X132812646Y-87032872D01*
X132814906Y-87031450D01*
X132816206Y-87029950D01*
X132821956Y-87025232D01*
X132869574Y-86977613D01*
X132874292Y-86971863D01*
X132875791Y-86970564D01*
X132877212Y-86968305D01*
X132878902Y-86966247D01*
X132879659Y-86964417D01*
X132883623Y-86958121D01*
X132931242Y-86862883D01*
X132936497Y-86849152D01*
X132936688Y-86846462D01*
X132937719Y-86843974D01*
X132939160Y-86829342D01*
X132939160Y-86591247D01*
X132937719Y-86576615D01*
X132936688Y-86574126D01*
X132936497Y-86571437D01*
X132931242Y-86557706D01*
X132883623Y-86462468D01*
X132879658Y-86456168D01*
X132878901Y-86454341D01*
X132877212Y-86452284D01*
X132875791Y-86450025D01*
X132874292Y-86448725D01*
X132869574Y-86442976D01*
X132821955Y-86395357D01*
X132816205Y-86390638D01*
X132814906Y-86389140D01*
X132812646Y-86387718D01*
X132810590Y-86386030D01*
X132808762Y-86385272D01*
X132802463Y-86381308D01*
X132707225Y-86333689D01*
X132693493Y-86328434D01*
X132690805Y-86328243D01*
X132688316Y-86327212D01*
X132673684Y-86325771D01*
X132435589Y-86325771D01*
X132420957Y-86327212D01*
X132418468Y-86328242D01*
X132415779Y-86328434D01*
X132402048Y-86333689D01*
X132383406Y-86343009D01*
X132408225Y-86094819D01*
X132816541Y-86094819D01*
X132831173Y-86093378D01*
X132858209Y-86082179D01*
X132878901Y-86061487D01*
X132890100Y-86034451D01*
X132890100Y-86019819D01*
X133217732Y-86019819D01*
X133217732Y-87019819D01*
X133219173Y-87034451D01*
X133230372Y-87061487D01*
X133251064Y-87082179D01*
X133278100Y-87093378D01*
X133307364Y-87093378D01*
X133334400Y-87082179D01*
X133355092Y-87061487D01*
X133366291Y-87034451D01*
X133367732Y-87019819D01*
X133367732Y-86618628D01*
X133673684Y-86618628D01*
X133688316Y-86617187D01*
X133690805Y-86616155D01*
X133693493Y-86615965D01*
X133707225Y-86610710D01*
X133802463Y-86563091D01*
X133808762Y-86559126D01*
X133810590Y-86558369D01*
X133812646Y-86556680D01*
X133814906Y-86555259D01*
X133816205Y-86553760D01*
X133821955Y-86549042D01*
X133869574Y-86501423D01*
X133874292Y-86495673D01*
X133875791Y-86494374D01*
X133877212Y-86492114D01*
X133878901Y-86490058D01*
X133879658Y-86488230D01*
X133883623Y-86481931D01*
X133900394Y-86448390D01*
X134170113Y-86448390D01*
X134170113Y-86591247D01*
X134170364Y-86593800D01*
X134170202Y-86594893D01*
X134171011Y-86600366D01*
X134171554Y-86605879D01*
X134171976Y-86606900D01*
X134172352Y-86609437D01*
X134219971Y-86799913D01*
X134220356Y-86800992D01*
X134220395Y-86801532D01*
X134222722Y-86807613D01*
X134224918Y-86813759D01*
X134225240Y-86814194D01*
X134225650Y-86815264D01*
X134273269Y-86910502D01*
X134277232Y-86916798D01*
X134277990Y-86918628D01*
X134279679Y-86920686D01*
X134281101Y-86922945D01*
X134282599Y-86924244D01*
X134287318Y-86929994D01*
X134382556Y-87025233D01*
X134393921Y-87034561D01*
X134396411Y-87035592D01*
X134398446Y-87037357D01*
X134411872Y-87043351D01*
X134554728Y-87090970D01*
X134561983Y-87092619D01*
X134563814Y-87093378D01*
X134566467Y-87093639D01*
X134569065Y-87094230D01*
X134571039Y-87094089D01*
X134578446Y-87094819D01*
X134673684Y-87094819D01*
X134681089Y-87094089D01*
X134683064Y-87094230D01*
X134685661Y-87093639D01*
X134688316Y-87093378D01*
X134690147Y-87092619D01*
X134697401Y-87090970D01*
X134840258Y-87043351D01*
X134853683Y-87037357D01*
X134855718Y-87035591D01*
X134858209Y-87034560D01*
X134869575Y-87025232D01*
X134884368Y-87010439D01*
X135075464Y-87010439D01*
X135077539Y-87039629D01*
X135090625Y-87065802D01*
X135112732Y-87084976D01*
X135140495Y-87094230D01*
X135169685Y-87092155D01*
X135195858Y-87079069D01*
X135215032Y-87056962D01*
X135221026Y-87043536D01*
X135299170Y-86809104D01*
X135667246Y-86809104D01*
X135745390Y-87043536D01*
X135751384Y-87056961D01*
X135770558Y-87079068D01*
X135796731Y-87092155D01*
X135825921Y-87094230D01*
X135853683Y-87084976D01*
X135875791Y-87065802D01*
X135888877Y-87039628D01*
X135890952Y-87010439D01*
X135932607Y-87010439D01*
X135934682Y-87039629D01*
X135947768Y-87065802D01*
X135969875Y-87084976D01*
X135997638Y-87094230D01*
X136026828Y-87092155D01*
X136053001Y-87079069D01*
X136072175Y-87056962D01*
X136078169Y-87043536D01*
X136156313Y-86809104D01*
X136524389Y-86809104D01*
X136602533Y-87043536D01*
X136608527Y-87056961D01*
X136627701Y-87079068D01*
X136653874Y-87092155D01*
X136683064Y-87094230D01*
X136710826Y-87084976D01*
X136732934Y-87065802D01*
X136746020Y-87039628D01*
X136748095Y-87010438D01*
X136744835Y-86996102D01*
X136580551Y-86503249D01*
X136884749Y-86503249D01*
X136885840Y-86506864D01*
X136885840Y-86510640D01*
X136890034Y-86520765D01*
X136893202Y-86531265D01*
X136895593Y-86534188D01*
X136897039Y-86537677D01*
X136904792Y-86545430D01*
X136911733Y-86553913D01*
X136915059Y-86555697D01*
X136917731Y-86558369D01*
X136927858Y-86562564D01*
X136937520Y-86567747D01*
X136941279Y-86568122D01*
X136944768Y-86569568D01*
X136955729Y-86569568D01*
X136966639Y-86570659D01*
X136970255Y-86569568D01*
X136974030Y-86569568D01*
X136984155Y-86565373D01*
X136994655Y-86562206D01*
X136997578Y-86559814D01*
X137001067Y-86558369D01*
X137012432Y-86549042D01*
X137051445Y-86510029D01*
X137119961Y-86475771D01*
X137322646Y-86475771D01*
X137391162Y-86510029D01*
X137421569Y-86540436D01*
X137455827Y-86608952D01*
X137455827Y-86811637D01*
X137421568Y-86880153D01*
X137391161Y-86910561D01*
X137322646Y-86944819D01*
X137119961Y-86944819D01*
X137051445Y-86910561D01*
X137012433Y-86871548D01*
X137001067Y-86862220D01*
X136974031Y-86851021D01*
X136944768Y-86851021D01*
X136917732Y-86862219D01*
X136897039Y-86882912D01*
X136885840Y-86909948D01*
X136885840Y-86939211D01*
X136897038Y-86966247D01*
X136906365Y-86977612D01*
X136953984Y-87025232D01*
X136959733Y-87029950D01*
X136961034Y-87031450D01*
X136963293Y-87032872D01*
X136965350Y-87034560D01*
X136967177Y-87035317D01*
X136973477Y-87039282D01*
X137068715Y-87086901D01*
X137082446Y-87092156D01*
X137085135Y-87092347D01*
X137087624Y-87093378D01*
X137102256Y-87094819D01*
X137340351Y-87094819D01*
X137354983Y-87093378D01*
X137357472Y-87092346D01*
X137360160Y-87092156D01*
X137373892Y-87086901D01*
X137469130Y-87039282D01*
X137475429Y-87035317D01*
X137477257Y-87034560D01*
X137479313Y-87032872D01*
X137481573Y-87031450D01*
X137482873Y-87029950D01*
X137488623Y-87025232D01*
X137536241Y-86977613D01*
X137540959Y-86971863D01*
X137542458Y-86970564D01*
X137543879Y-86968305D01*
X137545569Y-86966247D01*
X137546326Y-86964417D01*
X137550290Y-86958121D01*
X137597909Y-86862883D01*
X137603164Y-86849152D01*
X137603355Y-86846462D01*
X137604386Y-86843974D01*
X137605827Y-86829342D01*
X137605827Y-86591247D01*
X137604386Y-86576615D01*
X137603355Y-86574126D01*
X137603164Y-86571437D01*
X137597909Y-86557706D01*
X137550290Y-86462468D01*
X137546325Y-86456168D01*
X137545568Y-86454341D01*
X137543879Y-86452284D01*
X137542458Y-86450025D01*
X137540959Y-86448725D01*
X137536241Y-86442976D01*
X137488622Y-86395357D01*
X137482872Y-86390638D01*
X137481573Y-86389140D01*
X137479313Y-86387718D01*
X137477257Y-86386030D01*
X137475429Y-86385272D01*
X137469130Y-86381308D01*
X137373892Y-86333689D01*
X137360160Y-86328434D01*
X137357472Y-86328243D01*
X137354983Y-86327212D01*
X137340351Y-86325771D01*
X137102256Y-86325771D01*
X137087624Y-86327212D01*
X137085135Y-86328242D01*
X137082446Y-86328434D01*
X137068715Y-86333689D01*
X137050073Y-86343009D01*
X137074892Y-86094819D01*
X137483208Y-86094819D01*
X137497840Y-86093378D01*
X137524876Y-86082179D01*
X137545568Y-86061487D01*
X137556767Y-86034451D01*
X137556767Y-86005187D01*
X137545568Y-85978151D01*
X137524876Y-85957459D01*
X137497840Y-85946260D01*
X137483208Y-85944819D01*
X137007018Y-85944819D01*
X137001606Y-85945351D01*
X136999778Y-85945169D01*
X136997991Y-85945707D01*
X136992386Y-85946260D01*
X136982259Y-85950454D01*
X136971762Y-85953622D01*
X136968838Y-85956013D01*
X136965350Y-85957459D01*
X136957596Y-85965212D01*
X136949114Y-85972153D01*
X136947329Y-85975479D01*
X136944658Y-85978151D01*
X136940462Y-85988280D01*
X136935280Y-85997940D01*
X136934172Y-86003464D01*
X136933459Y-86005187D01*
X136933459Y-86007023D01*
X136932390Y-86012356D01*
X136884771Y-86488546D01*
X136884749Y-86503249D01*
X136580551Y-86503249D01*
X136411502Y-85996102D01*
X136405508Y-85982676D01*
X136401996Y-85978627D01*
X136399601Y-85973836D01*
X136392497Y-85967674D01*
X136386334Y-85960569D01*
X136381540Y-85958172D01*
X136377493Y-85954662D01*
X136368571Y-85951688D01*
X136360161Y-85947483D01*
X136354816Y-85947103D01*
X136349731Y-85945408D01*
X136340351Y-85946074D01*
X136330971Y-85945408D01*
X136325885Y-85947103D01*
X136320541Y-85947483D01*
X136312133Y-85951687D01*
X136303208Y-85954662D01*
X136299157Y-85958175D01*
X136294368Y-85960570D01*
X136288209Y-85967670D01*
X136281101Y-85973836D01*
X136278704Y-85978629D01*
X136275194Y-85982677D01*
X136269200Y-85996102D01*
X135935867Y-86996102D01*
X135932607Y-87010439D01*
X135890952Y-87010439D01*
X135890952Y-87010438D01*
X135887692Y-86996102D01*
X135554359Y-85996102D01*
X135548365Y-85982676D01*
X135544853Y-85978627D01*
X135542458Y-85973836D01*
X135535354Y-85967674D01*
X135529191Y-85960569D01*
X135524397Y-85958172D01*
X135520350Y-85954662D01*
X135511428Y-85951688D01*
X135503018Y-85947483D01*
X135497673Y-85947103D01*
X135492588Y-85945408D01*
X135483208Y-85946074D01*
X135473828Y-85945408D01*
X135468742Y-85947103D01*
X135463398Y-85947483D01*
X135454990Y-85951687D01*
X135446065Y-85954662D01*
X135442014Y-85958175D01*
X135437225Y-85960570D01*
X135431066Y-85967670D01*
X135423958Y-85973836D01*
X135421561Y-85978629D01*
X135418051Y-85982677D01*
X135412057Y-85996102D01*
X135078724Y-86996102D01*
X135075464Y-87010439D01*
X134884368Y-87010439D01*
X134917193Y-86977613D01*
X134926521Y-86966247D01*
X134933802Y-86948668D01*
X134937719Y-86939212D01*
X134939160Y-86924580D01*
X134939160Y-86591247D01*
X134937719Y-86576615D01*
X134926520Y-86549579D01*
X134905828Y-86528887D01*
X134878792Y-86517688D01*
X134864160Y-86516247D01*
X134673684Y-86516247D01*
X134659052Y-86517688D01*
X134632016Y-86528887D01*
X134611324Y-86549579D01*
X134600125Y-86576615D01*
X134600125Y-86605879D01*
X134611324Y-86632915D01*
X134632016Y-86653607D01*
X134659052Y-86664806D01*
X134673684Y-86666247D01*
X134789160Y-86666247D01*
X134789160Y-86893514D01*
X134776027Y-86906647D01*
X134661514Y-86944819D01*
X134590616Y-86944819D01*
X134476103Y-86906648D01*
X134401990Y-86832534D01*
X134363496Y-86755547D01*
X134320113Y-86582013D01*
X134320113Y-86457624D01*
X134363496Y-86284090D01*
X134401990Y-86207103D01*
X134476103Y-86132990D01*
X134590616Y-86094819D01*
X134703598Y-86094819D01*
X134783000Y-86134520D01*
X134796731Y-86139775D01*
X134825921Y-86141849D01*
X134853683Y-86132595D01*
X134875790Y-86113422D01*
X134888878Y-86087247D01*
X134890952Y-86058057D01*
X134881698Y-86030296D01*
X134862525Y-86008188D01*
X134850082Y-86000356D01*
X134754844Y-85952737D01*
X134741112Y-85947482D01*
X134738424Y-85947291D01*
X134735935Y-85946260D01*
X134721303Y-85944819D01*
X134578446Y-85944819D01*
X134571039Y-85945548D01*
X134569065Y-85945408D01*
X134566467Y-85945998D01*
X134563814Y-85946260D01*
X134561983Y-85947018D01*
X134554728Y-85948668D01*
X134411872Y-85996287D01*
X134398446Y-86002281D01*
X134396411Y-86004045D01*
X134393921Y-86005077D01*
X134382556Y-86014405D01*
X134287318Y-86109643D01*
X134282599Y-86115392D01*
X134281101Y-86116692D01*
X134279679Y-86118951D01*
X134277991Y-86121008D01*
X134277233Y-86122835D01*
X134273269Y-86129135D01*
X134225650Y-86224373D01*
X134225240Y-86225442D01*
X134224918Y-86225878D01*
X134222732Y-86231997D01*
X134220395Y-86238105D01*
X134220356Y-86238644D01*
X134219971Y-86239724D01*
X134172352Y-86430200D01*
X134171976Y-86432736D01*
X134171554Y-86433758D01*
X134171011Y-86439270D01*
X134170202Y-86444744D01*
X134170364Y-86445836D01*
X134170113Y-86448390D01*
X133900394Y-86448390D01*
X133931242Y-86386693D01*
X133936497Y-86372962D01*
X133936688Y-86370272D01*
X133937719Y-86367784D01*
X133939160Y-86353152D01*
X133939160Y-86210295D01*
X133937719Y-86195663D01*
X133936688Y-86193174D01*
X133936497Y-86190485D01*
X133931242Y-86176754D01*
X133883623Y-86081516D01*
X133879658Y-86075216D01*
X133878901Y-86073389D01*
X133877212Y-86071332D01*
X133875791Y-86069073D01*
X133874292Y-86067773D01*
X133869574Y-86062024D01*
X133821955Y-86014405D01*
X133816205Y-86009686D01*
X133814906Y-86008188D01*
X133812646Y-86006766D01*
X133810590Y-86005078D01*
X133808762Y-86004320D01*
X133802463Y-86000356D01*
X133707225Y-85952737D01*
X133693493Y-85947482D01*
X133690805Y-85947291D01*
X133688316Y-85946260D01*
X133673684Y-85944819D01*
X133292732Y-85944819D01*
X133278100Y-85946260D01*
X133251064Y-85957459D01*
X133230372Y-85978151D01*
X133219173Y-86005187D01*
X133217732Y-86019819D01*
X132890100Y-86019819D01*
X132890100Y-86005187D01*
X132878901Y-85978151D01*
X132858209Y-85957459D01*
X132831173Y-85946260D01*
X132816541Y-85944819D01*
X132340351Y-85944819D01*
X132334939Y-85945351D01*
X132333111Y-85945169D01*
X132331324Y-85945707D01*
X132325719Y-85946260D01*
X132315592Y-85950454D01*
X132305095Y-85953622D01*
X132302171Y-85956013D01*
X132298683Y-85957459D01*
X132290929Y-85965212D01*
X132282447Y-85972153D01*
X132280662Y-85975479D01*
X132277991Y-85978151D01*
X132273795Y-85988280D01*
X132268613Y-85997940D01*
X132267505Y-86003464D01*
X132266792Y-86005187D01*
X132266792Y-86007023D01*
X132265723Y-86012356D01*
X132218104Y-86488546D01*
X132218082Y-86503249D01*
X131701065Y-86503249D01*
X131701065Y-86019819D01*
X131701059Y-86019766D01*
X131701065Y-86019740D01*
X131701049Y-86019663D01*
X131699624Y-86005187D01*
X131696782Y-85998326D01*
X131695326Y-85991045D01*
X131691236Y-85984938D01*
X131688425Y-85978151D01*
X131683176Y-85972902D01*
X131679043Y-85966730D01*
X131672926Y-85962652D01*
X131667733Y-85957459D01*
X131660873Y-85954617D01*
X131654694Y-85950498D01*
X131647485Y-85949072D01*
X131640697Y-85946260D01*
X131633270Y-85946260D01*
X131625986Y-85944819D01*
X131618781Y-85946260D01*
X131611433Y-85946260D01*
X131604572Y-85949101D01*
X131597292Y-85950558D01*
X131591186Y-85954646D01*
X131584397Y-85957459D01*
X131579146Y-85962709D01*
X131572977Y-85966841D01*
X131563756Y-85978099D01*
X131563705Y-85978151D01*
X131563695Y-85978173D01*
X131563661Y-85978216D01*
X131472541Y-86114896D01*
X131391162Y-86196275D01*
X131306810Y-86238451D01*
X131294367Y-86246283D01*
X131275194Y-86268391D01*
X131265940Y-86296152D01*
X131010552Y-86296152D01*
X130984540Y-86192105D01*
X130984154Y-86191025D01*
X130984116Y-86190485D01*
X130981785Y-86184395D01*
X130979593Y-86178259D01*
X130979270Y-86177823D01*
X130978861Y-86176754D01*
X130931242Y-86081516D01*
X130927277Y-86075216D01*
X130926520Y-86073389D01*
X130924831Y-86071332D01*
X130923410Y-86069073D01*
X130921911Y-86067773D01*
X130917193Y-86062024D01*
X130869574Y-86014405D01*
X130863824Y-86009686D01*
X130862525Y-86008188D01*
X130860265Y-86006766D01*
X130858209Y-86005078D01*
X130856381Y-86004320D01*
X130850082Y-86000356D01*
X130754844Y-85952737D01*
X130741112Y-85947482D01*
X130738424Y-85947291D01*
X130735935Y-85946260D01*
X130721303Y-85944819D01*
X130626065Y-85944819D01*
X130611433Y-85946260D01*
X130608944Y-85947290D01*
X130606255Y-85947482D01*
X130592524Y-85952737D01*
X130497286Y-86000356D01*
X130490986Y-86004320D01*
X130489159Y-86005078D01*
X130487102Y-86006766D01*
X130484843Y-86008188D01*
X130483543Y-86009686D01*
X130477794Y-86014405D01*
X130430175Y-86062024D01*
X130425456Y-86067773D01*
X130423958Y-86069073D01*
X130422536Y-86071332D01*
X130420848Y-86073389D01*
X130420090Y-86075216D01*
X130416126Y-86081516D01*
X130368507Y-86176754D01*
X130368097Y-86177823D01*
X130367775Y-86178259D01*
X130365579Y-86184404D01*
X130363252Y-86190486D01*
X130363213Y-86191025D01*
X130362828Y-86192105D01*
X130315209Y-86382581D01*
X130314833Y-86385117D01*
X130314411Y-86386139D01*
X130313868Y-86391651D01*
X130313059Y-86397125D01*
X130313221Y-86398217D01*
X130312970Y-86400771D01*
X129891541Y-86400771D01*
X129891541Y-86094819D01*
X130102255Y-86094819D01*
X130116887Y-86093378D01*
X130143923Y-86082179D01*
X130164615Y-86061487D01*
X130175814Y-86034451D01*
X130175814Y-86005187D01*
X130164615Y-85978151D01*
X130143923Y-85957459D01*
X130116887Y-85946260D01*
X130102255Y-85944819D01*
X129530827Y-85944819D01*
X129516195Y-85946260D01*
X129489159Y-85957459D01*
X129468467Y-85978151D01*
X129457268Y-86005187D01*
X129271052Y-86005187D01*
X129259853Y-85978151D01*
X129239161Y-85957459D01*
X129212125Y-85946260D01*
X129182861Y-85946260D01*
X129155825Y-85957459D01*
X129135133Y-85978151D01*
X129123934Y-86005187D01*
X129122493Y-86019819D01*
X129122493Y-86737402D01*
X128691183Y-85982609D01*
X128688994Y-85979525D01*
X128688425Y-85978151D01*
X128687025Y-85976751D01*
X128682673Y-85970619D01*
X128674783Y-85964509D01*
X128667733Y-85957459D01*
X128663316Y-85955629D01*
X128659536Y-85952702D01*
X128649912Y-85950077D01*
X128640697Y-85946260D01*
X128635916Y-85946260D01*
X128631304Y-85945002D01*
X128621407Y-85946260D01*
X128611433Y-85946260D01*
X128607017Y-85948089D01*
X128602274Y-85948692D01*
X128593609Y-85953642D01*
X128584397Y-85957459D01*
X128581018Y-85960837D01*
X128576865Y-85963211D01*
X128570755Y-85971100D01*
X128563705Y-85978151D01*
X128561875Y-85982567D01*
X128558948Y-85986348D01*
X128556323Y-85995971D01*
X128552506Y-86005187D01*
X128551769Y-86012669D01*
X128551248Y-86014580D01*
X128551435Y-86016055D01*
X128551065Y-86019819D01*
X128038455Y-86019819D01*
X128030549Y-85996102D01*
X128024555Y-85982676D01*
X128021043Y-85978627D01*
X128018648Y-85973836D01*
X128011544Y-85967674D01*
X128005381Y-85960569D01*
X128000587Y-85958172D01*
X127996540Y-85954662D01*
X127987618Y-85951688D01*
X127979208Y-85947483D01*
X127973863Y-85947103D01*
X127968778Y-85945408D01*
X127959398Y-85946074D01*
X127950018Y-85945408D01*
X127944932Y-85947103D01*
X127939588Y-85947483D01*
X127931180Y-85951687D01*
X127922255Y-85954662D01*
X127918204Y-85958175D01*
X127913415Y-85960570D01*
X127907256Y-85967670D01*
X127900148Y-85973836D01*
X127897751Y-85978629D01*
X127894241Y-85982677D01*
X127888247Y-85996102D01*
X127554914Y-86996102D01*
X127551654Y-87010439D01*
X127217701Y-87010439D01*
X127298146Y-86929993D01*
X127302863Y-86924244D01*
X127304362Y-86922945D01*
X127305783Y-86920686D01*
X127307473Y-86918628D01*
X127308230Y-86916798D01*
X127312194Y-86910502D01*
X127359813Y-86815264D01*
X127360222Y-86814194D01*
X127360545Y-86813759D01*
X127362737Y-86807622D01*
X127365068Y-86801533D01*
X127365106Y-86800992D01*
X127365492Y-86799913D01*
X127413111Y-86609437D01*
X127413486Y-86606900D01*
X127413909Y-86605879D01*
X127414451Y-86600366D01*
X127415261Y-86594893D01*
X127415098Y-86593800D01*
X127415350Y-86591247D01*
X127415350Y-86448390D01*
X127415098Y-86445836D01*
X127415261Y-86444744D01*
X127414451Y-86439270D01*
X127413909Y-86433758D01*
X127413486Y-86432736D01*
X127413111Y-86430200D01*
X127365492Y-86239724D01*
X127365106Y-86238644D01*
X127365068Y-86238104D01*
X127362731Y-86231997D01*
X127360545Y-86225878D01*
X127360222Y-86225442D01*
X127359813Y-86224373D01*
X127312194Y-86129135D01*
X127308231Y-86122840D01*
X127307473Y-86121008D01*
X127305781Y-86118946D01*
X127304362Y-86116692D01*
X127302865Y-86115393D01*
X127298145Y-86109643D01*
X127202907Y-86014405D01*
X127191542Y-86005078D01*
X127189051Y-86004046D01*
X127187016Y-86002281D01*
X127173591Y-85996287D01*
X127030734Y-85948668D01*
X127023480Y-85947018D01*
X127021649Y-85946260D01*
X127018994Y-85945998D01*
X127016397Y-85945408D01*
X127014422Y-85945548D01*
X127007017Y-85944819D01*
X126768922Y-85944819D01*
X126754290Y-85946260D01*
X126727254Y-85957459D01*
X126706562Y-85978151D01*
X126695363Y-86005187D01*
X126693922Y-86019819D01*
X126303559Y-86019819D01*
X126298145Y-86014405D01*
X126292395Y-86009686D01*
X126291096Y-86008188D01*
X126288836Y-86006766D01*
X126286780Y-86005078D01*
X126284952Y-86004320D01*
X126278653Y-86000356D01*
X126183415Y-85952737D01*
X126169683Y-85947482D01*
X126166995Y-85947291D01*
X126164506Y-85946260D01*
X126149874Y-85944819D01*
X125768922Y-85944819D01*
X125754290Y-85946260D01*
X125727254Y-85957459D01*
X125706562Y-85978151D01*
X125695363Y-86005187D01*
X125693922Y-86019819D01*
X125255940Y-86019819D01*
X125250526Y-86014405D01*
X125244776Y-86009686D01*
X125243477Y-86008188D01*
X125241217Y-86006766D01*
X125239161Y-86005078D01*
X125237333Y-86004320D01*
X125231034Y-86000356D01*
X125135796Y-85952737D01*
X125122064Y-85947482D01*
X125119376Y-85947291D01*
X125116887Y-85946260D01*
X125102255Y-85944819D01*
X124768922Y-85944819D01*
X124754290Y-85946260D01*
X124727254Y-85957459D01*
X124706562Y-85978151D01*
X124695363Y-86005187D01*
X124693922Y-86019819D01*
X124181312Y-86019819D01*
X124173406Y-85996102D01*
X124167412Y-85982676D01*
X124163900Y-85978627D01*
X124161505Y-85973836D01*
X124154401Y-85967674D01*
X124148238Y-85960569D01*
X124143444Y-85958172D01*
X124139397Y-85954662D01*
X124130475Y-85951688D01*
X124122065Y-85947483D01*
X124116720Y-85947103D01*
X124111635Y-85945408D01*
X124102255Y-85946074D01*
X124092875Y-85945408D01*
X124087789Y-85947103D01*
X124082445Y-85947483D01*
X124074037Y-85951687D01*
X124065112Y-85954662D01*
X124061061Y-85958175D01*
X124056272Y-85960570D01*
X124050113Y-85967670D01*
X124043005Y-85973836D01*
X124040608Y-85978629D01*
X124037098Y-85982677D01*
X124031104Y-85996102D01*
X123697771Y-86996102D01*
X123694511Y-87010439D01*
X123583400Y-87010439D01*
X123583400Y-85833708D01*
X137716938Y-85833708D01*
X137716938Y-87205930D01*
G37*
X152589160Y-77872200D02*
X152732017Y-77919819D01*
X152732017Y-77919819D02*
X152970112Y-77919819D01*
X152970112Y-77919819D02*
X153065350Y-77872200D01*
X153065350Y-77872200D02*
X153112969Y-77824580D01*
X153112969Y-77824580D02*
X153160588Y-77729342D01*
X153160588Y-77729342D02*
X153160588Y-77634104D01*
X153160588Y-77634104D02*
X153112969Y-77538866D01*
X153112969Y-77538866D02*
X153065350Y-77491247D01*
X153065350Y-77491247D02*
X152970112Y-77443628D01*
X152970112Y-77443628D02*
X152779636Y-77396009D01*
X152779636Y-77396009D02*
X152684398Y-77348390D01*
X152684398Y-77348390D02*
X152636779Y-77300771D01*
X152636779Y-77300771D02*
X152589160Y-77205533D01*
X152589160Y-77205533D02*
X152589160Y-77110295D01*
X152589160Y-77110295D02*
X152636779Y-77015057D01*
X152636779Y-77015057D02*
X152684398Y-76967438D01*
X152684398Y-76967438D02*
X152779636Y-76919819D01*
X152779636Y-76919819D02*
X153017731Y-76919819D01*
X153017731Y-76919819D02*
X153160588Y-76967438D01*
X153589160Y-77919819D02*
X153589160Y-76919819D01*
X153589160Y-76919819D02*
X153827255Y-76919819D01*
X153827255Y-76919819D02*
X153970112Y-76967438D01*
X153970112Y-76967438D02*
X154065350Y-77062676D01*
X154065350Y-77062676D02*
X154112969Y-77157914D01*
X154112969Y-77157914D02*
X154160588Y-77348390D01*
X154160588Y-77348390D02*
X154160588Y-77491247D01*
X154160588Y-77491247D02*
X154112969Y-77681723D01*
X154112969Y-77681723D02*
X154065350Y-77776961D01*
X154065350Y-77776961D02*
X153970112Y-77872200D01*
X153970112Y-77872200D02*
X153827255Y-77919819D01*
X153827255Y-77919819D02*
X153589160Y-77919819D01*
X155922493Y-77824580D02*
X155874874Y-77872200D01*
X155874874Y-77872200D02*
X155732017Y-77919819D01*
X155732017Y-77919819D02*
X155636779Y-77919819D01*
X155636779Y-77919819D02*
X155493922Y-77872200D01*
X155493922Y-77872200D02*
X155398684Y-77776961D01*
X155398684Y-77776961D02*
X155351065Y-77681723D01*
X155351065Y-77681723D02*
X155303446Y-77491247D01*
X155303446Y-77491247D02*
X155303446Y-77348390D01*
X155303446Y-77348390D02*
X155351065Y-77157914D01*
X155351065Y-77157914D02*
X155398684Y-77062676D01*
X155398684Y-77062676D02*
X155493922Y-76967438D01*
X155493922Y-76967438D02*
X155636779Y-76919819D01*
X155636779Y-76919819D02*
X155732017Y-76919819D01*
X155732017Y-76919819D02*
X155874874Y-76967438D01*
X155874874Y-76967438D02*
X155922493Y-77015057D01*
X156303446Y-77634104D02*
X156779636Y-77634104D01*
X156208208Y-77919819D02*
X156541541Y-76919819D01*
X156541541Y-76919819D02*
X156874874Y-77919819D01*
X157779636Y-77919819D02*
X157446303Y-77443628D01*
X157208208Y-77919819D02*
X157208208Y-76919819D01*
X157208208Y-76919819D02*
X157589160Y-76919819D01*
X157589160Y-76919819D02*
X157684398Y-76967438D01*
X157684398Y-76967438D02*
X157732017Y-77015057D01*
X157732017Y-77015057D02*
X157779636Y-77110295D01*
X157779636Y-77110295D02*
X157779636Y-77253152D01*
X157779636Y-77253152D02*
X157732017Y-77348390D01*
X157732017Y-77348390D02*
X157684398Y-77396009D01*
X157684398Y-77396009D02*
X157589160Y-77443628D01*
X157589160Y-77443628D02*
X157208208Y-77443628D01*
X158208208Y-77919819D02*
X158208208Y-76919819D01*
X158208208Y-76919819D02*
X158446303Y-76919819D01*
X158446303Y-76919819D02*
X158589160Y-76967438D01*
X158589160Y-76967438D02*
X158684398Y-77062676D01*
X158684398Y-77062676D02*
X158732017Y-77157914D01*
X158732017Y-77157914D02*
X158779636Y-77348390D01*
X158779636Y-77348390D02*
X158779636Y-77491247D01*
X158779636Y-77491247D02*
X158732017Y-77681723D01*
X158732017Y-77681723D02*
X158684398Y-77776961D01*
X158684398Y-77776961D02*
X158589160Y-77872200D01*
X158589160Y-77872200D02*
X158446303Y-77919819D01*
X158446303Y-77919819D02*
X158208208Y-77919819D01*
X160303446Y-77396009D02*
X159970113Y-77396009D01*
X159970113Y-77919819D02*
X159970113Y-76919819D01*
X159970113Y-76919819D02*
X160446303Y-76919819D01*
X160779637Y-77634104D02*
X161255827Y-77634104D01*
X160684399Y-77919819D02*
X161017732Y-76919819D01*
X161017732Y-76919819D02*
X161351065Y-77919819D01*
X162255827Y-77824580D02*
X162208208Y-77872200D01*
X162208208Y-77872200D02*
X162065351Y-77919819D01*
X162065351Y-77919819D02*
X161970113Y-77919819D01*
X161970113Y-77919819D02*
X161827256Y-77872200D01*
X161827256Y-77872200D02*
X161732018Y-77776961D01*
X161732018Y-77776961D02*
X161684399Y-77681723D01*
X161684399Y-77681723D02*
X161636780Y-77491247D01*
X161636780Y-77491247D02*
X161636780Y-77348390D01*
X161636780Y-77348390D02*
X161684399Y-77157914D01*
X161684399Y-77157914D02*
X161732018Y-77062676D01*
X161732018Y-77062676D02*
X161827256Y-76967438D01*
X161827256Y-76967438D02*
X161970113Y-76919819D01*
X161970113Y-76919819D02*
X162065351Y-76919819D01*
X162065351Y-76919819D02*
X162208208Y-76967438D01*
X162208208Y-76967438D02*
X162255827Y-77015057D01*
X162684399Y-77919819D02*
X162684399Y-76919819D01*
X163160589Y-77919819D02*
X163160589Y-76919819D01*
X163160589Y-76919819D02*
X163732017Y-77919819D01*
X163732017Y-77919819D02*
X163732017Y-76919819D01*
X164732017Y-76967438D02*
X164636779Y-76919819D01*
X164636779Y-76919819D02*
X164493922Y-76919819D01*
X164493922Y-76919819D02*
X164351065Y-76967438D01*
X164351065Y-76967438D02*
X164255827Y-77062676D01*
X164255827Y-77062676D02*
X164208208Y-77157914D01*
X164208208Y-77157914D02*
X164160589Y-77348390D01*
X164160589Y-77348390D02*
X164160589Y-77491247D01*
X164160589Y-77491247D02*
X164208208Y-77681723D01*
X164208208Y-77681723D02*
X164255827Y-77776961D01*
X164255827Y-77776961D02*
X164351065Y-77872200D01*
X164351065Y-77872200D02*
X164493922Y-77919819D01*
X164493922Y-77919819D02*
X164589160Y-77919819D01*
X164589160Y-77919819D02*
X164732017Y-77872200D01*
X164732017Y-77872200D02*
X164779636Y-77824580D01*
X164779636Y-77824580D02*
X164779636Y-77491247D01*
X164779636Y-77491247D02*
X164589160Y-77491247D01*
X165970113Y-76919819D02*
X165970113Y-77729342D01*
X165970113Y-77729342D02*
X166017732Y-77824580D01*
X166017732Y-77824580D02*
X166065351Y-77872200D01*
X166065351Y-77872200D02*
X166160589Y-77919819D01*
X166160589Y-77919819D02*
X166351065Y-77919819D01*
X166351065Y-77919819D02*
X166446303Y-77872200D01*
X166446303Y-77872200D02*
X166493922Y-77824580D01*
X166493922Y-77824580D02*
X166541541Y-77729342D01*
X166541541Y-77729342D02*
X166541541Y-76919819D01*
X167017732Y-77919819D02*
X167017732Y-76919819D01*
X167017732Y-76919819D02*
X167398684Y-76919819D01*
X167398684Y-76919819D02*
X167493922Y-76967438D01*
X167493922Y-76967438D02*
X167541541Y-77015057D01*
X167541541Y-77015057D02*
X167589160Y-77110295D01*
X167589160Y-77110295D02*
X167589160Y-77253152D01*
X167589160Y-77253152D02*
X167541541Y-77348390D01*
X167541541Y-77348390D02*
X167493922Y-77396009D01*
X167493922Y-77396009D02*
X167398684Y-77443628D01*
X167398684Y-77443628D02*
X167017732Y-77443628D01*
X147050000Y-76350000D02*
X167900000Y-76350000D01*
X167900000Y-93025000D01*
X147050000Y-93025000D01*
X147050000Y-76350000D01*
X121384523Y-83629819D02*
X120908333Y-83629819D01*
X120908333Y-83629819D02*
X120860714Y-84106009D01*
X120860714Y-84106009D02*
X120908333Y-84058390D01*
X120908333Y-84058390D02*
X121003571Y-84010771D01*
X121003571Y-84010771D02*
X121241666Y-84010771D01*
X121241666Y-84010771D02*
X121336904Y-84058390D01*
X121336904Y-84058390D02*
X121384523Y-84106009D01*
X121384523Y-84106009D02*
X121432142Y-84201247D01*
X121432142Y-84201247D02*
X121432142Y-84439342D01*
X121432142Y-84439342D02*
X121384523Y-84534580D01*
X121384523Y-84534580D02*
X121336904Y-84582200D01*
X121336904Y-84582200D02*
X121241666Y-84629819D01*
X121241666Y-84629819D02*
X121003571Y-84629819D01*
X121003571Y-84629819D02*
X120908333Y-84582200D01*
X120908333Y-84582200D02*
X120860714Y-84534580D01*
X121717857Y-83629819D02*
X122051190Y-84629819D01*
X122051190Y-84629819D02*
X122384523Y-83629819D01*
X120780357Y-80904819D02*
X121113690Y-81904819D01*
X121113690Y-81904819D02*
X121447023Y-80904819D01*
X121970833Y-80904819D02*
X122161309Y-80904819D01*
X122161309Y-80904819D02*
X122256547Y-80952438D01*
X122256547Y-80952438D02*
X122351785Y-81047676D01*
X122351785Y-81047676D02*
X122399404Y-81238152D01*
X122399404Y-81238152D02*
X122399404Y-81571485D01*
X122399404Y-81571485D02*
X122351785Y-81761961D01*
X122351785Y-81761961D02*
X122256547Y-81857200D01*
X122256547Y-81857200D02*
X122161309Y-81904819D01*
X122161309Y-81904819D02*
X121970833Y-81904819D01*
X121970833Y-81904819D02*
X121875595Y-81857200D01*
X121875595Y-81857200D02*
X121780357Y-81761961D01*
X121780357Y-81761961D02*
X121732738Y-81571485D01*
X121732738Y-81571485D02*
X121732738Y-81238152D01*
X121732738Y-81238152D02*
X121780357Y-81047676D01*
X121780357Y-81047676D02*
X121875595Y-80952438D01*
X121875595Y-80952438D02*
X121970833Y-80904819D01*
X120938095Y-78477438D02*
X120842857Y-78429819D01*
X120842857Y-78429819D02*
X120700000Y-78429819D01*
X120700000Y-78429819D02*
X120557143Y-78477438D01*
X120557143Y-78477438D02*
X120461905Y-78572676D01*
X120461905Y-78572676D02*
X120414286Y-78667914D01*
X120414286Y-78667914D02*
X120366667Y-78858390D01*
X120366667Y-78858390D02*
X120366667Y-79001247D01*
X120366667Y-79001247D02*
X120414286Y-79191723D01*
X120414286Y-79191723D02*
X120461905Y-79286961D01*
X120461905Y-79286961D02*
X120557143Y-79382200D01*
X120557143Y-79382200D02*
X120700000Y-79429819D01*
X120700000Y-79429819D02*
X120795238Y-79429819D01*
X120795238Y-79429819D02*
X120938095Y-79382200D01*
X120938095Y-79382200D02*
X120985714Y-79334580D01*
X120985714Y-79334580D02*
X120985714Y-79001247D01*
X120985714Y-79001247D02*
X120795238Y-79001247D01*
X121414286Y-79429819D02*
X121414286Y-78429819D01*
X121414286Y-78429819D02*
X121985714Y-79429819D01*
X121985714Y-79429819D02*
X121985714Y-78429819D01*
X122461905Y-79429819D02*
X122461905Y-78429819D01*
X122461905Y-78429819D02*
X122700000Y-78429819D01*
X122700000Y-78429819D02*
X122842857Y-78477438D01*
X122842857Y-78477438D02*
X122938095Y-78572676D01*
X122938095Y-78572676D02*
X122985714Y-78667914D01*
X122985714Y-78667914D02*
X123033333Y-78858390D01*
X123033333Y-78858390D02*
X123033333Y-79001247D01*
X123033333Y-79001247D02*
X122985714Y-79191723D01*
X122985714Y-79191723D02*
X122938095Y-79286961D01*
X122938095Y-79286961D02*
X122842857Y-79382200D01*
X122842857Y-79382200D02*
X122700000Y-79429819D01*
X122700000Y-79429819D02*
X122461905Y-79429819D01*
X109719445Y-51016579D02*
X109719445Y-50194379D01*
X110110969Y-51016579D02*
X110110969Y-50194379D01*
X110110969Y-50194379D02*
X110580798Y-51016579D01*
X110580798Y-51016579D02*
X110580798Y-50194379D01*
X110854864Y-50194379D02*
X111324693Y-50194379D01*
X111089779Y-51016579D02*
X111089779Y-50194379D01*
X112107740Y-50194379D02*
X112577569Y-50194379D01*
X112342655Y-51016579D02*
X112342655Y-50194379D01*
X112851635Y-50585903D02*
X113125702Y-50585903D01*
X113243159Y-51016579D02*
X112851635Y-51016579D01*
X112851635Y-51016579D02*
X112851635Y-50194379D01*
X112851635Y-50194379D02*
X113243159Y-50194379D01*
X113595530Y-51016579D02*
X113595530Y-50194379D01*
X113595530Y-50194379D02*
X113869597Y-50781665D01*
X113869597Y-50781665D02*
X114143664Y-50194379D01*
X114143664Y-50194379D02*
X114143664Y-51016579D01*
X114535187Y-51016579D02*
X114535187Y-50194379D01*
X114535187Y-50194379D02*
X114848406Y-50194379D01*
X114848406Y-50194379D02*
X114926711Y-50233531D01*
X114926711Y-50233531D02*
X114965864Y-50272684D01*
X114965864Y-50272684D02*
X115005016Y-50350988D01*
X115005016Y-50350988D02*
X115005016Y-50468446D01*
X115005016Y-50468446D02*
X114965864Y-50546750D01*
X114965864Y-50546750D02*
X114926711Y-50585903D01*
X114926711Y-50585903D02*
X114848406Y-50625055D01*
X114848406Y-50625055D02*
X114535187Y-50625055D01*
G36*
X146393542Y-75104077D02*
G01*
X146465484Y-75176019D01*
X146505826Y-75337386D01*
X146505826Y-75652251D01*
X146465484Y-75813617D01*
X146393541Y-75885561D01*
X146325026Y-75919819D01*
X146169960Y-75919819D01*
X146101444Y-75885561D01*
X146029501Y-75813617D01*
X145989160Y-75652251D01*
X145989160Y-75337386D01*
X146029501Y-75176019D01*
X146101444Y-75104077D01*
X146169960Y-75069819D01*
X146325026Y-75069819D01*
X146393542Y-75104077D01*
G37*
G36*
X151203066Y-75104077D02*
G01*
X151275008Y-75176019D01*
X151315350Y-75337386D01*
X151315350Y-75652251D01*
X151275008Y-75813617D01*
X151203065Y-75885561D01*
X151134550Y-75919819D01*
X150979484Y-75919819D01*
X150910968Y-75885561D01*
X150839025Y-75813617D01*
X150798684Y-75652251D01*
X150798684Y-75337386D01*
X150839025Y-75176019D01*
X150910968Y-75104077D01*
X150979484Y-75069819D01*
X151134550Y-75069819D01*
X151203066Y-75104077D01*
G37*
G36*
X147441161Y-75104077D02*
G01*
X147471568Y-75134484D01*
X147505826Y-75203000D01*
X147505826Y-75310447D01*
X147471568Y-75378963D01*
X147441161Y-75409370D01*
X147372645Y-75443628D01*
X147084398Y-75443628D01*
X147084398Y-75069819D01*
X147372645Y-75069819D01*
X147441161Y-75104077D01*
G37*
G36*
X152576461Y-76180930D02*
G01*
X145728049Y-76180930D01*
X145728049Y-75328152D01*
X145839160Y-75328152D01*
X145839160Y-75661485D01*
X145839411Y-75664038D01*
X145839249Y-75665131D01*
X145840058Y-75670604D01*
X145840601Y-75676117D01*
X145841023Y-75677138D01*
X145841399Y-75679675D01*
X145889018Y-75870151D01*
X145893965Y-75883997D01*
X145897284Y-75888476D01*
X145899418Y-75893628D01*
X145908746Y-75904994D01*
X146003984Y-76000233D01*
X146009734Y-76004953D01*
X146011033Y-76006450D01*
X146013287Y-76007869D01*
X146015349Y-76009561D01*
X146017181Y-76010319D01*
X146023476Y-76014282D01*
X146118714Y-76061901D01*
X146132445Y-76067156D01*
X146135134Y-76067347D01*
X146137623Y-76068378D01*
X146152255Y-76069819D01*
X146342731Y-76069819D01*
X146357363Y-76068378D01*
X146359852Y-76067346D01*
X146362540Y-76067156D01*
X146376272Y-76061901D01*
X146471510Y-76014282D01*
X146477809Y-76010317D01*
X146479637Y-76009560D01*
X146481693Y-76007871D01*
X146483953Y-76006450D01*
X146485252Y-76004951D01*
X146491002Y-76000233D01*
X146586241Y-75904993D01*
X146595568Y-75893628D01*
X146597701Y-75888476D01*
X146601021Y-75883997D01*
X146605968Y-75870151D01*
X146653587Y-75679675D01*
X146653962Y-75677138D01*
X146654385Y-75676117D01*
X146654927Y-75670604D01*
X146655737Y-75665131D01*
X146655574Y-75664038D01*
X146655826Y-75661485D01*
X146655826Y-75328152D01*
X146655574Y-75325598D01*
X146655737Y-75324506D01*
X146654927Y-75319032D01*
X146654385Y-75313520D01*
X146653962Y-75312498D01*
X146653587Y-75309962D01*
X146605968Y-75119486D01*
X146601021Y-75105640D01*
X146597702Y-75101161D01*
X146595568Y-75096008D01*
X146586240Y-75084643D01*
X146496416Y-74994819D01*
X146934398Y-74994819D01*
X146934398Y-75994819D01*
X146935839Y-76009451D01*
X146947038Y-76036487D01*
X146967730Y-76057179D01*
X146994766Y-76068378D01*
X147024030Y-76068378D01*
X147051066Y-76057179D01*
X147071758Y-76036487D01*
X147082957Y-76009451D01*
X147084398Y-75994819D01*
X147084398Y-75593628D01*
X147390350Y-75593628D01*
X147404982Y-75592187D01*
X147407471Y-75591155D01*
X147410159Y-75590965D01*
X147423891Y-75585710D01*
X147519129Y-75538091D01*
X147525428Y-75534126D01*
X147527256Y-75533369D01*
X147529312Y-75531680D01*
X147531572Y-75530259D01*
X147532871Y-75528760D01*
X147538621Y-75524042D01*
X147586240Y-75476423D01*
X147590958Y-75470673D01*
X147592457Y-75469374D01*
X147593878Y-75467114D01*
X147595567Y-75465058D01*
X147596324Y-75463230D01*
X147600289Y-75456931D01*
X147647908Y-75361693D01*
X147653163Y-75347962D01*
X147653354Y-75345272D01*
X147654385Y-75342784D01*
X147655826Y-75328152D01*
X147655826Y-75185295D01*
X147654385Y-75170663D01*
X147653354Y-75168174D01*
X147653163Y-75165485D01*
X147647908Y-75151754D01*
X147600289Y-75056516D01*
X147596324Y-75050216D01*
X147595567Y-75048389D01*
X147593878Y-75046332D01*
X147592457Y-75044073D01*
X147590958Y-75042773D01*
X147586240Y-75037024D01*
X147544035Y-74994819D01*
X147934398Y-74994819D01*
X147934398Y-75994819D01*
X147935839Y-76009451D01*
X147947038Y-76036487D01*
X147967730Y-76057179D01*
X147994766Y-76068378D01*
X148009398Y-76069819D01*
X148485588Y-76069819D01*
X148500220Y-76068378D01*
X148527256Y-76057179D01*
X148547948Y-76036487D01*
X148559147Y-76009451D01*
X148559147Y-75980187D01*
X148547948Y-75953151D01*
X148527256Y-75932459D01*
X148500220Y-75921260D01*
X148485588Y-75919819D01*
X148084398Y-75919819D01*
X148084398Y-75546009D01*
X148342731Y-75546009D01*
X148357363Y-75544568D01*
X148384399Y-75533369D01*
X148405091Y-75512677D01*
X148416290Y-75485641D01*
X148416290Y-75456377D01*
X148405091Y-75429341D01*
X148384399Y-75408649D01*
X148357363Y-75397450D01*
X148342731Y-75396009D01*
X148084398Y-75396009D01*
X148084398Y-75069819D01*
X148485588Y-75069819D01*
X148500220Y-75068378D01*
X148527256Y-75057179D01*
X148547948Y-75036487D01*
X148559147Y-75009451D01*
X148559147Y-74994819D01*
X148839160Y-74994819D01*
X148839160Y-75994819D01*
X148840601Y-76009451D01*
X148851800Y-76036487D01*
X148872492Y-76057179D01*
X148899528Y-76068378D01*
X148928792Y-76068378D01*
X148955828Y-76057179D01*
X148976520Y-76036487D01*
X148987719Y-76009451D01*
X148989160Y-75994819D01*
X148989160Y-75277235D01*
X149420470Y-76032030D01*
X149422659Y-76035114D01*
X149423228Y-76036487D01*
X149424625Y-76037884D01*
X149428980Y-76044019D01*
X149436868Y-76050127D01*
X149443920Y-76057179D01*
X149448338Y-76059009D01*
X149452118Y-76061936D01*
X149461739Y-76064560D01*
X149470956Y-76068378D01*
X149475737Y-76068378D01*
X149480349Y-76069636D01*
X149490246Y-76068378D01*
X149500220Y-76068378D01*
X149504635Y-76066548D01*
X149509379Y-76065946D01*
X149518043Y-76060995D01*
X149527256Y-76057179D01*
X149530634Y-76053800D01*
X149534788Y-76051427D01*
X149540897Y-76043537D01*
X149547948Y-76036487D01*
X149549777Y-76032070D01*
X149552705Y-76028290D01*
X149555329Y-76018666D01*
X149559147Y-76009451D01*
X149559883Y-76001968D01*
X149560405Y-76000058D01*
X149560217Y-75998582D01*
X149560588Y-75994819D01*
X149560588Y-74994819D01*
X149886779Y-74994819D01*
X149886779Y-75994819D01*
X149888220Y-76009451D01*
X149899419Y-76036487D01*
X149920111Y-76057179D01*
X149947147Y-76068378D01*
X149961779Y-76069819D01*
X150437969Y-76069819D01*
X150452601Y-76068378D01*
X150479637Y-76057179D01*
X150500329Y-76036487D01*
X150511528Y-76009451D01*
X150511528Y-75980187D01*
X150500329Y-75953151D01*
X150479637Y-75932459D01*
X150452601Y-75921260D01*
X150437969Y-75919819D01*
X150036779Y-75919819D01*
X150036779Y-75328152D01*
X150648684Y-75328152D01*
X150648684Y-75661485D01*
X150648935Y-75664038D01*
X150648773Y-75665131D01*
X150649582Y-75670604D01*
X150650125Y-75676117D01*
X150650547Y-75677138D01*
X150650923Y-75679675D01*
X150698542Y-75870151D01*
X150703489Y-75883997D01*
X150706808Y-75888476D01*
X150708942Y-75893628D01*
X150718270Y-75904994D01*
X150813508Y-76000233D01*
X150819258Y-76004953D01*
X150820557Y-76006450D01*
X150822811Y-76007869D01*
X150824873Y-76009561D01*
X150826705Y-76010319D01*
X150833000Y-76014282D01*
X150928238Y-76061901D01*
X150941969Y-76067156D01*
X150944658Y-76067347D01*
X150947147Y-76068378D01*
X150961779Y-76069819D01*
X151152255Y-76069819D01*
X151166887Y-76068378D01*
X151169376Y-76067346D01*
X151172064Y-76067156D01*
X151185796Y-76061901D01*
X151281034Y-76014282D01*
X151287333Y-76010317D01*
X151289161Y-76009560D01*
X151291217Y-76007871D01*
X151293477Y-76006450D01*
X151294776Y-76004951D01*
X151300526Y-76000233D01*
X151395765Y-75904993D01*
X151405092Y-75893628D01*
X151407225Y-75888476D01*
X151410545Y-75883997D01*
X151415492Y-75870151D01*
X151463111Y-75679675D01*
X151463486Y-75677138D01*
X151463909Y-75676117D01*
X151464451Y-75670604D01*
X151465261Y-75665131D01*
X151465098Y-75664038D01*
X151465350Y-75661485D01*
X151465350Y-75423390D01*
X151696303Y-75423390D01*
X151696303Y-75566247D01*
X151696554Y-75568800D01*
X151696392Y-75569893D01*
X151697201Y-75575366D01*
X151697744Y-75580879D01*
X151698166Y-75581900D01*
X151698542Y-75584437D01*
X151746161Y-75774913D01*
X151746546Y-75775992D01*
X151746585Y-75776532D01*
X151748912Y-75782613D01*
X151751108Y-75788759D01*
X151751430Y-75789194D01*
X151751840Y-75790264D01*
X151799459Y-75885502D01*
X151803422Y-75891798D01*
X151804180Y-75893628D01*
X151805869Y-75895686D01*
X151807291Y-75897945D01*
X151808789Y-75899244D01*
X151813508Y-75904994D01*
X151908746Y-76000233D01*
X151920111Y-76009561D01*
X151922601Y-76010592D01*
X151924636Y-76012357D01*
X151938062Y-76018351D01*
X152080918Y-76065970D01*
X152088173Y-76067619D01*
X152090004Y-76068378D01*
X152092657Y-76068639D01*
X152095255Y-76069230D01*
X152097229Y-76069089D01*
X152104636Y-76069819D01*
X152199874Y-76069819D01*
X152207279Y-76069089D01*
X152209254Y-76069230D01*
X152211851Y-76068639D01*
X152214506Y-76068378D01*
X152216337Y-76067619D01*
X152223591Y-76065970D01*
X152366448Y-76018351D01*
X152379873Y-76012357D01*
X152381908Y-76010591D01*
X152384399Y-76009560D01*
X152395765Y-76000232D01*
X152443383Y-75952613D01*
X152452711Y-75941247D01*
X152460449Y-75922565D01*
X152463909Y-75914212D01*
X152465350Y-75899580D01*
X152465350Y-75566247D01*
X152463909Y-75551615D01*
X152452710Y-75524579D01*
X152432018Y-75503887D01*
X152404982Y-75492688D01*
X152390350Y-75491247D01*
X152199874Y-75491247D01*
X152185242Y-75492688D01*
X152158206Y-75503887D01*
X152137514Y-75524579D01*
X152126315Y-75551615D01*
X152126315Y-75580879D01*
X152137514Y-75607915D01*
X152158206Y-75628607D01*
X152185242Y-75639806D01*
X152199874Y-75641247D01*
X152315350Y-75641247D01*
X152315350Y-75868514D01*
X152302217Y-75881647D01*
X152187704Y-75919819D01*
X152116806Y-75919819D01*
X152002293Y-75881648D01*
X151928180Y-75807534D01*
X151889686Y-75730547D01*
X151846303Y-75557013D01*
X151846303Y-75432624D01*
X151889686Y-75259090D01*
X151928180Y-75182103D01*
X152002293Y-75107990D01*
X152116806Y-75069819D01*
X152229788Y-75069819D01*
X152309190Y-75109520D01*
X152322921Y-75114775D01*
X152352111Y-75116849D01*
X152379873Y-75107595D01*
X152401980Y-75088422D01*
X152415068Y-75062247D01*
X152417142Y-75033057D01*
X152407888Y-75005296D01*
X152388715Y-74983188D01*
X152376272Y-74975356D01*
X152281034Y-74927737D01*
X152267302Y-74922482D01*
X152264614Y-74922291D01*
X152262125Y-74921260D01*
X152247493Y-74919819D01*
X152104636Y-74919819D01*
X152097229Y-74920548D01*
X152095255Y-74920408D01*
X152092657Y-74920998D01*
X152090004Y-74921260D01*
X152088173Y-74922018D01*
X152080918Y-74923668D01*
X151938062Y-74971287D01*
X151924636Y-74977281D01*
X151922601Y-74979045D01*
X151920111Y-74980077D01*
X151908746Y-74989405D01*
X151813508Y-75084643D01*
X151808789Y-75090392D01*
X151807291Y-75091692D01*
X151805869Y-75093951D01*
X151804181Y-75096008D01*
X151803423Y-75097835D01*
X151799459Y-75104135D01*
X151751840Y-75199373D01*
X151751430Y-75200442D01*
X151751108Y-75200878D01*
X151748912Y-75207023D01*
X151746585Y-75213105D01*
X151746546Y-75213644D01*
X151746161Y-75214724D01*
X151698542Y-75405200D01*
X151698166Y-75407736D01*
X151697744Y-75408758D01*
X151697201Y-75414270D01*
X151696392Y-75419744D01*
X151696554Y-75420836D01*
X151696303Y-75423390D01*
X151465350Y-75423390D01*
X151465350Y-75328152D01*
X151465098Y-75325598D01*
X151465261Y-75324506D01*
X151464451Y-75319032D01*
X151463909Y-75313520D01*
X151463486Y-75312498D01*
X151463111Y-75309962D01*
X151415492Y-75119486D01*
X151410545Y-75105640D01*
X151407226Y-75101161D01*
X151405092Y-75096008D01*
X151395764Y-75084643D01*
X151300526Y-74989405D01*
X151294776Y-74984686D01*
X151293477Y-74983188D01*
X151291217Y-74981766D01*
X151289161Y-74980078D01*
X151287333Y-74979320D01*
X151281034Y-74975356D01*
X151185796Y-74927737D01*
X151172064Y-74922482D01*
X151169376Y-74922291D01*
X151166887Y-74921260D01*
X151152255Y-74919819D01*
X150961779Y-74919819D01*
X150947147Y-74921260D01*
X150944658Y-74922290D01*
X150941969Y-74922482D01*
X150928238Y-74927737D01*
X150833000Y-74975356D01*
X150826705Y-74979318D01*
X150824873Y-74980077D01*
X150822811Y-74981768D01*
X150820557Y-74983188D01*
X150819258Y-74984684D01*
X150813508Y-74989405D01*
X150718270Y-75084643D01*
X150708943Y-75096008D01*
X150706809Y-75101158D01*
X150703489Y-75105640D01*
X150698542Y-75119486D01*
X150650923Y-75309962D01*
X150650547Y-75312498D01*
X150650125Y-75313520D01*
X150649582Y-75319032D01*
X150648773Y-75324506D01*
X150648935Y-75325598D01*
X150648684Y-75328152D01*
X150036779Y-75328152D01*
X150036779Y-74994819D01*
X150035338Y-74980187D01*
X150024139Y-74953151D01*
X150003447Y-74932459D01*
X149976411Y-74921260D01*
X149947147Y-74921260D01*
X149920111Y-74932459D01*
X149899419Y-74953151D01*
X149888220Y-74980187D01*
X149886779Y-74994819D01*
X149560588Y-74994819D01*
X149559147Y-74980187D01*
X149547948Y-74953151D01*
X149527256Y-74932459D01*
X149500220Y-74921260D01*
X149470956Y-74921260D01*
X149443920Y-74932459D01*
X149423228Y-74953151D01*
X149412029Y-74980187D01*
X149410588Y-74994819D01*
X149410588Y-75712402D01*
X148979278Y-74957609D01*
X148977089Y-74954525D01*
X148976520Y-74953151D01*
X148975120Y-74951751D01*
X148970768Y-74945619D01*
X148962878Y-74939509D01*
X148955828Y-74932459D01*
X148951411Y-74930629D01*
X148947631Y-74927702D01*
X148938007Y-74925077D01*
X148928792Y-74921260D01*
X148924011Y-74921260D01*
X148919399Y-74920002D01*
X148909502Y-74921260D01*
X148899528Y-74921260D01*
X148895112Y-74923089D01*
X148890369Y-74923692D01*
X148881704Y-74928642D01*
X148872492Y-74932459D01*
X148869113Y-74935837D01*
X148864960Y-74938211D01*
X148858850Y-74946100D01*
X148851800Y-74953151D01*
X148849970Y-74957567D01*
X148847043Y-74961348D01*
X148844418Y-74970971D01*
X148840601Y-74980187D01*
X148839864Y-74987669D01*
X148839343Y-74989580D01*
X148839530Y-74991055D01*
X148839160Y-74994819D01*
X148559147Y-74994819D01*
X148559147Y-74980187D01*
X148547948Y-74953151D01*
X148527256Y-74932459D01*
X148500220Y-74921260D01*
X148485588Y-74919819D01*
X148009398Y-74919819D01*
X147994766Y-74921260D01*
X147967730Y-74932459D01*
X147947038Y-74953151D01*
X147935839Y-74980187D01*
X147934398Y-74994819D01*
X147544035Y-74994819D01*
X147538621Y-74989405D01*
X147532871Y-74984686D01*
X147531572Y-74983188D01*
X147529312Y-74981766D01*
X147527256Y-74980078D01*
X147525428Y-74979320D01*
X147519129Y-74975356D01*
X147423891Y-74927737D01*
X147410159Y-74922482D01*
X147407471Y-74922291D01*
X147404982Y-74921260D01*
X147390350Y-74919819D01*
X147009398Y-74919819D01*
X146994766Y-74921260D01*
X146967730Y-74932459D01*
X146947038Y-74953151D01*
X146935839Y-74980187D01*
X146934398Y-74994819D01*
X146496416Y-74994819D01*
X146491002Y-74989405D01*
X146485252Y-74984686D01*
X146483953Y-74983188D01*
X146481693Y-74981766D01*
X146479637Y-74980078D01*
X146477809Y-74979320D01*
X146471510Y-74975356D01*
X146376272Y-74927737D01*
X146362540Y-74922482D01*
X146359852Y-74922291D01*
X146357363Y-74921260D01*
X146342731Y-74919819D01*
X146152255Y-74919819D01*
X146137623Y-74921260D01*
X146135134Y-74922290D01*
X146132445Y-74922482D01*
X146118714Y-74927737D01*
X146023476Y-74975356D01*
X146017181Y-74979318D01*
X146015349Y-74980077D01*
X146013287Y-74981768D01*
X146011033Y-74983188D01*
X146009734Y-74984684D01*
X146003984Y-74989405D01*
X145908746Y-75084643D01*
X145899419Y-75096008D01*
X145897285Y-75101158D01*
X145893965Y-75105640D01*
X145889018Y-75119486D01*
X145841399Y-75309962D01*
X145841023Y-75312498D01*
X145840601Y-75313520D01*
X145840058Y-75319032D01*
X145839249Y-75324506D01*
X145839411Y-75325598D01*
X145839160Y-75328152D01*
X145728049Y-75328152D01*
X145728049Y-74808708D01*
X152576461Y-74808708D01*
X152576461Y-76180930D01*
G37*
X109719445Y-49891579D02*
X109719445Y-49069379D01*
X109719445Y-49460903D02*
X110189274Y-49460903D01*
X110189274Y-49891579D02*
X110189274Y-49069379D01*
X110580797Y-49069379D02*
X110580797Y-49734969D01*
X110580797Y-49734969D02*
X110619950Y-49813274D01*
X110619950Y-49813274D02*
X110659102Y-49852427D01*
X110659102Y-49852427D02*
X110737407Y-49891579D01*
X110737407Y-49891579D02*
X110894016Y-49891579D01*
X110894016Y-49891579D02*
X110972321Y-49852427D01*
X110972321Y-49852427D02*
X111011474Y-49813274D01*
X111011474Y-49813274D02*
X111050626Y-49734969D01*
X111050626Y-49734969D02*
X111050626Y-49069379D01*
X111442149Y-49891579D02*
X111442149Y-49069379D01*
X111442149Y-49069379D02*
X111716216Y-49656665D01*
X111716216Y-49656665D02*
X111990283Y-49069379D01*
X111990283Y-49069379D02*
X111990283Y-49891579D01*
X112381806Y-49891579D02*
X112381806Y-49069379D01*
X112773330Y-49891579D02*
X112773330Y-49069379D01*
X112773330Y-49069379D02*
X112969092Y-49069379D01*
X112969092Y-49069379D02*
X113086549Y-49108531D01*
X113086549Y-49108531D02*
X113164854Y-49186836D01*
X113164854Y-49186836D02*
X113204007Y-49265141D01*
X113204007Y-49265141D02*
X113243159Y-49421750D01*
X113243159Y-49421750D02*
X113243159Y-49539207D01*
X113243159Y-49539207D02*
X113204007Y-49695817D01*
X113204007Y-49695817D02*
X113164854Y-49774122D01*
X113164854Y-49774122D02*
X113086549Y-49852427D01*
X113086549Y-49852427D02*
X112969092Y-49891579D01*
X112969092Y-49891579D02*
X112773330Y-49891579D01*
G36*
X108184019Y-95279077D02*
G01*
X108214426Y-95309484D01*
X108248684Y-95378000D01*
X108248684Y-95485447D01*
X108214426Y-95553963D01*
X108184019Y-95584370D01*
X108115503Y-95618628D01*
X107827256Y-95618628D01*
X107827256Y-95244819D01*
X108115503Y-95244819D01*
X108184019Y-95279077D01*
G37*
G36*
X108509795Y-96355930D02*
G01*
X101375668Y-96355930D01*
X101375668Y-95169819D01*
X101486779Y-95169819D01*
X101486779Y-96169819D01*
X101488220Y-96184451D01*
X101499419Y-96211487D01*
X101520111Y-96232179D01*
X101547147Y-96243378D01*
X101561779Y-96244819D01*
X102037969Y-96244819D01*
X102052601Y-96243378D01*
X102079637Y-96232179D01*
X102100329Y-96211487D01*
X102111528Y-96184451D01*
X102111528Y-96155187D01*
X102100329Y-96128151D01*
X102079637Y-96107459D01*
X102052601Y-96096260D01*
X102037969Y-96094819D01*
X101636779Y-96094819D01*
X101636779Y-95721009D01*
X101895112Y-95721009D01*
X101909744Y-95719568D01*
X101936780Y-95708369D01*
X101957472Y-95687677D01*
X101968671Y-95660641D01*
X101968671Y-95631377D01*
X101957472Y-95604341D01*
X101936780Y-95583649D01*
X101909744Y-95572450D01*
X101895112Y-95571009D01*
X101636779Y-95571009D01*
X101636779Y-95244819D01*
X102037969Y-95244819D01*
X102052601Y-95243378D01*
X102079637Y-95232179D01*
X102100329Y-95211487D01*
X102111528Y-95184451D01*
X102111528Y-95169740D01*
X102296303Y-95169740D01*
X102301982Y-95198448D01*
X102308899Y-95211421D01*
X102614497Y-95669819D01*
X102308899Y-96128217D01*
X102301982Y-96141190D01*
X102296303Y-96169898D01*
X102302042Y-96198592D01*
X102318325Y-96222907D01*
X102342674Y-96239140D01*
X102371382Y-96244819D01*
X102400076Y-96239080D01*
X102424391Y-96222797D01*
X102433707Y-96211421D01*
X102704636Y-95805027D01*
X102975565Y-96211421D01*
X102984881Y-96222797D01*
X103009196Y-96239080D01*
X103037890Y-96244819D01*
X103066598Y-96239140D01*
X103090947Y-96222907D01*
X103107230Y-96198592D01*
X103112969Y-96169898D01*
X103107290Y-96141190D01*
X103100373Y-96128216D01*
X102794775Y-95669819D01*
X103100373Y-95211422D01*
X103107290Y-95198448D01*
X103112969Y-95169740D01*
X103110058Y-95155187D01*
X103202506Y-95155187D01*
X103202506Y-95184451D01*
X103213705Y-95211487D01*
X103234397Y-95232179D01*
X103261433Y-95243378D01*
X103276065Y-95244819D01*
X103486779Y-95244819D01*
X103486779Y-96169819D01*
X103488220Y-96184451D01*
X103499419Y-96211487D01*
X103520111Y-96232179D01*
X103547147Y-96243378D01*
X103576411Y-96243378D01*
X103603447Y-96232179D01*
X103624139Y-96211487D01*
X103635338Y-96184451D01*
X103636779Y-96169819D01*
X103636779Y-95244819D01*
X103847493Y-95244819D01*
X103862125Y-95243378D01*
X103889161Y-95232179D01*
X103909853Y-95211487D01*
X103921052Y-95184451D01*
X103921052Y-95155187D01*
X104726316Y-95155187D01*
X104726316Y-95184451D01*
X104737515Y-95211487D01*
X104758207Y-95232179D01*
X104785243Y-95243378D01*
X104799875Y-95244819D01*
X105010589Y-95244819D01*
X105010589Y-96169819D01*
X105012030Y-96184451D01*
X105023229Y-96211487D01*
X105043921Y-96232179D01*
X105070957Y-96243378D01*
X105100221Y-96243378D01*
X105127257Y-96232179D01*
X105147949Y-96211487D01*
X105159148Y-96184451D01*
X105160589Y-96169819D01*
X105160589Y-95244819D01*
X105371303Y-95244819D01*
X105385935Y-95243378D01*
X105412971Y-95232179D01*
X105433663Y-95211487D01*
X105444862Y-95184451D01*
X105444862Y-95169819D01*
X105629637Y-95169819D01*
X105629637Y-96169819D01*
X105631078Y-96184451D01*
X105642277Y-96211487D01*
X105662969Y-96232179D01*
X105690005Y-96243378D01*
X105704637Y-96244819D01*
X106180827Y-96244819D01*
X106195459Y-96243378D01*
X106222495Y-96232179D01*
X106243187Y-96211487D01*
X106254386Y-96184451D01*
X106254386Y-96155187D01*
X106243187Y-96128151D01*
X106222495Y-96107459D01*
X106195459Y-96096260D01*
X106180827Y-96094819D01*
X105779637Y-96094819D01*
X105779637Y-95721009D01*
X106037970Y-95721009D01*
X106052602Y-95719568D01*
X106079638Y-95708369D01*
X106100330Y-95687677D01*
X106111529Y-95660641D01*
X106111529Y-95631377D01*
X106100330Y-95604341D01*
X106079638Y-95583649D01*
X106052602Y-95572450D01*
X106037970Y-95571009D01*
X105779637Y-95571009D01*
X105779637Y-95244819D01*
X106180827Y-95244819D01*
X106195459Y-95243378D01*
X106222495Y-95232179D01*
X106243187Y-95211487D01*
X106254386Y-95184451D01*
X106254386Y-95169819D01*
X106534399Y-95169819D01*
X106534399Y-96169819D01*
X106535840Y-96184451D01*
X106547039Y-96211487D01*
X106567731Y-96232179D01*
X106594767Y-96243378D01*
X106624031Y-96243378D01*
X106651067Y-96232179D01*
X106671759Y-96211487D01*
X106682958Y-96184451D01*
X106684399Y-96169819D01*
X106684399Y-95507886D01*
X106874768Y-95915821D01*
X106877942Y-95921180D01*
X106878602Y-95922993D01*
X106879776Y-95924275D01*
X106882262Y-95928471D01*
X106890671Y-95936171D01*
X106898366Y-95944574D01*
X106901384Y-95945982D01*
X106903843Y-95948234D01*
X106914555Y-95952129D01*
X106924884Y-95956950D01*
X106928212Y-95957096D01*
X106931344Y-95958235D01*
X106942738Y-95957734D01*
X106954120Y-95958234D01*
X106957248Y-95957096D01*
X106960580Y-95956950D01*
X106970915Y-95952126D01*
X106981621Y-95948234D01*
X106984076Y-95945984D01*
X106987098Y-95944575D01*
X106994799Y-95936164D01*
X107003202Y-95928470D01*
X107005685Y-95924277D01*
X107006862Y-95922993D01*
X107007522Y-95921177D01*
X107010696Y-95915820D01*
X107201065Y-95507886D01*
X107201065Y-96169819D01*
X107202506Y-96184451D01*
X107213705Y-96211487D01*
X107234397Y-96232179D01*
X107261433Y-96243378D01*
X107290697Y-96243378D01*
X107317733Y-96232179D01*
X107338425Y-96211487D01*
X107349624Y-96184451D01*
X107351065Y-96169819D01*
X107351065Y-95169819D01*
X107677256Y-95169819D01*
X107677256Y-96169819D01*
X107678697Y-96184451D01*
X107689896Y-96211487D01*
X107710588Y-96232179D01*
X107737624Y-96243378D01*
X107766888Y-96243378D01*
X107793924Y-96232179D01*
X107814616Y-96211487D01*
X107825815Y-96184451D01*
X107827256Y-96169819D01*
X107827256Y-95768628D01*
X108133208Y-95768628D01*
X108147840Y-95767187D01*
X108150329Y-95766155D01*
X108153017Y-95765965D01*
X108166749Y-95760710D01*
X108261987Y-95713091D01*
X108268286Y-95709126D01*
X108270114Y-95708369D01*
X108272170Y-95706680D01*
X108274430Y-95705259D01*
X108275729Y-95703760D01*
X108281479Y-95699042D01*
X108329098Y-95651423D01*
X108333816Y-95645673D01*
X108335315Y-95644374D01*
X108336736Y-95642114D01*
X108338425Y-95640058D01*
X108339182Y-95638230D01*
X108343147Y-95631931D01*
X108390766Y-95536693D01*
X108396021Y-95522962D01*
X108396212Y-95520272D01*
X108397243Y-95517784D01*
X108398684Y-95503152D01*
X108398684Y-95360295D01*
X108397243Y-95345663D01*
X108396212Y-95343174D01*
X108396021Y-95340485D01*
X108390766Y-95326754D01*
X108343147Y-95231516D01*
X108339182Y-95225216D01*
X108338425Y-95223389D01*
X108336736Y-95221332D01*
X108335315Y-95219073D01*
X108333816Y-95217773D01*
X108329098Y-95212024D01*
X108281479Y-95164405D01*
X108275729Y-95159686D01*
X108274430Y-95158188D01*
X108272170Y-95156766D01*
X108270114Y-95155078D01*
X108268286Y-95154320D01*
X108261987Y-95150356D01*
X108166749Y-95102737D01*
X108153017Y-95097482D01*
X108150329Y-95097291D01*
X108147840Y-95096260D01*
X108133208Y-95094819D01*
X107752256Y-95094819D01*
X107737624Y-95096260D01*
X107710588Y-95107459D01*
X107689896Y-95128151D01*
X107678697Y-95155187D01*
X107677256Y-95169819D01*
X107351065Y-95169819D01*
X107350117Y-95160197D01*
X107350195Y-95158431D01*
X107349850Y-95157482D01*
X107349624Y-95155187D01*
X107344642Y-95143160D01*
X107340195Y-95130930D01*
X107339065Y-95129696D01*
X107338425Y-95128151D01*
X107329225Y-95118951D01*
X107320431Y-95109348D01*
X107318914Y-95108640D01*
X107317733Y-95107459D01*
X107305720Y-95102482D01*
X107293913Y-95096973D01*
X107292240Y-95096899D01*
X107290697Y-95096260D01*
X107277691Y-95096260D01*
X107264677Y-95095688D01*
X107263104Y-95096260D01*
X107261433Y-95096260D01*
X107249414Y-95101238D01*
X107237176Y-95105689D01*
X107235942Y-95106819D01*
X107234397Y-95107459D01*
X107225198Y-95116657D01*
X107215595Y-95125452D01*
X107214419Y-95127436D01*
X107213705Y-95128151D01*
X107213028Y-95129784D01*
X107208101Y-95138102D01*
X106942731Y-95706750D01*
X106677363Y-95138103D01*
X106672437Y-95129787D01*
X106671759Y-95128151D01*
X106671043Y-95127435D01*
X106669869Y-95125453D01*
X106660272Y-95116664D01*
X106651067Y-95107459D01*
X106649521Y-95106818D01*
X106648288Y-95105689D01*
X106636057Y-95101241D01*
X106624031Y-95096260D01*
X106622357Y-95096260D01*
X106620787Y-95095689D01*
X106607786Y-95096260D01*
X106594767Y-95096260D01*
X106593222Y-95096899D01*
X106591551Y-95096973D01*
X106579752Y-95102479D01*
X106567731Y-95107459D01*
X106566548Y-95108641D01*
X106565033Y-95109349D01*
X106556244Y-95118945D01*
X106547039Y-95128151D01*
X106546398Y-95129696D01*
X106545269Y-95130930D01*
X106540821Y-95143160D01*
X106535840Y-95155187D01*
X106535613Y-95157482D01*
X106535269Y-95158431D01*
X106535346Y-95160197D01*
X106534399Y-95169819D01*
X106254386Y-95169819D01*
X106254386Y-95155187D01*
X106243187Y-95128151D01*
X106222495Y-95107459D01*
X106195459Y-95096260D01*
X106180827Y-95094819D01*
X105704637Y-95094819D01*
X105690005Y-95096260D01*
X105662969Y-95107459D01*
X105642277Y-95128151D01*
X105631078Y-95155187D01*
X105629637Y-95169819D01*
X105444862Y-95169819D01*
X105444862Y-95155187D01*
X105433663Y-95128151D01*
X105412971Y-95107459D01*
X105385935Y-95096260D01*
X105371303Y-95094819D01*
X104799875Y-95094819D01*
X104785243Y-95096260D01*
X104758207Y-95107459D01*
X104737515Y-95128151D01*
X104726316Y-95155187D01*
X103921052Y-95155187D01*
X103909853Y-95128151D01*
X103889161Y-95107459D01*
X103862125Y-95096260D01*
X103847493Y-95094819D01*
X103276065Y-95094819D01*
X103261433Y-95096260D01*
X103234397Y-95107459D01*
X103213705Y-95128151D01*
X103202506Y-95155187D01*
X103110058Y-95155187D01*
X103107230Y-95141046D01*
X103090947Y-95116731D01*
X103066598Y-95100498D01*
X103037890Y-95094819D01*
X103009196Y-95100558D01*
X102984881Y-95116841D01*
X102975565Y-95128217D01*
X102704636Y-95534610D01*
X102433707Y-95128217D01*
X102424391Y-95116841D01*
X102400076Y-95100558D01*
X102371382Y-95094819D01*
X102342674Y-95100498D01*
X102318325Y-95116731D01*
X102302042Y-95141046D01*
X102296303Y-95169740D01*
X102111528Y-95169740D01*
X102111528Y-95155187D01*
X102100329Y-95128151D01*
X102079637Y-95107459D01*
X102052601Y-95096260D01*
X102037969Y-95094819D01*
X101561779Y-95094819D01*
X101547147Y-95096260D01*
X101520111Y-95107459D01*
X101499419Y-95128151D01*
X101488220Y-95155187D01*
X101486779Y-95169819D01*
X101375668Y-95169819D01*
X101375668Y-94983708D01*
X108509795Y-94983708D01*
X108509795Y-96355930D01*
G37*
G36*
X115309360Y-71457990D02*
G01*
X115383473Y-71532103D01*
X115421966Y-71609090D01*
X115465350Y-71782624D01*
X115465350Y-71907013D01*
X115421966Y-72080547D01*
X115383472Y-72157534D01*
X115309360Y-72231647D01*
X115194847Y-72269819D01*
X115043922Y-72269819D01*
X115043922Y-71419819D01*
X115194847Y-71419819D01*
X115309360Y-71457990D01*
G37*
G36*
X123019733Y-71454077D02*
G01*
X123050140Y-71484484D01*
X123088633Y-71561471D01*
X123132017Y-71735005D01*
X123132017Y-71954632D01*
X123088633Y-72128166D01*
X123050139Y-72205153D01*
X123019732Y-72235561D01*
X122951217Y-72269819D01*
X122891389Y-72269819D01*
X122822873Y-72235561D01*
X122792466Y-72205153D01*
X122753972Y-72128166D01*
X122710589Y-71954632D01*
X122710589Y-71735005D01*
X122753972Y-71561471D01*
X122792466Y-71484484D01*
X122822873Y-71454077D01*
X122891389Y-71419819D01*
X122951217Y-71419819D01*
X123019733Y-71454077D01*
G37*
G36*
X124019733Y-71454077D02*
G01*
X124050140Y-71484484D01*
X124084398Y-71553000D01*
X124084398Y-71755685D01*
X124050140Y-71824201D01*
X124019733Y-71854608D01*
X123951217Y-71888866D01*
X123796151Y-71888866D01*
X123727635Y-71854608D01*
X123697228Y-71824201D01*
X123662970Y-71755685D01*
X123662970Y-71553000D01*
X123697228Y-71484484D01*
X123727635Y-71454077D01*
X123796151Y-71419819D01*
X123951217Y-71419819D01*
X124019733Y-71454077D01*
G37*
G36*
X118114971Y-71454077D02*
G01*
X118145378Y-71484484D01*
X118179636Y-71553000D01*
X118179636Y-71660447D01*
X118145378Y-71728963D01*
X118114971Y-71759370D01*
X118046455Y-71793628D01*
X117758208Y-71793628D01*
X117758208Y-71419819D01*
X118046455Y-71419819D01*
X118114971Y-71454077D01*
G37*
G36*
X114436293Y-71984104D02*
G01*
X114168217Y-71984104D01*
X114302255Y-71581989D01*
X114436293Y-71984104D01*
G37*
G36*
X116293436Y-71984104D02*
G01*
X116025360Y-71984104D01*
X116159398Y-71581989D01*
X116293436Y-71984104D01*
G37*
G36*
X126626770Y-71984104D02*
G01*
X126358694Y-71984104D01*
X126492732Y-71581989D01*
X126626770Y-71984104D01*
G37*
G36*
X130725021Y-72530930D02*
G01*
X113783400Y-72530930D01*
X113783400Y-72335439D01*
X113894511Y-72335439D01*
X113896586Y-72364629D01*
X113909672Y-72390802D01*
X113931779Y-72409976D01*
X113959542Y-72419230D01*
X113988732Y-72417155D01*
X114014905Y-72404069D01*
X114034079Y-72381962D01*
X114040073Y-72368536D01*
X114118217Y-72134104D01*
X114486293Y-72134104D01*
X114564437Y-72368536D01*
X114570431Y-72381961D01*
X114589605Y-72404068D01*
X114615778Y-72417155D01*
X114644968Y-72419230D01*
X114672730Y-72409976D01*
X114694838Y-72390802D01*
X114707924Y-72364628D01*
X114709999Y-72335438D01*
X114706739Y-72321102D01*
X114381312Y-71344819D01*
X114893922Y-71344819D01*
X114893922Y-72344819D01*
X114895363Y-72359451D01*
X114906562Y-72386487D01*
X114927254Y-72407179D01*
X114954290Y-72418378D01*
X114968922Y-72419819D01*
X115207017Y-72419819D01*
X115214422Y-72419089D01*
X115216397Y-72419230D01*
X115218994Y-72418639D01*
X115221649Y-72418378D01*
X115223480Y-72417619D01*
X115230734Y-72415970D01*
X115373591Y-72368351D01*
X115387016Y-72362357D01*
X115389051Y-72360591D01*
X115391542Y-72359560D01*
X115402907Y-72350233D01*
X115417701Y-72335439D01*
X115751654Y-72335439D01*
X115753729Y-72364629D01*
X115766815Y-72390802D01*
X115788922Y-72409976D01*
X115816685Y-72419230D01*
X115845875Y-72417155D01*
X115872048Y-72404069D01*
X115891222Y-72381962D01*
X115897216Y-72368536D01*
X115975360Y-72134104D01*
X116343436Y-72134104D01*
X116421580Y-72368536D01*
X116427574Y-72381961D01*
X116446748Y-72404068D01*
X116472921Y-72417155D01*
X116502111Y-72419230D01*
X116529873Y-72409976D01*
X116551981Y-72390802D01*
X116565067Y-72364628D01*
X116567142Y-72335438D01*
X116563882Y-72321102D01*
X116238455Y-71344819D01*
X116751065Y-71344819D01*
X116751065Y-72344819D01*
X116752506Y-72359451D01*
X116763705Y-72386487D01*
X116784397Y-72407179D01*
X116811433Y-72418378D01*
X116840697Y-72418378D01*
X116867733Y-72407179D01*
X116888425Y-72386487D01*
X116899624Y-72359451D01*
X116901065Y-72344819D01*
X116901065Y-71896009D01*
X117159398Y-71896009D01*
X117174030Y-71894568D01*
X117201066Y-71883369D01*
X117221758Y-71862677D01*
X117232957Y-71835641D01*
X117232957Y-71806377D01*
X117221758Y-71779341D01*
X117201066Y-71758649D01*
X117174030Y-71747450D01*
X117159398Y-71746009D01*
X116901065Y-71746009D01*
X116901065Y-71419819D01*
X117302255Y-71419819D01*
X117316887Y-71418378D01*
X117343923Y-71407179D01*
X117364615Y-71386487D01*
X117375814Y-71359451D01*
X117375814Y-71344819D01*
X117608208Y-71344819D01*
X117608208Y-72344819D01*
X117609649Y-72359451D01*
X117620848Y-72386487D01*
X117641540Y-72407179D01*
X117668576Y-72418378D01*
X117697840Y-72418378D01*
X117724876Y-72407179D01*
X117745568Y-72386487D01*
X117756767Y-72359451D01*
X117758208Y-72344819D01*
X117758208Y-71943628D01*
X117882254Y-71943628D01*
X118193194Y-72387829D01*
X118202765Y-72398989D01*
X118227444Y-72414716D01*
X118256261Y-72419802D01*
X118284832Y-72413472D01*
X118308806Y-72396690D01*
X118324533Y-72372012D01*
X118329618Y-72343194D01*
X118323289Y-72314623D01*
X118316079Y-72301810D01*
X118065275Y-71943518D01*
X118078792Y-71942187D01*
X118081281Y-71941155D01*
X118083969Y-71940965D01*
X118097701Y-71935710D01*
X118192939Y-71888091D01*
X118199238Y-71884126D01*
X118201066Y-71883369D01*
X118203122Y-71881680D01*
X118205382Y-71880259D01*
X118206681Y-71878760D01*
X118212431Y-71874042D01*
X118260050Y-71826423D01*
X118264768Y-71820673D01*
X118266267Y-71819374D01*
X118267688Y-71817114D01*
X118269377Y-71815058D01*
X118270134Y-71813230D01*
X118274099Y-71806931D01*
X118321718Y-71711693D01*
X118326973Y-71697962D01*
X118327164Y-71695272D01*
X118328195Y-71692784D01*
X118329636Y-71678152D01*
X118329636Y-71535295D01*
X118328195Y-71520663D01*
X118327164Y-71518174D01*
X118326973Y-71515485D01*
X118321718Y-71501754D01*
X118274099Y-71406516D01*
X118270134Y-71400216D01*
X118269377Y-71398389D01*
X118267688Y-71396332D01*
X118266267Y-71394073D01*
X118264768Y-71392773D01*
X118260050Y-71387024D01*
X118217845Y-71344819D01*
X118608208Y-71344819D01*
X118608208Y-72154342D01*
X118609649Y-72168974D01*
X118610680Y-72171463D01*
X118610871Y-72174151D01*
X118616126Y-72187883D01*
X118663745Y-72283121D01*
X118667708Y-72289417D01*
X118668466Y-72291247D01*
X118670155Y-72293305D01*
X118671577Y-72295564D01*
X118673075Y-72296863D01*
X118677793Y-72302612D01*
X118725412Y-72350232D01*
X118731161Y-72354950D01*
X118732462Y-72356450D01*
X118734721Y-72357872D01*
X118736778Y-72359560D01*
X118738605Y-72360317D01*
X118744905Y-72364282D01*
X118840143Y-72411901D01*
X118853874Y-72417156D01*
X118856563Y-72417347D01*
X118859052Y-72418378D01*
X118873684Y-72419819D01*
X119064160Y-72419819D01*
X119078792Y-72418378D01*
X119081281Y-72417346D01*
X119083969Y-72417156D01*
X119097701Y-72411901D01*
X119192939Y-72364282D01*
X119199238Y-72360317D01*
X119201066Y-72359560D01*
X119203122Y-72357872D01*
X119205382Y-72356450D01*
X119206682Y-72354950D01*
X119212432Y-72350232D01*
X119260050Y-72302613D01*
X119264768Y-72296863D01*
X119266267Y-72295564D01*
X119267688Y-72293305D01*
X119269378Y-72291247D01*
X119270135Y-72289417D01*
X119274099Y-72283121D01*
X119321718Y-72187883D01*
X119326973Y-72174152D01*
X119327164Y-72171462D01*
X119328195Y-72168974D01*
X119329636Y-72154342D01*
X119329636Y-71344819D01*
X119655827Y-71344819D01*
X119655827Y-72344819D01*
X119657268Y-72359451D01*
X119668467Y-72386487D01*
X119689159Y-72407179D01*
X119716195Y-72418378D01*
X119745459Y-72418378D01*
X119772495Y-72407179D01*
X119793187Y-72386487D01*
X119804386Y-72359451D01*
X119805827Y-72344819D01*
X119805827Y-71344819D01*
X119804386Y-71330187D01*
X119990601Y-71330187D01*
X119990601Y-71359451D01*
X120001800Y-71386487D01*
X120022492Y-71407179D01*
X120049528Y-71418378D01*
X120064160Y-71419819D01*
X120274874Y-71419819D01*
X120274874Y-72344819D01*
X120276315Y-72359451D01*
X120287514Y-72386487D01*
X120308206Y-72407179D01*
X120335242Y-72418378D01*
X120364506Y-72418378D01*
X120391542Y-72407179D01*
X120412234Y-72386487D01*
X120423433Y-72359451D01*
X120424874Y-72344819D01*
X120424874Y-72002105D01*
X121608797Y-72002105D01*
X121609649Y-72014090D01*
X121609649Y-72026117D01*
X121610681Y-72028608D01*
X121610872Y-72031295D01*
X121616246Y-72042044D01*
X121620848Y-72053153D01*
X121622753Y-72055058D01*
X121623958Y-72057468D01*
X121633040Y-72065345D01*
X121641540Y-72073845D01*
X121644028Y-72074875D01*
X121646065Y-72076642D01*
X121657468Y-72080443D01*
X121668576Y-72085044D01*
X121672402Y-72085420D01*
X121673828Y-72085896D01*
X121675802Y-72085755D01*
X121683208Y-72086485D01*
X122084398Y-72086485D01*
X122084398Y-72344819D01*
X122085839Y-72359451D01*
X122097038Y-72386487D01*
X122117730Y-72407179D01*
X122144766Y-72418378D01*
X122174030Y-72418378D01*
X122201066Y-72407179D01*
X122221758Y-72386487D01*
X122232957Y-72359451D01*
X122234398Y-72344819D01*
X122234398Y-72086485D01*
X122302255Y-72086485D01*
X122316887Y-72085044D01*
X122343923Y-72073845D01*
X122364615Y-72053153D01*
X122375814Y-72026117D01*
X122375814Y-71996853D01*
X122364615Y-71969817D01*
X122343923Y-71949125D01*
X122316887Y-71937926D01*
X122302255Y-71936485D01*
X122234398Y-71936485D01*
X122234398Y-71725771D01*
X122560589Y-71725771D01*
X122560589Y-71963866D01*
X122560840Y-71966419D01*
X122560678Y-71967512D01*
X122561487Y-71972985D01*
X122562030Y-71978498D01*
X122562452Y-71979519D01*
X122562828Y-71982056D01*
X122610447Y-72172532D01*
X122610832Y-72173611D01*
X122610871Y-72174151D01*
X122613198Y-72180232D01*
X122615394Y-72186378D01*
X122615716Y-72186813D01*
X122616126Y-72187883D01*
X122663745Y-72283121D01*
X122667708Y-72289417D01*
X122668466Y-72291247D01*
X122670155Y-72293305D01*
X122671577Y-72295564D01*
X122673075Y-72296863D01*
X122677793Y-72302612D01*
X122725412Y-72350232D01*
X122731161Y-72354950D01*
X122732462Y-72356450D01*
X122734721Y-72357872D01*
X122736778Y-72359560D01*
X122738605Y-72360317D01*
X122744905Y-72364282D01*
X122840143Y-72411901D01*
X122853874Y-72417156D01*
X122856563Y-72417347D01*
X122859052Y-72418378D01*
X122873684Y-72419819D01*
X122968922Y-72419819D01*
X122983554Y-72418378D01*
X122986043Y-72417346D01*
X122988731Y-72417156D01*
X123002463Y-72411901D01*
X123097701Y-72364282D01*
X123104000Y-72360317D01*
X123105828Y-72359560D01*
X123107884Y-72357872D01*
X123110144Y-72356450D01*
X123111444Y-72354950D01*
X123117194Y-72350232D01*
X123164812Y-72302613D01*
X123169530Y-72296863D01*
X123171029Y-72295564D01*
X123172450Y-72293305D01*
X123174140Y-72291247D01*
X123174897Y-72289417D01*
X123178861Y-72283121D01*
X123226480Y-72187883D01*
X123226889Y-72186813D01*
X123227212Y-72186378D01*
X123229404Y-72180241D01*
X123231735Y-72174152D01*
X123231773Y-72173611D01*
X123232159Y-72172532D01*
X123279778Y-71982056D01*
X123280153Y-71979519D01*
X123280576Y-71978498D01*
X123281118Y-71972985D01*
X123281928Y-71967512D01*
X123281765Y-71966419D01*
X123282017Y-71963866D01*
X123282017Y-71725771D01*
X123281765Y-71723217D01*
X123281928Y-71722125D01*
X123281118Y-71716651D01*
X123280576Y-71711139D01*
X123280153Y-71710117D01*
X123279778Y-71707581D01*
X123236706Y-71535295D01*
X123512970Y-71535295D01*
X123512970Y-71773390D01*
X123514411Y-71788022D01*
X123515442Y-71790511D01*
X123515633Y-71793199D01*
X123520888Y-71806931D01*
X123568507Y-71902169D01*
X123572471Y-71908468D01*
X123573229Y-71910296D01*
X123574917Y-71912352D01*
X123576339Y-71914612D01*
X123577837Y-71915911D01*
X123582556Y-71921661D01*
X123630175Y-71969280D01*
X123635924Y-71973998D01*
X123637224Y-71975497D01*
X123639483Y-71976918D01*
X123641540Y-71978607D01*
X123643367Y-71979364D01*
X123649667Y-71983329D01*
X123744905Y-72030948D01*
X123758636Y-72036203D01*
X123761325Y-72036394D01*
X123763814Y-72037425D01*
X123778446Y-72038866D01*
X123968922Y-72038866D01*
X123983554Y-72037425D01*
X123986043Y-72036393D01*
X123988731Y-72036203D01*
X124002463Y-72030948D01*
X124060693Y-72001833D01*
X124042169Y-72075929D01*
X123958254Y-72201800D01*
X123924494Y-72235561D01*
X123855979Y-72269819D01*
X123683208Y-72269819D01*
X123668576Y-72271260D01*
X123641540Y-72282459D01*
X123620848Y-72303151D01*
X123609649Y-72330187D01*
X123609649Y-72359451D01*
X123620848Y-72386487D01*
X123641540Y-72407179D01*
X123668576Y-72418378D01*
X123683208Y-72419819D01*
X123873684Y-72419819D01*
X123888316Y-72418378D01*
X123890805Y-72417346D01*
X123893493Y-72417156D01*
X123907225Y-72411901D01*
X124002463Y-72364282D01*
X124008762Y-72360317D01*
X124010590Y-72359560D01*
X124012646Y-72357872D01*
X124014906Y-72356450D01*
X124016206Y-72354950D01*
X124021956Y-72350232D01*
X124069574Y-72302613D01*
X124069607Y-72302572D01*
X124069629Y-72302558D01*
X124074368Y-72296771D01*
X124078902Y-72291247D01*
X124078911Y-72291223D01*
X124078945Y-72291183D01*
X124174183Y-72148325D01*
X124178487Y-72140250D01*
X124179593Y-72138759D01*
X124180222Y-72136996D01*
X124181100Y-72135351D01*
X124181458Y-72133536D01*
X124184540Y-72124913D01*
X124232159Y-71934437D01*
X124232534Y-71931900D01*
X124232957Y-71930879D01*
X124233499Y-71925366D01*
X124234309Y-71919893D01*
X124234146Y-71918800D01*
X124234398Y-71916247D01*
X124234398Y-71535295D01*
X124232957Y-71520663D01*
X124231926Y-71518174D01*
X124231735Y-71515485D01*
X124226480Y-71501754D01*
X124178861Y-71406516D01*
X124174896Y-71400216D01*
X124174139Y-71398389D01*
X124172450Y-71396332D01*
X124171029Y-71394073D01*
X124169530Y-71392773D01*
X124164812Y-71387024D01*
X124117193Y-71339405D01*
X124111443Y-71334686D01*
X124110144Y-71333188D01*
X124107884Y-71331766D01*
X124105961Y-71330187D01*
X124419173Y-71330187D01*
X124419173Y-71359451D01*
X124430372Y-71386487D01*
X124451064Y-71407179D01*
X124478100Y-71418378D01*
X124492732Y-71419819D01*
X125045657Y-71419819D01*
X124661891Y-72315275D01*
X124657452Y-72329292D01*
X124657095Y-72358553D01*
X124667963Y-72385723D01*
X124688402Y-72406667D01*
X124715300Y-72418194D01*
X124744561Y-72418551D01*
X124771731Y-72407683D01*
X124792675Y-72387244D01*
X124799763Y-72374363D01*
X124816445Y-72335439D01*
X126084988Y-72335439D01*
X126087063Y-72364629D01*
X126100149Y-72390802D01*
X126122256Y-72409976D01*
X126150019Y-72419230D01*
X126179209Y-72417155D01*
X126205382Y-72404069D01*
X126224556Y-72381962D01*
X126230550Y-72368536D01*
X126308694Y-72134104D01*
X126676770Y-72134104D01*
X126754914Y-72368536D01*
X126760908Y-72381961D01*
X126780082Y-72404068D01*
X126806255Y-72417155D01*
X126835445Y-72419230D01*
X126863207Y-72409976D01*
X126885315Y-72390802D01*
X126898401Y-72364628D01*
X126900476Y-72335438D01*
X126897216Y-72321102D01*
X126714646Y-71773390D01*
X127036780Y-71773390D01*
X127036780Y-71916247D01*
X127037031Y-71918800D01*
X127036869Y-71919893D01*
X127037678Y-71925366D01*
X127038221Y-71930879D01*
X127038643Y-71931900D01*
X127039019Y-71934437D01*
X127086638Y-72124913D01*
X127087023Y-72125992D01*
X127087062Y-72126532D01*
X127089389Y-72132613D01*
X127091585Y-72138759D01*
X127091907Y-72139194D01*
X127092317Y-72140264D01*
X127139936Y-72235502D01*
X127143899Y-72241798D01*
X127144657Y-72243628D01*
X127146346Y-72245686D01*
X127147768Y-72247945D01*
X127149266Y-72249244D01*
X127153985Y-72254994D01*
X127249223Y-72350233D01*
X127260588Y-72359561D01*
X127263078Y-72360592D01*
X127265113Y-72362357D01*
X127278539Y-72368351D01*
X127421395Y-72415970D01*
X127428650Y-72417619D01*
X127430481Y-72418378D01*
X127433134Y-72418639D01*
X127435732Y-72419230D01*
X127437706Y-72419089D01*
X127445113Y-72419819D01*
X127540351Y-72419819D01*
X127547756Y-72419089D01*
X127549731Y-72419230D01*
X127552328Y-72418639D01*
X127554983Y-72418378D01*
X127556814Y-72417619D01*
X127564068Y-72415970D01*
X127706925Y-72368351D01*
X127720350Y-72362357D01*
X127722385Y-72360591D01*
X127724876Y-72359560D01*
X127736242Y-72350232D01*
X127783860Y-72302613D01*
X127793188Y-72291247D01*
X127804386Y-72264211D01*
X127804386Y-72234948D01*
X127793187Y-72207912D01*
X127772494Y-72187219D01*
X127745458Y-72176021D01*
X127716195Y-72176021D01*
X127689159Y-72187220D01*
X127677793Y-72196548D01*
X127642694Y-72231647D01*
X127528181Y-72269819D01*
X127457283Y-72269819D01*
X127342770Y-72231648D01*
X127268657Y-72157534D01*
X127230163Y-72080547D01*
X127186780Y-71907013D01*
X127186780Y-71782624D01*
X127189088Y-71773390D01*
X128036780Y-71773390D01*
X128036780Y-71916247D01*
X128037031Y-71918800D01*
X128036869Y-71919893D01*
X128037678Y-71925366D01*
X128038221Y-71930879D01*
X128038643Y-71931900D01*
X128039019Y-71934437D01*
X128086638Y-72124913D01*
X128087023Y-72125992D01*
X128087062Y-72126532D01*
X128089389Y-72132613D01*
X128091585Y-72138759D01*
X128091907Y-72139194D01*
X128092317Y-72140264D01*
X128139936Y-72235502D01*
X128143899Y-72241798D01*
X128144657Y-72243628D01*
X128146346Y-72245686D01*
X128147768Y-72247945D01*
X128149266Y-72249244D01*
X128153985Y-72254994D01*
X128249223Y-72350233D01*
X128260588Y-72359561D01*
X128263078Y-72360592D01*
X128265113Y-72362357D01*
X128278539Y-72368351D01*
X128421395Y-72415970D01*
X128428650Y-72417619D01*
X128430481Y-72418378D01*
X128433134Y-72418639D01*
X128435732Y-72419230D01*
X128437706Y-72419089D01*
X128445113Y-72419819D01*
X128540351Y-72419819D01*
X128547756Y-72419089D01*
X128549731Y-72419230D01*
X128552328Y-72418639D01*
X128554983Y-72418378D01*
X128556814Y-72417619D01*
X128564068Y-72415970D01*
X128706925Y-72368351D01*
X128720350Y-72362357D01*
X128722385Y-72360591D01*
X128724876Y-72359560D01*
X128736242Y-72350232D01*
X128783860Y-72302613D01*
X128793188Y-72291247D01*
X128804386Y-72264211D01*
X128804386Y-72234948D01*
X128793187Y-72207912D01*
X128772494Y-72187219D01*
X128745458Y-72176021D01*
X128716195Y-72176021D01*
X128689159Y-72187220D01*
X128677793Y-72196548D01*
X128642694Y-72231647D01*
X128528181Y-72269819D01*
X128457283Y-72269819D01*
X128342770Y-72231648D01*
X128268657Y-72157534D01*
X128230163Y-72080547D01*
X128186780Y-71907013D01*
X128186780Y-71782624D01*
X128230163Y-71609090D01*
X128268657Y-71532103D01*
X128342770Y-71457990D01*
X128457283Y-71419819D01*
X128528181Y-71419819D01*
X128642694Y-71457990D01*
X128677794Y-71493090D01*
X128689159Y-71502417D01*
X128716195Y-71513616D01*
X128745458Y-71513616D01*
X128772494Y-71502417D01*
X128793187Y-71481724D01*
X128804386Y-71454688D01*
X128804386Y-71425425D01*
X128793187Y-71398389D01*
X128783860Y-71387024D01*
X128741655Y-71344819D01*
X129084399Y-71344819D01*
X129084399Y-72344819D01*
X129085840Y-72359451D01*
X129097039Y-72386487D01*
X129117731Y-72407179D01*
X129144767Y-72418378D01*
X129159399Y-72419819D01*
X129635589Y-72419819D01*
X129650221Y-72418378D01*
X129677257Y-72407179D01*
X129697949Y-72386487D01*
X129709148Y-72359451D01*
X129709148Y-72330187D01*
X129697949Y-72303151D01*
X129677257Y-72282459D01*
X129650221Y-72271260D01*
X129635589Y-72269819D01*
X129234399Y-72269819D01*
X129234399Y-71896009D01*
X129492732Y-71896009D01*
X129507364Y-71894568D01*
X129534400Y-71883369D01*
X129555092Y-71862677D01*
X129566291Y-71835641D01*
X129566291Y-71806377D01*
X129555092Y-71779341D01*
X129534400Y-71758649D01*
X129507364Y-71747450D01*
X129492732Y-71746009D01*
X129234399Y-71746009D01*
X129234399Y-71419819D01*
X129635589Y-71419819D01*
X129650221Y-71418378D01*
X129677257Y-71407179D01*
X129697949Y-71386487D01*
X129709148Y-71359451D01*
X129709148Y-71344819D01*
X129989161Y-71344819D01*
X129989161Y-72344819D01*
X129990602Y-72359451D01*
X130001801Y-72386487D01*
X130022493Y-72407179D01*
X130049529Y-72418378D01*
X130064161Y-72419819D01*
X130540351Y-72419819D01*
X130554983Y-72418378D01*
X130582019Y-72407179D01*
X130602711Y-72386487D01*
X130613910Y-72359451D01*
X130613910Y-72330187D01*
X130602711Y-72303151D01*
X130582019Y-72282459D01*
X130554983Y-72271260D01*
X130540351Y-72269819D01*
X130139161Y-72269819D01*
X130139161Y-71344819D01*
X130137720Y-71330187D01*
X130126521Y-71303151D01*
X130105829Y-71282459D01*
X130078793Y-71271260D01*
X130049529Y-71271260D01*
X130022493Y-71282459D01*
X130001801Y-71303151D01*
X129990602Y-71330187D01*
X129989161Y-71344819D01*
X129709148Y-71344819D01*
X129709148Y-71330187D01*
X129697949Y-71303151D01*
X129677257Y-71282459D01*
X129650221Y-71271260D01*
X129635589Y-71269819D01*
X129159399Y-71269819D01*
X129144767Y-71271260D01*
X129117731Y-71282459D01*
X129097039Y-71303151D01*
X129085840Y-71330187D01*
X129084399Y-71344819D01*
X128741655Y-71344819D01*
X128736241Y-71339405D01*
X128724876Y-71330078D01*
X128722385Y-71329046D01*
X128720350Y-71327281D01*
X128706925Y-71321287D01*
X128564068Y-71273668D01*
X128556814Y-71272018D01*
X128554983Y-71271260D01*
X128552328Y-71270998D01*
X128549731Y-71270408D01*
X128547756Y-71270548D01*
X128540351Y-71269819D01*
X128445113Y-71269819D01*
X128437706Y-71270548D01*
X128435732Y-71270408D01*
X128433134Y-71270998D01*
X128430481Y-71271260D01*
X128428650Y-71272018D01*
X128421395Y-71273668D01*
X128278539Y-71321287D01*
X128265113Y-71327281D01*
X128263078Y-71329045D01*
X128260588Y-71330077D01*
X128249223Y-71339405D01*
X128153985Y-71434643D01*
X128149266Y-71440392D01*
X128147768Y-71441692D01*
X128146346Y-71443951D01*
X128144658Y-71446008D01*
X128143900Y-71447835D01*
X128139936Y-71454135D01*
X128092317Y-71549373D01*
X128091907Y-71550442D01*
X128091585Y-71550878D01*
X128089389Y-71557023D01*
X128087062Y-71563105D01*
X128087023Y-71563644D01*
X128086638Y-71564724D01*
X128039019Y-71755200D01*
X128038643Y-71757736D01*
X128038221Y-71758758D01*
X128037678Y-71764270D01*
X128036869Y-71769744D01*
X128037031Y-71770836D01*
X128036780Y-71773390D01*
X127189088Y-71773390D01*
X127230163Y-71609090D01*
X127268657Y-71532103D01*
X127342770Y-71457990D01*
X127457283Y-71419819D01*
X127528181Y-71419819D01*
X127642694Y-71457990D01*
X127677794Y-71493090D01*
X127689159Y-71502417D01*
X127716195Y-71513616D01*
X127745458Y-71513616D01*
X127772494Y-71502417D01*
X127793187Y-71481724D01*
X127804386Y-71454688D01*
X127804386Y-71425425D01*
X127793187Y-71398389D01*
X127783860Y-71387024D01*
X127736241Y-71339405D01*
X127724876Y-71330078D01*
X127722385Y-71329046D01*
X127720350Y-71327281D01*
X127706925Y-71321287D01*
X127564068Y-71273668D01*
X127556814Y-71272018D01*
X127554983Y-71271260D01*
X127552328Y-71270998D01*
X127549731Y-71270408D01*
X127547756Y-71270548D01*
X127540351Y-71269819D01*
X127445113Y-71269819D01*
X127437706Y-71270548D01*
X127435732Y-71270408D01*
X127433134Y-71270998D01*
X127430481Y-71271260D01*
X127428650Y-71272018D01*
X127421395Y-71273668D01*
X127278539Y-71321287D01*
X127265113Y-71327281D01*
X127263078Y-71329045D01*
X127260588Y-71330077D01*
X127249223Y-71339405D01*
X127153985Y-71434643D01*
X127149266Y-71440392D01*
X127147768Y-71441692D01*
X127146346Y-71443951D01*
X127144658Y-71446008D01*
X127143900Y-71447835D01*
X127139936Y-71454135D01*
X127092317Y-71549373D01*
X127091907Y-71550442D01*
X127091585Y-71550878D01*
X127089389Y-71557023D01*
X127087062Y-71563105D01*
X127087023Y-71563644D01*
X127086638Y-71564724D01*
X127039019Y-71755200D01*
X127038643Y-71757736D01*
X127038221Y-71758758D01*
X127037678Y-71764270D01*
X127036869Y-71769744D01*
X127037031Y-71770836D01*
X127036780Y-71773390D01*
X126714646Y-71773390D01*
X126563883Y-71321102D01*
X126557889Y-71307676D01*
X126554377Y-71303627D01*
X126551982Y-71298836D01*
X126544878Y-71292674D01*
X126538715Y-71285569D01*
X126533921Y-71283172D01*
X126529874Y-71279662D01*
X126520952Y-71276688D01*
X126512542Y-71272483D01*
X126507197Y-71272103D01*
X126502112Y-71270408D01*
X126492732Y-71271074D01*
X126483352Y-71270408D01*
X126478266Y-71272103D01*
X126472922Y-71272483D01*
X126464514Y-71276687D01*
X126455589Y-71279662D01*
X126451538Y-71283175D01*
X126446749Y-71285570D01*
X126440590Y-71292670D01*
X126433482Y-71298836D01*
X126431085Y-71303629D01*
X126427575Y-71307677D01*
X126421581Y-71321102D01*
X126088248Y-72321102D01*
X126084988Y-72335439D01*
X124816445Y-72335439D01*
X125228334Y-71374363D01*
X125232773Y-71360347D01*
X125232778Y-71359881D01*
X125232957Y-71359451D01*
X125232957Y-71345265D01*
X125233130Y-71331085D01*
X125232957Y-71330652D01*
X125232957Y-71330187D01*
X125227535Y-71317097D01*
X125222262Y-71303915D01*
X125221936Y-71303581D01*
X125221758Y-71303151D01*
X125211718Y-71293111D01*
X125201823Y-71282972D01*
X125201395Y-71282788D01*
X125201066Y-71282459D01*
X125187931Y-71277018D01*
X125174925Y-71271444D01*
X125174460Y-71271438D01*
X125174030Y-71271260D01*
X125159398Y-71269819D01*
X124492732Y-71269819D01*
X124478100Y-71271260D01*
X124451064Y-71282459D01*
X124430372Y-71303151D01*
X124419173Y-71330187D01*
X124105961Y-71330187D01*
X124105828Y-71330078D01*
X124104000Y-71329320D01*
X124097701Y-71325356D01*
X124002463Y-71277737D01*
X123988731Y-71272482D01*
X123986043Y-71272291D01*
X123983554Y-71271260D01*
X123968922Y-71269819D01*
X123778446Y-71269819D01*
X123763814Y-71271260D01*
X123761325Y-71272290D01*
X123758636Y-71272482D01*
X123744905Y-71277737D01*
X123649667Y-71325356D01*
X123643367Y-71329320D01*
X123641540Y-71330078D01*
X123639483Y-71331766D01*
X123637224Y-71333188D01*
X123635924Y-71334686D01*
X123630175Y-71339405D01*
X123582556Y-71387024D01*
X123577837Y-71392773D01*
X123576339Y-71394073D01*
X123574917Y-71396332D01*
X123573229Y-71398389D01*
X123572471Y-71400216D01*
X123568507Y-71406516D01*
X123520888Y-71501754D01*
X123515633Y-71515486D01*
X123515442Y-71518173D01*
X123514411Y-71520663D01*
X123512970Y-71535295D01*
X123236706Y-71535295D01*
X123232159Y-71517105D01*
X123231773Y-71516025D01*
X123231735Y-71515485D01*
X123229404Y-71509395D01*
X123227212Y-71503259D01*
X123226889Y-71502823D01*
X123226480Y-71501754D01*
X123178861Y-71406516D01*
X123174896Y-71400216D01*
X123174139Y-71398389D01*
X123172450Y-71396332D01*
X123171029Y-71394073D01*
X123169530Y-71392773D01*
X123164812Y-71387024D01*
X123117193Y-71339405D01*
X123111443Y-71334686D01*
X123110144Y-71333188D01*
X123107884Y-71331766D01*
X123105828Y-71330078D01*
X123104000Y-71329320D01*
X123097701Y-71325356D01*
X123002463Y-71277737D01*
X122988731Y-71272482D01*
X122986043Y-71272291D01*
X122983554Y-71271260D01*
X122968922Y-71269819D01*
X122873684Y-71269819D01*
X122859052Y-71271260D01*
X122856563Y-71272290D01*
X122853874Y-71272482D01*
X122840143Y-71277737D01*
X122744905Y-71325356D01*
X122738605Y-71329320D01*
X122736778Y-71330078D01*
X122734721Y-71331766D01*
X122732462Y-71333188D01*
X122731162Y-71334686D01*
X122725413Y-71339405D01*
X122677794Y-71387024D01*
X122673075Y-71392773D01*
X122671577Y-71394073D01*
X122670155Y-71396332D01*
X122668467Y-71398389D01*
X122667709Y-71400216D01*
X122663745Y-71406516D01*
X122616126Y-71501754D01*
X122615716Y-71502823D01*
X122615394Y-71503259D01*
X122613198Y-71509404D01*
X122610871Y-71515486D01*
X122610832Y-71516025D01*
X122610447Y-71517105D01*
X122562828Y-71707581D01*
X122562452Y-71710117D01*
X122562030Y-71711139D01*
X122561487Y-71716651D01*
X122560678Y-71722125D01*
X122560840Y-71723217D01*
X122560589Y-71725771D01*
X122234398Y-71725771D01*
X122234398Y-71678152D01*
X122232957Y-71663520D01*
X122221758Y-71636484D01*
X122201066Y-71615792D01*
X122174030Y-71604593D01*
X122144766Y-71604593D01*
X122117730Y-71615792D01*
X122097038Y-71636484D01*
X122085839Y-71663520D01*
X122084398Y-71678152D01*
X122084398Y-71936485D01*
X121787265Y-71936485D01*
X121992454Y-71320918D01*
X121995714Y-71306581D01*
X121993639Y-71277391D01*
X121980553Y-71251217D01*
X121958445Y-71232043D01*
X121930683Y-71222789D01*
X121901493Y-71224864D01*
X121875320Y-71237951D01*
X121856146Y-71260058D01*
X121850152Y-71273483D01*
X121612057Y-71987768D01*
X121610407Y-71995021D01*
X121609649Y-71996853D01*
X121609649Y-71998358D01*
X121608797Y-72002105D01*
X120424874Y-72002105D01*
X120424874Y-71419819D01*
X120635588Y-71419819D01*
X120650220Y-71418378D01*
X120677256Y-71407179D01*
X120697948Y-71386487D01*
X120709147Y-71359451D01*
X120709147Y-71330187D01*
X120697948Y-71303151D01*
X120677256Y-71282459D01*
X120650220Y-71271260D01*
X120635588Y-71269819D01*
X120064160Y-71269819D01*
X120049528Y-71271260D01*
X120022492Y-71282459D01*
X120001800Y-71303151D01*
X119990601Y-71330187D01*
X119804386Y-71330187D01*
X119793187Y-71303151D01*
X119772495Y-71282459D01*
X119745459Y-71271260D01*
X119716195Y-71271260D01*
X119689159Y-71282459D01*
X119668467Y-71303151D01*
X119657268Y-71330187D01*
X119655827Y-71344819D01*
X119329636Y-71344819D01*
X119328195Y-71330187D01*
X119316996Y-71303151D01*
X119296304Y-71282459D01*
X119269268Y-71271260D01*
X119240004Y-71271260D01*
X119212968Y-71282459D01*
X119192276Y-71303151D01*
X119181077Y-71330187D01*
X119179636Y-71344819D01*
X119179636Y-72136637D01*
X119145377Y-72205153D01*
X119114970Y-72235561D01*
X119046455Y-72269819D01*
X118891389Y-72269819D01*
X118822873Y-72235561D01*
X118792466Y-72205153D01*
X118758208Y-72136637D01*
X118758208Y-71344819D01*
X118756767Y-71330187D01*
X118745568Y-71303151D01*
X118724876Y-71282459D01*
X118697840Y-71271260D01*
X118668576Y-71271260D01*
X118641540Y-71282459D01*
X118620848Y-71303151D01*
X118609649Y-71330187D01*
X118608208Y-71344819D01*
X118217845Y-71344819D01*
X118212431Y-71339405D01*
X118206681Y-71334686D01*
X118205382Y-71333188D01*
X118203122Y-71331766D01*
X118201066Y-71330078D01*
X118199238Y-71329320D01*
X118192939Y-71325356D01*
X118097701Y-71277737D01*
X118083969Y-71272482D01*
X118081281Y-71272291D01*
X118078792Y-71271260D01*
X118064160Y-71269819D01*
X117683208Y-71269819D01*
X117668576Y-71271260D01*
X117641540Y-71282459D01*
X117620848Y-71303151D01*
X117609649Y-71330187D01*
X117608208Y-71344819D01*
X117375814Y-71344819D01*
X117375814Y-71330187D01*
X117364615Y-71303151D01*
X117343923Y-71282459D01*
X117316887Y-71271260D01*
X117302255Y-71269819D01*
X116826065Y-71269819D01*
X116811433Y-71271260D01*
X116784397Y-71282459D01*
X116763705Y-71303151D01*
X116752506Y-71330187D01*
X116751065Y-71344819D01*
X116238455Y-71344819D01*
X116230549Y-71321102D01*
X116224555Y-71307676D01*
X116221043Y-71303627D01*
X116218648Y-71298836D01*
X116211544Y-71292674D01*
X116205381Y-71285569D01*
X116200587Y-71283172D01*
X116196540Y-71279662D01*
X116187618Y-71276688D01*
X116179208Y-71272483D01*
X116173863Y-71272103D01*
X116168778Y-71270408D01*
X116159398Y-71271074D01*
X116150018Y-71270408D01*
X116144932Y-71272103D01*
X116139588Y-71272483D01*
X116131180Y-71276687D01*
X116122255Y-71279662D01*
X116118204Y-71283175D01*
X116113415Y-71285570D01*
X116107256Y-71292670D01*
X116100148Y-71298836D01*
X116097751Y-71303629D01*
X116094241Y-71307677D01*
X116088247Y-71321102D01*
X115754914Y-72321102D01*
X115751654Y-72335439D01*
X115417701Y-72335439D01*
X115498146Y-72254993D01*
X115502863Y-72249244D01*
X115504362Y-72247945D01*
X115505783Y-72245686D01*
X115507473Y-72243628D01*
X115508230Y-72241798D01*
X115512194Y-72235502D01*
X115559813Y-72140264D01*
X115560222Y-72139194D01*
X115560545Y-72138759D01*
X115562737Y-72132622D01*
X115565068Y-72126533D01*
X115565106Y-72125992D01*
X115565492Y-72124913D01*
X115613111Y-71934437D01*
X115613486Y-71931900D01*
X115613909Y-71930879D01*
X115614451Y-71925366D01*
X115615261Y-71919893D01*
X115615098Y-71918800D01*
X115615350Y-71916247D01*
X115615350Y-71773390D01*
X115615098Y-71770836D01*
X115615261Y-71769744D01*
X115614451Y-71764270D01*
X115613909Y-71758758D01*
X115613486Y-71757736D01*
X115613111Y-71755200D01*
X115565492Y-71564724D01*
X115565106Y-71563644D01*
X115565068Y-71563104D01*
X115562737Y-71557014D01*
X115560545Y-71550878D01*
X115560222Y-71550442D01*
X115559813Y-71549373D01*
X115512194Y-71454135D01*
X115508231Y-71447840D01*
X115507473Y-71446008D01*
X115505781Y-71443946D01*
X115504362Y-71441692D01*
X115502865Y-71440393D01*
X115498145Y-71434643D01*
X115402907Y-71339405D01*
X115391542Y-71330078D01*
X115389051Y-71329046D01*
X115387016Y-71327281D01*
X115373591Y-71321287D01*
X115230734Y-71273668D01*
X115223480Y-71272018D01*
X115221649Y-71271260D01*
X115218994Y-71270998D01*
X115216397Y-71270408D01*
X115214422Y-71270548D01*
X115207017Y-71269819D01*
X114968922Y-71269819D01*
X114954290Y-71271260D01*
X114927254Y-71282459D01*
X114906562Y-71303151D01*
X114895363Y-71330187D01*
X114893922Y-71344819D01*
X114381312Y-71344819D01*
X114373406Y-71321102D01*
X114367412Y-71307676D01*
X114363900Y-71303627D01*
X114361505Y-71298836D01*
X114354401Y-71292674D01*
X114348238Y-71285569D01*
X114343444Y-71283172D01*
X114339397Y-71279662D01*
X114330475Y-71276688D01*
X114322065Y-71272483D01*
X114316720Y-71272103D01*
X114311635Y-71270408D01*
X114302255Y-71271074D01*
X114292875Y-71270408D01*
X114287789Y-71272103D01*
X114282445Y-71272483D01*
X114274037Y-71276687D01*
X114265112Y-71279662D01*
X114261061Y-71283175D01*
X114256272Y-71285570D01*
X114250113Y-71292670D01*
X114243005Y-71298836D01*
X114240608Y-71303629D01*
X114237098Y-71307677D01*
X114231104Y-71321102D01*
X113897771Y-72321102D01*
X113894511Y-72335439D01*
X113783400Y-72335439D01*
X113783400Y-71111678D01*
X130725021Y-71111678D01*
X130725021Y-72530930D01*
G37*
X138336905Y-71173152D02*
X138336905Y-70173152D01*
X138336905Y-70173152D02*
X138575000Y-70173152D01*
X138575000Y-70173152D02*
X138717857Y-70220771D01*
X138717857Y-70220771D02*
X138813095Y-70316009D01*
X138813095Y-70316009D02*
X138860714Y-70411247D01*
X138860714Y-70411247D02*
X138908333Y-70601723D01*
X138908333Y-70601723D02*
X138908333Y-70744580D01*
X138908333Y-70744580D02*
X138860714Y-70935056D01*
X138860714Y-70935056D02*
X138813095Y-71030294D01*
X138813095Y-71030294D02*
X138717857Y-71125533D01*
X138717857Y-71125533D02*
X138575000Y-71173152D01*
X138575000Y-71173152D02*
X138336905Y-71173152D01*
X139765476Y-70506485D02*
X139765476Y-71173152D01*
X139527381Y-70125533D02*
X139289286Y-70839818D01*
X139289286Y-70839818D02*
X139908333Y-70839818D01*
X109475000Y-52762500D02*
X134875000Y-52762500D01*
X134875000Y-70537500D01*
X109475000Y-70537500D01*
X109475000Y-52762500D01*
G36*
X160903066Y-57079077D02*
G01*
X160975008Y-57151019D01*
X161015350Y-57312386D01*
X161015350Y-57627251D01*
X160975008Y-57788617D01*
X160903065Y-57860561D01*
X160834550Y-57894819D01*
X160679484Y-57894819D01*
X160610968Y-57860561D01*
X160539025Y-57788617D01*
X160498684Y-57627251D01*
X160498684Y-57312386D01*
X160539025Y-57151019D01*
X160610968Y-57079077D01*
X160679484Y-57044819D01*
X160834550Y-57044819D01*
X160903066Y-57079077D01*
G37*
G36*
X165617352Y-57079077D02*
G01*
X165647759Y-57109484D01*
X165682017Y-57178000D01*
X165682017Y-57285447D01*
X165647759Y-57353963D01*
X165617352Y-57384370D01*
X165548836Y-57418628D01*
X165260589Y-57418628D01*
X165260589Y-57044819D01*
X165548836Y-57044819D01*
X165617352Y-57079077D01*
G37*
G36*
X165943128Y-58155930D02*
G01*
X159475668Y-58155930D01*
X159475668Y-56969819D01*
X159586779Y-56969819D01*
X159586779Y-57969819D01*
X159588220Y-57984451D01*
X159599419Y-58011487D01*
X159620111Y-58032179D01*
X159647147Y-58043378D01*
X159661779Y-58044819D01*
X160137969Y-58044819D01*
X160152601Y-58043378D01*
X160179637Y-58032179D01*
X160200329Y-58011487D01*
X160211528Y-57984451D01*
X160211528Y-57955187D01*
X160200329Y-57928151D01*
X160179637Y-57907459D01*
X160152601Y-57896260D01*
X160137969Y-57894819D01*
X159736779Y-57894819D01*
X159736779Y-57303152D01*
X160348684Y-57303152D01*
X160348684Y-57636485D01*
X160348935Y-57639038D01*
X160348773Y-57640131D01*
X160349582Y-57645604D01*
X160350125Y-57651117D01*
X160350547Y-57652138D01*
X160350923Y-57654675D01*
X160398542Y-57845151D01*
X160403489Y-57858997D01*
X160406808Y-57863476D01*
X160408942Y-57868628D01*
X160418270Y-57879994D01*
X160513508Y-57975233D01*
X160519258Y-57979953D01*
X160520557Y-57981450D01*
X160522811Y-57982869D01*
X160524873Y-57984561D01*
X160526705Y-57985319D01*
X160533000Y-57989282D01*
X160628238Y-58036901D01*
X160641969Y-58042156D01*
X160644658Y-58042347D01*
X160647147Y-58043378D01*
X160661779Y-58044819D01*
X160852255Y-58044819D01*
X160866887Y-58043378D01*
X160869376Y-58042346D01*
X160872064Y-58042156D01*
X160885796Y-58036901D01*
X160981034Y-57989282D01*
X160987333Y-57985317D01*
X160989161Y-57984560D01*
X160991217Y-57982871D01*
X160993477Y-57981450D01*
X160994776Y-57979951D01*
X161000526Y-57975233D01*
X161095765Y-57879993D01*
X161105092Y-57868628D01*
X161107225Y-57863476D01*
X161110545Y-57858997D01*
X161115492Y-57845151D01*
X161163111Y-57654675D01*
X161163486Y-57652138D01*
X161163909Y-57651117D01*
X161164451Y-57645604D01*
X161165261Y-57640131D01*
X161165098Y-57639038D01*
X161165350Y-57636485D01*
X161165350Y-57398390D01*
X161396303Y-57398390D01*
X161396303Y-57541247D01*
X161396554Y-57543800D01*
X161396392Y-57544893D01*
X161397201Y-57550366D01*
X161397744Y-57555879D01*
X161398166Y-57556900D01*
X161398542Y-57559437D01*
X161446161Y-57749913D01*
X161446546Y-57750992D01*
X161446585Y-57751532D01*
X161448912Y-57757613D01*
X161451108Y-57763759D01*
X161451430Y-57764194D01*
X161451840Y-57765264D01*
X161499459Y-57860502D01*
X161503422Y-57866798D01*
X161504180Y-57868628D01*
X161505869Y-57870686D01*
X161507291Y-57872945D01*
X161508789Y-57874244D01*
X161513508Y-57879994D01*
X161608746Y-57975233D01*
X161620111Y-57984561D01*
X161622601Y-57985592D01*
X161624636Y-57987357D01*
X161638062Y-57993351D01*
X161780918Y-58040970D01*
X161788173Y-58042619D01*
X161790004Y-58043378D01*
X161792657Y-58043639D01*
X161795255Y-58044230D01*
X161797229Y-58044089D01*
X161804636Y-58044819D01*
X161899874Y-58044819D01*
X161907279Y-58044089D01*
X161909254Y-58044230D01*
X161911851Y-58043639D01*
X161914506Y-58043378D01*
X161916337Y-58042619D01*
X161923591Y-58040970D01*
X162066448Y-57993351D01*
X162079873Y-57987357D01*
X162081908Y-57985591D01*
X162084399Y-57984560D01*
X162095765Y-57975232D01*
X162115810Y-57955187D01*
X163112030Y-57955187D01*
X163112030Y-57984451D01*
X163123229Y-58011487D01*
X163143921Y-58032179D01*
X163170957Y-58043378D01*
X163185589Y-58044819D01*
X163280827Y-58044819D01*
X163288232Y-58044089D01*
X163290207Y-58044230D01*
X163292804Y-58043639D01*
X163295459Y-58043378D01*
X163297290Y-58042619D01*
X163304544Y-58040970D01*
X163447401Y-57993351D01*
X163460826Y-57987357D01*
X163462861Y-57985591D01*
X163465352Y-57984560D01*
X163476717Y-57975233D01*
X163571956Y-57879993D01*
X163581283Y-57868628D01*
X163582313Y-57866139D01*
X163584079Y-57864104D01*
X163590073Y-57850678D01*
X163637692Y-57707822D01*
X163639341Y-57700566D01*
X163640100Y-57698736D01*
X163640361Y-57696082D01*
X163640952Y-57693485D01*
X163640811Y-57691510D01*
X163641541Y-57684104D01*
X163641541Y-56969819D01*
X163967732Y-56969819D01*
X163967732Y-57969819D01*
X163969173Y-57984451D01*
X163980372Y-58011487D01*
X164001064Y-58032179D01*
X164028100Y-58043378D01*
X164057364Y-58043378D01*
X164084400Y-58032179D01*
X164105092Y-58011487D01*
X164116291Y-57984451D01*
X164117732Y-57969819D01*
X164117732Y-57307886D01*
X164308101Y-57715821D01*
X164311275Y-57721180D01*
X164311935Y-57722993D01*
X164313109Y-57724275D01*
X164315595Y-57728471D01*
X164324004Y-57736171D01*
X164331699Y-57744574D01*
X164334717Y-57745982D01*
X164337176Y-57748234D01*
X164347888Y-57752129D01*
X164358217Y-57756950D01*
X164361545Y-57757096D01*
X164364677Y-57758235D01*
X164376071Y-57757734D01*
X164387453Y-57758234D01*
X164390581Y-57757096D01*
X164393913Y-57756950D01*
X164404248Y-57752126D01*
X164414954Y-57748234D01*
X164417409Y-57745984D01*
X164420431Y-57744575D01*
X164428132Y-57736164D01*
X164436535Y-57728470D01*
X164439018Y-57724277D01*
X164440195Y-57722993D01*
X164440855Y-57721177D01*
X164444029Y-57715820D01*
X164634398Y-57307886D01*
X164634398Y-57969819D01*
X164635839Y-57984451D01*
X164647038Y-58011487D01*
X164667730Y-58032179D01*
X164694766Y-58043378D01*
X164724030Y-58043378D01*
X164751066Y-58032179D01*
X164771758Y-58011487D01*
X164782957Y-57984451D01*
X164784398Y-57969819D01*
X164784398Y-56969819D01*
X165110589Y-56969819D01*
X165110589Y-57969819D01*
X165112030Y-57984451D01*
X165123229Y-58011487D01*
X165143921Y-58032179D01*
X165170957Y-58043378D01*
X165200221Y-58043378D01*
X165227257Y-58032179D01*
X165247949Y-58011487D01*
X165259148Y-57984451D01*
X165260589Y-57969819D01*
X165260589Y-57568628D01*
X165566541Y-57568628D01*
X165581173Y-57567187D01*
X165583662Y-57566155D01*
X165586350Y-57565965D01*
X165600082Y-57560710D01*
X165695320Y-57513091D01*
X165701619Y-57509126D01*
X165703447Y-57508369D01*
X165705503Y-57506680D01*
X165707763Y-57505259D01*
X165709062Y-57503760D01*
X165714812Y-57499042D01*
X165762431Y-57451423D01*
X165767149Y-57445673D01*
X165768648Y-57444374D01*
X165770069Y-57442114D01*
X165771758Y-57440058D01*
X165772515Y-57438230D01*
X165776480Y-57431931D01*
X165824099Y-57336693D01*
X165829354Y-57322962D01*
X165829545Y-57320272D01*
X165830576Y-57317784D01*
X165832017Y-57303152D01*
X165832017Y-57160295D01*
X165830576Y-57145663D01*
X165829545Y-57143174D01*
X165829354Y-57140485D01*
X165824099Y-57126754D01*
X165776480Y-57031516D01*
X165772515Y-57025216D01*
X165771758Y-57023389D01*
X165770069Y-57021332D01*
X165768648Y-57019073D01*
X165767149Y-57017773D01*
X165762431Y-57012024D01*
X165714812Y-56964405D01*
X165709062Y-56959686D01*
X165707763Y-56958188D01*
X165705503Y-56956766D01*
X165703447Y-56955078D01*
X165701619Y-56954320D01*
X165695320Y-56950356D01*
X165600082Y-56902737D01*
X165586350Y-56897482D01*
X165583662Y-56897291D01*
X165581173Y-56896260D01*
X165566541Y-56894819D01*
X165185589Y-56894819D01*
X165170957Y-56896260D01*
X165143921Y-56907459D01*
X165123229Y-56928151D01*
X165112030Y-56955187D01*
X165110589Y-56969819D01*
X164784398Y-56969819D01*
X164783450Y-56960197D01*
X164783528Y-56958431D01*
X164783183Y-56957482D01*
X164782957Y-56955187D01*
X164777975Y-56943160D01*
X164773528Y-56930930D01*
X164772398Y-56929696D01*
X164771758Y-56928151D01*
X164762558Y-56918951D01*
X164753764Y-56909348D01*
X164752247Y-56908640D01*
X164751066Y-56907459D01*
X164739053Y-56902482D01*
X164727246Y-56896973D01*
X164725573Y-56896899D01*
X164724030Y-56896260D01*
X164711024Y-56896260D01*
X164698010Y-56895688D01*
X164696437Y-56896260D01*
X164694766Y-56896260D01*
X164682747Y-56901238D01*
X164670509Y-56905689D01*
X164669275Y-56906819D01*
X164667730Y-56907459D01*
X164658531Y-56916657D01*
X164648928Y-56925452D01*
X164647752Y-56927436D01*
X164647038Y-56928151D01*
X164646361Y-56929784D01*
X164641434Y-56938102D01*
X164376064Y-57506750D01*
X164110696Y-56938103D01*
X164105770Y-56929787D01*
X164105092Y-56928151D01*
X164104376Y-56927435D01*
X164103202Y-56925453D01*
X164093605Y-56916664D01*
X164084400Y-56907459D01*
X164082854Y-56906818D01*
X164081621Y-56905689D01*
X164069390Y-56901241D01*
X164057364Y-56896260D01*
X164055690Y-56896260D01*
X164054120Y-56895689D01*
X164041119Y-56896260D01*
X164028100Y-56896260D01*
X164026555Y-56896899D01*
X164024884Y-56896973D01*
X164013085Y-56902479D01*
X164001064Y-56907459D01*
X163999881Y-56908641D01*
X163998366Y-56909349D01*
X163989577Y-56918945D01*
X163980372Y-56928151D01*
X163979731Y-56929696D01*
X163978602Y-56930930D01*
X163974154Y-56943160D01*
X163969173Y-56955187D01*
X163968946Y-56957482D01*
X163968602Y-56958431D01*
X163968679Y-56960197D01*
X163967732Y-56969819D01*
X163641541Y-56969819D01*
X163640100Y-56955187D01*
X163628901Y-56928151D01*
X163608209Y-56907459D01*
X163581173Y-56896260D01*
X163551909Y-56896260D01*
X163524873Y-56907459D01*
X163504181Y-56928151D01*
X163492982Y-56955187D01*
X163491541Y-56969819D01*
X163491541Y-57671934D01*
X163453369Y-57786447D01*
X163383170Y-57856647D01*
X163268657Y-57894819D01*
X163185589Y-57894819D01*
X163170957Y-57896260D01*
X163143921Y-57907459D01*
X163123229Y-57928151D01*
X163112030Y-57955187D01*
X162115810Y-57955187D01*
X162143383Y-57927613D01*
X162152711Y-57916247D01*
X162159731Y-57899298D01*
X162163909Y-57889212D01*
X162165350Y-57874580D01*
X162165350Y-57541247D01*
X162163909Y-57526615D01*
X162152710Y-57499579D01*
X162132018Y-57478887D01*
X162104982Y-57467688D01*
X162090350Y-57466247D01*
X161899874Y-57466247D01*
X161885242Y-57467688D01*
X161858206Y-57478887D01*
X161837514Y-57499579D01*
X161826315Y-57526615D01*
X161826315Y-57555879D01*
X161837514Y-57582915D01*
X161858206Y-57603607D01*
X161885242Y-57614806D01*
X161899874Y-57616247D01*
X162015350Y-57616247D01*
X162015350Y-57843514D01*
X162002217Y-57856647D01*
X161887704Y-57894819D01*
X161816806Y-57894819D01*
X161702293Y-57856648D01*
X161628180Y-57782534D01*
X161589686Y-57705547D01*
X161546303Y-57532013D01*
X161546303Y-57407624D01*
X161589686Y-57234090D01*
X161628180Y-57157103D01*
X161702293Y-57082990D01*
X161816806Y-57044819D01*
X161929788Y-57044819D01*
X162009190Y-57084520D01*
X162022921Y-57089775D01*
X162052111Y-57091849D01*
X162079873Y-57082595D01*
X162101980Y-57063422D01*
X162115068Y-57037247D01*
X162117142Y-57008057D01*
X162107888Y-56980296D01*
X162088715Y-56958188D01*
X162076272Y-56950356D01*
X161981034Y-56902737D01*
X161967302Y-56897482D01*
X161964614Y-56897291D01*
X161962125Y-56896260D01*
X161947493Y-56894819D01*
X161804636Y-56894819D01*
X161797229Y-56895548D01*
X161795255Y-56895408D01*
X161792657Y-56895998D01*
X161790004Y-56896260D01*
X161788173Y-56897018D01*
X161780918Y-56898668D01*
X161638062Y-56946287D01*
X161624636Y-56952281D01*
X161622601Y-56954045D01*
X161620111Y-56955077D01*
X161608746Y-56964405D01*
X161513508Y-57059643D01*
X161508789Y-57065392D01*
X161507291Y-57066692D01*
X161505869Y-57068951D01*
X161504181Y-57071008D01*
X161503423Y-57072835D01*
X161499459Y-57079135D01*
X161451840Y-57174373D01*
X161451430Y-57175442D01*
X161451108Y-57175878D01*
X161448912Y-57182023D01*
X161446585Y-57188105D01*
X161446546Y-57188644D01*
X161446161Y-57189724D01*
X161398542Y-57380200D01*
X161398166Y-57382736D01*
X161397744Y-57383758D01*
X161397201Y-57389270D01*
X161396392Y-57394744D01*
X161396554Y-57395836D01*
X161396303Y-57398390D01*
X161165350Y-57398390D01*
X161165350Y-57303152D01*
X161165098Y-57300598D01*
X161165261Y-57299506D01*
X161164451Y-57294032D01*
X161163909Y-57288520D01*
X161163486Y-57287498D01*
X161163111Y-57284962D01*
X161115492Y-57094486D01*
X161110545Y-57080640D01*
X161107226Y-57076161D01*
X161105092Y-57071008D01*
X161095764Y-57059643D01*
X161000526Y-56964405D01*
X160994776Y-56959686D01*
X160993477Y-56958188D01*
X160991217Y-56956766D01*
X160989161Y-56955078D01*
X160987333Y-56954320D01*
X160981034Y-56950356D01*
X160885796Y-56902737D01*
X160872064Y-56897482D01*
X160869376Y-56897291D01*
X160866887Y-56896260D01*
X160852255Y-56894819D01*
X160661779Y-56894819D01*
X160647147Y-56896260D01*
X160644658Y-56897290D01*
X160641969Y-56897482D01*
X160628238Y-56902737D01*
X160533000Y-56950356D01*
X160526705Y-56954318D01*
X160524873Y-56955077D01*
X160522811Y-56956768D01*
X160520557Y-56958188D01*
X160519258Y-56959684D01*
X160513508Y-56964405D01*
X160418270Y-57059643D01*
X160408943Y-57071008D01*
X160406809Y-57076158D01*
X160403489Y-57080640D01*
X160398542Y-57094486D01*
X160350923Y-57284962D01*
X160350547Y-57287498D01*
X160350125Y-57288520D01*
X160349582Y-57294032D01*
X160348773Y-57299506D01*
X160348935Y-57300598D01*
X160348684Y-57303152D01*
X159736779Y-57303152D01*
X159736779Y-56969819D01*
X159735338Y-56955187D01*
X159724139Y-56928151D01*
X159703447Y-56907459D01*
X159676411Y-56896260D01*
X159647147Y-56896260D01*
X159620111Y-56907459D01*
X159599419Y-56928151D01*
X159588220Y-56955187D01*
X159586779Y-56969819D01*
X159475668Y-56969819D01*
X159475668Y-56783708D01*
X165943128Y-56783708D01*
X165943128Y-58155930D01*
G37*
G36*
X110853502Y-48074083D02*
G01*
X110910682Y-48131263D01*
X110940709Y-48191317D01*
X110975626Y-48330983D01*
X110975626Y-48429973D01*
X110940709Y-48569640D01*
X110910682Y-48629694D01*
X110853502Y-48686874D01*
X110764389Y-48716579D01*
X110655797Y-48716579D01*
X110655797Y-48044379D01*
X110764389Y-48044379D01*
X110853502Y-48074083D01*
G37*
G36*
X113277037Y-48070170D02*
G01*
X113298978Y-48092111D01*
X113329004Y-48152164D01*
X113363922Y-48291832D01*
X113363922Y-48469125D01*
X113329004Y-48608794D01*
X113298978Y-48668847D01*
X113277037Y-48690788D01*
X113225455Y-48716579D01*
X113182559Y-48716579D01*
X113130977Y-48690788D01*
X113109037Y-48668847D01*
X113079009Y-48608792D01*
X113044093Y-48469126D01*
X113044093Y-48291831D01*
X113079008Y-48152166D01*
X113109037Y-48092109D01*
X113130977Y-48070169D01*
X113182559Y-48044379D01*
X113225455Y-48044379D01*
X113277037Y-48070170D01*
G37*
G36*
X114099237Y-48422541D02*
G01*
X114121178Y-48444482D01*
X114146970Y-48496065D01*
X114146970Y-48617263D01*
X114121177Y-48668847D01*
X114099237Y-48690788D01*
X114047655Y-48716579D01*
X113926455Y-48716579D01*
X113874873Y-48690788D01*
X113852932Y-48668847D01*
X113827141Y-48617264D01*
X113827141Y-48496064D01*
X113852931Y-48444482D01*
X113874872Y-48422542D01*
X113926456Y-48396750D01*
X114047655Y-48396750D01*
X114099237Y-48422541D01*
G37*
G36*
X114099237Y-48070169D02*
G01*
X114121177Y-48092109D01*
X114146970Y-48143694D01*
X114146970Y-48147435D01*
X114121178Y-48199018D01*
X114099238Y-48220958D01*
X114047655Y-48246750D01*
X113926455Y-48246750D01*
X113874872Y-48220958D01*
X113852931Y-48199018D01*
X113827141Y-48147436D01*
X113827141Y-48143693D01*
X113852932Y-48092111D01*
X113874873Y-48070170D01*
X113926455Y-48044379D01*
X114047655Y-48044379D01*
X114099237Y-48070169D01*
G37*
G36*
X114843133Y-48070170D02*
G01*
X114865074Y-48092111D01*
X114895100Y-48152164D01*
X114930018Y-48291832D01*
X114930018Y-48469125D01*
X114895100Y-48608794D01*
X114865074Y-48668847D01*
X114843133Y-48690788D01*
X114791551Y-48716579D01*
X114748655Y-48716579D01*
X114697073Y-48690788D01*
X114675133Y-48668847D01*
X114645105Y-48608792D01*
X114610189Y-48469126D01*
X114610189Y-48291831D01*
X114645104Y-48152166D01*
X114675133Y-48092109D01*
X114697073Y-48070169D01*
X114748655Y-48044379D01*
X114791551Y-48044379D01*
X114843133Y-48070170D01*
G37*
G36*
X115171374Y-48957935D02*
G01*
X109553089Y-48957935D01*
X109553089Y-47969379D01*
X109644445Y-47969379D01*
X109644445Y-48791579D01*
X109645886Y-48806211D01*
X109657085Y-48833247D01*
X109677777Y-48853939D01*
X109704813Y-48865138D01*
X109734077Y-48865138D01*
X109761113Y-48853939D01*
X109781805Y-48833247D01*
X109793004Y-48806211D01*
X109794445Y-48791579D01*
X109794445Y-48435903D01*
X110114274Y-48435903D01*
X110114274Y-48791579D01*
X110115715Y-48806211D01*
X110126914Y-48833247D01*
X110147606Y-48853939D01*
X110174642Y-48865138D01*
X110203906Y-48865138D01*
X110230942Y-48853939D01*
X110251634Y-48833247D01*
X110262833Y-48806211D01*
X110264274Y-48791579D01*
X110264274Y-47969379D01*
X110505797Y-47969379D01*
X110505797Y-48791579D01*
X110507238Y-48806211D01*
X110518437Y-48833247D01*
X110539129Y-48853939D01*
X110566165Y-48865138D01*
X110580797Y-48866579D01*
X110776559Y-48866579D01*
X110783964Y-48865849D01*
X110785939Y-48865990D01*
X110788536Y-48865399D01*
X110791191Y-48865138D01*
X110793022Y-48864379D01*
X110800276Y-48862730D01*
X110917732Y-48823578D01*
X110931158Y-48817584D01*
X110933193Y-48815818D01*
X110935684Y-48814787D01*
X110947049Y-48805460D01*
X111025354Y-48727155D01*
X111030074Y-48721402D01*
X111031570Y-48720106D01*
X111032989Y-48717851D01*
X111034681Y-48715790D01*
X111035439Y-48713959D01*
X111039403Y-48707663D01*
X111078556Y-48629358D01*
X111078965Y-48628288D01*
X111079288Y-48627853D01*
X111081480Y-48621716D01*
X111083811Y-48615627D01*
X111083849Y-48615086D01*
X111084235Y-48614007D01*
X111123387Y-48457397D01*
X111123762Y-48454859D01*
X111124185Y-48453839D01*
X111124726Y-48448336D01*
X111125538Y-48442852D01*
X111125374Y-48441756D01*
X111125626Y-48439207D01*
X111125626Y-48321750D01*
X111288845Y-48321750D01*
X111288845Y-48439207D01*
X111289096Y-48441756D01*
X111288933Y-48442852D01*
X111289744Y-48448336D01*
X111290286Y-48453839D01*
X111290708Y-48454859D01*
X111291084Y-48457397D01*
X111330236Y-48614007D01*
X111330621Y-48615086D01*
X111330660Y-48615627D01*
X111332990Y-48621716D01*
X111335183Y-48627853D01*
X111335505Y-48628288D01*
X111335915Y-48629358D01*
X111375068Y-48707663D01*
X111379031Y-48713959D01*
X111379790Y-48715790D01*
X111381481Y-48717851D01*
X111382901Y-48720106D01*
X111384396Y-48721403D01*
X111389117Y-48727155D01*
X111467422Y-48805460D01*
X111478787Y-48814787D01*
X111481277Y-48815818D01*
X111483313Y-48817584D01*
X111496738Y-48823578D01*
X111614195Y-48862730D01*
X111621448Y-48864379D01*
X111623280Y-48865138D01*
X111625934Y-48865399D01*
X111628532Y-48865990D01*
X111630506Y-48865849D01*
X111637912Y-48866579D01*
X111716216Y-48866579D01*
X111723621Y-48865849D01*
X111725596Y-48865990D01*
X111728193Y-48865399D01*
X111730848Y-48865138D01*
X111732679Y-48864379D01*
X111739933Y-48862730D01*
X111857390Y-48823578D01*
X111870816Y-48817584D01*
X111872851Y-48815818D01*
X111875342Y-48814787D01*
X111886708Y-48805459D01*
X111925860Y-48766306D01*
X111935187Y-48754941D01*
X111946385Y-48727905D01*
X111946385Y-48698642D01*
X111935186Y-48671606D01*
X111914493Y-48650913D01*
X111887457Y-48639715D01*
X111858194Y-48639715D01*
X111831158Y-48650914D01*
X111819792Y-48660242D01*
X111793159Y-48686875D01*
X111704046Y-48716579D01*
X111650081Y-48716579D01*
X111560969Y-48686875D01*
X111503788Y-48629694D01*
X111473761Y-48569640D01*
X111438845Y-48429973D01*
X111438845Y-48330983D01*
X111472862Y-48194912D01*
X112111634Y-48194912D01*
X112113708Y-48224102D01*
X112126795Y-48250277D01*
X112148903Y-48269450D01*
X112176664Y-48278704D01*
X112205854Y-48276630D01*
X112219586Y-48271375D01*
X112297890Y-48232223D01*
X112304187Y-48228259D01*
X112306018Y-48227501D01*
X112308078Y-48225810D01*
X112310333Y-48224391D01*
X112311630Y-48222894D01*
X112317383Y-48218174D01*
X112345959Y-48189598D01*
X112345959Y-48716579D01*
X112186045Y-48716579D01*
X112171413Y-48718020D01*
X112144377Y-48729219D01*
X112123685Y-48749911D01*
X112112486Y-48776947D01*
X112112486Y-48806211D01*
X112123685Y-48833247D01*
X112144377Y-48853939D01*
X112171413Y-48865138D01*
X112186045Y-48866579D01*
X112655874Y-48866579D01*
X112670506Y-48865138D01*
X112697542Y-48853939D01*
X112718234Y-48833247D01*
X112729433Y-48806211D01*
X112729433Y-48776947D01*
X112718234Y-48749911D01*
X112697542Y-48729219D01*
X112670506Y-48718020D01*
X112655874Y-48716579D01*
X112495959Y-48716579D01*
X112495959Y-48282598D01*
X112894093Y-48282598D01*
X112894093Y-48478360D01*
X112894344Y-48480913D01*
X112894182Y-48482005D01*
X112894990Y-48487477D01*
X112895534Y-48492992D01*
X112895957Y-48494013D01*
X112896332Y-48496550D01*
X112935484Y-48653159D01*
X112935869Y-48654238D01*
X112935908Y-48654779D01*
X112938238Y-48660868D01*
X112940431Y-48667005D01*
X112940753Y-48667440D01*
X112941163Y-48668510D01*
X112980316Y-48746815D01*
X112984278Y-48753109D01*
X112985037Y-48754941D01*
X112986730Y-48757004D01*
X112988149Y-48759258D01*
X112989643Y-48760554D01*
X112994364Y-48766306D01*
X113033516Y-48805459D01*
X113039265Y-48810177D01*
X113040566Y-48811677D01*
X113042825Y-48813099D01*
X113044882Y-48814787D01*
X113046709Y-48815544D01*
X113053009Y-48819509D01*
X113131314Y-48858661D01*
X113145046Y-48863916D01*
X113147733Y-48864106D01*
X113150223Y-48865138D01*
X113164855Y-48866579D01*
X113243160Y-48866579D01*
X113257792Y-48865138D01*
X113260281Y-48864106D01*
X113262969Y-48863916D01*
X113276701Y-48858661D01*
X113355005Y-48819509D01*
X113361301Y-48815545D01*
X113363132Y-48814787D01*
X113365193Y-48813095D01*
X113367448Y-48811676D01*
X113368745Y-48810180D01*
X113374497Y-48805460D01*
X113413650Y-48766307D01*
X113418368Y-48760557D01*
X113419867Y-48759258D01*
X113421288Y-48756999D01*
X113422978Y-48754941D01*
X113423735Y-48753111D01*
X113427699Y-48746815D01*
X113466851Y-48668510D01*
X113467260Y-48667440D01*
X113467583Y-48667005D01*
X113469778Y-48660859D01*
X113472106Y-48654778D01*
X113472144Y-48654238D01*
X113472530Y-48653159D01*
X113511683Y-48496551D01*
X113512058Y-48494012D01*
X113512481Y-48492992D01*
X113513023Y-48487480D01*
X113513833Y-48482006D01*
X113513670Y-48480913D01*
X113513922Y-48478360D01*
X113513922Y-48282598D01*
X113513670Y-48280044D01*
X113513833Y-48278952D01*
X113513023Y-48273478D01*
X113512481Y-48267966D01*
X113512058Y-48266944D01*
X113511683Y-48264408D01*
X113477078Y-48125988D01*
X113677141Y-48125988D01*
X113677141Y-48165141D01*
X113678582Y-48179773D01*
X113679613Y-48182262D01*
X113679804Y-48184950D01*
X113685059Y-48198682D01*
X113724211Y-48276986D01*
X113728174Y-48283283D01*
X113728933Y-48285114D01*
X113730623Y-48287174D01*
X113732043Y-48289429D01*
X113733539Y-48290726D01*
X113738261Y-48296480D01*
X113763532Y-48321750D01*
X113738261Y-48347021D01*
X113733539Y-48352774D01*
X113732043Y-48354072D01*
X113730623Y-48356326D01*
X113728933Y-48358387D01*
X113728174Y-48360217D01*
X113724211Y-48366515D01*
X113685059Y-48444819D01*
X113679804Y-48458551D01*
X113679613Y-48461238D01*
X113678582Y-48463728D01*
X113677141Y-48478360D01*
X113677141Y-48634969D01*
X113678582Y-48649601D01*
X113679613Y-48652090D01*
X113679804Y-48654778D01*
X113685059Y-48668510D01*
X113724211Y-48746814D01*
X113728174Y-48753111D01*
X113728933Y-48754942D01*
X113730623Y-48757002D01*
X113732043Y-48759257D01*
X113733539Y-48760554D01*
X113738260Y-48766307D01*
X113777413Y-48805460D01*
X113783162Y-48810178D01*
X113784462Y-48811677D01*
X113786720Y-48813098D01*
X113788779Y-48814788D01*
X113790608Y-48815545D01*
X113796905Y-48819509D01*
X113875210Y-48858661D01*
X113888942Y-48863916D01*
X113891629Y-48864106D01*
X113894119Y-48865138D01*
X113908751Y-48866579D01*
X114065360Y-48866579D01*
X114079992Y-48865138D01*
X114082481Y-48864106D01*
X114085169Y-48863916D01*
X114098901Y-48858661D01*
X114177205Y-48819509D01*
X114183502Y-48815545D01*
X114185333Y-48814787D01*
X114187393Y-48813096D01*
X114189648Y-48811677D01*
X114190945Y-48810180D01*
X114196699Y-48805459D01*
X114235851Y-48766306D01*
X114240571Y-48760554D01*
X114242066Y-48759258D01*
X114243484Y-48757004D01*
X114245178Y-48754941D01*
X114245936Y-48753109D01*
X114249899Y-48746815D01*
X114289052Y-48668510D01*
X114294307Y-48654779D01*
X114294498Y-48652089D01*
X114295529Y-48649601D01*
X114296970Y-48634969D01*
X114296970Y-48478360D01*
X114295529Y-48463728D01*
X114294498Y-48461239D01*
X114294307Y-48458550D01*
X114289052Y-48444819D01*
X114249899Y-48366514D01*
X114245935Y-48360217D01*
X114245177Y-48358387D01*
X114243485Y-48356325D01*
X114242066Y-48354071D01*
X114240570Y-48352774D01*
X114235850Y-48347022D01*
X114210578Y-48321750D01*
X114235850Y-48296479D01*
X114240570Y-48290726D01*
X114242066Y-48289430D01*
X114243485Y-48287175D01*
X114245177Y-48285114D01*
X114245935Y-48283283D01*
X114246366Y-48282598D01*
X114460189Y-48282598D01*
X114460189Y-48478360D01*
X114460440Y-48480913D01*
X114460278Y-48482005D01*
X114461086Y-48487477D01*
X114461630Y-48492992D01*
X114462053Y-48494013D01*
X114462428Y-48496550D01*
X114501580Y-48653159D01*
X114501965Y-48654238D01*
X114502004Y-48654779D01*
X114504334Y-48660868D01*
X114506527Y-48667005D01*
X114506849Y-48667440D01*
X114507259Y-48668510D01*
X114546412Y-48746815D01*
X114550374Y-48753109D01*
X114551133Y-48754941D01*
X114552826Y-48757004D01*
X114554245Y-48759258D01*
X114555739Y-48760554D01*
X114560460Y-48766306D01*
X114599612Y-48805459D01*
X114605361Y-48810177D01*
X114606662Y-48811677D01*
X114608921Y-48813099D01*
X114610978Y-48814787D01*
X114612805Y-48815544D01*
X114619105Y-48819509D01*
X114697410Y-48858661D01*
X114711142Y-48863916D01*
X114713829Y-48864106D01*
X114716319Y-48865138D01*
X114730951Y-48866579D01*
X114809256Y-48866579D01*
X114823888Y-48865138D01*
X114826377Y-48864106D01*
X114829065Y-48863916D01*
X114842797Y-48858661D01*
X114921101Y-48819509D01*
X114927397Y-48815545D01*
X114929228Y-48814787D01*
X114931289Y-48813095D01*
X114933544Y-48811676D01*
X114934841Y-48810180D01*
X114940593Y-48805460D01*
X114979746Y-48766307D01*
X114984464Y-48760557D01*
X114985963Y-48759258D01*
X114987384Y-48756999D01*
X114989074Y-48754941D01*
X114989831Y-48753111D01*
X114993795Y-48746815D01*
X115032947Y-48668510D01*
X115033356Y-48667440D01*
X115033679Y-48667005D01*
X115035874Y-48660859D01*
X115038202Y-48654778D01*
X115038240Y-48654238D01*
X115038626Y-48653159D01*
X115077779Y-48496551D01*
X115078154Y-48494012D01*
X115078577Y-48492992D01*
X115079119Y-48487480D01*
X115079929Y-48482006D01*
X115079766Y-48480913D01*
X115080018Y-48478360D01*
X115080018Y-48282598D01*
X115079766Y-48280044D01*
X115079929Y-48278952D01*
X115079119Y-48273478D01*
X115078577Y-48267966D01*
X115078154Y-48266944D01*
X115077779Y-48264408D01*
X115038626Y-48107798D01*
X115038240Y-48106718D01*
X115038202Y-48106179D01*
X115035874Y-48100097D01*
X115033679Y-48093952D01*
X115033356Y-48093516D01*
X115032947Y-48092447D01*
X114993795Y-48014143D01*
X114989831Y-48007846D01*
X114989074Y-48006017D01*
X114987384Y-48003958D01*
X114985963Y-48001700D01*
X114984464Y-48000400D01*
X114979746Y-47994651D01*
X114940593Y-47955498D01*
X114934841Y-47950777D01*
X114933544Y-47949282D01*
X114931289Y-47947862D01*
X114929228Y-47946171D01*
X114927397Y-47945412D01*
X114921101Y-47941449D01*
X114842797Y-47902297D01*
X114829065Y-47897042D01*
X114826377Y-47896851D01*
X114823888Y-47895820D01*
X114809256Y-47894379D01*
X114730951Y-47894379D01*
X114716319Y-47895820D01*
X114713829Y-47896851D01*
X114711142Y-47897042D01*
X114697410Y-47902297D01*
X114619105Y-47941449D01*
X114612805Y-47945413D01*
X114610978Y-47946171D01*
X114608921Y-47947858D01*
X114606662Y-47949281D01*
X114605361Y-47950780D01*
X114599612Y-47955499D01*
X114560460Y-47994652D01*
X114555739Y-48000403D01*
X114554245Y-48001700D01*
X114552825Y-48003954D01*
X114551133Y-48006017D01*
X114550374Y-48007847D01*
X114546412Y-48014142D01*
X114507259Y-48092446D01*
X114506848Y-48093517D01*
X114506527Y-48093952D01*
X114504336Y-48100082D01*
X114502004Y-48106178D01*
X114501965Y-48106718D01*
X114501580Y-48107798D01*
X114462428Y-48264408D01*
X114462052Y-48266945D01*
X114461630Y-48267966D01*
X114461088Y-48273468D01*
X114460277Y-48278953D01*
X114460440Y-48280048D01*
X114460189Y-48282598D01*
X114246366Y-48282598D01*
X114249899Y-48276987D01*
X114289052Y-48198682D01*
X114294307Y-48184951D01*
X114294498Y-48182261D01*
X114295529Y-48179773D01*
X114296970Y-48165141D01*
X114296970Y-48125988D01*
X114295529Y-48111356D01*
X114294498Y-48108867D01*
X114294307Y-48106178D01*
X114289052Y-48092446D01*
X114249899Y-48014142D01*
X114245936Y-48007847D01*
X114245178Y-48006017D01*
X114243485Y-48003954D01*
X114242066Y-48001700D01*
X114240571Y-48000403D01*
X114235851Y-47994652D01*
X114196699Y-47955499D01*
X114190945Y-47950777D01*
X114189648Y-47949281D01*
X114187393Y-47947861D01*
X114185333Y-47946171D01*
X114183502Y-47945412D01*
X114177205Y-47941449D01*
X114098901Y-47902297D01*
X114085169Y-47897042D01*
X114082481Y-47896851D01*
X114079992Y-47895820D01*
X114065360Y-47894379D01*
X113908751Y-47894379D01*
X113894119Y-47895820D01*
X113891629Y-47896851D01*
X113888942Y-47897042D01*
X113875210Y-47902297D01*
X113796905Y-47941449D01*
X113790608Y-47945412D01*
X113788779Y-47946170D01*
X113786720Y-47947859D01*
X113784462Y-47949281D01*
X113783162Y-47950779D01*
X113777413Y-47955498D01*
X113738260Y-47994651D01*
X113733539Y-48000402D01*
X113732044Y-48001700D01*
X113730624Y-48003954D01*
X113728933Y-48006016D01*
X113728174Y-48007846D01*
X113724211Y-48014143D01*
X113685059Y-48092447D01*
X113679804Y-48106179D01*
X113679613Y-48108866D01*
X113678582Y-48111356D01*
X113677141Y-48125988D01*
X113477078Y-48125988D01*
X113472530Y-48107798D01*
X113472144Y-48106718D01*
X113472106Y-48106179D01*
X113469778Y-48100097D01*
X113467583Y-48093952D01*
X113467260Y-48093516D01*
X113466851Y-48092447D01*
X113427699Y-48014143D01*
X113423735Y-48007846D01*
X113422978Y-48006017D01*
X113421288Y-48003958D01*
X113419867Y-48001700D01*
X113418368Y-48000400D01*
X113413650Y-47994651D01*
X113374497Y-47955498D01*
X113368745Y-47950777D01*
X113367448Y-47949282D01*
X113365193Y-47947862D01*
X113363132Y-47946171D01*
X113361301Y-47945412D01*
X113355005Y-47941449D01*
X113276701Y-47902297D01*
X113262969Y-47897042D01*
X113260281Y-47896851D01*
X113257792Y-47895820D01*
X113243160Y-47894379D01*
X113164855Y-47894379D01*
X113150223Y-47895820D01*
X113147733Y-47896851D01*
X113145046Y-47897042D01*
X113131314Y-47902297D01*
X113053009Y-47941449D01*
X113046709Y-47945413D01*
X113044882Y-47946171D01*
X113042825Y-47947858D01*
X113040566Y-47949281D01*
X113039265Y-47950780D01*
X113033516Y-47955499D01*
X112994364Y-47994652D01*
X112989643Y-48000403D01*
X112988149Y-48001700D01*
X112986729Y-48003954D01*
X112985037Y-48006017D01*
X112984278Y-48007847D01*
X112980316Y-48014142D01*
X112941163Y-48092446D01*
X112940752Y-48093517D01*
X112940431Y-48093952D01*
X112938240Y-48100082D01*
X112935908Y-48106178D01*
X112935869Y-48106718D01*
X112935484Y-48107798D01*
X112896332Y-48264408D01*
X112895956Y-48266945D01*
X112895534Y-48267966D01*
X112894992Y-48273468D01*
X112894181Y-48278953D01*
X112894344Y-48280048D01*
X112894093Y-48282598D01*
X112495959Y-48282598D01*
X112495959Y-47969379D01*
X112495953Y-47969326D01*
X112495959Y-47969300D01*
X112495943Y-47969223D01*
X112494518Y-47954747D01*
X112491676Y-47947886D01*
X112490220Y-47940606D01*
X112486131Y-47934501D01*
X112483319Y-47927711D01*
X112478066Y-47922458D01*
X112473936Y-47916291D01*
X112467824Y-47912216D01*
X112462627Y-47907019D01*
X112455764Y-47904176D01*
X112449587Y-47900058D01*
X112442380Y-47898632D01*
X112435591Y-47895820D01*
X112428164Y-47895820D01*
X112420880Y-47894379D01*
X112413675Y-47895820D01*
X112406327Y-47895820D01*
X112399466Y-47898661D01*
X112392185Y-47900118D01*
X112386079Y-47904207D01*
X112379291Y-47907019D01*
X112374040Y-47912269D01*
X112367870Y-47916402D01*
X112358654Y-47927655D01*
X112358599Y-47927711D01*
X112358588Y-47927735D01*
X112358555Y-47927777D01*
X112284370Y-48039054D01*
X112219923Y-48103501D01*
X112152504Y-48137211D01*
X112140061Y-48145043D01*
X112120888Y-48167151D01*
X112111634Y-48194912D01*
X111472862Y-48194912D01*
X111473761Y-48191317D01*
X111503788Y-48131263D01*
X111560969Y-48074083D01*
X111650081Y-48044379D01*
X111704046Y-48044379D01*
X111793159Y-48074082D01*
X111819792Y-48100716D01*
X111831158Y-48110044D01*
X111858194Y-48121243D01*
X111887457Y-48121243D01*
X111914493Y-48110045D01*
X111935186Y-48089352D01*
X111946385Y-48062316D01*
X111946385Y-48033053D01*
X111935187Y-48006017D01*
X111925860Y-47994652D01*
X111886708Y-47955499D01*
X111875342Y-47946171D01*
X111872851Y-47945139D01*
X111870816Y-47943374D01*
X111857390Y-47937380D01*
X111739933Y-47898228D01*
X111732679Y-47896578D01*
X111730848Y-47895820D01*
X111728193Y-47895558D01*
X111725596Y-47894968D01*
X111723621Y-47895108D01*
X111716216Y-47894379D01*
X111637912Y-47894379D01*
X111630506Y-47895108D01*
X111628532Y-47894968D01*
X111625934Y-47895558D01*
X111623280Y-47895820D01*
X111621448Y-47896578D01*
X111614195Y-47898228D01*
X111496738Y-47937380D01*
X111483313Y-47943374D01*
X111481277Y-47945139D01*
X111478787Y-47946171D01*
X111467422Y-47955498D01*
X111389117Y-48033803D01*
X111384396Y-48039554D01*
X111382901Y-48040852D01*
X111381481Y-48043106D01*
X111379790Y-48045168D01*
X111379031Y-48046998D01*
X111375068Y-48053295D01*
X111335915Y-48131600D01*
X111335505Y-48132669D01*
X111335183Y-48133105D01*
X111332990Y-48139241D01*
X111330660Y-48145331D01*
X111330621Y-48145871D01*
X111330236Y-48146951D01*
X111291084Y-48303560D01*
X111290709Y-48306096D01*
X111290286Y-48307118D01*
X111289742Y-48312632D01*
X111288934Y-48318105D01*
X111289096Y-48319196D01*
X111288845Y-48321750D01*
X111125626Y-48321750D01*
X111125374Y-48319200D01*
X111125538Y-48318105D01*
X111124726Y-48312620D01*
X111124185Y-48307118D01*
X111123762Y-48306097D01*
X111123387Y-48303560D01*
X111084235Y-48146951D01*
X111083849Y-48145871D01*
X111083811Y-48145331D01*
X111081480Y-48139241D01*
X111079288Y-48133105D01*
X111078965Y-48132669D01*
X111078556Y-48131600D01*
X111039403Y-48053295D01*
X111035439Y-48046998D01*
X111034681Y-48045168D01*
X111032989Y-48043106D01*
X111031570Y-48040852D01*
X111030074Y-48039555D01*
X111025354Y-48033803D01*
X110947049Y-47955498D01*
X110935684Y-47946171D01*
X110933193Y-47945139D01*
X110931158Y-47943374D01*
X110917732Y-47937380D01*
X110800276Y-47898228D01*
X110793022Y-47896578D01*
X110791191Y-47895820D01*
X110788536Y-47895558D01*
X110785939Y-47894968D01*
X110783964Y-47895108D01*
X110776559Y-47894379D01*
X110580797Y-47894379D01*
X110566165Y-47895820D01*
X110539129Y-47907019D01*
X110518437Y-47927711D01*
X110507238Y-47954747D01*
X110505797Y-47969379D01*
X110264274Y-47969379D01*
X110262833Y-47954747D01*
X110251634Y-47927711D01*
X110230942Y-47907019D01*
X110203906Y-47895820D01*
X110174642Y-47895820D01*
X110147606Y-47907019D01*
X110126914Y-47927711D01*
X110115715Y-47954747D01*
X110114274Y-47969379D01*
X110114274Y-48285903D01*
X109794445Y-48285903D01*
X109794445Y-47969379D01*
X109793004Y-47954747D01*
X109781805Y-47927711D01*
X109761113Y-47907019D01*
X109734077Y-47895820D01*
X109704813Y-47895820D01*
X109677777Y-47907019D01*
X109657085Y-47927711D01*
X109645886Y-47954747D01*
X109644445Y-47969379D01*
X109553089Y-47969379D01*
X109553089Y-47803023D01*
X115171374Y-47803023D01*
X115171374Y-48957935D01*
G37*
X148666666Y-73554819D02*
X148666666Y-74269104D01*
X148666666Y-74269104D02*
X148619047Y-74411961D01*
X148619047Y-74411961D02*
X148523809Y-74507200D01*
X148523809Y-74507200D02*
X148380952Y-74554819D01*
X148380952Y-74554819D02*
X148285714Y-74554819D01*
X149619047Y-73554819D02*
X149142857Y-73554819D01*
X149142857Y-73554819D02*
X149095238Y-74031009D01*
X149095238Y-74031009D02*
X149142857Y-73983390D01*
X149142857Y-73983390D02*
X149238095Y-73935771D01*
X149238095Y-73935771D02*
X149476190Y-73935771D01*
X149476190Y-73935771D02*
X149571428Y-73983390D01*
X149571428Y-73983390D02*
X149619047Y-74031009D01*
X149619047Y-74031009D02*
X149666666Y-74126247D01*
X149666666Y-74126247D02*
X149666666Y-74364342D01*
X149666666Y-74364342D02*
X149619047Y-74459580D01*
X149619047Y-74459580D02*
X149571428Y-74507200D01*
X149571428Y-74507200D02*
X149476190Y-74554819D01*
X149476190Y-74554819D02*
X149238095Y-74554819D01*
X149238095Y-74554819D02*
X149142857Y-74507200D01*
X149142857Y-74507200D02*
X149095238Y-74459580D01*
X162066666Y-51729819D02*
X162066666Y-52444104D01*
X162066666Y-52444104D02*
X162019047Y-52586961D01*
X162019047Y-52586961D02*
X161923809Y-52682200D01*
X161923809Y-52682200D02*
X161780952Y-52729819D01*
X161780952Y-52729819D02*
X161685714Y-52729819D01*
X162685714Y-52158390D02*
X162590476Y-52110771D01*
X162590476Y-52110771D02*
X162542857Y-52063152D01*
X162542857Y-52063152D02*
X162495238Y-51967914D01*
X162495238Y-51967914D02*
X162495238Y-51920295D01*
X162495238Y-51920295D02*
X162542857Y-51825057D01*
X162542857Y-51825057D02*
X162590476Y-51777438D01*
X162590476Y-51777438D02*
X162685714Y-51729819D01*
X162685714Y-51729819D02*
X162876190Y-51729819D01*
X162876190Y-51729819D02*
X162971428Y-51777438D01*
X162971428Y-51777438D02*
X163019047Y-51825057D01*
X163019047Y-51825057D02*
X163066666Y-51920295D01*
X163066666Y-51920295D02*
X163066666Y-51967914D01*
X163066666Y-51967914D02*
X163019047Y-52063152D01*
X163019047Y-52063152D02*
X162971428Y-52110771D01*
X162971428Y-52110771D02*
X162876190Y-52158390D01*
X162876190Y-52158390D02*
X162685714Y-52158390D01*
X162685714Y-52158390D02*
X162590476Y-52206009D01*
X162590476Y-52206009D02*
X162542857Y-52253628D01*
X162542857Y-52253628D02*
X162495238Y-52348866D01*
X162495238Y-52348866D02*
X162495238Y-52539342D01*
X162495238Y-52539342D02*
X162542857Y-52634580D01*
X162542857Y-52634580D02*
X162590476Y-52682200D01*
X162590476Y-52682200D02*
X162685714Y-52729819D01*
X162685714Y-52729819D02*
X162876190Y-52729819D01*
X162876190Y-52729819D02*
X162971428Y-52682200D01*
X162971428Y-52682200D02*
X163019047Y-52634580D01*
X163019047Y-52634580D02*
X163066666Y-52539342D01*
X163066666Y-52539342D02*
X163066666Y-52348866D01*
X163066666Y-52348866D02*
X163019047Y-52253628D01*
X163019047Y-52253628D02*
X162971428Y-52206009D01*
X162971428Y-52206009D02*
X162876190Y-52158390D01*
X104116666Y-84329819D02*
X104116666Y-85044104D01*
X104116666Y-85044104D02*
X104069047Y-85186961D01*
X104069047Y-85186961D02*
X103973809Y-85282200D01*
X103973809Y-85282200D02*
X103830952Y-85329819D01*
X103830952Y-85329819D02*
X103735714Y-85329819D01*
X104497619Y-84329819D02*
X105164285Y-84329819D01*
X105164285Y-84329819D02*
X104735714Y-85329819D01*
X118783333Y-75959580D02*
X118735714Y-76007200D01*
X118735714Y-76007200D02*
X118592857Y-76054819D01*
X118592857Y-76054819D02*
X118497619Y-76054819D01*
X118497619Y-76054819D02*
X118354762Y-76007200D01*
X118354762Y-76007200D02*
X118259524Y-75911961D01*
X118259524Y-75911961D02*
X118211905Y-75816723D01*
X118211905Y-75816723D02*
X118164286Y-75626247D01*
X118164286Y-75626247D02*
X118164286Y-75483390D01*
X118164286Y-75483390D02*
X118211905Y-75292914D01*
X118211905Y-75292914D02*
X118259524Y-75197676D01*
X118259524Y-75197676D02*
X118354762Y-75102438D01*
X118354762Y-75102438D02*
X118497619Y-75054819D01*
X118497619Y-75054819D02*
X118592857Y-75054819D01*
X118592857Y-75054819D02*
X118735714Y-75102438D01*
X118735714Y-75102438D02*
X118783333Y-75150057D01*
X119164286Y-75150057D02*
X119211905Y-75102438D01*
X119211905Y-75102438D02*
X119307143Y-75054819D01*
X119307143Y-75054819D02*
X119545238Y-75054819D01*
X119545238Y-75054819D02*
X119640476Y-75102438D01*
X119640476Y-75102438D02*
X119688095Y-75150057D01*
X119688095Y-75150057D02*
X119735714Y-75245295D01*
X119735714Y-75245295D02*
X119735714Y-75340533D01*
X119735714Y-75340533D02*
X119688095Y-75483390D01*
X119688095Y-75483390D02*
X119116667Y-76054819D01*
X119116667Y-76054819D02*
X119735714Y-76054819D01*
X129763095Y-76229819D02*
X129763095Y-77039342D01*
X129763095Y-77039342D02*
X129810714Y-77134580D01*
X129810714Y-77134580D02*
X129858333Y-77182200D01*
X129858333Y-77182200D02*
X129953571Y-77229819D01*
X129953571Y-77229819D02*
X130144047Y-77229819D01*
X130144047Y-77229819D02*
X130239285Y-77182200D01*
X130239285Y-77182200D02*
X130286904Y-77134580D01*
X130286904Y-77134580D02*
X130334523Y-77039342D01*
X130334523Y-77039342D02*
X130334523Y-76229819D01*
X130763095Y-76325057D02*
X130810714Y-76277438D01*
X130810714Y-76277438D02*
X130905952Y-76229819D01*
X130905952Y-76229819D02*
X131144047Y-76229819D01*
X131144047Y-76229819D02*
X131239285Y-76277438D01*
X131239285Y-76277438D02*
X131286904Y-76325057D01*
X131286904Y-76325057D02*
X131334523Y-76420295D01*
X131334523Y-76420295D02*
X131334523Y-76515533D01*
X131334523Y-76515533D02*
X131286904Y-76658390D01*
X131286904Y-76658390D02*
X130715476Y-77229819D01*
X130715476Y-77229819D02*
X131334523Y-77229819D01*
X106463095Y-46779819D02*
X106463095Y-47589342D01*
X106463095Y-47589342D02*
X106510714Y-47684580D01*
X106510714Y-47684580D02*
X106558333Y-47732200D01*
X106558333Y-47732200D02*
X106653571Y-47779819D01*
X106653571Y-47779819D02*
X106844047Y-47779819D01*
X106844047Y-47779819D02*
X106939285Y-47732200D01*
X106939285Y-47732200D02*
X106986904Y-47684580D01*
X106986904Y-47684580D02*
X107034523Y-47589342D01*
X107034523Y-47589342D02*
X107034523Y-46779819D01*
X107415476Y-46779819D02*
X108034523Y-46779819D01*
X108034523Y-46779819D02*
X107701190Y-47160771D01*
X107701190Y-47160771D02*
X107844047Y-47160771D01*
X107844047Y-47160771D02*
X107939285Y-47208390D01*
X107939285Y-47208390D02*
X107986904Y-47256009D01*
X107986904Y-47256009D02*
X108034523Y-47351247D01*
X108034523Y-47351247D02*
X108034523Y-47589342D01*
X108034523Y-47589342D02*
X107986904Y-47684580D01*
X107986904Y-47684580D02*
X107939285Y-47732200D01*
X107939285Y-47732200D02*
X107844047Y-47779819D01*
X107844047Y-47779819D02*
X107558333Y-47779819D01*
X107558333Y-47779819D02*
X107463095Y-47732200D01*
X107463095Y-47732200D02*
X107415476Y-47684580D01*
X140658333Y-62779819D02*
X140325000Y-62303628D01*
X140086905Y-62779819D02*
X140086905Y-61779819D01*
X140086905Y-61779819D02*
X140467857Y-61779819D01*
X140467857Y-61779819D02*
X140563095Y-61827438D01*
X140563095Y-61827438D02*
X140610714Y-61875057D01*
X140610714Y-61875057D02*
X140658333Y-61970295D01*
X140658333Y-61970295D02*
X140658333Y-62113152D01*
X140658333Y-62113152D02*
X140610714Y-62208390D01*
X140610714Y-62208390D02*
X140563095Y-62256009D01*
X140563095Y-62256009D02*
X140467857Y-62303628D01*
X140467857Y-62303628D02*
X140086905Y-62303628D01*
X141515476Y-61779819D02*
X141325000Y-61779819D01*
X141325000Y-61779819D02*
X141229762Y-61827438D01*
X141229762Y-61827438D02*
X141182143Y-61875057D01*
X141182143Y-61875057D02*
X141086905Y-62017914D01*
X141086905Y-62017914D02*
X141039286Y-62208390D01*
X141039286Y-62208390D02*
X141039286Y-62589342D01*
X141039286Y-62589342D02*
X141086905Y-62684580D01*
X141086905Y-62684580D02*
X141134524Y-62732200D01*
X141134524Y-62732200D02*
X141229762Y-62779819D01*
X141229762Y-62779819D02*
X141420238Y-62779819D01*
X141420238Y-62779819D02*
X141515476Y-62732200D01*
X141515476Y-62732200D02*
X141563095Y-62684580D01*
X141563095Y-62684580D02*
X141610714Y-62589342D01*
X141610714Y-62589342D02*
X141610714Y-62351247D01*
X141610714Y-62351247D02*
X141563095Y-62256009D01*
X141563095Y-62256009D02*
X141515476Y-62208390D01*
X141515476Y-62208390D02*
X141420238Y-62160771D01*
X141420238Y-62160771D02*
X141229762Y-62160771D01*
X141229762Y-62160771D02*
X141134524Y-62208390D01*
X141134524Y-62208390D02*
X141086905Y-62256009D01*
X141086905Y-62256009D02*
X141039286Y-62351247D01*
X123091666Y-51504819D02*
X123091666Y-52219104D01*
X123091666Y-52219104D02*
X123044047Y-52361961D01*
X123044047Y-52361961D02*
X122948809Y-52457200D01*
X122948809Y-52457200D02*
X122805952Y-52504819D01*
X122805952Y-52504819D02*
X122710714Y-52504819D01*
X123996428Y-51504819D02*
X123805952Y-51504819D01*
X123805952Y-51504819D02*
X123710714Y-51552438D01*
X123710714Y-51552438D02*
X123663095Y-51600057D01*
X123663095Y-51600057D02*
X123567857Y-51742914D01*
X123567857Y-51742914D02*
X123520238Y-51933390D01*
X123520238Y-51933390D02*
X123520238Y-52314342D01*
X123520238Y-52314342D02*
X123567857Y-52409580D01*
X123567857Y-52409580D02*
X123615476Y-52457200D01*
X123615476Y-52457200D02*
X123710714Y-52504819D01*
X123710714Y-52504819D02*
X123901190Y-52504819D01*
X123901190Y-52504819D02*
X123996428Y-52457200D01*
X123996428Y-52457200D02*
X124044047Y-52409580D01*
X124044047Y-52409580D02*
X124091666Y-52314342D01*
X124091666Y-52314342D02*
X124091666Y-52076247D01*
X124091666Y-52076247D02*
X124044047Y-51981009D01*
X124044047Y-51981009D02*
X123996428Y-51933390D01*
X123996428Y-51933390D02*
X123901190Y-51885771D01*
X123901190Y-51885771D02*
X123710714Y-51885771D01*
X123710714Y-51885771D02*
X123615476Y-51933390D01*
X123615476Y-51933390D02*
X123567857Y-51981009D01*
X123567857Y-51981009D02*
X123520238Y-52076247D01*
X144886905Y-71131486D02*
X144886905Y-70131486D01*
X144886905Y-70131486D02*
X145125000Y-70131486D01*
X145125000Y-70131486D02*
X145267857Y-70179105D01*
X145267857Y-70179105D02*
X145363095Y-70274343D01*
X145363095Y-70274343D02*
X145410714Y-70369581D01*
X145410714Y-70369581D02*
X145458333Y-70560057D01*
X145458333Y-70560057D02*
X145458333Y-70702914D01*
X145458333Y-70702914D02*
X145410714Y-70893390D01*
X145410714Y-70893390D02*
X145363095Y-70988628D01*
X145363095Y-70988628D02*
X145267857Y-71083867D01*
X145267857Y-71083867D02*
X145125000Y-71131486D01*
X145125000Y-71131486D02*
X144886905Y-71131486D01*
X145791667Y-70131486D02*
X146410714Y-70131486D01*
X146410714Y-70131486D02*
X146077381Y-70512438D01*
X146077381Y-70512438D02*
X146220238Y-70512438D01*
X146220238Y-70512438D02*
X146315476Y-70560057D01*
X146315476Y-70560057D02*
X146363095Y-70607676D01*
X146363095Y-70607676D02*
X146410714Y-70702914D01*
X146410714Y-70702914D02*
X146410714Y-70941009D01*
X146410714Y-70941009D02*
X146363095Y-71036247D01*
X146363095Y-71036247D02*
X146315476Y-71083867D01*
X146315476Y-71083867D02*
X146220238Y-71131486D01*
X146220238Y-71131486D02*
X145934524Y-71131486D01*
X145934524Y-71131486D02*
X145839286Y-71083867D01*
X145839286Y-71083867D02*
X145791667Y-71036247D01*
X151561905Y-71214819D02*
X151561905Y-70214819D01*
X151561905Y-70214819D02*
X151800000Y-70214819D01*
X151800000Y-70214819D02*
X151942857Y-70262438D01*
X151942857Y-70262438D02*
X152038095Y-70357676D01*
X152038095Y-70357676D02*
X152085714Y-70452914D01*
X152085714Y-70452914D02*
X152133333Y-70643390D01*
X152133333Y-70643390D02*
X152133333Y-70786247D01*
X152133333Y-70786247D02*
X152085714Y-70976723D01*
X152085714Y-70976723D02*
X152038095Y-71071961D01*
X152038095Y-71071961D02*
X151942857Y-71167200D01*
X151942857Y-71167200D02*
X151800000Y-71214819D01*
X151800000Y-71214819D02*
X151561905Y-71214819D01*
X152514286Y-70310057D02*
X152561905Y-70262438D01*
X152561905Y-70262438D02*
X152657143Y-70214819D01*
X152657143Y-70214819D02*
X152895238Y-70214819D01*
X152895238Y-70214819D02*
X152990476Y-70262438D01*
X152990476Y-70262438D02*
X153038095Y-70310057D01*
X153038095Y-70310057D02*
X153085714Y-70405295D01*
X153085714Y-70405295D02*
X153085714Y-70500533D01*
X153085714Y-70500533D02*
X153038095Y-70643390D01*
X153038095Y-70643390D02*
X152466667Y-71214819D01*
X152466667Y-71214819D02*
X153085714Y-71214819D01*
X158261905Y-71089819D02*
X158261905Y-70089819D01*
X158261905Y-70089819D02*
X158500000Y-70089819D01*
X158500000Y-70089819D02*
X158642857Y-70137438D01*
X158642857Y-70137438D02*
X158738095Y-70232676D01*
X158738095Y-70232676D02*
X158785714Y-70327914D01*
X158785714Y-70327914D02*
X158833333Y-70518390D01*
X158833333Y-70518390D02*
X158833333Y-70661247D01*
X158833333Y-70661247D02*
X158785714Y-70851723D01*
X158785714Y-70851723D02*
X158738095Y-70946961D01*
X158738095Y-70946961D02*
X158642857Y-71042200D01*
X158642857Y-71042200D02*
X158500000Y-71089819D01*
X158500000Y-71089819D02*
X158261905Y-71089819D01*
X159785714Y-71089819D02*
X159214286Y-71089819D01*
X159500000Y-71089819D02*
X159500000Y-70089819D01*
X159500000Y-70089819D02*
X159404762Y-70232676D01*
X159404762Y-70232676D02*
X159309524Y-70327914D01*
X159309524Y-70327914D02*
X159214286Y-70375533D01*
X144033333Y-62779819D02*
X143700000Y-62303628D01*
X143461905Y-62779819D02*
X143461905Y-61779819D01*
X143461905Y-61779819D02*
X143842857Y-61779819D01*
X143842857Y-61779819D02*
X143938095Y-61827438D01*
X143938095Y-61827438D02*
X143985714Y-61875057D01*
X143985714Y-61875057D02*
X144033333Y-61970295D01*
X144033333Y-61970295D02*
X144033333Y-62113152D01*
X144033333Y-62113152D02*
X143985714Y-62208390D01*
X143985714Y-62208390D02*
X143938095Y-62256009D01*
X143938095Y-62256009D02*
X143842857Y-62303628D01*
X143842857Y-62303628D02*
X143461905Y-62303628D01*
X144938095Y-61779819D02*
X144461905Y-61779819D01*
X144461905Y-61779819D02*
X144414286Y-62256009D01*
X144414286Y-62256009D02*
X144461905Y-62208390D01*
X144461905Y-62208390D02*
X144557143Y-62160771D01*
X144557143Y-62160771D02*
X144795238Y-62160771D01*
X144795238Y-62160771D02*
X144890476Y-62208390D01*
X144890476Y-62208390D02*
X144938095Y-62256009D01*
X144938095Y-62256009D02*
X144985714Y-62351247D01*
X144985714Y-62351247D02*
X144985714Y-62589342D01*
X144985714Y-62589342D02*
X144938095Y-62684580D01*
X144938095Y-62684580D02*
X144890476Y-62732200D01*
X144890476Y-62732200D02*
X144795238Y-62779819D01*
X144795238Y-62779819D02*
X144557143Y-62779819D01*
X144557143Y-62779819D02*
X144461905Y-62732200D01*
X144461905Y-62732200D02*
X144414286Y-62684580D01*
X150833333Y-62779819D02*
X150500000Y-62303628D01*
X150261905Y-62779819D02*
X150261905Y-61779819D01*
X150261905Y-61779819D02*
X150642857Y-61779819D01*
X150642857Y-61779819D02*
X150738095Y-61827438D01*
X150738095Y-61827438D02*
X150785714Y-61875057D01*
X150785714Y-61875057D02*
X150833333Y-61970295D01*
X150833333Y-61970295D02*
X150833333Y-62113152D01*
X150833333Y-62113152D02*
X150785714Y-62208390D01*
X150785714Y-62208390D02*
X150738095Y-62256009D01*
X150738095Y-62256009D02*
X150642857Y-62303628D01*
X150642857Y-62303628D02*
X150261905Y-62303628D01*
X151166667Y-61779819D02*
X151785714Y-61779819D01*
X151785714Y-61779819D02*
X151452381Y-62160771D01*
X151452381Y-62160771D02*
X151595238Y-62160771D01*
X151595238Y-62160771D02*
X151690476Y-62208390D01*
X151690476Y-62208390D02*
X151738095Y-62256009D01*
X151738095Y-62256009D02*
X151785714Y-62351247D01*
X151785714Y-62351247D02*
X151785714Y-62589342D01*
X151785714Y-62589342D02*
X151738095Y-62684580D01*
X151738095Y-62684580D02*
X151690476Y-62732200D01*
X151690476Y-62732200D02*
X151595238Y-62779819D01*
X151595238Y-62779819D02*
X151309524Y-62779819D01*
X151309524Y-62779819D02*
X151214286Y-62732200D01*
X151214286Y-62732200D02*
X151166667Y-62684580D01*
X154133333Y-62779819D02*
X153800000Y-62303628D01*
X153561905Y-62779819D02*
X153561905Y-61779819D01*
X153561905Y-61779819D02*
X153942857Y-61779819D01*
X153942857Y-61779819D02*
X154038095Y-61827438D01*
X154038095Y-61827438D02*
X154085714Y-61875057D01*
X154085714Y-61875057D02*
X154133333Y-61970295D01*
X154133333Y-61970295D02*
X154133333Y-62113152D01*
X154133333Y-62113152D02*
X154085714Y-62208390D01*
X154085714Y-62208390D02*
X154038095Y-62256009D01*
X154038095Y-62256009D02*
X153942857Y-62303628D01*
X153942857Y-62303628D02*
X153561905Y-62303628D01*
X154514286Y-61875057D02*
X154561905Y-61827438D01*
X154561905Y-61827438D02*
X154657143Y-61779819D01*
X154657143Y-61779819D02*
X154895238Y-61779819D01*
X154895238Y-61779819D02*
X154990476Y-61827438D01*
X154990476Y-61827438D02*
X155038095Y-61875057D01*
X155038095Y-61875057D02*
X155085714Y-61970295D01*
X155085714Y-61970295D02*
X155085714Y-62065533D01*
X155085714Y-62065533D02*
X155038095Y-62208390D01*
X155038095Y-62208390D02*
X154466667Y-62779819D01*
X154466667Y-62779819D02*
X155085714Y-62779819D01*
X157533333Y-62779819D02*
X157200000Y-62303628D01*
X156961905Y-62779819D02*
X156961905Y-61779819D01*
X156961905Y-61779819D02*
X157342857Y-61779819D01*
X157342857Y-61779819D02*
X157438095Y-61827438D01*
X157438095Y-61827438D02*
X157485714Y-61875057D01*
X157485714Y-61875057D02*
X157533333Y-61970295D01*
X157533333Y-61970295D02*
X157533333Y-62113152D01*
X157533333Y-62113152D02*
X157485714Y-62208390D01*
X157485714Y-62208390D02*
X157438095Y-62256009D01*
X157438095Y-62256009D02*
X157342857Y-62303628D01*
X157342857Y-62303628D02*
X156961905Y-62303628D01*
X158485714Y-62779819D02*
X157914286Y-62779819D01*
X158200000Y-62779819D02*
X158200000Y-61779819D01*
X158200000Y-61779819D02*
X158104762Y-61922676D01*
X158104762Y-61922676D02*
X158009524Y-62017914D01*
X158009524Y-62017914D02*
X157914286Y-62065533D01*
X102686905Y-68379819D02*
X102686905Y-67379819D01*
X102686905Y-67379819D02*
X102925000Y-67379819D01*
X102925000Y-67379819D02*
X103067857Y-67427438D01*
X103067857Y-67427438D02*
X103163095Y-67522676D01*
X103163095Y-67522676D02*
X103210714Y-67617914D01*
X103210714Y-67617914D02*
X103258333Y-67808390D01*
X103258333Y-67808390D02*
X103258333Y-67951247D01*
X103258333Y-67951247D02*
X103210714Y-68141723D01*
X103210714Y-68141723D02*
X103163095Y-68236961D01*
X103163095Y-68236961D02*
X103067857Y-68332200D01*
X103067857Y-68332200D02*
X102925000Y-68379819D01*
X102925000Y-68379819D02*
X102686905Y-68379819D01*
X104115476Y-67379819D02*
X103925000Y-67379819D01*
X103925000Y-67379819D02*
X103829762Y-67427438D01*
X103829762Y-67427438D02*
X103782143Y-67475057D01*
X103782143Y-67475057D02*
X103686905Y-67617914D01*
X103686905Y-67617914D02*
X103639286Y-67808390D01*
X103639286Y-67808390D02*
X103639286Y-68189342D01*
X103639286Y-68189342D02*
X103686905Y-68284580D01*
X103686905Y-68284580D02*
X103734524Y-68332200D01*
X103734524Y-68332200D02*
X103829762Y-68379819D01*
X103829762Y-68379819D02*
X104020238Y-68379819D01*
X104020238Y-68379819D02*
X104115476Y-68332200D01*
X104115476Y-68332200D02*
X104163095Y-68284580D01*
X104163095Y-68284580D02*
X104210714Y-68189342D01*
X104210714Y-68189342D02*
X104210714Y-67951247D01*
X104210714Y-67951247D02*
X104163095Y-67856009D01*
X104163095Y-67856009D02*
X104115476Y-67808390D01*
X104115476Y-67808390D02*
X104020238Y-67760771D01*
X104020238Y-67760771D02*
X103829762Y-67760771D01*
X103829762Y-67760771D02*
X103734524Y-67808390D01*
X103734524Y-67808390D02*
X103686905Y-67856009D01*
X103686905Y-67856009D02*
X103639286Y-67951247D01*
X102686905Y-76704819D02*
X102686905Y-75704819D01*
X102686905Y-75704819D02*
X102925000Y-75704819D01*
X102925000Y-75704819D02*
X103067857Y-75752438D01*
X103067857Y-75752438D02*
X103163095Y-75847676D01*
X103163095Y-75847676D02*
X103210714Y-75942914D01*
X103210714Y-75942914D02*
X103258333Y-76133390D01*
X103258333Y-76133390D02*
X103258333Y-76276247D01*
X103258333Y-76276247D02*
X103210714Y-76466723D01*
X103210714Y-76466723D02*
X103163095Y-76561961D01*
X103163095Y-76561961D02*
X103067857Y-76657200D01*
X103067857Y-76657200D02*
X102925000Y-76704819D01*
X102925000Y-76704819D02*
X102686905Y-76704819D01*
X104163095Y-75704819D02*
X103686905Y-75704819D01*
X103686905Y-75704819D02*
X103639286Y-76181009D01*
X103639286Y-76181009D02*
X103686905Y-76133390D01*
X103686905Y-76133390D02*
X103782143Y-76085771D01*
X103782143Y-76085771D02*
X104020238Y-76085771D01*
X104020238Y-76085771D02*
X104115476Y-76133390D01*
X104115476Y-76133390D02*
X104163095Y-76181009D01*
X104163095Y-76181009D02*
X104210714Y-76276247D01*
X104210714Y-76276247D02*
X104210714Y-76514342D01*
X104210714Y-76514342D02*
X104163095Y-76609580D01*
X104163095Y-76609580D02*
X104115476Y-76657200D01*
X104115476Y-76657200D02*
X104020238Y-76704819D01*
X104020238Y-76704819D02*
X103782143Y-76704819D01*
X103782143Y-76704819D02*
X103686905Y-76657200D01*
X103686905Y-76657200D02*
X103639286Y-76609580D01*
X147483333Y-62779819D02*
X147150000Y-62303628D01*
X146911905Y-62779819D02*
X146911905Y-61779819D01*
X146911905Y-61779819D02*
X147292857Y-61779819D01*
X147292857Y-61779819D02*
X147388095Y-61827438D01*
X147388095Y-61827438D02*
X147435714Y-61875057D01*
X147435714Y-61875057D02*
X147483333Y-61970295D01*
X147483333Y-61970295D02*
X147483333Y-62113152D01*
X147483333Y-62113152D02*
X147435714Y-62208390D01*
X147435714Y-62208390D02*
X147388095Y-62256009D01*
X147388095Y-62256009D02*
X147292857Y-62303628D01*
X147292857Y-62303628D02*
X146911905Y-62303628D01*
X148340476Y-62113152D02*
X148340476Y-62779819D01*
X148102381Y-61732200D02*
X147864286Y-62446485D01*
X147864286Y-62446485D02*
X148483333Y-62446485D01*
X115833333Y-75959580D02*
X115785714Y-76007200D01*
X115785714Y-76007200D02*
X115642857Y-76054819D01*
X115642857Y-76054819D02*
X115547619Y-76054819D01*
X115547619Y-76054819D02*
X115404762Y-76007200D01*
X115404762Y-76007200D02*
X115309524Y-75911961D01*
X115309524Y-75911961D02*
X115261905Y-75816723D01*
X115261905Y-75816723D02*
X115214286Y-75626247D01*
X115214286Y-75626247D02*
X115214286Y-75483390D01*
X115214286Y-75483390D02*
X115261905Y-75292914D01*
X115261905Y-75292914D02*
X115309524Y-75197676D01*
X115309524Y-75197676D02*
X115404762Y-75102438D01*
X115404762Y-75102438D02*
X115547619Y-75054819D01*
X115547619Y-75054819D02*
X115642857Y-75054819D01*
X115642857Y-75054819D02*
X115785714Y-75102438D01*
X115785714Y-75102438D02*
X115833333Y-75150057D01*
X116785714Y-76054819D02*
X116214286Y-76054819D01*
X116500000Y-76054819D02*
X116500000Y-75054819D01*
X116500000Y-75054819D02*
X116404762Y-75197676D01*
X116404762Y-75197676D02*
X116309524Y-75292914D01*
X116309524Y-75292914D02*
X116214286Y-75340533D01*
X103658333Y-48184580D02*
X103610714Y-48232200D01*
X103610714Y-48232200D02*
X103467857Y-48279819D01*
X103467857Y-48279819D02*
X103372619Y-48279819D01*
X103372619Y-48279819D02*
X103229762Y-48232200D01*
X103229762Y-48232200D02*
X103134524Y-48136961D01*
X103134524Y-48136961D02*
X103086905Y-48041723D01*
X103086905Y-48041723D02*
X103039286Y-47851247D01*
X103039286Y-47851247D02*
X103039286Y-47708390D01*
X103039286Y-47708390D02*
X103086905Y-47517914D01*
X103086905Y-47517914D02*
X103134524Y-47422676D01*
X103134524Y-47422676D02*
X103229762Y-47327438D01*
X103229762Y-47327438D02*
X103372619Y-47279819D01*
X103372619Y-47279819D02*
X103467857Y-47279819D01*
X103467857Y-47279819D02*
X103610714Y-47327438D01*
X103610714Y-47327438D02*
X103658333Y-47375057D01*
X103991667Y-47279819D02*
X104610714Y-47279819D01*
X104610714Y-47279819D02*
X104277381Y-47660771D01*
X104277381Y-47660771D02*
X104420238Y-47660771D01*
X104420238Y-47660771D02*
X104515476Y-47708390D01*
X104515476Y-47708390D02*
X104563095Y-47756009D01*
X104563095Y-47756009D02*
X104610714Y-47851247D01*
X104610714Y-47851247D02*
X104610714Y-48089342D01*
X104610714Y-48089342D02*
X104563095Y-48184580D01*
X104563095Y-48184580D02*
X104515476Y-48232200D01*
X104515476Y-48232200D02*
X104420238Y-48279819D01*
X104420238Y-48279819D02*
X104134524Y-48279819D01*
X104134524Y-48279819D02*
X104039286Y-48232200D01*
X104039286Y-48232200D02*
X103991667Y-48184580D01*
D11*
%TO.C,J5*%
X147670000Y-79555000D02*
X147670000Y-92315000D01*
X147670000Y-79555000D02*
X150330000Y-79555000D01*
X147670000Y-92315000D02*
X150330000Y-92315000D01*
X149000000Y-76955000D02*
X150330000Y-76955000D01*
X150330000Y-76955000D02*
X150330000Y-78285000D01*
X150330000Y-79555000D02*
X150330000Y-92315000D01*
%TO.C,J8*%
X165255000Y-53495000D02*
X165255000Y-54875000D01*
X163875000Y-53495000D02*
X165255000Y-53495000D01*
X162605000Y-53495000D02*
X159955000Y-53495000D01*
X162605000Y-53495000D02*
X162605000Y-56255000D01*
X159955000Y-53495000D02*
X159955000Y-56255000D01*
X162605000Y-56255000D02*
X159955000Y-56255000D01*
%TO.C,J7*%
X108485000Y-85915000D02*
X100665000Y-85915000D01*
X106885000Y-85915000D02*
X106885000Y-86835000D01*
X100665000Y-85915000D02*
X100665000Y-94035000D01*
X104525000Y-86675000D02*
X102925000Y-86675000D01*
X102925000Y-86675000D02*
X102925000Y-87675000D01*
X108485000Y-86835000D02*
X108485000Y-85915000D01*
X106885000Y-86835000D02*
X108485000Y-86835000D01*
X106885000Y-87115000D02*
X106885000Y-86835000D01*
X106885000Y-87115000D02*
X108100000Y-87115000D01*
X102925000Y-87175000D02*
X100665000Y-87175000D01*
X104525000Y-87675000D02*
X104525000Y-86675000D01*
X102925000Y-87675000D02*
X104525000Y-87675000D01*
X102925000Y-87675000D02*
X100665000Y-87675000D01*
X105025000Y-88475000D02*
X105025000Y-91475000D01*
X100665000Y-88475000D02*
X105025000Y-88475000D01*
X105025000Y-91475000D02*
X100665000Y-91475000D01*
X104525000Y-92275000D02*
X104525000Y-93275000D01*
X102925000Y-92275000D02*
X104525000Y-92275000D01*
X108485000Y-93115000D02*
X106885000Y-93115000D01*
X106885000Y-93115000D02*
X106885000Y-92835000D01*
X104525000Y-93275000D02*
X102925000Y-93275000D01*
X102925000Y-93275000D02*
X102925000Y-92275000D01*
X108485000Y-94035000D02*
X108485000Y-93115000D01*
X106885000Y-94035000D02*
X106885000Y-93115000D01*
X100665000Y-94035000D02*
X108485000Y-94035000D01*
%TO.C,C2*%
X119989000Y-79305000D02*
X120045000Y-79305000D01*
X120045000Y-83845000D02*
X120045000Y-79305000D01*
X119989000Y-83845000D02*
X120045000Y-83845000D01*
X117905000Y-83845000D02*
X117905000Y-79305000D01*
D12*
%TO.C,U2*%
X127315000Y-77742500D02*
X133665000Y-77742500D01*
X127315000Y-77742500D02*
X127275000Y-83912500D01*
X127275000Y-83912500D02*
X128675000Y-85362500D01*
X133655000Y-85362500D02*
X133665000Y-77742500D01*
X128675000Y-85362500D02*
X133655000Y-85362500D01*
D11*
%TO.C,U3*%
X105630000Y-48290000D02*
X105350000Y-48290000D01*
X105630000Y-48010000D01*
X105630000Y-48290000D01*
G36*
X105630000Y-48290000D02*
G01*
X105350000Y-48290000D01*
X105630000Y-48010000D01*
X105630000Y-48290000D01*
G37*
D10*
X108725000Y-51400000D02*
X105775000Y-51400000D01*
X108725000Y-48000000D02*
X105950000Y-48000000D01*
D11*
%TO.C,R6*%
X139530000Y-59915000D02*
X139860000Y-59915000D01*
X142270000Y-59915000D02*
X141940000Y-59915000D01*
X139530000Y-53375000D02*
X139530000Y-59915000D01*
X139860000Y-53375000D02*
X139530000Y-53375000D01*
X141940000Y-53375000D02*
X142270000Y-53375000D01*
X142270000Y-53375000D02*
X142270000Y-59915000D01*
%TO.C,J6*%
X110740000Y-55980000D02*
X110740000Y-54600000D01*
X112120000Y-55980000D02*
X110740000Y-55980000D01*
X113390000Y-55980000D02*
X133820000Y-55980000D01*
X113390000Y-55980000D02*
X113390000Y-53220000D01*
X133820000Y-55980000D02*
X133820000Y-53220000D01*
X113390000Y-53220000D02*
X133820000Y-53220000D01*
%TO.C,D3*%
X148125000Y-66640000D02*
G75*
G02*
X143125000Y-66640000I-2500000J0D01*
G01*
X143125000Y-66640000D02*
G75*
G02*
X148125000Y-66640000I2500000J0D01*
G01*
X145625000Y-63650000D02*
G75*
G02*
X147169830Y-69200000I0J-2990000D01*
G01*
X144080170Y-69200000D02*
G75*
G02*
X145625000Y-63650000I1544830J2560000D01*
G01*
X144080000Y-69200000D02*
X147170000Y-69200000D01*
%TO.C,D2*%
X154800000Y-66665000D02*
G75*
G02*
X149800000Y-66665000I-2500000J0D01*
G01*
X149800000Y-66665000D02*
G75*
G02*
X154800000Y-66665000I2500000J0D01*
G01*
X152300000Y-63675000D02*
G75*
G02*
X153844830Y-69225000I0J-2990000D01*
G01*
X150755170Y-69225000D02*
G75*
G02*
X152300000Y-63675000I1544830J2560000D01*
G01*
X150755000Y-69225000D02*
X153845000Y-69225000D01*
%TO.C,D1*%
X161500000Y-66640000D02*
G75*
G02*
X156500000Y-66640000I-2500000J0D01*
G01*
X156500000Y-66640000D02*
G75*
G02*
X161500000Y-66640000I2500000J0D01*
G01*
X159000000Y-63650000D02*
G75*
G02*
X160544830Y-69200000I0J-2990000D01*
G01*
X157455170Y-69200000D02*
G75*
G02*
X159000000Y-63650000I1544830J2560000D01*
G01*
X157455000Y-69200000D02*
X160545000Y-69200000D01*
%TO.C,D4*%
X141525000Y-66630000D02*
G75*
G02*
X136525000Y-66630000I-2500000J0D01*
G01*
X136525000Y-66630000D02*
G75*
G02*
X141525000Y-66630000I2500000J0D01*
G01*
X139025000Y-63640000D02*
G75*
G02*
X140569830Y-69190000I0J-2990000D01*
G01*
X137480170Y-69190000D02*
G75*
G02*
X139025000Y-63640000I1544830J2560000D01*
G01*
X137480000Y-69190000D02*
X140570000Y-69190000D01*
%TO.C,R5*%
X145645000Y-53405000D02*
X145645000Y-59945000D01*
X145315000Y-53405000D02*
X145645000Y-53405000D01*
X143235000Y-53405000D02*
X142905000Y-53405000D01*
X142905000Y-53405000D02*
X142905000Y-59945000D01*
X145645000Y-59945000D02*
X145315000Y-59945000D01*
X142905000Y-59945000D02*
X143235000Y-59945000D01*
%TO.C,R3*%
X152395000Y-53255000D02*
X152395000Y-59795000D01*
X152065000Y-53255000D02*
X152395000Y-53255000D01*
X149985000Y-53255000D02*
X149655000Y-53255000D01*
X149655000Y-53255000D02*
X149655000Y-59795000D01*
X152395000Y-59795000D02*
X152065000Y-59795000D01*
X149655000Y-59795000D02*
X149985000Y-59795000D01*
%TO.C,R2*%
X155770000Y-53345000D02*
X155770000Y-59885000D01*
X155440000Y-53345000D02*
X155770000Y-53345000D01*
X153360000Y-53345000D02*
X153030000Y-53345000D01*
X153030000Y-53345000D02*
X153030000Y-59885000D01*
X155770000Y-59885000D02*
X155440000Y-59885000D01*
X153030000Y-59885000D02*
X153360000Y-59885000D01*
%TO.C,R1*%
X159145000Y-53285000D02*
X159145000Y-59825000D01*
X158815000Y-53285000D02*
X159145000Y-53285000D01*
X156735000Y-53285000D02*
X156405000Y-53285000D01*
X156405000Y-53285000D02*
X156405000Y-59825000D01*
X159145000Y-59825000D02*
X158815000Y-59825000D01*
X156405000Y-59825000D02*
X156735000Y-59825000D01*
%TO.C,J1*%
X126610000Y-96130000D02*
X127940000Y-96130000D01*
X126610000Y-97460000D02*
X126610000Y-96130000D01*
X129210000Y-96130000D02*
X147050000Y-96130000D01*
X129210000Y-98790000D02*
X129210000Y-96130000D01*
X129210000Y-98790000D02*
X147050000Y-98790000D01*
X147050000Y-98790000D02*
X147050000Y-96130000D01*
%TO.C,J3*%
X149470000Y-96130000D02*
X150800000Y-96130000D01*
X149470000Y-97460000D02*
X149470000Y-96130000D01*
X152070000Y-96130000D02*
X164830000Y-96130000D01*
X152070000Y-98790000D02*
X152070000Y-96130000D01*
X152070000Y-98790000D02*
X164830000Y-98790000D01*
X164830000Y-98790000D02*
X164830000Y-96130000D01*
%TO.C,J2*%
X117466000Y-47870000D02*
X118796000Y-47870000D01*
X117466000Y-49200000D02*
X117466000Y-47870000D01*
X120066000Y-47870000D02*
X142986000Y-47870000D01*
X120066000Y-50530000D02*
X120066000Y-47870000D01*
X120066000Y-50530000D02*
X142986000Y-50530000D01*
X142986000Y-50530000D02*
X142986000Y-47870000D01*
%TO.C,J4*%
X144390000Y-47870000D02*
X145720000Y-47870000D01*
X144390000Y-49200000D02*
X144390000Y-47870000D01*
X146990000Y-47870000D02*
X164830000Y-47870000D01*
X146990000Y-50530000D02*
X146990000Y-47870000D01*
X146990000Y-50530000D02*
X164830000Y-50530000D01*
X164830000Y-50530000D02*
X164830000Y-47870000D01*
%TO.C,D6*%
X101880000Y-74640000D02*
X104970000Y-74640000D01*
X101880170Y-74640000D02*
G75*
G02*
X103425000Y-69090000I1544830J2560000D01*
G01*
X103425000Y-69090000D02*
G75*
G02*
X104969830Y-74640000I0J-2990000D01*
G01*
X105925000Y-72080000D02*
G75*
G02*
X100925000Y-72080000I-2500000J0D01*
G01*
X100925000Y-72080000D02*
G75*
G02*
X105925000Y-72080000I2500000J0D01*
G01*
%TO.C,D5*%
X101880000Y-82765000D02*
X104970000Y-82765000D01*
X101880170Y-82765000D02*
G75*
G02*
X103425000Y-77215000I1544830J2560000D01*
G01*
X103425000Y-77215000D02*
G75*
G02*
X104969830Y-82765000I0J-2990000D01*
G01*
X105925000Y-80205000D02*
G75*
G02*
X100925000Y-80205000I-2500000J0D01*
G01*
X100925000Y-80205000D02*
G75*
G02*
X105925000Y-80205000I2500000J0D01*
G01*
%TO.C,R4*%
X149020000Y-53315000D02*
X149020000Y-59855000D01*
X148690000Y-53315000D02*
X149020000Y-53315000D01*
X146610000Y-53315000D02*
X146280000Y-53315000D01*
X146280000Y-53315000D02*
X146280000Y-59855000D01*
X149020000Y-59855000D02*
X148690000Y-59855000D01*
X146280000Y-59855000D02*
X146610000Y-59855000D01*
%TO.C,C1*%
X117389000Y-79280000D02*
X117445000Y-79280000D01*
X117445000Y-83820000D02*
X117445000Y-79280000D01*
X117389000Y-83820000D02*
X117445000Y-83820000D01*
X115305000Y-83820000D02*
X115305000Y-79280000D01*
%TO.C,C3*%
X102830000Y-54470000D02*
X102830000Y-49930000D01*
X104914000Y-54470000D02*
X104970000Y-54470000D01*
X104970000Y-54470000D02*
X104970000Y-49930000D01*
X104914000Y-49930000D02*
X104970000Y-49930000D01*
%TD*%
M02*
