# WaveFront *.obj file (generated by Autodesk ATF)

mtllib Jumper.mtl

g Volumenkörper1

v -2.400000 0.000000 -5.000000
v -2.400000 0.000000 0.000000
v -2.400000 5.100000 -5.000000
v -2.400000 5.100000 0.000000
v -2.400000 5.700000 -5.000000
v -2.400000 5.700000 0.000000
v -2.400000 6.300000 -5.000000
v -2.400000 6.300000 0.000000
v -2.300000 5.100000 -4.900000
v -2.300000 5.100000 -0.100000
v -2.300000 5.700000 -4.900000
v -2.300000 5.700000 -0.100000
v -1.900000 0.000000 -4.500000
v -1.900000 0.000000 -0.500000
v -1.900000 0.200000 -4.500000
v -1.900000 0.200000 -0.500000
v -1.500000 0.200000 -4.070000
v -1.500000 0.200000 -0.930000
v -1.500000 6.000000 -4.070000
v -1.500000 6.000000 -0.930000
v -1.217000 0.200000 -3.470000
v -1.217000 0.200000 -2.996000
v -1.217000 0.200000 -2.004000
v -1.217000 0.200000 -1.530000
v -1.217000 6.000000 -3.470000
v -1.217000 6.000000 -2.996000
v -1.217000 6.000000 -2.004000
v -1.217000 6.000000 -1.530000
v -0.900000 0.200000 -4.070000
v -0.900000 0.200000 -3.470000
v -0.900000 0.200000 -1.530000
v -0.900000 0.200000 -0.930000
v -0.900000 6.000000 -4.070000
v -0.900000 6.000000 -3.470000
v -0.900000 6.000000 -1.530000
v -0.900000 6.000000 -0.930000
v -0.500000 0.000000 -4.500000
v -0.500000 0.000000 -0.500000
v -0.500000 0.200000 -4.500000
v -0.500000 0.200000 -2.996000
v -0.500000 0.200000 -2.004000
v -0.500000 0.200000 -0.500000
v -0.500000 6.000000 -2.996000
v -0.500000 6.000000 -2.004000
v -0.100000 5.100000 -4.900000
v -0.100000 5.100000 -0.100000
v -0.100000 5.700000 -4.900000
v -0.100000 5.700000 -0.100000
v 0.000000 0.000000 -5.000000
v 0.000000 0.000000 0.000000
v 0.000000 5.100000 -5.000000
v 0.000000 5.100000 0.000000
v 0.000000 5.700000 -5.000000
v 0.000000 5.700000 0.000000
v 0.000000 6.300000 -5.000000
v 0.000000 6.300000 0.000000
vt -0.028300 0.580000 0.000000
vt -0.100000 0.580000 0.000000
vt -0.100000 0.000000 0.000000
vt -0.028300 0.000000 0.000000
vt -0.000000 0.580000 0.000000
vt -0.047400 0.580000 0.000000
vt -0.047400 0.000000 0.000000
vt -0.000000 0.000000 0.000000
vt -0.000000 0.580000 0.000000
vt -0.071700 0.580000 0.000000
vt -0.071700 0.000000 0.000000
vt -0.000000 0.000000 0.000000
vt -0.000000 0.580000 0.000000
vt -0.047400 0.580000 0.000000
vt -0.047400 0.000000 0.000000
vt -0.000000 0.000000 0.000000
vt -0.031700 0.600000 0.000000
vt -0.031700 0.020000 0.000000
vt -0.000000 0.020000 0.000000
vt -0.000000 0.600000 0.000000
vt 0.000000 0.000000 0.000000
vt 0.480000 0.000000 0.000000
vt 0.480000 0.060000 0.000000
vt 0.000000 0.060000 0.000000
vt 0.000000 0.000000 0.000000
vt 0.220000 0.000000 0.000000
vt 0.220000 0.060000 0.000000
vt 0.000000 0.060000 0.000000
vt 0.000000 0.000000 0.000000
vt 0.480000 0.000000 0.000000
vt 0.480000 0.060000 0.000000
vt 0.000000 0.060000 0.000000
vt 0.000000 0.000000 0.000000
vt 0.220000 0.000000 0.000000
vt 0.220000 0.060000 0.000000
vt 0.000000 0.060000 0.000000
vt -0.250000 -0.140000 0.000000
vt 0.250000 -0.140000 0.000000
vt 0.250000 0.100000 0.000000
vt -0.250000 0.100000 0.000000
vt 0.240000 -0.130000 0.000000
vt -0.240000 -0.130000 0.000000
vt -0.240000 0.090000 0.000000
vt 0.240000 0.090000 0.000000
vt -0.250000 -0.140000 0.000000
vt 0.250000 -0.140000 0.000000
vt 0.250000 0.100000 0.000000
vt -0.250000 0.100000 0.000000
vt 0.240000 -0.130000 0.000000
vt -0.240000 -0.130000 0.000000
vt -0.240000 0.090000 0.000000
vt 0.240000 0.090000 0.000000
vt 0.000000 0.570000 0.000000
vt 0.240000 0.570000 0.000000
vt 0.240000 0.630000 0.000000
vt 0.000000 0.630000 0.000000
vt 0.240000 0.510000 0.000000
vt 0.000000 0.510000 0.000000
vt 0.000000 0.000000 0.000000
vt 0.240000 0.000000 0.000000
vt 0.000000 0.570000 0.000000
vt 0.500000 0.570000 0.000000
vt 0.500000 0.630000 0.000000
vt 0.000000 0.630000 0.000000
vt 0.500000 0.510000 0.000000
vt 0.000000 0.510000 0.000000
vt 0.000000 0.000000 0.000000
vt 0.500000 0.000000 0.000000
vt 0.000000 0.570000 0.000000
vt 0.240000 0.570000 0.000000
vt 0.240000 0.630000 0.000000
vt 0.000000 0.630000 0.000000
vt 0.000000 0.570000 0.000000
vt 0.500000 0.570000 0.000000
vt 0.500000 0.630000 0.000000
vt 0.000000 0.630000 0.000000
vt -0.060000 0.020000 0.000000
vt -0.000000 0.020000 0.000000
vt -0.000000 0.600000 0.000000
vt -0.060000 0.600000 0.000000
vt -0.060000 0.020000 0.000000
vt -0.000000 0.020000 0.000000
vt -0.000000 0.600000 0.000000
vt -0.060000 0.600000 0.000000
vt -0.028300 0.020000 0.000000
vt -0.028300 0.600000 0.000000
vt -0.060000 0.600000 0.000000
vt -0.060000 0.020000 0.000000
vt -0.060000 0.020000 0.000000
vt -0.000000 0.020000 0.000000
vt -0.000000 0.600000 0.000000
vt -0.060000 0.600000 0.000000
vt -0.060000 0.020000 0.000000
vt 0.254000 0.020000 0.000000
vt 0.254000 0.600000 0.000000
vt -0.060000 0.600000 0.000000
vt -0.060000 0.020000 0.000000
vt -0.000000 0.020000 0.000000
vt -0.000000 0.600000 0.000000
vt -0.060000 0.600000 0.000000
vt -0.030000 0.030000 0.000000
vt -0.030000 -0.030000 0.000000
vt 0.284000 -0.030000 0.000000
vt 0.284000 0.030000 0.000000
vt 0.224000 0.030000 0.000000
vt 0.224000 -0.001700 0.000000
vt 0.176600 -0.001700 0.000000
vt 0.176600 0.070000 0.000000
vt 0.077400 0.070000 0.000000
vt 0.077400 -0.001700 0.000000
vt 0.030000 -0.001700 0.000000
vt 0.030000 0.030000 0.000000
vt -0.400000 0.000000 0.000000
vt -0.000000 0.000000 0.000000
vt -0.000000 0.020000 0.000000
vt -0.400000 0.020000 0.000000
vt -0.140000 0.000000 0.000000
vt -0.000000 0.000000 0.000000
vt -0.000000 0.020000 0.000000
vt -0.140000 0.020000 0.000000
vt -0.400000 0.000000 0.000000
vt -0.000000 0.000000 0.000000
vt -0.000000 0.020000 0.000000
vt -0.150400 0.020000 0.000000
vt -0.150400 0.600000 0.000000
vt -0.249600 0.600000 0.000000
vt -0.249600 0.020000 0.000000
vt -0.400000 0.020000 0.000000
vt -0.140000 0.000000 0.000000
vt -0.000000 0.000000 0.000000
vt -0.000000 0.020000 0.000000
vt -0.140000 0.020000 0.000000
vt 0.157000 -0.030000 0.000000
vt -0.157000 -0.030000 0.000000
vt -0.157000 0.030000 0.000000
vt -0.097000 0.030000 0.000000
vt -0.097000 -0.001700 0.000000
vt -0.049600 -0.001700 0.000000
vt -0.049600 0.070000 0.000000
vt -0.200000 0.070000 0.000000
vt -0.200000 -0.070000 0.000000
vt 0.200000 -0.070000 0.000000
vt 0.200000 0.070000 0.000000
vt 0.049600 0.070000 0.000000
vt 0.049600 -0.001700 0.000000
vt 0.097000 -0.001700 0.000000
vt 0.097000 0.030000 0.000000
vt 0.157000 0.030000 0.000000
vt 0.500000 0.510000 0.000000
vt 0.000000 0.510000 0.000000
vt 0.000000 0.000000 0.000000
vt 0.500000 0.000000 0.000000
vt 0.240000 0.510000 0.000000
vt 0.000000 0.510000 0.000000
vt 0.000000 0.000000 0.000000
vt 0.240000 0.000000 0.000000
vt 0.200000 -0.070000 0.000000
vt -0.200000 -0.070000 0.000000
vt -0.200000 0.070000 0.000000
vt 0.200000 0.070000 0.000000
vt -0.250000 0.120000 0.000000
vt -0.250000 -0.120000 0.000000
vt 0.250000 -0.120000 0.000000
vt 0.250000 0.120000 0.000000
vt 0.250000 -0.120000 0.000000
vt 0.250000 0.120000 0.000000
vt -0.250000 0.120000 0.000000
vt -0.250000 -0.120000 0.000000
vn 0.000000 0.000000 -0.100000
vn 0.000000 0.000000 -0.100000
vn 0.000000 0.000000 -0.100000
vn 0.000000 0.000000 -0.100000
vn -0.100000 0.000000 0.000000
vn -0.100000 0.000000 0.000000
vn -0.100000 0.000000 0.000000
vn -0.100000 0.000000 0.000000
vn 0.000000 0.000000 0.100000
vn 0.000000 0.000000 0.100000
vn 0.000000 0.000000 0.100000
vn 0.000000 0.000000 0.100000
vn -0.100000 0.000000 0.000000
vn -0.100000 0.000000 0.000000
vn -0.100000 0.000000 0.000000
vn -0.100000 0.000000 0.000000
vn 0.000000 0.000000 0.100000
vn 0.000000 0.000000 0.100000
vn 0.000000 0.000000 0.100000
vn 0.000000 0.000000 0.100000
vn -0.100000 0.000000 0.000000
vn -0.100000 0.000000 0.000000
vn -0.100000 0.000000 0.000000
vn -0.100000 0.000000 0.000000
vn 0.000000 0.000000 0.100000
vn 0.000000 0.000000 0.100000
vn 0.000000 0.000000 0.100000
vn 0.000000 0.000000 0.100000
vn 0.100000 0.000000 0.000000
vn 0.100000 0.000000 0.000000
vn 0.100000 0.000000 0.000000
vn 0.100000 0.000000 0.000000
vn 0.000000 0.000000 -0.100000
vn 0.000000 0.000000 -0.100000
vn 0.000000 0.000000 -0.100000
vn 0.000000 0.000000 -0.100000
vn 0.000000 0.100000 0.000000
vn 0.000000 0.100000 0.000000
vn 0.000000 0.100000 0.000000
vn 0.000000 0.100000 0.000000
vn 0.000000 0.100000 0.000000
vn 0.000000 0.100000 0.000000
vn 0.000000 0.100000 0.000000
vn 0.000000 0.100000 0.000000
vn 0.000000 -0.100000 0.000000
vn 0.000000 -0.100000 0.000000
vn 0.000000 -0.100000 0.000000
vn 0.000000 -0.100000 0.000000
vn 0.000000 -0.100000 0.000000
vn 0.000000 -0.100000 0.000000
vn 0.000000 -0.100000 0.000000
vn 0.000000 -0.100000 0.000000
vn 0.000000 0.000000 0.100000
vn 0.000000 0.000000 0.100000
vn 0.000000 0.000000 0.100000
vn 0.000000 0.000000 0.100000
vn 0.000000 0.000000 0.100000
vn 0.000000 0.000000 0.100000
vn 0.000000 0.000000 0.100000
vn 0.000000 0.000000 0.100000
vn 0.100000 0.000000 0.000000
vn 0.100000 0.000000 0.000000
vn 0.100000 0.000000 0.000000
vn 0.100000 0.000000 0.000000
vn 0.100000 0.000000 0.000000
vn 0.100000 0.000000 0.000000
vn 0.100000 0.000000 0.000000
vn 0.100000 0.000000 0.000000
vn 0.000000 0.000000 -0.100000
vn 0.000000 0.000000 -0.100000
vn 0.000000 0.000000 -0.100000
vn 0.000000 0.000000 -0.100000
vn -0.100000 0.000000 0.000000
vn -0.100000 0.000000 0.000000
vn -0.100000 0.000000 0.000000
vn -0.100000 0.000000 0.000000
vn -0.100000 0.000000 0.000000
vn -0.100000 0.000000 0.000000
vn -0.100000 0.000000 0.000000
vn -0.100000 0.000000 0.000000
vn 0.000000 0.000000 0.100000
vn 0.000000 0.000000 0.100000
vn 0.000000 0.000000 0.100000
vn 0.000000 0.000000 0.100000
vn 0.000000 0.000000 -0.100000
vn 0.000000 0.000000 -0.100000
vn 0.000000 0.000000 -0.100000
vn 0.000000 0.000000 -0.100000
vn -0.100000 0.000000 0.000000
vn -0.100000 0.000000 0.000000
vn -0.100000 0.000000 0.000000
vn -0.100000 0.000000 0.000000
vn 0.100000 0.000000 0.000000
vn 0.100000 0.000000 0.000000
vn 0.100000 0.000000 0.000000
vn 0.100000 0.000000 0.000000
vn 0.000000 0.000000 -0.100000
vn 0.000000 0.000000 -0.100000
vn 0.000000 0.000000 -0.100000
vn 0.000000 0.000000 -0.100000
vn 0.000000 -0.100000 0.000000
vn 0.000000 -0.100000 0.000000
vn 0.000000 -0.100000 0.000000
vn 0.000000 -0.100000 0.000000
vn 0.000000 -0.100000 0.000000
vn 0.000000 -0.100000 0.000000
vn 0.000000 -0.100000 0.000000
vn 0.000000 -0.100000 0.000000
vn 0.000000 -0.100000 0.000000
vn 0.000000 -0.100000 0.000000
vn 0.000000 -0.100000 0.000000
vn 0.000000 -0.100000 0.000000
vn 0.100000 0.000000 0.000000
vn 0.100000 0.000000 0.000000
vn 0.100000 0.000000 0.000000
vn 0.100000 0.000000 0.000000
vn 0.000000 0.000000 0.100000
vn 0.000000 0.000000 0.100000
vn 0.000000 0.000000 0.100000
vn 0.000000 0.000000 0.100000
vn -0.100000 0.000000 0.000000
vn -0.100000 0.000000 0.000000
vn -0.100000 0.000000 0.000000
vn -0.100000 0.000000 0.000000
vn -0.100000 0.000000 0.000000
vn -0.100000 0.000000 0.000000
vn -0.100000 0.000000 0.000000
vn -0.100000 0.000000 0.000000
vn 0.000000 0.000000 -0.100000
vn 0.000000 0.000000 -0.100000
vn 0.000000 0.000000 -0.100000
vn 0.000000 0.000000 -0.100000
vn 0.000000 -0.100000 0.000000
vn 0.000000 -0.100000 0.000000
vn 0.000000 -0.100000 0.000000
vn 0.000000 -0.100000 0.000000
vn 0.000000 -0.100000 0.000000
vn 0.000000 -0.100000 0.000000
vn 0.000000 -0.100000 0.000000
vn 0.000000 -0.100000 0.000000
vn 0.000000 -0.100000 0.000000
vn 0.000000 -0.100000 0.000000
vn 0.000000 -0.100000 0.000000
vn 0.000000 -0.100000 0.000000
vn 0.000000 -0.100000 0.000000
vn 0.000000 -0.100000 0.000000
vn 0.000000 -0.100000 0.000000
vn 0.000000 -0.100000 0.000000
vn -0.100000 0.000000 0.000000
vn -0.100000 0.000000 0.000000
vn -0.100000 0.000000 0.000000
vn -0.100000 0.000000 0.000000
vn 0.000000 0.000000 -0.100000
vn 0.000000 0.000000 -0.100000
vn 0.000000 0.000000 -0.100000
vn 0.000000 0.000000 -0.100000
vn 0.000000 -0.100000 0.000000
vn 0.000000 -0.100000 0.000000
vn 0.000000 -0.100000 0.000000
vn 0.000000 -0.100000 0.000000
vn 0.000000 -0.100000 0.000000
vn 0.000000 -0.100000 0.000000
vn 0.000000 -0.100000 0.000000
vn 0.000000 -0.100000 0.000000
vn 0.000000 0.100000 0.000000
vn 0.000000 0.100000 0.000000
vn 0.000000 0.100000 0.000000
vn 0.000000 0.100000 0.000000
usemtl 136,136,136
f 27/1/1 44/2/2 23/4/4
f 23/4/4 44/2/2 41/3/3
f 28/5/5 27/6/6 24/8/8
f 24/8/8 27/6/6 23/7/7
f 43/9/9 26/10/10 40/12/12
f 40/12/12 26/10/10 22/11/11
f 26/13/13 25/14/14 22/16/16
f 22/16/16 25/14/14 21/15/15
f 24/18/18 31/19/19 28/17/17
f 28/17/17 31/19/19 35/20/20
usemtl 72,72,72
f 12/21/21 11/22/22 10/24/24
f 10/24/24 11/22/22 9/23/23
f 48/25/25 12/26/26 46/28/28
f 46/28/28 12/26/26 10/27/27
f 47/29/29 48/30/30 45/32/32
f 45/32/32 48/30/30 46/31/31
f 11/33/33 47/34/34 9/36/36
f 9/36/36 47/34/34 45/35/35
f 4/38/38 9/42/42 3/37/37
f 3/37/37 9/42/42 45/43/43
f 3/37/37 45/43/43 51/40/40
f 51/40/40 45/43/43 46/44/44
f 51/40/40 46/44/44 52/39/39
f 52/39/39 46/44/44 4/38/38
f 4/38/38 46/44/44 10/41/41
f 4/38/38 10/41/41 9/42/42
f 5/46/46 12/50/50 6/45/45
f 6/45/45 12/50/50 48/51/51
f 6/45/45 48/51/51 54/48/48
f 54/48/48 48/51/51 47/52/52
f 54/48/48 47/52/52 53/47/47
f 53/47/47 47/52/52 5/46/46
f 5/46/46 47/52/52 11/49/49
f 5/46/46 11/49/49 12/50/50
f 6/53/53 54/54/54 8/56/56
f 8/56/56 54/54/54 56/55/55
f 52/57/57 4/58/58 50/60/60
f 50/60/60 4/58/58 2/59/59
f 54/61/61 53/62/62 56/64/64
f 56/64/64 53/62/62 55/63/63
f 51/65/65 52/66/66 49/68/68
f 49/68/68 52/66/66 50/67/67
f 53/69/69 5/70/70 55/72/72
f 55/72/72 5/70/70 7/71/71
f 5/73/73 6/74/74 7/76/76
f 7/76/76 6/74/74 8/75/75
usemtl 136,136,136
f 29/77/77 30/78/78 33/80/80
f 33/80/80 30/78/78 34/79/79
f 17/81/81 29/82/82 19/84/84
f 19/84/84 29/82/82 33/83/83
f 25/86/86 34/87/87 21/85/85
f 21/85/85 34/87/87 30/88/88
f 31/89/89 32/90/90 35/92/92
f 35/92/92 32/90/90 36/91/91
f 18/93/93 17/94/94 20/96/96
f 20/96/96 17/94/94 19/95/95
f 32/97/97 18/98/98 36/100/100
f 36/100/100 18/98/98 20/99/99
usemtl 72,72,72
f 35/112/112 36/101/101 28/111/111
f 28/111/111 36/101/101 20/102/102
f 28/111/111 20/102/102 27/110/110
f 27/110/110 20/102/102 19/103/103
f 27/110/110 19/103/103 26/107/107
f 26/107/107 19/103/103 25/106/106
f 25/106/106 19/103/103 33/104/104
f 25/106/106 33/104/104 34/105/105
f 43/108/108 44/109/109 26/107/107
f 26/107/107 44/109/109 27/110/110
f 14/113/113 13/114/114 16/116/116
f 16/116/116 13/114/114 15/115/115
f 13/117/117 37/118/118 15/120/120
f 15/120/120 37/118/118 39/119/119
f 39/128/128 37/121/121 40/127/127
f 40/127/127 37/121/121 38/122/122
f 40/127/127 38/122/122 41/124/124
f 41/124/124 38/122/122 42/123/123
f 44/125/125 43/126/126 41/124/124
f 41/124/124 43/126/126 40/127/127
f 38/129/129 14/130/130 42/132/132
f 42/132/132 14/130/130 16/131/131
usemtl 136,136,136
f 29/148/148 17/133/133 15/142/142
f 15/142/142 17/133/133 18/134/134
f 15/142/142 18/134/134 16/141/141
f 16/141/141 18/134/134 32/135/135
f 16/141/141 32/135/135 42/140/140
f 42/140/140 32/135/135 31/136/136
f 42/140/140 31/136/136 41/139/139
f 41/139/139 31/136/136 23/138/138
f 23/138/138 31/136/136 24/137/137
f 15/142/142 39/143/143 29/148/148
f 29/148/148 39/143/143 30/147/147
f 30/147/147 39/143/143 40/144/144
f 30/147/147 40/144/144 22/145/145
f 22/145/145 21/146/146 30/147/147
usemtl 72,72,72
f 4/149/149 3/150/150 2/152/152
f 2/152/152 3/150/150 1/151/151
f 3/153/153 51/154/154 1/156/156
f 1/156/156 51/154/154 49/155/155
f 37/160/160 13/157/157 1/163/163
f 1/163/163 13/157/157 14/158/158
f 1/163/163 14/158/158 2/162/162
f 2/162/162 14/158/158 38/159/159
f 2/162/162 38/159/159 50/161/161
f 50/161/161 38/159/159 37/160/160
f 50/161/161 37/160/160 49/164/164
f 49/164/164 37/160/160 1/163/163
f 56/166/166 55/167/167 8/165/165
f 8/165/165 55/167/167 7/168/168

# 56 vertices
# 168 texture params
# 168 normals
# 108 facets

# 1 groups
